<svg width="32" height="32" viewBox="0 0 32 32" fill="none" xmlns="http://www.w3.org/2000/svg">
<path d="M12.0013 21.3334C11.6235 21.3334 11.3069 21.2056 11.0513 20.95C10.7957 20.6945 10.668 20.3778 10.668 20V17.3334C11.0457 17.3334 11.3624 17.2056 11.618 16.95C11.8735 16.6945 12.0013 16.3778 12.0013 16C12.0013 15.6223 11.8735 15.3056 11.618 15.05C11.3624 14.7945 11.0457 14.6667 10.668 14.6667V12C10.668 11.6223 10.7957 11.3056 11.0513 11.05C11.3069 10.7945 11.6235 10.6667 12.0013 10.6667H20.0013C20.3791 10.6667 20.6957 10.7945 20.9513 11.05C21.2069 11.3056 21.3346 11.6223 21.3346 12V14.6667C20.9569 14.6667 20.6402 14.7945 20.3846 15.05C20.1291 15.3056 20.0013 15.6223 20.0013 16C20.0013 16.3778 20.1291 16.6945 20.3846 16.95C20.6402 17.2056 20.9569 17.3334 21.3346 17.3334V20C21.3346 20.3778 21.2069 20.6945 20.9513 20.95C20.6957 21.2056 20.3791 21.3334 20.0013 21.3334H12.0013ZM16.0013 19.3334C16.1791 19.3334 16.3346 19.2667 16.468 19.1334C16.6013 19 16.668 18.8445 16.668 18.6667C16.668 18.4889 16.6013 18.3334 16.468 18.2C16.3346 18.0667 16.1791 18 16.0013 18C15.8235 18 15.668 18.0667 15.5346 18.2C15.4013 18.3334 15.3346 18.4889 15.3346 18.6667C15.3346 18.8445 15.4013 19 15.5346 19.1334C15.668 19.2667 15.8235 19.3334 16.0013 19.3334ZM16.0013 16.6667C16.1791 16.6667 16.3346 16.6 16.468 16.4667C16.6013 16.3334 16.668 16.1778 16.668 16C16.668 15.8223 16.6013 15.6667 16.468 15.5334C16.3346 15.4 16.1791 15.3334 16.0013 15.3334C15.8235 15.3334 15.668 15.4 15.5346 15.5334C15.4013 15.6667 15.3346 15.8223 15.3346 16C15.3346 16.1778 15.4013 16.3334 15.5346 16.4667C15.668 16.6 15.8235 16.6667 16.0013 16.6667ZM16.0013 14C16.1791 14 16.3346 13.9334 16.468 13.8C16.6013 13.6667 16.668 13.5112 16.668 13.3334C16.668 13.1556 16.6013 13 16.468 12.8667C16.3346 12.7334 16.1791 12.6667 16.0013 12.6667C15.8235 12.6667 15.668 12.7334 15.5346 12.8667C15.4013 13 15.3346 13.1556 15.3346 13.3334C15.3346 13.5112 15.4013 13.6667 15.5346 13.8C15.668 13.9334 15.8235 14 16.0013 14ZM9.33464 30.6667C8.6013 30.6667 7.97352 30.4056 7.4513 29.8834C6.92908 29.3612 6.66797 28.7334 6.66797 28V4.00004C6.66797 3.26671 6.92908 2.63893 7.4513 2.11671C7.97352 1.59449 8.6013 1.33337 9.33464 1.33337H22.668C23.4013 1.33337 24.0291 1.59449 24.5513 2.11671C25.0735 2.63893 25.3346 3.26671 25.3346 4.00004V28C25.3346 28.7334 25.0735 29.3612 24.5513 29.8834C24.0291 30.4056 23.4013 30.6667 22.668 30.6667H9.33464ZM9.33464 24H22.668V8.00004H9.33464V24Z" fill="#0057FF"/>
</svg>
