<svg width="32" height="32" viewBox="0 0 32 32" fill="none" xmlns="http://www.w3.org/2000/svg">
<g id="australia-flag-circular-17749" clip-path="url(#clip0_6632_162803)">
<g id="Group">
<path id="Vector" d="M15.982 31.7883C24.7116 31.7883 31.7883 24.7116 31.7883 15.982C31.7883 7.25248 24.7116 0.175781 15.982 0.175781C7.25248 0.175781 0.175781 7.25248 0.175781 15.982C0.175781 24.7116 7.25248 31.7883 15.982 31.7883Z" fill="#000066"/>
<path id="Vector_2" d="M9.06381 8.46638V4.78247H6.2791V8.46638L3.41676 6.39646C2.97384 6.97603 2.57131 7.58755 2.21092 8.22613L3.0188 8.81026H1.89796C1.25728 10.066 0.776419 11.4165 0.489448 12.838H3.0188L0.219687 14.8626C0.193695 15.2329 0.175781 15.6052 0.175781 15.9821C0.175781 16.2789 0.185616 16.5736 0.201774 16.8662H1.18527L6.2791 13.1823V16.8662H9.06381V13.1823L14.1576 16.8662H16.0256V15.5153L12.3241 12.8384H16.0256V8.81061H12.3245L16.0259 6.13373V4.78282H14.158L9.06381 8.46638Z" fill="#F3F4F5"/>
<path id="Vector_3" d="M13.8068 23.7547L11.6968 23.9381L11.9873 26.0361L10.5282 24.5008L9.06912 26.0361L9.35996 23.9381L7.25 23.7547L9.07123 22.6739L7.89946 20.91L9.87981 21.6599L10.5286 19.6437L11.1773 21.6599L13.1577 20.91L11.9859 22.6739M22.8343 25.6884L22.3249 24.9219L23.1859 25.2479L23.4672 24.3719L23.7489 25.2479L24.6095 24.9219L24.1002 25.6884L24.8915 26.158L23.9748 26.2377L24.1012 27.1489L23.4672 26.4822L22.8332 27.1489L22.9597 26.2377L22.0429 26.158M22.8343 12.0535L22.3249 11.2871L23.1859 11.6131L23.4672 10.7371L23.7489 11.6127L24.6095 11.2871L24.1002 12.0535L24.8915 12.5232L23.9748 12.6029L24.1012 13.514L23.4672 12.8474L22.8332 13.514L22.9597 12.6029L22.0429 12.5232M17.7211 17.5928L17.2118 16.8267L18.0727 17.1526L18.3544 16.2766L18.6361 17.1526L19.497 16.8267L18.9877 17.5928L19.7791 18.0627L18.8623 18.1425L18.9888 19.0536L18.3548 18.3869L17.7208 19.0536L17.8472 18.1425L16.9305 18.0627M27.3805 16.2292L26.8701 15.4628L27.7314 15.7887L28.011 14.9127L28.2941 15.7887L29.1532 15.4628L28.6453 16.2292L29.4364 16.6988L28.5196 16.7786L28.6457 17.6897L28.0117 17.023L27.3777 17.6897L27.5038 16.7786L26.5884 16.6988M25.5125 20.2465L25.0113 20.557L25.1522 19.9848L24.7019 19.6047L25.2898 19.5615L25.5125 19.0157L25.7352 19.5615L26.3232 19.6047L25.8729 19.9848L26.0138 20.557" fill="#F3F4F5"/>
<path id="Vector_4" d="M8.5058 4.78247H6.83491V9.61602H1.51312C1.17135 10.3916 0.886489 11.1977 0.671875 12.0326H6.83491V16.8662H8.5058V12.0326H16.0247V9.61602H8.5058V4.78247Z" fill="#CC0000"/>
<path id="Vector_5" d="M4.88789 12.8384L0.183594 16.2406C0.187106 16.4499 0.191673 16.6589 0.202913 16.8662H0.563998L6.13342 12.8384H4.88789Z" fill="#CC0000"/>
<path id="Vector_6" d="M10.457 12.8384L16.0279 16.8672V15.9645L11.7005 12.8384H10.457Z" fill="#CC0000"/>
<path id="Vector_7" d="M16.0287 4.78418H14.7818L9.21094 8.8095H10.4579L16.0287 4.78418Z" fill="#CC0000"/>
<path id="Vector_8" d="M2.78336 7.28857C2.64919 7.49195 2.51923 7.69813 2.39453 7.90783L3.64217 8.81019H4.88735L2.78336 7.28857Z" fill="#CC0000"/>
</g>
</g>
<defs>
<clipPath id="clip0_6632_162803">
<rect width="32" height="32" fill="white"/>
</clipPath>
</defs>
</svg>
