<svg width="32" height="32" viewBox="0 0 32 32" fill="none" xmlns="http://www.w3.org/2000/svg">
<g id="canada-flag-circular-17758" clip-path="url(#clip0_6632_162815)">
<g id="Group">
<path id="Vector" d="M24.3711 2.58716V29.377C28.826 26.5814 31.7895 21.6291 31.7895 15.9821C31.7895 10.335 28.826 5.38276 24.3711 2.58716Z" fill="#BF0A30"/>
<path id="Vector_2" d="M7.59418 2.58716C3.13963 5.38276 0.175781 10.335 0.175781 15.9821C0.175781 21.6291 3.13963 26.5814 7.59418 29.377V2.58716Z" fill="#BF0A30"/>
<path id="Vector_3" d="M24.3698 2.58711C21.9381 1.06128 19.0642 0.175781 15.9816 0.175781C12.899 0.175781 10.0251 1.06128 7.59375 2.58711V29.3769C10.0251 30.9028 12.899 31.7883 15.9816 31.7883C19.0642 31.7883 21.9381 30.9028 24.3698 29.3769V2.58711Z" fill="#F3F4F5"/>
<path id="Vector_4" d="M16.0942 23.9025L15.9456 20.6183L19.2393 21.0089C19.0356 20.5782 18.854 20.3499 19.0426 19.6615L22.0718 17.1412L21.5417 16.9495C21.1083 16.6151 21.729 15.3386 21.8227 14.5332C21.8227 14.5332 20.0542 15.1416 19.9383 14.8233L19.488 13.9582L17.8789 15.7257C17.7033 15.7679 17.6281 15.698 17.587 15.5494L18.3303 11.8556L17.1532 12.5177C17.0545 12.5599 16.9562 12.5234 16.8912 12.4088L15.7591 10.137L14.5916 12.4963C14.5037 12.581 14.4156 12.5908 14.3422 12.5332L13.2213 11.9045L13.8943 15.5694C13.8409 15.7148 13.7127 15.7559 13.5617 15.6769L12.0236 13.9294C11.8223 14.2519 11.686 14.7784 11.4201 14.8964C11.1542 15.007 10.2635 14.673 9.66633 14.5427C9.87041 15.2789 10.5079 16.5016 10.1043 16.9024L10.1047 16.902L9.45312 17.1247L12.4841 19.7847C12.7134 20.4683 12.4043 20.6699 12.2076 21.0285L15.4981 20.6109L15.4124 23.9225L16.0942 23.9025Z" fill="#BF0A30"/>
</g>
</g>
<defs>
<clipPath id="clip0_6632_162815">
<rect width="32" height="32" fill="white"/>
</clipPath>
</defs>
</svg>
