<svg width="32" height="32" viewBox="0 0 32 32" fill="none" xmlns="http://www.w3.org/2000/svg">
<path d="M2.66797 9.33329V2.66663H9.33464V5.33329H5.33464V9.33329H2.66797ZM2.66797 29.3333V22.6666H5.33464V26.6666H9.33464V29.3333H2.66797ZM22.668 29.3333V26.6666H26.668V22.6666H29.3346V29.3333H22.668ZM26.668 9.33329V5.33329H22.668V2.66663H29.3346V9.33329H26.668ZM23.3346 23.3333H25.3346V25.3333H23.3346V23.3333ZM23.3346 19.3333H25.3346V21.3333H23.3346V19.3333ZM21.3346 21.3333H23.3346V23.3333H21.3346V21.3333ZM19.3346 23.3333H21.3346V25.3333H19.3346V23.3333ZM17.3346 21.3333H19.3346V23.3333H17.3346V21.3333ZM21.3346 17.3333H23.3346V19.3333H21.3346V17.3333ZM19.3346 19.3333H21.3346V21.3333H19.3346V19.3333ZM17.3346 17.3333H19.3346V19.3333H17.3346V17.3333ZM25.3346 6.66663V14.6666H17.3346V6.66663H25.3346ZM14.668 17.3333V25.3333H6.66797V17.3333H14.668ZM14.668 6.66663V14.6666H6.66797V6.66663H14.668ZM12.668 23.3333V19.3333H8.66797V23.3333H12.668ZM12.668 12.6666V8.66663H8.66797V12.6666H12.668ZM23.3346 12.6666V8.66663H19.3346V12.6666H23.3346Z" fill="#0057FF"/>
</svg>
