<svg width="29" height="29" viewBox="0 0 29 29" fill="none" xmlns="http://www.w3.org/2000/svg">
<path d="M3.60156 26.3999V2.3999L5.40156 4.1999L7.20156 2.3999L9.00156 4.1999L10.8016 2.3999L12.6016 4.1999L14.4016 2.3999L16.2016 4.1999L18.0016 2.3999L19.8016 4.1999L21.6016 2.3999L23.4016 4.1999L25.2016 2.3999V26.3999L23.4016 24.5999L21.6016 26.3999L19.8016 24.5999L18.0016 26.3999L16.2016 24.5999L14.4016 26.3999L12.6016 24.5999L10.8016 26.3999L9.00156 24.5999L7.20156 26.3999L5.40156 24.5999L3.60156 26.3999ZM7.20156 20.3999H21.6016V17.9999H7.20156V20.3999ZM7.20156 15.5999H21.6016V13.1999H7.20156V15.5999ZM7.20156 10.7999H21.6016V8.3999H7.20156V10.7999Z" fill="white"/>
</svg>
