<svg width="29" height="29" viewBox="0 0 29 29" fill="none" xmlns="http://www.w3.org/2000/svg">
<path d="M13.1984 20.3999H8.39844C6.73844 20.3999 5.32344 19.8149 4.15344 18.6449C2.98344 17.4749 2.39844 16.0599 2.39844 14.3999C2.39844 12.7399 2.98344 11.3249 4.15344 10.1549C5.32344 8.9849 6.73844 8.3999 8.39844 8.3999H13.1984V10.7999H8.39844C7.39844 10.7999 6.54844 11.1499 5.84844 11.8499C5.14844 12.5499 4.79844 13.3999 4.79844 14.3999C4.79844 15.3999 5.14844 16.2499 5.84844 16.9499C6.54844 17.6499 7.39844 17.9999 8.39844 17.9999H13.1984V20.3999ZM9.59844 15.5999V13.1999H19.1984V15.5999H9.59844ZM15.5984 20.3999V17.9999H20.3984C21.3984 17.9999 22.2484 17.6499 22.9484 16.9499C23.6484 16.2499 23.9984 15.3999 23.9984 14.3999C23.9984 13.3999 23.6484 12.5499 22.9484 11.8499C22.2484 11.1499 21.3984 10.7999 20.3984 10.7999H15.5984V8.3999H20.3984C22.0584 8.3999 23.4734 8.9849 24.6434 10.1549C25.8134 11.3249 26.3984 12.7399 26.3984 14.3999C26.3984 16.0599 25.8134 17.4749 24.6434 18.6449C23.4734 19.8149 22.0584 20.3999 20.3984 20.3999H15.5984Z" fill="white"/>
</svg>
