<svg width="29" height="29" viewBox="0 0 29 29" fill="none" xmlns="http://www.w3.org/2000/svg">
<path d="M3.59922 24C2.93922 24 2.37422 23.765 1.90422 23.295C1.43422 22.825 1.19922 22.26 1.19922 21.6V8.40005H3.59922V21.6H23.9992V24H3.59922ZM8.39922 19.2C7.73922 19.2 7.17422 18.965 6.70422 18.495C6.23422 18.025 5.99922 17.46 5.99922 16.8V7.20005C5.99922 6.54005 6.23422 5.97505 6.70422 5.50505C7.17422 5.03505 7.73922 4.80005 8.39922 4.80005H25.1992C25.8592 4.80005 26.4242 5.03505 26.8942 5.50505C27.3642 5.97505 27.5992 6.54005 27.5992 7.20005V16.8C27.5992 17.46 27.3642 18.025 26.8942 18.495C26.4242 18.965 25.8592 19.2 25.1992 19.2H8.39922ZM10.7992 16.8C10.7992 16.14 10.5642 15.575 10.0942 15.105C9.62422 14.635 9.05922 14.4 8.39922 14.4V16.8H10.7992ZM22.7992 16.8H25.1992V14.4C24.5392 14.4 23.9742 14.635 23.5042 15.105C23.0342 15.575 22.7992 16.14 22.7992 16.8ZM16.7992 15.6C17.7992 15.6 18.6492 15.25 19.3492 14.55C20.0492 13.85 20.3992 13 20.3992 12C20.3992 11 20.0492 10.15 19.3492 9.45005C18.6492 8.75005 17.7992 8.40005 16.7992 8.40005C15.7992 8.40005 14.9492 8.75005 14.2492 9.45005C13.5492 10.15 13.1992 11 13.1992 12C13.1992 13 13.5492 13.85 14.2492 14.55C14.9492 15.25 15.7992 15.6 16.7992 15.6ZM8.39922 9.60005C9.05922 9.60005 9.62422 9.36505 10.0942 8.89505C10.5642 8.42505 10.7992 7.86005 10.7992 7.20005H8.39922V9.60005ZM25.1992 9.60005V7.20005H22.7992C22.7992 7.86005 23.0342 8.42505 23.5042 8.89505C23.9742 9.36505 24.5392 9.60005 25.1992 9.60005Z" fill="white"/>
</svg>
