<svg width="29" height="29" viewBox="0 0 29 29" fill="none" xmlns="http://www.w3.org/2000/svg">
<path d="M14.5184 25.2001C14.1784 25.2001 13.8934 25.0851 13.6634 24.8551C13.4334 24.6251 13.3184 24.3401 13.3184 24.0001C13.3184 23.8601 13.3484 23.7151 13.4084 23.5651C13.4684 23.4151 13.5584 23.2801 13.6784 23.1601L19.2284 17.6101L18.3584 16.7401L12.8384 22.2901C12.7184 22.4101 12.5884 22.5001 12.4484 22.5601C12.3084 22.6201 12.1584 22.6501 11.9984 22.6501C11.6584 22.6501 11.3734 22.5351 11.1434 22.3051C10.9134 22.0751 10.7984 21.7901 10.7984 21.4501C10.7984 21.2501 10.8284 21.0851 10.8884 20.9551C10.9484 20.8251 11.0284 20.7101 11.1284 20.6101L16.6784 15.0601L15.8384 14.2201L10.2884 19.7401C10.1684 19.8601 10.0384 19.9501 9.89844 20.0101C9.75844 20.0701 9.59844 20.1001 9.41844 20.1001C9.09844 20.1001 8.81844 19.9801 8.57844 19.7401C8.33844 19.5001 8.21844 19.2201 8.21844 18.9001C8.21844 18.7401 8.24844 18.5901 8.30844 18.4501C8.36844 18.3101 8.45844 18.1801 8.57844 18.0601L14.1284 12.5101L13.2584 11.6701L7.73844 17.2201C7.63844 17.3201 7.51844 17.4001 7.37844 17.4601C7.23844 17.5201 7.06844 17.5501 6.86844 17.5501C6.52844 17.5501 6.24344 17.4351 6.01344 17.2051C5.78344 16.9751 5.66844 16.6901 5.66844 16.3501C5.66844 16.1901 5.69844 16.0401 5.75844 15.9001C5.81844 15.7601 5.90844 15.6301 6.02844 15.5101L12.7184 8.8201L17.2184 13.3501C17.4384 13.5701 17.6984 13.7451 17.9984 13.8751C18.2984 14.0051 18.5984 14.0701 18.8984 14.0701C19.5384 14.0701 20.0984 13.8451 20.5784 13.3951C21.0584 12.9451 21.2984 12.3701 21.2984 11.6701C21.2984 11.3901 21.2484 11.1001 21.1484 10.8001C21.0484 10.5001 20.8684 10.2201 20.6084 9.9601L15.2384 4.5901C15.5784 4.2701 15.9584 4.0251 16.3784 3.8551C16.7984 3.6851 17.2184 3.6001 17.6384 3.6001C18.1584 3.6001 18.6384 3.6851 19.0784 3.8551C19.5184 4.0251 19.9184 4.2901 20.2784 4.6501L25.3484 9.7501C25.7084 10.1101 25.9734 10.5101 26.1434 10.9501C26.3134 11.3901 26.3984 11.9001 26.3984 12.4801C26.3984 12.8801 26.3084 13.2851 26.1284 13.6951C25.9484 14.1051 25.6884 14.4801 25.3484 14.8201L15.3584 24.8401C15.1984 25.0001 15.0584 25.1001 14.9384 25.1401C14.8184 25.1801 14.6784 25.2001 14.5184 25.2001ZM4.22844 15.6001L3.44844 14.8201C3.10844 14.5001 2.84844 14.1201 2.66844 13.6801C2.48844 13.2401 2.39844 12.7801 2.39844 12.3001C2.39844 11.7801 2.49844 11.3001 2.69844 10.8601C2.89844 10.4201 3.14844 10.0501 3.44844 9.7501L8.51844 4.6501C8.83844 4.3301 9.21844 4.0751 9.65844 3.8851C10.0984 3.6951 10.5284 3.6001 10.9484 3.6001C11.4884 3.6001 11.9684 3.6751 12.3884 3.8251C12.8084 3.9751 13.2184 4.2501 13.6184 4.6501L19.7684 10.8001C19.8884 10.9201 19.9784 11.0501 20.0384 11.1901C20.0984 11.3301 20.1284 11.4801 20.1284 11.6401C20.1284 11.9601 20.0084 12.2401 19.7684 12.4801C19.5284 12.7201 19.2484 12.8401 18.9284 12.8401C18.7484 12.8401 18.5984 12.8151 18.4784 12.7651C18.3584 12.7151 18.2284 12.6201 18.0884 12.4801L12.6884 7.1401L4.22844 15.6001Z" fill="white"/>
</svg>
