<svg width="29" height="29" viewBox="0 0 29 29" fill="none" xmlns="http://www.w3.org/2000/svg">
<g clip-path="url(#clip0_14124_112897)">
<path d="M0 21.6V19.71C0 18.85 0.44 18.15 1.32 17.61C2.2 17.07 3.36 16.8 4.8 16.8C5.06 16.8 5.31 16.805 5.55 16.815C5.79 16.825 6.02 16.85 6.24 16.89C5.96 17.31 5.75 17.75 5.61 18.21C5.47 18.67 5.4 19.15 5.4 19.65V21.6H0ZM7.2 21.6V19.65C7.2 19.01 7.375 18.425 7.725 17.895C8.075 17.365 8.57 16.9 9.21 16.5C9.85 16.1 10.615 15.8 11.505 15.6C12.395 15.4 13.36 15.3 14.4 15.3C15.46 15.3 16.435 15.4 17.325 15.6C18.215 15.8 18.98 16.1 19.62 16.5C20.26 16.9 20.75 17.365 21.09 17.895C21.43 18.425 21.6 19.01 21.6 19.65V21.6H7.2ZM23.4 21.6V19.65C23.4 19.13 23.335 18.64 23.205 18.18C23.075 17.72 22.88 17.29 22.62 16.89C22.84 16.85 23.065 16.825 23.295 16.815C23.525 16.805 23.76 16.8 24 16.8C25.44 16.8 26.6 17.065 27.48 17.595C28.36 18.125 28.8 18.83 28.8 19.71V21.6H23.4ZM4.8 15.6C4.14 15.6 3.575 15.365 3.105 14.895C2.635 14.425 2.4 13.86 2.4 13.2C2.4 12.52 2.635 11.95 3.105 11.49C3.575 11.03 4.14 10.8 4.8 10.8C5.48 10.8 6.05 11.03 6.51 11.49C6.97 11.95 7.2 12.52 7.2 13.2C7.2 13.86 6.97 14.425 6.51 14.895C6.05 15.365 5.48 15.6 4.8 15.6ZM24 15.6C23.34 15.6 22.775 15.365 22.305 14.895C21.835 14.425 21.6 13.86 21.6 13.2C21.6 12.52 21.835 11.95 22.305 11.49C22.775 11.03 23.34 10.8 24 10.8C24.68 10.8 25.25 11.03 25.71 11.49C26.17 11.95 26.4 12.52 26.4 13.2C26.4 13.86 26.17 14.425 25.71 14.895C25.25 15.365 24.68 15.6 24 15.6ZM14.4 14.4C13.4 14.4 12.55 14.05 11.85 13.35C11.15 12.65 10.8 11.8 10.8 10.8C10.8 9.77995 11.15 8.92495 11.85 8.23495C12.55 7.54495 13.4 7.19995 14.4 7.19995C15.42 7.19995 16.275 7.54495 16.965 8.23495C17.655 8.92495 18 9.77995 18 10.8C18 11.8 17.655 12.65 16.965 13.35C16.275 14.05 15.42 14.4 14.4 14.4Z" fill="white"/>
</g>
<defs>
<clipPath id="clip0_14124_112897">
<rect width="28.8" height="28.8" fill="white"/>
</clipPath>
</defs>
</svg>
