<svg width="32" height="32" viewBox="0 0 32 32" fill="none" xmlns="http://www.w3.org/2000/svg">
<g id="france-flag-circular-17753" clip-path="url(#clip0_6632_162837)">
<g id="Group">
<path id="Vector" d="M21.25 1.07886V30.8856C27.3849 28.7166 31.7822 22.8708 31.7875 15.994V15.9701C31.7826 9.09368 27.3849 3.24747 21.25 1.07886Z" fill="#F31830"/>
<path id="Vector_2" d="M10.7133 30.8852V1.07886C4.57484 3.24923 0.175781 9.10035 0.175781 15.982C0.175781 22.8637 4.57484 28.7149 10.7133 30.8852Z" fill="#00267F"/>
<path id="Vector_3" d="M10.7148 30.8852C12.3633 31.4679 14.1357 31.7883 15.9836 31.7883C17.8315 31.7883 19.6039 31.4683 21.2523 30.8852V1.07849C19.6039 0.49577 17.8315 0.175781 15.9836 0.175781C14.1357 0.175781 12.3633 0.496121 10.7148 1.07885V30.8852Z" fill="#F3F4F5"/>
</g>
</g>
<defs>
<clipPath id="clip0_6632_162837">
<rect width="32" height="32" fill="white"/>
</clipPath>
</defs>
</svg>
