<svg width="29" height="29" viewBox="0 0 29 29" fill="none" xmlns="http://www.w3.org/2000/svg">
<path d="M4.79844 26.3999C4.13844 26.3999 3.57344 26.1649 3.10344 25.6949C2.63344 25.2249 2.39844 24.6599 2.39844 23.9999V10.7999C2.39844 10.1399 2.63344 9.5749 3.10344 9.1049C3.57344 8.6349 4.13844 8.3999 4.79844 8.3999H10.7984V4.7999C10.7984 4.1399 11.0334 3.5749 11.5034 3.1049C11.9734 2.6349 12.5384 2.3999 13.1984 2.3999H15.5984C16.2584 2.3999 16.8234 2.6349 17.2934 3.1049C17.7634 3.5749 17.9984 4.1399 17.9984 4.7999V8.3999H23.9984C24.6584 8.3999 25.2234 8.6349 25.6934 9.1049C26.1634 9.5749 26.3984 10.1399 26.3984 10.7999V23.9999C26.3984 24.6599 26.1634 25.2249 25.6934 25.6949C25.2234 26.1649 24.6584 26.3999 23.9984 26.3999H4.79844ZM7.19844 21.5999H14.3984V21.0599C14.3984 20.7199 14.3034 20.4049 14.1134 20.1149C13.9234 19.8249 13.6584 19.5999 13.3184 19.4399C12.9184 19.2599 12.5134 19.1249 12.1034 19.0349C11.6934 18.9449 11.2584 18.8999 10.7984 18.8999C10.3384 18.8999 9.90344 18.9449 9.49344 19.0349C9.08344 19.1249 8.67844 19.2599 8.27844 19.4399C7.93844 19.5999 7.67344 19.8249 7.48344 20.1149C7.29344 20.4049 7.19844 20.7199 7.19844 21.0599V21.5999ZM16.7984 19.7999H21.5984V17.9999H16.7984V19.7999ZM10.7984 17.9999C11.2984 17.9999 11.7234 17.8249 12.0734 17.4749C12.4234 17.1249 12.5984 16.6999 12.5984 16.1999C12.5984 15.6999 12.4234 15.2749 12.0734 14.9249C11.7234 14.5749 11.2984 14.3999 10.7984 14.3999C10.2984 14.3999 9.87344 14.5749 9.52344 14.9249C9.17344 15.2749 8.99844 15.6999 8.99844 16.1999C8.99844 16.6999 9.17344 17.1249 9.52344 17.4749C9.87344 17.8249 10.2984 17.9999 10.7984 17.9999ZM16.7984 16.1999H21.5984V14.3999H16.7984V16.1999ZM13.1984 10.7999H15.5984V4.7999H13.1984V10.7999Z" fill="white"/>
</svg>
