<svg width="32" height="32" viewBox="0 0 32 32" fill="none" xmlns="http://www.w3.org/2000/svg">
<g id="india-flag-circular-17791" clip-path="url(#clip0_6632_162844)">
<g id="Group">
<path id="Vector" d="M1.07812 10.7133H30.8849C28.7155 4.57835 22.8697 0.18105 15.9933 0.175781H15.9694C9.09295 0.18105 3.24674 4.57835 1.07812 10.7133Z" fill="#FF9933"/>
<path id="Vector_2" d="M30.8845 21.2507H1.07812C3.2485 27.3892 9.09962 31.7882 15.9813 31.7882C22.863 31.7882 28.7141 27.3892 30.8845 21.2507Z" fill="#128807"/>
<path id="Vector_3" d="M30.8852 21.2509C31.4679 19.6025 31.7883 17.8301 31.7883 15.9821C31.7883 14.1342 31.4683 12.3618 30.8852 10.7134H1.07885C0.49577 12.3618 0.175781 14.1342 0.175781 15.9821C0.175781 17.8301 0.496121 19.6028 1.07885 21.2509H30.8852Z" fill="#F3F4F5"/>
<path id="Vector_4" d="M15.9805 11.5913C13.5554 11.5913 11.5898 13.5569 11.5898 15.9819C11.5898 18.407 13.5554 20.3726 15.9805 20.3726C18.4055 20.3726 20.3711 18.407 20.3711 15.9819C20.3711 13.5569 18.4055 11.5913 15.9805 11.5913ZM19.4526 14.3363C19.3574 14.3785 19.3124 14.4884 19.3525 14.5854C19.3925 14.682 19.5021 14.7283 19.599 14.6907C19.6338 14.788 19.6644 14.8871 19.6914 14.9879L17.4308 15.4572L16.7114 15.7455C16.6988 15.7066 16.683 15.669 16.6644 15.6328L17.3774 15.3279L19.3075 14.0617C19.3591 14.1509 19.408 14.2425 19.4526 14.3363ZM18.1642 12.8217C18.1034 12.9057 18.1196 13.023 18.2025 13.0866C18.285 13.1502 18.4027 13.1354 18.468 13.0553C18.5471 13.1224 18.624 13.1923 18.6974 13.2657C18.7708 13.3391 18.8403 13.4161 18.9078 13.4951C18.8277 13.5604 18.8129 13.6777 18.8765 13.7606C18.9401 13.8435 19.0574 13.8597 19.1414 13.7989C19.2004 13.8839 19.2555 13.9717 19.3075 14.0617L17.2457 15.0999L16.625 15.565C16.6029 15.5306 16.5776 15.4986 16.5502 15.4684L17.1603 14.9889L18.6974 13.2657L16.9738 14.8024L16.4943 15.4126C16.4641 15.3852 16.4318 15.3602 16.3978 15.3377L16.8628 14.7171L17.9011 12.6552C17.991 12.7072 18.0788 12.7627 18.1642 12.8217ZM17.377 12.6099C17.4736 12.65 17.5839 12.605 17.6261 12.5098C17.7202 12.5544 17.8115 12.6033 17.9011 12.6552L16.6348 14.5854L16.33 15.2984C16.2938 15.2798 16.2562 15.264 16.2172 15.2513L16.5056 14.532L16.9749 12.2713C17.0757 12.298 17.1747 12.3289 17.272 12.3637C17.2344 12.4603 17.2804 12.5699 17.377 12.6099ZM15.5042 12.3634C15.6074 12.3497 15.6802 12.2566 15.6696 12.1537C15.7722 12.1456 15.8758 12.14 15.9805 12.14C16.0851 12.14 16.1888 12.1452 16.2913 12.1537C16.2808 12.2566 16.3535 12.3497 16.4568 12.3634C16.56 12.3771 16.6545 12.3054 16.671 12.2032C16.7736 12.2218 16.8751 12.2446 16.9745 12.271L16.2506 14.4635L16.1406 15.2306C16.1013 15.2222 16.0606 15.2176 16.0195 15.2155L16.1118 14.4452L15.9805 12.14L15.8488 14.4456L15.9411 15.2159C15.8997 15.218 15.8593 15.2225 15.8199 15.231L15.71 14.4638L14.9861 12.2713C15.0858 12.245 15.187 12.2222 15.2896 12.2035C15.3061 12.3054 15.4006 12.3771 15.5042 12.3634ZM14.3349 12.5098C14.377 12.605 14.4873 12.65 14.5839 12.6099C14.6805 12.5699 14.7269 12.4603 14.6893 12.3634C14.7866 12.3286 14.8856 12.298 14.9864 12.271L15.4557 14.5316L15.7441 15.251C15.7051 15.2636 15.6675 15.2794 15.6313 15.2981L15.3264 14.585L14.0602 12.6549C14.1494 12.6033 14.2411 12.5544 14.3349 12.5098ZM12.8203 13.7982C12.9042 13.859 13.0215 13.8428 13.0851 13.7599C13.1487 13.6774 13.1339 13.5597 13.0539 13.4944C13.1209 13.4153 13.1908 13.3384 13.2643 13.265C13.3377 13.1916 13.4146 13.1221 13.4936 13.0546C13.559 13.1347 13.6763 13.1495 13.7592 13.0859C13.8421 13.0223 13.8582 12.905 13.7974 12.821C13.8825 12.762 13.9703 12.7069 14.0602 12.6549L15.0985 14.7167L15.5635 15.3374C15.5291 15.3595 15.4971 15.3848 15.4669 15.4122L14.9875 14.8021L13.2643 13.265L14.801 14.9886L15.4111 15.4681C15.3837 15.4983 15.3588 15.5306 15.3363 15.5646L14.7156 15.0996L12.6538 14.0613C12.7058 13.9714 12.7613 13.8836 12.8203 13.7982ZM12.5094 17.6272C12.6039 17.585 12.6485 17.4751 12.6085 17.3789C12.5684 17.2823 12.4592 17.2362 12.3622 17.2735C12.293 17.0799 12.239 16.8794 12.2014 16.6728C12.3039 16.6567 12.3756 16.5618 12.3619 16.4586C12.3482 16.3553 12.2548 16.2823 12.1515 16.2931C12.1431 16.1906 12.1385 16.087 12.1385 15.9823C12.1385 15.8776 12.1431 15.774 12.1515 15.6714C12.2548 15.6823 12.3482 15.6093 12.3619 15.506C12.3756 15.4024 12.3039 15.3079 12.2014 15.2917C12.239 15.0852 12.293 14.8846 12.3622 14.6911C12.4592 14.7283 12.5684 14.682 12.6085 14.5857C12.6485 14.4895 12.6039 14.3795 12.5094 14.3374C12.554 14.2436 12.6021 14.1512 12.6538 14.062L14.5839 15.3283L15.2969 15.6331C15.2783 15.6693 15.2625 15.7069 15.2499 15.7459L14.5305 15.4575L12.2699 14.9882L14.4624 15.7122L15.2295 15.8221C15.2211 15.8615 15.2165 15.9022 15.2144 15.9433L14.4441 15.8509L12.1388 15.9819L14.4441 16.1137L15.2144 16.0213C15.2165 16.0627 15.2211 16.1031 15.2295 16.1425L14.4624 16.2524L12.2699 16.9763L14.5305 16.5071L15.2499 16.2187C15.2625 16.2577 15.2783 16.2952 15.2969 16.3314L14.5839 16.6363L12.6538 17.9026C12.6018 17.813 12.554 17.721 12.5094 17.6272ZM13.7967 19.1421C13.8575 19.0582 13.8414 18.9409 13.7585 18.8773C13.6759 18.8137 13.5582 18.8285 13.4929 18.9085C13.4139 18.8415 13.337 18.7716 13.2635 18.6982C13.1901 18.6247 13.1206 18.5478 13.0532 18.4688C13.1332 18.4035 13.148 18.2861 13.0844 18.2032C13.0208 18.1203 12.9035 18.1042 12.8196 18.165C12.7606 18.0799 12.7054 17.9921 12.6534 17.9022L14.7153 16.8639L15.3359 16.3989C15.3581 16.4333 15.3833 16.4653 15.4107 16.4955L14.8006 16.9749L13.2635 18.6982L14.9871 17.1614L15.4666 16.5513C15.4968 16.5787 15.5291 16.6036 15.5632 16.6261L15.0981 17.2468L14.0598 19.3086C13.9699 19.2566 13.8821 19.2011 13.7967 19.1421ZM16.4568 19.6005C16.3535 19.6142 16.2808 19.7073 16.2913 19.8102C16.1888 19.8183 16.0851 19.8239 15.9805 19.8239C15.8758 19.8239 15.7722 19.8186 15.6696 19.8102C15.6802 19.7073 15.6074 19.6142 15.5042 19.6005C15.4009 19.5868 15.3064 19.6585 15.2899 19.7607C15.0834 19.7231 14.8828 19.6697 14.6893 19.6005C14.7269 19.5036 14.6805 19.3936 14.5839 19.3539C14.4873 19.3139 14.377 19.3589 14.3349 19.454C14.2407 19.4094 14.1494 19.3606 14.0598 19.3086L15.3261 17.3785L15.631 16.6655C15.6672 16.6841 15.7047 16.6999 15.7437 16.7125L15.4554 17.4319L14.9861 19.6925L15.71 17.5L15.8199 16.7329C15.8593 16.7413 15.9 16.7459 15.9411 16.748L15.8488 17.5183L15.9805 19.8239L16.1122 17.519L16.0198 16.7487C16.0613 16.7466 16.1017 16.742 16.141 16.7336L16.2509 17.5007L16.9749 19.6932C16.8751 19.7196 16.7739 19.7424 16.6714 19.761C16.6549 19.6585 16.5604 19.5868 16.4568 19.6005ZM17.6261 19.454C17.5839 19.3589 17.4736 19.3139 17.377 19.3539C17.2804 19.394 17.2341 19.5036 17.2717 19.6005C17.1744 19.6353 17.0753 19.6658 16.9745 19.6929L16.5052 17.4322L16.2169 16.7129C16.2558 16.7002 16.2934 16.6844 16.3296 16.6658L16.6345 17.3789L17.9008 19.309C17.8115 19.3606 17.7199 19.4094 17.6261 19.454ZM19.1407 18.1657C19.0567 18.1049 18.9394 18.121 18.8758 18.2039C18.8122 18.2865 18.827 18.4042 18.9071 18.4695C18.84 18.5485 18.7701 18.6254 18.6967 18.6989C18.6233 18.7723 18.5464 18.8418 18.4673 18.9093C18.402 18.8292 18.2847 18.8144 18.2018 18.878C18.1189 18.9416 18.1027 19.0589 18.1635 19.1428C18.0785 19.2018 17.9907 19.257 17.9008 19.309L16.8625 17.2471L16.3974 16.6265C16.4318 16.6043 16.4638 16.5791 16.494 16.5517L16.9735 17.1618L18.6967 18.6989L17.16 16.9753L16.5498 16.4958C16.5772 16.4656 16.6022 16.4333 16.6247 16.3992L17.2453 16.8643L19.3072 17.9026C19.2552 17.9925 19.1997 18.0803 19.1407 18.1657ZM19.3525 17.3785C19.3124 17.4751 19.3574 17.5854 19.4526 17.6275C19.408 17.7217 19.3591 17.813 19.3072 17.9026L17.377 16.6363L16.664 16.3314C16.6826 16.2952 16.6984 16.2577 16.7111 16.2187L17.4304 16.5071L19.6911 16.9763C19.6644 17.0771 19.6335 17.1762 19.5987 17.2735C19.5021 17.2359 19.3925 17.2819 19.3525 17.3785ZM19.599 16.4582C19.5853 16.5615 19.657 16.656 19.7592 16.6725C19.7406 16.7751 19.7178 16.8766 19.6914 16.976L17.4989 16.252L16.7318 16.1421C16.7402 16.1028 16.7448 16.062 16.7469 16.0209L17.5172 16.1133L19.8224 15.9819L17.5175 15.8502L16.7472 15.9426C16.7451 15.9011 16.7406 15.8608 16.7321 15.8214L17.4993 15.7115L19.6918 14.9875C19.7181 15.0873 19.741 15.1885 19.7596 15.291C19.6574 15.3075 19.5857 15.402 19.5994 15.5053C19.6131 15.6086 19.7062 15.6813 19.8091 15.6707C19.8172 15.7733 19.8228 15.8769 19.8228 15.9816C19.8228 16.0863 19.8175 16.1899 19.8091 16.2924C19.7058 16.2823 19.6124 16.355 19.599 16.4582Z" fill="#000088"/>
</g>
</g>
<defs>
<clipPath id="clip0_6632_162844">
<rect width="32" height="32" fill="white"/>
</clipPath>
</defs>
</svg>
