<svg width="306" height="306" viewBox="0 0 306 306" fill="none" xmlns="http://www.w3.org/2000/svg">
<g clip-path="url(#clip0_1618_8500)">
<path d="M41.2033 55.7666L0 96.8398L59.947 156.598L101.15 115.524L41.2033 55.7666Z" fill="url(#paint0_linear_1618_8500)"/>
<path d="M194.19 208.216L183.953 218.419L159.015 243.229C155.646 246.587 150.221 246.587 146.852 243.229L97.063 193.608L138.276 152.534L194.147 208.216H194.19Z" fill="#467BF5"/>
<path d="M250.101 152.512L208.894 193.581L264.796 249.295L306.004 208.226L250.101 152.512Z" fill="url(#paint1_linear_1618_8500)"/>
<path d="M210.462 112.501L168.728 153.934L112.154 97.7664L147.95 62.2271C151.317 59.1482 156.501 59.1482 159.824 62.2271L177.81 80.0847L195.576 97.7224L210.462 112.501Z" fill="#467BF5"/>
<path d="M305.967 96.8514L208.884 193.608L194.183 208.259L183.946 218.462L159.008 243.273C155.639 246.63 150.214 246.63 146.845 243.273L111.756 208.259L152.97 167.228L167.67 152.577L208.884 111.502L264.798 55.8203L305.967 96.895V96.8514Z" fill="#4689F5"/>
<path d="M194.186 96.8511L153.016 137.926L138.316 152.577L97.1023 193.651L41.1884 249.333L0.0185547 208.258L55.9325 152.577L97.146 111.502L111.846 96.8511L146.979 61.8373C147.066 61.7501 147.154 61.7065 147.197 61.6193C150.522 58.567 155.641 58.567 158.923 61.6193C159.01 61.7065 159.098 61.7501 159.141 61.8373L176.685 79.366L194.23 96.8511H194.186Z" fill="#4689F5"/>
</g>
<defs>
<linearGradient id="paint0_linear_1618_8500" x1="75.6628" y1="130.846" x2="1.68042" y2="57.7867" gradientUnits="userSpaceOnUse">
<stop stop-color="#4688F5"/>
<stop offset="0.1" stop-color="#4699F5"/>
<stop offset="0.3" stop-color="#46A5F5"/>
<stop offset="0.4" stop-color="#46ADF5"/>
<stop offset="0.8" stop-color="#46AFF5"/>
</linearGradient>
<linearGradient id="paint1_linear_1618_8500" x1="234.002" y1="177.925" x2="302.942" y2="246.092" gradientUnits="userSpaceOnUse">
<stop stop-color="#4688F5"/>
<stop offset="0.1" stop-color="#4699F5"/>
<stop offset="0.3" stop-color="#46A5F5"/>
<stop offset="0.4" stop-color="#46ADF5"/>
<stop offset="0.8" stop-color="#46AFF5"/>
</linearGradient>
<clipPath id="clip0_1618_8500">
<rect width="306" height="306" fill="white"/>
</clipPath>
</defs>
</svg>
