<svg width="32" height="32" viewBox="0 0 32 32" fill="none" xmlns="http://www.w3.org/2000/svg">
<g id="netherlands-flag-circular-17752" clip-path="url(#clip0_6632_162859)">
<g id="Group">
<path id="Vector" d="M1.07812 10.7133H30.8849C28.7159 4.57835 22.87 0.18105 15.9933 0.175781H15.9694C9.09295 0.18105 3.24709 4.57835 1.07812 10.7133Z" fill="#AE1C28"/>
<path id="Vector_2" d="M30.8849 21.2507H1.07812C3.2485 27.3892 9.09997 31.7882 15.9817 31.7882C22.8634 31.7882 28.7145 27.3892 30.8849 21.2507Z" fill="#21468B"/>
<path id="Vector_3" d="M30.8852 21.2509C31.4679 19.6025 31.7883 17.8301 31.7883 15.9821C31.7883 14.1342 31.4683 12.3618 30.8852 10.7134H1.07849C0.49577 12.3618 0.175781 14.1342 0.175781 15.9821C0.175781 17.8301 0.496121 19.6025 1.07885 21.2509H30.8852Z" fill="#F3F4F5"/>
</g>
</g>
<defs>
<clipPath id="clip0_6632_162859">
<rect width="32" height="32" fill="white"/>
</clipPath>
</defs>
</svg>
