<svg width="29" height="29" viewBox="0 0 29 29" fill="none" xmlns="http://www.w3.org/2000/svg">
<path d="M4.79844 20.3999V22.7999H23.9984V20.3999H4.79844ZM4.79844 7.1999H7.43844C7.33844 7.0199 7.27344 6.8299 7.24344 6.6299C7.21344 6.4299 7.19844 6.2199 7.19844 5.9999C7.19844 4.9999 7.54844 4.1499 8.24844 3.4499C8.94844 2.7499 9.79844 2.3999 10.7984 2.3999C11.3984 2.3999 11.9534 2.5549 12.4634 2.8649C12.9734 3.1749 13.4184 3.5599 13.7984 4.0199L14.3984 4.7999L14.9984 4.0199C15.3584 3.5399 15.7984 3.1499 16.3184 2.8499C16.8384 2.5499 17.3984 2.3999 17.9984 2.3999C18.9984 2.3999 19.8484 2.7499 20.5484 3.4499C21.2484 4.1499 21.5984 4.9999 21.5984 5.9999C21.5984 6.2199 21.5834 6.4299 21.5534 6.6299C21.5234 6.8299 21.4584 7.0199 21.3584 7.1999H23.9984C24.6584 7.1999 25.2234 7.4349 25.6934 7.9049C26.1634 8.3749 26.3984 8.9399 26.3984 9.5999V22.7999C26.3984 23.4599 26.1634 24.0249 25.6934 24.4949C25.2234 24.9649 24.6584 25.1999 23.9984 25.1999H4.79844C4.13844 25.1999 3.57344 24.9649 3.10344 24.4949C2.63344 24.0249 2.39844 23.4599 2.39844 22.7999V9.5999C2.39844 8.9399 2.63344 8.3749 3.10344 7.9049C3.57344 7.4349 4.13844 7.1999 4.79844 7.1999ZM4.79844 16.7999H23.9984V9.5999H17.8784L20.3984 13.0199L18.4784 14.3999L14.3984 8.8799L10.3184 14.3999L8.39844 13.0199L10.8584 9.5999H4.79844V16.7999ZM10.7984 7.1999C11.1384 7.1999 11.4234 7.0849 11.6534 6.8549C11.8834 6.6249 11.9984 6.3399 11.9984 5.9999C11.9984 5.6599 11.8834 5.3749 11.6534 5.1449C11.4234 4.9149 11.1384 4.7999 10.7984 4.7999C10.4584 4.7999 10.1734 4.9149 9.94344 5.1449C9.71344 5.3749 9.59844 5.6599 9.59844 5.9999C9.59844 6.3399 9.71344 6.6249 9.94344 6.8549C10.1734 7.0849 10.4584 7.1999 10.7984 7.1999ZM17.9984 7.1999C18.3384 7.1999 18.6234 7.0849 18.8534 6.8549C19.0834 6.6249 19.1984 6.3399 19.1984 5.9999C19.1984 5.6599 19.0834 5.3749 18.8534 5.1449C18.6234 4.9149 18.3384 4.7999 17.9984 4.7999C17.6584 4.7999 17.3734 4.9149 17.1434 5.1449C16.9134 5.3749 16.7984 5.6599 16.7984 5.9999C16.7984 6.3399 16.9134 6.6249 17.1434 6.8549C17.3734 7.0849 17.6584 7.1999 17.9984 7.1999Z" fill="white"/>
</svg>
