<svg width="1440" height="434" viewBox="0 0 1440 434" fill="none" xmlns="http://www.w3.org/2000/svg">
<g clip-path="url(#clip0_10265_61034)">
<rect width="1440" height="434" fill="url(#paint0_radial_10265_61034)"/>
<g opacity="0.04" clip-path="url(#clip1_10265_61034)" filter="url(#filter0_dddddd_10265_61034)">
<path d="M-138.534 36.2458L-138.534 61.4635L-138.486 123.016C-138.534 131.342 -131.796 138.079 -123.471 138.031L-0.365907 138.031L-0.365896 36.1977L-138.486 36.1977L-138.534 36.2458Z" fill="#DEDEDE"/>
<path d="M-36.72 -101.873L-36.72 -0.0399241H101.4L101.4 -87.4357C101.111 -95.3282 94.8067 -101.633 86.9142 -101.921L42.9276 -101.921L-0.433446 -101.873L-36.7681 -101.921L-36.72 -101.873Z" fill="#DEDEDE"/>
<path d="M-138.582 -240.041L-138.63 -0.0391763L-138.582 36.2955L-138.582 61.5132L-138.534 123.066C-138.582 131.391 -131.845 138.129 -123.519 138.081L-36.7488 138.033L-36.7488 36.1992L-36.7007 -0.135436L-36.7006 -101.969L-36.7488 -240.137L-138.582 -240.137L-138.582 -240.041Z" fill="white"/>
<path d="M239.656 36.2567V138.142H101.495V36.2567H239.656Z" fill="url(#paint1_linear_10265_61034)"/>
<path d="M-0.421791 -101.88L-0.421796 -0.0470247L-0.373674 36.2876L-0.373653 138.121L-0.325521 276.289L101.508 276.289L101.46 138.121L101.46 36.2877L101.412 -0.0470301L101.412 -86.8653C101.412 -87.0578 101.363 -87.2021 101.363 -87.3947C101.075 -95.2872 94.7703 -101.592 86.8777 -101.88C86.6852 -101.88 86.5408 -101.929 86.3483 -101.929L42.9392 -101.929L-0.421791 -101.88Z" fill="white"/>
</g>
<g opacity="0.04" clip-path="url(#clip2_10265_61034)" filter="url(#filter1_dddddd_10265_61034)">
<path d="M1338.47 343.246L1338.47 368.464L1338.51 430.016C1338.47 438.342 1345.2 445.079 1353.53 445.031L1476.63 445.031L1476.63 343.198L1338.51 343.198L1338.47 343.246Z" fill="#DEDEDE"/>
<path d="M1338.45 205.03V306.915H1200.29V205.03H1338.45Z" fill="url(#paint2_linear_10265_61034)"/>
<path d="M1440.28 205.127L1440.28 306.96H1578.4L1578.4 219.564C1578.11 211.672 1571.81 205.367 1563.91 205.079L1519.93 205.079L1476.57 205.127L1440.23 205.079L1440.28 205.127Z" fill="#DEDEDE"/>
<path d="M1338.42 66.9594L1338.37 306.961L1338.42 343.296L1338.42 368.513L1338.47 430.066C1338.42 438.391 1345.16 445.129 1353.48 445.081L1440.25 445.033L1440.25 343.199L1440.3 306.865L1440.3 205.031L1440.25 66.8632L1338.42 66.8632L1338.42 66.9594Z" fill="white"/>
<path d="M1476.58 205.12L1476.58 306.953L1476.63 343.288L1476.63 445.121L1476.67 583.289L1578.51 583.289L1578.46 445.121L1578.46 343.288L1578.41 306.953L1578.41 220.135C1578.41 219.942 1578.36 219.798 1578.36 219.605C1578.07 211.713 1571.77 205.408 1563.88 205.12C1563.69 205.12 1563.54 205.071 1563.35 205.071L1519.94 205.071L1476.58 205.12Z" fill="white"/>
</g>
<path d="M303.087 96.16V152H291.887V96.16H303.087ZM327.193 116.88V138.32C327.193 139.813 327.539 140.907 328.233 141.6C328.979 142.24 330.206 142.56 331.913 142.56H337.113V152H330.073C320.633 152 315.913 147.413 315.913 138.24V116.88H310.633V107.68H315.913V96.72H327.193V107.68H337.113V116.88H327.193ZM347.408 96.16H359.168L350.528 116.32H342.848L347.408 96.16ZM384.16 152.72C380.533 152.72 377.28 152.08 374.4 150.8C371.52 149.467 369.226 147.68 367.52 145.44C365.866 143.2 364.96 140.72 364.8 138H376.08C376.293 139.707 377.12 141.12 378.56 142.24C380.053 143.36 381.893 143.92 384.08 143.92C386.213 143.92 387.866 143.493 389.04 142.64C390.266 141.787 390.88 140.693 390.88 139.36C390.88 137.92 390.133 136.853 388.64 136.16C387.2 135.413 384.88 134.613 381.68 133.76C378.373 132.96 375.653 132.133 373.52 131.28C371.44 130.427 369.626 129.12 368.08 127.36C366.586 125.6 365.84 123.227 365.84 120.24C365.84 117.787 366.533 115.547 367.92 113.52C369.36 111.493 371.386 109.893 374 108.72C376.666 107.547 379.786 106.96 383.36 106.96C388.64 106.96 392.853 108.293 396 110.96C399.146 113.573 400.88 117.12 401.2 121.6H390.48C390.32 119.84 389.573 118.453 388.24 117.44C386.96 116.373 385.226 115.84 383.04 115.84C381.013 115.84 379.44 116.213 378.32 116.96C377.253 117.707 376.72 118.747 376.72 120.08C376.72 121.573 377.466 122.72 378.96 123.52C380.453 124.267 382.773 125.04 385.92 125.84C389.12 126.64 391.76 127.467 393.84 128.32C395.92 129.173 397.706 130.507 399.2 132.32C400.746 134.08 401.546 136.427 401.6 139.36C401.6 141.92 400.88 144.213 399.44 146.24C398.053 148.267 396.026 149.867 393.36 151.04C390.746 152.16 387.68 152.72 384.16 152.72ZM442.896 116.88V138.32C442.896 139.813 443.243 140.907 443.936 141.6C444.683 142.24 445.909 142.56 447.616 142.56H452.816V152H445.776C436.336 152 431.616 147.413 431.616 138.24V116.88H426.336V107.68H431.616V96.72H442.896V107.68H452.816V116.88H442.896ZM466.552 102.4C464.578 102.4 462.925 101.787 461.592 100.56C460.312 99.28 459.672 97.7067 459.672 95.84C459.672 93.9733 460.312 92.4267 461.592 91.2C462.925 89.92 464.578 89.28 466.552 89.28C468.525 89.28 470.152 89.92 471.432 91.2C472.765 92.4267 473.432 93.9733 473.432 95.84C473.432 97.7067 472.765 99.28 471.432 100.56C470.152 101.787 468.525 102.4 466.552 102.4ZM472.072 107.68V152H460.872V107.68H472.072ZM538.177 107.04C543.617 107.04 547.991 108.72 551.297 112.08C554.657 115.387 556.337 120.027 556.337 126V152H545.137V127.52C545.137 124.053 544.257 121.413 542.497 119.6C540.737 117.733 538.337 116.8 535.297 116.8C532.257 116.8 529.831 117.733 528.017 119.6C526.257 121.413 525.377 124.053 525.377 127.52V152H514.177V127.52C514.177 124.053 513.297 121.413 511.537 119.6C509.777 117.733 507.377 116.8 504.337 116.8C501.244 116.8 498.791 117.733 496.977 119.6C495.217 121.413 494.337 124.053 494.337 127.52V152H483.137V107.68H494.337V113.04C495.777 111.173 497.617 109.707 499.857 108.64C502.151 107.573 504.657 107.04 507.377 107.04C510.844 107.04 513.937 107.787 516.657 109.28C519.377 110.72 521.484 112.8 522.977 115.52C524.417 112.96 526.497 110.907 529.217 109.36C531.991 107.813 534.977 107.04 538.177 107.04ZM608.165 128.88C608.165 130.48 608.059 131.92 607.845 133.2H575.445C575.712 136.4 576.832 138.907 578.805 140.72C580.779 142.533 583.205 143.44 586.085 143.44C590.245 143.44 593.205 141.653 594.965 138.08H607.045C605.765 142.347 603.312 145.867 599.685 148.64C596.059 151.36 591.605 152.72 586.325 152.72C582.059 152.72 578.219 151.787 574.805 149.92C571.445 148 568.805 145.307 566.885 141.84C565.019 138.373 564.085 134.373 564.085 129.84C564.085 125.253 565.019 121.227 566.885 117.76C568.752 114.293 571.365 111.627 574.725 109.76C578.085 107.893 581.952 106.96 586.325 106.96C590.539 106.96 594.299 107.867 597.605 109.68C600.965 111.493 603.552 114.08 605.365 117.44C607.232 120.747 608.165 124.56 608.165 128.88ZM596.565 125.68C596.512 122.8 595.472 120.507 593.445 118.8C591.419 117.04 588.939 116.16 586.005 116.16C583.232 116.16 580.885 117.013 578.965 118.72C577.099 120.373 575.952 122.693 575.525 125.68H596.565ZM648.443 116.88V138.32C648.443 139.813 648.789 140.907 649.483 141.6C650.229 142.24 651.456 142.56 653.163 142.56H658.363V152H651.323C641.883 152 637.163 147.413 637.163 138.24V116.88H631.883V107.68H637.163V96.72H648.443V107.68H658.363V116.88H648.443ZM686.098 152.72C681.832 152.72 677.992 151.787 674.578 149.92C671.165 148 668.472 145.307 666.498 141.84C664.578 138.373 663.618 134.373 663.618 129.84C663.618 125.307 664.605 121.307 666.578 117.84C668.605 114.373 671.352 111.707 674.818 109.84C678.285 107.92 682.152 106.96 686.418 106.96C690.685 106.96 694.552 107.92 698.018 109.84C701.485 111.707 704.205 114.373 706.178 117.84C708.205 121.307 709.218 125.307 709.218 129.84C709.218 134.373 708.178 138.373 706.098 141.84C704.072 145.307 701.298 148 697.778 149.92C694.312 151.787 690.418 152.72 686.098 152.72ZM686.098 142.96C688.125 142.96 690.018 142.48 691.778 141.52C693.592 140.507 695.032 139.013 696.098 137.04C697.165 135.067 697.698 132.667 697.698 129.84C697.698 125.627 696.578 122.4 694.338 120.16C692.152 117.867 689.458 116.72 686.258 116.72C683.058 116.72 680.365 117.867 678.178 120.16C676.045 122.4 674.978 125.627 674.978 129.84C674.978 134.053 676.018 137.307 678.098 139.6C680.232 141.84 682.898 142.96 686.098 142.96ZM753.457 152.72C749.83 152.72 746.577 152.08 743.697 150.8C740.817 149.467 738.523 147.68 736.817 145.44C735.163 143.2 734.257 140.72 734.097 138H745.377C745.59 139.707 746.417 141.12 747.857 142.24C749.35 143.36 751.19 143.92 753.377 143.92C755.51 143.92 757.163 143.493 758.337 142.64C759.563 141.787 760.177 140.693 760.177 139.36C760.177 137.92 759.43 136.853 757.937 136.16C756.497 135.413 754.177 134.613 750.977 133.76C747.67 132.96 744.95 132.133 742.817 131.28C740.737 130.427 738.923 129.12 737.377 127.36C735.883 125.6 735.137 123.227 735.137 120.24C735.137 117.787 735.83 115.547 737.217 113.52C738.657 111.493 740.683 109.893 743.297 108.72C745.963 107.547 749.083 106.96 752.657 106.96C757.937 106.96 762.15 108.293 765.297 110.96C768.443 113.573 770.177 117.12 770.497 121.6H759.777C759.617 119.84 758.87 118.453 757.537 117.44C756.257 116.373 754.523 115.84 752.337 115.84C750.31 115.84 748.737 116.213 747.617 116.96C746.55 117.707 746.017 118.747 746.017 120.08C746.017 121.573 746.763 122.72 748.257 123.52C749.75 124.267 752.07 125.04 755.217 125.84C758.417 126.64 761.057 127.467 763.137 128.32C765.217 129.173 767.003 130.507 768.497 132.32C770.043 134.08 770.843 136.427 770.897 139.36C770.897 141.92 770.177 144.213 768.737 146.24C767.35 148.267 765.323 149.867 762.657 151.04C760.043 152.16 756.977 152.72 753.457 152.72ZM777.21 129.68C777.21 125.2 778.09 121.227 779.85 117.76C781.664 114.293 784.09 111.627 787.13 109.76C790.224 107.893 793.664 106.96 797.45 106.96C800.757 106.96 803.637 107.627 806.09 108.96C808.597 110.293 810.597 111.973 812.09 114V107.68H823.37V152H812.09V145.52C810.65 147.6 808.65 149.333 806.09 150.72C803.584 152.053 800.677 152.72 797.37 152.72C793.637 152.72 790.224 151.76 787.13 149.84C784.09 147.92 781.664 145.227 779.85 141.76C778.09 138.24 777.21 134.213 777.21 129.68ZM812.09 129.84C812.09 127.12 811.557 124.8 810.49 122.88C809.424 120.907 807.984 119.413 806.17 118.4C804.357 117.333 802.41 116.8 800.33 116.8C798.25 116.8 796.33 117.307 794.57 118.32C792.81 119.333 791.37 120.827 790.25 122.8C789.184 124.72 788.65 127.013 788.65 129.68C788.65 132.347 789.184 134.693 790.25 136.72C791.37 138.693 792.81 140.213 794.57 141.28C796.384 142.347 798.304 142.88 800.33 142.88C802.41 142.88 804.357 142.373 806.17 141.36C807.984 140.293 809.424 138.8 810.49 136.88C811.557 134.907 812.09 132.56 812.09 129.84ZM854.629 116.88H846.869V152H835.509V116.88H830.469V107.68H835.509V105.44C835.509 100 837.056 96 840.149 93.44C843.242 90.88 847.909 89.68 854.149 89.84V99.28C851.429 99.2267 849.536 99.68 848.469 100.64C847.402 101.6 846.869 103.333 846.869 105.84V107.68H854.629V116.88ZM903.087 128.88C903.087 130.48 902.981 131.92 902.767 133.2H870.367C870.634 136.4 871.754 138.907 873.727 140.72C875.701 142.533 878.127 143.44 881.007 143.44C885.167 143.44 888.127 141.653 889.887 138.08H901.967C900.687 142.347 898.234 145.867 894.607 148.64C890.981 151.36 886.527 152.72 881.247 152.72C876.981 152.72 873.141 151.787 869.727 149.92C866.367 148 863.727 145.307 861.807 141.84C859.941 138.373 859.007 134.373 859.007 129.84C859.007 125.253 859.941 121.227 861.807 117.76C863.674 114.293 866.287 111.627 869.647 109.76C873.007 107.893 876.874 106.96 881.247 106.96C885.461 106.96 889.221 107.867 892.527 109.68C895.887 111.493 898.474 114.08 900.287 117.44C902.154 120.747 903.087 124.56 903.087 128.88ZM891.487 125.68C891.434 122.8 890.394 120.507 888.367 118.8C886.341 117.04 883.861 116.16 880.927 116.16C878.154 116.16 875.807 117.013 873.887 118.72C872.021 120.373 870.874 122.693 870.447 125.68H891.487ZM928.622 106.96C931.929 106.96 934.836 107.627 937.342 108.96C939.849 110.24 941.822 111.92 943.262 114V107.68H954.542V152.32C954.542 156.427 953.716 160.08 952.062 163.28C950.409 166.533 947.929 169.093 944.622 170.96C941.316 172.88 937.316 173.84 932.622 173.84C926.329 173.84 921.156 172.373 917.102 169.44C913.102 166.507 910.836 162.507 910.302 157.44H921.422C922.009 159.467 923.262 161.067 925.182 162.24C927.156 163.467 929.529 164.08 932.302 164.08C935.556 164.08 938.196 163.093 940.222 161.12C942.249 159.2 943.262 156.267 943.262 152.32V145.44C941.822 147.52 939.822 149.253 937.262 150.64C934.756 152.027 931.876 152.72 928.622 152.72C924.889 152.72 921.476 151.76 918.382 149.84C915.289 147.92 912.836 145.227 911.022 141.76C909.262 138.24 908.382 134.213 908.382 129.68C908.382 125.2 909.262 121.227 911.022 117.76C912.836 114.293 915.262 111.627 918.302 109.76C921.396 107.893 924.836 106.96 928.622 106.96ZM943.262 129.84C943.262 127.12 942.729 124.8 941.662 122.88C940.596 120.907 939.156 119.413 937.342 118.4C935.529 117.333 933.582 116.8 931.502 116.8C929.422 116.8 927.502 117.307 925.742 118.32C923.982 119.333 922.542 120.827 921.422 122.8C920.356 124.72 919.822 127.013 919.822 129.68C919.822 132.347 920.356 134.693 921.422 136.72C922.542 138.693 923.982 140.213 925.742 141.28C927.556 142.347 929.476 142.88 931.502 142.88C933.582 142.88 935.529 142.373 937.342 141.36C939.156 140.293 940.596 138.8 941.662 136.88C942.729 134.907 943.262 132.56 943.262 129.84ZM1007.32 107.68V152H996.041V146.4C994.601 148.32 992.708 149.84 990.361 150.96C988.068 152.027 985.561 152.56 982.841 152.56C979.374 152.56 976.308 151.84 973.641 150.4C970.974 148.907 968.868 146.747 967.321 143.92C965.828 141.04 965.081 137.627 965.081 133.68V107.68H976.281V132.08C976.281 135.6 977.161 138.32 978.921 140.24C980.681 142.107 983.081 143.04 986.121 143.04C989.214 143.04 991.641 142.107 993.401 140.24C995.161 138.32 996.041 135.6 996.041 132.08V107.68H1007.32ZM1015.49 129.68C1015.49 125.2 1016.37 121.227 1018.13 117.76C1019.94 114.293 1022.37 111.627 1025.41 109.76C1028.5 107.893 1031.94 106.96 1035.73 106.96C1039.04 106.96 1041.92 107.627 1044.37 108.96C1046.88 110.293 1048.88 111.973 1050.37 114V107.68H1061.65V152H1050.37V145.52C1048.93 147.6 1046.93 149.333 1044.37 150.72C1041.86 152.053 1038.96 152.72 1035.65 152.72C1031.92 152.72 1028.5 151.76 1025.41 149.84C1022.37 147.92 1019.94 145.227 1018.13 141.76C1016.37 138.24 1015.49 134.213 1015.49 129.68ZM1050.37 129.84C1050.37 127.12 1049.84 124.8 1048.77 122.88C1047.7 120.907 1046.26 119.413 1044.45 118.4C1042.64 117.333 1040.69 116.8 1038.61 116.8C1036.53 116.8 1034.61 117.307 1032.85 118.32C1031.09 119.333 1029.65 120.827 1028.53 122.8C1027.46 124.72 1026.93 127.013 1026.93 129.68C1026.93 132.347 1027.46 134.693 1028.53 136.72C1029.65 138.693 1031.09 140.213 1032.85 141.28C1034.66 142.347 1036.58 142.88 1038.61 142.88C1040.69 142.88 1042.64 142.373 1044.45 141.36C1046.26 140.293 1047.7 138.8 1048.77 136.88C1049.84 134.907 1050.37 132.56 1050.37 129.84ZM1083.79 114.56C1085.23 112.213 1087.1 110.373 1089.39 109.04C1091.74 107.707 1094.4 107.04 1097.39 107.04V118.8H1094.43C1090.91 118.8 1088.24 119.627 1086.43 121.28C1084.67 122.933 1083.79 125.813 1083.79 129.92V152H1072.59V107.68H1083.79V114.56ZM1102.05 129.68C1102.05 125.2 1102.93 121.227 1104.69 117.76C1106.51 114.293 1108.96 111.627 1112.05 109.76C1115.15 107.893 1118.59 106.96 1122.37 106.96C1125.25 106.96 1128 107.6 1130.61 108.88C1133.23 110.107 1135.31 111.76 1136.85 113.84V92.8H1148.21V152H1136.85V145.44C1135.47 147.627 1133.52 149.387 1131.01 150.72C1128.51 152.053 1125.6 152.72 1122.29 152.72C1118.56 152.72 1115.15 151.76 1112.05 149.84C1108.96 147.92 1106.51 145.227 1104.69 141.76C1102.93 138.24 1102.05 134.213 1102.05 129.68ZM1136.93 129.84C1136.93 127.12 1136.4 124.8 1135.33 122.88C1134.27 120.907 1132.83 119.413 1131.01 118.4C1129.2 117.333 1127.25 116.8 1125.17 116.8C1123.09 116.8 1121.17 117.307 1119.41 118.32C1117.65 119.333 1116.21 120.827 1115.09 122.8C1114.03 124.72 1113.49 127.013 1113.49 129.68C1113.49 132.347 1114.03 134.693 1115.09 136.72C1116.21 138.693 1117.65 140.213 1119.41 141.28C1121.23 142.347 1123.15 142.88 1125.17 142.88C1127.25 142.88 1129.2 142.373 1131.01 141.36C1132.83 140.293 1134.27 138.8 1135.33 136.88C1136.4 134.907 1136.93 132.56 1136.93 129.84Z" fill="white"/>
<path d="M301.021 204.88V226.32C301.021 227.813 301.368 228.907 302.061 229.6C302.808 230.24 304.034 230.56 305.741 230.56H310.941V240H303.901C294.461 240 289.741 235.413 289.741 226.24V204.88H284.461V195.68H289.741V184.72H301.021V195.68H310.941V204.88H301.021ZM343.957 195.04C347.317 195.04 350.303 195.787 352.917 197.28C355.53 198.72 357.557 200.88 358.997 203.76C360.49 206.587 361.237 210 361.237 214V240H350.037V215.52C350.037 212 349.157 209.307 347.397 207.44C345.637 205.52 343.237 204.56 340.197 204.56C337.103 204.56 334.65 205.52 332.837 207.44C331.077 209.307 330.197 212 330.197 215.52V240H318.997V180.8H330.197V201.2C331.637 199.28 333.557 197.787 335.957 196.72C338.357 195.6 341.023 195.04 343.957 195.04ZM413.087 216.88C413.087 218.48 412.981 219.92 412.767 221.2H380.367C380.634 224.4 381.754 226.907 383.727 228.72C385.701 230.533 388.127 231.44 391.007 231.44C395.167 231.44 398.127 229.653 399.887 226.08H411.967C410.687 230.347 408.234 233.867 404.607 236.64C400.981 239.36 396.527 240.72 391.247 240.72C386.981 240.72 383.141 239.787 379.727 237.92C376.367 236 373.727 233.307 371.807 229.84C369.941 226.373 369.007 222.373 369.007 217.84C369.007 213.253 369.941 209.227 371.807 205.76C373.674 202.293 376.287 199.627 379.647 197.76C383.007 195.893 386.874 194.96 391.247 194.96C395.461 194.96 399.221 195.867 402.527 197.68C405.887 199.493 408.474 202.08 410.287 205.44C412.154 208.747 413.087 212.56 413.087 216.88ZM401.487 213.68C401.434 210.8 400.394 208.507 398.367 206.8C396.341 205.04 393.861 204.16 390.927 204.16C388.154 204.16 385.807 205.013 383.887 206.72C382.021 208.373 380.874 210.693 380.447 213.68H401.487ZM501.765 195.68L488.805 240H476.725L468.645 209.04L460.565 240H448.405L435.365 195.68H446.725L454.565 229.44L463.045 195.68H474.885L483.205 229.36L491.045 195.68H501.765ZM527.505 240.72C523.238 240.72 519.398 239.787 515.985 237.92C512.571 236 509.878 233.307 507.905 229.84C505.985 226.373 505.025 222.373 505.025 217.84C505.025 213.307 506.011 209.307 507.985 205.84C510.011 202.373 512.758 199.707 516.225 197.84C519.691 195.92 523.558 194.96 527.825 194.96C532.091 194.96 535.958 195.92 539.425 197.84C542.891 199.707 545.611 202.373 547.585 205.84C549.611 209.307 550.625 213.307 550.625 217.84C550.625 222.373 549.585 226.373 547.505 229.84C545.478 233.307 542.705 236 539.185 237.92C535.718 239.787 531.825 240.72 527.505 240.72ZM527.505 230.96C529.531 230.96 531.425 230.48 533.185 229.52C534.998 228.507 536.438 227.013 537.505 225.04C538.571 223.067 539.105 220.667 539.105 217.84C539.105 213.627 537.985 210.4 535.745 208.16C533.558 205.867 530.865 204.72 527.665 204.72C524.465 204.72 521.771 205.867 519.585 208.16C517.451 210.4 516.385 213.627 516.385 217.84C516.385 222.053 517.425 225.307 519.505 227.6C521.638 229.84 524.305 230.96 527.505 230.96ZM570.04 202.56C571.48 200.213 573.347 198.373 575.64 197.04C577.987 195.707 580.654 195.04 583.64 195.04V206.8H580.68C577.16 206.8 574.494 207.627 572.68 209.28C570.92 210.933 570.04 213.813 570.04 217.92V240H558.84V195.68H570.04V202.56ZM602.384 180.8V240H591.184V180.8H602.384ZM610.57 217.68C610.57 213.2 611.45 209.227 613.21 205.76C615.023 202.293 617.476 199.627 620.57 197.76C623.663 195.893 627.103 194.96 630.89 194.96C633.77 194.96 636.516 195.6 639.13 196.88C641.743 198.107 643.823 199.76 645.37 201.84V180.8H656.73V240H645.37V233.44C643.983 235.627 642.036 237.387 639.53 238.72C637.023 240.053 634.116 240.72 630.81 240.72C627.076 240.72 623.663 239.76 620.57 237.84C617.476 235.92 615.023 233.227 613.21 229.76C611.45 226.24 610.57 222.213 610.57 217.68ZM645.45 217.84C645.45 215.12 644.916 212.8 643.85 210.88C642.783 208.907 641.343 207.413 639.53 206.4C637.716 205.333 635.77 204.8 633.69 204.8C631.61 204.8 629.69 205.307 627.93 206.32C626.17 207.333 624.73 208.827 623.61 210.8C622.543 212.72 622.01 215.013 622.01 217.68C622.01 220.347 622.543 222.693 623.61 224.72C624.73 226.693 626.17 228.213 627.93 229.28C629.743 230.347 631.663 230.88 633.69 230.88C635.77 230.88 637.716 230.373 639.53 229.36C641.343 228.293 642.783 226.8 643.85 224.88C644.916 222.907 645.45 220.56 645.45 217.84ZM706.411 240.72C702.144 240.72 698.304 239.787 694.891 237.92C691.478 236 688.784 233.307 686.811 229.84C684.891 226.373 683.931 222.373 683.931 217.84C683.931 213.307 684.918 209.307 686.891 205.84C688.918 202.373 691.664 199.707 695.131 197.84C698.598 195.92 702.464 194.96 706.731 194.96C710.998 194.96 714.864 195.92 718.331 197.84C721.798 199.707 724.518 202.373 726.491 205.84C728.518 209.307 729.531 213.307 729.531 217.84C729.531 222.373 728.491 226.373 726.411 229.84C724.384 233.307 721.611 236 718.091 237.92C714.624 239.787 710.731 240.72 706.411 240.72ZM706.411 230.96C708.438 230.96 710.331 230.48 712.091 229.52C713.904 228.507 715.344 227.013 716.411 225.04C717.478 223.067 718.011 220.667 718.011 217.84C718.011 213.627 716.891 210.4 714.651 208.16C712.464 205.867 709.771 204.72 706.571 204.72C703.371 204.72 700.678 205.867 698.491 208.16C696.358 210.4 695.291 213.627 695.291 217.84C695.291 222.053 696.331 225.307 698.411 227.6C700.544 229.84 703.211 230.96 706.411 230.96ZM758.067 204.88H750.307V240H738.947V204.88H733.907V195.68H738.947V193.44C738.947 188 740.493 184 743.587 181.44C746.68 178.88 751.347 177.68 757.587 177.84V187.28C754.867 187.227 752.973 187.68 751.907 188.64C750.84 189.6 750.307 191.333 750.307 193.84V195.68H758.067V204.88ZM797.427 204.88V226.32C797.427 227.813 797.774 228.907 798.467 229.6C799.214 230.24 800.441 230.56 802.147 230.56H807.347V240H800.307C790.867 240 786.147 235.413 786.147 226.24V204.88H780.867V195.68H786.147V184.72H797.427V195.68H807.347V204.88H797.427ZM821.083 190.4C819.109 190.4 817.456 189.787 816.123 188.56C814.843 187.28 814.203 185.707 814.203 183.84C814.203 181.973 814.843 180.427 816.123 179.2C817.456 177.92 819.109 177.28 821.083 177.28C823.056 177.28 824.683 177.92 825.963 179.2C827.296 180.427 827.963 181.973 827.963 183.84C827.963 185.707 827.296 187.28 825.963 188.56C824.683 189.787 823.056 190.4 821.083 190.4ZM826.603 195.68V240H815.403V195.68H826.603ZM834.788 217.84C834.788 213.253 835.722 209.253 837.588 205.84C839.455 202.373 842.042 199.707 845.348 197.84C848.655 195.92 852.442 194.96 856.708 194.96C862.202 194.96 866.735 196.347 870.308 199.12C873.935 201.84 876.362 205.68 877.588 210.64H865.508C864.868 208.72 863.775 207.227 862.228 206.16C860.735 205.04 858.868 204.48 856.628 204.48C853.428 204.48 850.895 205.653 849.028 208C847.162 210.293 846.228 213.573 846.228 217.84C846.228 222.053 847.162 225.333 849.028 227.68C850.895 229.973 853.428 231.12 856.628 231.12C861.162 231.12 864.122 229.093 865.508 225.04H877.588C876.362 229.84 873.935 233.653 870.308 236.48C866.682 239.307 862.148 240.72 856.708 240.72C852.442 240.72 848.655 239.787 845.348 237.92C842.042 236 839.455 233.333 837.588 229.92C835.722 226.453 834.788 222.427 834.788 217.84ZM912.033 240L896.993 221.12V240H885.793V180.8H896.993V214.48L911.873 195.68H926.433L906.913 217.92L926.593 240H912.033ZM973.712 216.88C973.712 218.48 973.606 219.92 973.392 221.2H940.992C941.259 224.4 942.379 226.907 944.352 228.72C946.326 230.533 948.752 231.44 951.632 231.44C955.792 231.44 958.752 229.653 960.512 226.08H972.592C971.312 230.347 968.859 233.867 965.232 236.64C961.606 239.36 957.152 240.72 951.872 240.72C947.606 240.72 943.766 239.787 940.352 237.92C936.992 236 934.352 233.307 932.432 229.84C930.566 226.373 929.632 222.373 929.632 217.84C929.632 213.253 930.566 209.227 932.432 205.76C934.299 202.293 936.912 199.627 940.272 197.76C943.632 195.893 947.499 194.96 951.872 194.96C956.086 194.96 959.846 195.867 963.152 197.68C966.512 199.493 969.099 202.08 970.912 205.44C972.779 208.747 973.712 212.56 973.712 216.88ZM962.112 213.68C962.059 210.8 961.019 208.507 958.992 206.8C956.966 205.04 954.486 204.16 951.552 204.16C948.779 204.16 946.432 205.013 944.512 206.72C942.646 208.373 941.499 210.693 941.072 213.68H962.112ZM994.927 204.88V226.32C994.927 227.813 995.274 228.907 995.967 229.6C996.714 230.24 997.941 230.56 999.647 230.56H1004.85V240H997.807C988.367 240 983.647 235.413 983.647 226.24V204.88H978.367V195.68H983.647V184.72H994.927V195.68H1004.85V204.88H994.927ZM1018.58 190.4C1016.61 190.4 1014.96 189.787 1013.62 188.56C1012.34 187.28 1011.7 185.707 1011.7 183.84C1011.7 181.973 1012.34 180.427 1013.62 179.2C1014.96 177.92 1016.61 177.28 1018.58 177.28C1020.56 177.28 1022.18 177.92 1023.46 179.2C1024.8 180.427 1025.46 181.973 1025.46 183.84C1025.46 185.707 1024.8 187.28 1023.46 188.56C1022.18 189.787 1020.56 190.4 1018.58 190.4ZM1024.1 195.68V240H1012.9V195.68H1024.1ZM1059.73 195.04C1065.01 195.04 1069.28 196.72 1072.53 200.08C1075.78 203.387 1077.41 208.027 1077.41 214V240H1066.21V215.52C1066.21 212 1065.33 209.307 1063.57 207.44C1061.81 205.52 1059.41 204.56 1056.37 204.56C1053.28 204.56 1050.82 205.52 1049.01 207.44C1047.25 209.307 1046.37 212 1046.37 215.52V240H1035.17V195.68H1046.37V201.2C1047.86 199.28 1049.76 197.787 1052.05 196.72C1054.4 195.6 1056.96 195.04 1059.73 195.04ZM1105.42 194.96C1108.73 194.96 1111.63 195.627 1114.14 196.96C1116.65 198.24 1118.62 199.92 1120.06 202V195.68H1131.34V240.32C1131.34 244.427 1130.51 248.08 1128.86 251.28C1127.21 254.533 1124.73 257.093 1121.42 258.96C1118.11 260.88 1114.11 261.84 1109.42 261.84C1103.13 261.84 1097.95 260.373 1093.9 257.44C1089.9 254.507 1087.63 250.507 1087.1 245.44H1098.22C1098.81 247.467 1100.06 249.067 1101.98 250.24C1103.95 251.467 1106.33 252.08 1109.1 252.08C1112.35 252.08 1114.99 251.093 1117.02 249.12C1119.05 247.2 1120.06 244.267 1120.06 240.32V233.44C1118.62 235.52 1116.62 237.253 1114.06 238.64C1111.55 240.027 1108.67 240.72 1105.42 240.72C1101.69 240.72 1098.27 239.76 1095.18 237.84C1092.09 235.92 1089.63 233.227 1087.82 229.76C1086.06 226.24 1085.18 222.213 1085.18 217.68C1085.18 213.2 1086.06 209.227 1087.82 205.76C1089.63 202.293 1092.06 199.627 1095.1 197.76C1098.19 195.893 1101.63 194.96 1105.42 194.96ZM1120.06 217.84C1120.06 215.12 1119.53 212.8 1118.46 210.88C1117.39 208.907 1115.95 207.413 1114.14 206.4C1112.33 205.333 1110.38 204.8 1108.3 204.8C1106.22 204.8 1104.3 205.307 1102.54 206.32C1100.78 207.333 1099.34 208.827 1098.22 210.8C1097.15 212.72 1096.62 215.013 1096.62 217.68C1096.62 220.347 1097.15 222.693 1098.22 224.72C1099.34 226.693 1100.78 228.213 1102.54 229.28C1104.35 230.347 1106.27 230.88 1108.3 230.88C1110.38 230.88 1112.33 230.373 1114.14 229.36C1115.95 228.293 1117.39 226.8 1118.46 224.88C1119.53 222.907 1120.06 220.56 1120.06 217.84ZM1147.24 240.56C1145.21 240.56 1143.53 239.947 1142.2 238.72C1140.92 237.44 1140.28 235.867 1140.28 234C1140.28 232.133 1140.92 230.587 1142.2 229.36C1143.53 228.08 1145.21 227.44 1147.24 227.44C1149.21 227.44 1150.84 228.08 1152.12 229.36C1153.4 230.587 1154.04 232.133 1154.04 234C1154.04 235.867 1153.4 237.44 1152.12 238.72C1150.84 239.947 1149.21 240.56 1147.24 240.56Z" fill="url(#paint3_linear_10265_61034)"/>
</g>
<defs>
<filter id="filter0_dddddd_10265_61034" x="-412.265" y="-360.224" width="787.062" height="792.357" filterUnits="userSpaceOnUse" color-interpolation-filters="sRGB">
<feFlood flood-opacity="0" result="BackgroundImageFix"/>
<feColorMatrix in="SourceAlpha" type="matrix" values="0 0 0 0 0 0 0 0 0 0 0 0 0 0 0 0 0 0 127 0" result="hardAlpha"/>
<feOffset dy="0.376599"/>
<feGaussianBlur stdDeviation="0.300357"/>
<feColorMatrix type="matrix" values="0 0 0 0 0 0 0 0 0 0 0 0 0 0 0 0 0 0 0.195 0"/>
<feBlend mode="normal" in2="BackgroundImageFix" result="effect1_dropShadow_10265_61034"/>
<feColorMatrix in="SourceAlpha" type="matrix" values="0 0 0 0 0 0 0 0 0 0 0 0 0 0 0 0 0 0 127 0" result="hardAlpha"/>
<feOffset dy="1.65704"/>
<feGaussianBlur stdDeviation="0.621916"/>
<feColorMatrix type="matrix" values="0 0 0 0 0 0 0 0 0 0 0 0 0 0 0 0 0 0 0.318 0"/>
<feBlend mode="normal" in2="effect1_dropShadow_10265_61034" result="effect2_dropShadow_10265_61034"/>
<feColorMatrix in="SourceAlpha" type="matrix" values="0 0 0 0 0 0 0 0 0 0 0 0 0 0 0 0 0 0 127 0" result="hardAlpha"/>
<feOffset dy="4.06727"/>
<feGaussianBlur stdDeviation="1.2403"/>
<feColorMatrix type="matrix" values="0 0 0 0 0 0 0 0 0 0 0 0 0 0 0 0 0 0 0.405 0"/>
<feBlend mode="normal" in2="effect2_dropShadow_10265_61034" result="effect3_dropShadow_10265_61034"/>
<feColorMatrix in="SourceAlpha" type="matrix" values="0 0 0 0 0 0 0 0 0 0 0 0 0 0 0 0 0 0 127 0" result="hardAlpha"/>
<feOffset dy="7.83326"/>
<feGaussianBlur stdDeviation="2.43112"/>
<feColorMatrix type="matrix" values="0 0 0 0 0 0 0 0 0 0 0 0 0 0 0 0 0 0 0.492 0"/>
<feBlend mode="normal" in2="effect3_dropShadow_10265_61034" result="effect4_dropShadow_10265_61034"/>
<feColorMatrix in="SourceAlpha" type="matrix" values="0 0 0 0 0 0 0 0 0 0 0 0 0 0 0 0 0 0 127 0" result="hardAlpha"/>
<feOffset dy="13.181"/>
<feGaussianBlur stdDeviation="4.47002"/>
<feColorMatrix type="matrix" values="0 0 0 0 0 0 0 0 0 0 0 0 0 0 0 0 0 0 0.615 0"/>
<feBlend mode="normal" in2="effect4_dropShadow_10265_61034" result="effect5_dropShadow_10265_61034"/>
<feColorMatrix in="SourceAlpha" type="matrix" values="0 0 0 0 0 0 0 0 0 0 0 0 0 0 0 0 0 0 127 0" result="hardAlpha"/>
<feOffset dy="20.3364"/>
<feGaussianBlur stdDeviation="7.6326"/>
<feColorMatrix type="matrix" values="0 0 0 0 0 0 0 0 0 0 0 0 0 0 0 0 0 0 0.81 0"/>
<feBlend mode="normal" in2="effect5_dropShadow_10265_61034" result="effect6_dropShadow_10265_61034"/>
<feBlend mode="normal" in="SourceGraphic" in2="effect6_dropShadow_10265_61034" result="shape"/>
</filter>
<filter id="filter1_dddddd_10265_61034" x="1064.73" y="-53.2242" width="787.062" height="792.357" filterUnits="userSpaceOnUse" color-interpolation-filters="sRGB">
<feFlood flood-opacity="0" result="BackgroundImageFix"/>
<feColorMatrix in="SourceAlpha" type="matrix" values="0 0 0 0 0 0 0 0 0 0 0 0 0 0 0 0 0 0 127 0" result="hardAlpha"/>
<feOffset dy="0.376599"/>
<feGaussianBlur stdDeviation="0.300357"/>
<feColorMatrix type="matrix" values="0 0 0 0 0 0 0 0 0 0 0 0 0 0 0 0 0 0 0.195 0"/>
<feBlend mode="normal" in2="BackgroundImageFix" result="effect1_dropShadow_10265_61034"/>
<feColorMatrix in="SourceAlpha" type="matrix" values="0 0 0 0 0 0 0 0 0 0 0 0 0 0 0 0 0 0 127 0" result="hardAlpha"/>
<feOffset dy="1.65704"/>
<feGaussianBlur stdDeviation="0.621916"/>
<feColorMatrix type="matrix" values="0 0 0 0 0 0 0 0 0 0 0 0 0 0 0 0 0 0 0.318 0"/>
<feBlend mode="normal" in2="effect1_dropShadow_10265_61034" result="effect2_dropShadow_10265_61034"/>
<feColorMatrix in="SourceAlpha" type="matrix" values="0 0 0 0 0 0 0 0 0 0 0 0 0 0 0 0 0 0 127 0" result="hardAlpha"/>
<feOffset dy="4.06727"/>
<feGaussianBlur stdDeviation="1.2403"/>
<feColorMatrix type="matrix" values="0 0 0 0 0 0 0 0 0 0 0 0 0 0 0 0 0 0 0.405 0"/>
<feBlend mode="normal" in2="effect2_dropShadow_10265_61034" result="effect3_dropShadow_10265_61034"/>
<feColorMatrix in="SourceAlpha" type="matrix" values="0 0 0 0 0 0 0 0 0 0 0 0 0 0 0 0 0 0 127 0" result="hardAlpha"/>
<feOffset dy="7.83326"/>
<feGaussianBlur stdDeviation="2.43112"/>
<feColorMatrix type="matrix" values="0 0 0 0 0 0 0 0 0 0 0 0 0 0 0 0 0 0 0.492 0"/>
<feBlend mode="normal" in2="effect3_dropShadow_10265_61034" result="effect4_dropShadow_10265_61034"/>
<feColorMatrix in="SourceAlpha" type="matrix" values="0 0 0 0 0 0 0 0 0 0 0 0 0 0 0 0 0 0 127 0" result="hardAlpha"/>
<feOffset dy="13.181"/>
<feGaussianBlur stdDeviation="4.47002"/>
<feColorMatrix type="matrix" values="0 0 0 0 0 0 0 0 0 0 0 0 0 0 0 0 0 0 0.615 0"/>
<feBlend mode="normal" in2="effect4_dropShadow_10265_61034" result="effect5_dropShadow_10265_61034"/>
<feColorMatrix in="SourceAlpha" type="matrix" values="0 0 0 0 0 0 0 0 0 0 0 0 0 0 0 0 0 0 127 0" result="hardAlpha"/>
<feOffset dy="20.3364"/>
<feGaussianBlur stdDeviation="7.6326"/>
<feColorMatrix type="matrix" values="0 0 0 0 0 0 0 0 0 0 0 0 0 0 0 0 0 0 0.81 0"/>
<feBlend mode="normal" in2="effect5_dropShadow_10265_61034" result="effect6_dropShadow_10265_61034"/>
<feBlend mode="normal" in="SourceGraphic" in2="effect6_dropShadow_10265_61034" result="shape"/>
</filter>
<radialGradient id="paint0_radial_10265_61034" cx="0" cy="0" r="1" gradientUnits="userSpaceOnUse" gradientTransform="translate(1215 474.5) rotate(-136.211) scale(685.693 8625.23)">
<stop stop-color="#0046CC"/>
<stop offset="1" stop-color="#0057FF"/>
</radialGradient>
<linearGradient id="paint1_linear_10265_61034" x1="113.081" y1="86.8398" x2="282.867" y2="88.0911" gradientUnits="userSpaceOnUse">
<stop stop-color="#E9E9E9"/>
<stop offset="0.2" stop-color="#F5F5F5"/>
<stop offset="0.4" stop-color="#FDFDFD"/>
<stop offset="0.8" stop-color="white"/>
</linearGradient>
<linearGradient id="paint2_linear_10265_61034" x1="1326.77" y1="256.397" x2="1157.08" y2="255.146" gradientUnits="userSpaceOnUse">
<stop stop-color="#E9E9E9"/>
<stop offset="0.2" stop-color="#F5F5F5"/>
<stop offset="0.4" stop-color="#FDFDFD"/>
<stop offset="0.8" stop-color="white"/>
</linearGradient>
<linearGradient id="paint3_linear_10265_61034" x1="1270" y1="256" x2="284.77" y2="-127.133" gradientUnits="userSpaceOnUse">
<stop stop-color="#ADFF00"/>
<stop offset="1" stop-color="#FAFF00"/>
</linearGradient>
<clipPath id="clip0_10265_61034">
<rect width="1440" height="434" fill="white"/>
</clipPath>
<clipPath id="clip1_10265_61034">
<rect width="534.949" height="534.949" fill="white" transform="matrix(-0.707107 -0.707107 -0.707107 0.707107 359.531 18.2656)"/>
</clipPath>
<clipPath id="clip2_10265_61034">
<rect width="534.949" height="534.949" fill="white" transform="matrix(-0.707107 -0.707107 -0.707107 0.707107 1836.53 325.266)"/>
</clipPath>
</defs>
</svg>
