<svg width="29" height="29" viewBox="0 0 29 29" fill="none" xmlns="http://www.w3.org/2000/svg">
<path d="M10.8 19.2002C10.46 19.2002 10.175 19.0852 9.945 18.8552C9.715 18.6252 9.6 18.3402 9.6 18.0002V15.6002C9.94 15.6002 10.225 15.4852 10.455 15.2552C10.685 15.0252 10.8 14.7402 10.8 14.4002C10.8 14.0602 10.685 13.7752 10.455 13.5452C10.225 13.3152 9.94 13.2002 9.6 13.2002V10.8002C9.6 10.4602 9.715 10.1752 9.945 9.9452C10.175 9.7152 10.46 9.6002 10.8 9.6002H18C18.34 9.6002 18.625 9.7152 18.855 9.9452C19.085 10.1752 19.2 10.4602 19.2 10.8002V13.2002C18.86 13.2002 18.575 13.3152 18.345 13.5452C18.115 13.7752 18 14.0602 18 14.4002C18 14.7402 18.115 15.0252 18.345 15.2552C18.575 15.4852 18.86 15.6002 19.2 15.6002V18.0002C19.2 18.3402 19.085 18.6252 18.855 18.8552C18.625 19.0852 18.34 19.2002 18 19.2002H10.8ZM14.4 17.4002C14.56 17.4002 14.7 17.3402 14.82 17.2202C14.94 17.1002 15 16.9602 15 16.8002C15 16.6402 14.94 16.5002 14.82 16.3802C14.7 16.2602 14.56 16.2002 14.4 16.2002C14.24 16.2002 14.1 16.2602 13.98 16.3802C13.86 16.5002 13.8 16.6402 13.8 16.8002C13.8 16.9602 13.86 17.1002 13.98 17.2202C14.1 17.3402 14.24 17.4002 14.4 17.4002ZM14.4 15.0002C14.56 15.0002 14.7 14.9402 14.82 14.8202C14.94 14.7002 15 14.5602 15 14.4002C15 14.2402 14.94 14.1002 14.82 13.9802C14.7 13.8602 14.56 13.8002 14.4 13.8002C14.24 13.8002 14.1 13.8602 13.98 13.9802C13.86 14.1002 13.8 14.2402 13.8 14.4002C13.8 14.5602 13.86 14.7002 13.98 14.8202C14.1 14.9402 14.24 15.0002 14.4 15.0002ZM14.4 12.6002C14.56 12.6002 14.7 12.5402 14.82 12.4202C14.94 12.3002 15 12.1602 15 12.0002C15 11.8402 14.94 11.7002 14.82 11.5802C14.7 11.4602 14.56 11.4002 14.4 11.4002C14.24 11.4002 14.1 11.4602 13.98 11.5802C13.86 11.7002 13.8 11.8402 13.8 12.0002C13.8 12.1602 13.86 12.3002 13.98 12.4202C14.1 12.5402 14.24 12.6002 14.4 12.6002ZM8.4 27.6002C7.74 27.6002 7.175 27.3652 6.705 26.8952C6.235 26.4252 6 25.8602 6 25.2002V3.6002C6 2.9402 6.235 2.3752 6.705 1.9052C7.175 1.4352 7.74 1.2002 8.4 1.2002H20.4C21.06 1.2002 21.625 1.4352 22.095 1.9052C22.565 2.3752 22.8 2.9402 22.8 3.6002V25.2002C22.8 25.8602 22.565 26.4252 22.095 26.8952C21.625 27.3652 21.06 27.6002 20.4 27.6002H8.4ZM8.4 21.6002H20.4V7.2002H8.4V21.6002Z" fill="white"/>
</svg>
