<svg width="29" height="29" viewBox="0 0 29 29" fill="none" xmlns="http://www.w3.org/2000/svg">
<path d="M2.39922 26.3999C2.97922 24.9199 3.36422 23.3949 3.55422 21.8249C3.74422 20.2549 3.85922 18.6799 3.89922 17.0999C3.11922 16.7999 2.47422 16.2999 1.96422 15.5999C1.45422 14.8999 1.19922 14.0999 1.19922 13.1999V10.7999C3.49922 10.0399 5.84422 8.8799 8.23422 7.3199C10.6242 5.7599 12.6792 4.1199 14.3992 2.3999C16.1192 4.1199 18.1742 5.7599 20.5642 7.3199C22.9542 8.8799 25.2992 10.0399 27.5992 10.7999V13.1999C27.5992 14.0999 27.3442 14.8999 26.8342 15.5999C26.3242 16.2999 25.6792 16.7999 24.8992 17.0999C24.9392 18.6799 25.0542 20.2549 25.2442 21.8249C25.4342 23.3949 25.8192 24.9199 26.3992 26.3999H2.39922ZM7.07922 10.7999H21.7192C20.1592 9.9199 18.7542 9.0149 17.5042 8.0849C16.2542 7.1549 15.2192 6.3399 14.3992 5.6399C13.5792 6.3399 12.5442 7.1549 11.2942 8.0849C10.0442 9.0149 8.63922 9.9199 7.07922 10.7999ZM17.3992 14.9999C17.8992 14.9999 18.3242 14.8249 18.6742 14.4749C19.0242 14.1249 19.1992 13.6999 19.1992 13.1999H15.5992C15.5992 13.6999 15.7742 14.1249 16.1242 14.4749C16.4742 14.8249 16.8992 14.9999 17.3992 14.9999ZM11.3992 14.9999C11.8992 14.9999 12.3242 14.8249 12.6742 14.4749C13.0242 14.1249 13.1992 13.6999 13.1992 13.1999H9.59922C9.59922 13.6999 9.77422 14.1249 10.1242 14.4749C10.4742 14.8249 10.8992 14.9999 11.3992 14.9999ZM5.39922 14.9999C5.89922 14.9999 6.32422 14.8249 6.67422 14.4749C7.02422 14.1249 7.19922 13.6999 7.19922 13.1999H3.59922C3.59922 13.6999 3.77422 14.1249 4.12422 14.4749C4.47422 14.8249 4.89922 14.9999 5.39922 14.9999ZM5.57922 23.9999H8.78922C8.96922 22.7999 9.10922 21.6099 9.20922 20.4299C9.30922 19.2499 9.38922 18.0599 9.44922 16.8599C9.26922 16.7599 9.08922 16.6549 8.90922 16.5449C8.72922 16.4349 8.55922 16.2999 8.39922 16.1399C8.09922 16.4399 7.77422 16.6849 7.42422 16.8749C7.07422 17.0649 6.69922 17.2099 6.29922 17.3099C6.25922 18.4499 6.18922 19.5749 6.08922 20.6849C5.98922 21.7949 5.81922 22.8999 5.57922 23.9999ZM11.2192 23.9999H17.5792C17.4192 22.8999 17.2942 21.7999 17.2042 20.6999C17.1142 19.5999 17.0392 18.4899 16.9792 17.3699C16.4592 17.3299 15.9842 17.2049 15.5542 16.9949C15.1242 16.7849 14.7392 16.5099 14.3992 16.1699C14.0592 16.5099 13.6642 16.7849 13.2142 16.9949C12.7642 17.2049 12.2992 17.3299 11.8192 17.3699C11.7592 18.4899 11.6842 19.5999 11.5942 20.6999C11.5042 21.7999 11.3792 22.8999 11.2192 23.9999ZM20.0092 23.9999H23.2192C22.9792 22.8999 22.8092 21.7949 22.7092 20.6849C22.6092 19.5749 22.5392 18.4499 22.4992 17.3099C22.0992 17.2099 21.7192 17.0649 21.3592 16.8749C20.9992 16.6849 20.6792 16.4399 20.3992 16.1399C20.2392 16.2999 20.0692 16.4349 19.8892 16.5449C19.7092 16.6549 19.5292 16.7599 19.3492 16.8599C19.4092 18.0599 19.4942 19.2499 19.6042 20.4299C19.7142 21.6099 19.8492 22.7999 20.0092 23.9999ZM23.3992 14.9999C23.8992 14.9999 24.3242 14.8249 24.6742 14.4749C25.0242 14.1249 25.1992 13.6999 25.1992 13.1999H21.5992C21.5992 13.6999 21.7742 14.1249 22.1242 14.4749C22.4742 14.8249 22.8992 14.9999 23.3992 14.9999Z" fill="white"/>
</svg>
