<svg width="32" height="32" viewBox="0 0 32 32" fill="none" xmlns="http://www.w3.org/2000/svg">
<g id="spain-flag-circular-17884" clip-path="url(#clip0_6632_162830)">
<g id="Group">
<path id="Vector" d="M0.175781 15.982C0.175781 18.8619 0.949234 21.5598 2.29522 23.8851H29.6688C31.0148 21.5598 31.7883 18.8619 31.7883 15.982C31.7883 13.1021 31.0148 10.4041 29.6688 8.07886H2.29522C0.949234 10.4041 0.175781 13.1021 0.175781 15.982Z" fill="#FFC400"/>
<path id="Vector_2" d="M29.6705 8.07891C29.576 7.91558 29.4787 7.75365 29.3786 7.59383C26.583 3.13963 21.6307 0.175781 15.9837 0.175781C13.1031 0.175781 10.4055 0.950287 8.08056 2.29733C5.84766 3.59063 3.95829 5.41187 2.58876 7.59418C2.48866 7.75365 2.39171 7.91558 2.29688 8.07891H29.6705Z" fill="#C60B1E"/>
<path id="Vector_3" d="M2.29688 23.8853C2.39136 24.0486 2.48866 24.2105 2.58876 24.37C3.95829 26.5523 5.84766 28.3732 8.08056 29.6668C10.4055 31.0139 13.1031 31.7884 15.9837 31.7884C21.6307 31.7884 26.583 28.8245 29.3786 24.37C29.4787 24.2102 29.576 24.0486 29.6705 23.8853H2.29688Z" fill="#C60B1E"/>
</g>
</g>
<defs>
<clipPath id="clip0_6632_162830">
<rect width="32" height="32" fill="white"/>
</clipPath>
</defs>
</svg>
