<svg width="29" height="29" viewBox="0 0 29 29" fill="none" xmlns="http://www.w3.org/2000/svg">
<path d="M14.4016 16.7999C14.0616 16.7999 13.7766 16.6849 13.5466 16.4549C13.3166 16.2249 13.2016 15.9399 13.2016 15.5999C13.2016 15.2599 13.3166 14.9749 13.5466 14.7449C13.7766 14.5149 14.0616 14.3999 14.4016 14.3999C14.7416 14.3999 15.0266 14.5149 15.2566 14.7449C15.4866 14.9749 15.6016 15.2599 15.6016 15.5999C15.6016 15.9399 15.4866 16.2249 15.2566 16.4549C15.0266 16.6849 14.7416 16.7999 14.4016 16.7999ZM9.60156 16.7999C9.26156 16.7999 8.97656 16.6849 8.74656 16.4549C8.51656 16.2249 8.40156 15.9399 8.40156 15.5999C8.40156 15.2599 8.51656 14.9749 8.74656 14.7449C8.97656 14.5149 9.26156 14.3999 9.60156 14.3999C9.94156 14.3999 10.2266 14.5149 10.4566 14.7449C10.6866 14.9749 10.8016 15.2599 10.8016 15.5999C10.8016 15.9399 10.6866 16.2249 10.4566 16.4549C10.2266 16.6849 9.94156 16.7999 9.60156 16.7999ZM19.2016 16.7999C18.8616 16.7999 18.5766 16.6849 18.3466 16.4549C18.1166 16.2249 18.0016 15.9399 18.0016 15.5999C18.0016 15.2599 18.1166 14.9749 18.3466 14.7449C18.5766 14.5149 18.8616 14.3999 19.2016 14.3999C19.5416 14.3999 19.8266 14.5149 20.0566 14.7449C20.2866 14.9749 20.4016 15.2599 20.4016 15.5999C20.4016 15.9399 20.2866 16.2249 20.0566 16.4549C19.8266 16.6849 19.5416 16.7999 19.2016 16.7999ZM14.4016 21.5999C14.0616 21.5999 13.7766 21.4849 13.5466 21.2549C13.3166 21.0249 13.2016 20.7399 13.2016 20.3999C13.2016 20.0599 13.3166 19.7749 13.5466 19.5449C13.7766 19.3149 14.0616 19.1999 14.4016 19.1999C14.7416 19.1999 15.0266 19.3149 15.2566 19.5449C15.4866 19.7749 15.6016 20.0599 15.6016 20.3999C15.6016 20.7399 15.4866 21.0249 15.2566 21.2549C15.0266 21.4849 14.7416 21.5999 14.4016 21.5999ZM9.60156 21.5999C9.26156 21.5999 8.97656 21.4849 8.74656 21.2549C8.51656 21.0249 8.40156 20.7399 8.40156 20.3999C8.40156 20.0599 8.51656 19.7749 8.74656 19.5449C8.97656 19.3149 9.26156 19.1999 9.60156 19.1999C9.94156 19.1999 10.2266 19.3149 10.4566 19.5449C10.6866 19.7749 10.8016 20.0599 10.8016 20.3999C10.8016 20.7399 10.6866 21.0249 10.4566 21.2549C10.2266 21.4849 9.94156 21.5999 9.60156 21.5999ZM19.2016 21.5999C18.8616 21.5999 18.5766 21.4849 18.3466 21.2549C18.1166 21.0249 18.0016 20.7399 18.0016 20.3999C18.0016 20.0599 18.1166 19.7749 18.3466 19.5449C18.5766 19.3149 18.8616 19.1999 19.2016 19.1999C19.5416 19.1999 19.8266 19.3149 20.0566 19.5449C20.2866 19.7749 20.4016 20.0599 20.4016 20.3999C20.4016 20.7399 20.2866 21.0249 20.0566 21.2549C19.8266 21.4849 19.5416 21.5999 19.2016 21.5999ZM6.00156 26.3999C5.34156 26.3999 4.77656 26.1649 4.30656 25.6949C3.83656 25.2249 3.60156 24.6599 3.60156 23.9999V7.1999C3.60156 6.5399 3.83656 5.9749 4.30656 5.5049C4.77656 5.0349 5.34156 4.7999 6.00156 4.7999H7.20156V2.3999H9.60156V4.7999H19.2016V2.3999H21.6016V4.7999H22.8016C23.4616 4.7999 24.0266 5.0349 24.4966 5.5049C24.9666 5.9749 25.2016 6.5399 25.2016 7.1999V23.9999C25.2016 24.6599 24.9666 25.2249 24.4966 25.6949C24.0266 26.1649 23.4616 26.3999 22.8016 26.3999H6.00156ZM6.00156 23.9999H22.8016V11.9999H6.00156V23.9999Z" fill="white"/>
</svg>
