<svg width="34" height="34" viewBox="0 0 34 34" fill="none" xmlns="http://www.w3.org/2000/svg">
<path d="M14.9165 4.7331L7.5332 1.0831C3.54987 -0.866899 0.283203 1.11644 0.283203 5.4831V30.2164C0.283203 32.1164 1.86654 33.6664 3.79987 33.6664H16.1665C17.0832 33.6664 17.8332 32.9164 17.8332 31.9998V9.34977C17.8332 7.59977 16.5165 5.51643 14.9165 4.7331ZM11.9499 19.9164H6.16654C5.4832 19.9164 4.91654 19.3498 4.91654 18.6664C4.91654 17.9831 5.4832 17.4164 6.16654 17.4164H11.9499C12.6332 17.4164 13.1999 17.9831 13.1999 18.6664C13.1999 19.3498 12.6499 19.9164 11.9499 19.9164ZM11.9499 13.2498H6.16654C5.4832 13.2498 4.91654 12.6831 4.91654 11.9998C4.91654 11.3164 5.4832 10.7498 6.16654 10.7498H11.9499C12.6332 10.7498 13.1999 11.3164 13.1999 11.9998C13.1999 12.6831 12.6499 13.2498 11.9499 13.2498Z" fill="#0057FF"/>
<path d="M33.6665 27.0664V29.4998C33.6665 31.7998 31.7999 33.6664 29.4999 33.6664H21.9499C21.0499 33.6664 20.3332 32.9498 20.3332 32.0498V28.4498C22.1165 28.6664 23.9999 28.1498 25.3499 27.0664C26.4832 27.9831 27.9332 28.5331 29.5165 28.5331C31.0665 28.5331 32.5165 27.9831 33.6665 27.0664Z" fill="#0057FF"/>
<path d="M33.6665 22.0831V22.0998C33.5332 24.2831 31.7499 26.0331 29.5165 26.0331C27.1999 26.0331 25.3499 24.1498 25.3499 21.8664C25.3499 24.4164 22.9999 26.4664 20.3332 25.9498V16.9998C20.3332 15.9331 21.3165 15.1331 22.3665 15.3664L25.3499 16.0331L26.1499 16.2164L29.5499 16.9831C30.3665 17.1498 31.1165 17.4331 31.7665 17.8498C31.7665 17.8664 31.7832 17.8664 31.7832 17.8664C31.9499 17.9831 32.1165 18.1164 32.2665 18.2664C33.0332 19.0331 33.5332 20.1498 33.6499 21.7831C33.6499 21.8831 33.6665 21.9831 33.6665 22.0831Z" fill="#0057FF"/>
</svg>
