<svg width="32" height="34" viewBox="0 0 32 34" fill="none" xmlns="http://www.w3.org/2000/svg">
<path d="M24.6499 5.26683C24.6499 5.2835 24.6499 5.2835 24.6499 5.30016C24.2332 5.2835 23.8165 5.26683 23.3665 5.26683H10.5332L12.3165 3.50016C13.9499 1.85016 15.7499 0.333496 17.8332 0.333496C19.9332 0.333496 21.7332 1.85016 23.3665 3.50016L24.2999 4.4335C24.5332 4.65016 24.6499 4.95016 24.6499 5.26683Z" fill="#0057FF"/>
<path d="M30.7332 18.9502C31.3832 18.9502 31.8999 18.4168 31.8999 17.7502V16.2835C31.8999 9.7335 29.8999 7.75016 23.3665 7.75016H8.63319C2.09985 7.75016 0.0998535 9.75016 0.0998535 16.2835V17.0002C0.0998535 17.6668 0.61652 18.1835 1.26652 18.1835C2.66652 18.1835 3.78319 19.3168 3.78319 20.7002C3.78319 22.0835 2.66652 23.2335 1.26652 23.2335C0.61652 23.2335 0.0998535 23.7502 0.0998535 24.4168V25.1335C0.0998535 31.6835 2.09985 33.6668 8.63319 33.6668H23.3499C29.8832 33.6668 31.8832 31.6668 31.8832 25.1335C31.8832 24.4835 31.3665 23.9502 30.7165 23.9502C29.3165 23.9502 28.1999 22.8335 28.1999 21.4502C28.2165 20.0668 29.3332 18.9502 30.7332 18.9502ZM14.0332 28.4335C14.0332 29.0835 13.4999 29.6168 12.8499 29.6168C12.1999 29.6168 11.6665 29.0835 11.6665 28.4335V23.9668C11.6665 23.3168 12.1999 22.7835 12.8499 22.7835C13.4999 22.7835 14.0332 23.3168 14.0332 23.9668V28.4335ZM14.0332 17.4502C14.0332 18.1002 13.4999 18.6335 12.8499 18.6335C12.1999 18.6335 11.6665 18.1002 11.6665 17.4502V12.9835C11.6665 12.3335 12.1999 11.8002 12.8499 11.8002C13.4999 11.8002 14.0332 12.3335 14.0332 12.9835V17.4502Z" fill="#0057FF"/>
</svg>
