<svg width="221" height="34" viewBox="0 0 221 34" fill="none" xmlns="http://www.w3.org/2000/svg">
<g clip-path="url(#clip0_10221_43496)">
<path d="M217 7.53996C218.955 7.53996 220.54 5.95505 220.54 3.99996C220.54 2.04487 218.955 0.459961 217 0.459961C215.045 0.459961 213.46 2.04487 213.46 3.99996C213.46 5.95505 215.045 7.53996 217 7.53996Z" stroke="#002366" stroke-width="0.8"/>
<path d="M216.784 3.6799C217.004 3.6799 217.164 3.6359 217.26 3.5519C217.356 3.4719 217.408 3.3359 217.408 3.1439C217.408 2.9559 217.356 2.8239 217.26 2.7399C217.164 2.6599 217.004 2.6199 216.784 2.6199H216.336V3.6799H216.784ZM216.336 4.4119V5.9719H215.272V1.8479H216.896C217.44 1.8479 217.836 1.9399 218.088 2.1239C218.344 2.3039 218.468 2.5919 218.468 2.9879C218.468 3.2599 218.404 3.4839 218.272 3.6599C218.14 3.8319 217.944 3.9639 217.676 4.0439C217.824 4.0799 217.952 4.1559 218.068 4.2719C218.184 4.3879 218.3 4.5639 218.416 4.8039L218.996 5.9719H217.864L217.36 4.9479C217.26 4.7439 217.156 4.5999 217.052 4.5279C216.948 4.4519 216.808 4.4119 216.636 4.4119H216.336Z" fill="#002366"/>
</g>
<path d="M129.987 11.3408C130.171 10.2118 130.259 9.22141 130.31 8.45313L120.509 5.46967L110.716 8.45313C110.965 12.4188 112.418 22.1395 120.509 27.8354C123.768 25.5346 125.956 22.5858 127.418 19.6187H118.645V14.3834H134.79C133.498 20.3279 130.193 28.2308 121.854 33.2012L120.511 34L119.174 33.2012C104.711 24.587 105.401 7.14073 105.438 6.40098L105.525 4.56893L120.509 0L135.5 4.56689L135.588 6.39895C135.602 6.6333 135.676 8.55502 135.316 11.3388H129.987V11.3408Z" fill="#0057FF"/>
<path d="M7.73145 9.82493H0V4.67725H21.0533V9.82289H13.3219V30.0448H7.73145V9.82493Z" fill="#002366"/>
<path d="M23.4111 3.59082H29.2199V8.48377H23.4111V3.59082ZM23.5581 10.6215H29.075V30.0466H23.5581V10.6215Z" fill="#002366"/>
<path d="M41.9968 30.4826C40.5456 30.4826 39.1965 30.2157 37.9494 29.6858C36.7023 29.1539 35.6328 28.4346 34.7368 27.5297C33.8408 26.6229 33.1387 25.5612 32.6304 24.3405C32.1222 23.1218 31.8691 21.8216 31.8691 20.444V20.3727C31.8691 18.9951 32.1243 17.6909 32.6304 16.4579C33.1387 15.225 33.8408 14.1511 34.7368 13.232C35.6308 12.3129 36.7023 11.5894 37.9494 11.0576C39.1965 10.5257 40.568 10.2607 42.0682 10.2607C43.9072 10.2607 45.4318 10.5501 46.6422 11.1309C47.8525 11.7117 48.9159 12.5085 49.8364 13.5234L46.4605 17.1467C45.8319 16.4946 45.1828 15.975 44.5175 15.5878C43.8521 15.2026 43.0234 15.007 42.0315 15.007C41.3293 15.007 40.6946 15.1455 40.1272 15.4247C39.5577 15.7019 39.0618 16.083 38.6393 16.5659C38.2147 17.0489 37.8882 17.6114 37.6596 18.2513C37.4289 18.8912 37.3146 19.5739 37.3146 20.2993V20.3707C37.3146 21.1186 37.4289 21.8196 37.6596 22.4717C37.8882 23.1238 38.2229 23.6924 38.6576 24.1754C39.0944 24.6584 39.6128 25.0395 40.219 25.3166C40.8232 25.5958 41.5008 25.7344 42.2519 25.7344C43.1704 25.7344 43.9766 25.5469 44.6664 25.1719C45.3563 24.7969 46.0401 24.2956 46.7177 23.668L49.9487 26.9286C49.0057 27.9679 47.928 28.8197 46.7177 29.4841C45.5033 30.1484 43.9317 30.4826 41.9968 30.4826Z" fill="#002366"/>
<path d="M52.0869 3.59082H57.6038V17.6889L64.0637 10.6215H70.6706L63.2657 18.2676L70.9236 30.0466H64.6087L59.5265 22.109L57.6038 24.1388V30.0466H52.0869V3.59082Z" fill="#002366"/>
<path d="M81.342 30.4827C79.8908 30.4827 78.5417 30.2402 77.2946 29.7572C76.0476 29.2743 74.9719 28.5855 74.0637 27.6908C73.1554 26.7982 72.4492 25.7406 71.941 24.5199C71.4328 23.2992 71.1797 21.9399 71.1797 20.4421V20.3708C71.1797 18.9931 71.4164 17.6889 71.8879 16.456C72.3594 15.2231 73.0187 14.1491 73.8677 13.23C74.7148 12.3109 75.723 11.5875 76.8987 11.0556C78.0723 10.5237 79.3724 10.2588 80.8011 10.2588C82.4217 10.2588 83.826 10.5482 85.0118 11.129C86.1976 11.7098 87.1835 12.4882 87.9693 13.4664C88.7551 14.4446 89.3368 15.5675 89.7123 16.8371C90.0879 18.1046 90.2736 19.4293 90.2736 20.8048C90.2736 21.0229 90.2675 21.2532 90.2552 21.4936C90.243 21.7361 90.2246 21.9888 90.2001 22.2538H76.6619C76.9273 23.5111 77.4783 24.4587 78.3131 25.0986C79.1479 25.7385 80.1827 26.0585 81.4175 26.0585C82.336 26.0585 83.1606 25.9016 83.8851 25.5877C84.6118 25.2739 85.3608 24.7665 86.1364 24.0654L89.2939 26.8553C88.3734 27.9904 87.261 28.8789 85.9548 29.5188C84.6444 30.1607 83.1096 30.4827 81.342 30.4827ZM84.8995 18.8118C84.7301 17.5789 84.2954 16.5823 83.5933 15.8222C82.8912 15.0621 81.9604 14.681 80.7991 14.681C79.6377 14.681 78.6989 15.056 77.9865 15.8039C77.2722 16.5538 76.8068 17.5564 76.5884 18.8118H84.8995Z" fill="#002366"/>
<path d="M99.4904 30.3726C98.6434 30.3726 97.8759 30.2809 97.1861 30.1016C96.4962 29.9202 95.9043 29.6003 95.4063 29.1418C94.9103 28.6832 94.5225 28.0861 94.2449 27.3484C93.9674 26.6128 93.8286 25.6753 93.8286 24.5402V15.3331H91.5059V10.6215H93.8286V5.65723H99.3455V10.6215H103.919V15.3331H99.3455V23.6619C99.3455 24.9234 99.9394 25.5531 101.125 25.5531C102.093 25.5531 103.001 25.3126 103.848 24.8296V29.2518C103.266 29.5901 102.625 29.8632 101.925 30.067C101.219 30.2707 100.409 30.3726 99.4904 30.3726Z" fill="#002366"/>
<path d="M143.388 30.4094C141.284 30.4094 139.655 29.7695 138.506 28.4897C137.357 27.2099 136.781 25.4451 136.781 23.1994V10.6216H142.298V21.4305C142.298 22.7327 142.588 23.715 143.17 24.3773C143.751 25.0396 144.572 25.3718 145.637 25.3718C146.701 25.3718 147.544 25.0416 148.16 24.3773C148.776 23.715 149.087 22.7327 149.087 21.4305V10.6216H154.604V30.0467H149.087V27.269C148.772 27.6827 148.427 28.0781 148.052 28.4551C147.676 28.8321 147.258 29.1663 146.801 29.4577C146.339 29.7512 145.831 29.9814 145.276 30.1526C144.719 30.3238 144.09 30.4094 143.388 30.4094Z" fill="#0057FF"/>
<path d="M163.607 30.4092C162.686 30.4092 161.821 30.2828 161.011 30.0281C160.2 29.7734 159.492 29.3943 158.888 28.8869C158.284 28.3795 157.804 27.7579 157.455 27.0202C157.104 26.2845 156.929 25.4327 156.929 24.4647V24.3913C156.929 23.3296 157.121 22.4105 157.51 21.6382C157.896 20.8658 158.435 20.2239 159.125 19.7185C159.815 19.211 160.637 18.83 161.592 18.5773C162.548 18.3246 163.607 18.1962 164.768 18.1962C165.76 18.1962 166.626 18.2695 167.362 18.4142C168.101 18.5589 168.82 18.7525 169.522 18.995V18.669C169.522 17.5094 169.171 16.627 168.469 16.0238C167.767 15.4206 166.726 15.1169 165.348 15.1169C164.283 15.1169 163.346 15.2086 162.535 15.388C161.725 15.5693 160.872 15.8282 159.976 16.1664L158.596 11.9623C159.662 11.5038 160.774 11.1288 161.935 10.8374C163.097 10.546 164.501 10.4033 166.146 10.4033C167.671 10.4033 168.971 10.5908 170.049 10.9658C171.124 11.3407 172.014 11.8787 172.716 12.5777C173.441 13.3032 173.973 14.1897 174.312 15.2412C174.651 16.2928 174.82 17.4707 174.82 18.7749V30.0465H169.485V27.9454C168.808 28.6933 167.997 29.2924 167.052 29.7387C166.111 30.185 164.96 30.4092 163.607 30.4092ZM165.275 26.6045C166.581 26.6045 167.628 26.2906 168.416 25.6609C169.201 25.0333 169.595 24.212 169.595 23.1971V22.219C169.112 22.0009 168.573 21.8256 167.981 21.6932C167.387 21.5607 166.752 21.4935 166.075 21.4935C164.889 21.4935 163.958 21.7237 163.28 22.1823C162.603 22.6428 162.264 23.3072 162.264 24.1753V24.2466C162.264 24.9945 162.542 25.5753 163.099 25.987C163.654 26.3986 164.381 26.6045 165.275 26.6045Z" fill="#0057FF"/>
<path d="M178.125 10.6216H183.642V14.5343C184.199 13.2057 184.96 12.1419 185.928 11.3451C186.895 10.5483 188.202 10.1855 189.849 10.2568V16.02H189.559C187.72 16.02 186.273 16.5763 185.222 17.687C184.169 18.7976 183.642 20.5257 183.642 22.8693V30.0447H178.125V10.6216Z" fill="#0057FF"/>
<path d="M199.83 30.4093C198.693 30.4093 197.591 30.1933 196.527 29.7572C195.462 29.3211 194.519 28.6771 193.696 27.8192C192.874 26.9612 192.214 25.9097 191.719 24.6666C191.223 23.4214 190.976 21.9908 190.976 20.3728V20.2974C190.976 18.6793 191.223 17.2467 191.719 16.0036C192.214 14.7584 192.868 13.7069 193.678 12.851C194.488 11.993 195.425 11.347 196.49 10.9129C197.554 10.4768 198.668 10.2608 199.83 10.2608C201.305 10.2608 202.522 10.5502 203.477 11.131C204.432 11.7118 205.236 12.3884 205.891 13.1607V3.59082H211.408V30.0466H205.891V27.2567C205.214 28.1758 204.397 28.9298 203.44 29.5208C202.485 30.1138 201.283 30.4093 199.83 30.4093ZM201.246 25.7344C201.899 25.7344 202.509 25.606 203.079 25.3533C203.648 25.1007 204.144 24.7379 204.567 24.2651C204.989 23.7944 205.328 23.2258 205.583 22.5615C205.838 21.8971 205.965 21.1655 205.965 20.3687V20.2974C205.965 19.5006 205.838 18.769 205.583 18.1046C205.33 17.4403 204.989 16.8717 204.567 16.4009C204.142 15.9302 203.646 15.5674 203.079 15.3147C202.509 15.06 201.899 14.9337 201.246 14.9337C200.593 14.9337 199.981 15.06 199.413 15.3147C198.844 15.5674 198.344 15.9302 197.907 16.4009C197.472 16.8717 197.127 17.4341 196.872 18.0863C196.619 18.7384 196.49 19.4761 196.49 20.2974V20.3687C196.49 21.1655 196.617 21.8971 196.872 22.5615C197.127 23.2258 197.472 23.7944 197.907 24.2651C198.344 24.7359 198.844 25.0986 199.413 25.3533C199.983 25.6081 200.593 25.7344 201.246 25.7344Z" fill="#0057FF"/>
<defs>
<clipPath id="clip0_10221_43496">
<rect width="8" height="8" fill="white" transform="translate(213)"/>
</clipPath>
</defs>
</svg>

