<svg width="34" height="34" viewBox="0 0 34 34" fill="none" xmlns="http://www.w3.org/2000/svg">
<path d="M16.9999 0.333496C7.79992 0.333496 0.333252 7.80016 0.333252 17.0002C0.333252 26.2002 7.79992 33.6668 16.9999 33.6668C26.1999 33.6668 33.6666 26.2002 33.6666 17.0002C33.6666 7.80016 26.1999 0.333496 16.9999 0.333496ZM16.9999 11.5835C16.3166 11.5835 15.7499 11.0168 15.7499 10.3335C15.7499 9.65016 16.3166 9.0835 16.9999 9.0835C21.3666 9.0835 24.9166 12.6335 24.9166 17.0002C24.9166 21.3668 21.3666 24.9168 16.9999 24.9168C16.3166 24.9168 15.7499 24.3502 15.7499 23.6668C15.7499 22.9835 16.3166 22.4168 16.9999 22.4168C19.9833 22.4168 22.4166 19.9835 22.4166 17.0002C22.4166 14.0168 19.9833 11.5835 16.9999 11.5835ZM16.9999 29.9168C9.88325 29.9168 4.08325 24.1168 4.08325 17.0002C4.08325 16.3168 4.64992 15.7502 5.33325 15.7502C6.01659 15.7502 6.58325 16.3168 6.58325 17.0002C6.58325 22.7502 11.2499 27.4168 16.9999 27.4168C22.7499 27.4168 27.4166 22.7502 27.4166 17.0002C27.4166 11.2502 22.7499 6.5835 16.9999 6.5835C16.3166 6.5835 15.7499 6.01683 15.7499 5.3335C15.7499 4.65016 16.3166 4.0835 16.9999 4.0835C24.1166 4.0835 29.9166 9.8835 29.9166 17.0002C29.9166 24.1168 24.1166 29.9168 16.9999 29.9168Z" fill="#0057FF"/>
</svg>
