<svg width="32" height="32" viewBox="0 0 32 32" fill="none" xmlns="http://www.w3.org/2000/svg">
<g id="uk-flag-circular-17883" clip-path="url(#clip0_6632_162789)">
<g id="Group">
<path id="Vector" d="M31.2087 20.2152C31.2207 20.172 31.2354 20.1299 31.247 20.0863L31.2456 20.0856C31.5976 18.7769 31.7883 17.4021 31.7883 15.982C31.7883 14.5654 31.5986 13.1937 31.2481 11.8874L31.2495 11.8867C31.2358 11.8355 31.2186 11.7852 31.2045 11.7343C31.1564 11.5615 31.1062 11.3894 31.0521 11.2187C31.0236 11.1284 30.9934 11.0388 30.9632 10.9489C30.9376 10.8727 30.9144 10.7954 30.8877 10.7195H30.8824C30.3046 9.08517 29.47 7.57233 28.4201 6.23477L21.2497 9.82033V1.07842C19.7155 0.536094 18.0723 0.225941 16.3621 0.185547H15.602C13.8921 0.225941 12.2493 0.536094 10.715 1.07807V9.82033L3.54392 6.23442C2.49403 7.57233 1.65911 9.08517 1.08165 10.7195H1.07639C1.04969 10.7954 1.02616 10.8727 1.00052 10.9489C0.970309 11.0385 0.940101 11.1277 0.91165 11.2176C0.857557 11.3883 0.807329 11.5608 0.759207 11.7339C0.745157 11.7849 0.727946 11.8348 0.714247 11.8857L0.715652 11.8864C0.365456 13.1934 0.175781 14.565 0.175781 15.982C0.175781 17.4021 0.36651 18.7769 0.718462 20.086L0.717057 20.0867C0.728649 20.1299 0.74305 20.1717 0.754992 20.2149C0.806275 20.3989 0.859665 20.5823 0.91727 20.7635C0.943614 20.8464 0.971363 20.9286 0.999111 21.0112C1.02616 21.0923 1.0511 21.1741 1.07955 21.2546H1.08552C1.66403 22.8882 2.4993 24.4 3.54989 25.7369L10.7154 22.1541V30.8862C12.3631 31.4682 14.1348 31.7882 15.982 31.7882C17.8296 31.7882 19.6017 31.4682 21.2497 30.8855V22.1541L28.4145 25.7365C29.4651 24.3997 30.3 22.8879 30.8785 21.2546H30.8838C30.9123 21.1741 30.9372 21.0919 30.9646 21.0108C30.9923 20.9286 31.0201 20.8464 31.0464 20.7635C31.104 20.5819 31.1578 20.3989 31.2087 20.2152Z" fill="#F3F4F5"/>
<path id="Vector_2" d="M19.1429 0.492539C18.242 0.309538 17.3119 0.208027 16.3621 0.185547H15.602C14.6525 0.208027 13.7228 0.309889 12.8222 0.492539V12.827H0.491555C0.28502 13.8464 0.175781 14.9015 0.175781 15.982C0.175781 17.0663 0.285371 18.1246 0.493311 19.1474H12.8222V31.4717C13.8433 31.679 14.8998 31.7882 15.982 31.7882C17.0646 31.7882 18.1215 31.679 19.1429 31.4714V19.1474H31.4708C31.6787 18.1246 31.7883 17.0663 31.7883 15.982C31.7883 14.9015 31.679 13.8464 31.4725 12.8267H19.1429V0.492539Z" fill="#CC0000"/>
<path id="Vector_3" d="M30.1156 23.0546C30.4068 22.4739 30.6635 21.8733 30.8827 21.2544H26.5156L30.1156 23.0546Z" fill="#CC0000"/>
<path id="Vector_4" d="M29.0566 7.0957L21.8086 10.7199H26.5196L30.1237 8.91764C29.8073 8.28539 29.4518 7.67632 29.0566 7.0957Z" fill="#CC0000"/>
<path id="Vector_5" d="M1.84065 8.91699C1.54946 9.49831 1.29305 10.1 1.07422 10.7196H5.44552L1.84065 8.91699Z" fill="#CC0000"/>
<path id="Vector_6" d="M2.91616 24.8759L10.1596 21.2542H5.44867L1.84766 23.0547C2.16484 23.6869 2.52065 24.296 2.91616 24.8759Z" fill="#CC0000"/>
<path id="Vector_7" d="M3.54297 6.23409L10.7141 9.81965V8.41816V1.08301C7.85808 2.0925 5.3779 3.89617 3.54297 6.23409Z" fill="#000066"/>
<path id="Vector_8" d="M21.25 1.0835V8.91707V9.81979L28.4204 6.23458C26.5858 3.89666 24.106 2.09299 21.25 1.0835Z" fill="#000066"/>
<path id="Vector_9" d="M10.7163 25.7363V22.1543L3.55078 25.737C5.38501 28.0715 7.86273 29.8727 10.7163 30.8815V25.7363Z" fill="#000066"/>
<path id="Vector_10" d="M21.25 22.1543V25.4195V30.8808C24.1032 29.872 26.5806 28.0708 28.4148 25.7363L21.25 22.1543Z" fill="#000066"/>
</g>
</g>
<defs>
<clipPath id="clip0_6632_162789">
<rect width="32" height="32" fill="white"/>
</clipPath>
</defs>
</svg>
