<svg width="32" height="32" viewBox="0 0 32 32" fill="none" xmlns="http://www.w3.org/2000/svg">
<g id="usa-flag-circular-17882" clip-path="url(#clip0_6632_162874)">
<g id="Group">
<path id="Vector" d="M0.355469 18.3682C0.680024 20.5104 1.43591 22.5105 2.52971 24.2797H29.4351C30.5289 22.5105 31.2848 20.5104 31.6093 18.3682H0.355469Z" fill="#F3F4F5"/>
<path id="Vector_2" d="M24.6363 29.2061H7.32812C9.81462 30.8366 12.7866 31.7881 15.9822 31.7881C19.1779 31.7881 22.1498 30.8366 24.6363 29.2061Z" fill="#F3F4F5"/>
<path id="Vector_3" d="M2.52734 24.2798C3.74688 26.2528 5.38863 27.9356 7.32577 29.2061H24.634C26.5715 27.9356 28.2129 26.2528 29.4324 24.2798H2.52734Z" fill="#DC3027"/>
<path id="Vector_4" d="M17.608 0.258676C17.0734 0.203881 16.531 0.175781 15.982 0.175781C7.25241 0.175781 0.175781 7.25241 0.175781 15.982C0.175781 16.7931 0.23725 17.5901 0.35527 18.3684H17.608V0.258676Z" fill="#283991"/>
<path id="Vector_5" d="M4.98468 8.28743L4.49574 6.78619L5.76902 5.86065H4.19437L4.09848 5.56665C3.599 6.13603 3.14027 6.74123 2.72579 7.3784L2.42969 8.28743L3.70683 7.35908L4.98468 8.28743Z" fill="#F3F4F5"/>
<path id="Vector_6" d="M8.16719 3.56809L9.43872 4.49223L8.95118 2.9952L10.2231 2.0658H8.64841L8.62523 1.99414C8.12856 2.25617 7.64629 2.54139 7.18264 2.8526L7.38215 2.99766L6.90234 4.49223L8.16719 3.56809Z" fill="#F3F4F5"/>
<path id="Vector_7" d="M2.91957 14.3768L2.43133 15.8766L3.70637 14.9493L4.98492 15.8766L4.49668 14.3768L5.76821 13.4495H4.19461L3.70637 11.9531L3.21813 13.4495H1.64453L2.91957 14.3768Z" fill="#F3F4F5"/>
<path id="Vector_8" d="M11.8414 14.3768L11.3532 15.8766L12.6282 14.9493L13.9068 15.8766L13.4186 14.3768L14.6901 13.4495H13.1165L12.6282 11.9531L12.1435 13.4495H10.5664L11.8414 14.3768Z" fill="#F3F4F5"/>
<path id="Vector_9" d="M11.8414 6.78632L11.3532 8.28616L12.6282 7.35886L13.9068 8.28616L13.4186 6.78632L14.6901 5.85902H13.1165L12.6282 4.36621L12.1435 5.85902H10.5664L11.8414 6.78632Z" fill="#F3F4F5"/>
<path id="Vector_10" d="M7.36918 10.5798L6.88094 12.0831L8.15949 11.1558L9.43453 12.0831L8.94629 10.5798L10.2213 9.65599H8.64422L8.15949 8.15967L7.67126 9.65599H6.09766L7.36918 10.5798Z" fill="#F3F4F5"/>
<path id="Vector_11" d="M31.5799 13.4417H17.6055V18.3679H31.6063C31.7243 17.5899 31.7858 16.7929 31.7858 15.9819C31.7858 15.1168 31.7134 14.2692 31.5799 13.4417Z" fill="#DC3027"/>
<path id="Vector_12" d="M17.6055 13.4418H31.58C31.2329 11.2953 30.4528 9.29495 29.3337 7.53027H17.6055V13.4418Z" fill="#F3F4F5"/>
<path id="Vector_13" d="M17.6055 7.53004H29.3334C28.0734 5.54337 26.3839 3.85807 24.3934 2.60376H17.6055V7.53004Z" fill="#DC3027"/>
<path id="Vector_14" d="M17.6055 0.26001V2.6039H24.3937C22.3891 1.34045 20.0825 0.513964 17.6055 0.26001Z" fill="#F3F4F5"/>
</g>
</g>
<defs>
<clipPath id="clip0_6632_162874">
<rect width="32" height="32" fill="white"/>
</clipPath>
</defs>
</svg>
