<svg width="28" height="28" viewBox="0 0 28 28" fill="none" xmlns="http://www.w3.org/2000/svg">
<path d="M14.0001 0.666992C6.65341 0.666992 0.666748 6.65366 0.666748 14.0003C0.666748 21.347 6.65341 27.3337 14.0001 27.3337C21.3467 27.3337 27.3334 21.347 27.3334 14.0003C27.3334 6.65366 21.3467 0.666992 14.0001 0.666992ZM19.3334 15.0003H15.0001V19.3337C15.0001 19.8803 14.5467 20.3337 14.0001 20.3337C13.4534 20.3337 13.0001 19.8803 13.0001 19.3337V15.0003H8.66675C8.12008 15.0003 7.66675 14.547 7.66675 14.0003C7.66675 13.4537 8.12008 13.0003 8.66675 13.0003H13.0001V8.66699C13.0001 8.12033 13.4534 7.66699 14.0001 7.66699C14.5467 7.66699 15.0001 8.12033 15.0001 8.66699V13.0003H19.3334C19.8801 13.0003 20.3334 13.4537 20.3334 14.0003C20.3334 14.547 19.8801 15.0003 19.3334 15.0003Z" fill="#0057FF"/>
</svg>
