<svg width="16" height="16" viewBox="0 0 16 16" fill="none" xmlns="http://www.w3.org/2000/svg">
<g id="vuesax/bold/android">
<g id="android">
<path id="Vector" d="M7.33333 12V14C7.33333 14.3667 7.03333 14.6667 6.66667 14.6667C6.3 14.6667 6 14.3667 6 14V12H7.33333Z" fill="white"/>
<path id="Vector_2" d="M10 12V14C10 14.3667 9.70002 14.6667 9.33335 14.6667C8.96669 14.6667 8.66669 14.3667 8.66669 14V12H10Z" fill="white"/>
<path id="Vector_3" d="M11.3334 7.33333V10.6667C11.3334 11.4 10.7334 12 10 12H6.00002C5.26669 12 4.66669 11.4 4.66669 10.6667V7.33333C4.66669 6.6 5.26669 6 6.00002 6H10C10.7334 6 11.3334 6.6 11.3334 7.33333Z" fill="white"/>
<path id="Vector_4" d="M3.33333 7.33341V10.0001C3.33333 10.3667 3.03333 10.6667 2.66667 10.6667C2.3 10.6667 2 10.3667 2 10.0001V7.33341C2 6.96675 2.3 6.66675 2.66667 6.66675C3.03333 6.66675 3.33333 6.96675 3.33333 7.33341Z" fill="white"/>
<path id="Vector_5" d="M14 7.33341V10.0001C14 10.3667 13.7 10.6667 13.3334 10.6667C12.9667 10.6667 12.6667 10.3667 12.6667 10.0001V7.33341C12.6667 6.96675 12.9667 6.66675 13.3334 6.66675C13.7 6.66675 14 6.96675 14 7.33341Z" fill="white"/>
<path id="Vector_6" d="M6.39996 5.06659H9.6C10.1867 5.06659 10.6666 4.58659 10.6666 3.99992C10.6666 2.52659 9.47331 1.33325 7.99998 1.33325C6.52665 1.33325 5.33331 2.52659 5.33331 3.99992C5.33331 4.58659 5.8133 5.06659 6.39996 5.06659Z" fill="white"/>
</g>
</g>
</svg>
