<svg width="32" height="32" viewBox="0 0 32 32" fill="none" xmlns="http://www.w3.org/2000/svg">
  <path d="M24.0013 17.3335V14.6668H29.3346V17.3335H24.0013ZM25.6013 26.6668L21.3346 23.4668L22.9346 21.3335L27.2013 24.5335L25.6013 26.6668ZM22.9346 10.6668L21.3346 8.5335L25.6013 5.3335L27.2013 7.46683L22.9346 10.6668ZM6.66797 25.3335V20.0002H5.33464C4.6013 20.0002 3.97352 19.7391 3.4513 19.2168C2.92908 18.6946 2.66797 18.0668 2.66797 17.3335V14.6668C2.66797 13.9335 2.92908 13.3057 3.4513 12.7835C3.97352 12.2613 4.6013 12.0002 5.33464 12.0002H10.668L17.3346 8.00016V24.0002L10.668 20.0002H9.33463V25.3335H6.66797ZM18.668 20.4668V11.5335C19.268 12.0668 19.7513 12.7168 20.118 13.4835C20.4846 14.2502 20.668 15.0891 20.668 16.0002C20.668 16.9113 20.4846 17.7502 20.118 18.5168C19.7513 19.2835 19.268 19.9335 18.668 20.4668Z" fill="#0057FF"/>
</svg>