<svg width="34" height="34" viewBox="0 0 34 34" fill="none" xmlns="http://www.w3.org/2000/svg">
<path d="M32.9332 14.8999L30.6666 12.2666C30.2332 11.7666 29.8832 10.8333 29.8832 10.1666V7.33327C29.8832 5.5666 28.4332 4.1166 26.6666 4.1166H23.8332C23.1832 4.1166 22.2332 3.7666 21.7332 3.33327L19.0999 1.0666C17.9499 0.0832683 16.0666 0.0832683 14.8999 1.0666L12.2832 3.34993C11.7832 3.7666 10.8332 4.1166 10.1832 4.1166H7.29989C5.53322 4.1166 4.08322 5.5666 4.08322 7.33327V10.1833C4.08322 10.8333 3.73322 11.7666 3.31655 12.2666L1.06655 14.9166C0.0998861 16.0666 0.0998861 17.9333 1.06655 19.0833L3.31655 21.7333C3.73322 22.2333 4.08322 23.1666 4.08322 23.8166V26.6666C4.08322 28.4333 5.53322 29.8833 7.29989 29.8833H10.1832C10.8332 29.8833 11.7832 30.2333 12.2832 30.6666L14.9166 32.9333C16.0666 33.9166 17.9499 33.9166 19.1166 32.9333L21.7499 30.6666C22.2499 30.2333 23.1832 29.8833 23.8499 29.8833H26.6832C28.4499 29.8833 29.8999 28.4333 29.8999 26.6666V23.8333C29.8999 23.1833 30.2499 22.2333 30.6832 21.7333L32.9499 19.0999C33.9166 17.9499 33.9166 16.0499 32.9332 14.8999ZM23.9332 13.8499L15.8832 21.8999C15.6499 22.1333 15.3332 22.2666 14.9999 22.2666C14.6666 22.2666 14.3499 22.1333 14.1166 21.8999L10.0832 17.8666C9.59989 17.3833 9.59989 16.5833 10.0832 16.0999C10.5666 15.6166 11.3666 15.6166 11.8499 16.0999L14.9999 19.2499L22.1666 12.0833C22.6499 11.5999 23.4499 11.5999 23.9332 12.0833C24.4166 12.5666 24.4166 13.3666 23.9332 13.8499Z" fill="#0057FF"/>
</svg>
