<?xml version="1.0" encoding="utf-8"?>
<!-- Generator: Adobe Illustrator 25.0.0, SVG Export Plug-In . SVG Version: 6.00 Build 0)  -->
<svg version="1.1" xmlns="http://www.w3.org/2000/svg" xmlns:xlink="http://www.w3.org/1999/xlink" x="0px" y="0px"
	 viewBox="0 0 1419.9 57" style="enable-background:new 0 0 1419.9 57;" xml:space="preserve">
<style type="text/css">
	.st0{fill:#FFFFFF;}
</style>
<g id="Layer_1">
</g>
<g id="Layer_2">
	<path class="st0" d="M0,57.1c0,0-3.2-3.2,113.9-18.1c0,0,138-16,166.4-18.7c0,0,140.1-11.6,149.5-11.8c0,0,115.8-5.5,146.9-6.3
		c0,0,95-3.2,145.8-1.8c0,0,103.6,1.1,123.9,1.6c0,0,77.2,2.6,95.7,4.2c0,0,71,2.9,91.3,4.5c0,0,91.3,7.4,99.1,7.6
		c0,0,96.3,9.5,105.4,10.5c0,0,83.7,10,125,17.1c0,0,43.9,7.4,56.9,11.2C1419.9,57,1,56.1,0,57.1z"/>
</g>
</svg>
