<svg width="97" height="24" viewBox="0 0 97 24" fill="none" xmlns="http://www.w3.org/2000/svg">
<circle cx="12" cy="12" r="11.25" stroke="#002366" stroke-width="1.5"/>
<path d="M41.248 10.08C40.96 9.52533 40.56 9.10933 40.048 8.832C39.536 8.544 38.944 8.4 38.272 8.4C37.536 8.4 36.88 8.56533 36.304 8.896C35.728 9.22667 35.2747 9.696 34.944 10.304C34.624 10.912 34.464 11.616 34.464 12.416C34.464 13.216 34.624 13.9253 34.944 14.544C35.2747 15.152 35.728 15.6213 36.304 15.952C36.88 16.2827 37.536 16.448 38.272 16.448C39.264 16.448 40.0693 16.1707 40.688 15.616C41.3067 15.0613 41.6853 14.3093 41.824 13.36H37.648V11.904H43.776V13.328C43.6587 14.192 43.3493 14.9867 42.848 15.712C42.3573 16.4373 41.712 17.0187 40.912 17.456C40.1227 17.8827 39.2427 18.096 38.272 18.096C37.2267 18.096 36.272 17.856 35.408 17.376C34.544 16.8853 33.856 16.208 33.344 15.344C32.8427 14.48 32.592 13.504 32.592 12.416C32.592 11.328 32.8427 10.352 33.344 9.488C33.856 8.624 34.544 7.952 35.408 7.472C36.2827 6.98133 37.2373 6.736 38.272 6.736C39.456 6.736 40.5067 7.02933 41.424 7.616C42.352 8.192 43.024 9.01333 43.44 10.08H41.248ZM53.655 13.376C53.655 13.7067 53.6337 14.0053 53.591 14.272H46.855C46.9083 14.976 47.1697 15.5413 47.639 15.968C48.1083 16.3947 48.6843 16.608 49.367 16.608C50.3483 16.608 51.0417 16.1973 51.447 15.376H53.415C53.1483 16.1867 52.663 16.8533 51.959 17.376C51.2657 17.888 50.4017 18.144 49.367 18.144C48.5243 18.144 47.767 17.9573 47.095 17.584C46.4337 17.2 45.911 16.6667 45.527 15.984C45.1537 15.2907 44.967 14.4907 44.967 13.584C44.967 12.6773 45.1483 11.8827 45.511 11.2C45.8843 10.5067 46.4017 9.97333 47.063 9.6C47.735 9.22667 48.503 9.04 49.367 9.04C50.199 9.04 50.9403 9.22133 51.591 9.584C52.2417 9.94667 52.7483 10.4587 53.111 11.12C53.4737 11.7707 53.655 12.5227 53.655 13.376ZM51.751 12.8C51.7403 12.128 51.5003 11.5893 51.031 11.184C50.5617 10.7787 49.9803 10.576 49.287 10.576C48.6577 10.576 48.119 10.7787 47.671 11.184C47.223 11.5787 46.9563 12.1173 46.871 12.8H51.751ZM57.578 10.672V15.552C57.578 15.8827 57.6527 16.1227 57.802 16.272C57.962 16.4107 58.2287 16.48 58.602 16.48H59.722V18H58.282C57.4607 18 56.8313 17.808 56.394 17.424C55.9567 17.04 55.738 16.416 55.738 15.552V10.672H54.698V9.184H55.738V6.992H57.578V9.184H59.722V10.672H57.578ZM64.9514 13.552C64.9514 12.6667 65.1327 11.8827 65.4954 11.2C65.8687 10.5173 66.37 9.98933 66.9994 9.616C67.6394 9.232 68.3434 9.04 69.1114 9.04C69.8047 9.04 70.4074 9.17867 70.9194 9.456C71.442 9.72267 71.858 10.0587 72.1674 10.464V9.184H74.0074V18H72.1674V16.688C71.858 17.104 71.4367 17.4507 70.9034 17.728C70.37 18.0053 69.762 18.144 69.0794 18.144C68.322 18.144 67.6287 17.952 66.9994 17.568C66.37 17.1733 65.8687 16.6293 65.4954 15.936C65.1327 15.232 64.9514 14.4373 64.9514 13.552ZM72.1674 13.584C72.1674 12.976 72.0394 12.448 71.7834 12C71.538 11.552 71.2127 11.2107 70.8074 10.976C70.402 10.7413 69.9647 10.624 69.4954 10.624C69.026 10.624 68.5887 10.7413 68.1834 10.976C67.778 11.2 67.4474 11.536 67.1914 11.984C66.946 12.4213 66.8234 12.944 66.8234 13.552C66.8234 14.16 66.946 14.6933 67.1914 15.152C67.4474 15.6107 67.778 15.9627 68.1834 16.208C68.5994 16.4427 69.0367 16.56 69.4954 16.56C69.9647 16.56 70.402 16.4427 70.8074 16.208C71.2127 15.9733 71.538 15.632 71.7834 15.184C72.0394 14.7253 72.1674 14.192 72.1674 13.584ZM78.2271 10.48C78.5365 10.0747 78.9578 9.73333 79.4911 9.456C80.0245 9.17867 80.6271 9.04 81.2991 9.04C82.0671 9.04 82.7658 9.232 83.3951 9.616C84.0351 9.98933 84.5365 10.5173 84.8991 11.2C85.2618 11.8827 85.4431 12.6667 85.4431 13.552C85.4431 14.4373 85.2618 15.232 84.8991 15.936C84.5365 16.6293 84.0351 17.1733 83.3951 17.568C82.7658 17.952 82.0671 18.144 81.2991 18.144C80.6271 18.144 80.0298 18.0107 79.5071 17.744C78.9845 17.4667 78.5578 17.1253 78.2271 16.72V22.192H76.4031V9.184H78.2271V10.48ZM83.5871 13.552C83.5871 12.944 83.4591 12.4213 83.2031 11.984C82.9578 11.536 82.6271 11.2 82.2111 10.976C81.8058 10.7413 81.3685 10.624 80.8991 10.624C80.4405 10.624 80.0031 10.7413 79.5871 10.976C79.1818 11.2107 78.8511 11.552 78.5951 12C78.3498 12.448 78.2271 12.976 78.2271 13.584C78.2271 14.192 78.3498 14.7253 78.5951 15.184C78.8511 15.632 79.1818 15.9733 79.5871 16.208C80.0031 16.4427 80.4405 16.56 80.8991 16.56C81.3685 16.56 81.8058 16.4427 82.2111 16.208C82.6271 15.9627 82.9578 15.6107 83.2031 15.152C83.4591 14.6933 83.5871 14.16 83.5871 13.552ZM89.0709 10.48C89.3802 10.0747 89.8015 9.73333 90.3349 9.456C90.8682 9.17867 91.4709 9.04 92.1429 9.04C92.9109 9.04 93.6095 9.232 94.2389 9.616C94.8789 9.98933 95.3802 10.5173 95.7429 11.2C96.1055 11.8827 96.2869 12.6667 96.2869 13.552C96.2869 14.4373 96.1055 15.232 95.7429 15.936C95.3802 16.6293 94.8789 17.1733 94.2389 17.568C93.6095 17.952 92.9109 18.144 92.1429 18.144C91.4709 18.144 90.8735 18.0107 90.3509 17.744C89.8282 17.4667 89.4015 17.1253 89.0709 16.72V22.192H87.2469V9.184H89.0709V10.48ZM94.4309 13.552C94.4309 12.944 94.3029 12.4213 94.0469 11.984C93.8015 11.536 93.4709 11.2 93.0549 10.976C92.6495 10.7413 92.2122 10.624 91.7429 10.624C91.2842 10.624 90.8469 10.7413 90.4309 10.976C90.0255 11.2107 89.6949 11.552 89.4389 12C89.1935 12.448 89.0709 12.976 89.0709 13.584C89.0709 14.192 89.1935 14.7253 89.4389 15.184C89.6949 15.632 90.0255 15.9733 90.4309 16.208C90.8469 16.4427 91.2842 16.56 91.7429 16.56C92.2122 16.56 92.6495 16.4427 93.0549 16.208C93.4709 15.9627 93.8015 15.6107 94.0469 15.152C94.3029 14.6933 94.4309 14.16 94.4309 13.552Z" fill="#002366"/>
</svg>
