<svg width="38" height="60" viewBox="0 0 38 60" fill="none" xmlns="http://www.w3.org/2000/svg">
<path d="M18.9987 43.3332V39.3332H25.6654V32.6665H29.6654V43.3332H18.9987ZM8.33203 27.3332V16.6665H18.9987V20.6665H12.332V27.3332H8.33203ZM5.66536 59.3332C4.1987 59.3332 2.94314 58.811 1.8987 57.7665C0.854253 56.7221 0.332031 55.4665 0.332031 53.9998V5.99984C0.332031 4.53317 0.854253 3.27762 1.8987 2.23317C2.94314 1.18873 4.1987 0.666504 5.66536 0.666504H32.332C33.7987 0.666504 35.0543 1.18873 36.0987 2.23317C37.1431 3.27762 37.6654 4.53317 37.6654 5.99984V53.9998C37.6654 55.4665 37.1431 56.7221 36.0987 57.7665C35.0543 58.811 33.7987 59.3332 32.332 59.3332H5.66536ZM5.66536 45.9998H32.332V13.9998H5.66536V45.9998Z" fill="white"/>
</svg>
