<?xml version="1.0" encoding="utf-8"?>
<!-- Generator: Adobe Illustrator 24.0.1, SVG Export Plug-In . SVG Version: 6.00 Build 0)  -->
<svg version="1.1" id="Layer_1" xmlns="http://www.w3.org/2000/svg" xmlns:xlink="http://www.w3.org/1999/xlink" x="0px" y="0px"
	 viewBox="0 0 98.2 24" style="enable-background:new 0 0 98.2 24;" xml:space="preserve">
<style type="text/css">
	.st0{display:none;}
	.st1{display:inline;fill:#0057FF;}
	.st2{fill:none;stroke:#0057FF;stroke-width:1.5;}
	.st3{fill:#0057FF;}
</style>
<g class="st0">
	<path class="st1" d="M35.7,6.8h-3.7v11.5h1.7v-4.7h2c1.3,0,2.4-0.3,3-1c0.7-0.6,1-1.5,1-2.4c0-1-0.3-1.8-1-2.5
		C38,7.2,37,6.8,35.7,6.8z M33.6,8.3h2c1.5,0,2.3,0.6,2.3,2c0,0.6-0.2,1.1-0.5,1.4c-0.4,0.3-0.9,0.5-1.7,0.5h-2V8.3z"/>
	<path class="st1" d="M48.2,10.5c-0.3-0.4-0.6-0.7-1.1-0.9c-0.6-0.3-1.3-0.5-2.1-0.5c-0.8,0-1.5,0.2-2.2,0.6
		c-0.7,0.4-1.2,0.9-1.6,1.6c-0.4,0.7-0.6,1.5-0.6,2.4c0,0.9,0.2,1.7,0.6,2.4c0.4,0.7,0.9,1.3,1.5,1.7c0.6,0.4,1.4,0.6,2.2,0.6
		c0.8,0,1.5-0.2,2.1-0.5c0.5-0.3,0.8-0.6,1.1-1v1.3h1.7V9.2h-1.7V10.5z M45.3,16.9c-0.5,0-1-0.1-1.4-0.4c-0.4-0.2-0.8-0.6-1-1.1
		c-0.3-0.5-0.4-1.1-0.4-1.7c0-0.6,0.1-1.2,0.4-1.7c0.3-0.5,0.6-0.8,1-1.1c0.4-0.2,0.9-0.4,1.4-0.4c0.5,0,1,0.1,1.4,0.4
		c0.4,0.3,0.8,0.6,1,1.1c0.3,0.5,0.4,1,0.4,1.7S48,15,47.8,15.4c-0.3,0.5-0.6,0.8-1,1.1C46.3,16.8,45.8,16.9,45.3,16.9z"/>
	<polygon class="st1" points="55.6,16.2 53,9.3 52.9,9.2 51,9.2 54.6,18.1 52.9,22.3 52.8,22.5 54.6,22.5 60,9.4 60.1,9.2 58.3,9.2 
			"/>
	<path class="st1" d="M73.8,9.5c-0.6-0.3-1.2-0.4-1.9-0.4c-0.7,0-1.4,0.2-2,0.5c-0.5,0.3-0.9,0.7-1.2,1.3c-0.3-0.5-0.7-1-1.2-1.3
		c-0.6-0.3-1.3-0.5-2-0.5c-0.6,0-1.2,0.1-1.7,0.4c-0.4,0.2-0.7,0.5-1,0.8v-1h-1.7v9.1h1.7v-5c0-0.9,0.2-1.6,0.6-2
		c0.4-0.5,1-0.7,1.7-0.7c0.7,0,1.3,0.2,1.7,0.7c0.4,0.4,0.6,1.1,0.6,1.9v5.1h1.7v-5c0-0.9,0.2-1.6,0.6-2c0.4-0.5,1-0.7,1.7-0.7
		c0.7,0,1.3,0.2,1.7,0.7c0.4,0.4,0.6,1.1,0.6,1.9v5.1h1.7V13c0-0.8-0.2-1.6-0.5-2.1C74.8,10.3,74.4,9.8,73.8,9.5z"/>
	<path class="st1" d="M84,9.7c-0.7-0.4-1.4-0.6-2.3-0.6c-0.9,0-1.7,0.2-2.3,0.6c-0.7,0.4-1.2,0.9-1.6,1.6c-0.4,0.7-0.6,1.5-0.6,2.5
		c0,0.9,0.2,1.8,0.6,2.5c0.4,0.7,0.9,1.3,1.6,1.7c0.7,0.4,1.5,0.6,2.3,0.6c1.1,0,2-0.3,2.7-0.8s1.2-1.3,1.5-2.1l0-0.2h-1.8l0,0.1
		c-0.2,0.5-0.4,0.8-0.8,1.1c-0.4,0.3-0.9,0.4-1.5,0.4c-0.7,0-1.4-0.2-1.9-0.7c-0.5-0.4-0.8-1-0.8-1.8h7l0-0.1c0-0.3,0-0.6,0-0.9
		c0-0.8-0.2-1.6-0.5-2.2C85.2,10.6,84.7,10,84,9.7z M81.7,10.6c0.5,0,0.9,0.1,1.4,0.3c0.4,0.2,0.7,0.5,1,0.9
		c0.2,0.4,0.3,0.8,0.3,1.3H79c0.1-0.7,0.4-1.3,0.8-1.7C80.4,10.8,81,10.6,81.7,10.6z"/>
	<path class="st1" d="M92.2,9.1c-0.6,0-1.2,0.1-1.7,0.4c-0.4,0.2-0.7,0.5-1,0.8v-1h-1.7v9.1h1.7v-5c0-0.9,0.2-1.6,0.7-2
		c0.4-0.5,1-0.7,1.8-0.7c0.7,0,1.3,0.2,1.7,0.7c0.4,0.4,0.6,1.1,0.6,1.9v5.1h1.7V13c0-1.3-0.3-2.2-1-2.9C94.2,9.4,93.3,9.1,92.2,9.1
		z"/>
	<path class="st1" d="M102.4,10.7V9.2h-2.3V7h-1.7v2.2h-1.1v1.5h1.1v5.1c0,0.9,0.2,1.5,0.7,1.9c0.4,0.4,1.1,0.6,1.9,0.6h1.4v-1.5
		h-1.2c-0.4,0-0.7-0.1-0.9-0.2c-0.2-0.2-0.2-0.4-0.2-0.8v-5.1H102.4z"/>
</g>
<g>
	<circle class="st2" cx="12.9" cy="12" r="11.3"/>
	<circle class="st3" cx="12.9" cy="12" r="8"/>
	<g>
		<path class="st3" d="M37.9,13.5h4.4c-0.1,1-0.5,1.8-1.2,2.4c-0.7,0.6-1.5,0.9-2.6,0.9c-0.8,0-1.4-0.2-2-0.5
			c-0.6-0.3-1.1-0.8-1.4-1.5c-0.3-0.6-0.5-1.4-0.5-2.2c0-0.8,0.2-1.6,0.5-2.2c0.3-0.6,0.8-1.1,1.4-1.5c0.6-0.3,1.3-0.5,2-0.5
			c0.7,0,1.4,0.2,2,0.5c0.6,0.3,1,0.8,1.3,1.5l0,0.1h2l-0.1-0.2c-0.4-1.1-1.1-1.9-2-2.5c-0.9-0.6-2-0.9-3.2-0.9
			c-1.1,0-2,0.3-2.9,0.7c-0.9,0.5-1.6,1.2-2.1,2.1c-0.5,0.9-0.8,1.9-0.8,3c0,1.1,0.3,2.1,0.8,3c0.5,0.9,1.2,1.6,2.1,2.1
			c0.9,0.5,1.8,0.7,2.9,0.7c1,0,1.9-0.2,2.7-0.7c0.8-0.5,1.5-1.1,2-1.9c0.5-0.8,0.8-1.6,0.9-2.6v-1.3h-6.3V13.5z"/>
		<path class="st3" d="M52,9.7c-0.7-0.4-1.4-0.6-2.3-0.6c-0.9,0-1.7,0.2-2.3,0.6c-0.7,0.4-1.2,0.9-1.6,1.6c-0.4,0.7-0.6,1.5-0.6,2.4
			c0,0.9,0.2,1.8,0.6,2.5c0.4,0.7,0.9,1.3,1.6,1.6c0.7,0.4,1.4,0.6,2.3,0.6c1.1,0,2-0.3,2.7-0.8s1.2-1.3,1.5-2.1l0-0.2h-1.8l0,0.1
			c-0.2,0.5-0.4,0.8-0.8,1.1c-0.4,0.3-0.9,0.4-1.5,0.4c-0.7,0-1.4-0.2-1.9-0.7c-0.5-0.4-0.8-1-0.8-1.8h7l0-0.1c0-0.3,0-0.6,0-0.9
			c0-0.8-0.2-1.6-0.5-2.2C53.2,10.6,52.7,10.1,52,9.7z M49.7,10.7c0.5,0,0.9,0.1,1.3,0.3c0.4,0.2,0.7,0.5,0.9,0.9
			c0.2,0.3,0.3,0.8,0.3,1.2H47c0.1-0.7,0.4-1.3,0.8-1.7C48.4,10.9,49,10.7,49.7,10.7z"/>
		<path class="st3" d="M57.8,7.1H56v2.2h-1.1v1.5H56v5c0,0.9,0.2,1.5,0.7,1.9c0.4,0.4,1.1,0.6,1.9,0.6h1.4v-1.5h-1.2
			c-0.4,0-0.7-0.1-0.8-0.2c-0.2-0.1-0.2-0.4-0.2-0.8v-5h2.3V9.3h-2.3V7.1z"/>
		<path class="st3" d="M69.2,7L65,18.3h1.8l0.9-2.5h4.7l0.9,2.5h1.8L71.1,7H69.2z M71.9,14.4h-3.6l1.8-5.1L71.9,14.4z"/>
		<path class="st3" d="M83.7,9.7c-0.7-0.4-1.4-0.6-2.2-0.6c-0.8,0-1.5,0.2-2.1,0.5c-0.4,0.3-0.8,0.6-1.1,0.9V9.3h-1.7v13.2h1.7V17
			c0.3,0.4,0.7,0.7,1.1,0.9c0.6,0.3,1.3,0.5,2,0.5c0.8,0,1.5-0.2,2.2-0.6c0.7-0.4,1.2-1,1.5-1.7c0.4-0.7,0.6-1.5,0.6-2.4
			c0-0.9-0.2-1.7-0.6-2.4C84.8,10.7,84.3,10.1,83.7,9.7z M81.2,10.7c0.5,0,1,0.1,1.4,0.4c0.4,0.2,0.8,0.6,1,1.1
			c0.3,0.5,0.4,1,0.4,1.7c0,0.6-0.1,1.2-0.4,1.7c-0.3,0.5-0.6,0.8-1,1.1c-0.4,0.2-0.9,0.4-1.4,0.4c-0.5,0-1-0.1-1.4-0.4
			c-0.4-0.2-0.8-0.6-1-1.1c-0.3-0.5-0.4-1-0.4-1.7c0-0.6,0.1-1.2,0.4-1.7c0.3-0.5,0.6-0.8,1-1.1C80.2,10.8,80.7,10.7,81.2,10.7z"/>
		<path class="st3" d="M96,11.4c-0.4-0.7-0.9-1.2-1.5-1.6c-0.7-0.4-1.4-0.6-2.2-0.6c-0.8,0-1.5,0.2-2.1,0.5
			c-0.4,0.3-0.8,0.6-1.1,0.9V9.3h-1.7v13.2h1.7V17c0.3,0.4,0.7,0.7,1.1,0.9c0.6,0.3,1.3,0.5,2,0.5c0.8,0,1.5-0.2,2.2-0.6
			c0.7-0.4,1.2-1,1.5-1.7c0.4-0.7,0.6-1.5,0.6-2.4C96.6,12.9,96.4,12.1,96,11.4z M92,10.7c0.5,0,1,0.1,1.4,0.4
			c0.4,0.2,0.8,0.6,1,1.1c0.3,0.5,0.4,1,0.4,1.7c0,0.6-0.1,1.2-0.4,1.7c-0.3,0.5-0.6,0.8-1,1.1c-0.4,0.2-0.9,0.4-1.4,0.4
			c-0.5,0-1-0.1-1.4-0.4c-0.4-0.2-0.8-0.6-1-1.1c-0.3-0.5-0.4-1-0.4-1.7c0-0.6,0.1-1.2,0.4-1.7c0.3-0.5,0.6-0.8,1-1.1
			C91,10.8,91.5,10.7,92,10.7z"/>
	</g>
</g>
</svg>
