<svg width="105" height="24" viewBox="0 0 105 24" fill="none" xmlns="http://www.w3.org/2000/svg">
<circle cx="12" cy="12" r="11.25" stroke="#0057FF" stroke-width="1.5"/>
<circle cx="12" cy="12" r="8" fill="#0057FF"/>
<path d="M40.976 10.192C40.976 10.7573 40.8427 11.2907 40.576 11.792C40.3093 12.2933 39.8827 12.704 39.296 13.024C38.7093 13.3333 37.9573 13.488 37.04 13.488H35.024V18H33.2V6.88H37.04C37.8933 6.88 38.6133 7.02933 39.2 7.328C39.7973 7.616 40.24 8.01067 40.528 8.512C40.8267 9.01333 40.976 9.57333 40.976 10.192ZM37.04 12C37.7333 12 38.2507 11.8453 38.592 11.536C38.9333 11.216 39.104 10.768 39.104 10.192C39.104 8.976 38.416 8.368 37.04 8.368H35.024V12H37.04ZM42.1076 13.552C42.1076 12.6667 42.289 11.8827 42.6516 11.2C43.025 10.5173 43.5263 9.98933 44.1556 9.616C44.7956 9.232 45.4996 9.04 46.2676 9.04C46.961 9.04 47.5636 9.17867 48.0756 9.456C48.5983 9.72267 49.0143 10.0587 49.3236 10.464V9.184H51.1636V18H49.3236V16.688C49.0143 17.104 48.593 17.4507 48.0596 17.728C47.5263 18.0053 46.9183 18.144 46.2356 18.144C45.4783 18.144 44.785 17.952 44.1556 17.568C43.5263 17.1733 43.025 16.6293 42.6516 15.936C42.289 15.232 42.1076 14.4373 42.1076 13.552ZM49.3236 13.584C49.3236 12.976 49.1956 12.448 48.9396 12C48.6943 11.552 48.369 11.2107 47.9636 10.976C47.5583 10.7413 47.121 10.624 46.6516 10.624C46.1823 10.624 45.745 10.7413 45.3396 10.976C44.9343 11.2 44.6036 11.536 44.3476 11.984C44.1023 12.4213 43.9796 12.944 43.9796 13.552C43.9796 14.16 44.1023 14.6933 44.3476 15.152C44.6036 15.6107 44.9343 15.9627 45.3396 16.208C45.7556 16.4427 46.193 16.56 46.6516 16.56C47.121 16.56 47.5583 16.4427 47.9636 16.208C48.369 15.9733 48.6943 15.632 48.9396 15.184C49.1956 14.7253 49.3236 14.192 49.3236 13.584ZM61.4954 9.184L56.0874 22.144H54.1994L55.9914 17.856L52.5194 9.184H54.5514L57.0314 15.904L59.6074 9.184H61.4954ZM73.5439 9.04C74.2372 9.04 74.8559 9.184 75.3999 9.472C75.9545 9.76 76.3865 10.1867 76.6959 10.752C77.0159 11.3173 77.1759 12 77.1759 12.8V18H75.3679V13.072C75.3679 12.2827 75.1705 11.68 74.7759 11.264C74.3812 10.8373 73.8425 10.624 73.1599 10.624C72.4772 10.624 71.9332 10.8373 71.5279 11.264C71.1332 11.68 70.9359 12.2827 70.9359 13.072V18H69.1279V13.072C69.1279 12.2827 68.9305 11.68 68.5359 11.264C68.1412 10.8373 67.6025 10.624 66.9199 10.624C66.2372 10.624 65.6932 10.8373 65.2879 11.264C64.8932 11.68 64.6959 12.2827 64.6959 13.072V18H62.8719V9.184H64.6959V10.192C64.9945 9.82933 65.3732 9.54667 65.8319 9.344C66.2905 9.14133 66.7812 9.04 67.3039 9.04C68.0079 9.04 68.6372 9.18933 69.1919 9.488C69.7465 9.78667 70.1732 10.2187 70.4719 10.784C70.7385 10.2507 71.1545 9.82933 71.7199 9.52C72.2852 9.2 72.8932 9.04 73.5439 9.04ZM87.5769 13.376C87.5769 13.7067 87.5555 14.0053 87.5129 14.272H80.7769C80.8302 14.976 81.0915 15.5413 81.5609 15.968C82.0302 16.3947 82.6062 16.608 83.2889 16.608C84.2702 16.608 84.9635 16.1973 85.3689 15.376H87.3369C87.0702 16.1867 86.5849 16.8533 85.8809 17.376C85.1875 17.888 84.3235 18.144 83.2889 18.144C82.4462 18.144 81.6889 17.9573 81.0169 17.584C80.3555 17.2 79.8329 16.6667 79.4489 15.984C79.0755 15.2907 78.8889 14.4907 78.8889 13.584C78.8889 12.6773 79.0702 11.8827 79.4329 11.2C79.8062 10.5067 80.3235 9.97333 80.9849 9.6C81.6569 9.22667 82.4249 9.04 83.2889 9.04C84.1209 9.04 84.8622 9.22133 85.5129 9.584C86.1635 9.94667 86.6702 10.4587 87.0329 11.12C87.3955 11.7707 87.5769 12.5227 87.5769 13.376ZM85.6729 12.8C85.6622 12.128 85.4222 11.5893 84.9529 11.184C84.4835 10.7787 83.9022 10.576 83.2089 10.576C82.5795 10.576 82.0409 10.7787 81.5929 11.184C81.1449 11.5787 80.8782 12.1173 80.7929 12.8H85.6729ZM93.8199 9.04C94.5132 9.04 95.1319 9.184 95.6759 9.472C96.2305 9.76 96.6625 10.1867 96.9719 10.752C97.2812 11.3173 97.4359 12 97.4359 12.8V18H95.6279V13.072C95.6279 12.2827 95.4305 11.68 95.0359 11.264C94.6412 10.8373 94.1025 10.624 93.4199 10.624C92.7372 10.624 92.1932 10.8373 91.7879 11.264C91.3932 11.68 91.1959 12.2827 91.1959 13.072V18H89.3719V9.184H91.1959V10.192C91.4945 9.82933 91.8732 9.54667 92.3319 9.344C92.8012 9.14133 93.2972 9.04 93.8199 9.04ZM101.891 10.672V15.552C101.891 15.8827 101.965 16.1227 102.115 16.272C102.275 16.4107 102.541 16.48 102.915 16.48H104.035V18H102.595C101.773 18 101.144 17.808 100.707 17.424C100.269 17.04 100.051 16.416 100.051 15.552V10.672H99.0105V9.184H100.051V6.992H101.891V9.184H104.035V10.672H101.891Z" fill="#0057FF"/>
</svg>
