<svg width="89" height="24" viewBox="0 0 89 24" fill="none" xmlns="http://www.w3.org/2000/svg">
<circle cx="12" cy="12" r="11.25" stroke="#0057FF" stroke-width="1.5"/>
<circle cx="12" cy="12" r="8" fill="#0057FF"/>
<path d="M40.384 6.88V8.368H37.424V18H35.6V8.368H32.624V6.88H40.384ZM43.1593 8.016C42.8286 8.016 42.5513 7.904 42.3273 7.68C42.1033 7.456 41.9913 7.17867 41.9913 6.848C41.9913 6.51733 42.1033 6.24 42.3273 6.016C42.5513 5.792 42.8286 5.68 43.1593 5.68C43.4793 5.68 43.7513 5.792 43.9753 6.016C44.1993 6.24 44.3113 6.51733 44.3113 6.848C44.3113 7.17867 44.1993 7.456 43.9753 7.68C43.7513 7.904 43.4793 8.016 43.1593 8.016ZM44.0553 9.184V18H42.2313V9.184H44.0553ZM45.842 13.584C45.842 12.6773 46.0233 11.8827 46.386 11.2C46.7593 10.5067 47.2713 9.97333 47.922 9.6C48.5727 9.22667 49.3193 9.04 50.162 9.04C51.2287 9.04 52.1087 9.296 52.802 9.808C53.506 10.3093 53.9807 11.0293 54.226 11.968H52.258C52.098 11.5307 51.842 11.1893 51.49 10.944C51.138 10.6987 50.6953 10.576 50.162 10.576C49.4153 10.576 48.818 10.8427 48.37 11.376C47.9327 11.8987 47.714 12.6347 47.714 13.584C47.714 14.5333 47.9327 15.2747 48.37 15.808C48.818 16.3413 49.4153 16.608 50.162 16.608C51.218 16.608 51.9167 16.144 52.258 15.216H54.226C53.97 16.112 53.49 16.8267 52.786 17.36C52.082 17.8827 51.2073 18.144 50.162 18.144C49.3193 18.144 48.5727 17.9573 47.922 17.584C47.2713 17.2 46.7593 16.6667 46.386 15.984C46.0233 15.2907 45.842 14.4907 45.842 13.584ZM59.5318 13.6L63.5958 18H61.1318L57.8678 14.208V18H56.0438V6.16H57.8678V13.04L61.0678 9.184H63.5958L59.5318 13.6ZM72.9831 13.376C72.9831 13.7067 72.9618 14.0053 72.9191 14.272H66.1831C66.2365 14.976 66.4978 15.5413 66.9671 15.968C67.4365 16.3947 68.0125 16.608 68.6951 16.608C69.6765 16.608 70.3698 16.1973 70.7751 15.376H72.7431C72.4765 16.1867 71.9911 16.8533 71.2871 17.376C70.5938 17.888 69.7298 18.144 68.6951 18.144C67.8525 18.144 67.0951 17.9573 66.4231 17.584C65.7618 17.2 65.2391 16.6667 64.8551 15.984C64.4818 15.2907 64.2951 14.4907 64.2951 13.584C64.2951 12.6773 64.4765 11.8827 64.8391 11.2C65.2125 10.5067 65.7298 9.97333 66.3911 9.6C67.0631 9.22667 67.8311 9.04 68.6951 9.04C69.5271 9.04 70.2685 9.22133 70.9191 9.584C71.5698 9.94667 72.0765 10.4587 72.4391 11.12C72.8018 11.7707 72.9831 12.5227 72.9831 13.376ZM71.0791 12.8C71.0685 12.128 70.8285 11.5893 70.3591 11.184C69.8898 10.7787 69.3085 10.576 68.6151 10.576C67.9858 10.576 67.4471 10.7787 66.9991 11.184C66.5511 11.5787 66.2845 12.1173 66.1991 12.8H71.0791ZM76.9061 10.672V15.552C76.9061 15.8827 76.9808 16.1227 77.1301 16.272C77.2901 16.4107 77.5568 16.48 77.9301 16.48H79.0501V18H77.6101C76.7888 18 76.1595 17.808 75.7221 17.424C75.2848 17.04 75.0661 16.416 75.0661 15.552V10.672H74.0261V9.184H75.0661V6.992H76.9061V9.184H79.0501V10.672H76.9061ZM83.9313 18.144C83.2379 18.144 82.6139 18.0213 82.0593 17.776C81.5153 17.52 81.0833 17.1787 80.7633 16.752C80.4433 16.3147 80.2726 15.8293 80.2513 15.296H82.1393C82.1713 15.6693 82.3473 15.984 82.6673 16.24C82.9979 16.4853 83.4086 16.608 83.8993 16.608C84.4113 16.608 84.8059 16.512 85.0833 16.32C85.3713 16.1173 85.5153 15.8613 85.5153 15.552C85.5153 15.2213 85.3553 14.976 85.0353 14.816C84.7259 14.656 84.2299 14.48 83.5473 14.288C82.8859 14.1067 82.3473 13.9307 81.9313 13.76C81.5153 13.5893 81.1526 13.328 80.8433 12.976C80.5446 12.624 80.3953 12.16 80.3953 11.584C80.3953 11.1147 80.5339 10.688 80.8113 10.304C81.0886 9.90933 81.4833 9.6 81.9953 9.376C82.5179 9.152 83.1153 9.04 83.7873 9.04C84.7899 9.04 85.5953 9.296 86.2033 9.808C86.8219 10.3093 87.1526 10.9973 87.1953 11.872H85.3713C85.3393 11.4773 85.1793 11.1627 84.8913 10.928C84.6033 10.6933 84.2139 10.576 83.7233 10.576C83.2433 10.576 82.8753 10.6667 82.6193 10.848C82.3633 11.0293 82.2353 11.2693 82.2353 11.568C82.2353 11.8027 82.3206 12 82.4913 12.16C82.6619 12.32 82.8699 12.448 83.1153 12.544C83.3606 12.6293 83.7233 12.7413 84.2033 12.88C84.8433 13.0507 85.3659 13.2267 85.7713 13.408C86.1873 13.5787 86.5446 13.8347 86.8433 14.176C87.1419 14.5173 87.2966 14.9707 87.3073 15.536C87.3073 16.0373 87.1686 16.4853 86.8913 16.88C86.6139 17.2747 86.2193 17.584 85.7073 17.808C85.2059 18.032 84.6139 18.144 83.9313 18.144Z" fill="#0057FF"/>
</svg>
