<svg width="24" height="28" viewBox="0 0 24 28" fill="none" xmlns="http://www.w3.org/2000/svg">
<path d="M12 16.6665C11.6222 16.6665 11.3056 16.5387 11.05 16.2832C10.7944 16.0276 10.6667 15.7109 10.6667 15.3332C10.6667 14.9554 10.7944 14.6387 11.05 14.3832C11.3056 14.1276 11.6222 13.9998 12 13.9998C12.3778 13.9998 12.6944 14.1276 12.95 14.3832C13.2056 14.6387 13.3333 14.9554 13.3333 15.3332C13.3333 15.7109 13.2056 16.0276 12.95 16.2832C12.6944 16.5387 12.3778 16.6665 12 16.6665ZM6.66667 16.6665C6.28889 16.6665 5.97222 16.5387 5.71667 16.2832C5.46111 16.0276 5.33333 15.7109 5.33333 15.3332C5.33333 14.9554 5.46111 14.6387 5.71667 14.3832C5.97222 14.1276 6.28889 13.9998 6.66667 13.9998C7.04444 13.9998 7.36111 14.1276 7.61667 14.3832C7.87222 14.6387 8 14.9554 8 15.3332C8 15.7109 7.87222 16.0276 7.61667 16.2832C7.36111 16.5387 7.04444 16.6665 6.66667 16.6665ZM17.3333 16.6665C16.9556 16.6665 16.6389 16.5387 16.3833 16.2832C16.1278 16.0276 16 15.7109 16 15.3332C16 14.9554 16.1278 14.6387 16.3833 14.3832C16.6389 14.1276 16.9556 13.9998 17.3333 13.9998C17.7111 13.9998 18.0278 14.1276 18.2833 14.3832C18.5389 14.6387 18.6667 14.9554 18.6667 15.3332C18.6667 15.7109 18.5389 16.0276 18.2833 16.2832C18.0278 16.5387 17.7111 16.6665 17.3333 16.6665ZM12 21.9998C11.6222 21.9998 11.3056 21.8721 11.05 21.6165C10.7944 21.3609 10.6667 21.0443 10.6667 20.6665C10.6667 20.2887 10.7944 19.9721 11.05 19.7165C11.3056 19.4609 11.6222 19.3332 12 19.3332C12.3778 19.3332 12.6944 19.4609 12.95 19.7165C13.2056 19.9721 13.3333 20.2887 13.3333 20.6665C13.3333 21.0443 13.2056 21.3609 12.95 21.6165C12.6944 21.8721 12.3778 21.9998 12 21.9998ZM6.66667 21.9998C6.28889 21.9998 5.97222 21.8721 5.71667 21.6165C5.46111 21.3609 5.33333 21.0443 5.33333 20.6665C5.33333 20.2887 5.46111 19.9721 5.71667 19.7165C5.97222 19.4609 6.28889 19.3332 6.66667 19.3332C7.04444 19.3332 7.36111 19.4609 7.61667 19.7165C7.87222 19.9721 8 20.2887 8 20.6665C8 21.0443 7.87222 21.3609 7.61667 21.6165C7.36111 21.8721 7.04444 21.9998 6.66667 21.9998ZM17.3333 21.9998C16.9556 21.9998 16.6389 21.8721 16.3833 21.6165C16.1278 21.3609 16 21.0443 16 20.6665C16 20.2887 16.1278 19.9721 16.3833 19.7165C16.6389 19.4609 16.9556 19.3332 17.3333 19.3332C17.7111 19.3332 18.0278 19.4609 18.2833 19.7165C18.5389 19.9721 18.6667 20.2887 18.6667 20.6665C18.6667 21.0443 18.5389 21.3609 18.2833 21.6165C18.0278 21.8721 17.7111 21.9998 17.3333 21.9998ZM2.66667 27.3332C1.93333 27.3332 1.30556 27.0721 0.783333 26.5498C0.261111 26.0276 0 25.3998 0 24.6665V5.99984C0 5.2665 0.261111 4.63873 0.783333 4.1165C1.30556 3.59428 1.93333 3.33317 2.66667 3.33317H4V0.666504H6.66667V3.33317H17.3333V0.666504H20V3.33317H21.3333C22.0667 3.33317 22.6944 3.59428 23.2167 4.1165C23.7389 4.63873 24 5.2665 24 5.99984V24.6665C24 25.3998 23.7389 26.0276 23.2167 26.5498C22.6944 27.0721 22.0667 27.3332 21.3333 27.3332H2.66667ZM2.66667 24.6665H21.3333V11.3332H2.66667V24.6665Z" fill="#0057FF"/>
</svg>
