<svg width="64" height="64" viewBox="0 0 64 64" fill="none" xmlns="http://www.w3.org/2000/svg">
<path d="M58.0531 5.94668C57.2531 5.14668 55.9464 5.14668 55.1464 5.94668L5.94644 55.1734C5.14644 55.9734 5.14644 57.28 5.94644 58.08C6.34644 58.4534 6.8531 58.6667 7.38644 58.6667C7.91977 58.6667 8.42644 58.4534 8.82644 58.0534L58.0531 8.82668C58.8798 8.02668 58.8798 6.74668 58.0531 5.94668Z" fill="#0D2244"/>
<path d="M44.1331 13.6263L42.2131 9.75968C40.9865 7.33301 37.7865 5.33301 35.0665 5.33301H28.9598C26.2131 5.33301 23.0131 7.33301 21.7865 9.75968L19.8665 13.6263C19.1198 15.0663 17.6265 15.9997 15.9998 15.9997C10.2131 15.9997 5.62646 20.8797 5.9998 26.6397L7.38646 48.6663C7.5198 50.933 8.0798 53.0397 9.2798 54.7197L47.9998 15.9997C46.3731 15.9997 44.8798 15.0663 44.1331 13.6263ZM25.3331 28.6663H17.3331C16.2398 28.6663 15.3331 27.7597 15.3331 26.6663C15.3331 25.573 16.2398 24.6663 17.3331 24.6663H25.3331C26.4265 24.6663 27.3331 25.573 27.3331 26.6663C27.3331 27.7597 26.4265 28.6663 25.3331 28.6663Z" fill="#0D2244"/>
<path d="M58.0001 26.6408L56.6135 48.6675C56.2668 54.1608 53.3335 58.6675 45.9735 58.6675H19.7601C17.3868 58.6675 16.1868 55.7875 17.8668 54.1075L24.4535 47.5208C25.2801 46.6941 26.5601 46.5875 27.6001 47.1741C29.4401 48.2141 31.6535 48.6141 34.0001 48.1075C37.3868 47.3875 40.1335 44.6141 40.8001 41.2008C41.2535 38.9075 40.8535 36.7475 39.8401 34.9608C39.2535 33.9208 39.3335 32.6141 40.1868 31.7875L52.1868 19.7875C53.2801 18.6941 55.1201 18.8275 56.0535 20.0808C57.4401 21.8941 58.1601 24.1875 58.0001 26.6408Z" fill="#0D2244"/>
</svg>
