<svg width="24" height="24" viewBox="0 0 24 24" fill="none" xmlns="http://www.w3.org/2000/svg">
<g id="vuesax/bold/cards">
<g id="cards">
<path id="Vector" d="M15.222 6.54932H5.78195C5.50195 6.54932 5.24195 6.55932 5.00195 6.56932C2.63195 6.70932 2.00195 7.57932 2.00195 10.2793V10.8593C2.00195 11.4093 2.45195 11.8593 3.00195 11.8593H18.002C18.552 11.8593 19.002 11.4093 19.002 10.8593V10.2793C19.002 7.29932 18.242 6.54932 15.222 6.54932Z" fill="#767676"/>
<path id="Vector_2" d="M3.00195 13.3594C2.45195 13.3594 2.00195 13.8094 2.00195 14.3594V17.2694C2.00195 20.2494 2.76195 20.9994 5.78195 20.9994H15.222C18.192 20.9994 18.972 20.2794 19.002 17.4294V14.3594C19.002 13.8094 18.552 13.3594 18.002 13.3594H3.00195ZM6.96195 18.5594H5.25195C4.84195 18.5594 4.50195 18.2194 4.50195 17.8094C4.50195 17.3994 4.84195 17.0594 5.25195 17.0594H6.97195C7.38195 17.0594 7.72195 17.3994 7.72195 17.8094C7.72195 18.2194 7.38195 18.5594 6.96195 18.5594ZM12.552 18.5594H9.11195C8.70195 18.5594 8.36195 18.2194 8.36195 17.8094C8.36195 17.3994 8.70195 17.0594 9.11195 17.0594H12.552C12.962 17.0594 13.302 17.3994 13.302 17.8094C13.302 18.2194 12.972 18.5594 12.552 18.5594Z" fill="#767676"/>
<path id="Vector_3" d="M22.0016 13.3296V8.08961C22.0016 4.95961 20.2116 3.59961 17.5116 3.59961H8.58157C7.82157 3.59961 7.14157 3.70961 6.54157 3.93961C6.07157 4.10961 5.65157 4.35961 5.31157 4.68961C5.13157 4.85961 5.27157 5.13961 5.53157 5.13961H16.4016C18.6516 5.13961 20.4716 6.95961 20.4716 9.20961V16.3796C20.4716 16.6296 20.7416 16.7696 20.9216 16.5896C21.6116 15.8596 22.0016 14.7896 22.0016 13.3296Z" fill="#767676"/>
</g>
</g>
</svg>
