<svg width="40" height="40" viewBox="0 0 40 40" fill="none" xmlns="http://www.w3.org/2000/svg">
<path d="M22.0031 18.0002V0.200195C26.7698 0.700195 30.7948 2.6002 34.0781 5.9002C37.3615 9.2002 39.2698 13.2335 39.8031 18.0002H22.0031ZM18.0531 39.7502C12.9865 39.2502 8.74479 37.1169 5.32813 33.3502C1.91146 29.5835 0.203125 25.1335 0.203125 20.0002C0.203125 14.8335 1.91146 10.3669 5.32813 6.6002C8.74479 2.83353 12.9865 0.700195 18.0531 0.200195V39.7502ZM22.0031 39.7502V21.9502H39.8031C39.3365 26.7169 37.4448 30.7585 34.1281 34.0752C30.8115 37.3919 26.7698 39.2835 22.0031 39.7502Z" fill="#0057FF"/>
</svg>
