<svg width="50" height="50" viewBox="0 0 50 50" fill="none" xmlns="http://www.w3.org/2000/svg">
<path d="M18.7498 25L22.9165 29.1667L32.2915 19.7917M37.294 10.4136C37.723 11.4511 38.5464 12.2759 39.5833 12.7064L43.2191 14.2125C44.2567 14.6423 45.081 15.4667 45.5108 16.5043C45.9406 17.5419 45.9406 18.7078 45.5108 19.7455L44.0059 23.3788C43.5759 24.4169 43.5753 25.5839 44.0073 26.6215L45.5096 30.2538C45.7226 30.7677 45.8323 31.3186 45.8324 31.8749C45.8325 32.4313 45.723 32.9822 45.5101 33.4962C45.2972 34.0102 44.9851 34.4772 44.5917 34.8705C44.1982 35.2638 43.7311 35.5758 43.2171 35.7885L39.5839 37.2935C38.5464 37.7225 37.7217 38.546 37.2911 39.5829L35.7851 43.2188C35.3554 44.2564 34.531 45.0808 33.4934 45.5106C32.4558 45.9405 31.29 45.9405 30.2524 45.5107L26.6192 44.0057C25.5816 43.5769 24.4161 43.5778 23.3792 44.0081L19.7434 45.512C18.7063 45.9408 17.5415 45.9405 16.5048 45.511C15.468 45.0815 14.6441 44.2581 14.214 43.2216L12.7076 39.5846C12.2786 38.547 11.4551 37.7223 10.4183 37.2917L6.78247 35.7857C5.74533 35.3561 4.9212 34.5322 4.49126 33.4952C4.06131 32.4581 4.06073 31.2928 4.48964 30.2553L5.99455 26.622C6.42328 25.5843 6.42241 24.4189 5.99212 23.3819L4.48936 19.7433C4.2763 19.2294 4.16659 18.6785 4.1665 18.1222C4.16641 17.5658 4.27595 17.0149 4.48884 16.5009C4.70174 15.9869 5.01383 15.5199 5.40727 15.1266C5.80071 14.7333 6.2678 14.4213 6.78185 14.2086L10.415 12.7036C11.4517 12.275 12.2758 11.4525 12.7067 10.4168L14.2127 6.78087C14.6425 5.74324 15.4669 4.91884 16.5045 4.48904C17.5421 4.05924 18.7079 4.05924 19.7455 4.48904L23.3787 5.99401C24.4163 6.42276 25.5817 6.42188 26.6187 5.99158L30.256 4.49137C31.2935 4.06181 32.4591 4.0619 33.4965 4.49162C34.5339 4.92133 35.3581 5.7455 35.788 6.78286L37.2944 10.4199L37.294 10.4136Z" stroke="black" stroke-width="2" stroke-linecap="round" stroke-linejoin="round"/>
</svg>
