<svg width="32" height="32" viewBox="0 0 32 32" fill="none" xmlns="http://www.w3.org/2000/svg">
<path d="M16.0008 29.3333C14.3341 29.3333 12.773 29.0166 11.3174 28.3833C9.86189 27.75 8.59523 26.8944 7.51745 25.8166C6.43967 24.7389 5.58411 23.4722 4.95078 22.0166C4.31745 20.5611 4.00078 19 4.00078 17.3333C4.00078 15.6666 4.31745 14.1055 4.95078 12.65C5.58411 11.1944 6.43967 9.92774 7.51745 8.84997C8.59523 7.77219 9.86189 6.91663 11.3174 6.2833C12.773 5.64997 14.3341 5.3333 16.0008 5.3333C17.6674 5.3333 19.2286 5.64997 20.6841 6.2833C22.1397 6.91663 23.4063 7.77219 24.4841 8.84997C25.5619 9.92774 26.4174 11.1944 27.0508 12.65C27.6841 14.1055 28.0008 15.6666 28.0008 17.3333C28.0008 19 27.6841 20.5611 27.0508 22.0166C26.4174 23.4722 25.5619 24.7389 24.4841 25.8166C23.4063 26.8944 22.1397 27.75 20.6841 28.3833C19.2286 29.0166 17.6674 29.3333 16.0008 29.3333ZM19.7341 22.9333L21.6008 21.0666L17.3341 16.8V10.6666H14.6674V17.8666L19.7341 22.9333ZM7.46745 3.1333L9.33412 4.99997L3.66745 10.6666L1.80078 8.79997L7.46745 3.1333ZM24.5341 3.1333L30.2008 8.79997L28.3341 10.6666L22.6674 4.99997L24.5341 3.1333Z" fill="#0057FF"/>
</svg>

