<svg width="28" height="44" viewBox="0 0 28 44" fill="none" xmlns="http://www.w3.org/2000/svg">
<path d="M8 30C7.43333 30 6.95833 29.8083 6.575 29.425C6.19167 29.0417 6 28.5667 6 28V24C6.56667 24 7.04167 23.8083 7.425 23.425C7.80833 23.0417 8 22.5667 8 22C8 21.4333 7.80833 20.9583 7.425 20.575C7.04167 20.1917 6.56667 20 6 20V16C6 15.4333 6.19167 14.9583 6.575 14.575C6.95833 14.1917 7.43333 14 8 14H20C20.5667 14 21.0417 14.1917 21.425 14.575C21.8083 14.9583 22 15.4333 22 16V20C21.4333 20 20.9583 20.1917 20.575 20.575C20.1917 20.9583 20 21.4333 20 22C20 22.5667 20.1917 23.0417 20.575 23.425C20.9583 23.8083 21.4333 24 22 24V28C22 28.5667 21.8083 29.0417 21.425 29.425C21.0417 29.8083 20.5667 30 20 30H8ZM14 27C14.2667 27 14.5 26.9 14.7 26.7C14.9 26.5 15 26.2667 15 26C15 25.7333 14.9 25.5 14.7 25.3C14.5 25.1 14.2667 25 14 25C13.7333 25 13.5 25.1 13.3 25.3C13.1 25.5 13 25.7333 13 26C13 26.2667 13.1 26.5 13.3 26.7C13.5 26.9 13.7333 27 14 27ZM14 23C14.2667 23 14.5 22.9 14.7 22.7C14.9 22.5 15 22.2667 15 22C15 21.7333 14.9 21.5 14.7 21.3C14.5 21.1 14.2667 21 14 21C13.7333 21 13.5 21.1 13.3 21.3C13.1 21.5 13 21.7333 13 22C13 22.2667 13.1 22.5 13.3 22.7C13.5 22.9 13.7333 23 14 23ZM14 19C14.2667 19 14.5 18.9 14.7 18.7C14.9 18.5 15 18.2667 15 18C15 17.7333 14.9 17.5 14.7 17.3C14.5 17.1 14.2667 17 14 17C13.7333 17 13.5 17.1 13.3 17.3C13.1 17.5 13 17.7333 13 18C13 18.2667 13.1 18.5 13.3 18.7C13.5 18.9 13.7333 19 14 19ZM4 44C2.9 44 1.95833 43.6083 1.175 42.825C0.391667 42.0417 0 41.1 0 40V4C0 2.9 0.391667 1.95833 1.175 1.175C1.95833 0.391667 2.9 0 4 0H24C25.1 0 26.0417 0.391667 26.825 1.175C27.6083 1.95833 28 2.9 28 4V40C28 41.1 27.6083 42.0417 26.825 42.825C26.0417 43.6083 25.1 44 24 44H4ZM4 34H24V10H4V34Z" fill="#0057FF"/>
</svg>
