<svg width="32" height="33" viewBox="0 0 32 33" fill="none" xmlns="http://www.w3.org/2000/svg">
<path d="M4 28.75V26.0833H6.66667V7.41667C6.66667 6.68333 6.92778 6.05556 7.45 5.53333C7.97222 5.01111 8.6 4.75 9.33333 4.75H22.6667C23.4 4.75 24.0278 5.01111 24.55 5.53333C25.0722 6.05556 25.3333 6.68333 25.3333 7.41667V26.0833H28V28.75H4ZM20 26.0833H22.6667V7.41667H16.6667V5.95C17.6444 6.12778 18.4444 6.58333 19.0667 7.31667C19.6889 8.05 20 8.90556 20 9.88333V26.0833ZM14.6667 18.0833C15.0444 18.0833 15.3611 17.9556 15.6167 17.7C15.8722 17.4444 16 17.1278 16 16.75C16 16.3722 15.8722 16.0556 15.6167 15.8C15.3611 15.5444 15.0444 15.4167 14.6667 15.4167C14.2889 15.4167 13.9722 15.5444 13.7167 15.8C13.4611 16.0556 13.3333 16.3722 13.3333 16.75C13.3333 17.1278 13.4611 17.4444 13.7167 17.7C13.9722 17.9556 14.2889 18.0833 14.6667 18.0833Z" fill="#0057FF"/>
</svg>
