<svg width="26" height="19" viewBox="0 0 26 19" fill="none" xmlns="http://www.w3.org/2000/svg">
<path d="M13.0013 14.6665C14.4596 14.6665 15.6992 14.1561 16.7201 13.1353C17.7409 12.1144 18.2513 10.8748 18.2513 9.41651C18.2513 7.95817 17.7409 6.71859 16.7201 5.69775C15.6992 4.67692 14.4596 4.1665 13.0013 4.1665C11.543 4.1665 10.3034 4.67692 9.28255 5.69775C8.26172 6.71859 7.7513 7.95817 7.7513 9.41651C7.7513 10.8748 8.26172 12.1144 9.28255 13.1353C10.3034 14.1561 11.543 14.6665 13.0013 14.6665ZM13.0013 12.5665C12.1263 12.5665 11.3826 12.2603 10.7701 11.6478C10.1576 11.0353 9.8513 10.2915 9.8513 9.41651C9.8513 8.5415 10.1576 7.79775 10.7701 7.18525C11.3826 6.57275 12.1263 6.2665 13.0013 6.2665C13.8763 6.2665 14.6201 6.57275 15.2326 7.18525C15.8451 7.79775 16.1513 8.5415 16.1513 9.41651C16.1513 10.2915 15.8451 11.0353 15.2326 11.6478C14.6201 12.2603 13.8763 12.5665 13.0013 12.5665ZM13.0013 18.1665C10.1624 18.1665 7.5763 17.3741 5.24297 15.7894C2.90964 14.2047 1.21797 12.0804 0.167969 9.41651C1.21797 6.75262 2.90964 4.62831 5.24297 3.04359C7.5763 1.45887 10.1624 0.666504 13.0013 0.666504C15.8402 0.666504 18.4263 1.45887 20.7596 3.04359C23.093 4.62831 24.7846 6.75262 25.8346 9.41651C24.7846 12.0804 23.093 14.2047 20.7596 15.7894C18.4263 17.3741 15.8402 18.1665 13.0013 18.1665Z" fill="#097E07"/>
</svg>
