<?xml version="1.0" encoding="utf-8"?>
<!-- Generator: Adobe Illustrator 24.0.1, SVG Export Plug-In . SVG Version: 6.00 Build 0)  -->
<svg version="1.1" id="Layer_1" xmlns="http://www.w3.org/2000/svg" xmlns:xlink="http://www.w3.org/1999/xlink" x="0px" y="0px"
	 viewBox="0 0 105.5 24" style="enable-background:new 0 0 105.5 24;" xml:space="preserve">
<style type="text/css">
	.st0{display:none;}
	.st1{display:inline;fill:#0D873C;}
	.st2{fill:#FFFFFF;}
	.st3{fill:#0D873C;}
</style>
<g class="st0">
	<path class="st1" d="M36.9,13.4h4.4c-0.1,1-0.5,1.8-1.2,2.4c-0.7,0.6-1.5,0.9-2.6,0.9c-0.8,0-1.4-0.2-2-0.5
		c-0.6-0.3-1.1-0.8-1.4-1.5c-0.3-0.6-0.5-1.4-0.5-2.2c0-0.8,0.2-1.6,0.5-2.2c0.3-0.6,0.8-1.1,1.4-1.5c0.6-0.3,1.3-0.5,2-0.5
		c0.7,0,1.4,0.2,2,0.5c0.6,0.3,1,0.8,1.3,1.5l0,0.1h2l-0.1-0.2c-0.4-1.1-1.1-1.9-2-2.5c-0.9-0.6-2-0.9-3.2-0.9c-1.1,0-2,0.3-2.9,0.7
		c-0.9,0.5-1.6,1.2-2.1,2.1c-0.5,0.9-0.8,1.9-0.8,3c0,1.1,0.3,2.1,0.8,3c0.5,0.9,1.2,1.6,2.1,2.1c0.9,0.5,1.8,0.7,2.9,0.7
		c1,0,1.9-0.2,2.7-0.7c0.8-0.5,1.5-1.1,2-1.9c0.5-0.8,0.8-1.6,0.9-2.6v-1.3h-6.3V13.4z"/>
	<path class="st1" d="M51,9.6c-0.7-0.4-1.4-0.6-2.3-0.6c-0.9,0-1.7,0.2-2.3,0.6c-0.7,0.4-1.2,0.9-1.6,1.6c-0.4,0.7-0.6,1.5-0.6,2.4
		c0,0.9,0.2,1.8,0.6,2.5c0.4,0.7,0.9,1.3,1.6,1.6c0.7,0.4,1.4,0.6,2.3,0.6c1.1,0,2-0.3,2.7-0.8s1.2-1.3,1.5-2.1l0-0.2h-1.8l0,0.1
		c-0.2,0.5-0.4,0.8-0.8,1.1c-0.4,0.3-0.9,0.4-1.5,0.4c-0.7,0-1.4-0.2-1.9-0.7c-0.5-0.4-0.8-1-0.8-1.8h7l0-0.1c0-0.3,0-0.6,0-0.9
		c0-0.8-0.2-1.6-0.5-2.2C52.2,10.5,51.6,10,51,9.6z M48.6,10.6c0.5,0,0.9,0.1,1.3,0.3c0.4,0.2,0.7,0.5,0.9,0.9
		c0.2,0.3,0.3,0.8,0.3,1.2H46c0.1-0.7,0.4-1.3,0.8-1.7C47.3,10.8,47.9,10.6,48.6,10.6z"/>
	<path class="st1" d="M56.7,7H55v2.2h-1.1v1.5H55v5c0,0.9,0.2,1.5,0.7,1.9c0.4,0.4,1.1,0.6,1.9,0.6H59v-1.5h-1.2
		c-0.4,0-0.7-0.1-0.8-0.2c-0.2-0.1-0.2-0.4-0.2-0.8v-5H59V9.2h-2.3V7z"/>
	<path class="st1" d="M68.2,6.9L64,18.2h1.8l0.9-2.5h4.7l0.9,2.5h1.8L70,6.9H68.2z M70.9,14.3h-3.6l1.8-5.1L70.9,14.3z"/>
	<path class="st1" d="M82.6,9.6c-0.7-0.4-1.4-0.6-2.2-0.6c-0.8,0-1.5,0.2-2.1,0.5c-0.4,0.3-0.8,0.6-1.1,0.9V9.2h-1.7v13.2h1.7v-5.5
		c0.3,0.4,0.7,0.7,1.1,0.9c0.6,0.3,1.3,0.5,2,0.5c0.8,0,1.5-0.2,2.2-0.6c0.7-0.4,1.2-1,1.5-1.7c0.4-0.7,0.6-1.5,0.6-2.4
		c0-0.9-0.2-1.7-0.6-2.4C83.8,10.6,83.3,10,82.6,9.6z M80.1,10.6c0.5,0,1,0.1,1.4,0.4c0.4,0.2,0.8,0.6,1,1.1c0.3,0.5,0.4,1,0.4,1.7
		c0,0.6-0.1,1.2-0.4,1.7c-0.3,0.5-0.6,0.8-1,1.1c-0.4,0.2-0.9,0.4-1.4,0.4c-0.5,0-1-0.1-1.4-0.4c-0.4-0.2-0.8-0.6-1-1.1
		c-0.3-0.5-0.4-1-0.4-1.7c0-0.6,0.1-1.2,0.4-1.7c0.3-0.5,0.6-0.8,1-1.1C79.2,10.7,79.6,10.6,80.1,10.6z"/>
	<path class="st1" d="M95,11.3c-0.4-0.7-0.9-1.2-1.5-1.6c-0.7-0.4-1.4-0.6-2.2-0.6c-0.8,0-1.5,0.2-2.1,0.5c-0.4,0.3-0.8,0.6-1.1,0.9
		V9.2h-1.7v13.2h1.7v-5.5c0.3,0.4,0.7,0.7,1.1,0.9c0.6,0.3,1.3,0.5,2,0.5c0.8,0,1.5-0.2,2.2-0.6c0.7-0.4,1.2-1,1.5-1.7
		c0.4-0.7,0.6-1.5,0.6-2.4C95.6,12.8,95.4,12,95,11.3z M91,10.6c0.5,0,1,0.1,1.4,0.4c0.4,0.2,0.8,0.6,1,1.1c0.3,0.5,0.4,1,0.4,1.7
		c0,0.6-0.1,1.2-0.4,1.7c-0.3,0.5-0.6,0.8-1,1.1c-0.4,0.2-0.9,0.4-1.4,0.4c-0.5,0-1-0.1-1.4-0.4c-0.4-0.2-0.8-0.6-1-1.1
		c-0.3-0.5-0.4-1-0.4-1.7c0-0.6,0.1-1.2,0.4-1.7c0.3-0.5,0.6-0.8,1-1.1C90,10.7,90.5,10.6,91,10.6z"/>
</g>
<g>
	<circle class="st2" cx="12.1" cy="12" r="9"/>
	<path class="st3" d="M12.1,2c-5.5,0-10,4.5-10,10s4.5,10,10,10s10-4.5,10-10S17.6,2,12.1,2z M16.9,9.7l-5.7,5.7
		c-0.1,0.1-0.3,0.2-0.5,0.2s-0.4-0.1-0.5-0.2l-2.8-2.8c-0.3-0.3-0.3-0.8,0-1.1c0.3-0.3,0.8-0.3,1.1,0l2.3,2.3l5.1-5.1
		c0.3-0.3,0.8-0.3,1.1,0C17.2,8.9,17.2,9.4,16.9,9.7z"/>
	<g>
		<path class="st3" d="M36.6,6.7h-3.7v11.5h1.7v-4.7h2c1.3,0,2.4-0.3,3-1c0.7-0.6,1-1.5,1-2.4c0-1-0.3-1.8-1-2.5
			C38.9,7,37.9,6.7,36.6,6.7z M34.6,8.2h2c1.5,0,2.3,0.6,2.3,2c0,0.6-0.2,1.1-0.5,1.4c-0.4,0.3-0.9,0.5-1.7,0.5h-2V8.2z"/>
		<path class="st3" d="M49.1,10.4c-0.3-0.4-0.6-0.7-1.1-0.9C47.4,9.2,46.7,9,45.9,9c-0.8,0-1.5,0.2-2.2,0.6
			c-0.7,0.4-1.2,0.9-1.6,1.6c-0.4,0.7-0.6,1.5-0.6,2.4c0,0.9,0.2,1.7,0.6,2.4c0.4,0.7,0.9,1.3,1.5,1.7c0.6,0.4,1.4,0.6,2.2,0.6
			c0.8,0,1.5-0.2,2.1-0.5c0.5-0.3,0.8-0.6,1.1-1v1.3h1.7V9.1h-1.7V10.4z M46.2,16.8c-0.5,0-1-0.1-1.4-0.4c-0.4-0.2-0.8-0.6-1-1.1
			c-0.3-0.5-0.4-1.1-0.4-1.7c0-0.6,0.1-1.2,0.4-1.7c0.3-0.5,0.6-0.8,1-1.1c0.4-0.2,0.9-0.4,1.4-0.4c0.5,0,1,0.1,1.4,0.4
			c0.4,0.3,0.8,0.6,1,1.1c0.3,0.5,0.4,1,0.4,1.7s-0.1,1.2-0.4,1.7c-0.3,0.5-0.6,0.8-1,1.1C47.2,16.7,46.8,16.8,46.2,16.8z"/>
		<polygon class="st3" points="56.5,16.1 53.9,9.2 53.9,9.1 52,9.1 55.6,18 53.8,22.2 53.8,22.4 55.6,22.4 60.9,9.3 61,9.1 
			59.2,9.1 		"/>
		<path class="st3" d="M74.8,9.4C74.2,9.1,73.6,9,72.9,9c-0.7,0-1.4,0.2-2,0.5c-0.5,0.3-0.9,0.7-1.2,1.3c-0.3-0.5-0.7-1-1.2-1.3
			C68,9.1,67.3,9,66.5,9c-0.6,0-1.2,0.1-1.7,0.4c-0.4,0.2-0.7,0.5-1,0.8v-1h-1.7v9.1h1.7v-5c0-0.9,0.2-1.6,0.6-2
			c0.4-0.5,1-0.7,1.7-0.7c0.7,0,1.3,0.2,1.7,0.7c0.4,0.4,0.6,1.1,0.6,1.9v5.1h1.7v-5c0-0.9,0.2-1.6,0.6-2c0.4-0.5,1-0.7,1.7-0.7
			c0.7,0,1.3,0.2,1.7,0.7c0.4,0.4,0.6,1.1,0.6,1.9v5.1h1.7v-5.3c0-0.8-0.2-1.6-0.5-2.1C75.8,10.1,75.3,9.7,74.8,9.4z"/>
		<path class="st3" d="M85,9.5C84.3,9.2,83.5,9,82.7,9c-0.9,0-1.7,0.2-2.3,0.6c-0.7,0.4-1.2,0.9-1.6,1.6c-0.4,0.7-0.6,1.5-0.6,2.5
			c0,0.9,0.2,1.8,0.6,2.5c0.4,0.7,0.9,1.3,1.6,1.7c0.7,0.4,1.5,0.6,2.3,0.6c1.1,0,2-0.3,2.7-0.8s1.2-1.3,1.5-2.1l0-0.2h-1.8l0,0.1
			c-0.2,0.5-0.4,0.8-0.8,1.1c-0.4,0.3-0.9,0.4-1.5,0.4c-0.7,0-1.4-0.2-1.9-0.7c-0.5-0.4-0.8-1-0.8-1.8h7l0-0.1c0-0.3,0-0.6,0-0.9
			c0-0.8-0.2-1.6-0.5-2.2C86.1,10.4,85.6,9.9,85,9.5z M82.6,10.5c0.5,0,0.9,0.1,1.4,0.3c0.4,0.2,0.7,0.5,1,0.9
			c0.2,0.4,0.3,0.8,0.3,1.3H80c0.1-0.7,0.4-1.3,0.8-1.7C81.3,10.7,81.9,10.5,82.6,10.5z"/>
		<path class="st3" d="M93.1,9c-0.6,0-1.2,0.1-1.7,0.4c-0.4,0.2-0.7,0.5-1,0.8v-1h-1.7v9.1h1.7v-5c0-0.9,0.2-1.6,0.7-2
			c0.4-0.5,1-0.7,1.8-0.7c0.7,0,1.3,0.2,1.7,0.7c0.4,0.4,0.6,1.1,0.6,1.9v5.1h1.7v-5.3c0-1.3-0.3-2.2-1-2.9C95.1,9.3,94.2,9,93.1,9z
			"/>
		<path class="st3" d="M103.4,10.6V9.1h-2.3V6.9h-1.7v2.2h-1.1v1.5h1.1v5.1c0,0.9,0.2,1.5,0.7,1.9c0.4,0.4,1.1,0.6,1.9,0.6h1.4v-1.5
			h-1.2c-0.4,0-0.7-0.1-0.9-0.2c-0.2-0.2-0.2-0.4-0.2-0.8v-5.1H103.4z"/>
	</g>
</g>
</svg>
