<svg width="48" height="48" viewBox="0 0 48 48" fill="none" xmlns="http://www.w3.org/2000/svg">
<circle cx="24" cy="24" r="24" fill="#C0D5F6"/>
<path d="M33.56 22.7401L32.2 21.1601C31.94 20.8601 31.73 20.3001 31.73 19.9001V18.2001C31.73 17.1401 30.86 16.2701 29.8 16.2701H28.1C27.71 16.2701 27.14 16.0601 26.84 15.8001L25.26 14.4401C24.57 13.8501 23.44 13.8501 22.74 14.4401L21.17 15.8101C20.87 16.0601 20.3 16.2701 19.91 16.2701H18.18C17.12 16.2701 16.25 17.1401 16.25 18.2001V19.9101C16.25 20.3001 16.04 20.8601 15.79 21.1601L14.44 22.7501C13.86 23.4401 13.86 24.5601 14.44 25.2501L15.79 26.8401C16.04 27.1401 16.25 27.7001 16.25 28.0901V29.8001C16.25 30.8601 17.12 31.7301 18.18 31.7301H19.91C20.3 31.7301 20.87 31.9401 21.17 32.2001L22.75 33.5601C23.44 34.1501 24.57 34.1501 25.27 33.5601L26.85 32.2001C27.15 31.9401 27.71 31.7301 28.11 31.7301H29.81C30.87 31.7301 31.74 30.8601 31.74 29.8001V28.1001C31.74 27.7101 31.95 27.1401 32.21 26.8401L33.57 25.2601C34.15 24.5701 34.15 23.4301 33.56 22.7401ZM28.16 22.1101L23.33 26.9401C23.19 27.0801 23 27.1601 22.8 27.1601C22.6 27.1601 22.41 27.0801 22.27 26.9401L19.85 24.5201C19.56 24.2301 19.56 23.7501 19.85 23.4601C20.14 23.1701 20.62 23.1701 20.91 23.4601L22.8 25.3501L27.1 21.0501C27.39 20.7601 27.87 20.7601 28.16 21.0501C28.45 21.3401 28.45 21.8201 28.16 22.1101Z" fill="#0057FF"/>
</svg>
