<svg width="48" height="48" viewBox="0 0 48 48" fill="none" xmlns="http://www.w3.org/2000/svg">
<g clip-path="url(#clip0_8978_127801)">
<path d="M6.46326 8.74769L0 15.1906L9.40345 24.5643L15.8667 18.1215L6.46326 8.74769Z" fill="url(#paint0_linear_8978_127801)"/>
<path d="M30.4622 32.6613L28.8563 34.2618L24.9445 38.1537C24.416 38.6803 23.565 38.6803 23.0366 38.1537L15.2266 30.37L21.6914 23.9269L30.4554 32.6613H30.4622Z" fill="#0046CC"/>
<path d="M39.2296 23.9234L32.7656 30.3656L41.5347 39.1051L47.9986 32.6629L39.2296 23.9234Z" fill="url(#paint1_linear_8978_127801)"/>
<path d="M33.0146 17.6472L26.4682 24.1465L17.5938 15.3359L23.2089 9.76109C23.7371 9.27812 24.5501 9.27812 25.0714 9.76109L27.8928 12.5623L30.6795 15.329L33.0146 17.6472Z" fill="#0046CC"/>
<path d="M47.9957 15.1924L32.7669 30.3699L30.461 32.668L28.8551 34.2685L24.9432 38.1604C24.4148 38.6871 23.5637 38.6871 23.0353 38.1604L17.5312 32.668L23.9961 26.2318L26.3021 23.9336L32.7669 17.4905L41.5377 8.7561L47.9957 15.1992V15.1924Z" fill="#0057FF"/>
<path d="M30.4615 15.1923L24.0035 21.6354L21.6976 23.9336L15.2327 30.3767L6.46192 39.1111L0.00390625 32.668L8.77472 23.9336L15.2396 17.4905L17.5455 15.1923L23.0565 9.69999C23.0702 9.68631 23.0839 9.67947 23.0908 9.66579C23.6123 9.18701 24.4153 9.18701 24.93 9.66579C24.9438 9.67947 24.9575 9.68631 24.9643 9.69999L27.7164 12.4496L30.4684 15.1923H30.4615Z" fill="#0057FF"/>
</g>
<defs>
<linearGradient id="paint0_linear_8978_127801" x1="11.8687" y1="20.5248" x2="0.263596" y2="9.06457" gradientUnits="userSpaceOnUse">
<stop stop-color="#0046CC"/>
<stop offset="0.4" stop-color="#0057FF"/>
<stop offset="0.8" stop-color="#3AA0FF"/>
</linearGradient>
<linearGradient id="paint1_linear_8978_127801" x1="36.7042" y1="27.9098" x2="47.5184" y2="38.6027" gradientUnits="userSpaceOnUse">
<stop stop-color="#0046CC"/>
<stop offset="0.4" stop-color="#0057FF"/>
<stop offset="0.8" stop-color="#3AA0FF"/>
</linearGradient>
<clipPath id="clip0_8978_127801">
<rect width="48" height="48" fill="white"/>
</clipPath>
</defs>
</svg>

