<svg width="48" height="48" viewBox="0 0 48 48" fill="none" xmlns="http://www.w3.org/2000/svg">
<g clip-path="url(#clip0_28_234)">
<path d="M6.46326 8.74769L0 15.1906L9.40345 24.5643L15.8667 18.1215L6.46326 8.74769Z" fill="#F7F7F7"/>
<path d="M30.4613 32.6613L28.8553 34.2618L24.9435 38.1537C24.415 38.6803 23.564 38.6803 23.0356 38.1537L15.2256 30.37L21.6904 23.9269L30.4544 32.6613H30.4613Z" fill="white"/>
<path d="M39.2315 23.9234L32.7676 30.3656L41.5366 39.1051L48.0006 32.6629L39.2315 23.9234Z" fill="#F7F7F7"/>
<path d="M33.0136 17.6473L26.4672 24.1466L17.5928 15.3359L23.2079 9.76115C23.7361 9.27818 24.5492 9.27818 25.0704 9.76115L27.8919 12.5623L30.6786 15.329L33.0136 17.6473Z" fill="white"/>
<path d="M47.9947 15.1924L32.7659 30.3699L30.46 32.668L28.8541 34.2685L24.9422 38.1604C24.4138 38.6871 23.5628 38.6871 23.0343 38.1604L17.5303 32.668L23.9951 26.2318L26.3011 23.9336L32.7659 17.4905L41.5368 8.7561L47.9947 15.1992V15.1924Z" fill="white"/>
<path d="M30.4606 15.1923L24.0026 21.6354L21.6966 23.9335L15.2318 30.3766L6.46094 39.1111L0.00292969 32.668L8.77374 23.9335L15.2386 17.4905L17.5445 15.1923L23.0555 9.69993C23.0692 9.68625 23.0829 9.67941 23.0898 9.66573C23.6114 9.18694 24.4143 9.18694 24.9291 9.66573C24.9428 9.67941 24.9565 9.68625 24.9634 9.69993L27.7154 12.4495L30.4674 15.1923H30.4606Z" fill="white"/>
</g>
<defs>
<clipPath id="clip0_28_234">
<rect width="48" height="48" fill="white"/>
</clipPath>
</defs>
</svg>
