<svg width="48" height="48" viewBox="0 0 48 48" fill="none" xmlns="http://www.w3.org/2000/svg">
<path d="M30.4608 32.7424L28.8608 34.3424L24.9524 38.2447C24.4272 38.776 23.5722 38.776 23.047 38.2447L15.2363 30.434L21.6974 23.973L30.4608 32.7363V32.7424Z" fill="#DEDEDE"/>
<path d="M39.23 23.9733L32.7656 30.4376L41.5316 39.2036L47.9959 32.7392L39.23 23.9733Z" fill="url(#paint0_linear_4098_98814)"/>
<path d="M32.7635 17.518L26.3024 23.9791L17.5391 15.2157L23.0841 9.6707C23.6032 9.18826 24.4032 9.18826 24.9223 9.6707L27.7131 12.4615L30.4612 15.2157L32.7696 17.518H32.7635Z" fill="#DEDEDE"/>
<path d="M47.9938 15.2157L32.7693 30.4462L30.461 32.7485L28.861 34.3485L24.9526 38.2508C24.4274 38.7821 23.5724 38.7821 23.0472 38.2508L17.5449 32.7424L24.006 26.2814L26.3083 23.973L32.7693 17.5119L41.5388 8.74854L47.9999 15.2096L47.9938 15.2157Z" fill="white"/>
<path d="M6.46436 8.74768L0 15.212L8.76596 23.978L15.2303 17.5136L6.46436 8.74768Z" fill="url(#paint1_linear_4098_98814)"/>
<path d="M30.4611 15.2158L24 21.6768L21.6916 23.9791L15.2305 30.4402L6.46107 39.2035L0 32.7425L8.76947 23.9791L15.2305 17.5181L17.5389 15.2158L23.0473 9.70737C23.0595 9.69516 23.0718 9.68905 23.084 9.67683C23.6031 9.19439 24.4031 9.19439 24.9221 9.67683C24.9344 9.68905 24.9466 9.69516 24.9588 9.70737L27.713 12.4616L30.4611 15.2158Z" fill="white"/>
<defs>
<linearGradient id="paint0_linear_4098_98814" x1="36.7118" y1="27.9733" x2="47.5576" y2="38.6603" gradientUnits="userSpaceOnUse">
<stop stop-color="#E9E9E9"/>
<stop offset="0.2" stop-color="#F5F5F5"/>
<stop offset="0.4" stop-color="#FDFDFD"/>
<stop offset="0.8" stop-color="white"/>
</linearGradient>
<linearGradient id="paint1_linear_4098_98814" x1="11.2859" y1="19.9879" x2="0.433969" y2="9.2948" gradientUnits="userSpaceOnUse">
<stop stop-color="#E9E9E9"/>
<stop offset="0.2" stop-color="#F5F5F5"/>
<stop offset="0.4" stop-color="#FDFDFD"/>
<stop offset="0.8" stop-color="white"/>
</linearGradient>
</defs>
</svg>
