<svg width="306" height="306" viewBox="0 0 306 306" fill="none" xmlns="http://www.w3.org/2000/svg">
<g clip-path="url(#clip0_4196_135163)">
<path d="M41.2033 55.7664L0 96.8397L59.947 156.597L101.15 115.524L41.2033 55.7664Z" fill="url(#paint0_linear_4196_135163)"/>
<path d="M194.19 208.216L183.952 218.419L159.014 243.23C155.645 246.587 150.22 246.587 146.851 243.23L97.0625 193.609L138.276 152.534L194.146 208.216H194.19Z" fill="#0046CC"/>
<path d="M250.102 152.512L208.895 193.581L264.797 249.295L306.005 208.226L250.102 152.512Z" fill="url(#paint1_linear_4196_135163)"/>
<path d="M210.46 112.501L168.727 153.934L112.152 97.7662L147.949 62.2269C151.316 59.148 156.499 59.148 159.822 62.2269L177.809 80.0845L195.574 97.7222L210.46 112.501Z" fill="#0046CC"/>
<path d="M305.969 96.8512L208.885 193.608L194.185 208.259L183.947 218.462L159.009 243.272C155.64 246.63 150.215 246.63 146.846 243.272L111.758 208.259L152.971 167.228L167.672 152.577L208.885 111.502L264.799 55.8202L305.969 96.8948V96.8512Z" fill="#0057FF"/>
<path d="M194.187 96.8512L153.017 137.926L138.317 152.577L97.1033 193.651L41.1893 249.333L0.0195312 208.259L55.9334 152.577L97.1469 111.502L111.847 96.8512L146.979 61.8374C147.067 61.7502 147.154 61.7066 147.198 61.6194C150.523 58.5672 155.642 58.5672 158.924 61.6194C159.011 61.7066 159.099 61.7502 159.142 61.8374L176.686 79.3661L194.231 96.8512H194.187Z" fill="#0057FF"/>
</g>
<defs>
<linearGradient id="paint0_linear_4196_135163" x1="75.6628" y1="130.846" x2="1.68042" y2="57.7865" gradientUnits="userSpaceOnUse">
<stop stop-color="#0046CC"/>
<stop offset="0.4" stop-color="#0057FF"/>
<stop offset="0.8" stop-color="#3AA0FF"/>
</linearGradient>
<linearGradient id="paint1_linear_4196_135163" x1="234.003" y1="177.925" x2="302.943" y2="246.092" gradientUnits="userSpaceOnUse">
<stop stop-color="#0046CC"/>
<stop offset="0.4" stop-color="#0057FF"/>
<stop offset="0.8" stop-color="#3AA0FF"/>
</linearGradient>
<clipPath id="clip0_4196_135163">
<rect width="306" height="306" fill="white"/>
</clipPath>
</defs>
</svg>

