<svg width="966" height="840" viewBox="0 0 966 840" fill="none" xmlns="http://www.w3.org/2000/svg">
<path d="M1.65772 1.85147C33.824 -37.8104 97.8769 -45.3704 138.742 -14.3335C181.415 18.1356 193.418 79.5665 233.643 115.055C272.245 149.096 328.796 152.012 379.02 143.509C429.244 135.006 477.874 116.821 528.766 114.901C579.658 112.98 636.336 132.347 659.544 178.582C679.595 218.639 669.633 266.276 665.292 310.802C661.043 355.321 667.375 408.549 705.553 431.309C750.447 458.159 801.61 427.22 847.416 420.599C925.188 409.502 1006.76 438.76 1055.69 501.081C1105.66 564.62 1117.08 656.874 1084.13 730.369M11.3677 -5.82471C44.2287 -43.9572 107.604 -50.7098 148.436 -20.0441C181.757 4.91759 197.119 46.9746 220.968 81.2751C227.807 91.0597 235.248 100.231 243.983 108.166C282.052 142.534 336.53 147.408 384.535 141.344C417.369 137.166 449.272 128.767 481.476 123.802C496.422 121.468 511.348 119.977 526.605 120.14C545.978 120.318 566.479 123.765 585.871 130.583C614.815 140.774 640.841 158.236 655.322 184.843C659.101 191.715 661.868 198.769 664.002 206.065C673.759 239.633 667.999 277.549 665.374 313.882C664.94 319.625 664.708 325.538 664.577 331.536C664.233 371.504 672.231 413.83 703.669 434.373C709.122 437.919 714.587 440.528 720.265 442.37C741.748 449.566 764.55 446.171 787.553 440.794C805.972 436.473 824.548 430.734 842.387 428.334C846.733 427.767 851.087 427.293 855.449 426.912C879.123 424.938 902.996 426.313 926.047 431.127C974.45 441.396 1019.17 467.326 1050.67 506.757C1060.33 518.821 1068.59 532.035 1075.32 545.945C1103.81 604.439 1106.12 675.976 1079.4 735.085M21.1705 -13.509C54.6414 -50.0112 117.331 -56.0491 158.224 -25.7628C191.604 -1.18053 207.652 40.1618 231.586 74.3615C238.417 84.0532 245.765 93.2322 254.415 101.269C291.868 136.064 344.45 142.788 390.236 139.162C421.529 136.615 451.73 130.142 482.014 126.748C496.088 125.145 510.143 124.384 524.613 125.178C542.938 126.196 562.482 130.475 581.536 137.696C609.887 148.594 636.228 165.373 651.361 190.895C655.302 197.472 658.331 204.316 660.626 211.317C671.493 243.666 667.431 280.685 665.633 316.852C665.385 322.579 665.153 328.492 665.208 334.473C665.421 374.393 672.264 416.353 702.165 437.498C707.255 441.168 712.542 443.887 717.958 445.939C738.477 453.874 760.532 451.573 783.068 447.266C801.181 443.719 819.797 438.445 837.645 436.137C841.99 435.571 846.344 435.097 850.706 434.716C874.288 432.749 898.035 433.761 921.07 438.389C969.324 448.017 1014.2 473.559 1045.85 512.603C1055.59 524.566 1063.83 537.595 1070.66 551.496C1099.4 609.688 1101.8 681.124 1074.87 739.971M30.9733 -21.1932C65.147 -56.0732 127.066 -61.2956 168.011 -31.4816C201.46 -7.18586 218.278 33.3409 242.103 67.363C248.935 77.0548 256.282 86.2338 264.747 94.2863C301.574 129.417 352.175 138.091 395.744 136.904C425.495 135.988 453.995 131.441 482.366 129.71C495.569 128.838 508.752 128.808 522.352 130.333C539.635 132.283 558.308 137.293 576.93 144.926C604.774 156.43 631.243 172.543 647.038 197.072C651.14 203.354 654.331 209.903 656.879 216.602C668.856 247.731 666.4 283.862 665.521 319.855C665.366 325.574 665.312 331.378 665.459 337.351C666.314 377.121 672.003 418.714 700.189 440.57C705.009 444.358 710.026 447.193 715.087 449.463C734.54 458.052 755.866 457.031 778.103 453.592C795.917 450.913 814.567 446.01 832.329 443.804C836.675 443.237 841.037 442.856 845.306 442.483C868.887 440.516 892.518 441.258 915.428 445.523C963.624 454.501 1008.65 479.656 1040.35 518.227C1050.09 530.097 1058.51 543.017 1065.33 556.826C1094.22 614.63 1096.72 686.058 1069.76 744.719M40.7761 -28.8775C75.5597 -62.1272 136.793 -66.6349 177.891 -37.2084C211.409 -13.1993 228.905 26.5201 252.814 60.4412C259.646 70.133 266.892 79.2273 275.273 87.3807C311.567 122.839 360.095 133.471 401.445 134.722C429.748 135.43 456.554 132.901 482.904 132.657C495.235 132.515 507.446 133.131 520.36 135.37C536.688 138.153 554.405 143.994 572.688 152.031C600.023 164.14 626.722 179.672 643.078 203.123C647.349 209.204 650.701 215.458 653.504 221.854C666.589 251.764 665.84 287.091 665.781 322.825C665.71 328.443 665.841 334.231 666.082 340.196C667.586 379.909 672.02 421.051 698.677 443.601C703.218 447.414 707.981 450.552 712.772 452.939C731.253 462.174 751.841 462.34 773.61 459.97C791.025 458.075 809.808 453.628 827.586 451.607C831.94 451.133 836.294 450.659 840.563 450.286C864.06 448.421 887.557 448.706 910.536 452.685C958.676 461.013 1003.75 485.695 1035.62 523.972C1045.44 535.741 1053.85 548.568 1060.75 562.276C1089.9 619.777 1092.38 691.019 1065.32 749.503M50.5789 -36.5617C86.0571 -68.2821 146.528 -71.8814 187.679 -42.9271C221.257 -19.2974 239.531 19.6992 263.424 53.4347C270.248 63.0336 277.494 72.1279 285.697 80.3904C321.374 116.277 368.014 128.851 407.138 132.448C433.908 134.879 459.004 134.183 483.534 135.594C494.995 136.183 506.334 137.531 518.377 140.501C533.664 144.216 550.416 150.796 568.36 159.237C595.095 171.96 622.024 186.911 639.125 209.267C643.558 215.053 647.164 221.005 650.221 227.098C664.416 255.788 665.365 290.219 666.133 325.788C666.248 331.39 666.472 337.169 666.704 343.041C668.85 382.605 672.13 423.379 697.157 446.54C701.428 450.47 705.827 453.733 710.449 456.322C727.957 466.204 747.714 467.564 769.194 466.155C786.303 465.035 805.126 461.052 822.912 459.124C827.266 458.65 831.535 458.277 835.897 457.896C859.301 456.038 882.774 456.046 905.627 459.661C953.618 467.347 998.85 491.642 1030.96 529.524C1040.86 541.192 1049.27 553.926 1056.26 567.533C1085.66 624.731 1088.13 695.88 1060.95 754.094M60.2889 -44.2379C96.3771 -74.328 156.162 -77.2126 197.373 -48.6378C231.113 -25.3027 250.065 12.8864 273.95 46.5291C280.773 56.128 287.927 65.2304 296.037 73.501C331.089 109.722 375.748 124.247 412.645 130.19C437.883 134.345 461.183 135.583 483.878 138.464C494.476 139.876 504.936 141.862 516.099 145.47C530.345 150.118 546.226 157.429 563.747 166.374C589.981 179.796 617.039 194.081 634.794 215.351C639.388 220.843 643.163 226.592 646.474 232.383C661.778 259.854 664.434 293.48 666.106 328.69C666.406 334.275 666.622 339.962 667.04 345.818C669.734 385.24 671.86 425.648 695.265 449.511C699.266 453.558 703.395 456.938 707.754 459.738C724.299 470.358 743.318 472.905 764.321 472.473C781.124 472.128 799.895 468.617 817.698 466.875C822.052 466.401 826.321 466.028 830.598 465.748C853.909 463.899 877.257 463.542 900.086 466.879C948.019 473.916 993.405 497.823 1025.58 535.325C1035.47 546.901 1044.05 559.526 1051.03 573.04C1080.59 629.851 1083.15 700.992 1055.86 758.935M70.0836 -52.015C106.874 -80.4829 165.982 -82.5601 207.152 -54.4493C240.952 -31.4937 260.59 5.9808 284.552 39.4297C291.367 48.9359 298.529 58.1311 306.453 66.4179C340.981 103.059 383.559 119.449 418.33 127.822C442.027 133.609 463.625 136.773 484.408 141.317C494.134 143.461 503.723 146.177 514.107 150.508C527.304 155.996 542.23 164.138 559.412 173.487C585.138 187.514 612.425 201.218 630.741 221.411C635.496 226.607 639.525 232.054 643.006 237.643C659.512 263.886 663.773 296.625 666.272 331.668C666.658 337.153 667.067 342.916 667.57 348.671C670.914 388.037 671.869 427.892 693.661 452.551C697.391 456.715 701.25 460.212 705.347 463.222C720.826 474.496 739.107 478.23 759.82 478.759C776.317 479.189 795.128 476.142 812.939 474.493C817.301 474.112 821.57 473.739 825.839 473.366C849.15 471.516 872.381 470.89 895.093 473.956C942.969 480.343 988.415 503.871 1020.74 540.986C1030.71 552.367 1039.29 564.992 1046.45 578.397C1076.26 634.905 1078.82 705.954 1051.4 763.626M79.8864 -59.6992C117.279 -86.6297 175.709 -87.8994 217.033 -60.1762C250.901 -37.5071 271.309 -0.848181 295.255 32.4151C302.07 41.9212 309.139 51.1245 316.886 59.5204C350.788 96.497 391.385 114.837 423.938 125.649C446.094 133.066 465.897 138.164 484.946 144.263C493.699 147.053 502.518 150.585 512.023 155.553C524.179 161.974 538.233 170.848 555.076 180.6C580.294 195.233 607.719 208.363 626.78 227.462C631.705 232.457 635.888 237.516 639.622 242.802C657.246 267.919 663.197 299.668 666.523 334.546C667.094 340.014 667.589 345.676 668.091 351.431C671.984 390.656 671.878 430.136 691.955 455.506C695.322 459.795 699.011 463.494 702.838 466.621C717.345 478.542 734.888 483.463 755.134 485.061C771.324 486.266 790.176 483.683 807.995 482.127C812.357 481.746 816.626 481.373 820.81 481.101C844.028 479.259 867.134 478.27 889.914 481.05C937.649 486.887 983.24 509.935 1015.8 546.561C1025.86 557.842 1034.53 570.366 1041.67 583.678C1071.74 639.884 1074.28 710.746 1046.85 768.233M89.6892 -67.3835C127.785 -92.6917 185.444 -93.1459 226.82 -65.8949C260.749 -43.6052 281.935 -7.66906 305.873 25.5014C312.688 35.0075 319.749 44.118 327.318 52.6229C360.595 89.9347 399.212 110.225 429.639 123.467C450.347 132.508 468.262 139.548 485.484 147.209C493.366 150.73 501.305 154.9 509.946 160.692C521.062 168.045 534.152 177.658 550.656 187.814C575.273 203.061 603.02 215.602 622.634 233.53C627.721 238.23 632.165 243.08 636.061 248.07C654.886 271.96 662.359 302.921 666.597 337.532C667.261 342.993 667.84 348.554 668.536 354.386C673.079 393.553 671.717 432.581 690.265 458.647C693.362 463.053 696.688 466.878 700.346 470.206C713.88 482.773 730.686 488.881 750.463 491.549C766.355 493.621 785.239 491.41 803.075 490.039C807.344 489.666 811.714 489.378 815.89 489.013C839.024 487.273 862.097 485.912 884.752 488.328C932.43 493.516 978.166 516.084 1010.8 552.423C1020.84 563.611 1029.6 576.035 1036.83 589.246C1067.14 645.055 1069.68 715.918 1042.13 773.135M99.3992 -75.0596C138.105 -98.7376 195.079 -98.4771 236.515 -71.6055C270.512 -49.6025 292.376 -14.4737 316.39 18.503C323.29 27.9082 330.174 37.1277 337.65 45.6407C370.402 83.3725 406.938 105.528 435.146 121.209C454.314 131.881 470.426 140.762 485.836 150.172C492.754 154.431 499.914 159.324 507.769 165.746C517.836 173.939 530.063 184.375 546.135 194.943C570.252 210.888 598.12 222.671 618.396 239.606C623.643 244.011 628.342 248.558 632.492 253.246C652.519 275.908 661.598 305.981 666.756 340.418C667.504 345.777 668.277 351.415 669.058 357.146C674.149 396.172 671.718 434.733 688.551 461.509C691.378 466.032 694.434 469.974 697.829 473.512C710.299 486.733 726.374 494.121 745.853 497.657C761.439 500.504 780.363 498.758 798.114 497.487C802.391 497.207 806.66 496.834 810.845 496.562C833.886 494.83 856.834 493.106 879.464 495.244C927.086 499.782 972.882 521.97 1005.67 557.922C1015.8 569.009 1024.63 581.239 1031.86 594.45C1062.33 649.965 1064.96 720.727 1037.29 777.673M109.202 -82.7439C148.602 -104.892 204.814 -103.724 246.302 -77.3243C280.36 -55.7006 303.002 -21.2946 327.008 11.5893C333.908 20.9945 340.784 30.1212 348.083 38.7432C380.21 76.8102 414.849 100.815 440.754 119.035C458.389 131.431 472.783 142.052 486.374 153.118C492.412 158.015 498.617 163.74 505.693 170.885C514.812 180.002 526.075 191.178 541.716 202.157C565.324 218.708 593.422 229.909 614.35 245.758C619.759 249.869 624.627 254.214 629.032 258.599C650.261 280.034 660.953 309.311 666.93 343.489C667.864 348.832 668.722 354.369 669.503 360.1C675.244 399.069 671.65 437.17 686.862 464.649C689.41 469.197 692.204 473.349 695.336 477.097C706.834 490.964 722.171 499.539 741.183 504.145C756.462 507.767 775.334 506.492 793.194 505.4C797.471 505.12 801.749 504.84 805.925 504.475C828.966 502.742 851.796 500.748 874.394 502.515C921.867 506.411 967.816 528.212 1000.75 563.776C1010.97 574.762 1019.79 586.899 1027.11 600.009C1057.83 655.222 1060.44 725.798 1032.67 782.566M119.005 -90.4282C159.015 -110.946 214.541 -109.063 256.182 -83.0511C290.401 -61.7221 313.722 -28.1236 337.711 4.57463C344.603 13.887 351.394 23.1146 358.6 31.7448C390.102 70.147 422.761 96.1018 446.54 116.753C462.634 130.78 475.225 143.242 487.004 156.056C492.163 161.591 497.505 168.139 503.794 175.914C511.873 185.965 522.171 197.879 537.566 209.254C560.666 226.41 588.994 237.03 610.483 251.802C616.154 255.702 621.175 259.66 625.749 263.843C648.18 284.051 660.478 312.439 667.283 346.451C668.31 351.787 669.252 357.223 670.218 362.937C676.601 401.757 671.845 439.398 685.35 467.681C687.627 472.346 690.151 476.615 693.021 480.573C703.539 494.994 718.053 504.856 736.775 510.422C751.747 514.82 770.66 514.009 788.528 513.01C792.805 512.729 797.083 512.449 801.267 512.177C824.215 510.453 846.92 508.095 869.502 509.677C916.918 512.923 963.021 534.337 996.111 569.513C1006.32 580.407 1015.23 592.442 1022.63 605.452C1053.6 660.268 1056.21 730.844 1028.41 787.334M128.808 -98.1124C169.52 -117.008 224.369 -114.318 265.97 -88.7698C300.257 -67.7274 324.255 -34.9364 348.321 -2.4319C355.213 6.88046 361.996 16.0153 369.024 24.7545C400.002 63.5766 430.579 91.3969 452.14 114.486C466.786 130.136 477.473 144.355 487.441 158.917C491.729 165.183 496.199 172.462 501.617 180.968C508.655 191.951 518.082 204.596 533.045 216.384C555.544 234.153 584.102 244.192 606.244 257.877C612.076 261.483 617.267 265.239 622.087 269.027C645.712 287.914 659.531 315.515 667.247 349.26C668.452 354.487 669.495 360.007 670.546 365.621C677.57 404.291 671.66 441.566 683.543 470.551C685.55 475.333 687.711 479.728 690.319 483.896C699.864 498.962 713.649 510.104 731.894 516.648C746.468 521.828 765.514 521.474 783.305 520.668C787.591 520.48 791.868 520.2 795.951 519.844C818.806 518.128 841.488 515.491 863.944 516.71C911.303 519.306 957.466 540.34 990.71 575.13C1001 585.922 1009.99 597.857 1017.4 610.866C1048.62 665.38 1051.32 735.855 1023.31 792.083M138.518 -105.789C179.84 -123.054 234.003 -119.649 275.664 -94.4805C310.012 -73.8175 334.789 -41.7492 358.847 -9.33749C365.739 -0.0251322 372.428 9.11779 379.364 17.8651C409.716 57.0225 438.313 86.7929 457.748 112.313C470.853 129.594 479.914 145.545 487.987 161.956C491.387 168.767 495.002 176.963 499.541 186.107C505.538 198.022 514.009 211.499 528.625 223.598C550.624 242.066 579.395 251.337 602.106 264.038C608.1 267.349 613.545 270.802 618.534 274.388C643.361 292.048 658.794 318.853 667.329 352.34C668.626 357.558 669.847 362.97 670.991 368.575C678.572 407.196 671.584 443.91 681.752 473.607C683.396 478.514 685.38 483.018 687.726 487.396C696.298 503.109 709.345 515.438 727.208 522.95C741.483 528.998 760.562 529.015 778.361 528.302C782.646 528.114 786.924 527.834 791.015 527.57C813.786 525.955 836.333 522.863 858.859 523.795C906.068 525.75 952.376 546.303 985.773 580.705C996.143 591.304 1005.13 603.239 1012.62 616.147C1044.01 670.366 1046.79 740.74 1018.66 796.698M148.32 -113.473C190.338 -129.209 243.738 -124.895 285.452 -100.199C319.868 -79.8228 345.415 -48.57 369.457 -16.344C376.341 -7.12448 383.038 2.11128 389.704 10.9757C419.431 50.4683 446.132 82.0879 463.264 110.147C474.828 129.06 482.171 146.75 488.339 164.918C490.868 172.46 493.519 181.395 497.372 191.253C502.32 204.009 509.928 218.31 524.205 230.812C545.696 249.885 574.604 258.584 598.061 270.19C604.216 273.207 609.915 276.357 615.158 279.64C641.188 296.072 658.133 321.997 667.681 355.302C669.164 360.504 670.478 365.908 671.614 371.42C679.836 409.892 671.694 446.239 680.24 476.639C681.614 481.663 683.335 486.376 685.411 490.872C693.011 507.231 705.227 520.754 722.715 529.328C736.684 536.152 755.71 536.641 773.61 536.012C777.896 535.825 782.088 535.646 786.172 535.289C808.849 533.682 831.28 530.319 853.773 530.88C900.925 532.185 947.387 552.351 980.844 586.374C991.206 596.879 1000.37 608.705 1007.85 621.52C1039.49 675.344 1042.26 745.626 1014.02 801.406M158.123 -121.157C200.75 -135.263 253.465 -130.235 295.332 -105.926C329.809 -85.929 356.041 -55.3909 380.075 -23.2577C386.959 -14.0382 393.556 -4.88714 400.137 4.07824C429.339 43.9908 453.958 77.4758 468.965 107.966C479.081 128.501 484.798 147.924 488.885 167.957C490.535 176.137 492.322 185.895 495.296 196.392C499.203 210.08 505.847 225.12 519.793 238.118C540.776 257.798 569.914 265.915 593.931 276.444C600.256 279.258 606.116 282.113 611.613 285.094C638.837 300.206 657.396 325.335 667.771 358.474C669.339 363.575 670.745 368.971 672.075 374.56C680.947 412.975 671.635 448.77 678.567 479.965C679.662 485.014 681.121 489.937 682.934 494.642C689.563 511.647 701.04 526.358 718.146 535.901C731.808 543.499 750.875 544.452 768.698 544.017C772.992 543.923 777.176 543.651 781.268 543.387C803.946 541.78 826.251 538.054 848.627 538.344C895.722 539 942.244 558.786 975.947 592.413C986.395 602.818 995.555 614.551 1003.12 627.266C1035 680.786 1037.77 750.975 1009.42 806.485M167.926 -128.841C211.256 -141.325 263.2 -135.481 305.119 -111.645C339.757 -91.9425 366.667 -62.2118 390.685 -30.2643C397.561 -21.1375 404.166 -11.8937 410.561 -2.91208C439.138 37.3357 461.777 72.7709 474.565 105.699C483.14 127.866 487.24 149.114 489.322 170.818C490.185 179.628 491.016 190.219 493.211 201.438C496.078 216.059 501.85 231.829 515.365 245.24C535.747 265.533 565.207 273.06 589.785 282.511C596.271 285.031 602.385 287.584 608.052 290.362C636.57 304.239 656.651 328.58 667.845 361.461C669.598 366.546 671.089 371.84 672.512 377.421C682.118 415.679 671.559 451.115 676.776 483.021C677.601 488.187 678.79 493.227 680.341 498.143C685.997 515.794 696.652 531.792 713.374 542.303C726.73 550.677 745.838 552.094 763.669 551.752C767.963 551.658 772.155 551.479 776.239 551.122C798.824 549.523 821.012 545.527 843.456 545.53C890.402 545.544 937.078 564.943 970.934 598.183C981.466 608.486 990.711 620.119 998.265 632.74C1030.4 685.865 1033.16 756.054 1004.78 811.285M177.729 -136.526C221.661 -147.472 273.02 -140.829 314.907 -117.364C349.605 -98.0406 377.294 -69.0327 401.303 -37.1779C408.179 -28.0512 414.683 -18.8921 420.994 -9.80957C448.953 30.8663 469.688 68.0578 480.173 103.526C487.207 127.323 489.782 150.388 489.868 173.857C489.944 183.297 489.726 194.727 491.135 206.576C492.961 222.13 497.862 238.631 510.945 252.454C530.827 273.445 560.408 280.214 585.74 288.664C592.387 290.889 598.756 293.139 604.584 295.622C634.296 308.179 655.898 331.733 668.012 364.439C669.858 369.516 671.534 374.794 672.949 380.283C683.104 418.399 671.475 453.367 675.071 485.976C675.625 491.259 676.543 496.417 677.824 501.449C682.508 519.746 692.425 536.932 708.764 548.412C721.814 557.56 740.962 559.442 758.81 559.285C763.103 559.191 767.296 559.012 771.294 558.756C793.795 557.258 815.942 552.798 838.269 552.531C885.159 551.895 931.987 570.906 965.904 603.766C976.428 613.977 985.749 625.416 993.397 638.029C1025.69 690.86 1028.54 760.947 1000.05 815.908M187.431 -144.295C232.065 -153.619 282.646 -146.253 324.593 -123.167C359.36 -104.131 387.726 -75.9301 411.813 -44.2692C418.781 -35.1506 425.192 -25.9833 431.317 -16.8846C458.744 24.1184 477.406 63.2682 485.765 101.167C491.351 126.587 492.216 151.485 490.297 176.626C489.502 186.797 488.413 198.957 488.95 211.537C489.642 228.032 493.672 245.264 506.509 259.482C525.883 281.079 555.693 287.267 581.586 294.638C588.395 296.569 594.932 298.617 601.014 300.798C631.921 312.034 655.051 334.893 668.069 367.24C670.093 372.208 671.862 377.478 673.369 382.959C684.174 421.018 671.476 455.518 673.264 488.846C673.548 494.246 674.196 499.521 675.215 504.763C679.011 523.606 688.105 542.079 703.977 554.629C716.728 564.645 735.916 566.991 753.671 566.843C757.973 566.841 762.166 566.662 766.164 566.406C788.572 564.916 810.602 560.186 832.897 559.547C879.73 558.262 926.61 576.801 960.773 609.265C971.381 619.375 980.695 630.721 988.52 643.225C1021.07 695.753 1023.9 765.655 995.297 820.438M197.233 -151.979C242.478 -159.673 292.381 -151.499 334.473 -128.894C369.301 -110.237 398.446 -82.7591 422.516 -51.2838C429.476 -42.258 435.794 -33.0827 441.835 -23.883C468.636 17.4552 485.503 58.5389 491.458 98.8923C495.596 125.936 494.852 152.751 490.826 179.479C489.245 190.28 487.2 203.272 486.95 216.482C486.594 233.817 489.76 251.873 502.166 266.502C521.031 288.705 551.064 294.218 577.525 300.605C584.587 302.233 591.287 303.986 597.53 305.873C629.63 315.789 654.374 337.852 668.312 370.025C670.429 374.985 672.283 380.154 673.976 385.618C685.422 423.527 671.561 457.568 671.736 491.692C671.75 497.209 672.034 502.61 672.884 508.054C675.708 527.542 683.979 547.303 699.552 560.721C711.997 571.512 731.133 574.33 748.997 574.36C753.206 574.366 757.399 574.187 761.398 573.931C783.805 572.441 805.71 567.347 827.981 566.43C874.672 564.596 921.698 582.655 956.014 614.732C966.707 624.741 976.105 635.986 983.922 648.397C1016.72 700.529 1019.55 770.431 990.828 824.944M207.036 -159.663C252.984 -165.735 302.116 -156.746 344.261 -134.613C379.157 -116.242 409.072 -89.58 433.134 -58.1975C440.094 -49.1717 446.413 -39.9964 452.267 -30.7805C478.452 10.9857 493.33 53.9268 497.159 96.7107C499.756 125.385 497.394 154.025 491.465 182.51C489.012 194.041 486.003 207.773 484.975 221.706C483.578 239.973 485.78 258.768 497.847 273.801C516.111 296.617 546.373 301.55 573.581 306.842C580.813 308.268 587.758 309.626 594.263 311.302C627.65 319.89 653.924 341.258 668.681 373.173C670.983 378.116 672.93 383.277 674.614 388.649C686.71 426.501 671.78 460.074 670.147 494.918C669.891 500.552 669.905 506.069 670.492 511.723C672.344 531.858 679.877 552.806 694.983 567.293C707.028 578.868 726.298 582.142 744.17 582.264C748.379 582.27 752.58 582.184 756.579 581.928C778.893 580.446 800.681 575.082 822.919 573.794C869.554 571.31 916.733 588.981 951.109 620.679C961.786 630.502 971.277 641.739 979.179 654.049C1012.13 705.887 1015.05 775.688 986.314 830.015M216.839 -167.347C263.481 -171.89 311.843 -162.085 354.048 -140.331C389.012 -122.248 419.605 -96.3928 443.744 -65.2041C450.696 -56.2711 456.922 -47.0876 462.7 -37.678C488.352 4.41537 501.156 49.3147 502.767 94.5371C503.824 124.843 499.852 155.401 491.91 185.464C488.678 197.718 484.697 212.096 482.798 226.759C480.36 245.959 481.691 265.485 493.326 280.93C511.09 304.445 541.574 308.703 569.342 312.918C576.735 314.049 583.842 315.112 590.609 316.579C625.19 323.846 652.985 344.427 668.662 376.168C671.048 381.01 673.181 386.155 674.958 391.518C687.603 429.229 671.704 462.419 668.356 497.974C667.822 503.632 667.582 509.452 667.899 515.224C668.871 535.996 675.481 558.147 690.304 573.688C702.043 586.038 721.354 589.776 739.141 589.999C743.358 590.098 747.551 589.919 751.549 589.663C773.771 588.189 795.527 582.454 817.656 580.988C864.234 577.854 911.473 595.146 946.002 626.456C956.764 636.179 966.34 647.314 974.233 659.532C1007.44 711.067 1010.35 780.775 981.498 834.832M226.549 -175.024C313.055 -180.336 401.063 -140.604 454.261 -72.2025C513.681 4.26026 520.439 98.7923 492.254 188.333C482.896 218.239 468.881 260.15 488.805 288.059C510.643 318.607 553.929 316.322 586.947 321.762C628.134 328.64 661.014 353.92 675.294 394.295C690.701 437.938 665.224 474.958 665.196 518.546C665.196 539.965 671.068 563.303 685.416 579.821C699.553 596.076 725.767 598.556 746.327 597.321C768.464 595.948 790.094 589.85 812.284 588.005C873.198 583.057 935.817 613.69 969.179 664.837C1002.63 715.976 1005.53 785.592 976.573 839.471M218.714 -170.504C262.863 -173.613 307.411 -165.72 347.936 -148.215C387.585 -131.102 423.456 -104.773 450.452 -70.8409C471.034 -45.0469 485.466 -16.845 494.04 12.804C502.19 40.8064 505.098 69.828 503.519 98.8674C502.337 120.67 498.532 142.422 492.753 164.065C490.36 173.066 487.587 182.007 484.536 190.972C480.727 201.967 476.313 214.606 473.331 227.586C468.159 249.738 466.775 273.522 479.372 291.409C493.027 310.7 515.659 317.14 538.572 320.376C552.111 322.28 565.738 323.054 578.14 324.776C589.318 326.419 599.944 329.232 609.747 333.333C631.88 342.623 650.161 358.142 662.154 379.823C664.476 383.922 666.544 388.325 668.341 392.845C678.164 417.521 674.481 440.664 669.631 464.378C666.147 481.237 662.114 498.238 662.21 516.469C662.173 517.127 662.23 517.776 662.194 518.434C662.626 539.441 668.348 562.138 682.377 578.215C691.936 589.165 706.857 594.035 721.864 595.623C729.604 596.444 737.449 596.32 744.595 595.695C752.677 595.083 760.695 593.728 768.696 592.187C782.952 589.445 796.965 586.069 811.217 584.357C828.059 582.324 845.036 582.899 861.557 585.758C892.038 591.045 921.266 604.486 944.767 625.161C954.992 634.089 964.031 644.429 971.658 655.735C974.569 660.158 977.302 664.689 979.765 669.337C1006.7 719.643 1006.69 783.807 979.064 833.735M210.779 -166.07C255.452 -169.598 300.484 -162.589 341.686 -145.892C381.928 -129.485 418.88 -103.625 446.526 -69.7496C467.572 -43.9962 482.392 -15.6411 490.837 14.6738C498.834 43.0638 501.217 72.5053 498.71 101.626C496.786 123.494 492.222 145.124 485.677 166.554C482.996 175.486 479.937 184.359 476.599 193.255C472.419 204.283 467.718 216.853 464.459 229.858C458.906 251.949 457.007 276.246 469.721 294.403C483.299 313.888 506.318 320.482 529.216 323.532C542.839 325.335 556.543 325.915 569.013 327.351C580.259 328.707 590.861 331.241 600.809 334.862C623.14 343.199 641.703 357.665 654.45 378.345C656.941 382.242 659.179 386.443 661.153 390.854C671.84 414.706 669.447 437.643 665.348 461.385C662.429 478.288 658.784 495.443 658.972 513.665C658.936 514.323 658.993 514.973 659.05 515.622C659.582 536.714 665.143 559.705 679.273 575.868C689.042 587.08 704.257 592.111 719.62 593.481C727.537 594.192 735.475 594.06 742.798 593.327C751.05 592.513 759.245 591.048 767.323 589.314C781.74 586.277 795.898 582.421 810.287 580.135C827.258 577.437 844.255 577.168 860.897 579.268C891.627 583.131 921.747 594.997 946.252 615.398C956.84 624.2 966.258 634.601 974.18 646.068C977.184 650.482 980.018 655.098 982.582 659.832C1010.51 710.892 1010.38 776.844 981.6 827.434M202.851 -161.542C247.956 -165.483 293.565 -159.366 335.453 -143.383C376.372 -127.784 414.228 -102.283 442.617 -68.4728C464.118 -42.8527 479.249 -14.1506 487.658 16.8222C495.501 45.5997 497.268 75.4693 493.926 104.663C491.351 126.587 485.928 148.012 478.624 169.321C475.565 178.193 472.32 187.082 468.695 195.91C464.144 206.97 459.157 219.471 455.627 232.594C449.695 254.624 447.38 279.519 460.017 297.87C473.603 317.447 496.926 324.295 519.899 327.152C533.608 328.854 547.388 329.24 559.926 330.39C571.242 331.459 581.904 333.614 591.828 336.956C614.363 344.434 633.286 357.652 646.795 377.423C649.371 381.22 651.777 385.219 653.93 389.52C665.479 412.549 664.378 435.28 661.03 459.049C658.676 475.997 655.418 493.305 655.8 511.604C655.856 512.254 655.82 512.912 655.877 513.561C656.603 534.73 661.809 557.939 676.141 574.271C686.213 585.737 701.714 590.837 717.356 592.183C725.459 592.878 733.472 592.552 740.974 591.709C749.403 590.786 757.675 589.128 765.821 587.107C780.391 583.683 794.695 579.346 809.128 576.495C826.135 573.139 843.252 572.111 860.1 573.352C891.164 575.689 922.09 586.082 947.601 606.207C958.552 614.884 968.349 625.346 976.565 636.974C979.763 641.465 982.606 646.174 985.263 650.899C1014.2 702.807 1013.94 770.454 983.991 821.613M194.923 -157.015C240.561 -161.282 286.552 -156.134 329.211 -140.967C370.723 -126.075 409.661 -101.042 438.792 -67.2968C460.757 -41.7173 476.284 -12.7692 484.463 18.785C492.153 47.95 493.395 78.2394 489.117 107.421C485.893 129.402 479.517 150.63 471.64 171.802C468.294 180.606 464.67 189.434 460.86 198.278C456.029 209.363 450.57 221.812 446.855 234.95C440.544 256.92 437.713 282.328 450.467 300.949C463.968 320.627 487.686 327.721 510.644 330.392C524.437 331.993 538.201 332.194 550.901 333.049C562.192 333.839 572.922 335.708 582.991 338.57C605.631 345.103 624.928 357.26 639.192 376.03C641.937 379.625 644.521 383.515 646.843 387.614C659.155 409.735 659.353 432.352 656.848 456.141C655.059 473.133 652.096 490.602 652.671 508.978C652.728 509.628 652.692 510.285 652.749 510.935C653.584 532.281 658.621 555.692 672.952 572.024C683.234 583.753 699.03 589.013 714.942 590.242C723.138 590.929 731.422 590.486 739 589.45C747.506 588.333 755.947 586.473 764.178 584.351C778.901 580.539 793.35 575.723 807.835 572.399C824.971 568.377 842.108 566.506 859.169 566.979C890.576 567.883 922.301 576.71 948.715 596.476C960.122 605.02 970.206 615.55 978.717 627.34C982.015 631.915 985.043 636.608 987.717 641.518C1017.57 694.281 1017.26 763.523 986.164 815.437M186.988 -152.58C233.057 -157.26 279.625 -153.004 322.969 -138.551C365.074 -124.365 405.093 -99.8016 434.874 -66.1128C457.304 -40.5737 473.217 -11.4724 481.268 20.7477C488.805 50.3002 489.522 81.0096 484.316 110.272C480.349 132.319 473.215 153.425 464.571 174.384C460.939 183.119 457.028 191.878 452.838 200.662C447.637 211.779 441.891 224.16 437.897 237.323C431.3 259.225 427.86 285.153 440.638 304.052C454.055 323.832 478.16 331.079 501.118 333.75C514.903 335.258 528.837 335.257 541.604 335.825C552.964 336.329 563.763 337.911 573.892 340.393C596.738 346.067 616.394 356.977 631.327 374.846C634.242 378.239 636.995 381.927 639.402 385.926C652.577 407.223 653.973 429.642 652.312 453.451C651.087 470.487 648.511 488.109 649.188 506.57C649.245 507.219 649.209 507.877 649.265 508.527C650.294 529.95 655.069 553.57 669.509 570.08C679.993 581.978 696.092 587.493 712.367 588.596C720.74 589.174 729.117 588.723 736.872 587.578C745.556 586.352 754.074 584.298 762.466 581.881C777.435 577.674 791.944 572.478 806.558 568.489C823.831 563.893 840.988 561.179 858.263 560.885C890.004 560.264 922.636 567.701 949.954 587.108C961.724 595.526 972.188 606.117 980.985 617.975C984.376 622.543 987.513 627.413 990.372 632.307C1021.23 685.825 1020.79 756.854 988.53 809.338M179.06 -148.053C225.653 -153.152 272.613 -149.772 316.728 -136.136C359.51 -122.757 400.425 -98.6455 430.964 -64.8359C453.858 -39.3374 470.074 -9.98195 478.081 22.8032C485.372 52.7514 485.565 83.8808 479.523 113.217C474.907 135.319 466.913 156.221 457.51 177.058C453.591 185.725 449.394 194.416 444.926 203.224C439.345 214.281 433.33 226.779 429.057 239.966C422.072 261.714 418.216 288.24 431.011 307.325C444.343 327.206 468.844 334.699 491.878 337.176C505.748 338.583 519.758 338.388 532.603 338.763C543.946 339.081 554.797 340.191 565.08 342.286C588.03 347.015 608.154 356.855 623.841 373.723C626.841 377.015 629.763 380.501 632.44 384.383C646.386 404.864 649.166 427.069 648.255 450.906C647.596 467.986 645.407 485.762 646.185 504.307C646.242 504.956 646.206 505.614 646.262 506.264C647.392 527.771 651.913 551.695 666.446 568.196C677.233 580.348 693.618 585.932 710.171 587.011C718.73 587.573 727.184 586.928 735.116 585.674C743.969 584.246 752.572 582.091 761.041 579.481C776.163 574.886 790.817 569.21 805.483 564.748C822.793 559.495 840.163 556.013 857.458 554.876C889.441 552.737 922.972 558.693 951.202 577.833C963.428 586.118 974.177 596.777 983.269 608.796C986.762 613.449 989.992 618.311 992.96 623.383C1024.83 677.747 1024.26 750.472 990.836 803.618M171.217 -143.626C218.242 -149.138 265.778 -146.65 310.486 -133.72C353.862 -121.047 395.857 -97.4047 427.047 -63.6518C450.404 -38.1939 466.924 -8.5843 474.894 24.8587C482.031 55.1944 481.7 86.7437 474.823 116.153C469.557 138.312 460.712 159.101 450.542 179.725C446.244 188.331 441.768 197.046 437.099 205.685C431.147 216.774 424.844 229.203 420.386 242.407C413.022 264.095 408.65 291.134 421.469 310.497C434.809 330.47 459.613 338.218 482.631 340.509C496.593 341.908 510.579 341.435 523.585 341.515C534.997 341.546 545.916 342.37 556.167 344.093C579.322 347.963 599.712 356.563 616.162 372.523C619.33 375.614 622.431 378.991 625.184 382.679C639.985 402.243 644.065 424.335 643.904 448.199C643.81 465.324 642.009 483.253 642.887 501.882C642.944 502.532 642.908 503.19 642.965 503.84C644.195 525.432 648.555 549.65 663.189 566.236C674.185 578.65 690.865 584.395 707.781 585.349C716.425 585.81 725.157 585.141 733.175 583.786C742.112 582.257 750.876 579.807 759.514 576.995C774.79 572.013 789.589 565.856 804.392 560.822C821.831 554.902 839.221 550.577 856.729 548.673C889.054 545.101 923.384 549.491 952.619 568.356C965.208 576.516 976.337 587.235 985.723 599.416C989.317 604.153 992.648 609.1 995.708 614.164C1028.58 669.375 1027.87 743.702 993.303 797.604M163.29 -139.099C210.839 -145.03 258.851 -143.519 304.244 -131.304C348.306 -119.346 391.29 -96.1639 423.129 -62.4678C447.035 -37.1513 463.865 -7.19471 471.606 26.8296C478.59 57.5528 477.735 89.5221 469.929 119.012C463.921 141.236 454.309 161.811 443.381 182.314C438.796 190.852 434.034 199.499 429.086 208.162C422.762 219.284 416.173 231.645 411.445 244.965C403.702 266.593 398.906 294.136 411.657 313.786C424.912 333.86 450.018 341.862 473.206 343.952C487.253 345.25 501.316 344.583 514.39 344.376C525.777 344.129 536.757 344.573 547.161 345.909C570.421 348.834 591.27 356.272 608.389 371.332C611.727 374.22 614.997 377.395 617.928 380.974C633.499 399.723 638.878 421.701 639.561 445.586C640.032 462.755 638.61 480.743 639.59 499.458C639.646 500.108 639.703 500.757 639.675 501.508C641.1 523.177 645.104 547.613 659.939 564.369C671.146 577.045 688.205 582.851 705.307 583.788C714.136 584.233 722.953 583.463 731.14 581.906C740.247 580.175 749.188 577.616 757.811 574.618C773.332 569.241 788.192 562.705 803.039 557.105C820.606 550.52 838.025 545.444 855.738 542.68C888.398 537.582 923.534 540.499 953.773 559.089C966.725 567.123 978.234 577.903 987.915 590.245C991.601 594.974 995.033 600.006 998.194 605.154C1032.07 661.12 1031.24 737.235 995.5 791.706M155.362 -134.572C203.343 -140.915 251.839 -140.288 298.011 -128.795C342.657 -117.637 386.638 -94.8221 419.219 -61.1909C443.589 -35.9149 460.815 -5.71234 468.419 28.8851C475.25 59.9958 473.777 92.3932 465.128 121.863C458.471 144.144 448.007 164.607 436.405 184.888C431.533 193.357 426.485 201.936 421.25 210.53C414.556 221.684 407.68 233.977 402.673 247.321C394.643 268.881 389.247 297.038 402.106 316.866C415.285 337.133 440.779 345.288 463.958 347.285C478.09 348.482 492.237 347.714 505.279 347.136C516.743 346.695 527.784 346.76 538.239 347.623C561.697 349.596 582.921 355.973 600.802 370.124C604.225 372.912 607.665 375.885 610.765 379.262C627.106 397.195 633.87 418.959 635.303 442.871C636.338 460.084 635.211 478.234 636.385 497.025C636.441 497.675 636.498 498.325 636.563 499.068C638.088 520.821 641.931 545.552 656.767 562.308C668.175 575.154 685.537 581.213 703.002 582.026C712.017 582.454 720.911 581.49 729.368 579.816C738.652 577.976 747.67 575.224 756.462 572.024C772.137 566.258 787.141 559.242 802.033 553.077C819.636 545.834 837.167 539.907 855.094 536.376C888.096 529.845 924.124 531.187 955.174 549.426C968.582 557.327 980.377 568.176 990.353 580.679C994.14 585.493 997.672 590.609 1000.93 595.842C1035.82 652.655 1034.76 730.473 997.96 785.599M147.426 -130.137C195.932 -136.9 244.912 -137.157 291.761 -126.472C337.093 -116.028 382.062 -93.6741 415.301 -60.0068C440.136 -34.7714 457.749 -4.41562 465.223 30.8478C471.901 62.346 469.904 95.1634 460.328 124.714C453.02 147.052 441.604 167.317 429.336 187.47C424.178 195.871 418.843 204.38 413.33 212.999C406.264 224.186 399.009 236.418 393.817 249.779C385.407 271.278 379.587 299.939 392.378 320.054C405.473 340.422 431.354 348.73 454.525 350.634C468.742 351.731 482.873 350.777 496.076 349.904C507.608 349.177 518.624 348.963 529.233 349.439C552.804 350.56 574.479 355.681 593.03 368.932C596.622 371.518 600.231 374.289 603.517 377.65C620.621 394.675 628.776 416.317 630.96 440.258C632.56 457.515 631.821 475.818 633.095 494.694C633.152 495.344 633.217 496.086 633.273 496.736C634.9 518.574 638.48 543.515 653.518 560.44C665.229 573.54 682.793 579.769 700.621 580.456C709.813 580.776 718.892 579.795 727.434 578.02C736.795 575.987 745.983 573.033 754.851 569.639C770.679 563.486 785.736 555.998 800.865 549.345C818.597 541.435 836.156 534.757 854.205 530.468C887.541 522.411 924.375 522.28 956.429 540.244C970.201 548.02 982.468 558.92 992.645 571.593C996.533 576.491 1000.16 581.6 1003.52 586.918C1039.42 644.578 1038.22 723.998 1000.26 779.786M139.499 -125.61C188.436 -132.784 237.9 -133.926 285.527 -123.963C331.452 -114.226 377.495 -92.4333 411.484 -58.738C436.783 -33.5432 454.699 -2.93321 462.129 32.8953C468.654 64.781 466.132 98.0182 455.628 127.65C447.578 150.053 435.403 170.197 422.368 190.136C416.831 198.477 411.209 206.918 405.51 215.553C398.065 226.679 390.54 239.028 385.069 252.414C376.281 273.852 369.944 303.027 382.852 323.411C395.955 343.873 422.139 352.435 445.386 354.145C459.688 355.141 473.879 353.807 487.167 352.833C498.691 352.014 509.845 351.226 520.421 351.331C544.197 351.592 566.231 355.467 585.451 367.817C589.213 370.201 592.906 372.871 596.455 376.022C614.329 392.232 623.775 413.667 626.803 437.628C628.968 454.929 628.616 473.386 629.991 492.346C630.048 492.996 630.113 493.739 630.169 494.388C631.989 516.303 635.316 541.547 650.354 558.472C662.275 571.834 680.218 578.123 698.316 578.694C707.601 579.005 716.858 577.916 725.569 575.939C735.108 573.796 744.372 570.648 753.409 567.053C769.399 560.605 784.6 552.636 799.766 545.325C817.627 536.75 835.307 529.313 853.468 524.172C887.054 514.691 924.787 513.078 957.838 530.674C972.065 538.317 984.619 549.285 995.091 562.12C999.08 567.103 1002.81 572.296 1006.26 577.606C1043.16 636.02 1041.83 717.229 1002.62 773.687M131.563 -121.175C181.033 -128.677 230.972 -130.795 279.278 -121.64C325.796 -112.609 372.919 -91.2853 407.559 -57.6468C433.321 -32.4925 451.633 -1.63648 458.841 34.8661C465.213 67.1393 462.167 100.796 450.734 130.51C442.034 152.969 429 172.908 415.207 192.726C409.383 200.998 403.482 209.464 397.489 217.937C389.673 229.096 381.861 241.376 376.112 254.786C366.944 276.164 360.091 305.852 373.016 326.422C386.033 346.984 412.613 355.792 435.844 357.317C450.23 358.212 464.422 356.878 477.863 355.517C489.447 354.318 500.584 353.345 511.314 353.062C535.194 352.379 557.696 355.183 577.671 366.533C581.602 368.715 585.473 371.276 589.098 374.233C607.742 389.627 618.573 410.848 622.351 434.837C625.081 452.182 625.116 470.792 626.592 489.837C626.649 490.487 626.714 491.229 626.771 491.879C628.7 513.971 631.849 539.324 646.995 556.427C659.127 570.052 677.364 576.502 695.733 576.955C705.204 577.25 714.545 576.06 723.434 573.974C733.15 571.722 742.49 568.381 751.596 564.499C767.832 557.655 783.086 549.214 798.304 541.431C816.201 532.198 833.993 523.909 852.368 518.001C886.288 506.994 924.828 503.908 958.791 521.237C973.381 528.755 986.314 539.784 997.073 552.687C1001.25 557.654 1005.07 562.931 1008.55 568.427C1046.45 627.689 1044.99 710.592 1004.63 767.713M123.728 -116.656C173.629 -124.569 224.146 -127.58 273.137 -119.139C320.332 -110.916 368.36 -89.9517 403.742 -56.378C429.96 -31.3571 448.675 -0.162206 455.747 36.9136C461.965 69.5743 458.302 103.66 446.034 133.446C436.685 155.962 422.799 175.788 408.331 195.384C402.221 203.588 395.941 211.993 389.763 220.483C381.575 231.674 373.477 243.886 367.457 257.413C358.003 278.723 350.634 308.923 363.582 329.771C376.515 350.435 403.49 359.489 426.714 360.921C441.184 361.714 455.453 360.187 468.962 358.539C480.522 357.062 491.821 355.794 502.603 355.039C526.689 353.496 549.549 355.053 570.193 365.503C574.209 367.584 578.249 369.943 582.144 372.783C601.559 387.361 613.774 408.368 618.395 432.376C621.783 449.758 622.02 468.537 623.783 487.651C623.84 488.3 623.905 489.043 623.961 489.693C625.991 511.87 628.886 537.525 644.218 554.612C656.559 568.499 675.177 575.01 693.824 575.438C703.472 575.624 712.991 574.325 721.964 572.138C731.757 569.693 741.36 566.141 750.55 562.158C766.939 554.927 782.338 546.006 797.693 537.65C815.719 527.75 833.539 518.711 852.026 511.952C886.281 499.419 925.72 494.851 960.595 511.914C975.633 519.205 988.861 530.395 999.915 543.46C1004.19 548.511 1008.12 553.873 1011.68 559.361C1050.6 619.47 1049.01 704.068 1007.47 761.759M115.801 -112.128C166.226 -120.462 217.134 -124.348 266.895 -116.723C314.684 -109.207 363.793 -88.7109 399.824 -55.194C426.506 -30.2136 445.609 1.13454 452.552 38.8763C458.617 71.9245 454.429 106.43 441.318 136.196C431.226 158.777 416.573 178.39 401.347 197.865C394.951 206 388.384 214.337 381.919 222.758C373.36 233.982 364.975 246.125 358.677 259.676C348.835 280.833 340.958 311.638 353.931 332.766C366.779 353.53 394.142 362.737 417.45 364.068C432.013 364.854 446.358 363.133 459.928 361.106C471.565 359.434 482.823 357.703 493.673 356.661C517.957 354.165 541.091 354.576 562.497 364.117C566.683 365.996 570.892 368.154 574.872 370.893C595.058 384.656 608.563 405.456 614.028 429.484C617.989 447.003 618.606 465.842 620.461 484.948C620.526 485.69 620.583 486.34 620.647 487.083C622.871 509.336 625.504 535.202 640.852 552.474C653.488 566.522 672.315 573.295 691.325 573.599C701.066 573.777 710.763 572.368 719.906 569.98C729.876 567.425 739.555 563.68 748.814 559.41C765.356 551.792 780.908 542.483 796.308 533.562C814.471 523.089 832.311 513.206 851.003 505.587C885.6 491.622 925.838 485.487 961.625 502.283C977.026 509.449 990.633 520.7 1001.98 533.926C1006.36 539.062 1010.38 544.416 1014.04 549.988C1053.96 610.852 1052.24 697.145 1009.55 755.591M107.865 -107.694C158.815 -116.447 210.206 -121.218 260.654 -114.307C309.128 -107.505 359.225 -87.4701 395.914 -53.9171C423.061 -28.9772 442.559 2.61693 449.365 40.9318C455.369 74.3595 450.564 109.293 436.525 139.14C425.792 161.871 410.271 181.185 394.287 200.54C387.51 208.614 380.75 216.874 374.007 225.32C365.069 236.483 356.406 248.651 349.922 262.218C339.793 283.306 331.408 314.718 344.397 336.03C357.261 356.98 384.919 366.349 408.211 367.495C422.859 368.179 437.187 366.272 450.918 363.95C462.624 361.993 473.95 359.974 484.853 358.461C509.249 355.113 532.843 354.362 555.004 362.901C559.358 364.578 563.745 366.627 567.894 369.164C588.85 382.111 603.74 402.697 609.956 426.753C614.482 444.316 615.477 463.216 617.442 482.499C617.507 483.242 617.563 483.892 617.628 484.634C619.953 506.972 622.331 533.141 637.874 550.489C650.719 564.8 669.925 571.634 689.214 571.913C699.141 572.074 708.922 570.565 718.242 568.067C728.39 565.404 738.146 561.465 747.575 556.993C764.362 548.979 779.967 539.198 795.41 529.712C813.609 518.581 831.562 507.847 850.476 499.554C885.408 484.062 926.452 476.455 963.235 492.883C979 499.924 992.986 511.235 1004.63 524.622C1009.1 529.75 1013.23 535.282 1016.99 540.939C1057.92 602.649 1056.06 690.638 1012.21 749.653M99.9374 -103.166C151.319 -112.332 203.186 -118.079 254.319 -111.883C303.378 -105.881 354.464 -86.3059 391.904 -52.7249C419.514 -27.8256 439.408 4.01458 445.992 43.0036C451.844 76.8188 446.421 112.18 431.547 142.1C420.164 164.888 403.699 184.097 387.04 203.23C379.986 211.329 372.838 219.436 365.909 227.898C356.6 239.094 347.658 251.286 340.896 264.878C330.388 285.905 321.486 317.829 334.5 339.421C347.279 360.471 375.332 370.086 398.701 371.038C413.341 371.629 427.839 369.521 441.638 366.912C453.32 364.676 464.714 362.371 475.77 360.47C500.372 356.263 524.324 354.264 547.155 361.903C551.679 363.379 556.15 365.326 560.469 367.661C582.195 379.793 598.469 400.165 605.435 424.249C610.526 441.856 611.909 460.909 613.975 480.277C614.039 481.019 614.096 481.669 614.254 482.404C616.679 504.826 618.897 531.29 634.439 548.638C647.494 563.211 666.995 570.206 686.554 570.368C696.659 570.42 706.532 568.903 716.022 566.203C726.247 563.346 736.172 559.205 745.677 554.54C762.618 546.139 778.368 535.877 793.956 525.91C812.284 514.114 830.265 502.629 849.385 493.476C884.566 476.56 926.602 467.462 964.289 483.531C980.509 490.439 994.782 501.819 1006.72 515.367C1011.29 520.579 1015.51 526.103 1019.38 531.845C1061.31 594.309 1059.33 684.086 1014.32 743.764M92.0017 -98.7318C143.908 -108.317 196.259 -114.948 248.078 -109.467C297.729 -104.171 349.896 -85.0651 387.986 -51.5409C416.052 -26.7749 436.341 5.3113 442.797 44.9663C448.503 79.2618 442.549 114.95 426.746 144.952C414.62 167.804 397.389 186.8 379.972 205.812C372.63 213.843 365.196 221.881 357.98 230.275C348.3 241.502 339.072 253.626 332.031 267.242C321.144 288.209 311.819 320.638 324.849 342.415C337.544 363.567 365.992 373.428 389.352 374.286C404.077 374.777 418.652 372.475 432.52 369.58C444.278 367.15 455.733 364.465 466.841 362.092C491.547 356.94 515.959 353.779 539.459 360.518C544.068 361.892 548.794 363.537 553.298 365.856C575.795 377.172 593.452 397.329 601.169 421.441C606.825 439.092 608.595 458.299 610.762 477.751C610.826 478.494 610.883 479.144 611.041 479.878C613.66 502.378 615.522 529.059 631.266 546.577C644.625 561.404 664.327 568.568 684.249 568.605C694.447 568.65 704.583 566.922 714.157 564.122C724.559 561.155 734.561 556.821 744.143 551.962C761.237 543.173 777.14 532.524 792.764 521.899C811.221 509.437 829.314 497.1 848.462 487.196C883.978 468.754 926.82 458.184 965.419 473.986C982.003 480.768 996.655 492.208 1008.89 505.918C1013.56 511.215 1017.88 516.823 1021.85 522.65C1064.79 585.962 1062.57 677.349 1016.51 737.773M84.0741 -94.2044C136.412 -104.202 189.339 -111.725 241.836 -107.052C292.174 -102.47 345.329 -83.8242 384.161 -50.3649C412.784 -25.6476 433.283 6.70089 439.694 46.9209C445.248 81.6039 438.769 117.712 422.037 147.795C409.262 170.704 391.179 189.587 373.088 208.378C365.461 216.34 357.74 224.31 350.246 232.727C340.194 243.988 330.679 256.043 323.369 269.776C312.195 290.675 302.26 323.624 315.315 345.68C327.925 366.932 356.676 377.047 380.113 377.712C394.922 378.102 409.489 375.707 423.518 372.517C435.252 369.809 446.767 366.745 457.936 363.992C482.847 357.981 507.618 353.572 531.787 359.411C536.565 360.584 541.376 362.127 546.05 364.245C569.317 374.745 588.274 394.789 596.834 418.92C603.055 436.616 605.12 455.984 607.48 475.513C607.545 476.255 607.694 476.897 607.759 477.64C610.479 500.224 612.18 527.2 628.017 544.71C641.577 559.706 661.668 567.024 681.868 567.036C692.251 567.064 702.471 565.236 712.224 562.326C722.795 559.158 732.974 554.715 742.625 549.569C759.965 540.384 775.92 529.263 791.681 518.065C810.174 504.945 828.388 491.85 847.742 481.086C883.591 461.118 927.24 449.074 966.844 464.601C983.884 471.25 998.822 482.759 1011.35 496.63C1016.11 501.919 1020.54 507.612 1024.61 513.523C1068.55 577.682 1066.21 670.765 1018.98 731.759M76.1466 -89.677C129.009 -100.094 182.327 -108.494 235.602 -104.543C286.533 -100.668 340.77 -82.4906 380.251 -49.088C409.338 -24.4112 430.233 8.18327 436.507 48.9765C441.907 84.047 434.811 120.583 417.237 150.646C403.812 173.612 384.869 192.29 366.02 210.959C358.013 218.861 350.014 226.855 342.317 235.104C331.886 246.304 322.093 258.383 314.504 272.141C302.951 292.979 292.5 326.441 305.579 348.775C318.197 370.12 347.242 380.397 370.764 380.961C385.659 381.25 400.302 378.661 414.399 375.185C426.21 372.282 437.785 368.839 449.014 365.707C474.03 358.751 499.261 353.18 524.192 358.11C529.14 359.081 534.128 360.516 538.971 362.431C563.009 372.116 583.443 391.937 592.66 416.105C599.539 433.836 601.899 453.366 604.36 472.979C604.425 473.722 604.582 474.456 604.639 475.106C607.468 497.868 608.992 524.953 624.845 542.649C638.615 557.907 659 565.386 679.563 565.273C690.124 565.192 700.437 563.356 710.451 560.236C721.107 556.967 731.456 552.322 741.183 546.982C758.676 537.41 774.777 525.809 790.591 514.139C809.212 500.353 827.454 486.506 847.013 474.883C883.205 453.483 927.653 439.872 968.168 455.133C985.571 461.656 1000.89 473.225 1013.71 487.257C1018.57 492.631 1023.1 498.409 1027.26 504.312C1072.21 569.226 1069.74 664.096 1021.35 725.752M68.3037 -85.2505C121.597 -96.0795 175.493 -105.371 229.445 -102.228C281.054 -99.1603 336.186 -81.4354 376.426 -47.9121C405.977 -23.2758 427.268 9.56471 433.405 50.9311C438.652 86.3891 431.031 123.345 412.621 153.481C398.547 176.504 378.753 195.069 359.136 213.525C350.843 221.358 342.557 229.284 334.583 237.557C323.78 248.789 313.709 260.893 305.833 274.582C293.994 295.351 283.026 329.326 296.129 351.939C308.663 373.385 338.104 383.908 361.61 384.286C376.597 384.567 391.215 381.7 405.474 377.929C417.353 374.74 428.905 371.018 440.279 367.405C465.5 359.59 491.089 352.771 516.69 356.801C521.807 357.57 526.88 358.904 531.901 360.711C556.709 369.58 578.434 389.195 588.495 413.382C595.939 431.158 598.686 450.84 601.24 470.446C601.304 471.189 601.462 471.923 601.519 472.573C604.542 495.411 605.718 522.807 621.765 540.579C635.745 556.1 656.509 563.639 677.25 563.418C687.996 563.321 698.487 561.375 708.586 558.155C719.412 554.683 729.837 549.844 739.733 544.303C757.388 534.436 773.633 522.355 789.483 510.027C808.234 495.575 826.496 480.885 846.268 468.494C882.702 445.576 928.141 430.476 969.561 445.377C987.326 451.775 1003.02 463.405 1016.13 477.506C1021.19 482.956 1025.81 488.726 1029.99 494.815C1075.94 560.575 1073.34 657.141 1023.78 719.366M60.3761 -80.7231C114.202 -91.8793 168.481 -102.14 223.212 -99.719C275.413 -97.358 331.627 -80.1018 372.516 -46.6352C402.532 -22.0395 424.21 10.9543 430.133 53.0876C435.227 88.9331 427.082 126.309 407.744 156.526C392.927 179.614 372.366 197.965 351.991 216.3C343.411 224.065 334.746 231.93 326.578 240.127C315.396 251.298 305.046 263.426 296.9 277.233C284.782 298.027 273.206 332.523 286.325 355.321C298.774 376.868 328.61 387.637 352.108 387.922C367.18 388.102 381.883 385.134 396.203 380.983C408.065 377.609 419.762 373.407 431.204 369.508C456.53 360.748 482.579 352.767 508.85 355.896C514.043 356.472 519.378 357.596 524.576 359.293C550.163 367.439 573.264 386.747 584.075 410.962C592.084 428.782 595.219 448.618 597.873 468.308C597.938 469.051 598.096 469.785 598.161 470.528C601.285 493.451 602.292 521.049 618.439 538.906C632.722 554.681 653.688 562.389 674.792 562.042C685.623 561.844 696.291 559.79 706.568 556.46C717.571 552.88 728.073 547.847 738.046 542.112C755.854 531.858 772.151 519.304 788.239 506.487C807.026 491.378 825.408 475.929 845.301 462.78C882.078 438.429 928.324 421.855 970.74 436.388C988.961 442.653 1004.95 454.351 1018.35 468.613C1023.5 474.056 1028.23 480.003 1032.5 486.084C1079.46 552.691 1076.72 650.86 1026.01 713.84M52.4404 -76.2886C106.698 -87.8565 161.553 -99.009 216.962 -97.3959C269.849 -95.7495 327.051 -78.9538 368.59 -45.544C399.062 -21.0816 421.05 12.2591 426.93 54.9575C431.87 91.1905 423.108 128.995 402.935 159.285C387.468 182.429 365.963 200.676 344.914 218.789C336.047 226.485 327.096 234.282 318.649 242.503C307.097 253.707 296.46 265.767 288.128 279.589C275.623 300.23 263.631 335.323 276.775 358.4C289.147 380.141 319.371 391.063 342.945 391.154C358.101 391.233 372.881 388.071 387.269 383.634C399.2 379.973 410.873 375.493 422.368 371.121C447.899 361.502 474.306 352.273 501.339 354.495C506.711 354.961 512.122 355.891 517.49 357.386C543.855 364.81 568.332 383.81 579.894 408.054C588.467 425.918 591.889 445.822 594.838 465.674C594.903 466.416 595.06 467.151 595.125 467.894C598.443 490.893 599.103 518.802 615.352 536.744C629.844 552.781 651.097 560.558 672.572 560.178C683.589 559.964 694.342 557.809 704.788 554.277C715.875 550.596 726.546 545.362 736.681 539.332C754.735 528.682 771.085 515.656 787.217 502.274C806.132 486.498 824.636 470.291 844.641 456.29C881.752 430.413 928.804 412.366 972.132 426.633C990.717 432.773 1007.08 444.531 1020.78 458.954C1026.03 464.482 1030.85 470.421 1035.22 476.586C1083.19 543.948 1080.32 643.904 1028.46 707.547M44.5128 -71.7612C99.2951 -83.7491 154.634 -95.7856 210.729 -94.8871C303.351 -93.345 410.222 -45.3462 423.743 57.013C428.53 93.6336 419.243 131.858 398.134 162.136C382.018 185.337 359.653 203.378 337.938 221.363C316.13 239.356 294.294 258.099 279.272 282.046C266.387 302.627 253.879 338.233 267.039 361.495C279.419 383.329 309.946 394.505 333.504 394.411C361.278 394.416 387.625 383.416 413.353 372.844C439.082 362.272 465.764 351.897 493.559 353.21C526.237 354.752 560.642 376.064 575.543 405.348C585.016 423.881 588.805 444.782 591.828 465.469C595.246 488.554 595.745 516.757 612.086 534.691C626.781 550.897 648.429 558.921 670.175 558.424C693.228 557.906 715.342 548.772 735.062 536.855C774.671 512.817 806.282 477.506 843.735 450.196C881.188 422.887 929.039 403.273 973.372 417.265C999.624 425.541 1021.61 444.945 1037.8 467.569C1086.77 535.778 1083.77 637.429 1030.75 701.642" stroke="url(#paint0_linear_10221_44452)" stroke-width="2" stroke-miterlimit="10"/>
<defs>
<linearGradient id="paint0_linear_10221_44452" x1="232.789" y1="46.6755" x2="986.585" y2="531.508" gradientUnits="userSpaceOnUse">
<stop stop-color="#0057FF"/>
<stop offset="1" stop-color="#CC006E"/>
</linearGradient>
</defs>
</svg>
