<svg width="390" height="609" viewBox="0 0 390 609" fill="none" xmlns="http://www.w3.org/2000/svg">
<path d="M-215 114.689C-196.1 89.7259 -157 83.781 -131.32 101.963C-104.503 120.985 -95.8875 158.384 -70.5087 179.307C-46.1541 199.376 -11.437 200.004 19.1683 193.764C49.7736 187.525 79.204 175.385 110.354 173.166C141.503 170.946 176.636 181.653 191.806 209.51C204.914 233.645 199.786 263.041 198.037 290.415C196.346 317.782 201.316 350.27 225.18 363.435C253.244 378.969 283.965 358.961 311.902 353.966C359.336 345.573 409.929 361.83 441.191 399.017C473.116 436.929 482.006 493.228 463.317 538.94M-209.207 109.786C-189.849 85.746 -151.148 80.3098 -125.496 98.2648C-104.564 112.878 -94.2876 138.336 -78.9689 158.866C-74.5769 164.722 -69.8292 170.189 -64.3132 174.873C-40.2782 195.153 -6.79163 197.024 22.504 192.324C42.5403 189.092 61.9203 183.291 81.5545 179.589C90.6661 177.852 99.7829 176.633 109.137 176.421C121.013 176.133 133.648 177.825 145.672 181.605C163.619 187.258 179.927 197.425 189.346 213.433C191.803 217.566 193.644 221.832 195.101 226.26C201.768 246.629 199.015 269.982 198.151 292.3C198.002 295.829 197.982 299.457 198.024 303.135C198.632 327.634 204.401 353.407 224.089 365.351C227.503 367.412 230.906 368.899 234.423 369.912C247.736 373.881 261.641 371.334 275.628 367.568C286.828 364.542 298.095 360.645 308.978 358.809C311.63 358.372 314.288 357.993 316.954 357.67C331.422 355.975 346.081 356.328 360.306 358.806C390.18 364.107 418.118 379.081 438.23 402.598C444.395 409.793 449.729 417.722 454.139 426.107C472.796 461.368 475.683 505.158 460.514 541.927M-203.356 104.877C-183.592 81.8229 -145.296 76.8386 -119.615 94.5599C-98.6536 108.94 -87.9718 133.945 -72.6032 154.412C-68.2181 160.211 -63.527 165.685 -58.0609 170.433C-34.3954 190.988 -2.03285 194.031 25.9532 190.871C45.0786 188.669 63.4549 184.084 81.9444 181.383C90.537 180.112 99.1348 179.359 108.019 179.548C119.27 179.797 131.336 182.018 143.16 186.053C160.759 192.15 177.246 201.893 187.043 217.222C189.593 221.172 191.59 225.304 193.139 229.547C200.462 249.147 198.731 271.916 198.37 294.115C198.336 297.63 198.315 301.258 198.471 304.922C199.419 329.38 204.473 354.952 223.231 367.297C226.425 369.442 229.721 370.999 233.083 372.146C245.82 376.588 259.29 374.726 273.012 371.625C284.04 369.081 295.341 365.467 306.231 363.688C308.883 363.251 311.542 362.872 314.207 362.549C328.618 360.861 343.193 360.994 357.405 363.359C387.174 368.27 415.198 383.002 435.395 406.28C441.611 413.411 446.931 421.226 451.398 429.605C470.204 464.675 473.141 508.401 457.838 545.013M-197.506 99.9671C-177.278 77.8929 -139.438 73.4242 -113.734 90.855C-92.7365 105.058 -81.5992 129.548 -66.3011 149.908C-61.916 155.707 -57.2249 161.181 -51.8722 165.942C-28.5831 186.716 2.60564 190.994 29.2821 189.374C47.4965 188.204 64.8692 184.833 82.221 183.191C90.2946 182.386 98.3733 182.098 106.739 182.754C117.371 183.595 128.918 186.282 140.486 190.578C157.786 197.057 174.338 206.389 184.52 221.096C187.163 224.862 189.252 228.81 190.952 232.862C198.929 251.692 198.164 273.883 198.363 295.958C198.385 299.465 198.471 303.023 198.684 306.68C200.022 331.033 204.361 356.404 222.083 369.22C225.114 371.442 228.247 373.077 231.395 374.365C243.493 379.229 256.541 378.167 270.099 375.604C280.962 373.597 292.29 370.211 303.131 368.495C305.782 368.058 308.448 367.735 311.057 367.419C325.468 365.731 339.965 365.701 354.093 367.846C383.814 372.36 411.924 386.852 432.144 409.839C438.352 416.913 443.778 424.658 448.239 432.98C467.131 467.809 470.124 511.528 454.808 548.028M-191.656 95.0575C-171.02 73.9698 -133.586 69.953 -107.796 87.1433C-86.7626 101.169 -75.2266 125.15 -59.8787 145.447C-55.4935 151.246 -50.8661 156.67 -45.5632 161.495C-22.5937 182.48 7.36444 188.001 32.7312 187.92C50.0915 187.774 66.4673 185.675 82.6109 184.986C90.1655 184.646 97.6616 184.774 105.622 185.881C115.685 187.252 126.663 190.468 138.032 195.019C155.032 201.879 171.713 210.85 182.217 224.885C184.959 228.524 187.142 232.288 188.99 236.15C197.623 254.21 197.887 275.874 198.583 297.772C198.655 301.217 198.854 304.76 199.124 308.411C200.859 332.716 204.419 357.836 221.218 371.109C224.079 373.352 227.063 375.177 230.047 376.542C241.563 381.823 254.183 381.502 267.476 379.604C278.11 378.086 289.53 374.976 300.384 373.374C303.043 372.994 305.701 372.614 308.31 372.298C322.672 370.674 337.078 370.367 351.242 372.335C380.915 376.451 409.047 390.653 429.36 413.456C435.618 420.467 441.037 428.155 445.548 436.413C464.589 471.052 467.569 514.658 452.182 551.05M-185.806 90.1478C-164.713 69.9831 -127.727 66.5386 -101.915 83.4384C-80.8524 97.2305 -68.8541 120.753 -53.5198 140.936C-49.1416 146.678 -44.5141 152.103 -39.3178 156.998C-16.7178 178.258 12.1232 185.007 36.1735 186.41C52.6298 187.352 67.995 186.411 83.0576 186.773C90.0931 186.899 97.0702 187.493 104.511 189.066C113.956 191.029 124.358 194.718 135.528 199.523C152.172 206.772 168.982 215.382 179.921 228.731C182.756 232.186 185.088 235.759 187.086 239.431C196.373 256.721 197.66 277.8 198.86 299.581C199.045 303.011 199.301 306.548 199.563 310.142C201.689 334.342 204.534 359.261 220.347 372.941C223.045 375.261 225.808 377.171 228.693 378.663C239.626 384.359 251.762 384.788 264.896 383.485C275.359 382.448 286.813 379.621 297.674 378.076C300.332 377.696 302.941 377.38 305.606 377.057C319.911 375.439 334.297 374.963 348.377 376.71C377.945 380.437 406.163 394.398 426.618 416.953C432.926 423.901 438.339 431.532 442.899 439.727C462.09 474.175 465.063 517.724 449.599 553.953M-180.012 85.245C-158.512 66.0668 -121.932 63.0743 -96.0906 79.7404C-74.9353 93.3486 -62.5382 116.362 -47.2109 136.489C-42.8326 142.231 -38.2618 147.662 -33.1222 152.564C-10.8986 174.042 16.7686 182.028 39.5024 184.913C55.0546 186.943 69.3594 187.224 83.3272 188.524C89.8506 189.173 96.3018 190.175 103.217 192.158C112.043 194.714 121.926 198.869 132.846 203.991C149.199 211.678 166.074 219.878 177.391 232.548C180.319 235.819 182.75 239.265 184.898 242.746C194.84 259.266 197.157 279.818 198.902 301.359C199.201 304.776 199.45 308.256 199.826 311.836C202.285 335.939 204.416 360.656 219.249 374.8C221.783 377.198 224.383 379.185 227.112 380.811C237.469 386.98 249.177 388.151 262.04 387.456C272.33 386.9 283.762 384.365 294.637 382.932C297.295 382.553 299.904 382.237 302.52 381.977C316.768 380.366 331.069 379.67 345.128 381.247C374.648 384.577 402.953 398.297 423.437 420.619C429.738 427.509 435.257 435.07 439.811 443.208C459.088 477.416 462.117 520.958 446.576 557.024M-174.169 80.2786C-152.205 62.0801 -116.024 59.5962 -90.2165 75.9787C-69.0319 89.3532 -56.2292 111.915 -40.8589 131.921C-36.4875 137.607 -31.9099 143.095 -26.8837 148.01C-4.9729 169.756 21.4569 178.928 42.9378 183.346C57.5791 186.407 70.8802 187.903 83.7103 190.262C89.7147 191.376 95.6468 192.844 102.1 195.285C110.3 198.378 119.614 203.062 130.335 208.439C146.389 216.507 163.393 224.346 175.031 236.345C178.052 239.432 180.633 242.687 182.88 246.04C193.534 261.784 196.816 281.758 199.066 303.181C199.414 306.534 199.783 310.057 200.209 313.574C203.065 337.628 204.467 362.031 218.327 376.696C220.699 379.171 223.135 381.235 225.708 382.995C235.425 389.587 246.705 391.501 259.41 391.4C269.529 391.326 280.995 389.073 291.876 387.698C294.542 387.375 297.151 387.059 299.759 386.743C314.008 385.132 328.232 384.272 342.213 385.686C371.685 388.619 400.019 402.105 420.589 424.186C426.933 430.957 432.452 438.517 437.112 446.585C456.539 480.602 459.562 524.087 443.943 559.99M-168.319 75.369C-145.955 58.1002 -110.172 56.1251 -84.2787 72.267C-63.0581 85.4644 -49.7999 107.511 -34.4434 127.403C-30.072 133.089 -25.5511 138.584 -20.6314 143.57C0.902996 165.534 26.1589 175.941 46.3302 181.899C60.0607 185.991 72.3013 188.709 84.1003 192.056C89.522 193.586 94.9987 195.57 100.926 198.42C108.507 202.106 117.302 207.255 127.824 212.886C143.579 221.337 160.655 228.821 172.728 240.134C175.848 243.094 178.515 246.109 180.912 249.271C192.227 264.301 196.526 283.635 199.279 304.939C199.741 308.279 200.16 311.738 200.585 315.255C203.775 339.211 204.519 363.406 217.342 378.541C219.494 381.101 221.831 383.292 224.24 385.13C233.375 392.137 244.227 394.793 256.667 395.358C266.614 395.765 278.114 393.796 289.003 392.477C291.668 392.154 294.277 391.838 296.836 391.586C311.027 389.982 325.167 388.902 339.185 390.139C368.559 392.738 396.972 405.927 417.678 427.704C424.072 434.411 429.641 441.908 434.294 449.919C453.87 483.745 456.879 527.117 441.246 562.906M-162.469 70.4593C-139.64 54.1702 -104.313 52.7106 -78.3977 68.5621C-57.1478 81.5258 -43.4274 103.113 -28.0777 122.949C-23.7063 128.635 -19.1922 134.073 -14.3791 139.13C6.77892 161.312 30.861 172.954 49.7794 180.446C62.6557 185.562 73.7792 189.508 84.4903 193.851C89.393 195.846 94.3437 198.239 99.7585 201.612C106.721 205.89 114.941 211.512 125.263 217.398C140.662 226.236 157.924 233.353 170.311 243.937C173.525 246.713 176.348 249.594 178.838 252.572C190.864 266.826 196.079 285.646 199.385 306.768C199.904 310.1 200.372 313.496 200.919 317.056C204.505 340.964 204.47 364.908 216.371 380.501C218.359 383.137 220.476 385.413 222.786 387.377C231.338 394.801 241.762 398.2 253.938 399.429C263.719 400.374 275.247 398.632 286.15 397.426C288.758 397.11 291.431 396.844 293.983 396.535C308.124 394.995 322.237 393.688 336.17 394.705C365.496 396.907 393.988 409.799 414.73 431.399C421.117 438.049 426.736 445.483 431.439 453.43C451.158 487.009 454.167 530.381 438.457 566.007M-156.675 65.5565C-133.44 50.254 -98.518 49.2463 -72.5734 64.8641C-51.2874 77.6508 -37.1682 98.7293 -21.7756 118.445C-17.3543 124.067 -12.9468 129.576 -8.19044 134.639C12.6548 157.09 35.4995 169.918 53.1082 178.949C65.0736 185.096 75.1299 190.208 84.7668 195.659C89.0938 198.127 93.5822 200.979 98.5278 204.753C104.865 209.568 112.572 215.712 122.639 221.859C137.745 231.136 155.065 237.785 167.838 247.747C171.144 250.339 174.117 253.029 176.757 255.817C189.495 269.294 195.675 287.536 199.541 308.533C200.11 311.802 200.699 315.241 201.295 318.737C205.215 342.547 204.515 366.226 215.38 382.29C217.204 385.003 219.158 387.356 221.311 389.455C229.224 397.301 239.227 401.499 251.238 403.267C260.848 404.692 272.41 403.234 283.262 402.092C285.878 401.833 288.486 401.517 291.045 401.265C305.13 399.731 319.159 398.204 333.071 399.051C362.349 400.856 390.87 413.515 411.698 434.874C418.135 441.46 423.797 448.774 428.5 456.721C448.312 490.116 451.37 533.424 435.583 568.887M-150.825 60.6469C-127.133 46.2673 -92.6594 45.8319 -66.6924 61.1592C-45.3771 73.7121 -30.7957 94.3319 -15.4099 113.991C-10.9886 119.613 -6.588 125.065 -1.93816 130.199C18.5307 152.868 40.2514 166.868 56.5007 177.502C67.562 184.737 76.6008 190.951 85.1567 197.453C88.9578 200.33 92.8774 203.711 97.3606 207.945C103.136 213.345 110.267 219.962 120.078 226.37C134.885 236.029 152.334 242.317 165.485 251.6C168.884 254.008 171.957 256.571 174.746 259.168C188.195 271.868 195.348 289.59 199.711 310.411C200.393 313.667 201.032 317.042 201.628 320.538C205.945 344.3 204.523 367.722 214.408 384.249C216.063 386.983 217.861 389.47 219.857 391.703C227.188 399.965 236.763 404.905 248.508 407.338C257.946 409.245 269.486 408.077 280.409 407.042C283.025 406.782 285.64 406.523 288.192 406.214C302.277 404.68 316.228 402.99 330.113 403.61C359.287 405.025 387.894 417.443 408.808 438.562C415.294 445.085 420.949 452.341 425.702 460.225C445.663 493.429 448.708 536.624 432.85 571.98M-144.975 55.7372C-120.875 42.3441 -86.8076 42.3607 -60.7546 57.4474C-39.3466 69.8165 -24.3664 89.9275 -8.99431 109.473C-4.57995 115.038 -0.229165 120.554 4.36396 125.695C24.4565 148.582 45.0033 163.818 59.9996 175.985C70.1501 184.251 78.1217 191.63 85.6034 199.24C88.8786 202.527 92.286 206.43 96.3 211.066C101.457 217.059 108.012 224.149 117.68 230.804C132.188 240.844 149.767 246.771 163.239 255.383C166.794 257.657 169.953 259.979 172.841 262.449C187.002 274.372 195.121 291.516 199.988 312.219C200.726 315.468 201.415 318.78 202.125 322.262C206.831 345.919 204.688 369.083 213.544 386.138C215.035 388.949 216.669 391.514 218.51 393.88C225.251 402.502 234.348 408.248 245.936 411.275C255.202 413.663 266.776 412.779 277.705 411.8C280.321 411.541 282.937 411.282 285.495 411.029C299.524 409.503 313.39 407.593 327.262 408.099C356.387 409.117 385.08 421.295 406.08 442.173C412.56 448.639 418.265 455.832 423.067 463.652C443.171 496.608 446.216 539.803 430.338 574.989M-139.125 50.8275C-114.561 38.4141 -80.8922 38.9394 -54.8736 53.7425C-33.4295 65.9346 -18.0505 85.5369 -2.6355 104.962C1.77887 110.528 6.12278 115.986 10.6094 121.198C30.3891 144.353 49.6985 160.774 63.3852 174.482C72.6815 183.772 79.5222 192.266 85.9298 200.985C88.6859 204.737 91.5743 209.106 95.0693 214.207C99.6073 220.793 105.644 228.349 115.055 235.266C129.208 245.694 146.915 251.26 160.766 259.193C164.414 261.283 167.672 263.478 170.703 265.7C185.569 276.79 194.603 293.421 200.024 313.942C200.869 317.119 201.621 320.481 202.381 323.9C207.477 347.452 204.619 370.415 212.495 387.933C213.824 390.823 215.238 393.471 216.922 395.972C223.08 405.009 231.756 411.554 243.072 415.19C252.11 418.066 263.775 417.459 274.662 416.6C277.284 416.398 279.9 416.138 282.395 415.836C296.366 414.316 310.213 412.236 324 412.523C353.077 413.144 381.799 425.087 402.885 445.725C409.415 452.127 415.169 459.257 419.972 467.077C440.225 499.843 443.32 542.974 427.308 578.004M-133.331 45.9247C-108.36 34.4979 -75.0972 35.4751 -49.0493 50.0445C-27.5759 62.0028 -11.7347 81.1463 3.67349 100.515C8.08786 106.08 12.3751 111.546 16.8049 116.764C36.2083 140.137 54.3439 157.795 66.7777 173.035C75.1631 183.356 81.043 192.945 86.3266 202.836C88.55 206.94 90.9331 211.888 93.9022 217.398C97.8215 224.578 103.289 232.662 112.495 239.777C126.355 250.643 144.177 255.735 158.356 263.053C162.097 264.959 165.505 266.963 168.635 269.058C184.213 279.372 194.22 295.481 200.137 315.827C201.039 318.998 201.898 322.289 202.714 325.701C208.151 349.212 204.621 371.853 211.461 389.843C212.569 392.816 213.877 395.535 215.404 398.17C220.98 407.623 229.228 414.911 240.329 419.148C249.201 422.562 260.894 422.181 271.788 421.38C274.41 421.177 277.026 420.918 279.528 420.672C293.45 419.216 307.205 416.859 321.028 416.969C350.001 417.2 378.802 428.846 399.974 449.243C406.546 455.525 412.301 462.654 417.153 470.411C437.5 502.993 440.644 546.06 424.554 580.927M-127.481 41.0151C-102.053 30.5112 -69.2385 32.0607 -43.1683 46.3396C-21.6588 58.1209 -5.36212 76.7489 10.0323 96.0041C14.4398 101.513 18.7339 107.035 23.0005 112.331C42.0275 135.922 59.039 154.751 70.1134 171.595C77.5879 182.947 82.4504 193.637 86.6031 204.644C88.3074 209.214 90.1149 214.635 92.6784 220.597C95.9721 228.312 100.928 236.919 109.934 244.288C123.495 255.536 141.389 260.274 156.003 266.906C159.837 268.628 163.394 270.441 166.674 272.346C182.963 281.882 193.88 297.421 200.413 317.635C201.429 320.792 202.344 324.077 203.154 327.431C208.981 350.838 204.736 373.278 210.596 391.731C211.541 394.782 212.692 397.635 214.057 400.347C219.05 410.216 226.813 418.253 237.706 423.149C246.407 427.044 258.077 426.954 269.034 426.202C271.657 425.999 274.223 425.804 276.718 425.501C290.583 424.052 304.261 421.532 318.057 421.414C346.981 421.248 375.868 432.654 397.069 452.817C403.635 459.043 409.496 466.101 414.342 473.801C434.83 506.136 437.968 549.147 421.808 583.907M-121.631 36.1054C-95.7958 26.588 -63.3867 28.5895 -37.2306 42.6278C-15.6919 54.1754 1.01045 72.3514 16.398 91.5499C20.8055 97.0585 25.036 102.531 29.2528 107.89C47.967 131.75 63.7411 151.765 73.5626 170.141C80.1829 182.518 84.0846 194.303 86.9999 206.495C88.1784 211.474 89.4736 217.417 91.5112 223.788C94.1862 232.096 98.5659 241.176 107.379 248.856C120.642 260.485 138.665 264.862 153.6 270.822C157.534 272.417 161.184 274.047 164.614 275.761C181.607 284.464 193.496 299.482 200.534 319.577C201.599 322.671 202.571 325.948 203.501 329.346C209.725 352.705 204.751 374.83 209.639 393.804C210.414 396.875 211.408 399.862 212.616 402.709C217.027 412.993 224.362 421.773 235.041 427.27C243.569 431.646 255.274 431.84 266.188 431.208C268.817 431.062 271.376 430.81 273.879 430.564C287.743 429.115 301.337 426.375 315.056 426.094C343.932 425.531 372.848 436.703 394.192 456.618C400.808 462.78 406.662 469.783 411.557 477.419C432.196 509.563 435.327 552.517 419.089 587.113M-115.781 31.1958C-89.4816 22.658 -57.5281 25.1751 -31.3496 38.9229C-9.71803 50.2866 7.38301 67.9539 22.7568 87.039C27.1575 92.4909 31.3948 98.0201 35.4982 103.393C53.836 127.471 68.4363 148.721 76.9481 168.638C82.6576 182.045 85.6054 194.982 87.3263 208.239C88.0356 213.62 88.7619 220.093 90.3372 226.923C92.3935 235.824 96.2542 245.37 104.812 253.31C117.718 265.328 135.927 269.338 151.184 274.625C155.21 276.037 159.009 277.475 162.539 279.062C180.301 286.981 193.106 301.486 200.64 321.406C201.819 324.486 202.841 327.699 203.827 331.09C210.498 354.337 204.753 376.268 208.604 395.713C209.216 398.862 210.047 401.926 211.099 404.907C214.927 415.607 221.784 425.193 232.248 431.291C240.604 436.149 252.343 436.626 263.265 436.051C265.894 435.905 268.46 435.709 270.955 435.407C284.763 433.965 298.279 431.061 312.034 430.603C340.806 429.65 369.808 440.582 391.238 460.257C397.903 466.355 403.807 473.293 408.696 480.873C429.477 512.769 432.608 555.723 416.349 590.15M-109.93 26.2861C-83.2311 18.6782 -51.6196 21.697 -25.4685 35.218C-3.80778 46.348 13.7556 63.5565 29.1225 82.5848C33.5232 88.0367 37.6969 93.5161 41.7504 98.9525C59.7188 123.305 73.1882 145.671 80.3406 167.191C85.1391 181.629 87.1898 195.71 87.7231 210.09C87.9632 215.874 88.064 222.882 89.1701 230.114C90.6077 239.608 93.9494 249.62 102.251 257.822C114.865 270.278 133.133 273.82 148.831 278.478C152.95 279.706 156.899 280.954 160.521 282.357C178.988 289.442 192.709 303.433 200.803 323.227C202.038 326.3 203.174 329.501 204.153 332.835C211.158 355.984 204.748 377.65 207.619 397.559C208.068 400.785 208.736 403.927 209.624 406.984C212.869 418.101 219.299 428.429 229.548 435.129C237.732 440.467 249.506 441.228 260.441 440.767C263.07 440.621 265.636 440.425 268.081 440.186C281.84 438.807 295.321 435.62 308.999 434.999C337.722 433.649 366.81 444.34 388.269 463.781C394.928 469.823 400.875 476.641 405.82 484.214C426.694 515.926 429.875 558.817 413.539 593.08M-104.144 21.3266C-76.9806 14.6983 -45.8314 18.176 -19.6511 31.4633C2.04577 42.4163 20.0079 59.1161 35.4178 78.0241C39.8751 83.4691 43.9922 88.9553 47.9323 94.4055C65.5809 118.97 77.8198 142.578 83.7192 165.631C87.6636 181.093 88.7038 196.333 88.0426 211.778C87.7637 218.027 87.3455 225.501 87.9325 233.199C88.6947 243.293 91.5174 253.77 99.6761 262.219C111.992 275.057 130.388 278.238 146.407 282.225C150.619 283.268 154.668 284.389 158.44 285.601C177.611 291.853 192.255 305.387 200.896 324.943C202.238 327.945 203.43 331.139 204.466 334.466C211.867 357.567 204.792 378.968 206.571 399.355C206.856 402.658 207.361 405.877 208.093 409.069C210.805 420.538 216.757 431.671 226.741 439.037C234.761 444.913 246.568 445.957 257.447 445.503C260.083 445.414 262.649 445.218 265.094 444.979C278.796 443.607 292.2 440.257 305.85 439.409C334.525 437.662 363.636 448.062 385.238 467.256C391.946 473.234 397.886 479.996 402.938 487.498C423.961 519.02 427.129 561.797 410.723 595.953M-98.2936 16.4169C-70.7232 10.7752 -39.9727 14.7616 -13.7134 27.7515C8.01273 38.4708 26.4371 54.7117 41.8333 73.5063C46.2838 78.8946 50.3442 84.3877 54.2344 89.9014C71.5067 114.684 82.6852 139.514 87.1615 164.12C90.2517 180.607 90.3449 197.055 88.4257 213.516C87.6776 220.167 86.6905 228.17 86.8084 236.27C86.945 246.9 89.2554 257.9 97.1581 266.61C109.174 279.829 127.693 282.593 144.041 285.964C148.402 286.817 152.544 287.754 156.408 288.782C176.284 294.201 191.901 307.214 201.102 326.644C202.5 329.64 203.743 332.769 204.892 336.083C212.683 359.079 204.887 380.223 205.693 401.13C205.814 404.511 206.099 407.814 206.731 411.133C208.861 423.017 214.336 434.957 224.154 442.86C232.002 449.218 243.788 450.553 254.736 450.205C257.316 450.123 259.881 449.927 262.327 449.688C276.029 448.316 289.349 444.746 302.978 443.728C331.556 441.647 360.745 451.75 382.433 470.703C389.191 476.618 395.181 483.316 400.226 490.761C421.392 522.036 424.559 564.813 408.076 598.806M-92.4434 11.5073C-64.4091 6.84522 -34.114 11.3471 -7.83236 24.0466C13.9298 34.5889 32.8097 50.3143 48.199 69.0521C52.6495 74.4404 56.7099 79.9335 60.4867 85.461C77.3895 110.518 87.3872 136.527 90.6107 162.666C92.79 180.185 91.9293 197.784 88.8792 215.36C87.6121 222.477 86.0493 230.953 85.7049 239.512C85.2228 250.734 86.9574 262.206 94.6607 271.171C106.321 284.779 124.969 287.181 141.751 289.867C146.212 290.593 150.497 291.282 154.518 292.176C175.155 296.755 191.694 309.311 201.392 328.566C202.904 331.547 204.203 334.67 205.345 337.927C213.534 360.875 205.072 381.754 204.785 403.139C204.743 406.597 204.865 409.978 205.341 413.43C206.888 425.731 211.934 438.413 221.489 446.981C229.108 453.827 240.984 455.439 251.94 455.147C254.519 455.065 257.092 454.926 259.537 454.688C273.182 453.322 286.425 449.589 300.027 448.344C328.556 445.866 357.832 455.729 379.549 474.448C386.293 480.249 392.34 486.94 397.435 494.322C418.694 525.412 421.911 568.126 405.414 602.006M-86.5932 6.59761C-58.1019 2.8585 -28.2623 7.87598 -1.95134 20.3417C19.847 30.7069 39.1255 45.9237 54.5578 64.5412C59.0014 69.8728 63.0051 75.3728 66.7389 81.0206C83.3221 106.289 92.0893 133.541 94.0031 161.22C95.2715 179.769 93.4639 198.576 89.2125 217.161C87.483 224.737 85.3376 233.629 84.4741 242.653C83.3733 254.469 84.589 266.406 92.0362 275.633C103.405 289.678 122.174 291.663 139.278 293.677C143.832 294.219 148.209 294.725 152.387 295.485C173.728 299.23 191.184 311.272 201.442 330.401C203.004 333.319 204.416 336.429 205.615 339.679C214.137 362.529 205.074 383.193 203.75 405.049C203.539 408.527 203.511 412.098 203.823 415.629C204.845 428.338 209.35 441.776 218.752 450.996C226.2 458.323 238.111 460.218 249.016 459.99C251.603 459.965 254.168 459.769 256.614 459.53C270.202 458.172 283.418 454.212 296.949 452.86C325.43 449.986 354.735 459.614 376.538 478.093C383.332 483.83 389.429 490.458 394.517 497.783C415.925 528.683 419.135 571.34 402.561 605.056M-80.7998 1.69481C-27.8936 -3.33295 26.856 19.2116 60.86 60.0372C98.8419 105.675 104.921 163.465 89.4821 218.912C84.3594 237.43 76.6292 263.4 89.4117 280.094C103.421 298.366 129.902 296.079 150.248 298.736C175.63 302.107 196.299 316.925 205.878 341.373C216.214 367.802 201.359 391.009 202.235 417.72C202.674 430.845 206.751 445.026 215.882 454.854C224.879 464.526 240.995 465.508 253.57 464.33C267.108 463.036 280.24 458.855 293.801 457.27C331.03 452.99 370.034 470.479 391.528 501.138C413.079 531.79 416.282 574.39 399.637 608M-85.5087 4.6247C-58.516 1.81526 -31.0529 5.73948 -5.85884 15.6358C18.7905 25.3103 41.3136 40.7095 58.5537 60.9496C71.6955 76.3342 81.1183 93.3203 86.9803 111.313C92.5486 128.306 94.9255 146.03 94.5528 163.858C94.275 177.243 92.3887 190.649 89.2908 204.031C88.0084 209.595 86.4922 215.131 84.8059 220.687C82.6967 227.503 80.2507 235.338 78.6896 243.354C75.9732 257.034 75.6129 271.637 83.6992 282.34C92.4626 293.881 106.465 297.364 120.573 298.878C128.91 299.767 137.277 299.962 144.912 300.764C151.797 301.541 158.366 303.047 164.458 305.359C178.213 310.599 189.734 319.734 197.528 332.774C199.035 335.239 200.393 337.894 201.587 340.627C208.113 355.547 206.329 369.805 203.843 384.435C202.053 394.838 199.93 405.339 200.362 416.508C200.354 416.912 200.402 417.309 200.393 417.713C201.088 430.577 205.06 444.368 213.987 453.933C220.07 460.447 229.313 463.125 238.543 463.791C243.304 464.135 248.108 463.898 252.475 463.369C257.416 462.829 262.302 461.834 267.174 460.726C275.854 458.753 284.373 456.398 293.072 455.056C303.352 453.466 313.768 453.47 323.952 454.884C342.74 457.499 360.928 465.137 375.754 477.325C382.203 482.586 387.955 488.738 392.86 495.509C394.735 498.16 396.503 500.88 398.108 503.679C415.643 533.954 416.952 573.273 401.047 604.434M-90.2812 7.50474C-62.9757 4.42722 -35.2342 7.79978 -9.64139 17.1874C15.3569 26.4168 38.533 41.5067 56.17 61.6987C69.5954 77.049 79.2588 94.1211 85.0555 112.525C90.5378 129.758 92.602 147.751 91.6622 165.647C90.9307 179.086 88.5769 192.435 85.0048 205.701C83.5453 211.229 81.8521 216.729 79.9888 222.249C77.6528 229.092 75.0297 236.891 73.2985 244.928C70.3484 258.579 69.6821 273.507 77.8458 284.372C86.5662 296.034 100.809 299.603 114.904 301.003C123.29 301.829 131.7 301.904 139.372 302.528C146.292 303.129 152.841 304.464 159.012 306.479C172.868 311.131 184.541 319.615 192.777 332.026C194.383 334.364 195.841 336.892 197.141 339.554C204.179 353.952 203.183 368.057 201.157 382.689C199.715 393.107 197.832 403.694 198.321 414.856C198.312 415.26 198.36 415.657 198.408 416.054C199.167 428.968 203.046 442.943 212.036 452.558C218.253 459.228 227.681 461.999 237.124 462.524C241.991 462.798 246.852 462.554 251.326 461.955C256.366 461.287 261.358 460.222 266.273 458.993C275.047 456.837 283.644 454.184 292.416 452.489C302.761 450.487 313.172 449.974 323.414 450.92C342.326 452.658 361.028 459.312 376.464 471.311C383.133 476.488 389.118 482.669 394.208 489.534C396.139 492.177 397.971 494.948 399.64 497.796C417.803 528.513 419.073 568.93 402.472 600.521M-95.0469 10.4415C-67.4853 7.10276 -39.4086 9.91679 -13.4102 18.8524C11.9868 27.5732 35.7095 42.4242 53.8002 62.5613C67.5022 77.8205 77.3632 95.0988 83.1513 113.906C88.5477 131.38 90.2423 149.648 88.7921 167.606C87.6636 181.093 84.7789 194.334 80.7393 207.541C79.0461 213.041 77.2396 218.554 75.1992 224.038C72.6364 230.909 69.8363 238.671 67.9418 246.785C64.758 260.407 63.8494 275.709 71.9701 286.696C80.6974 298.414 95.1308 302.133 109.269 303.412C117.705 304.175 126.158 304.129 133.866 304.576C140.822 305 147.4 306.102 153.551 307.947C167.515 312.067 179.382 319.78 188.067 331.618C189.723 333.892 191.28 336.293 192.687 338.885C200.237 352.76 200.028 366.712 198.463 381.346C197.367 391.78 195.725 402.453 196.334 413.658C196.382 414.055 196.374 414.459 196.422 414.856C197.301 427.813 200.967 441.929 210.084 451.643C216.492 458.463 226.096 461.271 235.71 461.775C240.69 462.035 245.594 461.671 250.174 461.001C255.321 460.262 260.357 459.077 265.308 457.672C274.167 455.275 282.844 452.325 291.631 450.282C301.985 447.877 312.454 446.896 322.805 447.311C341.89 448.107 361.056 453.842 377.102 465.652C383.991 470.745 390.21 476.955 395.484 483.912C397.535 486.599 399.374 489.426 401.099 492.267C419.899 523.483 421.122 564.941 403.818 596.905M-99.8125 13.3782C-71.9313 9.82815 -43.6398 12.0407 -17.1859 20.4608C8.56002 28.7364 32.9357 43.2782 51.4801 63.3603C65.4657 78.5851 75.5742 96.0061 81.2334 115.175C86.5438 132.889 87.9256 151.425 85.9014 169.395C84.376 182.93 80.9035 196.069 76.5099 209.204C74.6398 214.668 72.5994 220.152 70.4457 225.649C67.7127 232.541 64.6222 240.281 62.6143 248.409C59.1968 262.001 57.9822 277.629 66.1803 288.778C74.8577 300.56 89.5386 304.421 103.663 305.588C112.149 306.286 120.588 306.127 128.389 306.391C135.324 306.644 141.939 307.569 148.168 309.116C162.177 312.656 174.253 319.711 183.379 330.92C185.135 333.067 186.798 335.398 188.305 337.862C196.303 351.165 196.888 365.021 195.84 379.65C195.092 390.099 193.634 400.865 194.363 412.113C194.411 412.51 194.403 412.914 194.451 413.311C195.4 426.374 198.966 440.617 208.084 450.332C214.626 457.308 224.414 460.208 234.191 460.635C239.228 460.888 244.295 460.447 248.918 459.657C254.108 458.798 259.243 457.485 264.244 456.016C273.189 453.379 281.945 450.132 290.754 447.798C301.174 444.982 311.638 443.485 322.104 443.425C341.37 443.336 360.993 448.095 377.586 459.666C384.752 464.668 391.147 470.914 396.605 477.964C398.72 480.7 400.672 483.514 402.411 486.468C421.789 518.189 423.016 560.626 405.023 593.076M-104.585 16.2583C-76.4477 12.447 -47.8211 14.101 -20.9616 22.0691C5.13322 29.8997 30.162 44.1321 49.1034 64.1661C63.3725 79.3566 73.7216 96.8635 79.3154 116.443C84.5399 134.398 85.6089 153.202 83.0176 171.24C81.0385 184.831 77.0986 197.911 72.2307 210.931C70.1836 216.358 67.9662 221.806 65.5788 227.275C62.6189 234.194 59.3514 241.898 57.1734 250.046C53.5789 263.602 52.0017 279.562 60.2203 290.881C68.8479 302.727 83.7694 306.674 97.8936 307.84C106.373 308.482 114.912 308.196 122.748 308.283C129.72 308.359 136.371 309.107 142.629 310.42C156.747 313.429 169.016 319.712 178.534 330.356C180.39 332.376 182.153 334.579 183.71 336.98C192.22 349.761 193.536 363.47 193.005 378.094C192.604 388.559 191.386 399.41 192.179 410.709C192.227 411.106 192.219 411.51 192.267 411.907C193.336 425.013 196.746 439.39 205.934 449.211C212.603 456.287 222.582 459.337 232.579 459.68C237.722 459.862 242.847 459.414 247.576 458.553C252.873 457.624 258.051 456.191 263.144 454.538C272.232 451.653 281.017 448.172 289.892 445.428C300.384 442.258 310.843 440.243 321.423 439.71C340.863 438.678 361.014 442.568 378.153 453.9C385.539 458.818 392.169 465.093 397.803 472.179C399.975 474.909 401.997 477.829 403.85 480.77C423.857 512.932 425.044 556.467 406.348 589.29M-109.351 19.195C-80.9006 15.1157 -52.0522 16.2249 -24.7372 23.6774C1.75627 30.9993 27.3247 44.9362 46.7335 65.0287C61.2862 80.1848 71.826 97.8413 77.4043 117.768C82.4861 135.97 83.2424 155.042 80.1407 173.142C77.7646 186.781 73.2937 199.753 67.9584 212.715C65.7342 218.106 63.3399 223.518 60.7823 229.007C57.5887 235.897 54.158 243.678 51.8098 251.847C47.9747 265.317 46.1552 281.651 54.3876 293.084C62.9653 304.993 78.1342 309.083 92.3014 310.129C100.83 310.707 109.413 310.301 117.292 310.267C124.25 310.23 130.923 310.688 137.268 311.761C151.43 314.188 163.964 319.806 173.923 329.821C175.829 331.777 177.692 333.854 179.412 336.177C188.378 348.442 190.537 361.992 190.467 376.618C190.413 387.098 189.436 398.035 190.292 409.384C190.34 409.781 190.332 410.184 190.38 410.581C191.513 423.738 194.774 438.305 204.018 448.119C210.878 455.345 221.034 458.431 231.201 458.753C236.457 458.922 241.625 458.354 246.461 457.422C251.857 456.366 257.085 454.869 262.222 453.096C271.395 449.971 280.26 446.192 289.157 443.158C299.657 439.584 310.231 437.095 320.807 436.044C340.364 434.077 361.035 437.04 378.728 448.191C386.39 453.017 393.197 459.329 399.015 466.508C401.25 469.287 403.33 472.2 405.252 475.248C425.896 507.909 427.037 552.485 407.644 585.737M-114.066 22.0682C-85.3603 17.7276 -56.1768 18.2783 -28.5129 25.2858C-1.67051 32.1626 24.5509 45.7901 44.3567 65.8345C59.193 80.9563 69.9235 98.7623 75.4932 119.093C80.4891 137.536 80.9326 156.876 77.3205 175.038C74.5474 188.725 69.5524 201.645 63.7428 214.491C61.2849 219.853 58.7204 225.286 56.0357 230.675C52.6153 237.592 49.0075 245.338 46.5459 253.52C42.4771 266.961 40.3517 283.62 48.6046 295.223C57.1893 307.189 72.5489 311.429 86.7024 312.361C95.288 312.933 103.85 312.356 111.822 312.138C118.816 311.924 125.525 312.205 131.842 313.051C146.112 314.948 158.784 319.8 169.192 329.243C171.198 331.072 173.167 333.078 174.93 335.282C184.401 346.967 187.354 360.421 187.745 375.048C188.038 385.544 187.302 396.567 188.222 407.966C188.27 408.363 188.261 408.766 188.309 409.163C189.506 422.37 192.674 437.121 201.982 446.985C208.976 454.367 219.316 457.546 229.702 457.784C235.009 457.889 240.347 457.3 245.232 456.305C250.678 455.185 255.999 453.505 261.235 451.604C270.495 448.238 279.438 444.162 288.408 440.774C298.973 436.789 309.542 433.783 320.233 432.257C339.97 429.406 361.099 431.393 379.402 442.354C387.284 447.097 394.325 453.437 400.327 460.709C402.626 463.538 404.769 466.502 406.748 469.542C428.027 502.701 429.115 548.263 409.033 582.001M-118.832 25.005C-89.8131 20.3963 -60.358 20.3386 -32.2886 26.8941C-5.04057 33.3189 21.7772 46.644 41.98 66.6404C57.1496 81.6642 68.0778 99.6765 73.5186 120.368C78.4285 139.051 78.5592 158.659 74.38 176.89C71.1532 190.632 65.6839 203.437 59.4068 216.225C56.7719 221.551 54.0305 226.947 51.1756 232.357C47.5284 239.302 43.7436 247.012 41.1187 255.271C36.8162 268.683 34.4416 285.66 42.6584 297.44C51.1932 309.469 66.7436 313.858 80.9968 314.664C89.6322 315.171 98.2368 314.474 106.245 314.08C113.219 313.695 119.957 313.742 126.36 314.348C140.675 315.664 153.605 319.795 164.405 328.672C166.51 330.374 168.579 332.253 170.448 334.386C180.375 345.556 184.122 358.914 185.03 373.536C185.67 384.047 185.167 395.1 186.151 406.547C186.199 406.944 186.247 407.342 186.245 407.802C187.562 421.051 190.517 435.943 199.952 445.907C207.08 453.446 217.654 456.654 228.154 456.878C233.574 456.969 238.962 456.317 243.947 455.195C249.493 453.948 254.92 452.197 260.143 450.183C269.545 446.57 278.517 442.26 287.502 438.524C298.133 434.129 308.704 430.662 319.503 428.605C339.414 424.812 361.007 425.88 379.92 436.652C388.022 441.31 395.296 447.68 401.482 455.045C403.838 457.867 406.044 460.88 408.087 463.97C429.995 497.571 431.043 544.231 410.258 578.342M-123.598 27.9417C-94.3227 23.0718 -64.5891 22.4625 -36.0574 28.5591C-8.46736 34.4822 18.9536 47.5616 39.6101 67.5029C55.0633 82.4925 66.2389 100.647 71.6075 121.693C76.4315 140.617 76.1926 160.5 71.4962 178.736C67.8724 192.526 61.879 205.279 55.1844 217.945C52.3724 223.235 49.454 228.595 46.4221 233.969C42.548 240.941 38.5862 248.615 35.7913 256.895C31.3117 270.271 28.5813 287.636 36.8687 299.522C45.3605 311.672 61.1514 316.147 75.3977 316.896C84.083 317.34 92.7374 316.579 100.718 315.958C107.735 315.453 114.502 315.266 120.928 315.581C135.344 316.31 148.482 319.782 159.73 328.088C161.885 329.726 164.054 331.477 166.023 333.483C176.405 344.138 180.996 357.336 182.365 371.96C183.352 382.486 183.033 393.632 184.137 405.123C184.185 405.52 184.233 405.917 184.288 406.37C185.669 419.669 188.531 434.745 197.966 444.709C205.221 452.347 215.985 455.705 226.705 455.845C232.239 455.923 237.669 455.15 242.818 453.951C248.47 452.633 253.94 450.762 259.263 448.621C268.751 444.767 277.803 440.16 286.803 436.077C297.442 431.278 308.065 427.286 318.979 424.756C339.071 420.077 361.177 420.162 380.58 430.702C388.959 435.269 396.41 441.675 402.78 449.133C405.199 452.005 407.469 455.068 409.576 458.208C432.12 492.307 433.064 540.015 411.64 574.549M-128.37 30.8218C-98.7824 25.6838 -68.7704 24.5228 -39.8399 30.1108C-11.8443 35.5818 16.1731 48.3588 37.2334 68.3088C52.9701 83.2639 64.3863 101.505 69.6895 122.961C74.4276 142.126 73.876 162.277 68.6124 180.581C64.5917 194.42 58.0105 207.072 50.9051 219.672C47.9162 224.926 44.8208 230.25 41.6188 235.644C37.5178 242.644 33.3223 250.288 30.4139 258.582C25.7007 271.929 22.7211 289.611 30.9723 301.675C39.4143 313.889 55.4458 318.45 69.6852 319.142C78.4203 319.522 87.061 318.648 95.1346 317.843C102.187 317.161 108.934 316.804 115.446 316.879C129.914 317.083 143.302 319.777 154.943 327.517C157.197 329.028 159.466 330.652 161.548 332.644C172.379 342.726 177.821 355.821 179.65 370.447C180.984 380.989 180.906 392.22 182.073 403.761C182.121 404.158 182.176 404.612 182.224 405.009C183.669 418.358 186.374 433.568 195.937 443.631C203.382 451.419 214.274 454.876 225.214 454.932C230.854 454.939 236.398 454.153 241.596 452.89C247.292 451.452 252.861 449.454 258.227 447.192C267.801 443.098 276.875 438.2 286.011 433.813C296.716 428.603 307.34 424.151 318.313 421.153C338.578 415.533 361.149 414.698 381.162 425.049C389.761 429.532 397.502 435.961 403.999 443.518C406.482 446.44 408.808 449.496 410.979 452.686C434.158 487.284 435.05 535.977 412.93 570.94M-133.136 33.7585C-103.292 28.3593 -73.0016 26.6467 -43.6088 31.7758C-15.2642 36.8017 13.3993 49.2127 34.9202 69.1645C50.9405 84.0853 62.5474 102.476 67.8351 124.279C72.4872 143.684 71.6229 164.103 65.7922 182.477C61.3178 196.37 54.2691 208.964 46.6895 221.449C43.4669 226.673 40.1944 231.961 36.879 237.369C32.5443 244.34 28.1856 252.061 25.1071 260.376C20.1601 273.693 16.8746 291.701 25.2031 303.928C33.652 316.198 49.8742 320.908 64.1566 321.48C72.9416 321.797 81.6115 320.689 89.7349 319.82C96.7808 319.082 103.6 318.371 110.084 318.219C124.66 317.892 138.243 319.814 150.275 326.989C152.63 328.372 154.948 329.933 157.187 331.791C168.473 341.358 174.702 354.3 177.048 368.921C178.729 379.478 178.892 390.796 180.123 402.386C180.171 402.783 180.226 403.237 180.274 403.634C181.838 417.026 184.394 432.427 193.957 442.49C201.537 450.434 212.662 453.921 223.765 453.899C229.462 453.9 235.112 453.042 240.411 451.653C246.212 450.144 251.825 448.025 257.29 445.637C266.957 441.358 276.11 436.164 285.255 431.373C296.025 425.752 306.708 420.833 317.732 417.31C338.121 410.812 361.213 409.051 381.829 419.156C390.704 423.548 398.623 430.013 405.304 437.663C407.85 440.635 410.24 443.74 412.467 446.923C436.276 481.963 437.128 531.754 414.255 567.154M-137.908 36.6386C-107.745 31.028 -77.1828 28.707 -47.3913 33.3274C-18.6979 37.9083 10.6187 50.0099 32.5366 69.9136C48.8404 84.8001 60.6948 103.333 65.8605 125.554C70.4267 145.2 69.2494 165.887 62.8516 184.329C57.9803 198.27 50.4006 210.756 42.3536 223.183C38.954 228.371 35.5114 233.679 32.0121 238.995C27.4506 245.993 22.9148 253.678 19.6661 262.013C14.4855 275.301 10.894 293.634 19.2363 305.974C27.6353 318.308 44.105 323.161 58.3737 323.619C67.2085 323.873 75.8784 322.765 84.0878 321.655C91.1629 320.683 97.9682 319.859 104.538 319.466C119.159 318.558 133.007 319.815 145.481 326.361C147.935 327.618 150.359 329.108 152.641 330.846C164.383 339.897 171.455 352.679 174.262 367.301C176.291 377.875 176.694 389.278 177.989 400.918C178.037 401.315 178.092 401.769 178.14 402.166C179.775 415.664 182.224 431.136 191.857 441.306C199.571 449.406 210.88 452.985 222.146 452.887C227.957 452.873 233.657 451.953 239.062 450.492C244.97 448.913 250.626 446.674 256.127 444.109C265.937 439.583 275.112 434.098 284.279 429.017C295.058 422.992 305.792 417.548 316.932 413.552C337.494 406.112 361.05 403.431 382.219 413.354C391.315 417.662 399.467 424.156 406.325 431.842C408.985 434.8 411.439 437.955 413.679 441.252C438.124 476.79 438.929 527.623 415.36 563.453M-142.617 39.5684C-112.198 33.6967 -81.3005 30.8171 -51.1034 34.9856C-22.0112 39.0578 7.85187 50.9206 30.2234 70.7693C46.8039 85.5647 58.9127 104.297 64.0061 126.872C68.4863 146.759 66.9396 167.721 60.0314 186.225C54.7631 200.214 46.6593 212.648 38.1947 224.952C34.6181 230.105 30.9417 235.384 27.329 240.713C22.5407 247.739 17.8279 255.388 14.416 263.8C9.05831 277.052 5.16093 295.709 13.5238 308.22C21.873 320.617 38.5901 325.613 52.8519 326.015C61.7366 326.205 70.4494 324.976 78.6949 323.69C85.7495 322.548 92.6476 321.539 99.2398 320.856C113.969 319.417 128.011 319.903 140.877 325.883C143.381 327.076 145.905 328.439 148.35 330.099C160.548 338.635 168.464 351.257 171.788 365.875C174.22 376.457 174.75 387.959 176.222 399.636C176.27 400.033 176.325 400.487 176.373 400.884C178.072 414.432 180.371 430.094 190.118 440.25C197.966 448.507 209.509 452.116 220.945 451.996C226.862 451.913 232.669 450.921 238.123 449.397C244.075 447.698 249.887 445.325 255.438 442.696C265.333 437.93 274.588 432.147 283.827 426.712C294.671 420.276 305.407 414.372 316.599 409.851C337.335 401.469 361.411 397.862 383.134 407.604C392.5 411.764 400.835 418.35 407.877 426.129C410.601 429.137 413.118 432.343 415.415 435.632C440.496 471.669 441.254 523.543 416.983 559.746M-147.383 42.5052C-116.651 36.3654 -85.5317 32.941 -54.8791 36.5939C-25.438 40.221 5.07815 51.7745 27.8466 71.5751C44.7108 86.3362 57.0601 105.155 62.0882 128.14C66.4824 148.267 64.623 169.498 57.1975 188.007C51.4754 202.051 42.8974 214.369 33.9653 226.616C30.2117 231.732 26.3584 236.975 22.5686 242.268C17.5535 249.321 12.6637 256.934 9.08162 265.367C3.48336 278.533 -0.713069 297.572 7.67044 310.253C15.9698 322.714 32.9275 327.795 47.2391 328.133C56.1805 328.316 64.9363 326.968 73.2111 325.448C80.3086 324.185 87.1724 322.893 93.8007 322.033C108.632 320.006 122.818 319.784 136.132 325.192C138.736 326.257 141.36 327.493 143.855 329.09C156.508 337.11 165.211 349.58 169.052 364.192C171.839 374.846 172.602 386.378 174.131 398.048C174.186 398.502 174.234 398.899 174.289 399.352C176.108 412.943 178.251 428.74 188.011 439.009C196.043 447.359 207.72 451.124 219.376 450.92C225.35 450.83 231.263 449.768 236.818 448.117C242.875 446.347 248.731 443.854 254.318 441.048C264.299 436.041 273.64 430.018 282.894 424.235C293.811 417.446 304.542 411.024 315.841 405.972C336.758 396.705 361.291 392.122 383.568 401.681C393.153 405.757 401.723 412.373 408.948 420.245C411.735 423.302 414.31 426.501 416.67 429.84C442.38 466.319 443.092 519.234 418.131 555.923M-152.156 45.3852C-121.11 38.9773 -89.713 35.0013 -58.6548 38.2023C-28.8081 41.3774 2.3044 52.6284 25.4767 72.4377C42.6244 87.1644 55.2212 106.125 60.1771 129.465C64.5421 149.826 62.3131 171.331 54.3206 189.909C48.2084 204.058 39.0925 216.211 29.693 228.399C25.7056 233.486 21.732 238.686 17.7721 244C12.5233 251.024 7.46336 258.658 3.76788 267.104C-2.00738 280.234 -6.50288 299.654 1.89437 312.449C10.2074 325.023 27.3491 330.198 41.647 330.422C50.6381 330.541 59.3803 329.08 67.7478 327.375C74.8814 325.936 81.7813 324.467 88.432 323.316C103.314 320.765 117.758 319.821 131.515 324.6C134.218 325.539 136.948 326.704 139.543 328.174C152.651 335.678 162.198 347.988 166.5 362.602C169.634 373.272 170.631 384.833 172.23 396.609C172.285 397.063 172.333 397.46 172.388 397.914C174.271 411.555 176.264 427.542 186.145 437.854C194.311 446.36 206.221 450.154 218.048 449.93C224.135 449.826 230.098 448.701 235.759 446.979C241.923 445.139 247.822 442.525 253.508 439.592C263.632 434.337 272.995 428.024 282.265 421.894C293.191 414.701 303.973 407.755 315.395 402.286C336.485 392.077 361.483 386.574 384.362 395.888C394.167 399.879 402.971 406.524 410.38 414.489C413.224 417.54 415.869 420.845 418.293 424.234C444.638 461.211 445.304 515.168 419.64 552.23M-156.921 48.322C-125.62 41.6529 -93.9509 37.0684 -62.4872 39.8175C-32.2985 42.4907 -0.589617 53.4394 23.0433 73.2504C40.4745 87.9428 53.3187 107.046 58.1526 130.804C62.4317 151.405 59.8332 173.185 51.3302 191.825C44.8211 206.022 35.1243 218.131 25.3072 230.197C21.1497 235.304 16.9355 240.418 12.8622 245.746C7.38652 252.797 2.15647 260.451 -1.70914 268.919C-7.71811 282.019 -12.5195 301.764 -4.10168 314.729C4.16154 327.367 21.5506 332.684 35.8915 332.788C44.8758 332.851 53.7176 331.262 62.1212 329.381C69.2343 327.771 76.1702 326.125 82.9069 324.733C97.8976 321.651 112.536 319.936 126.684 324.149C129.487 324.961 132.267 326.063 134.962 327.405C148.525 334.394 158.916 346.544 163.679 361.16C167.159 371.845 168.397 383.492 170.06 395.318C170.115 395.772 170.163 396.169 170.275 396.616C172.221 410.307 174.122 426.478 184.002 436.79C192.302 445.453 204.396 449.34 216.386 449.038C222.58 448.863 228.6 447.731 234.36 445.883C240.568 443.922 246.565 441.181 252.295 438.128C262.505 432.632 271.947 426.022 281.296 419.595C292.287 411.991 303.071 404.584 314.601 398.584C335.815 387.497 361.39 381.061 384.816 390.136C394.898 394.036 403.879 400.717 411.472 408.775C414.38 411.875 417.081 415.174 419.569 418.613C446.543 456.032 447.169 511.087 420.809 548.578M-161.694 51.202C-130.08 44.2648 -98.1322 39.1288 -66.2628 41.4258C-35.7253 43.654 -3.36335 54.2933 20.6665 74.0562C38.3744 88.6575 51.4661 107.904 56.2346 132.072C60.4346 152.971 57.5165 174.962 48.4464 193.671C41.4836 207.923 31.3125 219.916 21.028 231.924C16.6935 236.995 12.3023 242.073 8.05202 247.364C2.34944 254.443 -3.05758 262.061 -7.09333 270.549C-13.336 283.621 -18.3866 303.684 -9.95505 316.762C-1.74167 329.463 15.8948 334.923 30.2288 334.97C39.263 334.969 48.1478 333.26 56.5875 331.202C63.7435 329.472 70.7087 327.592 77.4678 325.91C92.5032 322.247 107.399 319.81 121.939 323.458C124.792 324.206 127.722 325.117 130.53 326.446C144.549 332.919 155.783 344.909 161.006 359.527C164.834 370.227 166.313 381.961 168.039 393.837C168.094 394.29 168.142 394.687 168.254 395.134C170.32 408.868 172.008 425.18 182.016 435.592C190.506 444.404 202.728 448.391 214.938 448.005C221.188 447.823 227.364 446.557 233.175 444.645C239.489 442.614 245.529 439.753 251.302 436.579C261.598 430.843 271.126 423.992 280.484 417.161C291.54 409.146 302.375 401.216 313.907 394.755C335.295 382.726 361.334 375.37 385.313 384.263C395.615 388.079 404.829 394.79 412.607 402.94C415.578 406.091 418.343 409.439 420.894 412.928C448.504 450.845 449.02 506.891 422.028 544.863M-166.459 54.1388C-134.589 46.9404 -102.307 41.2458 -70.0385 43.0341C-39.0953 44.8103 -6.13709 55.1472 18.3465 74.8552C36.3947 89.4153 49.6203 108.818 54.3734 133.333C58.4874 154.473 55.2565 176.732 45.6193 195.509C38.2595 209.809 27.5643 221.751 16.8622 233.637C12.3507 238.672 7.78252 243.714 3.3621 249.026C-2.56732 256.132 -8.15136 263.714 -12.3504 272.279C-18.7701 285.315 -24.1833 305.709 -15.7311 318.957C-7.56758 331.722 10.2597 337.332 24.6367 337.259C33.7207 337.195 42.5986 335.429 51.1311 333.186C58.2665 331.286 65.261 329.173 72.0492 327.257C87.193 323.063 102.283 319.854 117.215 322.937C120.167 323.558 123.147 324.405 126.055 325.607C140.529 331.565 152.558 343.459 158.298 358.071C162.473 368.787 164.136 380.613 165.982 392.532C166.037 392.986 166.142 393.376 166.197 393.83C168.327 407.613 169.922 424.109 179.986 434.514C188.604 443.426 201.066 447.499 213.446 447.092C219.81 446.897 226.036 445.567 231.953 443.585C238.366 441.426 244.514 438.495 250.323 435.144C260.761 429.161 270.312 422.019 279.742 414.834C290.806 406.415 301.7 398.017 313.34 391.025C334.902 378.055 361.405 369.78 385.994 378.483C396.573 382.208 405.964 388.955 413.925 397.198C416.953 400.342 419.781 403.74 422.397 407.279C450.642 445.694 451.112 502.782 423.417 541.126M-171.225 57.0756C-139.042 49.609 -106.538 43.3696 -73.8073 44.6992C-42.5153 46.0303 -8.90392 56.0579 15.9766 75.7178C34.3084 90.2435 47.7815 109.789 52.4623 134.658C56.4904 156.038 52.89 178.573 42.7355 197.355C34.9787 211.703 23.7525 223.537 12.583 235.364C7.8378 240.369 3.09948 245.432 -1.44811 250.644C-7.61124 257.721 -13.3654 265.324 -17.7346 273.91C-24.388 286.916 -30.1071 307.636 -21.6343 321.054C-13.4639 333.875 4.54717 339.578 18.974 339.441C28.1078 339.313 37.0287 337.427 45.5974 335.008C52.7757 332.987 59.7994 330.64 66.6169 328.491C81.8054 323.716 97.1537 319.785 112.534 322.295C115.586 322.789 118.672 323.566 121.68 324.64C136.61 330.083 149.539 341.81 155.683 356.431C160.262 367.156 162.108 379.075 164.018 391.044C164.073 391.497 164.185 391.944 164.233 392.341C166.433 406.231 167.922 422.797 178 433.316C186.751 442.385 199.397 446.55 211.997 446.059C218.468 445.794 224.751 444.457 230.824 442.34C237.287 440.118 243.534 437.06 249.386 433.589C259.911 427.365 269.54 419.925 278.993 412.45C290.122 403.621 301.018 394.762 312.767 387.239C334.509 373.383 361.469 364.132 386.612 372.654C397.411 376.295 407.035 383.07 415.18 391.406C418.272 394.6 421.164 398.048 423.836 401.58C452.71 440.437 453.14 498.623 424.749 537.397M-175.941 59.9487C-143.502 52.221 -110.662 45.4231 -77.5332 46.2439C-45.8424 47.0663 -11.6914 56.7984 13.6565 76.5167C32.2719 91.0081 45.9924 110.696 50.6011 135.919C54.5432 157.54 50.63 180.343 39.9652 199.187C31.8114 213.583 20.061 225.365 8.41721 237.077C3.49501 242.047 -1.42033 247.073 -6.13805 252.306C-12.528 259.41 -18.4523 267.034 -22.9985 275.584C-29.8289 288.554 -35.854 309.598 -27.3606 323.186C-19.24 336.071 -0.98143 341.916 13.4317 341.667C22.6222 341.532 31.5225 339.475 40.184 336.872C47.3984 334.674 54.4015 332.157 61.2981 329.711C76.5949 324.405 92.1374 319.702 107.91 321.647C111.061 322.013 114.198 322.727 117.311 323.731C132.697 328.658 146.413 340.232 153.074 354.848C158 365.588 160.087 377.593 162.054 389.555C162.109 390.009 162.221 390.456 162.269 390.853C164.589 404.786 165.871 421.55 176.07 432.111C184.956 441.336 197.835 445.531 210.542 444.97C217.126 444.69 223.515 443.283 229.638 441.103C236.201 438.754 242.491 435.575 248.443 431.977C259.06 425.569 268.769 417.832 278.23 409.953C289.425 400.713 300.316 391.337 312.179 383.339C334.038 368.549 361.576 358.365 387.265 366.647C398.284 370.204 408.142 377.009 416.464 385.381C419.676 388.617 422.625 392.058 425.31 395.704C454.821 435.06 455.204 494.287 426.11 533.434M-180.706 62.8855C-147.948 54.9464 -114.893 47.547 -81.302 47.909C-49.2623 48.2863 -14.4583 57.7091 11.2867 77.3793C30.1855 91.8363 44.1467 111.61 48.6402 137.308C52.4964 159.169 48.2704 182.24 37.0384 201.153C28.4309 215.604 16.2063 227.271 4.09503 238.924C-1.00417 243.858 -6.15324 248.855 -10.9912 254.045C-17.6149 261.12 -23.7094 268.764 -28.4188 277.391C-35.4193 290.382 -41.807 311.758 -33.2999 325.459C-25.2292 338.408 -6.72314 344.396 7.68308 344.089C16.9235 343.891 25.8736 341.771 34.5643 338.934C41.765 336.623 48.8472 333.808 55.7798 331.185C71.1214 325.298 86.9218 319.873 103.086 321.253C106.281 321.499 109.573 322.079 112.794 323.012C128.641 327.48 143.194 338.838 150.316 353.456C155.589 364.211 157.917 376.302 159.947 388.314C160.002 388.768 160.114 389.215 160.169 389.668C162.553 403.651 163.735 420.542 173.997 431.154C183.074 440.528 196.081 444.822 209.007 444.177C215.641 443.834 222.137 442.357 228.367 440.106C235.036 437.686 241.369 434.387 247.364 430.669C258.067 424.02 267.798 415.993 277.395 407.81C288.598 398.166 299.548 388.322 311.47 379.857C333.509 364.182 361.511 353.078 387.804 361.115C399.099 364.581 409.135 371.422 417.64 379.887C420.909 383.116 423.928 386.664 426.67 390.302C456.816 430.157 457.146 490.369 427.363 530.002M-185.479 65.7655C-152.464 57.5652 -119.075 49.6073 -85.0845 49.4606C-52.6392 49.3859 -17.2389 58.5063 8.90305 78.1284C28.0786 92.4944 42.2374 112.475 46.7153 138.519C50.4856 160.621 45.8901 183.967 34.1477 202.941C25.1433 217.441 12.3378 229.063 -0.191045 240.594C-5.46725 245.492 -10.7933 250.453 -15.8014 255.663C-22.652 262.766 -28.9234 270.374 -33.7463 279.015C-40.9874 291.919 -47.6174 313.67 -39.0897 327.542C-31.0619 340.611 -12.3153 346.685 2.13385 346.258C11.4241 345.996 20.4172 343.755 29.144 340.741C36.3808 338.253 43.4424 335.269 50.3974 332.355C65.8472 325.937 81.8418 319.741 98.4545 320.548C101.756 320.724 105.091 321.183 108.411 321.989C124.721 325.998 140.111 337.14 147.694 351.759C153.314 362.53 155.819 374.657 158.033 386.762C158.088 387.216 158.199 387.662 158.254 388.116C160.759 402.142 161.735 419.231 172.061 429.892C181.271 439.423 194.455 443.753 207.609 443.081C214.355 442.724 220.901 441.183 227.231 438.805C233.95 436.322 240.383 432.895 246.47 428.993C257.316 422.097 267.069 413.779 276.682 405.249C287.951 395.194 298.959 384.883 310.932 375.894C333.145 359.277 361.611 347.254 388.457 355.108C399.973 358.49 410.242 365.36 418.931 373.918C422.263 377.197 425.339 380.738 428.145 384.426C458.92 424.722 459.211 486.033 428.731 526.096M-190.245 68.7023C-156.917 60.2339 -123.249 51.7243 -88.8533 51.1256C-32.0585 50.1731 34.4211 77.3967 44.8042 139.844C48.4886 162.187 43.5803 185.801 31.2639 204.787C21.8625 219.335 8.526 230.848 -4.41354 242.314C-17.4098 253.787 -30.4078 265.72 -39.1236 280.702C-46.5984 293.577 -53.5344 315.653 -44.9929 329.638C-36.9583 342.764 -18.0209 348.987 -3.58549 348.447C13.4363 347.881 29.3571 340.601 44.9084 333.595C60.4597 326.589 76.5987 319.685 93.66 319.92C113.718 320.195 135.24 332.551 144.972 350.19C151.158 361.353 153.908 374.083 156.184 386.698C158.752 400.774 159.635 418.046 170.018 428.701C179.355 438.331 192.787 442.804 206.103 442.054C220.221 441.265 233.586 435.215 245.427 427.508C269.209 411.966 287.858 389.681 310.252 372.178C332.645 354.676 361.569 341.677 389.025 349.342C405.283 353.876 419.156 365.316 429.541 378.848C460.952 419.642 461.196 481.995 430.014 522.43" stroke="url(#paint0_linear_10221_44971)" stroke-width="2" stroke-miterlimit="10"/>
<defs>
<linearGradient id="paint0_linear_10221_44971" x1="-72.4332" y1="137.422" x2="399.439" y2="419.119" gradientUnits="userSpaceOnUse">
<stop stop-color="#0057FF"/>
<stop offset="1" stop-color="#CC006E"/>
</linearGradient>
</defs>
</svg>
