<svg width="32" height="33" viewBox="0 0 32 33" fill="none" xmlns="http://www.w3.org/2000/svg">
<g id="Business &#38; Payments">
<path id="Vector" d="M4 30.0833V3.41663L6 5.41663L8 3.41663L10 5.41663L12 3.41663L14 5.41663L16 3.41663L18 5.41663L20 3.41663L22 5.41663L24 3.41663L26 5.41663L28 3.41663V30.0833L26 28.0833L24 30.0833L22 28.0833L20 30.0833L18 28.0833L16 30.0833L14 28.0833L12 30.0833L10 28.0833L8 30.0833L6 28.0833L4 30.0833ZM8 23.4166H24V20.75H8V23.4166ZM8 18.0833H24V15.4166H8V18.0833ZM8 12.75H24V10.0833H8V12.75Z" fill="#0057FF"/>
</g>
</svg>
