<svg width="64" height="64" viewBox="0 0 64 64" fill="none" xmlns="http://www.w3.org/2000/svg">
<path d="M46.7468 20.7197C46.5601 20.693 46.3734 20.693 46.1868 20.7197C42.0534 20.5863 38.7734 17.1997 38.7734 13.0397C38.7734 8.79967 42.2134 5.33301 46.4801 5.33301C50.7201 5.33301 54.1868 8.77301 54.1868 13.0397C54.1601 17.1997 50.8801 20.5863 46.7468 20.7197Z" fill="#0D2244"/>
<path d="M55.4402 39.2011C52.4535 41.2011 48.2668 41.9477 44.4002 41.4411C45.4135 39.2544 45.9468 36.8277 45.9735 34.2677C45.9735 31.6011 45.3868 29.0677 44.2668 26.8544C48.2135 26.3211 52.4002 27.0677 55.4135 29.0677C59.6268 31.8411 59.6268 36.4011 55.4402 39.2011Z" fill="#0D2244"/>
<path d="M17.1731 20.7197C17.3598 20.693 17.5464 20.693 17.7331 20.7197C21.8664 20.5863 25.1464 17.1997 25.1464 13.0397C25.1464 8.77301 21.7064 5.33301 17.4398 5.33301C13.1998 5.33301 9.75977 8.77301 9.75977 13.0397C9.75977 17.1997 13.0398 20.5863 17.1731 20.7197Z" fill="#0D2244"/>
<path d="M17.467 34.2653C17.467 36.852 18.027 39.3053 19.0403 41.5186C15.2803 41.9186 11.3603 41.1187 8.48031 39.2253C4.26698 36.4253 4.26698 31.8653 8.48031 29.0653C11.3336 27.1453 15.3603 26.372 19.147 26.7986C18.0536 29.0386 17.467 31.572 17.467 34.2653Z" fill="#0D2244"/>
<path d="M32.32 42.32C32.1067 42.2933 31.8667 42.2933 31.6267 42.32C26.72 42.16 22.8 38.1333 22.8 33.1733C22.8267 28.1067 26.9067 24 32 24C37.0667 24 41.1734 28.1067 41.1734 33.1733C41.1467 38.1333 37.2534 42.16 32.32 42.32Z" fill="#0D2244"/>
<path d="M23.6535 47.8391C19.6269 50.5324 19.6269 54.9591 23.6535 57.6257C28.2402 60.6924 35.7602 60.6924 40.3469 57.6257C44.3735 54.9324 44.3735 50.5057 40.3469 47.8391C35.7869 44.7724 28.2669 44.7724 23.6535 47.8391Z" fill="#0D2244"/>
</svg>
