<svg width="30" height="30" viewBox="0 0 30 30" fill="none" xmlns="http://www.w3.org/2000/svg">
<path d="M18.375 29.1C17.8 29.675 17.0875 29.9625 16.2375 29.9625C15.3875 29.9625 14.675 29.675 14.1 29.1L0.9 15.9C0.625 15.625 0.40625 15.3 0.24375 14.925C0.08125 14.55 0 14.15 0 13.725V3C0 2.175 0.29375 1.46875 0.88125 0.88125C1.46875 0.29375 2.175 0 3 0H13.725C14.15 0 14.55 0.08125 14.925 0.24375C15.3 0.40625 15.625 0.625 15.9 0.9L29.1 14.1375C29.675 14.7125 29.9625 15.4187 29.9625 16.2562C29.9625 17.0937 29.675 17.8 29.1 18.375L18.375 29.1ZM6.75 9C7.375 9 7.90625 8.78125 8.34375 8.34375C8.78125 7.90625 9 7.375 9 6.75C9 6.125 8.78125 5.59375 8.34375 5.15625C7.90625 4.71875 7.375 4.5 6.75 4.5C6.125 4.5 5.59375 4.71875 5.15625 5.15625C4.71875 5.59375 4.5 6.125 4.5 6.75C4.5 7.375 4.71875 7.90625 5.15625 8.34375C5.59375 8.78125 6.125 9 6.75 9Z" fill="white"/>
</svg>
