<svg width="160" height="160" viewBox="0 0 160 160" fill="none" xmlns="http://www.w3.org/2000/svg">
<g id="QR" clip-path="url(#clip0_2138_74505)">
<g id="Group">
<g id="Group_2">
<path id="Vector" d="M52.0185 8.64777H47.5645V13.1018H52.0185V8.64777Z" fill="#0057FF"/>
</g>
<g id="Group_3">
<path id="Vector_2" d="M56.3466 8.64789H51.8926V13.1019H56.3466V8.64789Z" fill="#0057FF"/>
</g>
<g id="Group_4">
<path id="Vector_3" d="M69.3193 8.64777H64.8652V13.1018H69.3193V8.64777Z" fill="#0057FF"/>
</g>
<g id="Group_5">
<path id="Vector_4" d="M86.6181 8.64777H82.1641V13.1018H86.6181V8.64777Z" fill="#0057FF"/>
</g>
<g id="Group_6">
<path id="Vector_5" d="M90.9404 8.64777H86.4863V13.1018H90.9404V8.64777Z" fill="#0057FF"/>
</g>
<g id="Group_7">
<path id="Vector_6" d="M95.2646 8.64789H90.8105V13.1019H95.2646V8.64789Z" fill="#0057FF"/>
</g>
<g id="Group_8">
<path id="Vector_7" d="M99.5869 8.64777H95.1328V13.1018H99.5869V8.64777Z" fill="#0057FF"/>
</g>
<g id="Group_9">
<path id="Vector_8" d="M112.561 8.64777H108.107V13.1018H112.561V8.64777Z" fill="#0057FF"/>
</g>
<g id="Group_10">
<path id="Vector_9" d="M52.0185 12.9715H47.5645V17.4256H52.0185V12.9715Z" fill="#0057FF"/>
</g>
<g id="Group_11">
<path id="Vector_10" d="M56.3466 12.9714H51.8926V17.4255H56.3466V12.9714Z" fill="#0057FF"/>
</g>
<g id="Group_12">
<path id="Vector_11" d="M60.6689 12.9715H56.2148V17.4256H60.6689V12.9715Z" fill="#0057FF"/>
</g>
<g id="Group_13">
<path id="Vector_12" d="M69.3193 12.9715H64.8652V17.4256H69.3193V12.9715Z" fill="#0057FF"/>
</g>
<g id="Group_14">
<path id="Vector_13" d="M73.6435 12.9715H69.1895V17.4256H73.6435V12.9715Z" fill="#0057FF"/>
</g>
<g id="Group_15">
<path id="Vector_14" d="M77.9677 12.9715H73.5137V17.4256H77.9677V12.9715Z" fill="#0057FF"/>
</g>
<g id="Group_16">
<path id="Vector_15" d="M86.6181 12.9715H82.1641V17.4256H86.6181V12.9715Z" fill="#0057FF"/>
</g>
<g id="Group_17">
<path id="Vector_16" d="M99.5869 12.9715H95.1328V17.4256H99.5869V12.9715Z" fill="#0057FF"/>
</g>
<g id="Group_18">
<path id="Vector_17" d="M116.886 12.9715H112.432V17.4256H116.886V12.9715Z" fill="#0057FF"/>
</g>
<g id="Group_19">
<path id="Vector_18" d="M47.6962 17.2972H43.2422V21.7512H47.6962V17.2972Z" fill="#0057FF"/>
</g>
<g id="Group_20">
<path id="Vector_19" d="M52.0185 17.2972H47.5645V21.7512H52.0185V17.2972Z" fill="#0057FF"/>
</g>
<g id="Group_21">
<path id="Vector_20" d="M60.6689 17.2972H56.2148V21.7512H60.6689V17.2972Z" fill="#0057FF"/>
</g>
<g id="Group_22">
<path id="Vector_21" d="M64.9951 17.2972H60.541V21.7512H64.9951V17.2972Z" fill="#0057FF"/>
</g>
<g id="Group_23">
<path id="Vector_22" d="M69.3193 17.2972H64.8652V21.7512H69.3193V17.2972Z" fill="#0057FF"/>
</g>
<g id="Group_24">
<path id="Vector_23" d="M77.9677 17.2972H73.5137V21.7512H77.9677V17.2972Z" fill="#0057FF"/>
</g>
<g id="Group_25">
<path id="Vector_24" d="M86.6181 17.2967H82.1641V21.7507H86.6181V17.2967Z" fill="#0057FF"/>
</g>
<g id="Group_26">
<path id="Vector_25" d="M90.9404 17.2972H86.4863V21.7512H90.9404V17.2972Z" fill="#0057FF"/>
</g>
<g id="Group_27">
<path id="Vector_26" d="M95.2646 17.297H90.8105V21.7511H95.2646V17.297Z" fill="#0057FF"/>
</g>
<g id="Group_28">
<path id="Vector_27" d="M99.5869 17.2972H95.1328V21.7512H99.5869V17.2972Z" fill="#0057FF"/>
</g>
<g id="Group_29">
<path id="Vector_28" d="M112.561 17.2972H108.107V21.7512H112.561V17.2972Z" fill="#0057FF"/>
</g>
<g id="Group_30">
<path id="Vector_29" d="M47.6962 21.6209H43.2422V26.075H47.6962V21.6209Z" fill="#0057FF"/>
</g>
<g id="Group_31">
<path id="Vector_30" d="M52.0185 21.6209H47.5645V26.075H52.0185V21.6209Z" fill="#0057FF"/>
</g>
<g id="Group_32">
<path id="Vector_31" d="M56.3466 21.6209H51.8926V26.075H56.3466V21.6209Z" fill="#0057FF"/>
</g>
<g id="Group_33">
<path id="Vector_32" d="M64.9951 21.6209H60.541V26.075H64.9951V21.6209Z" fill="#0057FF"/>
</g>
<g id="Group_34">
<path id="Vector_33" d="M73.6435 21.6209H69.1895V26.075H73.6435V21.6209Z" fill="#0057FF"/>
</g>
<g id="Group_35">
<path id="Vector_34" d="M77.9677 21.6209H73.5137V26.075H77.9677V21.6209Z" fill="#0057FF"/>
</g>
<g id="Group_36">
<path id="Vector_35" d="M82.2939 21.6209H77.8398V26.075H82.2939V21.6209Z" fill="#0057FF"/>
</g>
<g id="Group_37">
<path id="Vector_36" d="M95.2646 21.6209H90.8105V26.075H95.2646V21.6209Z" fill="#0057FF"/>
</g>
<g id="Group_38">
<path id="Vector_37" d="M99.5869 21.6209H95.1328V26.075H99.5869V21.6209Z" fill="#0057FF"/>
</g>
<g id="Group_39">
<path id="Vector_38" d="M103.913 21.6209H99.459V26.075H103.913V21.6209Z" fill="#0057FF"/>
</g>
<g id="Group_40">
<path id="Vector_39" d="M112.561 21.6209H108.107V26.075H112.561V21.6209Z" fill="#0057FF"/>
</g>
<g id="Group_41">
<path id="Vector_40" d="M116.886 21.6209H112.432V26.075H116.886V21.6209Z" fill="#0057FF"/>
</g>
<g id="Group_42">
<path id="Vector_41" d="M47.6962 25.9451H43.2422V30.3992H47.6962V25.9451Z" fill="#0057FF"/>
</g>
<g id="Group_43">
<path id="Vector_42" d="M56.3466 25.9453H51.8926V30.3994H56.3466V25.9453Z" fill="#0057FF"/>
</g>
<g id="Group_44">
<path id="Vector_43" d="M69.3193 25.9451H64.8652V30.3992H69.3193V25.9451Z" fill="#0057FF"/>
</g>
<g id="Group_45">
<path id="Vector_44" d="M77.9677 25.9451H73.5137V30.3992H77.9677V25.9451Z" fill="#0057FF"/>
</g>
<g id="Group_46">
<path id="Vector_45" d="M86.6181 25.9456H82.1641V30.3997H86.6181V25.9456Z" fill="#0057FF"/>
</g>
<g id="Group_47">
<path id="Vector_46" d="M90.9404 25.9451H86.4863V30.3992H90.9404V25.9451Z" fill="#0057FF"/>
</g>
<g id="Group_48">
<path id="Vector_47" d="M103.913 25.9451H99.459V30.3992H103.913V25.9451Z" fill="#0057FF"/>
</g>
<g id="Group_49">
<path id="Vector_48" d="M108.235 25.9451H103.781V30.3992H108.235V25.9451Z" fill="#0057FF"/>
</g>
<g id="Group_50">
<path id="Vector_49" d="M116.886 25.9451H112.432V30.3992H116.886V25.9451Z" fill="#0057FF"/>
</g>
<g id="Group_51">
<path id="Vector_50" d="M47.6962 30.2693H43.2422V34.7234H47.6962V30.2693Z" fill="#0057FF"/>
</g>
<g id="Group_52">
<path id="Vector_51" d="M56.3466 30.2693H51.8926V34.7234H56.3466V30.2693Z" fill="#0057FF"/>
</g>
<g id="Group_53">
<path id="Vector_52" d="M64.9951 30.2693H60.541V34.7234H64.9951V30.2693Z" fill="#0057FF"/>
</g>
<g id="Group_54">
<path id="Vector_53" d="M69.3193 30.2693H64.8652V34.7234H69.3193V30.2693Z" fill="#0057FF"/>
</g>
<g id="Group_55">
<path id="Vector_54" d="M73.6435 30.2693H69.1895V34.7234H73.6435V30.2693Z" fill="#0057FF"/>
</g>
<g id="Group_56">
<path id="Vector_55" d="M77.9677 30.2693H73.5137V34.7234H77.9677V30.2693Z" fill="#0057FF"/>
</g>
<g id="Group_57">
<path id="Vector_56" d="M82.2939 30.2693H77.8398V34.7234H82.2939V30.2693Z" fill="#0057FF"/>
</g>
<g id="Group_58">
<path id="Vector_57" d="M99.5869 30.2693H95.1328V34.7234H99.5869V30.2693Z" fill="#0057FF"/>
</g>
<g id="Group_59">
<path id="Vector_58" d="M103.913 30.2693H99.459V34.7234H103.913V30.2693Z" fill="#0057FF"/>
</g>
<g id="Group_60">
<path id="Vector_59" d="M116.886 30.2693H112.432V34.7234H116.886V30.2693Z" fill="#0057FF"/>
</g>
<g id="Group_61">
<path id="Vector_60" d="M47.6962 34.5936H43.2422V39.0476H47.6962V34.5936Z" fill="#0057FF"/>
</g>
<g id="Group_62">
<path id="Vector_61" d="M56.3466 34.5938H51.8926V39.0478H56.3466V34.5938Z" fill="#0057FF"/>
</g>
<g id="Group_63">
<path id="Vector_62" d="M64.9951 34.5936H60.541V39.0476H64.9951V34.5936Z" fill="#0057FF"/>
</g>
<g id="Group_64">
<path id="Vector_63" d="M73.6435 34.5936H69.1895V39.0476H73.6435V34.5936Z" fill="#0057FF"/>
</g>
<g id="Group_65">
<path id="Vector_64" d="M82.2939 34.5936H77.8398V39.0476H82.2939V34.5936Z" fill="#0057FF"/>
</g>
<g id="Group_66">
<path id="Vector_65" d="M90.9404 34.5936H86.4863V39.0476H90.9404V34.5936Z" fill="#0057FF"/>
</g>
<g id="Group_67">
<path id="Vector_66" d="M99.5869 34.5936H95.1328V39.0476H99.5869V34.5936Z" fill="#0057FF"/>
</g>
<g id="Group_68">
<path id="Vector_67" d="M108.235 34.5936H103.781V39.0476H108.235V34.5936Z" fill="#0057FF"/>
</g>
<g id="Group_69">
<path id="Vector_68" d="M116.886 34.5936H112.432V39.0476H116.886V34.5936Z" fill="#0057FF"/>
</g>
<g id="Group_70">
<path id="Vector_69" d="M47.6962 38.9188H43.2422V43.3728H47.6962V38.9188Z" fill="#0057FF"/>
</g>
<g id="Group_71">
<path id="Vector_70" d="M52.0185 38.9188H47.5645V43.3728H52.0185V38.9188Z" fill="#0057FF"/>
</g>
<g id="Group_72">
<path id="Vector_71" d="M60.6689 38.9188H56.2148V43.3728H60.6689V38.9188Z" fill="#0057FF"/>
</g>
<g id="Group_73">
<path id="Vector_72" d="M73.6435 38.9188H69.1895V43.3728H73.6435V38.9188Z" fill="#0057FF"/>
</g>
<g id="Group_74">
<path id="Vector_73" d="M77.9677 38.9188H73.5137V43.3728H77.9677V38.9188Z" fill="#0057FF"/>
</g>
<g id="Group_75">
<path id="Vector_74" d="M103.913 38.9188H99.459V43.3728H103.913V38.9188Z" fill="#0057FF"/>
</g>
<g id="Group_76">
<path id="Vector_75" d="M108.235 38.9188H103.781V43.3728H108.235V38.9188Z" fill="#0057FF"/>
</g>
<g id="Group_77">
<path id="Vector_76" d="M112.561 38.9188H108.107V43.3728H112.561V38.9188Z" fill="#0057FF"/>
</g>
<g id="Group_78">
<path id="Vector_77" d="M13.1025 43.243H8.64844V47.697H13.1025V43.243Z" fill="#0057FF"/>
</g>
<g id="Group_79">
<path id="Vector_78" d="M21.7509 43.243H17.2969V47.697H21.7509V43.243Z" fill="#0057FF"/>
</g>
<g id="Group_80">
<path id="Vector_79" d="M26.0771 43.243H21.623V47.697H26.0771V43.243Z" fill="#0057FF"/>
</g>
<g id="Group_81">
<path id="Vector_80" d="M30.4013 43.2425H25.9473V47.6965H30.4013V43.2425Z" fill="#0057FF"/>
</g>
<g id="Group_82">
<path id="Vector_81" d="M34.7216 43.243H30.2676V47.697H34.7216V43.243Z" fill="#0057FF"/>
</g>
<g id="Group_83">
<path id="Vector_82" d="M39.0478 43.2429H34.5938V47.6969H39.0478V43.2429Z" fill="#0057FF"/>
</g>
<g id="Group_84">
<path id="Vector_83" d="M56.3466 43.2429H51.8926V47.6969H56.3466V43.2429Z" fill="#0057FF"/>
</g>
<g id="Group_85">
<path id="Vector_84" d="M60.6689 43.243H56.2148V47.697H60.6689V43.243Z" fill="#0057FF"/>
</g>
<g id="Group_86">
<path id="Vector_85" d="M64.9951 43.243H60.541V47.697H64.9951V43.243Z" fill="#0057FF"/>
</g>
<g id="Group_87">
<path id="Vector_86" d="M69.3193 43.243H64.8652V47.697H69.3193V43.243Z" fill="#0057FF"/>
</g>
<g id="Group_88">
<path id="Vector_87" d="M73.6435 43.243H69.1895V47.697H73.6435V43.243Z" fill="#0057FF"/>
</g>
<g id="Group_89">
<path id="Vector_88" d="M77.9677 43.243H73.5137V47.697H77.9677V43.243Z" fill="#0057FF"/>
</g>
<g id="Group_90">
<path id="Vector_89" d="M82.2939 43.243H77.8398V47.697H82.2939V43.243Z" fill="#0057FF"/>
</g>
<g id="Group_91">
<path id="Vector_90" d="M86.6181 43.2425H82.1641V47.6965H86.6181V43.2425Z" fill="#0057FF"/>
</g>
<g id="Group_92">
<path id="Vector_91" d="M90.9404 43.243H86.4863V47.697H90.9404V43.243Z" fill="#0057FF"/>
</g>
<g id="Group_93">
<path id="Vector_92" d="M108.235 43.243H103.781V47.697H108.235V43.243Z" fill="#0057FF"/>
</g>
<g id="Group_94">
<path id="Vector_93" d="M112.561 43.243H108.107V47.697H112.561V43.243Z" fill="#0057FF"/>
</g>
<g id="Group_95">
<path id="Vector_94" d="M116.886 43.243H112.432V47.697H116.886V43.243Z" fill="#0057FF"/>
</g>
<g id="Group_96">
<path id="Vector_95" d="M125.534 43.243H121.08V47.697H125.534V43.243Z" fill="#0057FF"/>
</g>
<g id="Group_97">
<path id="Vector_96" d="M129.86 43.243H125.406V47.697H129.86V43.243Z" fill="#0057FF"/>
</g>
<g id="Group_98">
<path id="Vector_97" d="M134.185 43.243H129.73V47.697H134.185V43.243Z" fill="#0057FF"/>
</g>
<g id="Group_99">
<path id="Vector_98" d="M138.511 43.243H134.057V47.697H138.511V43.243Z" fill="#0057FF"/>
</g>
<g id="Group_100">
<path id="Vector_99" d="M142.835 43.243H138.381V47.697H142.835V43.243Z" fill="#0057FF"/>
</g>
<g id="Group_101">
<path id="Vector_100" d="M13.1025 47.5667H8.64844V52.0208H13.1025V47.5667Z" fill="#0057FF"/>
</g>
<g id="Group_102">
<path id="Vector_101" d="M26.0771 47.5667H21.623V52.0208H26.0771V47.5667Z" fill="#0057FF"/>
</g>
<g id="Group_103">
<path id="Vector_102" d="M34.7216 47.5667H30.2676V52.0208H34.7216V47.5667Z" fill="#0057FF"/>
</g>
<g id="Group_104">
<path id="Vector_103" d="M47.6962 47.5667H43.2422V52.0208H47.6962V47.5667Z" fill="#0057FF"/>
</g>
<g id="Group_105">
<path id="Vector_104" d="M60.6689 47.5667H56.2148V52.0208H60.6689V47.5667Z" fill="#0057FF"/>
</g>
<g id="Group_106">
<path id="Vector_105" d="M64.9951 47.5667H60.541V52.0208H64.9951V47.5667Z" fill="#0057FF"/>
</g>
<g id="Group_107">
<path id="Vector_106" d="M73.6435 47.5667H69.1895V52.0208H73.6435V47.5667Z" fill="#0057FF"/>
</g>
<g id="Group_108">
<path id="Vector_107" d="M82.2939 47.5667H77.8398V52.0208H82.2939V47.5667Z" fill="#0057FF"/>
</g>
<g id="Group_109">
<path id="Vector_108" d="M90.9404 47.5667H86.4863V52.0208H90.9404V47.5667Z" fill="#0057FF"/>
</g>
<g id="Group_110">
<path id="Vector_109" d="M95.2646 47.5668H90.8105V52.0208H95.2646V47.5668Z" fill="#0057FF"/>
</g>
<g id="Group_111">
<path id="Vector_110" d="M99.5869 47.5667H95.1328V52.0208H99.5869V47.5667Z" fill="#0057FF"/>
</g>
<g id="Group_112">
<path id="Vector_111" d="M103.913 47.5667H99.459V52.0208H103.913V47.5667Z" fill="#0057FF"/>
</g>
<g id="Group_113">
<path id="Vector_112" d="M108.235 47.5667H103.781V52.0208H108.235V47.5667Z" fill="#0057FF"/>
</g>
<g id="Group_114">
<path id="Vector_113" d="M112.561 47.5667H108.107V52.0208H112.561V47.5667Z" fill="#0057FF"/>
</g>
<g id="Group_115">
<path id="Vector_114" d="M116.886 47.5667H112.432V52.0208H116.886V47.5667Z" fill="#0057FF"/>
</g>
<g id="Group_116">
<path id="Vector_115" d="M125.534 47.5667H121.08V52.0208H125.534V47.5667Z" fill="#0057FF"/>
</g>
<g id="Group_117">
<path id="Vector_116" d="M129.86 47.5667H125.406V52.0208H129.86V47.5667Z" fill="#0057FF"/>
</g>
<g id="Group_118">
<path id="Vector_117" d="M138.511 47.5667H134.057V52.0208H138.511V47.5667Z" fill="#0057FF"/>
</g>
<g id="Group_119">
<path id="Vector_118" d="M142.835 47.5667H138.381V52.0208H142.835V47.5667Z" fill="#0057FF"/>
</g>
<g id="Group_120">
<path id="Vector_119" d="M147.159 47.5667H142.705V52.0208H147.159V47.5667Z" fill="#0057FF"/>
</g>
<g id="Group_121">
<path id="Vector_120" d="M151.481 47.5667H147.027V52.0208H151.481V47.5667Z" fill="#0057FF"/>
</g>
<g id="Group_122">
<path id="Vector_121" d="M13.1025 51.8909H8.64844V56.345H13.1025V51.8909Z" fill="#0057FF"/>
</g>
<g id="Group_123">
<path id="Vector_122" d="M30.4013 51.8909H25.9473V56.345H30.4013V51.8909Z" fill="#0057FF"/>
</g>
<g id="Group_124">
<path id="Vector_123" d="M34.7216 51.8909H30.2676V56.345H34.7216V51.8909Z" fill="#0057FF"/>
</g>
<g id="Group_125">
<path id="Vector_124" d="M39.0478 51.8908H34.5938V56.3449H39.0478V51.8908Z" fill="#0057FF"/>
</g>
<g id="Group_126">
<path id="Vector_125" d="M43.3701 51.8909H38.916V56.345H43.3701V51.8909Z" fill="#0057FF"/>
</g>
<g id="Group_127">
<path id="Vector_126" d="M52.0185 51.8909H47.5645V56.345H52.0185V51.8909Z" fill="#0057FF"/>
</g>
<g id="Group_128">
<path id="Vector_127" d="M56.3466 51.8908H51.8926V56.3449H56.3466V51.8908Z" fill="#0057FF"/>
</g>
<g id="Group_129">
<path id="Vector_128" d="M64.9951 51.8909H60.541V56.345H64.9951V51.8909Z" fill="#0057FF"/>
</g>
<g id="Group_130">
<path id="Vector_129" d="M77.9677 51.8909H73.5137V56.345H77.9677V51.8909Z" fill="#0057FF"/>
</g>
<g id="Group_131">
<path id="Vector_130" d="M90.9404 51.8909H86.4863V56.345H90.9404V51.8909Z" fill="#0057FF"/>
</g>
<g id="Group_132">
<path id="Vector_131" d="M99.5869 51.8909H95.1328V56.345H99.5869V51.8909Z" fill="#0057FF"/>
</g>
<g id="Group_133">
<path id="Vector_132" d="M103.913 51.8909H99.459V56.345H103.913V51.8909Z" fill="#0057FF"/>
</g>
<g id="Group_134">
<path id="Vector_133" d="M108.235 51.8909H103.781V56.345H108.235V51.8909Z" fill="#0057FF"/>
</g>
<g id="Group_135">
<path id="Vector_134" d="M125.534 51.8909H121.08V56.345H125.534V51.8909Z" fill="#0057FF"/>
</g>
<g id="Group_136">
<path id="Vector_135" d="M134.185 51.8909H129.73V56.345H134.185V51.8909Z" fill="#0057FF"/>
</g>
<g id="Group_137">
<path id="Vector_136" d="M142.835 51.8909H138.381V56.345H142.835V51.8909Z" fill="#0057FF"/>
</g>
<g id="Group_138">
<path id="Vector_137" d="M147.159 51.8909H142.705V56.345H147.159V51.8909Z" fill="#0057FF"/>
</g>
<g id="Group_139">
<path id="Vector_138" d="M34.7216 56.2151H30.2676V60.6692H34.7216V56.2151Z" fill="#0057FF"/>
</g>
<g id="Group_140">
<path id="Vector_139" d="M56.3466 56.2151H51.8926V60.6692H56.3466V56.2151Z" fill="#0057FF"/>
</g>
<g id="Group_141">
<path id="Vector_140" d="M60.6689 56.2151H56.2148V60.6692H60.6689V56.2151Z" fill="#0057FF"/>
</g>
<g id="Group_142">
<path id="Vector_141" d="M73.6435 56.2151H69.1895V60.6692H73.6435V56.2151Z" fill="#0057FF"/>
</g>
<g id="Group_143">
<path id="Vector_142" d="M77.9677 56.2151H73.5137V60.6692H77.9677V56.2151Z" fill="#0057FF"/>
</g>
<g id="Group_144">
<path id="Vector_143" d="M95.2646 56.2151H90.8105V60.6692H95.2646V56.2151Z" fill="#0057FF"/>
</g>
<g id="Group_145">
<path id="Vector_144" d="M103.913 56.2151H99.459V60.6692H103.913V56.2151Z" fill="#0057FF"/>
</g>
<g id="Group_146">
<path id="Vector_145" d="M108.235 56.2151H103.781V60.6692H108.235V56.2151Z" fill="#0057FF"/>
</g>
<g id="Group_147">
<path id="Vector_146" d="M112.561 56.2151H108.107V60.6692H112.561V56.2151Z" fill="#0057FF"/>
</g>
<g id="Group_148">
<path id="Vector_147" d="M116.886 56.2151H112.432V60.6692H116.886V56.2151Z" fill="#0057FF"/>
</g>
<g id="Group_149">
<path id="Vector_148" d="M121.212 56.2151H116.758V60.6692H121.212V56.2151Z" fill="#0057FF"/>
</g>
<g id="Group_150">
<path id="Vector_149" d="M134.185 56.2151H129.73V60.6692H134.185V56.2151Z" fill="#0057FF"/>
</g>
<g id="Group_151">
<path id="Vector_150" d="M138.511 56.2151H134.057V60.6692H138.511V56.2151Z" fill="#0057FF"/>
</g>
<g id="Group_152">
<path id="Vector_151" d="M142.835 56.2151H138.381V60.6692H142.835V56.2151Z" fill="#0057FF"/>
</g>
<g id="Group_153">
<path id="Vector_152" d="M147.159 56.2151H142.705V60.6692H147.159V56.2151Z" fill="#0057FF"/>
</g>
<g id="Group_154">
<path id="Vector_153" d="M151.481 56.2151H147.027V60.6692H151.481V56.2151Z" fill="#0057FF"/>
</g>
<g id="Group_155">
<path id="Vector_154" d="M13.1025 60.5403H8.64844V64.9944H13.1025V60.5403Z" fill="#0057FF"/>
</g>
<g id="Group_156">
<path id="Vector_155" d="M26.0771 60.5403H21.623V64.9944H26.0771V60.5403Z" fill="#0057FF"/>
</g>
<g id="Group_157">
<path id="Vector_156" d="M30.4013 60.5403H25.9473V64.9944H30.4013V60.5403Z" fill="#0057FF"/>
</g>
<g id="Group_158">
<path id="Vector_157" d="M39.0478 60.5402H34.5938V64.9943H39.0478V60.5402Z" fill="#0057FF"/>
</g>
<g id="Group_159">
<path id="Vector_158" d="M43.3701 60.5403H38.916V64.9944H43.3701V60.5403Z" fill="#0057FF"/>
</g>
<g id="Group_160">
<path id="Vector_159" d="M60.6689 60.5403H56.2148V64.9944H60.6689V60.5403Z" fill="#0057FF"/>
</g>
<g id="Group_161">
<path id="Vector_160" d="M64.9951 60.5403H60.541V64.9944H64.9951V60.5403Z" fill="#0057FF"/>
</g>
<g id="Group_162">
<path id="Vector_161" d="M77.9677 60.5403H73.5137V64.9944H77.9677V60.5403Z" fill="#0057FF"/>
</g>
<g id="Group_163">
<path id="Vector_162" d="M90.9404 60.5403H86.4863V64.9944H90.9404V60.5403Z" fill="#0057FF"/>
</g>
<g id="Group_164">
<path id="Vector_163" d="M103.913 60.5403H99.459V64.9944H103.913V60.5403Z" fill="#0057FF"/>
</g>
<g id="Group_165">
<path id="Vector_164" d="M121.212 60.5403H116.758V64.9944H121.212V60.5403Z" fill="#0057FF"/>
</g>
<g id="Group_166">
<path id="Vector_165" d="M129.86 60.5403H125.406V64.9944H129.86V60.5403Z" fill="#0057FF"/>
</g>
<g id="Group_167">
<path id="Vector_166" d="M134.185 60.5403H129.73V64.9944H134.185V60.5403Z" fill="#0057FF"/>
</g>
<g id="Group_168">
<path id="Vector_167" d="M138.511 60.5403H134.057V64.9944H138.511V60.5403Z" fill="#0057FF"/>
</g>
<g id="Group_169">
<path id="Vector_168" d="M147.159 60.5403H142.705V64.9944H147.159V60.5403Z" fill="#0057FF"/>
</g>
<g id="Group_170">
<path id="Vector_169" d="M151.481 60.5403H147.027V64.9944H151.481V60.5403Z" fill="#0057FF"/>
</g>
<g id="Group_171">
<path id="Vector_170" d="M13.1025 64.8646H8.64844V69.3186H13.1025V64.8646Z" fill="#0057FF"/>
</g>
<g id="Group_172">
<path id="Vector_171" d="M26.0771 64.8646H21.623V69.3186H26.0771V64.8646Z" fill="#0057FF"/>
</g>
<g id="Group_173">
<path id="Vector_172" d="M34.7216 64.8646H30.2676V69.3186H34.7216V64.8646Z" fill="#0057FF"/>
</g>
<g id="Group_174">
<path id="Vector_173" d="M47.6962 64.8646H43.2422V69.3186H47.6962V64.8646Z" fill="#0057FF"/>
</g>
<g id="Group_175">
<path id="Vector_174" d="M52.0185 64.8646H47.5645V69.3186H52.0185V64.8646Z" fill="#0057FF"/>
</g>
<g id="Group_176">
<path id="Vector_175" d="M60.6689 64.8646H56.2148V69.3186H60.6689V64.8646Z" fill="#0057FF"/>
</g>
<g id="Group_177">
<path id="Vector_176" d="M64.9951 64.8646H60.541V69.3186H64.9951V64.8646Z" fill="#0057FF"/>
</g>
<g id="Group_178">
<path id="Vector_177" d="M69.3193 64.8646H64.8652V69.3186H69.3193V64.8646Z" fill="#0057FF"/>
</g>
<g id="Group_179">
<path id="Vector_178" d="M73.6435 64.8646H69.1895V69.3186H73.6435V64.8646Z" fill="#0057FF"/>
</g>
<g id="Group_180">
<path id="Vector_179" d="M77.9677 64.8646H73.5137V69.3186H77.9677V64.8646Z" fill="#0057FF"/>
</g>
<g id="Group_181">
<path id="Vector_180" d="M82.2939 64.8646H77.8398V69.3186H82.2939V64.8646Z" fill="#0057FF"/>
</g>
<g id="Group_182">
<path id="Vector_181" d="M86.6181 64.8646H82.1641V69.3186H86.6181V64.8646Z" fill="#0057FF"/>
</g>
<g id="Group_183">
<path id="Vector_182" d="M99.5869 64.8646H95.1328V69.3186H99.5869V64.8646Z" fill="#0057FF"/>
</g>
<g id="Group_184">
<path id="Vector_183" d="M103.913 64.8646H99.459V69.3186H103.913V64.8646Z" fill="#0057FF"/>
</g>
<g id="Group_185">
<path id="Vector_184" d="M116.886 64.8646H112.432V69.3186H116.886V64.8646Z" fill="#0057FF"/>
</g>
<g id="Group_186">
<path id="Vector_185" d="M125.534 64.8646H121.08V69.3186H125.534V64.8646Z" fill="#0057FF"/>
</g>
<g id="Group_187">
<path id="Vector_186" d="M138.511 64.8646H134.057V69.3186H138.511V64.8646Z" fill="#0057FF"/>
</g>
<g id="Group_188">
<path id="Vector_187" d="M142.835 64.8646H138.381V69.3186H142.835V64.8646Z" fill="#0057FF"/>
</g>
<g id="Group_189">
<path id="Vector_188" d="M147.159 64.8646H142.705V69.3186H147.159V64.8646Z" fill="#0057FF"/>
</g>
<g id="Group_190">
<path id="Vector_189" d="M151.481 64.8646H147.027V69.3186H151.481V64.8646Z" fill="#0057FF"/>
</g>
<g id="Group_191">
<path id="Vector_190" d="M13.1025 69.1888H8.64844V73.6428H13.1025V69.1888Z" fill="#0057FF"/>
</g>
<g id="Group_192">
<path id="Vector_191" d="M21.7509 69.1888H17.2969V73.6428H21.7509V69.1888Z" fill="#0057FF"/>
</g>
<g id="Group_193">
<path id="Vector_192" d="M26.0771 69.1888H21.623V73.6428H26.0771V69.1888Z" fill="#0057FF"/>
</g>
<g id="Group_194">
<path id="Vector_193" d="M34.7216 69.1888H30.2676V73.6428H34.7216V69.1888Z" fill="#0057FF"/>
</g>
<g id="Group_195">
<path id="Vector_194" d="M39.0478 69.1887H34.5938V73.6427H39.0478V69.1887Z" fill="#0057FF"/>
</g>
<g id="Group_196">
<path id="Vector_195" d="M47.6962 69.1888H43.2422V73.6428H47.6962V69.1888Z" fill="#0057FF"/>
</g>
<g id="Group_197">
<path id="Vector_196" d="M52.0185 69.1888H47.5645V73.6428H52.0185V69.1888Z" fill="#0057FF"/>
</g>
<g id="Group_198">
<path id="Vector_197" d="M56.3466 69.1887H51.8926V73.6427H56.3466V69.1887Z" fill="#0057FF"/>
</g>
<g id="Group_199">
<path id="Vector_198" d="M64.9951 69.1888H60.541V73.6428H64.9951V69.1888Z" fill="#0057FF"/>
</g>
<g id="Group_200">
<path id="Vector_199" d="M86.6181 69.1883H82.1641V73.6423H86.6181V69.1883Z" fill="#0057FF"/>
</g>
<g id="Group_201">
<path id="Vector_200" d="M95.2646 69.1887H90.8105V73.6427H95.2646V69.1887Z" fill="#0057FF"/>
</g>
<g id="Group_202">
<path id="Vector_201" d="M103.913 69.1888H99.459V73.6428H103.913V69.1888Z" fill="#0057FF"/>
</g>
<g id="Group_203">
<path id="Vector_202" d="M121.212 69.1888H116.758V73.6428H121.212V69.1888Z" fill="#0057FF"/>
</g>
<g id="Group_204">
<path id="Vector_203" d="M125.534 69.1888H121.08V73.6428H125.534V69.1888Z" fill="#0057FF"/>
</g>
<g id="Group_205">
<path id="Vector_204" d="M134.185 69.1888H129.73V73.6428H134.185V69.1888Z" fill="#0057FF"/>
</g>
<g id="Group_206">
<path id="Vector_205" d="M142.835 69.1888H138.381V73.6428H142.835V69.1888Z" fill="#0057FF"/>
</g>
<g id="Group_207">
<path id="Vector_206" d="M147.159 69.1888H142.705V73.6428H147.159V69.1888Z" fill="#0057FF"/>
</g>
<g id="Group_208">
<path id="Vector_207" d="M17.4267 73.5125H12.9727V77.9666H17.4267V73.5125Z" fill="#0057FF"/>
</g>
<g id="Group_209">
<path id="Vector_208" d="M21.7509 73.5125H17.2969V77.9666H21.7509V73.5125Z" fill="#0057FF"/>
</g>
<g id="Group_210">
<path id="Vector_209" d="M26.0771 73.5125H21.623V77.9666H26.0771V73.5125Z" fill="#0057FF"/>
</g>
<g id="Group_211">
<path id="Vector_210" d="M52.0185 73.5125H47.5645V77.9666H52.0185V73.5125Z" fill="#0057FF"/>
</g>
<g id="Group_212">
<path id="Vector_211" d="M82.2939 73.5125H77.8398V77.9666H82.2939V73.5125Z" fill="#0057FF"/>
</g>
<g id="Group_213">
<path id="Vector_212" d="M95.2646 73.5126H90.8105V77.9666H95.2646V73.5126Z" fill="#0057FF"/>
</g>
<g id="Group_214">
<path id="Vector_213" d="M99.5869 73.5125H95.1328V77.9666H99.5869V73.5125Z" fill="#0057FF"/>
</g>
<g id="Group_215">
<path id="Vector_214" d="M103.913 73.5125H99.459V77.9666H103.913V73.5125Z" fill="#0057FF"/>
</g>
<g id="Group_216">
<path id="Vector_215" d="M121.212 73.5125H116.758V77.9666H121.212V73.5125Z" fill="#0057FF"/>
</g>
<g id="Group_217">
<path id="Vector_216" d="M125.534 73.5125H121.08V77.9666H125.534V73.5125Z" fill="#0057FF"/>
</g>
<g id="Group_218">
<path id="Vector_217" d="M134.185 73.5125H129.73V77.9666H134.185V73.5125Z" fill="#0057FF"/>
</g>
<g id="Group_219">
<path id="Vector_218" d="M138.511 73.5125H134.057V77.9666H138.511V73.5125Z" fill="#0057FF"/>
</g>
<g id="Group_220">
<path id="Vector_219" d="M142.835 73.5125H138.381V77.9666H142.835V73.5125Z" fill="#0057FF"/>
</g>
<g id="Group_221">
<path id="Vector_220" d="M21.7509 77.8367H17.2969V82.2908H21.7509V77.8367Z" fill="#0057FF"/>
</g>
<g id="Group_222">
<path id="Vector_221" d="M34.7216 77.8367H30.2676V82.2908H34.7216V77.8367Z" fill="#0057FF"/>
</g>
<g id="Group_223">
<path id="Vector_222" d="M39.0478 77.8366H34.5938V82.2907H39.0478V77.8366Z" fill="#0057FF"/>
</g>
<g id="Group_224">
<path id="Vector_223" d="M52.0185 77.8367H47.5645V82.2908H52.0185V77.8367Z" fill="#0057FF"/>
</g>
<g id="Group_225">
<path id="Vector_224" d="M56.3466 77.8366H51.8926V82.2907H56.3466V77.8366Z" fill="#0057FF"/>
</g>
<g id="Group_226">
<path id="Vector_225" d="M60.6689 77.8367H56.2148V82.2908H60.6689V77.8367Z" fill="#0057FF"/>
</g>
<g id="Group_227">
<path id="Vector_226" d="M69.3193 77.8367H64.8652V82.2908H69.3193V77.8367Z" fill="#0057FF"/>
</g>
<g id="Group_228">
<path id="Vector_227" d="M82.2939 77.8367H77.8398V82.2908H82.2939V77.8367Z" fill="#0057FF"/>
</g>
<g id="Group_229">
<path id="Vector_228" d="M86.6181 77.8367H82.1641V82.2908H86.6181V77.8367Z" fill="#0057FF"/>
</g>
<g id="Group_230">
<path id="Vector_229" d="M95.2646 77.8366H90.8105V82.2907H95.2646V77.8366Z" fill="#0057FF"/>
</g>
<g id="Group_231">
<path id="Vector_230" d="M108.235 77.8367H103.781V82.2908H108.235V77.8367Z" fill="#0057FF"/>
</g>
<g id="Group_232">
<path id="Vector_231" d="M121.212 77.8367H116.758V82.2908H121.212V77.8367Z" fill="#0057FF"/>
</g>
<g id="Group_233">
<path id="Vector_232" d="M129.86 77.8367H125.406V82.2908H129.86V77.8367Z" fill="#0057FF"/>
</g>
<g id="Group_234">
<path id="Vector_233" d="M134.185 77.8367H129.73V82.2908H134.185V77.8367Z" fill="#0057FF"/>
</g>
<g id="Group_235">
<path id="Vector_234" d="M151.481 77.8367H147.027V82.2908H151.481V77.8367Z" fill="#0057FF"/>
</g>
<g id="Group_236">
<path id="Vector_235" d="M13.1025 82.1614H8.64844V86.6155H13.1025V82.1614Z" fill="#0057FF"/>
</g>
<g id="Group_237">
<path id="Vector_236" d="M21.7509 82.1614H17.2969V86.6155H21.7509V82.1614Z" fill="#0057FF"/>
</g>
<g id="Group_238">
<path id="Vector_237" d="M26.0771 82.1614H21.623V86.6155H26.0771V82.1614Z" fill="#0057FF"/>
</g>
<g id="Group_239">
<path id="Vector_238" d="M30.4013 82.1619H25.9473V86.616H30.4013V82.1619Z" fill="#0057FF"/>
</g>
<g id="Group_240">
<path id="Vector_239" d="M34.7216 82.1614H30.2676V86.6155H34.7216V82.1614Z" fill="#0057FF"/>
</g>
<g id="Group_241">
<path id="Vector_240" d="M43.3701 82.1614H38.916V86.6155H43.3701V82.1614Z" fill="#0057FF"/>
</g>
<g id="Group_242">
<path id="Vector_241" d="M47.6962 82.1614H43.2422V86.6155H47.6962V82.1614Z" fill="#0057FF"/>
</g>
<g id="Group_243">
<path id="Vector_242" d="M60.6689 82.1614H56.2148V86.6155H60.6689V82.1614Z" fill="#0057FF"/>
</g>
<g id="Group_244">
<path id="Vector_243" d="M73.6435 82.1614H69.1895V86.6155H73.6435V82.1614Z" fill="#0057FF"/>
</g>
<g id="Group_245">
<path id="Vector_244" d="M82.2939 82.1614H77.8398V86.6155H82.2939V82.1614Z" fill="#0057FF"/>
</g>
<g id="Group_246">
<path id="Vector_245" d="M86.6181 82.1619H82.1641V86.616H86.6181V82.1619Z" fill="#0057FF"/>
</g>
<g id="Group_247">
<path id="Vector_246" d="M90.9404 82.1614H86.4863V86.6155H90.9404V82.1614Z" fill="#0057FF"/>
</g>
<g id="Group_248">
<path id="Vector_247" d="M95.2646 82.1617H90.8105V86.6157H95.2646V82.1617Z" fill="#0057FF"/>
</g>
<g id="Group_249">
<path id="Vector_248" d="M99.5869 82.1614H95.1328V86.6155H99.5869V82.1614Z" fill="#0057FF"/>
</g>
<g id="Group_250">
<path id="Vector_249" d="M108.235 82.1614H103.781V86.6155H108.235V82.1614Z" fill="#0057FF"/>
</g>
<g id="Group_251">
<path id="Vector_250" d="M112.561 82.1614H108.107V86.6155H112.561V82.1614Z" fill="#0057FF"/>
</g>
<g id="Group_252">
<path id="Vector_251" d="M125.534 82.1614H121.08V86.6155H125.534V82.1614Z" fill="#0057FF"/>
</g>
<g id="Group_253">
<path id="Vector_252" d="M129.86 82.1614H125.406V86.6155H129.86V82.1614Z" fill="#0057FF"/>
</g>
<g id="Group_254">
<path id="Vector_253" d="M138.511 82.1614H134.057V86.6155H138.511V82.1614Z" fill="#0057FF"/>
</g>
<g id="Group_255">
<path id="Vector_254" d="M142.835 82.1614H138.381V86.6155H142.835V82.1614Z" fill="#0057FF"/>
</g>
<g id="Group_256">
<path id="Vector_255" d="M151.481 82.1619H147.027V86.616H151.481V82.1619Z" fill="#0057FF"/>
</g>
<g id="Group_257">
<path id="Vector_256" d="M13.1025 86.4861H8.64844V90.9402H13.1025V86.4861Z" fill="#0057FF"/>
</g>
<g id="Group_258">
<path id="Vector_257" d="M17.4267 86.4861H12.9727V90.9402H17.4267V86.4861Z" fill="#0057FF"/>
</g>
<g id="Group_259">
<path id="Vector_258" d="M21.7509 86.4861H17.2969V90.9402H21.7509V86.4861Z" fill="#0057FF"/>
</g>
<g id="Group_260">
<path id="Vector_259" d="M26.0771 86.4861H21.623V90.9402H26.0771V86.4861Z" fill="#0057FF"/>
</g>
<g id="Group_261">
<path id="Vector_260" d="M30.4013 86.4861H25.9473V90.9402H30.4013V86.4861Z" fill="#0057FF"/>
</g>
<g id="Group_262">
<path id="Vector_261" d="M39.0478 86.4861H34.5938V90.9401H39.0478V86.4861Z" fill="#0057FF"/>
</g>
<g id="Group_263">
<path id="Vector_262" d="M47.6962 86.4861H43.2422V90.9402H47.6962V86.4861Z" fill="#0057FF"/>
</g>
<g id="Group_264">
<path id="Vector_263" d="M60.6689 86.4861H56.2148V90.9402H60.6689V86.4861Z" fill="#0057FF"/>
</g>
<g id="Group_265">
<path id="Vector_264" d="M64.9951 86.4861H60.541V90.9402H64.9951V86.4861Z" fill="#0057FF"/>
</g>
<g id="Group_266">
<path id="Vector_265" d="M73.6435 86.4861H69.1895V90.9402H73.6435V86.4861Z" fill="#0057FF"/>
</g>
<g id="Group_267">
<path id="Vector_266" d="M77.9677 86.4861H73.5137V90.9402H77.9677V86.4861Z" fill="#0057FF"/>
</g>
<g id="Group_268">
<path id="Vector_267" d="M82.2939 86.4861H77.8398V90.9402H82.2939V86.4861Z" fill="#0057FF"/>
</g>
<g id="Group_269">
<path id="Vector_268" d="M86.6181 86.4861H82.1641V90.9402H86.6181V86.4861Z" fill="#0057FF"/>
</g>
<g id="Group_270">
<path id="Vector_269" d="M108.235 86.4861H103.781V90.9402H108.235V86.4861Z" fill="#0057FF"/>
</g>
<g id="Group_271">
<path id="Vector_270" d="M116.886 86.4861H112.432V90.9402H116.886V86.4861Z" fill="#0057FF"/>
</g>
<g id="Group_272">
<path id="Vector_271" d="M121.212 86.4861H116.758V90.9402H121.212V86.4861Z" fill="#0057FF"/>
</g>
<g id="Group_273">
<path id="Vector_272" d="M129.86 86.4861H125.406V90.9402H129.86V86.4861Z" fill="#0057FF"/>
</g>
<g id="Group_274">
<path id="Vector_273" d="M134.185 86.4861H129.73V90.9402H134.185V86.4861Z" fill="#0057FF"/>
</g>
<g id="Group_275">
<path id="Vector_274" d="M142.835 86.4861H138.381V90.9402H142.835V86.4861Z" fill="#0057FF"/>
</g>
<g id="Group_276">
<path id="Vector_275" d="M147.159 86.4861H142.705V90.9402H147.159V86.4861Z" fill="#0057FF"/>
</g>
<g id="Group_277">
<path id="Vector_276" d="M13.1025 90.8104H8.64844V95.2644H13.1025V90.8104Z" fill="#0057FF"/>
</g>
<g id="Group_278">
<path id="Vector_277" d="M17.4267 90.8104H12.9727V95.2644H17.4267V90.8104Z" fill="#0057FF"/>
</g>
<g id="Group_279">
<path id="Vector_278" d="M26.0771 90.8104H21.623V95.2644H26.0771V90.8104Z" fill="#0057FF"/>
</g>
<g id="Group_280">
<path id="Vector_279" d="M47.6962 90.8104H43.2422V95.2644H47.6962V90.8104Z" fill="#0057FF"/>
</g>
<g id="Group_281">
<path id="Vector_280" d="M52.0185 90.8104H47.5645V95.2644H52.0185V90.8104Z" fill="#0057FF"/>
</g>
<g id="Group_282">
<path id="Vector_281" d="M60.6689 90.8104H56.2148V95.2644H60.6689V90.8104Z" fill="#0057FF"/>
</g>
<g id="Group_283">
<path id="Vector_282" d="M64.9951 90.8104H60.541V95.2644H64.9951V90.8104Z" fill="#0057FF"/>
</g>
<g id="Group_284">
<path id="Vector_283" d="M69.3193 90.8104H64.8652V95.2644H69.3193V90.8104Z" fill="#0057FF"/>
</g>
<g id="Group_285">
<path id="Vector_284" d="M73.6435 90.8104H69.1895V95.2644H73.6435V90.8104Z" fill="#0057FF"/>
</g>
<g id="Group_286">
<path id="Vector_285" d="M77.9677 90.8104H73.5137V95.2644H77.9677V90.8104Z" fill="#0057FF"/>
</g>
<g id="Group_287">
<path id="Vector_286" d="M86.6181 90.8104H82.1641V95.2644H86.6181V90.8104Z" fill="#0057FF"/>
</g>
<g id="Group_288">
<path id="Vector_287" d="M90.9404 90.8104H86.4863V95.2644H90.9404V90.8104Z" fill="#0057FF"/>
</g>
<g id="Group_289">
<path id="Vector_288" d="M95.2646 90.8104H90.8105V95.2645H95.2646V90.8104Z" fill="#0057FF"/>
</g>
<g id="Group_290">
<path id="Vector_289" d="M99.5869 90.8104H95.1328V95.2644H99.5869V90.8104Z" fill="#0057FF"/>
</g>
<g id="Group_291">
<path id="Vector_290" d="M116.886 90.8104H112.432V95.2644H116.886V90.8104Z" fill="#0057FF"/>
</g>
<g id="Group_292">
<path id="Vector_291" d="M129.86 90.8104H125.406V95.2644H129.86V90.8104Z" fill="#0057FF"/>
</g>
<g id="Group_293">
<path id="Vector_292" d="M134.185 90.8104H129.73V95.2644H134.185V90.8104Z" fill="#0057FF"/>
</g>
<g id="Group_294">
<path id="Vector_293" d="M138.511 90.8104H134.057V95.2644H138.511V90.8104Z" fill="#0057FF"/>
</g>
<g id="Group_295">
<path id="Vector_294" d="M142.835 90.8104H138.381V95.2644H142.835V90.8104Z" fill="#0057FF"/>
</g>
<g id="Group_296">
<path id="Vector_295" d="M147.159 90.8104H142.705V95.2644H147.159V90.8104Z" fill="#0057FF"/>
</g>
<g id="Group_297">
<path id="Vector_296" d="M151.481 90.8104H147.027V95.2644H151.481V90.8104Z" fill="#0057FF"/>
</g>
<g id="Group_298">
<path id="Vector_297" d="M13.1025 95.1341H8.64844V99.5881H13.1025V95.1341Z" fill="#0057FF"/>
</g>
<g id="Group_299">
<path id="Vector_298" d="M34.7216 95.1341H30.2676V99.5881H34.7216V95.1341Z" fill="#0057FF"/>
</g>
<g id="Group_300">
<path id="Vector_299" d="M39.0478 95.134H34.5938V99.5881H39.0478V95.134Z" fill="#0057FF"/>
</g>
<g id="Group_301">
<path id="Vector_300" d="M47.6962 95.1341H43.2422V99.5881H47.6962V95.1341Z" fill="#0057FF"/>
</g>
<g id="Group_302">
<path id="Vector_301" d="M56.3466 95.134H51.8926V99.5881H56.3466V95.134Z" fill="#0057FF"/>
</g>
<g id="Group_303">
<path id="Vector_302" d="M60.6689 95.1341H56.2148V99.5881H60.6689V95.1341Z" fill="#0057FF"/>
</g>
<g id="Group_304">
<path id="Vector_303" d="M77.9677 95.1341H73.5137V99.5881H77.9677V95.1341Z" fill="#0057FF"/>
</g>
<g id="Group_305">
<path id="Vector_304" d="M82.2939 95.1341H77.8398V99.5881H82.2939V95.1341Z" fill="#0057FF"/>
</g>
<g id="Group_306">
<path id="Vector_305" d="M95.2646 95.134H90.8105V99.5881H95.2646V95.134Z" fill="#0057FF"/>
</g>
<g id="Group_307">
<path id="Vector_306" d="M99.5869 95.1341H95.1328V99.5881H99.5869V95.1341Z" fill="#0057FF"/>
</g>
<g id="Group_308">
<path id="Vector_307" d="M103.913 95.1341H99.459V99.5881H103.913V95.1341Z" fill="#0057FF"/>
</g>
<g id="Group_309">
<path id="Vector_308" d="M108.235 95.1341H103.781V99.5881H108.235V95.1341Z" fill="#0057FF"/>
</g>
<g id="Group_310">
<path id="Vector_309" d="M116.886 95.1341H112.432V99.5881H116.886V95.1341Z" fill="#0057FF"/>
</g>
<g id="Group_311">
<path id="Vector_310" d="M129.86 95.1341H125.406V99.5881H129.86V95.1341Z" fill="#0057FF"/>
</g>
<g id="Group_312">
<path id="Vector_311" d="M134.185 95.1341H129.73V99.5881H134.185V95.1341Z" fill="#0057FF"/>
</g>
<g id="Group_313">
<path id="Vector_312" d="M138.511 95.1341H134.057V99.5881H138.511V95.1341Z" fill="#0057FF"/>
</g>
<g id="Group_314">
<path id="Vector_313" d="M147.159 95.1341H142.705V99.5881H147.159V95.1341Z" fill="#0057FF"/>
</g>
<g id="Group_315">
<path id="Vector_314" d="M13.1025 99.4598H8.64844V103.914H13.1025V99.4598Z" fill="#0057FF"/>
</g>
<g id="Group_316">
<path id="Vector_315" d="M34.7216 99.4598H30.2676V103.914H34.7216V99.4598Z" fill="#0057FF"/>
</g>
<g id="Group_317">
<path id="Vector_316" d="M47.6962 99.4598H43.2422V103.914H47.6962V99.4598Z" fill="#0057FF"/>
</g>
<g id="Group_318">
<path id="Vector_317" d="M52.0185 99.4598H47.5645V103.914H52.0185V99.4598Z" fill="#0057FF"/>
</g>
<g id="Group_319">
<path id="Vector_318" d="M56.3466 99.4596H51.8926V103.914H56.3466V99.4596Z" fill="#0057FF"/>
</g>
<g id="Group_320">
<path id="Vector_319" d="M60.6689 99.4598H56.2148V103.914H60.6689V99.4598Z" fill="#0057FF"/>
</g>
<g id="Group_321">
<path id="Vector_320" d="M77.9677 99.4598H73.5137V103.914H77.9677V99.4598Z" fill="#0057FF"/>
</g>
<g id="Group_322">
<path id="Vector_321" d="M90.9404 99.4598H86.4863V103.914H90.9404V99.4598Z" fill="#0057FF"/>
</g>
<g id="Group_323">
<path id="Vector_322" d="M103.913 99.4598H99.459V103.914H103.913V99.4598Z" fill="#0057FF"/>
</g>
<g id="Group_324">
<path id="Vector_323" d="M116.886 99.4598H112.432V103.914H116.886V99.4598Z" fill="#0057FF"/>
</g>
<g id="Group_325">
<path id="Vector_324" d="M121.212 99.4598H116.758V103.914H121.212V99.4598Z" fill="#0057FF"/>
</g>
<g id="Group_326">
<path id="Vector_325" d="M129.86 99.4598H125.406V103.914H129.86V99.4598Z" fill="#0057FF"/>
</g>
<g id="Group_327">
<path id="Vector_326" d="M151.481 99.4593H147.027V103.913H151.481V99.4593Z" fill="#0057FF"/>
</g>
<g id="Group_328">
<path id="Vector_327" d="M13.1025 103.784H8.64844V108.238H13.1025V103.784Z" fill="#0057FF"/>
</g>
<g id="Group_329">
<path id="Vector_328" d="M21.7509 103.784H17.2969V108.238H21.7509V103.784Z" fill="#0057FF"/>
</g>
<g id="Group_330">
<path id="Vector_329" d="M30.4013 103.784H25.9473V108.238H30.4013V103.784Z" fill="#0057FF"/>
</g>
<g id="Group_331">
<path id="Vector_330" d="M34.7216 103.784H30.2676V108.238H34.7216V103.784Z" fill="#0057FF"/>
</g>
<g id="Group_332">
<path id="Vector_331" d="M39.0478 103.783H34.5938V108.238H39.0478V103.783Z" fill="#0057FF"/>
</g>
<g id="Group_333">
<path id="Vector_332" d="M47.6962 103.784H43.2422V108.238H47.6962V103.784Z" fill="#0057FF"/>
</g>
<g id="Group_334">
<path id="Vector_333" d="M56.3466 103.783H51.8926V108.238H56.3466V103.783Z" fill="#0057FF"/>
</g>
<g id="Group_335">
<path id="Vector_334" d="M60.6689 103.784H56.2148V108.238H60.6689V103.784Z" fill="#0057FF"/>
</g>
<g id="Group_336">
<path id="Vector_335" d="M64.9951 103.784H60.541V108.238H64.9951V103.784Z" fill="#0057FF"/>
</g>
<g id="Group_337">
<path id="Vector_336" d="M69.3193 103.784H64.8652V108.238H69.3193V103.784Z" fill="#0057FF"/>
</g>
<g id="Group_338">
<path id="Vector_337" d="M77.9677 103.784H73.5137V108.238H77.9677V103.784Z" fill="#0057FF"/>
</g>
<g id="Group_339">
<path id="Vector_338" d="M82.2939 103.784H77.8398V108.238H82.2939V103.784Z" fill="#0057FF"/>
</g>
<g id="Group_340">
<path id="Vector_339" d="M86.6181 103.784H82.1641V108.238H86.6181V103.784Z" fill="#0057FF"/>
</g>
<g id="Group_341">
<path id="Vector_340" d="M99.5869 103.784H95.1328V108.238H99.5869V103.784Z" fill="#0057FF"/>
</g>
<g id="Group_342">
<path id="Vector_341" d="M103.913 103.784H99.459V108.238H103.913V103.784Z" fill="#0057FF"/>
</g>
<g id="Group_343">
<path id="Vector_342" d="M112.561 103.784H108.107V108.238H112.561V103.784Z" fill="#0057FF"/>
</g>
<g id="Group_344">
<path id="Vector_343" d="M116.886 103.784H112.432V108.238H116.886V103.784Z" fill="#0057FF"/>
</g>
<g id="Group_345">
<path id="Vector_344" d="M129.86 103.784H125.406V108.238H129.86V103.784Z" fill="#0057FF"/>
</g>
<g id="Group_346">
<path id="Vector_345" d="M138.511 103.784H134.057V108.238H138.511V103.784Z" fill="#0057FF"/>
</g>
<g id="Group_347">
<path id="Vector_346" d="M142.835 103.784H138.381V108.238H142.835V103.784Z" fill="#0057FF"/>
</g>
<g id="Group_348">
<path id="Vector_347" d="M147.159 103.784H142.705V108.238H147.159V103.784Z" fill="#0057FF"/>
</g>
<g id="Group_349">
<path id="Vector_348" d="M13.1025 108.108H8.64844V112.562H13.1025V108.108Z" fill="#0057FF"/>
</g>
<g id="Group_350">
<path id="Vector_349" d="M26.0771 108.108H21.623V112.562H26.0771V108.108Z" fill="#0057FF"/>
</g>
<g id="Group_351">
<path id="Vector_350" d="M47.6962 108.108H43.2422V112.562H47.6962V108.108Z" fill="#0057FF"/>
</g>
<g id="Group_352">
<path id="Vector_351" d="M60.6689 108.108H56.2148V112.562H60.6689V108.108Z" fill="#0057FF"/>
</g>
<g id="Group_353">
<path id="Vector_352" d="M73.6435 108.108H69.1895V112.562H73.6435V108.108Z" fill="#0057FF"/>
</g>
<g id="Group_354">
<path id="Vector_353" d="M77.9677 108.108H73.5137V112.562H77.9677V108.108Z" fill="#0057FF"/>
</g>
<g id="Group_355">
<path id="Vector_354" d="M103.913 108.108H99.459V112.562H103.913V108.108Z" fill="#0057FF"/>
</g>
<g id="Group_356">
<path id="Vector_355" d="M112.561 108.108H108.107V112.562H112.561V108.108Z" fill="#0057FF"/>
</g>
<g id="Group_357">
<path id="Vector_356" d="M116.886 108.108H112.432V112.562H116.886V108.108Z" fill="#0057FF"/>
</g>
<g id="Group_358">
<path id="Vector_357" d="M121.212 108.108H116.758V112.562H121.212V108.108Z" fill="#0057FF"/>
</g>
<g id="Group_359">
<path id="Vector_358" d="M129.86 108.108H125.406V112.562H129.86V108.108Z" fill="#0057FF"/>
</g>
<g id="Group_360">
<path id="Vector_359" d="M134.185 108.108H129.73V112.562H134.185V108.108Z" fill="#0057FF"/>
</g>
<g id="Group_361">
<path id="Vector_360" d="M138.511 108.108H134.057V112.562H138.511V108.108Z" fill="#0057FF"/>
</g>
<g id="Group_362">
<path id="Vector_361" d="M142.835 108.108H138.381V112.562H142.835V108.108Z" fill="#0057FF"/>
</g>
<g id="Group_363">
<path id="Vector_362" d="M13.1025 112.432H8.64844V116.886H13.1025V112.432Z" fill="#0057FF"/>
</g>
<g id="Group_364">
<path id="Vector_363" d="M26.0771 112.432H21.623V116.886H26.0771V112.432Z" fill="#0057FF"/>
</g>
<g id="Group_365">
<path id="Vector_364" d="M30.4013 112.432H25.9473V116.886H30.4013V112.432Z" fill="#0057FF"/>
</g>
<g id="Group_366">
<path id="Vector_365" d="M34.7216 112.432H30.2676V116.886H34.7216V112.432Z" fill="#0057FF"/>
</g>
<g id="Group_367">
<path id="Vector_366" d="M39.0478 112.432H34.5938V116.886H39.0478V112.432Z" fill="#0057FF"/>
</g>
<g id="Group_368">
<path id="Vector_367" d="M47.6962 112.432H43.2422V116.886H47.6962V112.432Z" fill="#0057FF"/>
</g>
<g id="Group_369">
<path id="Vector_368" d="M52.0185 112.432H47.5645V116.886H52.0185V112.432Z" fill="#0057FF"/>
</g>
<g id="Group_370">
<path id="Vector_369" d="M60.6689 112.432H56.2148V116.886H60.6689V112.432Z" fill="#0057FF"/>
</g>
<g id="Group_371">
<path id="Vector_370" d="M64.9951 112.432H60.541V116.886H64.9951V112.432Z" fill="#0057FF"/>
</g>
<g id="Group_372">
<path id="Vector_371" d="M69.3193 112.432H64.8652V116.886H69.3193V112.432Z" fill="#0057FF"/>
</g>
<g id="Group_373">
<path id="Vector_372" d="M73.6435 112.432H69.1895V116.886H73.6435V112.432Z" fill="#0057FF"/>
</g>
<g id="Group_374">
<path id="Vector_373" d="M77.9677 112.432H73.5137V116.886H77.9677V112.432Z" fill="#0057FF"/>
</g>
<g id="Group_375">
<path id="Vector_374" d="M86.6181 112.432H82.1641V116.886H86.6181V112.432Z" fill="#0057FF"/>
</g>
<g id="Group_376">
<path id="Vector_375" d="M108.235 112.432H103.781V116.886H108.235V112.432Z" fill="#0057FF"/>
</g>
<g id="Group_377">
<path id="Vector_376" d="M112.561 112.432H108.107V116.886H112.561V112.432Z" fill="#0057FF"/>
</g>
<g id="Group_378">
<path id="Vector_377" d="M116.886 112.432H112.432V116.886H116.886V112.432Z" fill="#0057FF"/>
</g>
<g id="Group_379">
<path id="Vector_378" d="M121.212 112.432H116.758V116.886H121.212V112.432Z" fill="#0057FF"/>
</g>
<g id="Group_380">
<path id="Vector_379" d="M125.534 112.432H121.08V116.886H125.534V112.432Z" fill="#0057FF"/>
</g>
<g id="Group_381">
<path id="Vector_380" d="M129.86 112.432H125.406V116.886H129.86V112.432Z" fill="#0057FF"/>
</g>
<g id="Group_382">
<path id="Vector_381" d="M134.185 112.432H129.73V116.886H134.185V112.432Z" fill="#0057FF"/>
</g>
<g id="Group_383">
<path id="Vector_382" d="M138.511 112.432H134.057V116.886H138.511V112.432Z" fill="#0057FF"/>
</g>
<g id="Group_384">
<path id="Vector_383" d="M151.481 112.432H147.027V116.886H151.481V112.432Z" fill="#0057FF"/>
</g>
<g id="Group_385">
<path id="Vector_384" d="M47.6962 116.756H43.2422V121.21H47.6962V116.756Z" fill="#0057FF"/>
</g>
<g id="Group_386">
<path id="Vector_385" d="M56.3466 116.756H51.8926V121.21H56.3466V116.756Z" fill="#0057FF"/>
</g>
<g id="Group_387">
<path id="Vector_386" d="M69.3193 116.756H64.8652V121.21H69.3193V116.756Z" fill="#0057FF"/>
</g>
<g id="Group_388">
<path id="Vector_387" d="M73.6435 116.756H69.1895V121.21H73.6435V116.756Z" fill="#0057FF"/>
</g>
<g id="Group_389">
<path id="Vector_388" d="M82.2939 116.756H77.8398V121.21H82.2939V116.756Z" fill="#0057FF"/>
</g>
<g id="Group_390">
<path id="Vector_389" d="M90.9404 116.756H86.4863V121.21H90.9404V116.756Z" fill="#0057FF"/>
</g>
<g id="Group_391">
<path id="Vector_390" d="M95.2646 116.756H90.8105V121.21H95.2646V116.756Z" fill="#0057FF"/>
</g>
<g id="Group_392">
<path id="Vector_391" d="M103.913 116.756H99.459V121.21H103.913V116.756Z" fill="#0057FF"/>
</g>
<g id="Group_393">
<path id="Vector_392" d="M112.561 116.756H108.107V121.21H112.561V116.756Z" fill="#0057FF"/>
</g>
<g id="Group_394">
<path id="Vector_393" d="M116.886 116.756H112.432V121.21H116.886V116.756Z" fill="#0057FF"/>
</g>
<g id="Group_395">
<path id="Vector_394" d="M134.185 116.756H129.73V121.21H134.185V116.756Z" fill="#0057FF"/>
</g>
<g id="Group_396">
<path id="Vector_395" d="M142.835 116.756H138.381V121.21H142.835V116.756Z" fill="#0057FF"/>
</g>
<g id="Group_397">
<path id="Vector_396" d="M147.159 116.756H142.705V121.21H147.159V116.756Z" fill="#0057FF"/>
</g>
<g id="Group_398">
<path id="Vector_397" d="M151.481 116.756H147.027V121.21H151.481V116.756Z" fill="#0057FF"/>
</g>
<g id="Group_399">
<path id="Vector_398" d="M52.0185 121.081H47.5645V125.535H52.0185V121.081Z" fill="#0057FF"/>
</g>
<g id="Group_400">
<path id="Vector_399" d="M56.3466 121.081H51.8926V125.535H56.3466V121.081Z" fill="#0057FF"/>
</g>
<g id="Group_401">
<path id="Vector_400" d="M69.3193 121.081H64.8652V125.535H69.3193V121.081Z" fill="#0057FF"/>
</g>
<g id="Group_402">
<path id="Vector_401" d="M77.9677 121.081H73.5137V125.535H77.9677V121.081Z" fill="#0057FF"/>
</g>
<g id="Group_403">
<path id="Vector_402" d="M82.2939 121.081H77.8398V125.535H82.2939V121.081Z" fill="#0057FF"/>
</g>
<g id="Group_404">
<path id="Vector_403" d="M90.9404 121.081H86.4863V125.535H90.9404V121.081Z" fill="#0057FF"/>
</g>
<g id="Group_405">
<path id="Vector_404" d="M99.5869 121.081H95.1328V125.535H99.5869V121.081Z" fill="#0057FF"/>
</g>
<g id="Group_406">
<path id="Vector_405" d="M103.913 121.081H99.459V125.535H103.913V121.081Z" fill="#0057FF"/>
</g>
<g id="Group_407">
<path id="Vector_406" d="M112.561 121.081H108.107V125.535H112.561V121.081Z" fill="#0057FF"/>
</g>
<g id="Group_408">
<path id="Vector_407" d="M116.886 121.081H112.432V125.535H116.886V121.081Z" fill="#0057FF"/>
</g>
<g id="Group_409">
<path id="Vector_408" d="M125.534 121.081H121.08V125.535H125.534V121.081Z" fill="#0057FF"/>
</g>
<g id="Group_410">
<path id="Vector_409" d="M134.185 121.081H129.73V125.535H134.185V121.081Z" fill="#0057FF"/>
</g>
<g id="Group_411">
<path id="Vector_410" d="M142.835 121.081H138.381V125.535H142.835V121.081Z" fill="#0057FF"/>
</g>
<g id="Group_412">
<path id="Vector_411" d="M147.159 121.081H142.705V125.535H147.159V121.081Z" fill="#0057FF"/>
</g>
<g id="Group_413">
<path id="Vector_412" d="M47.6962 125.406H43.2422V129.86H47.6962V125.406Z" fill="#0057FF"/>
</g>
<g id="Group_414">
<path id="Vector_413" d="M56.3466 125.405H51.8926V129.859H56.3466V125.405Z" fill="#0057FF"/>
</g>
<g id="Group_415">
<path id="Vector_414" d="M64.9951 125.406H60.541V129.86H64.9951V125.406Z" fill="#0057FF"/>
</g>
<g id="Group_416">
<path id="Vector_415" d="M69.3193 125.406H64.8652V129.86H69.3193V125.406Z" fill="#0057FF"/>
</g>
<g id="Group_417">
<path id="Vector_416" d="M73.6435 125.406H69.1895V129.86H73.6435V125.406Z" fill="#0057FF"/>
</g>
<g id="Group_418">
<path id="Vector_417" d="M82.2939 125.406H77.8398V129.86H82.2939V125.406Z" fill="#0057FF"/>
</g>
<g id="Group_419">
<path id="Vector_418" d="M99.5869 125.406H95.1328V129.86H99.5869V125.406Z" fill="#0057FF"/>
</g>
<g id="Group_420">
<path id="Vector_419" d="M103.913 125.406H99.459V129.86H103.913V125.406Z" fill="#0057FF"/>
</g>
<g id="Group_421">
<path id="Vector_420" d="M108.235 125.406H103.781V129.86H108.235V125.406Z" fill="#0057FF"/>
</g>
<g id="Group_422">
<path id="Vector_421" d="M112.561 125.406H108.107V129.86H112.561V125.406Z" fill="#0057FF"/>
</g>
<g id="Group_423">
<path id="Vector_422" d="M116.886 125.406H112.432V129.86H116.886V125.406Z" fill="#0057FF"/>
</g>
<g id="Group_424">
<path id="Vector_423" d="M134.185 125.406H129.73V129.86H134.185V125.406Z" fill="#0057FF"/>
</g>
<g id="Group_425">
<path id="Vector_424" d="M138.511 125.406H134.057V129.86H138.511V125.406Z" fill="#0057FF"/>
</g>
<g id="Group_426">
<path id="Vector_425" d="M142.835 125.406H138.381V129.86H142.835V125.406Z" fill="#0057FF"/>
</g>
<g id="Group_427">
<path id="Vector_426" d="M47.6962 129.729H43.2422V134.183H47.6962V129.729Z" fill="#0057FF"/>
</g>
<g id="Group_428">
<path id="Vector_427" d="M52.0185 129.729H47.5645V134.183H52.0185V129.729Z" fill="#0057FF"/>
</g>
<g id="Group_429">
<path id="Vector_428" d="M60.6689 129.729H56.2148V134.183H60.6689V129.729Z" fill="#0057FF"/>
</g>
<g id="Group_430">
<path id="Vector_429" d="M64.9951 129.729H60.541V134.183H64.9951V129.729Z" fill="#0057FF"/>
</g>
<g id="Group_431">
<path id="Vector_430" d="M73.6435 129.729H69.1895V134.183H73.6435V129.729Z" fill="#0057FF"/>
</g>
<g id="Group_432">
<path id="Vector_431" d="M90.9404 129.729H86.4863V134.183H90.9404V129.729Z" fill="#0057FF"/>
</g>
<g id="Group_433">
<path id="Vector_432" d="M103.913 129.729H99.459V134.183H103.913V129.729Z" fill="#0057FF"/>
</g>
<g id="Group_434">
<path id="Vector_433" d="M116.886 129.729H112.432V134.183H116.886V129.729Z" fill="#0057FF"/>
</g>
<g id="Group_435">
<path id="Vector_434" d="M121.212 129.729H116.758V134.183H121.212V129.729Z" fill="#0057FF"/>
</g>
<g id="Group_436">
<path id="Vector_435" d="M125.534 129.729H121.08V134.183H125.534V129.729Z" fill="#0057FF"/>
</g>
<g id="Group_437">
<path id="Vector_436" d="M129.86 129.729H125.406V134.183H129.86V129.729Z" fill="#0057FF"/>
</g>
<g id="Group_438">
<path id="Vector_437" d="M134.185 129.729H129.73V134.183H134.185V129.729Z" fill="#0057FF"/>
</g>
<g id="Group_439">
<path id="Vector_438" d="M138.511 129.729H134.057V134.183H138.511V129.729Z" fill="#0057FF"/>
</g>
<g id="Group_440">
<path id="Vector_439" d="M147.159 129.729H142.705V134.183H147.159V129.729Z" fill="#0057FF"/>
</g>
<g id="Group_441">
<path id="Vector_440" d="M47.6962 134.054H43.2422V138.508H47.6962V134.054Z" fill="#0057FF"/>
</g>
<g id="Group_442">
<path id="Vector_441" d="M52.0185 134.054H47.5645V138.508H52.0185V134.054Z" fill="#0057FF"/>
</g>
<g id="Group_443">
<path id="Vector_442" d="M56.3466 134.053H51.8926V138.507H56.3466V134.053Z" fill="#0057FF"/>
</g>
<g id="Group_444">
<path id="Vector_443" d="M60.6689 134.054H56.2148V138.508H60.6689V134.054Z" fill="#0057FF"/>
</g>
<g id="Group_445">
<path id="Vector_444" d="M69.3193 134.054H64.8652V138.508H69.3193V134.054Z" fill="#0057FF"/>
</g>
<g id="Group_446">
<path id="Vector_445" d="M73.6435 134.054H69.1895V138.508H73.6435V134.054Z" fill="#0057FF"/>
</g>
<g id="Group_447">
<path id="Vector_446" d="M77.9677 134.054H73.5137V138.508H77.9677V134.054Z" fill="#0057FF"/>
</g>
<g id="Group_448">
<path id="Vector_447" d="M82.2939 134.054H77.8398V138.508H82.2939V134.054Z" fill="#0057FF"/>
</g>
<g id="Group_449">
<path id="Vector_448" d="M99.5869 134.054H95.1328V138.508H99.5869V134.054Z" fill="#0057FF"/>
</g>
<g id="Group_450">
<path id="Vector_449" d="M108.235 134.054H103.781V138.508H108.235V134.054Z" fill="#0057FF"/>
</g>
<g id="Group_451">
<path id="Vector_450" d="M116.886 134.054H112.432V138.508H116.886V134.054Z" fill="#0057FF"/>
</g>
<g id="Group_452">
<path id="Vector_451" d="M121.212 134.054H116.758V138.508H121.212V134.054Z" fill="#0057FF"/>
</g>
<g id="Group_453">
<path id="Vector_452" d="M134.185 134.054H129.73V138.508H134.185V134.054Z" fill="#0057FF"/>
</g>
<g id="Group_454">
<path id="Vector_453" d="M151.481 134.054H147.027V138.508H151.481V134.054Z" fill="#0057FF"/>
</g>
<g id="Group_455">
<path id="Vector_454" d="M47.6962 138.378H43.2422V142.832H47.6962V138.378Z" fill="#0057FF"/>
</g>
<g id="Group_456">
<path id="Vector_455" d="M52.0185 138.378H47.5645V142.832H52.0185V138.378Z" fill="#0057FF"/>
</g>
<g id="Group_457">
<path id="Vector_456" d="M64.9951 138.378H60.541V142.832H64.9951V138.378Z" fill="#0057FF"/>
</g>
<g id="Group_458">
<path id="Vector_457" d="M69.3193 138.378H64.8652V142.832H69.3193V138.378Z" fill="#0057FF"/>
</g>
<g id="Group_459">
<path id="Vector_458" d="M73.6435 138.378H69.1895V142.832H73.6435V138.378Z" fill="#0057FF"/>
</g>
<g id="Group_460">
<path id="Vector_459" d="M86.6181 138.378H82.1641V142.832H86.6181V138.378Z" fill="#0057FF"/>
</g>
<g id="Group_461">
<path id="Vector_460" d="M90.9404 138.378H86.4863V142.832H90.9404V138.378Z" fill="#0057FF"/>
</g>
<g id="Group_462">
<path id="Vector_461" d="M95.2646 138.378H90.8105V142.832H95.2646V138.378Z" fill="#0057FF"/>
</g>
<g id="Group_463">
<path id="Vector_462" d="M103.913 138.378H99.459V142.832H103.913V138.378Z" fill="#0057FF"/>
</g>
<g id="Group_464">
<path id="Vector_463" d="M108.235 138.378H103.781V142.832H108.235V138.378Z" fill="#0057FF"/>
</g>
<g id="Group_465">
<path id="Vector_464" d="M116.886 138.378H112.432V142.832H116.886V138.378Z" fill="#0057FF"/>
</g>
<g id="Group_466">
<path id="Vector_465" d="M121.212 138.378H116.758V142.832H121.212V138.378Z" fill="#0057FF"/>
</g>
<g id="Group_467">
<path id="Vector_466" d="M125.534 138.378H121.08V142.832H125.534V138.378Z" fill="#0057FF"/>
</g>
<g id="Group_468">
<path id="Vector_467" d="M129.86 138.378H125.406V142.832H129.86V138.378Z" fill="#0057FF"/>
</g>
<g id="Group_469">
<path id="Vector_468" d="M142.835 138.378H138.381V142.832H142.835V138.378Z" fill="#0057FF"/>
</g>
<g id="Group_470">
<path id="Vector_469" d="M52.0185 142.702H47.5645V147.156H52.0185V142.702Z" fill="#0057FF"/>
</g>
<g id="Group_471">
<path id="Vector_470" d="M60.6689 142.702H56.2148V147.156H60.6689V142.702Z" fill="#0057FF"/>
</g>
<g id="Group_472">
<path id="Vector_471" d="M73.6435 142.702H69.1895V147.156H73.6435V142.702Z" fill="#0057FF"/>
</g>
<g id="Group_473">
<path id="Vector_472" d="M82.2939 142.702H77.8398V147.156H82.2939V142.702Z" fill="#0057FF"/>
</g>
<g id="Group_474">
<path id="Vector_473" d="M90.9404 142.702H86.4863V147.156H90.9404V142.702Z" fill="#0057FF"/>
</g>
<g id="Group_475">
<path id="Vector_474" d="M95.2646 142.702H90.8105V147.156H95.2646V142.702Z" fill="#0057FF"/>
</g>
<g id="Group_476">
<path id="Vector_475" d="M99.5869 142.702H95.1328V147.156H99.5869V142.702Z" fill="#0057FF"/>
</g>
<g id="Group_477">
<path id="Vector_476" d="M103.913 142.702H99.459V147.156H103.913V142.702Z" fill="#0057FF"/>
</g>
<g id="Group_478">
<path id="Vector_477" d="M134.185 142.702H129.73V147.156H134.185V142.702Z" fill="#0057FF"/>
</g>
<g id="Group_479">
<path id="Vector_478" d="M138.511 142.702H134.057V147.156H138.511V142.702Z" fill="#0057FF"/>
</g>
<g id="Group_480">
<path id="Vector_479" d="M142.835 142.702H138.381V147.156H142.835V142.702Z" fill="#0057FF"/>
</g>
<g id="Group_481">
<path id="Vector_480" d="M47.6962 147.026H43.2422V151.48H47.6962V147.026Z" fill="#0057FF"/>
</g>
<g id="Group_482">
<path id="Vector_481" d="M56.3466 147.026H51.8926V151.48H56.3466V147.026Z" fill="#0057FF"/>
</g>
<g id="Group_483">
<path id="Vector_482" d="M64.9951 147.026H60.541V151.48H64.9951V147.026Z" fill="#0057FF"/>
</g>
<g id="Group_484">
<path id="Vector_483" d="M86.6181 147.026H82.1641V151.48H86.6181V147.026Z" fill="#0057FF"/>
</g>
<g id="Group_485">
<path id="Vector_484" d="M90.9404 147.026H86.4863V151.48H90.9404V147.026Z" fill="#0057FF"/>
</g>
<g id="Group_486">
<path id="Vector_485" d="M95.2646 147.026H90.8105V151.48H95.2646V147.026Z" fill="#0057FF"/>
</g>
<g id="Group_487">
<path id="Vector_486" d="M108.235 147.026H103.781V151.48H108.235V147.026Z" fill="#0057FF"/>
</g>
<g id="Group_488">
<path id="Vector_487" d="M116.886 147.026H112.432V151.48H116.886V147.026Z" fill="#0057FF"/>
</g>
<g id="Group_489">
<path id="Vector_488" d="M129.86 147.026H125.406V151.48H129.86V147.026Z" fill="#0057FF"/>
</g>
<g id="Group_490">
<path id="Vector_489" d="M138.511 147.026H134.057V151.48H138.511V147.026Z" fill="#0057FF"/>
</g>
<g id="Group_491">
<path id="Vector_490" d="M147.159 147.026H142.705V151.48H147.159V147.026Z" fill="#0057FF"/>
</g>
<g id="Group_492">
<g id="Group_493">
<path id="Vector_491" d="M8.64844 8.64777V38.918H38.9187V8.64777H8.64844ZM34.5944 34.5937H12.9728V12.9721H34.5944V34.5937Z" fill="#0057FF"/>
</g>
</g>
<g id="Group_494">
<g id="Group_495">
<path id="Vector_492" d="M121.08 8.64777V38.918H151.35V8.64777H121.08ZM147.026 34.5937H125.404V12.9721H147.026V34.5937Z" fill="#0057FF"/>
</g>
</g>
<g id="Group_496">
<g id="Group_497">
<path id="Vector_493" d="M8.64844 121.08V151.35H38.9187V121.08H8.64844ZM34.5944 147.026H12.9728V125.404H34.5944V147.026Z" fill="#0057FF"/>
</g>
</g>
<g id="Group_498">
<g id="Group_499">
<path id="Vector_494" d="M30.2698 17.2977H17.2969V30.2706H30.2698V17.2977Z" fill="#0057FF"/>
</g>
</g>
<g id="Group_500">
<g id="Group_501">
<path id="Vector_495" d="M142.703 17.2977H129.73V30.2706H142.703V17.2977Z" fill="#0057FF"/>
</g>
</g>
<g id="Group_502">
<g id="Group_503">
<path id="Vector_496" d="M30.2698 129.729H17.2969V142.702H30.2698V129.729Z" fill="#0057FF"/>
</g>
</g>
</g>
</g>
<defs>
<clipPath id="clip0_2138_74505">
<rect width="160" height="160" fill="white"/>
</clipPath>
</defs>
</svg>
