<svg width="20" height="24" viewBox="0 0 20 24" fill="none" xmlns="http://www.w3.org/2000/svg">
<path d="M10.0013 23.6668C7.29852 22.9863 5.06727 21.4356 3.30755 19.0147C1.54783 16.5939 0.667969 13.9057 0.667969 10.9502V3.8335L10.0013 0.333496L19.3346 3.8335V10.9502C19.3346 13.9057 18.4548 16.5939 16.6951 19.0147C14.9353 21.4356 12.7041 22.9863 10.0013 23.6668ZM10.0013 21.2168C11.8874 20.6335 13.4624 19.4814 14.7263 17.7606C15.9902 16.0397 16.7291 14.1196 16.943 12.0002H10.0013V2.81266L3.0013 5.43766V11.4752C3.0013 11.6113 3.02075 11.7863 3.05964 12.0002H10.0013V21.2168Z" fill="#097E07"/>
</svg>
