<svg width="30" height="34" viewBox="0 0 30 34" fill="none" xmlns="http://www.w3.org/2000/svg">
<path d="M29.8504 15.5332V8.21654C29.8504 6.84987 28.8171 5.29987 27.5337 4.7832L18.2504 0.983203C16.1671 0.133203 13.8171 0.133203 11.7337 0.983203L2.45039 4.7832C1.18372 5.29987 0.150391 6.84987 0.150391 8.21654V15.5332C0.150391 23.6832 6.06706 31.3165 14.1504 33.5499C14.7004 33.6999 15.3004 33.6999 15.8504 33.5499C23.9337 31.3165 29.8504 23.6832 29.8504 15.5332ZM16.2504 18.4499V22.8332C16.2504 23.5165 15.6837 24.0832 15.0004 24.0832C14.3171 24.0832 13.7504 23.5165 13.7504 22.8332V18.4499C12.0671 17.9165 10.8337 16.3499 10.8337 14.4999C10.8337 12.1999 12.7004 10.3332 15.0004 10.3332C17.3004 10.3332 19.1671 12.1999 19.1671 14.4999C19.1671 16.3665 17.9337 17.9165 16.2504 18.4499Z" fill="#0057FF"/>
</svg>
