<svg width="390" height="434" viewBox="0 0 390 434" fill="none" xmlns="http://www.w3.org/2000/svg">
<g clip-path="url(#clip0_10302_62058)">
<rect width="390" height="434" fill="url(#paint0_radial_10302_62058)"/>
<g opacity="0.04" clip-path="url(#clip1_10302_62058)" filter="url(#filter0_dddddd_10302_62058)">
<path d="M-138.534 36.2458L-138.534 61.4635L-138.486 123.016C-138.534 131.342 -131.796 138.079 -123.471 138.031L-0.365907 138.031L-0.365896 36.1977L-138.486 36.1977L-138.534 36.2458Z" fill="#DEDEDE"/>
<path d="M-36.72 -101.873L-36.72 -0.0399241H101.4L101.4 -87.4357C101.111 -95.3282 94.8067 -101.633 86.9142 -101.921L42.9276 -101.921L-0.433446 -101.873L-36.7681 -101.921L-36.72 -101.873Z" fill="#DEDEDE"/>
<path d="M-138.582 -240.041L-138.63 -0.0391763L-138.582 36.2955L-138.582 61.5132L-138.534 123.066C-138.582 131.391 -131.845 138.129 -123.519 138.081L-36.7488 138.033L-36.7488 36.1992L-36.7007 -0.135436L-36.7006 -101.969L-36.7488 -240.137L-138.582 -240.137L-138.582 -240.041Z" fill="white"/>
<path d="M239.656 36.2567V138.142H101.495V36.2567H239.656Z" fill="url(#paint1_linear_10302_62058)"/>
<path d="M-0.421791 -101.88L-0.421796 -0.0470247L-0.373674 36.2876L-0.373653 138.121L-0.325521 276.289L101.508 276.289L101.46 138.121L101.46 36.2877L101.412 -0.0470301L101.412 -86.8653C101.412 -87.0578 101.363 -87.2021 101.363 -87.3947C101.075 -95.2872 94.7703 -101.592 86.8777 -101.88C86.6852 -101.88 86.5408 -101.929 86.3483 -101.929L42.9392 -101.929L-0.421791 -101.88Z" fill="white"/>
</g>
<g opacity="0.04" clip-path="url(#clip2_10302_62058)" filter="url(#filter1_dddddd_10302_62058)">
<path d="M288.466 343.246L288.466 368.464L288.514 430.016C288.466 438.342 295.204 445.079 303.529 445.031L426.634 445.031L426.634 343.198L288.514 343.198L288.466 343.246Z" fill="#DEDEDE"/>
<path d="M288.449 205.03V306.915H150.288V205.03H288.449Z" fill="url(#paint2_linear_10302_62058)"/>
<path d="M390.28 205.127L390.28 306.96H528.4L528.4 219.564C528.111 211.672 521.807 205.367 513.914 205.079L469.928 205.079L426.567 205.127L390.232 205.079L390.28 205.127Z" fill="#DEDEDE"/>
<path d="M288.418 66.9594L288.37 306.961L288.418 343.296L288.418 368.513L288.466 430.066C288.418 438.391 295.155 445.129 303.481 445.081L390.251 445.033L390.251 343.199L390.299 306.865L390.299 205.031L390.251 66.8632L288.418 66.8632L288.418 66.9594Z" fill="white"/>
<path d="M426.578 205.12L426.578 306.953L426.626 343.288L426.626 445.121L426.674 583.289L528.508 583.289L528.46 445.121L528.46 343.288L528.412 306.953L528.412 220.135C528.412 219.942 528.363 219.798 528.363 219.605C528.075 211.713 521.77 205.408 513.878 205.12C513.685 205.12 513.541 205.071 513.348 205.071L469.939 205.071L426.578 205.12Z" fill="white"/>
</g>
<path d="M77.3679 59.496V93H70.6479V59.496H77.3679ZM91.8313 71.928V84.792C91.8313 85.688 92.0393 86.344 92.4553 86.76C92.9033 87.144 93.6393 87.336 94.6633 87.336H97.7833V93H93.5593C87.8953 93 85.0633 90.248 85.0633 84.744V71.928H81.8953V66.408H85.0633V59.832H91.8313V66.408H97.7833V71.928H91.8313ZM103.961 59.496H111.017L105.833 71.592H101.225L103.961 59.496ZM126.011 93.432C123.835 93.432 121.883 93.048 120.155 92.28C118.427 91.48 117.051 90.408 116.027 89.064C115.035 87.72 114.491 86.232 114.395 84.6H121.163C121.291 85.624 121.787 86.472 122.651 87.144C123.547 87.816 124.651 88.152 125.963 88.152C127.243 88.152 128.235 87.896 128.939 87.384C129.675 86.872 130.043 86.216 130.043 85.416C130.043 84.552 129.595 83.912 128.699 83.496C127.835 83.048 126.443 82.568 124.523 82.056C122.539 81.576 120.907 81.08 119.627 80.568C118.379 80.056 117.291 79.272 116.363 78.216C115.467 77.16 115.019 75.736 115.019 73.944C115.019 72.472 115.435 71.128 116.267 69.912C117.131 68.696 118.347 67.736 119.915 67.032C121.515 66.328 123.387 65.976 125.531 65.976C128.699 65.976 131.227 66.776 133.115 68.376C135.003 69.944 136.043 72.072 136.235 74.76H129.803C129.707 73.704 129.259 72.872 128.459 72.264C127.691 71.624 126.651 71.304 125.339 71.304C124.123 71.304 123.179 71.528 122.507 71.976C121.867 72.424 121.547 73.048 121.547 73.848C121.547 74.744 121.995 75.432 122.891 75.912C123.787 76.36 125.179 76.824 127.067 77.304C128.987 77.784 130.571 78.28 131.819 78.792C133.067 79.304 134.139 80.104 135.035 81.192C135.963 82.248 136.443 83.656 136.475 85.416C136.475 86.952 136.043 88.328 135.179 89.544C134.347 90.76 133.131 91.72 131.531 92.424C129.963 93.096 128.123 93.432 126.011 93.432ZM161.253 71.928V84.792C161.253 85.688 161.461 86.344 161.877 86.76C162.325 87.144 163.061 87.336 164.085 87.336H167.205V93H162.981C157.317 93 154.485 90.248 154.485 84.744V71.928H151.317V66.408H154.485V59.832H161.253V66.408H167.205V71.928H161.253ZM175.447 63.24C174.263 63.24 173.271 62.872 172.471 62.136C171.703 61.368 171.319 60.424 171.319 59.304C171.319 58.184 171.703 57.256 172.471 56.52C173.271 55.752 174.263 55.368 175.447 55.368C176.631 55.368 177.607 55.752 178.375 56.52C179.175 57.256 179.575 58.184 179.575 59.304C179.575 60.424 179.175 61.368 178.375 62.136C177.607 62.872 176.631 63.24 175.447 63.24ZM178.759 66.408V93H172.039V66.408H178.759ZM218.422 66.024C221.686 66.024 224.31 67.032 226.294 69.048C228.31 71.032 229.318 73.816 229.318 77.4V93H222.598V78.312C222.598 76.232 222.07 74.648 221.014 73.56C219.958 72.44 218.518 71.88 216.694 71.88C214.87 71.88 213.414 72.44 212.326 73.56C211.27 74.648 210.742 76.232 210.742 78.312V93H204.022V78.312C204.022 76.232 203.494 74.648 202.438 73.56C201.382 72.44 199.942 71.88 198.118 71.88C196.262 71.88 194.79 72.44 193.702 73.56C192.646 74.648 192.118 76.232 192.118 78.312V93H185.398V66.408H192.118V69.624C192.982 68.504 194.086 67.624 195.43 66.984C196.806 66.344 198.31 66.024 199.942 66.024C202.022 66.024 203.878 66.472 205.51 67.368C207.142 68.232 208.406 69.48 209.302 71.112C210.166 69.576 211.414 68.344 213.046 67.416C214.71 66.488 216.502 66.024 218.422 66.024ZM260.415 79.128C260.415 80.088 260.351 80.952 260.223 81.72H240.783C240.943 83.64 241.615 85.144 242.799 86.232C243.983 87.32 245.439 87.864 247.167 87.864C249.663 87.864 251.439 86.792 252.495 84.648H259.743C258.975 87.208 257.503 89.32 255.327 90.984C253.151 92.616 250.479 93.432 247.311 93.432C244.751 93.432 242.447 92.872 240.399 91.752C238.383 90.6 236.799 88.984 235.647 86.904C234.527 84.824 233.967 82.424 233.967 79.704C233.967 76.952 234.527 74.536 235.647 72.456C236.767 70.376 238.335 68.776 240.351 67.656C242.367 66.536 244.687 65.976 247.311 65.976C249.839 65.976 252.095 66.52 254.079 67.608C256.095 68.696 257.647 70.248 258.735 72.264C259.855 74.248 260.415 76.536 260.415 79.128ZM253.455 77.208C253.423 75.48 252.799 74.104 251.583 73.08C250.367 72.024 248.879 71.496 247.119 71.496C245.455 71.496 244.047 72.008 242.895 73.032C241.775 74.024 241.087 75.416 240.831 77.208H253.455ZM284.581 71.928V84.792C284.581 85.688 284.789 86.344 285.205 86.76C285.653 87.144 286.389 87.336 287.413 87.336H290.533V93H286.309C280.645 93 277.813 90.248 277.813 84.744V71.928H274.645V66.408H277.813V59.832H284.581V66.408H290.533V71.928H284.581ZM307.175 93.432C304.615 93.432 302.311 92.872 300.263 91.752C298.215 90.6 296.599 88.984 295.415 86.904C294.263 84.824 293.687 82.424 293.687 79.704C293.687 76.984 294.279 74.584 295.463 72.504C296.679 70.424 298.327 68.824 300.407 67.704C302.487 66.552 304.807 65.976 307.367 65.976C309.927 65.976 312.247 66.552 314.327 67.704C316.407 68.824 318.039 70.424 319.223 72.504C320.439 74.584 321.047 76.984 321.047 79.704C321.047 82.424 320.423 84.824 319.175 86.904C317.959 88.984 316.295 90.6 314.183 91.752C312.103 92.872 309.767 93.432 307.175 93.432ZM307.175 87.576C308.391 87.576 309.527 87.288 310.583 86.712C311.671 86.104 312.535 85.208 313.175 84.024C313.815 82.84 314.135 81.4 314.135 79.704C314.135 77.176 313.463 75.24 312.119 73.896C310.807 72.52 309.191 71.832 307.271 71.832C305.351 71.832 303.735 72.52 302.423 73.896C301.143 75.24 300.503 77.176 300.503 79.704C300.503 82.232 301.127 84.184 302.375 85.56C303.655 86.904 305.255 87.576 307.175 87.576ZM81.6911 149.432C79.5151 149.432 77.5631 149.048 75.8351 148.28C74.1071 147.48 72.7311 146.408 71.7071 145.064C70.7151 143.72 70.1711 142.232 70.0751 140.6H76.8431C76.9711 141.624 77.4671 142.472 78.3311 143.144C79.2271 143.816 80.3311 144.152 81.6431 144.152C82.9231 144.152 83.9151 143.896 84.6191 143.384C85.3551 142.872 85.7231 142.216 85.7231 141.416C85.7231 140.552 85.2751 139.912 84.3791 139.496C83.5151 139.048 82.1231 138.568 80.2031 138.056C78.2191 137.576 76.5871 137.08 75.3071 136.568C74.0591 136.056 72.9711 135.272 72.0431 134.216C71.1471 133.16 70.6991 131.736 70.6991 129.944C70.6991 128.472 71.1151 127.128 71.9471 125.912C72.8111 124.696 74.0271 123.736 75.5951 123.032C77.1951 122.328 79.0671 121.976 81.2111 121.976C84.3791 121.976 86.9071 122.776 88.7951 124.376C90.6831 125.944 91.7231 128.072 91.9151 130.76H85.4831C85.3871 129.704 84.9391 128.872 84.1391 128.264C83.3711 127.624 82.3311 127.304 81.0191 127.304C79.8031 127.304 78.8591 127.528 78.1871 127.976C77.5471 128.424 77.2271 129.048 77.2271 129.848C77.2271 130.744 77.6751 131.432 78.5711 131.912C79.4671 132.36 80.8591 132.824 82.7471 133.304C84.6671 133.784 86.2511 134.28 87.4991 134.792C88.7471 135.304 89.8191 136.104 90.7151 137.192C91.6431 138.248 92.1231 139.656 92.1551 141.416C92.1551 142.952 91.7231 144.328 90.8591 145.544C90.0271 146.76 88.8111 147.72 87.2111 148.424C85.6431 149.096 83.8031 149.432 81.6911 149.432ZM95.9434 135.608C95.9434 132.92 96.4714 130.536 97.5274 128.456C98.6154 126.376 100.071 124.776 101.895 123.656C103.751 122.536 105.815 121.976 108.087 121.976C110.071 121.976 111.799 122.376 113.271 123.176C114.775 123.976 115.975 124.984 116.871 126.2V122.408H123.639V149H116.871V145.112C116.007 146.36 114.807 147.4 113.271 148.232C111.767 149.032 110.023 149.432 108.039 149.432C105.799 149.432 103.751 148.856 101.895 147.704C100.071 146.552 98.6154 144.936 97.5274 142.856C96.4714 140.744 95.9434 138.328 95.9434 135.608ZM116.871 135.704C116.871 134.072 116.551 132.68 115.911 131.528C115.271 130.344 114.407 129.448 113.319 128.84C112.231 128.2 111.063 127.88 109.815 127.88C108.567 127.88 107.415 128.184 106.359 128.792C105.303 129.4 104.439 130.296 103.767 131.48C103.127 132.632 102.807 134.008 102.807 135.608C102.807 137.208 103.127 138.616 103.767 139.832C104.439 141.016 105.303 141.928 106.359 142.568C107.447 143.208 108.599 143.528 109.815 143.528C111.063 143.528 112.231 143.224 113.319 142.616C114.407 141.976 115.271 141.08 115.911 139.928C116.551 138.744 116.871 137.336 116.871 135.704ZM142.395 127.928H137.739V149H130.923V127.928H127.899V122.408H130.923V121.064C130.923 117.8 131.851 115.4 133.707 113.864C135.563 112.328 138.363 111.608 142.107 111.704V117.368C140.475 117.336 139.339 117.608 138.699 118.184C138.059 118.76 137.739 119.8 137.739 121.304V122.408H142.395V127.928ZM171.47 135.128C171.47 136.088 171.406 136.952 171.278 137.72H151.838C151.998 139.64 152.67 141.144 153.854 142.232C155.038 143.32 156.494 143.864 158.222 143.864C160.718 143.864 162.494 142.792 163.55 140.648H170.798C170.03 143.208 168.558 145.32 166.382 146.984C164.206 148.616 161.534 149.432 158.366 149.432C155.806 149.432 153.502 148.872 151.454 147.752C149.438 146.6 147.854 144.984 146.702 142.904C145.582 140.824 145.021 138.424 145.021 135.704C145.021 132.952 145.582 130.536 146.702 128.456C147.822 126.376 149.39 124.776 151.406 123.656C153.422 122.536 155.742 121.976 158.366 121.976C160.894 121.976 163.15 122.52 165.134 123.608C167.15 124.696 168.702 126.248 169.79 128.264C170.91 130.248 171.47 132.536 171.47 135.128ZM164.51 133.208C164.478 131.48 163.854 130.104 162.638 129.08C161.422 128.024 159.934 127.496 158.174 127.496C156.51 127.496 155.102 128.008 153.95 129.032C152.83 130.024 152.142 131.416 151.886 133.208H164.51ZM186.791 121.976C188.775 121.976 190.519 122.376 192.023 123.176C193.527 123.944 194.711 124.952 195.575 126.2V122.408H202.343V149.192C202.343 151.656 201.847 153.848 200.855 155.768C199.863 157.72 198.375 159.256 196.391 160.376C194.407 161.528 192.007 162.104 189.191 162.104C185.415 162.104 182.311 161.224 179.879 159.464C177.479 157.704 176.119 155.304 175.799 152.264H182.471C182.823 153.48 183.575 154.44 184.727 155.144C185.911 155.88 187.335 156.248 188.999 156.248C190.951 156.248 192.535 155.656 193.751 154.472C194.967 153.32 195.575 151.56 195.575 149.192V145.064C194.711 146.312 193.511 147.352 191.975 148.184C190.471 149.016 188.743 149.432 186.791 149.432C184.551 149.432 182.503 148.856 180.647 147.704C178.791 146.552 177.319 144.936 176.23 142.856C175.174 140.744 174.646 138.328 174.646 135.608C174.646 132.92 175.174 130.536 176.23 128.456C177.319 126.376 178.775 124.776 180.599 123.656C182.455 122.536 184.519 121.976 186.791 121.976ZM195.575 135.704C195.575 134.072 195.255 132.68 194.615 131.528C193.975 130.344 193.111 129.448 192.023 128.84C190.935 128.2 189.767 127.88 188.519 127.88C187.271 127.88 186.119 128.184 185.062 128.792C184.007 129.4 183.143 130.296 182.471 131.48C181.831 132.632 181.511 134.008 181.511 135.608C181.511 137.208 181.831 138.616 182.471 139.832C183.143 141.016 184.007 141.928 185.062 142.568C186.151 143.208 187.303 143.528 188.519 143.528C189.767 143.528 190.935 143.224 192.023 142.616C193.111 141.976 193.975 141.08 194.615 139.928C195.255 138.744 195.575 137.336 195.575 135.704ZM234.01 122.408V149H227.242V145.64C226.378 146.792 225.242 147.704 223.834 148.376C222.458 149.016 220.954 149.336 219.322 149.336C217.242 149.336 215.402 148.904 213.802 148.04C212.202 147.144 210.938 145.848 210.01 144.152C209.114 142.424 208.666 140.376 208.666 138.008V122.408H215.386V137.048C215.386 139.16 215.914 140.792 216.97 141.944C218.026 143.064 219.466 143.624 221.29 143.624C223.146 143.624 224.602 143.064 225.658 141.944C226.714 140.792 227.242 139.16 227.242 137.048V122.408H234.01ZM238.912 135.608C238.912 132.92 239.44 130.536 240.496 128.456C241.584 126.376 243.04 124.776 244.864 123.656C246.72 122.536 248.784 121.976 251.056 121.976C253.04 121.976 254.768 122.376 256.24 123.176C257.744 123.976 258.944 124.984 259.84 126.2V122.408H266.608V149H259.84V145.112C258.976 146.36 257.776 147.4 256.24 148.232C254.736 149.032 252.992 149.432 251.008 149.432C248.768 149.432 246.72 148.856 244.864 147.704C243.04 146.552 241.584 144.936 240.496 142.856C239.44 140.744 238.912 138.328 238.912 135.608ZM259.84 135.704C259.84 134.072 259.52 132.68 258.88 131.528C258.24 130.344 257.376 129.448 256.288 128.84C255.2 128.2 254.032 127.88 252.784 127.88C251.536 127.88 250.384 128.184 249.328 128.792C248.272 129.4 247.408 130.296 246.736 131.48C246.096 132.632 245.776 134.008 245.776 135.608C245.776 137.208 246.096 138.616 246.736 139.832C247.408 141.016 248.272 141.928 249.328 142.568C250.416 143.208 251.568 143.528 252.784 143.528C254.032 143.528 255.2 143.224 256.288 142.616C257.376 141.976 258.24 141.08 258.88 139.928C259.52 138.744 259.84 137.336 259.84 135.704ZM279.891 126.536C280.755 125.128 281.875 124.024 283.251 123.224C284.659 122.424 286.259 122.024 288.051 122.024V129.08H286.275C284.163 129.08 282.563 129.576 281.475 130.568C280.419 131.56 279.891 133.288 279.891 135.752V149H273.171V122.408H279.891V126.536ZM290.85 135.608C290.85 132.92 291.378 130.536 292.434 128.456C293.522 126.376 294.994 124.776 296.85 123.656C298.706 122.536 300.77 121.976 303.042 121.976C304.77 121.976 306.418 122.36 307.986 123.128C309.554 123.864 310.802 124.856 311.73 126.104V113.48H318.546V149H311.73V145.064C310.898 146.376 309.73 147.432 308.226 148.232C306.722 149.032 304.978 149.432 302.994 149.432C300.754 149.432 298.706 148.856 296.85 147.704C294.994 146.552 293.522 144.936 292.434 142.856C291.378 140.744 290.85 138.328 290.85 135.608ZM311.778 135.704C311.778 134.072 311.458 132.68 310.818 131.528C310.178 130.344 309.314 129.448 308.226 128.84C307.138 128.2 305.97 127.88 304.722 127.88C303.474 127.88 302.322 128.184 301.266 128.792C300.21 129.4 299.346 130.296 298.674 131.48C298.034 132.632 297.714 134.008 297.714 135.608C297.714 137.208 298.034 138.616 298.674 139.832C299.346 141.016 300.21 141.928 301.266 142.568C302.354 143.208 303.506 143.528 304.722 143.528C305.97 143.528 307.138 143.224 308.226 142.616C309.314 141.976 310.178 141.08 310.818 139.928C311.458 138.744 311.778 137.336 311.778 135.704Z" fill="white"/>
<path d="M62.9329 183.928V196.792C62.9329 197.688 63.1409 198.344 63.5569 198.76C64.0049 199.144 64.7409 199.336 65.7649 199.336H68.8849V205H64.6609C58.9969 205 56.1649 202.248 56.1649 196.744V183.928H52.9969V178.408H56.1649V171.832H62.9329V178.408H68.8849V183.928H62.9329ZM88.6943 178.024C90.7103 178.024 92.5023 178.472 94.0703 179.368C95.6383 180.232 96.8543 181.528 97.7183 183.256C98.6143 184.952 99.0623 187 99.0623 189.4V205H92.3423V190.312C92.3423 188.2 91.8143 186.584 90.7583 185.464C89.7023 184.312 88.2623 183.736 86.4383 183.736C84.5823 183.736 83.1103 184.312 82.0223 185.464C80.9663 186.584 80.4383 188.2 80.4383 190.312V205H73.7183V169.48H80.4383V181.72C81.3023 180.568 82.4543 179.672 83.8943 179.032C85.3343 178.36 86.9343 178.024 88.6943 178.024ZM130.173 191.128C130.173 192.088 130.109 192.952 129.981 193.72H110.541C110.701 195.64 111.373 197.144 112.557 198.232C113.741 199.32 115.197 199.864 116.925 199.864C119.421 199.864 121.197 198.792 122.253 196.648H129.501C128.733 199.208 127.261 201.32 125.085 202.984C122.909 204.616 120.237 205.432 117.069 205.432C114.509 205.432 112.205 204.872 110.157 203.752C108.141 202.6 106.557 200.984 105.405 198.904C104.285 196.824 103.725 194.424 103.725 191.704C103.725 188.952 104.285 186.536 105.405 184.456C106.525 182.376 108.093 180.776 110.109 179.656C112.125 178.536 114.445 177.976 117.069 177.976C119.597 177.976 121.853 178.52 123.837 179.608C125.853 180.696 127.405 182.248 128.493 184.264C129.613 186.248 130.173 188.536 130.173 191.128ZM123.213 189.208C123.181 187.48 122.557 186.104 121.341 185.08C120.125 184.024 118.637 183.496 116.877 183.496C115.213 183.496 113.805 184.008 112.653 185.032C111.533 186.024 110.845 187.416 110.589 189.208H123.213ZM183.379 178.408L175.603 205H168.355L163.507 186.424L158.659 205H151.363L143.539 178.408H150.355L155.059 198.664L160.147 178.408H167.251L172.243 198.616L176.947 178.408H183.379ZM198.823 205.432C196.263 205.432 193.959 204.872 191.911 203.752C189.863 202.6 188.247 200.984 187.063 198.904C185.911 196.824 185.335 194.424 185.335 191.704C185.335 188.984 185.927 186.584 187.111 184.504C188.327 182.424 189.975 180.824 192.055 179.704C194.135 178.552 196.455 177.976 199.015 177.976C201.575 177.976 203.895 178.552 205.975 179.704C208.055 180.824 209.687 182.424 210.871 184.504C212.087 186.584 212.695 188.984 212.695 191.704C212.695 194.424 212.071 196.824 210.823 198.904C209.607 200.984 207.943 202.6 205.831 203.752C203.751 204.872 201.415 205.432 198.823 205.432ZM198.823 199.576C200.039 199.576 201.175 199.288 202.231 198.712C203.319 198.104 204.183 197.208 204.823 196.024C205.463 194.84 205.783 193.4 205.783 191.704C205.783 189.176 205.111 187.24 203.767 185.896C202.455 184.52 200.839 183.832 198.919 183.832C196.999 183.832 195.383 184.52 194.071 185.896C192.791 187.24 192.151 189.176 192.151 191.704C192.151 194.232 192.775 196.184 194.023 197.56C195.303 198.904 196.903 199.576 198.823 199.576ZM224.345 182.536C225.209 181.128 226.329 180.024 227.705 179.224C229.113 178.424 230.713 178.024 232.505 178.024V185.08H230.729C228.617 185.08 227.017 185.576 225.929 186.568C224.873 187.56 224.345 189.288 224.345 191.752V205H217.625V178.408H224.345V182.536ZM243.751 169.48V205H237.031V169.48H243.751ZM248.662 191.608C248.662 188.92 249.19 186.536 250.246 184.456C251.334 182.376 252.806 180.776 254.662 179.656C256.518 178.536 258.582 177.976 260.854 177.976C262.582 177.976 264.23 178.36 265.798 179.128C267.366 179.864 268.614 180.856 269.542 182.104V169.48H276.358V205H269.542V201.064C268.71 202.376 267.542 203.432 266.038 204.232C264.534 205.032 262.79 205.432 260.806 205.432C258.566 205.432 256.518 204.856 254.662 203.704C252.806 202.552 251.334 200.936 250.246 198.856C249.19 196.744 248.662 194.328 248.662 191.608ZM269.59 191.704C269.59 190.072 269.27 188.68 268.63 187.528C267.99 186.344 267.126 185.448 266.038 184.84C264.95 184.2 263.782 183.88 262.534 183.88C261.286 183.88 260.134 184.184 259.078 184.792C258.022 185.4 257.158 186.296 256.486 187.48C255.846 188.632 255.526 190.008 255.526 191.608C255.526 193.208 255.846 194.616 256.486 195.832C257.158 197.016 258.022 197.928 259.078 198.568C260.166 199.208 261.318 199.528 262.534 199.528C263.782 199.528 264.95 199.224 266.038 198.616C267.126 197.976 267.99 197.08 268.63 195.928C269.27 194.744 269.59 193.336 269.59 191.704ZM306.167 205.432C303.607 205.432 301.303 204.872 299.255 203.752C297.207 202.6 295.591 200.984 294.407 198.904C293.255 196.824 292.679 194.424 292.679 191.704C292.679 188.984 293.271 186.584 294.455 184.504C295.671 182.424 297.319 180.824 299.399 179.704C301.479 178.552 303.799 177.976 306.359 177.976C308.919 177.976 311.239 178.552 313.319 179.704C315.399 180.824 317.031 182.424 318.215 184.504C319.431 186.584 320.039 188.984 320.039 191.704C320.039 194.424 319.415 196.824 318.167 198.904C316.951 200.984 315.287 202.6 313.175 203.752C311.095 204.872 308.759 205.432 306.167 205.432ZM306.167 199.576C307.383 199.576 308.519 199.288 309.575 198.712C310.663 198.104 311.527 197.208 312.167 196.024C312.807 194.84 313.127 193.4 313.127 191.704C313.127 189.176 312.455 187.24 311.111 185.896C309.799 184.52 308.183 183.832 306.263 183.832C304.343 183.832 302.727 184.52 301.415 185.896C300.135 187.24 299.495 189.176 299.495 191.704C299.495 194.232 300.119 196.184 301.367 197.56C302.647 198.904 304.247 199.576 306.167 199.576ZM337.16 183.928H332.504V205H325.688V183.928H322.664V178.408H325.688V177.064C325.688 173.8 326.616 171.4 328.472 169.864C330.328 168.328 333.128 167.608 336.872 167.704V173.368C335.24 173.336 334.104 173.608 333.464 174.184C332.824 174.76 332.504 175.8 332.504 177.304V178.408H337.16V183.928ZM92.5344 239.928V252.792C92.5344 253.688 92.7424 254.344 93.1584 254.76C93.6064 255.144 94.3424 255.336 95.3664 255.336H98.4864V261H94.2624C88.5984 261 85.7664 258.248 85.7664 252.744V239.928H82.5984V234.408H85.7664V227.832H92.5344V234.408H98.4864V239.928H92.5344ZM106.728 231.24C105.544 231.24 104.552 230.872 103.752 230.136C102.984 229.368 102.6 228.424 102.6 227.304C102.6 226.184 102.984 225.256 103.752 224.52C104.552 223.752 105.544 223.368 106.728 223.368C107.912 223.368 108.888 223.752 109.656 224.52C110.456 225.256 110.856 226.184 110.856 227.304C110.856 228.424 110.456 229.368 109.656 230.136C108.888 230.872 107.912 231.24 106.728 231.24ZM110.04 234.408V261H103.32V234.408H110.04ZM114.951 247.704C114.951 244.952 115.511 242.552 116.631 240.504C117.751 238.424 119.303 236.824 121.287 235.704C123.271 234.552 125.543 233.976 128.103 233.976C131.399 233.976 134.119 234.808 136.263 236.472C138.439 238.104 139.895 240.408 140.631 243.384H133.383C132.999 242.232 132.343 241.336 131.415 240.696C130.519 240.024 129.399 239.688 128.055 239.688C126.135 239.688 124.615 240.392 123.495 241.8C122.375 243.176 121.815 245.144 121.815 247.704C121.815 250.232 122.375 252.2 123.495 253.608C124.615 254.984 126.135 255.672 128.055 255.672C130.775 255.672 132.551 254.456 133.383 252.024H140.631C139.895 254.904 138.439 257.192 136.263 258.888C134.087 260.584 131.367 261.432 128.103 261.432C125.543 261.432 123.271 260.872 121.287 259.752C119.303 258.6 117.751 257 116.631 254.952C115.511 252.872 114.951 250.456 114.951 247.704ZM161.298 261L152.274 249.672V261H145.554V225.48H152.274V245.688L161.202 234.408H169.938L158.226 247.752L170.034 261H161.298ZM198.305 247.128C198.305 248.088 198.241 248.952 198.113 249.72H178.673C178.833 251.64 179.505 253.144 180.689 254.232C181.873 255.32 183.329 255.864 185.057 255.864C187.553 255.864 189.329 254.792 190.385 252.648H197.633C196.865 255.208 195.393 257.32 193.217 258.984C191.041 260.616 188.369 261.432 185.201 261.432C182.641 261.432 180.337 260.872 178.289 259.752C176.273 258.6 174.689 256.984 173.537 254.904C172.417 252.824 171.857 250.424 171.857 247.704C171.857 244.952 172.417 242.536 173.537 240.456C174.657 238.376 176.225 236.776 178.241 235.656C180.257 234.536 182.577 233.976 185.201 233.976C187.729 233.976 189.985 234.52 191.969 235.608C193.985 236.696 195.537 238.248 196.625 240.264C197.745 242.248 198.305 244.536 198.305 247.128ZM191.345 245.208C191.313 243.48 190.689 242.104 189.473 241.08C188.257 240.024 186.769 239.496 185.009 239.496C183.345 239.496 181.937 240.008 180.785 241.032C179.665 242.024 178.977 243.416 178.721 245.208H191.345ZM211.034 239.928V252.792C211.034 253.688 211.242 254.344 211.658 254.76C212.106 255.144 212.842 255.336 213.866 255.336H216.986V261H212.762C207.098 261 204.266 258.248 204.266 252.744V239.928H201.098V234.408H204.266V227.832H211.034V234.408H216.986V239.928H211.034ZM225.228 231.24C224.044 231.24 223.052 230.872 222.252 230.136C221.484 229.368 221.1 228.424 221.1 227.304C221.1 226.184 221.484 225.256 222.252 224.52C223.052 223.752 224.044 223.368 225.228 223.368C226.412 223.368 227.388 223.752 228.156 224.52C228.956 225.256 229.356 226.184 229.356 227.304C229.356 228.424 228.956 229.368 228.156 230.136C227.388 230.872 226.412 231.24 225.228 231.24ZM228.54 234.408V261H221.82V234.408H228.54ZM249.915 234.024C253.083 234.024 255.643 235.032 257.595 237.048C259.547 239.032 260.523 241.816 260.523 245.4V261H253.803V246.312C253.803 244.2 253.275 242.584 252.219 241.464C251.163 240.312 249.723 239.736 247.899 239.736C246.043 239.736 244.571 240.312 243.483 241.464C242.427 242.584 241.899 244.2 241.899 246.312V261H235.179V234.408H241.899V237.72C242.795 236.568 243.931 235.672 245.307 235.032C246.715 234.36 248.251 234.024 249.915 234.024ZM277.33 233.976C279.314 233.976 281.058 234.376 282.562 235.176C284.066 235.944 285.25 236.952 286.114 238.2V234.408H292.882V261.192C292.882 263.656 292.386 265.848 291.394 267.768C290.402 269.72 288.914 271.256 286.93 272.376C284.946 273.528 282.546 274.104 279.73 274.104C275.954 274.104 272.85 273.224 270.418 271.464C268.018 269.704 266.658 267.304 266.338 264.264H273.01C273.362 265.48 274.114 266.44 275.266 267.144C276.45 267.88 277.874 268.248 279.538 268.248C281.49 268.248 283.074 267.656 284.29 266.472C285.506 265.32 286.114 263.56 286.114 261.192V257.064C285.25 258.312 284.05 259.352 282.514 260.184C281.01 261.016 279.282 261.432 277.33 261.432C275.09 261.432 273.042 260.856 271.186 259.704C269.33 258.552 267.858 256.936 266.77 254.856C265.714 252.744 265.186 250.328 265.186 247.608C265.186 244.92 265.714 242.536 266.77 240.456C267.858 238.376 269.314 236.776 271.138 235.656C272.994 234.536 275.058 233.976 277.33 233.976ZM286.114 247.704C286.114 246.072 285.794 244.68 285.154 243.528C284.514 242.344 283.65 241.448 282.562 240.84C281.474 240.2 280.306 239.88 279.058 239.88C277.81 239.88 276.658 240.184 275.602 240.792C274.546 241.4 273.682 242.296 273.01 243.48C272.37 244.632 272.05 246.008 272.05 247.608C272.05 249.208 272.37 250.616 273.01 251.832C273.682 253.016 274.546 253.928 275.602 254.568C276.69 255.208 277.842 255.528 279.058 255.528C280.306 255.528 281.474 255.224 282.562 254.616C283.65 253.976 284.514 253.08 285.154 251.928C285.794 250.744 286.114 249.336 286.114 247.704ZM302.421 261.336C301.205 261.336 300.197 260.968 299.397 260.232C298.629 259.464 298.245 258.52 298.245 257.4C298.245 256.28 298.629 255.352 299.397 254.616C300.197 253.848 301.205 253.464 302.421 253.464C303.605 253.464 304.581 253.848 305.349 254.616C306.117 255.352 306.501 256.28 306.501 257.4C306.501 258.52 306.117 259.464 305.349 260.232C304.581 260.968 303.605 261.336 302.421 261.336Z" fill="url(#paint3_linear_10302_62058)"/>
</g>
<defs>
<filter id="filter0_dddddd_10302_62058" x="-412.265" y="-360.224" width="787.062" height="792.357" filterUnits="userSpaceOnUse" color-interpolation-filters="sRGB">
<feFlood flood-opacity="0" result="BackgroundImageFix"/>
<feColorMatrix in="SourceAlpha" type="matrix" values="0 0 0 0 0 0 0 0 0 0 0 0 0 0 0 0 0 0 127 0" result="hardAlpha"/>
<feOffset dy="0.376599"/>
<feGaussianBlur stdDeviation="0.300357"/>
<feColorMatrix type="matrix" values="0 0 0 0 0 0 0 0 0 0 0 0 0 0 0 0 0 0 0.195 0"/>
<feBlend mode="normal" in2="BackgroundImageFix" result="effect1_dropShadow_10302_62058"/>
<feColorMatrix in="SourceAlpha" type="matrix" values="0 0 0 0 0 0 0 0 0 0 0 0 0 0 0 0 0 0 127 0" result="hardAlpha"/>
<feOffset dy="1.65704"/>
<feGaussianBlur stdDeviation="0.621916"/>
<feColorMatrix type="matrix" values="0 0 0 0 0 0 0 0 0 0 0 0 0 0 0 0 0 0 0.318 0"/>
<feBlend mode="normal" in2="effect1_dropShadow_10302_62058" result="effect2_dropShadow_10302_62058"/>
<feColorMatrix in="SourceAlpha" type="matrix" values="0 0 0 0 0 0 0 0 0 0 0 0 0 0 0 0 0 0 127 0" result="hardAlpha"/>
<feOffset dy="4.06727"/>
<feGaussianBlur stdDeviation="1.2403"/>
<feColorMatrix type="matrix" values="0 0 0 0 0 0 0 0 0 0 0 0 0 0 0 0 0 0 0.405 0"/>
<feBlend mode="normal" in2="effect2_dropShadow_10302_62058" result="effect3_dropShadow_10302_62058"/>
<feColorMatrix in="SourceAlpha" type="matrix" values="0 0 0 0 0 0 0 0 0 0 0 0 0 0 0 0 0 0 127 0" result="hardAlpha"/>
<feOffset dy="7.83326"/>
<feGaussianBlur stdDeviation="2.43112"/>
<feColorMatrix type="matrix" values="0 0 0 0 0 0 0 0 0 0 0 0 0 0 0 0 0 0 0.492 0"/>
<feBlend mode="normal" in2="effect3_dropShadow_10302_62058" result="effect4_dropShadow_10302_62058"/>
<feColorMatrix in="SourceAlpha" type="matrix" values="0 0 0 0 0 0 0 0 0 0 0 0 0 0 0 0 0 0 127 0" result="hardAlpha"/>
<feOffset dy="13.181"/>
<feGaussianBlur stdDeviation="4.47002"/>
<feColorMatrix type="matrix" values="0 0 0 0 0 0 0 0 0 0 0 0 0 0 0 0 0 0 0.615 0"/>
<feBlend mode="normal" in2="effect4_dropShadow_10302_62058" result="effect5_dropShadow_10302_62058"/>
<feColorMatrix in="SourceAlpha" type="matrix" values="0 0 0 0 0 0 0 0 0 0 0 0 0 0 0 0 0 0 127 0" result="hardAlpha"/>
<feOffset dy="20.3364"/>
<feGaussianBlur stdDeviation="7.6326"/>
<feColorMatrix type="matrix" values="0 0 0 0 0 0 0 0 0 0 0 0 0 0 0 0 0 0 0.81 0"/>
<feBlend mode="normal" in2="effect5_dropShadow_10302_62058" result="effect6_dropShadow_10302_62058"/>
<feBlend mode="normal" in="SourceGraphic" in2="effect6_dropShadow_10302_62058" result="shape"/>
</filter>
<filter id="filter1_dddddd_10302_62058" x="14.7348" y="-53.2242" width="787.062" height="792.357" filterUnits="userSpaceOnUse" color-interpolation-filters="sRGB">
<feFlood flood-opacity="0" result="BackgroundImageFix"/>
<feColorMatrix in="SourceAlpha" type="matrix" values="0 0 0 0 0 0 0 0 0 0 0 0 0 0 0 0 0 0 127 0" result="hardAlpha"/>
<feOffset dy="0.376599"/>
<feGaussianBlur stdDeviation="0.300357"/>
<feColorMatrix type="matrix" values="0 0 0 0 0 0 0 0 0 0 0 0 0 0 0 0 0 0 0.195 0"/>
<feBlend mode="normal" in2="BackgroundImageFix" result="effect1_dropShadow_10302_62058"/>
<feColorMatrix in="SourceAlpha" type="matrix" values="0 0 0 0 0 0 0 0 0 0 0 0 0 0 0 0 0 0 127 0" result="hardAlpha"/>
<feOffset dy="1.65704"/>
<feGaussianBlur stdDeviation="0.621916"/>
<feColorMatrix type="matrix" values="0 0 0 0 0 0 0 0 0 0 0 0 0 0 0 0 0 0 0.318 0"/>
<feBlend mode="normal" in2="effect1_dropShadow_10302_62058" result="effect2_dropShadow_10302_62058"/>
<feColorMatrix in="SourceAlpha" type="matrix" values="0 0 0 0 0 0 0 0 0 0 0 0 0 0 0 0 0 0 127 0" result="hardAlpha"/>
<feOffset dy="4.06727"/>
<feGaussianBlur stdDeviation="1.2403"/>
<feColorMatrix type="matrix" values="0 0 0 0 0 0 0 0 0 0 0 0 0 0 0 0 0 0 0.405 0"/>
<feBlend mode="normal" in2="effect2_dropShadow_10302_62058" result="effect3_dropShadow_10302_62058"/>
<feColorMatrix in="SourceAlpha" type="matrix" values="0 0 0 0 0 0 0 0 0 0 0 0 0 0 0 0 0 0 127 0" result="hardAlpha"/>
<feOffset dy="7.83326"/>
<feGaussianBlur stdDeviation="2.43112"/>
<feColorMatrix type="matrix" values="0 0 0 0 0 0 0 0 0 0 0 0 0 0 0 0 0 0 0.492 0"/>
<feBlend mode="normal" in2="effect3_dropShadow_10302_62058" result="effect4_dropShadow_10302_62058"/>
<feColorMatrix in="SourceAlpha" type="matrix" values="0 0 0 0 0 0 0 0 0 0 0 0 0 0 0 0 0 0 127 0" result="hardAlpha"/>
<feOffset dy="13.181"/>
<feGaussianBlur stdDeviation="4.47002"/>
<feColorMatrix type="matrix" values="0 0 0 0 0 0 0 0 0 0 0 0 0 0 0 0 0 0 0.615 0"/>
<feBlend mode="normal" in2="effect4_dropShadow_10302_62058" result="effect5_dropShadow_10302_62058"/>
<feColorMatrix in="SourceAlpha" type="matrix" values="0 0 0 0 0 0 0 0 0 0 0 0 0 0 0 0 0 0 127 0" result="hardAlpha"/>
<feOffset dy="20.3364"/>
<feGaussianBlur stdDeviation="7.6326"/>
<feColorMatrix type="matrix" values="0 0 0 0 0 0 0 0 0 0 0 0 0 0 0 0 0 0 0.81 0"/>
<feBlend mode="normal" in2="effect5_dropShadow_10302_62058" result="effect6_dropShadow_10302_62058"/>
<feBlend mode="normal" in="SourceGraphic" in2="effect6_dropShadow_10302_62058" result="shape"/>
</filter>
<radialGradient id="paint0_radial_10302_62058" cx="0" cy="0" r="1" gradientUnits="userSpaceOnUse" gradientTransform="translate(329.062 474.5) rotate(-105.777) scale(493.075 3248.55)">
<stop stop-color="#0046CC"/>
<stop offset="1" stop-color="#0057FF"/>
</radialGradient>
<linearGradient id="paint1_linear_10302_62058" x1="113.081" y1="86.8398" x2="282.867" y2="88.0911" gradientUnits="userSpaceOnUse">
<stop stop-color="#E9E9E9"/>
<stop offset="0.2" stop-color="#F5F5F5"/>
<stop offset="0.4" stop-color="#FDFDFD"/>
<stop offset="0.8" stop-color="white"/>
</linearGradient>
<linearGradient id="paint2_linear_10302_62058" x1="276.772" y1="256.397" x2="107.081" y2="255.146" gradientUnits="userSpaceOnUse">
<stop stop-color="#E9E9E9"/>
<stop offset="0.2" stop-color="#F5F5F5"/>
<stop offset="0.4" stop-color="#FDFDFD"/>
<stop offset="0.8" stop-color="white"/>
</linearGradient>
<linearGradient id="paint3_linear_10302_62058" x1="24" y1="160" x2="366" y2="272" gradientUnits="userSpaceOnUse">
<stop stop-color="#FAFF00"/>
<stop offset="1" stop-color="#ADFF00"/>
</linearGradient>
<clipPath id="clip0_10302_62058">
<rect width="390" height="434" fill="white"/>
</clipPath>
<clipPath id="clip1_10302_62058">
<rect width="534.949" height="534.949" fill="white" transform="matrix(-0.707107 -0.707107 -0.707107 0.707107 359.531 18.2656)"/>
</clipPath>
<clipPath id="clip2_10302_62058">
<rect width="534.949" height="534.949" fill="white" transform="matrix(-0.707107 -0.707107 -0.707107 0.707107 786.531 325.266)"/>
</clipPath>
</defs>
</svg>
