<svg width="1296" height="127" viewBox="0 0 1296 127" fill="none" xmlns="http://www.w3.org/2000/svg">
<path d="M80.16 36.16L64.56 92H51.36L40.88 52.24L29.92 92L16.8 92.08L1.76 36.16H13.76L23.6 79.52L34.96 36.16H47.44L58.16 79.28L68.08 36.16H80.16ZM128.673 68.88C128.673 70.48 128.566 71.92 128.353 73.2H95.9531C96.2198 76.4 97.3398 78.9067 99.3131 80.72C101.286 82.5333 103.713 83.44 106.593 83.44C110.753 83.44 113.713 81.6533 115.473 78.08H127.553C126.273 82.3467 123.82 85.8667 120.193 88.64C116.566 91.36 112.113 92.72 106.833 92.72C102.566 92.72 98.7265 91.7867 95.3131 89.92C91.9531 88 89.3131 85.3067 87.3931 81.84C85.5265 78.3733 84.5931 74.3733 84.5931 69.84C84.5931 65.2533 85.5265 61.2267 87.3931 57.76C89.2598 54.2933 91.8731 51.6267 95.2331 49.76C98.5931 47.8933 102.46 46.96 106.833 46.96C111.046 46.96 114.806 47.8667 118.113 49.68C121.473 51.4933 124.06 54.08 125.873 57.44C127.74 60.7467 128.673 64.56 128.673 68.88ZM117.073 65.68C117.02 62.8 115.98 60.5067 113.953 58.8C111.926 57.04 109.446 56.16 106.513 56.16C103.74 56.16 101.393 57.0133 99.4731 58.72C97.6065 60.3733 96.4598 62.6933 96.0331 65.68H117.073ZM139.088 36.16H150.848L142.208 56.32H134.528L139.088 36.16ZM170.079 54.56C171.519 52.2133 173.386 50.3733 175.679 49.04C178.026 47.7067 180.693 47.04 183.679 47.04V58.8H180.719C177.199 58.8 174.533 59.6267 172.719 61.28C170.959 62.9333 170.079 65.8133 170.079 69.92V92H158.879V47.68H170.079V54.56ZM232.423 68.88C232.423 70.48 232.316 71.92 232.103 73.2H199.703C199.97 76.4 201.09 78.9067 203.063 80.72C205.036 82.5333 207.463 83.44 210.343 83.44C214.503 83.44 217.463 81.6533 219.223 78.08H231.303C230.023 82.3467 227.57 85.8667 223.943 88.64C220.316 91.36 215.863 92.72 210.583 92.72C206.316 92.72 202.476 91.7867 199.063 89.92C195.703 88 193.063 85.3067 191.143 81.84C189.276 78.3733 188.343 74.3733 188.343 69.84C188.343 65.2533 189.276 61.2267 191.143 57.76C193.01 54.2933 195.623 51.6267 198.983 49.76C202.343 47.8933 206.21 46.96 210.583 46.96C214.796 46.96 218.556 47.8667 221.863 49.68C225.223 51.4933 227.81 54.08 229.623 57.44C231.49 60.7467 232.423 64.56 232.423 68.88ZM220.823 65.68C220.77 62.8 219.73 60.5067 217.703 58.8C215.676 57.04 213.196 56.16 210.263 56.16C207.49 56.16 205.143 57.0133 203.223 58.72C201.356 60.3733 200.21 62.6933 199.783 65.68H220.823ZM256.781 69.84C256.781 65.2533 257.714 61.2533 259.581 57.84C261.447 54.3733 264.034 51.7067 267.341 49.84C270.647 47.92 274.434 46.96 278.701 46.96C284.194 46.96 288.727 48.3467 292.301 51.12C295.927 53.84 298.354 57.68 299.581 62.64H287.501C286.861 60.72 285.767 59.2267 284.221 58.16C282.727 57.04 280.861 56.48 278.621 56.48C275.421 56.48 272.887 57.6533 271.021 60C269.154 62.2933 268.221 65.5733 268.221 69.84C268.221 74.0533 269.154 77.3333 271.021 79.68C272.887 81.9733 275.421 83.12 278.621 83.12C283.154 83.12 286.114 81.0933 287.501 77.04H299.581C298.354 81.84 295.927 85.6533 292.301 88.48C288.674 91.3067 284.141 92.72 278.701 92.72C274.434 92.72 270.647 91.7867 267.341 89.92C264.034 88 261.447 85.3333 259.581 81.92C257.714 78.4533 256.781 74.4267 256.781 69.84ZM327.466 92.72C323.199 92.72 319.359 91.7867 315.946 89.92C312.532 88 309.839 85.3067 307.866 81.84C305.946 78.3733 304.986 74.3733 304.986 69.84C304.986 65.3067 305.972 61.3067 307.946 57.84C309.972 54.3733 312.719 51.7067 316.186 49.84C319.652 47.92 323.519 46.96 327.786 46.96C332.052 46.96 335.919 47.92 339.386 49.84C342.852 51.7067 345.572 54.3733 347.546 57.84C349.572 61.3067 350.586 65.3067 350.586 69.84C350.586 74.3733 349.546 78.3733 347.466 81.84C345.439 85.3067 342.666 88 339.146 89.92C335.679 91.7867 331.786 92.72 327.466 92.72ZM327.466 82.96C329.492 82.96 331.386 82.48 333.146 81.52C334.959 80.5067 336.399 79.0133 337.466 77.04C338.532 75.0667 339.066 72.6667 339.066 69.84C339.066 65.6267 337.946 62.4 335.706 60.16C333.519 57.8667 330.826 56.72 327.626 56.72C324.426 56.72 321.732 57.8667 319.546 60.16C317.412 62.4 316.346 65.6267 316.346 69.84C316.346 74.0533 317.386 77.3067 319.466 79.6C321.599 81.84 324.266 82.96 327.466 82.96ZM413.841 47.04C419.281 47.04 423.655 48.72 426.961 52.08C430.321 55.3867 432.001 60.0267 432.001 66V92H420.801V67.52C420.801 64.0533 419.921 61.4133 418.161 59.6C416.401 57.7333 414.001 56.8 410.961 56.8C407.921 56.8 405.495 57.7333 403.681 59.6C401.921 61.4133 401.041 64.0533 401.041 67.52V92H389.841V67.52C389.841 64.0533 388.961 61.4133 387.201 59.6C385.441 57.7333 383.041 56.8 380.001 56.8C376.908 56.8 374.455 57.7333 372.641 59.6C370.881 61.4133 370.001 64.0533 370.001 67.52V92H358.801V47.68H370.001V53.04C371.441 51.1733 373.281 49.7067 375.521 48.64C377.815 47.5733 380.321 47.04 383.041 47.04C386.508 47.04 389.601 47.7867 392.321 49.28C395.041 50.72 397.148 52.8 398.641 55.52C400.081 52.96 402.161 50.9067 404.881 49.36C407.655 47.8133 410.641 47.04 413.841 47.04ZM453.829 54.16C455.269 52.0267 457.243 50.2933 459.749 48.96C462.309 47.6267 465.216 46.96 468.469 46.96C472.256 46.96 475.669 47.8933 478.709 49.76C481.803 51.6267 484.229 54.2933 485.989 57.76C487.803 61.1733 488.709 65.1467 488.709 69.68C488.709 74.2133 487.803 78.24 485.989 81.76C484.229 85.2267 481.803 87.92 478.709 89.84C475.669 91.76 472.256 92.72 468.469 92.72C465.163 92.72 462.256 92.08 459.749 90.8C457.296 89.4667 455.323 87.76 453.829 85.68V92H442.629V32.8H453.829V54.16ZM477.269 69.68C477.269 67.0133 476.709 64.72 475.589 62.8C474.523 60.8267 473.083 59.3333 471.269 58.32C469.509 57.3067 467.589 56.8 465.509 56.8C463.483 56.8 461.563 57.3333 459.749 58.4C457.989 59.4133 456.549 60.9067 455.429 62.88C454.363 64.8533 453.829 67.1733 453.829 69.84C453.829 72.5067 454.363 74.8267 455.429 76.8C456.549 78.7733 457.989 80.2933 459.749 81.36C461.563 82.3733 463.483 82.88 465.509 82.88C467.589 82.88 469.509 82.3467 471.269 81.28C473.083 80.2133 474.523 78.6933 475.589 76.72C476.709 74.7467 477.269 72.4 477.269 69.68ZM493.968 69.68C493.968 65.2 494.848 61.2267 496.608 57.76C498.421 54.2933 500.848 51.6267 503.888 49.76C506.981 47.8933 510.421 46.96 514.208 46.96C517.515 46.96 520.395 47.6267 522.848 48.96C525.355 50.2933 527.355 51.9733 528.848 54V47.68H540.128V92H528.848V85.52C527.408 87.6 525.408 89.3333 522.848 90.72C520.341 92.0533 517.435 92.72 514.128 92.72C510.395 92.72 506.981 91.76 503.888 89.84C500.848 87.92 498.421 85.2267 496.608 81.76C494.848 78.24 493.968 74.2133 493.968 69.68ZM528.848 69.84C528.848 67.12 528.315 64.8 527.248 62.88C526.181 60.9067 524.741 59.4133 522.928 58.4C521.115 57.3333 519.168 56.8 517.088 56.8C515.008 56.8 513.088 57.3067 511.328 58.32C509.568 59.3333 508.128 60.8267 507.008 62.8C505.941 64.72 505.408 67.0133 505.408 69.68C505.408 72.3467 505.941 74.6933 507.008 76.72C508.128 78.6933 509.568 80.2133 511.328 81.28C513.141 82.3467 515.061 82.88 517.088 82.88C519.168 82.88 521.115 82.3733 522.928 81.36C524.741 80.2933 526.181 78.8 527.248 76.88C528.315 74.9067 528.848 72.56 528.848 69.84ZM564.107 56.88V78.32C564.107 79.8133 564.454 80.9067 565.147 81.6C565.894 82.24 567.12 82.56 568.827 82.56H574.027V92H566.987C557.547 92 552.827 87.4133 552.827 78.24V56.88H547.547V47.68H552.827V36.72H564.107V47.68H574.027V56.88H564.107ZM587.763 42.4C585.789 42.4 584.136 41.7867 582.803 40.56C581.523 39.28 580.883 37.7067 580.883 35.84C580.883 33.9733 581.523 32.4267 582.803 31.2C584.136 29.92 585.789 29.28 587.763 29.28C589.736 29.28 591.363 29.92 592.643 31.2C593.976 32.4267 594.643 33.9733 594.643 35.84C594.643 37.7067 593.976 39.28 592.643 40.56C591.363 41.7867 589.736 42.4 587.763 42.4ZM593.283 47.68V92H582.083V47.68H593.283ZM628.908 47.04C634.188 47.04 638.455 48.72 641.708 52.08C644.961 55.3867 646.588 60.0267 646.588 66V92H635.388V67.52C635.388 64 634.508 61.3067 632.748 59.44C630.988 57.52 628.588 56.56 625.548 56.56C622.455 56.56 620.001 57.52 618.188 59.44C616.428 61.3067 615.548 64 615.548 67.52V92H604.348V47.68H615.548V53.2C617.041 51.28 618.935 49.7867 621.228 48.72C623.575 47.6 626.135 47.04 628.908 47.04ZM674.599 46.96C677.905 46.96 680.812 47.6267 683.319 48.96C685.825 50.24 687.799 51.92 689.239 54V47.68H700.519V92.32C700.519 96.4267 699.692 100.08 698.039 103.28C696.385 106.533 693.905 109.093 690.599 110.96C687.292 112.88 683.292 113.84 678.599 113.84C672.305 113.84 667.132 112.373 663.079 109.44C659.079 106.507 656.812 102.507 656.279 97.44H667.399C667.985 99.4667 669.239 101.067 671.159 102.24C673.132 103.467 675.505 104.08 678.279 104.08C681.532 104.08 684.172 103.093 686.199 101.12C688.225 99.2 689.239 96.2667 689.239 92.32V85.44C687.799 87.52 685.799 89.2533 683.239 90.64C680.732 92.0267 677.852 92.72 674.599 92.72C670.865 92.72 667.452 91.76 664.359 89.84C661.265 87.92 658.812 85.2267 656.999 81.76C655.239 78.24 654.359 74.2133 654.359 69.68C654.359 65.2 655.239 61.2267 656.999 57.76C658.812 54.2933 661.239 51.6267 664.279 49.76C667.372 47.8933 670.812 46.96 674.599 46.96ZM689.239 69.84C689.239 67.12 688.705 64.8 687.639 62.88C686.572 60.9067 685.132 59.4133 683.319 58.4C681.505 57.3333 679.559 56.8 677.479 56.8C675.399 56.8 673.479 57.3067 671.719 58.32C669.959 59.3333 668.519 60.8267 667.399 62.8C666.332 64.72 665.799 67.0133 665.799 69.68C665.799 72.3467 666.332 74.6933 667.399 76.72C668.519 78.6933 669.959 80.2133 671.719 81.28C673.532 82.3467 675.452 82.88 677.479 82.88C679.559 82.88 681.505 82.3733 683.319 81.36C685.132 80.2933 686.572 78.8 687.639 76.88C688.705 74.9067 689.239 72.56 689.239 69.84Z" fill="#0D2244"/>
<g clip-path="url(#clip0_1761_145265)">
<path d="M743.56 8.88V30.32C743.56 31.8133 743.907 32.9067 744.6 33.6C745.347 34.24 746.573 34.56 748.28 34.56H753.48V44H746.44C737 44 732.28 39.4133 732.28 30.24V8.88H727V-0.320002H732.28V-11.28H743.56V-0.320002H753.48V8.88H743.56ZM767.216 -5.6C765.242 -5.6 763.589 -6.21333 762.256 -7.44C760.976 -8.72 760.336 -10.2933 760.336 -12.16C760.336 -14.0267 760.976 -15.5733 762.256 -16.8C763.589 -18.08 765.242 -18.72 767.216 -18.72C769.189 -18.72 770.816 -18.08 772.096 -16.8C773.429 -15.5733 774.096 -14.0267 774.096 -12.16C774.096 -10.2933 773.429 -8.72 772.096 -7.44C770.816 -6.21333 769.189 -5.6 767.216 -5.6ZM772.736 -0.320002V44H761.536V-0.320002H772.736ZM780.921 21.84C780.921 17.2533 781.855 13.2533 783.721 9.84C785.588 6.37333 788.175 3.70667 791.481 1.84C794.788 -0.0800015 798.575 -1.04 802.841 -1.04C808.335 -1.04 812.868 0.346664 816.441 3.12C820.068 5.84 822.495 9.68 823.721 14.64H811.641C811.001 12.72 809.908 11.2267 808.361 10.16C806.868 9.04 805.001 8.48 802.761 8.48C799.561 8.48 797.028 9.65333 795.161 12C793.295 14.2933 792.361 17.5733 792.361 21.84C792.361 26.0533 793.295 29.3333 795.161 31.68C797.028 33.9733 799.561 35.12 802.761 35.12C807.295 35.12 810.255 33.0933 811.641 29.04H823.721C822.495 33.84 820.068 37.6533 816.441 40.48C812.815 43.3067 808.281 44.72 802.841 44.72C798.575 44.72 794.788 43.7867 791.481 41.92C788.175 40 785.588 37.3333 783.721 33.92C781.855 30.4533 780.921 26.4267 780.921 21.84ZM858.166 44L843.126 25.12V44H831.926V-15.2H843.126V18.48L858.006 -0.320002H872.566L853.046 21.92L872.726 44H858.166ZM919.845 20.88C919.845 22.48 919.738 23.92 919.525 25.2H887.125C887.392 28.4 888.512 30.9067 890.485 32.72C892.458 34.5333 894.885 35.44 897.765 35.44C901.925 35.44 904.885 33.6533 906.645 30.08H918.725C917.445 34.3467 914.992 37.8667 911.365 40.64C907.738 43.36 903.285 44.72 898.005 44.72C893.738 44.72 889.898 43.7867 886.485 41.92C883.125 40 880.485 37.3067 878.565 33.84C876.698 30.3733 875.765 26.3733 875.765 21.84C875.765 17.2533 876.698 13.2267 878.565 9.76C880.432 6.29333 883.045 3.62667 886.405 1.76C889.765 -0.106668 893.632 -1.04 898.005 -1.04C902.218 -1.04 905.978 -0.133336 909.285 1.68C912.645 3.49333 915.232 6.08 917.045 9.44C918.912 12.7467 919.845 16.56 919.845 20.88ZM908.245 17.68C908.192 14.8 907.152 12.5067 905.125 10.8C903.098 9.04 900.618 8.16 897.685 8.16C894.912 8.16 892.565 9.01333 890.645 10.72C888.778 12.3733 887.632 14.6933 887.205 17.68H908.245ZM941.06 8.88V30.32C941.06 31.8133 941.407 32.9067 942.1 33.6C942.847 34.24 944.073 34.56 945.78 34.56H950.98V44H943.94C934.5 44 929.78 39.4133 929.78 30.24V8.88H924.5V-0.320002H929.78V-11.28H941.06V-0.320002H950.98V8.88H941.06ZM998.418 8.88H990.658V44H979.298V8.88H974.258V-0.320002H979.298V-2.56C979.298 -8 980.845 -12 983.938 -14.56C987.031 -17.12 991.698 -18.32 997.938 -18.16V-8.72C995.218 -8.77334 993.325 -8.32 992.258 -7.36C991.191 -6.4 990.658 -4.66667 990.658 -2.16V-0.320002H998.418V8.88ZM1016.88 6.56C1018.32 4.21333 1020.18 2.37333 1022.48 1.04C1024.82 -0.293335 1027.49 -0.960003 1030.48 -0.960003V10.8H1027.52C1024 10.8 1021.33 11.6267 1019.52 13.28C1017.76 14.9333 1016.88 17.8133 1016.88 21.92V44H1005.68V-0.320002H1016.88V6.56ZM1035.14 21.68C1035.14 17.2 1036.02 13.2267 1037.78 9.76C1039.59 6.29333 1042.02 3.62667 1045.06 1.76C1048.15 -0.106668 1051.59 -1.04 1055.38 -1.04C1058.69 -1.04 1061.57 -0.373336 1064.02 0.959996C1066.53 2.29333 1068.53 3.97333 1070.02 6V-0.320002H1081.3V44H1070.02V37.52C1068.58 39.6 1066.58 41.3333 1064.02 42.72C1061.51 44.0533 1058.61 44.72 1055.3 44.72C1051.57 44.72 1048.15 43.76 1045.06 41.84C1042.02 39.92 1039.59 37.2267 1037.78 33.76C1036.02 30.24 1035.14 26.2133 1035.14 21.68ZM1070.02 21.84C1070.02 19.12 1069.49 16.8 1068.42 14.88C1067.35 12.9067 1065.91 11.4133 1064.1 10.4C1062.29 9.33333 1060.34 8.8 1058.26 8.8C1056.18 8.8 1054.26 9.30666 1052.5 10.32C1050.74 11.3333 1049.3 12.8267 1048.18 14.8C1047.11 16.72 1046.58 19.0133 1046.58 21.68C1046.58 24.3467 1047.11 26.6933 1048.18 28.72C1049.3 30.6933 1050.74 32.2133 1052.5 33.28C1054.31 34.3467 1056.23 34.88 1058.26 34.88C1060.34 34.88 1062.29 34.3733 1064.1 33.36C1065.91 32.2933 1067.35 30.8 1068.42 28.88C1069.49 26.9067 1070.02 24.56 1070.02 21.84ZM1134.08 -0.320002V44H1122.8V38.4C1121.36 40.32 1119.47 41.84 1117.12 42.96C1114.83 44.0267 1112.32 44.56 1109.6 44.56C1106.13 44.56 1103.07 43.84 1100.4 42.4C1097.73 40.9067 1095.63 38.7467 1094.08 35.92C1092.59 33.04 1091.84 29.6267 1091.84 25.68V-0.320002H1103.04V24.08C1103.04 27.6 1103.92 30.32 1105.68 32.24C1107.44 34.1067 1109.84 35.04 1112.88 35.04C1115.97 35.04 1118.4 34.1067 1120.16 32.24C1121.92 30.32 1122.8 27.6 1122.8 24.08V-0.320002H1134.08ZM1142.25 21.68C1142.25 17.2 1143.13 13.2267 1144.89 9.76C1146.7 6.29333 1149.16 3.62667 1152.25 1.76C1155.34 -0.106668 1158.78 -1.04 1162.57 -1.04C1165.45 -1.04 1168.2 -0.400002 1170.81 0.879997C1173.42 2.10666 1175.5 3.76 1177.05 5.84V-15.2H1188.41V44H1177.05V37.44C1175.66 39.6267 1173.72 41.3867 1171.21 42.72C1168.7 44.0533 1165.8 44.72 1162.49 44.72C1158.76 44.72 1155.34 43.76 1152.25 41.84C1149.16 39.92 1146.7 37.2267 1144.89 33.76C1143.13 30.24 1142.25 26.2133 1142.25 21.68ZM1177.13 21.84C1177.13 19.12 1176.6 16.8 1175.53 14.88C1174.46 12.9067 1173.02 11.4133 1171.21 10.4C1169.4 9.33333 1167.45 8.8 1165.37 8.8C1163.29 8.8 1161.37 9.30666 1159.61 10.32C1157.85 11.3333 1156.41 12.8267 1155.29 14.8C1154.22 16.72 1153.69 19.0133 1153.69 21.68C1153.69 24.3467 1154.22 26.6933 1155.29 28.72C1156.41 30.6933 1157.85 32.2133 1159.61 33.28C1161.42 34.3467 1163.34 34.88 1165.37 34.88C1167.45 34.88 1169.4 34.3733 1171.21 33.36C1173.02 32.2933 1174.46 30.8 1175.53 28.88C1176.6 26.9067 1177.13 24.56 1177.13 21.84Z" fill="white"/>
<path d="M747.48 140.72C743.853 140.72 740.6 140.08 737.72 138.8C734.84 137.467 732.547 135.68 730.84 133.44C729.187 131.2 728.28 128.72 728.12 126H739.4C739.613 127.707 740.44 129.12 741.88 130.24C743.373 131.36 745.213 131.92 747.4 131.92C749.533 131.92 751.187 131.493 752.36 130.64C753.587 129.787 754.2 128.693 754.2 127.36C754.2 125.92 753.453 124.853 751.96 124.16C750.52 123.413 748.2 122.613 745 121.76C741.693 120.96 738.973 120.133 736.84 119.28C734.76 118.427 732.947 117.12 731.4 115.36C729.907 113.6 729.16 111.227 729.16 108.24C729.16 105.787 729.853 103.547 731.24 101.52C732.68 99.4933 734.707 97.8933 737.32 96.72C739.987 95.5467 743.107 94.96 746.68 94.96C751.96 94.96 756.173 96.2933 759.32 98.96C762.467 101.573 764.2 105.12 764.52 109.6H753.8C753.64 107.84 752.893 106.453 751.56 105.44C750.28 104.373 748.547 103.84 746.36 103.84C744.333 103.84 742.76 104.213 741.64 104.96C740.573 105.707 740.04 106.747 740.04 108.08C740.04 109.573 740.787 110.72 742.28 111.52C743.773 112.267 746.093 113.04 749.24 113.84C752.44 114.64 755.08 115.467 757.16 116.32C759.24 117.173 761.027 118.507 762.52 120.32C764.067 122.08 764.867 124.427 764.92 127.36C764.92 129.92 764.2 132.213 762.76 134.24C761.373 136.267 759.347 137.867 756.68 139.04C754.067 140.16 751 140.72 747.48 140.72ZM771.234 117.84C771.234 113.253 772.167 109.253 774.034 105.84C775.9 102.373 778.487 99.7067 781.794 97.84C785.1 95.92 788.887 94.96 793.154 94.96C798.647 94.96 803.18 96.3467 806.754 99.12C810.38 101.84 812.807 105.68 814.034 110.64H801.954C801.314 108.72 800.22 107.227 798.674 106.16C797.18 105.04 795.314 104.48 793.074 104.48C789.874 104.48 787.34 105.653 785.474 108C783.607 110.293 782.674 113.573 782.674 117.84C782.674 122.053 783.607 125.333 785.474 127.68C787.34 129.973 789.874 131.12 793.074 131.12C797.607 131.12 800.567 129.093 801.954 125.04H814.034C812.807 129.84 810.38 133.653 806.754 136.48C803.127 139.307 798.594 140.72 793.154 140.72C788.887 140.72 785.1 139.787 781.794 137.92C778.487 136 775.9 133.333 774.034 129.92C772.167 126.453 771.234 122.427 771.234 117.84ZM819.359 117.68C819.359 113.2 820.239 109.227 821.999 105.76C823.812 102.293 826.239 99.6267 829.279 97.76C832.372 95.8933 835.812 94.96 839.599 94.96C842.905 94.96 845.785 95.6267 848.239 96.96C850.745 98.2933 852.745 99.9733 854.239 102V95.68H865.519V140H854.239V133.52C852.799 135.6 850.799 137.333 848.239 138.72C845.732 140.053 842.825 140.72 839.519 140.72C835.785 140.72 832.372 139.76 829.279 137.84C826.239 135.92 823.812 133.227 821.999 129.76C820.239 126.24 819.359 122.213 819.359 117.68ZM854.239 117.84C854.239 115.12 853.705 112.8 852.639 110.88C851.572 108.907 850.132 107.413 848.319 106.4C846.505 105.333 844.559 104.8 842.479 104.8C840.399 104.8 838.479 105.307 836.719 106.32C834.959 107.333 833.519 108.827 832.399 110.8C831.332 112.72 830.799 115.013 830.799 117.68C830.799 120.347 831.332 122.693 832.399 124.72C833.519 126.693 834.959 128.213 836.719 129.28C838.532 130.347 840.452 130.88 842.479 130.88C844.559 130.88 846.505 130.373 848.319 129.36C850.132 128.293 851.572 126.8 852.639 124.88C853.705 122.907 854.239 120.56 854.239 117.84ZM931.498 95.04C936.938 95.04 941.311 96.72 944.618 100.08C947.978 103.387 949.658 108.027 949.658 114V140H938.458V115.52C938.458 112.053 937.578 109.413 935.818 107.6C934.058 105.733 931.658 104.8 928.618 104.8C925.578 104.8 923.151 105.733 921.338 107.6C919.578 109.413 918.698 112.053 918.698 115.52V140H907.498V115.52C907.498 112.053 906.618 109.413 904.858 107.6C903.098 105.733 900.698 104.8 897.658 104.8C894.564 104.8 892.111 105.733 890.298 107.6C888.538 109.413 887.658 112.053 887.658 115.52V140H876.458V95.68H887.658V101.04C889.098 99.1733 890.938 97.7067 893.178 96.64C895.471 95.5733 897.978 95.04 900.698 95.04C904.164 95.04 907.258 95.7867 909.978 97.28C912.698 98.72 914.804 100.8 916.298 103.52C917.738 100.96 919.818 98.9067 922.538 97.36C925.311 95.8133 928.298 95.04 931.498 95.04ZM977.246 140.72C973.619 140.72 970.366 140.08 967.486 138.8C964.606 137.467 962.312 135.68 960.606 133.44C958.952 131.2 958.046 128.72 957.886 126H969.166C969.379 127.707 970.206 129.12 971.646 130.24C973.139 131.36 974.979 131.92 977.166 131.92C979.299 131.92 980.952 131.493 982.126 130.64C983.352 129.787 983.966 128.693 983.966 127.36C983.966 125.92 983.219 124.853 981.726 124.16C980.286 123.413 977.966 122.613 974.766 121.76C971.459 120.96 968.739 120.133 966.606 119.28C964.526 118.427 962.712 117.12 961.166 115.36C959.672 113.6 958.926 111.227 958.926 108.24C958.926 105.787 959.619 103.547 961.006 101.52C962.446 99.4933 964.472 97.8933 967.086 96.72C969.752 95.5467 972.872 94.96 976.446 94.96C981.726 94.96 985.939 96.2933 989.086 98.96C992.232 101.573 993.966 105.12 994.286 109.6H983.566C983.406 107.84 982.659 106.453 981.326 105.44C980.046 104.373 978.312 103.84 976.126 103.84C974.099 103.84 972.526 104.213 971.406 104.96C970.339 105.707 969.806 106.747 969.806 108.08C969.806 109.573 970.552 110.72 972.046 111.52C973.539 112.267 975.859 113.04 979.006 113.84C982.206 114.64 984.846 115.467 986.926 116.32C989.006 117.173 990.792 118.507 992.286 120.32C993.832 122.08 994.632 124.427 994.686 127.36C994.686 129.92 993.966 132.213 992.526 134.24C991.139 136.267 989.112 137.867 986.446 139.04C983.832 140.16 980.766 140.72 977.246 140.72Z" fill="white"/>
</g>
<defs>
<clipPath id="clip0_1761_145265">
<rect width="1296" height="127" fill="white"/>
</clipPath>
</defs>
</svg>
