<svg width="870" height="181" viewBox="0 0 870 181" fill="none" xmlns="http://www.w3.org/2000/svg">
<path d="M14.72 7.16V63H3.52V7.16H14.72ZM38.8256 27.88V49.32C38.8256 50.8133 39.1723 51.9067 39.8656 52.6C40.6123 53.24 41.839 53.56 43.5456 53.56H48.7456V63H41.7056C32.2656 63 27.5456 58.4133 27.5456 49.24V27.88H22.2656V18.68H27.5456V7.72H38.8256V18.68H48.7456V27.88H38.8256ZM59.0413 7.16H70.8013L62.1613 27.32H54.4813L59.0413 7.16ZM95.7925 63.72C92.1658 63.72 88.9125 63.08 86.0325 61.8C83.1525 60.4667 80.8592 58.68 79.1525 56.44C77.4992 54.2 76.5925 51.72 76.4325 49H87.7125C87.9258 50.7067 88.7525 52.12 90.1925 53.24C91.6858 54.36 93.5258 54.92 95.7125 54.92C97.8458 54.92 99.4992 54.4933 100.673 53.64C101.899 52.7867 102.513 51.6933 102.513 50.36C102.513 48.92 101.766 47.8533 100.273 47.16C98.8325 46.4133 96.5125 45.6133 93.3125 44.76C90.0058 43.96 87.2858 43.1333 85.1525 42.28C83.0725 41.4267 81.2592 40.12 79.7125 38.36C78.2192 36.6 77.4725 34.2267 77.4725 31.24C77.4725 28.7867 78.1658 26.5467 79.5525 24.52C80.9925 22.4933 83.0192 20.8933 85.6325 19.72C88.2992 18.5467 91.4192 17.96 94.9925 17.96C100.273 17.96 104.486 19.2933 107.633 21.96C110.779 24.5733 112.513 28.12 112.833 32.6H102.113C101.953 30.84 101.206 29.4533 99.8725 28.44C98.5925 27.3733 96.8592 26.84 94.6725 26.84C92.6458 26.84 91.0725 27.2133 89.9525 27.96C88.8858 28.7067 88.3525 29.7467 88.3525 31.08C88.3525 32.5733 89.0992 33.72 90.5925 34.52C92.0858 35.2667 94.4058 36.04 97.5525 36.84C100.753 37.64 103.393 38.4667 105.473 39.32C107.553 40.1733 109.339 41.5067 110.833 43.32C112.379 45.08 113.179 47.4267 113.233 50.36C113.233 52.92 112.513 55.2133 111.073 57.24C109.686 59.2667 107.659 60.8667 104.993 62.04C102.379 63.16 99.3125 63.72 95.7925 63.72ZM154.529 27.88V49.32C154.529 50.8133 154.875 51.9067 155.569 52.6C156.315 53.24 157.542 53.56 159.249 53.56H164.449V63H157.409C147.969 63 143.249 58.4133 143.249 49.24V27.88H137.969V18.68H143.249V7.72H154.529V18.68H164.449V27.88H154.529ZM178.184 13.4C176.211 13.4 174.558 12.7867 173.224 11.56C171.944 10.28 171.304 8.70666 171.304 6.84C171.304 4.97333 171.944 3.42666 173.224 2.2C174.558 0.919997 176.211 0.279997 178.184 0.279997C180.158 0.279997 181.784 0.919997 183.064 2.2C184.398 3.42666 185.064 4.97333 185.064 6.84C185.064 8.70666 184.398 10.28 183.064 11.56C181.784 12.7867 180.158 13.4 178.184 13.4ZM183.704 18.68V63H172.504V18.68H183.704ZM249.81 18.04C255.25 18.04 259.623 19.72 262.93 23.08C266.29 26.3867 267.97 31.0267 267.97 37V63H256.77V38.52C256.77 35.0533 255.89 32.4133 254.13 30.6C252.37 28.7333 249.97 27.8 246.93 27.8C243.89 27.8 241.463 28.7333 239.65 30.6C237.89 32.4133 237.01 35.0533 237.01 38.52V63H225.81V38.52C225.81 35.0533 224.93 32.4133 223.17 30.6C221.41 28.7333 219.01 27.8 215.97 27.8C212.877 27.8 210.423 28.7333 208.61 30.6C206.85 32.4133 205.97 35.0533 205.97 38.52V63H194.77V18.68H205.97V24.04C207.41 22.1733 209.25 20.7067 211.49 19.64C213.783 18.5733 216.29 18.04 219.01 18.04C222.477 18.04 225.57 18.7867 228.29 20.28C231.01 21.72 233.117 23.8 234.61 26.52C236.05 23.96 238.13 21.9067 240.85 20.36C243.623 18.8133 246.61 18.04 249.81 18.04ZM319.798 39.88C319.798 41.48 319.691 42.92 319.478 44.2H287.078C287.345 47.4 288.465 49.9067 290.438 51.72C292.411 53.5333 294.838 54.44 297.718 54.44C301.878 54.44 304.838 52.6533 306.598 49.08H318.678C317.398 53.3467 314.945 56.8667 311.318 59.64C307.691 62.36 303.238 63.72 297.958 63.72C293.691 63.72 289.851 62.7867 286.438 60.92C283.078 59 280.438 56.3067 278.518 52.84C276.651 49.3733 275.718 45.3733 275.718 40.84C275.718 36.2533 276.651 32.2267 278.518 28.76C280.385 25.2933 282.998 22.6267 286.358 20.76C289.718 18.8933 293.585 17.96 297.958 17.96C302.171 17.96 305.931 18.8667 309.238 20.68C312.598 22.4933 315.185 25.08 316.998 28.44C318.865 31.7467 319.798 35.56 319.798 39.88ZM308.198 36.68C308.145 33.8 307.105 31.5067 305.078 29.8C303.051 28.04 300.571 27.16 297.638 27.16C294.865 27.16 292.518 28.0133 290.598 29.72C288.731 31.3733 287.585 33.6933 287.158 36.68H308.198ZM360.076 27.88V49.32C360.076 50.8133 360.422 51.9067 361.116 52.6C361.862 53.24 363.089 53.56 364.796 53.56H369.996V63H362.956C353.516 63 348.796 58.4133 348.796 49.24V27.88H343.516V18.68H348.796V7.72H360.076V18.68H369.996V27.88H360.076ZM397.731 63.72C393.465 63.72 389.625 62.7867 386.211 60.92C382.798 59 380.105 56.3067 378.131 52.84C376.211 49.3733 375.251 45.3733 375.251 40.84C375.251 36.3067 376.238 32.3067 378.211 28.84C380.238 25.3733 382.985 22.7067 386.451 20.84C389.918 18.92 393.785 17.96 398.051 17.96C402.318 17.96 406.185 18.92 409.651 20.84C413.118 22.7067 415.838 25.3733 417.811 28.84C419.838 32.3067 420.851 36.3067 420.851 40.84C420.851 45.3733 419.811 49.3733 417.731 52.84C415.705 56.3067 412.931 59 409.411 60.92C405.945 62.7867 402.051 63.72 397.731 63.72ZM397.731 53.96C399.758 53.96 401.651 53.48 403.411 52.52C405.225 51.5067 406.665 50.0133 407.731 48.04C408.798 46.0667 409.331 43.6667 409.331 40.84C409.331 36.6267 408.211 33.4 405.971 31.16C403.785 28.8667 401.091 27.72 397.891 27.72C394.691 27.72 391.998 28.8667 389.811 31.16C387.678 33.4 386.611 36.6267 386.611 40.84C386.611 45.0533 387.651 48.3067 389.731 50.6C391.865 52.84 394.531 53.96 397.731 53.96ZM16.56 123.88V145.32C16.56 146.813 16.9067 147.907 17.6 148.6C18.3467 149.24 19.5733 149.56 21.28 149.56H26.48V159H19.44C10 159 5.28 154.413 5.28 145.24V123.88H2.98023e-08V114.68H5.28V103.72H16.56V114.68H26.48V123.88H16.56ZM59.4956 114.04C62.8556 114.04 65.8423 114.787 68.4556 116.28C71.069 117.72 73.0956 119.88 74.5356 122.76C76.029 125.587 76.7756 129 76.7756 133V159H65.5756V134.52C65.5756 131 64.6956 128.307 62.9356 126.44C61.1756 124.52 58.7756 123.56 55.7356 123.56C52.6423 123.56 50.189 124.52 48.3756 126.44C46.6156 128.307 45.7356 131 45.7356 134.52V159H34.5356V99.8H45.7356V120.2C47.1756 118.28 49.0956 116.787 51.4956 115.72C53.8956 114.6 56.5623 114.04 59.4956 114.04ZM128.626 135.88C128.626 137.48 128.52 138.92 128.306 140.2H95.9063C96.1729 143.4 97.2929 145.907 99.2663 147.72C101.24 149.533 103.666 150.44 106.546 150.44C110.706 150.44 113.666 148.653 115.426 145.08H127.506C126.226 149.347 123.773 152.867 120.146 155.64C116.52 158.36 112.066 159.72 106.786 159.72C102.52 159.72 98.6796 158.787 95.2663 156.92C91.9063 155 89.2663 152.307 87.3463 148.84C85.4796 145.373 84.5462 141.373 84.5462 136.84C84.5462 132.253 85.4796 128.227 87.3463 124.76C89.2129 121.293 91.8263 118.627 95.1863 116.76C98.5463 114.893 102.413 113.96 106.786 113.96C111 113.96 114.76 114.867 118.066 116.68C121.426 118.493 124.013 121.08 125.826 124.44C127.693 127.747 128.626 131.56 128.626 135.88ZM117.026 132.68C116.973 129.8 115.933 127.507 113.906 125.8C111.88 124.04 109.4 123.16 106.466 123.16C103.693 123.16 101.346 124.013 99.4263 125.72C97.5596 127.373 96.4129 129.693 95.9863 132.68H117.026ZM217.304 114.68L204.344 159H192.264L184.184 128.04L176.104 159H163.944L150.904 114.68H162.264L170.104 148.44L178.584 114.68H190.424L198.744 148.36L206.584 114.68H217.304ZM243.044 159.72C238.777 159.72 234.937 158.787 231.524 156.92C228.11 155 225.417 152.307 223.444 148.84C221.524 145.373 220.564 141.373 220.564 136.84C220.564 132.307 221.55 128.307 223.524 124.84C225.55 121.373 228.297 118.707 231.764 116.84C235.23 114.92 239.097 113.96 243.364 113.96C247.63 113.96 251.497 114.92 254.964 116.84C258.43 118.707 261.15 121.373 263.124 124.84C265.15 128.307 266.164 132.307 266.164 136.84C266.164 141.373 265.124 145.373 263.044 148.84C261.017 152.307 258.244 155 254.724 156.92C251.257 158.787 247.364 159.72 243.044 159.72ZM243.044 149.96C245.07 149.96 246.964 149.48 248.724 148.52C250.537 147.507 251.977 146.013 253.044 144.04C254.11 142.067 254.644 139.667 254.644 136.84C254.644 132.627 253.524 129.4 251.284 127.16C249.097 124.867 246.404 123.72 243.204 123.72C240.004 123.72 237.31 124.867 235.124 127.16C232.99 129.4 231.924 132.627 231.924 136.84C231.924 141.053 232.964 144.307 235.044 146.6C237.177 148.84 239.844 149.96 243.044 149.96ZM285.579 121.56C287.019 119.213 288.886 117.373 291.179 116.04C293.526 114.707 296.193 114.04 299.179 114.04V125.8H296.219C292.699 125.8 290.033 126.627 288.219 128.28C286.459 129.933 285.579 132.813 285.579 136.92V159H274.379V114.68H285.579V121.56ZM317.923 99.8V159H306.723V99.8H317.923ZM326.109 136.68C326.109 132.2 326.989 128.227 328.749 124.76C330.562 121.293 333.015 118.627 336.109 116.76C339.202 114.893 342.642 113.96 346.429 113.96C349.309 113.96 352.055 114.6 354.669 115.88C357.282 117.107 359.362 118.76 360.909 120.84V99.8H372.269V159H360.909V152.44C359.522 154.627 357.575 156.387 355.069 157.72C352.562 159.053 349.655 159.72 346.349 159.72C342.615 159.72 339.202 158.76 336.109 156.84C333.015 154.92 330.562 152.227 328.749 148.76C326.989 145.24 326.109 141.213 326.109 136.68ZM360.989 136.84C360.989 134.12 360.455 131.8 359.389 129.88C358.322 127.907 356.882 126.413 355.069 125.4C353.255 124.333 351.309 123.8 349.229 123.8C347.149 123.8 345.229 124.307 343.469 125.32C341.709 126.333 340.269 127.827 339.149 129.8C338.082 131.72 337.549 134.013 337.549 136.68C337.549 139.347 338.082 141.693 339.149 143.72C340.269 145.693 341.709 147.213 343.469 148.28C345.282 149.347 347.202 149.88 349.229 149.88C351.309 149.88 353.255 149.373 355.069 148.36C356.882 147.293 358.322 145.8 359.389 143.88C360.455 141.907 360.989 139.56 360.989 136.84ZM421.95 159.72C417.683 159.72 413.843 158.787 410.43 156.92C407.017 155 404.323 152.307 402.35 148.84C400.43 145.373 399.47 141.373 399.47 136.84C399.47 132.307 400.457 128.307 402.43 124.84C404.457 121.373 407.203 118.707 410.67 116.84C414.137 114.92 418.003 113.96 422.27 113.96C426.537 113.96 430.403 114.92 433.87 116.84C437.337 118.707 440.057 121.373 442.03 124.84C444.057 128.307 445.07 132.307 445.07 136.84C445.07 141.373 444.03 145.373 441.95 148.84C439.923 152.307 437.15 155 433.63 156.92C430.163 158.787 426.27 159.72 421.95 159.72ZM421.95 149.96C423.977 149.96 425.87 149.48 427.63 148.52C429.443 147.507 430.883 146.013 431.95 144.04C433.017 142.067 433.55 139.667 433.55 136.84C433.55 132.627 432.43 129.4 430.19 127.16C428.003 124.867 425.31 123.72 422.11 123.72C418.91 123.72 416.217 124.867 414.03 127.16C411.897 129.4 410.83 132.627 410.83 136.84C410.83 141.053 411.87 144.307 413.95 146.6C416.083 148.84 418.75 149.96 421.95 149.96ZM473.606 123.88H465.846V159H454.486V123.88H449.446V114.68H454.486V112.44C454.486 107 456.032 103 459.126 100.44C462.219 97.88 466.886 96.68 473.126 96.84V106.28C470.406 106.227 468.512 106.68 467.446 107.64C466.379 108.6 465.846 110.333 465.846 112.84V114.68H473.606V123.88ZM512.966 123.88V145.32C512.966 146.813 513.313 147.907 514.006 148.6C514.753 149.24 515.98 149.56 517.686 149.56H522.886V159H515.846C506.406 159 501.686 154.413 501.686 145.24V123.88H496.406V114.68H501.686V103.72H512.966V114.68H522.886V123.88H512.966ZM536.622 109.4C534.649 109.4 532.995 108.787 531.662 107.56C530.382 106.28 529.742 104.707 529.742 102.84C529.742 100.973 530.382 99.4267 531.662 98.2C532.995 96.92 534.649 96.28 536.622 96.28C538.595 96.28 540.222 96.92 541.502 98.2C542.835 99.4267 543.502 100.973 543.502 102.84C543.502 104.707 542.835 106.28 541.502 107.56C540.222 108.787 538.595 109.4 536.622 109.4ZM542.142 114.68V159H530.942V114.68H542.142ZM550.327 136.84C550.327 132.253 551.261 128.253 553.128 124.84C554.994 121.373 557.581 118.707 560.888 116.84C564.194 114.92 567.981 113.96 572.248 113.96C577.741 113.96 582.274 115.347 585.848 118.12C589.474 120.84 591.901 124.68 593.128 129.64H581.048C580.408 127.72 579.314 126.227 577.768 125.16C576.274 124.04 574.408 123.48 572.168 123.48C568.968 123.48 566.434 124.653 564.568 127C562.701 129.293 561.768 132.573 561.768 136.84C561.768 141.053 562.701 144.333 564.568 146.68C566.434 148.973 568.968 150.12 572.168 150.12C576.701 150.12 579.661 148.093 581.048 144.04H593.128C591.901 148.84 589.474 152.653 585.848 155.48C582.221 158.307 577.688 159.72 572.248 159.72C567.981 159.72 564.194 158.787 560.888 156.92C557.581 155 554.994 152.333 553.128 148.92C551.261 145.453 550.327 141.427 550.327 136.84ZM627.573 159L612.533 140.12V159H601.333V99.8H612.533V133.48L627.413 114.68H641.973L622.453 136.92L642.133 159H627.573ZM689.251 135.88C689.251 137.48 689.145 138.92 688.931 140.2H656.531C656.798 143.4 657.918 145.907 659.891 147.72C661.865 149.533 664.291 150.44 667.171 150.44C671.331 150.44 674.291 148.653 676.051 145.08H688.131C686.851 149.347 684.398 152.867 680.771 155.64C677.145 158.36 672.691 159.72 667.411 159.72C663.145 159.72 659.305 158.787 655.891 156.92C652.531 155 649.891 152.307 647.971 148.84C646.105 145.373 645.171 141.373 645.171 136.84C645.171 132.253 646.105 128.227 647.971 124.76C649.838 121.293 652.451 118.627 655.811 116.76C659.171 114.893 663.038 113.96 667.411 113.96C671.625 113.96 675.385 114.867 678.691 116.68C682.051 118.493 684.638 121.08 686.451 124.44C688.318 127.747 689.251 131.56 689.251 135.88ZM677.651 132.68C677.598 129.8 676.558 127.507 674.531 125.8C672.505 124.04 670.025 123.16 667.091 123.16C664.318 123.16 661.971 124.013 660.051 125.72C658.185 127.373 657.038 129.693 656.611 132.68H677.651ZM710.466 123.88V145.32C710.466 146.813 710.813 147.907 711.506 148.6C712.253 149.24 713.48 149.56 715.186 149.56H720.386V159H713.346C703.906 159 699.186 154.413 699.186 145.24V123.88H693.906V114.68H699.186V103.72H710.466V114.68H720.386V123.88H710.466ZM734.122 109.4C732.149 109.4 730.495 108.787 729.162 107.56C727.882 106.28 727.242 104.707 727.242 102.84C727.242 100.973 727.882 99.4267 729.162 98.2C730.495 96.92 732.149 96.28 734.122 96.28C736.095 96.28 737.722 96.92 739.002 98.2C740.335 99.4267 741.002 100.973 741.002 102.84C741.002 104.707 740.335 106.28 739.002 107.56C737.722 108.787 736.095 109.4 734.122 109.4ZM739.642 114.68V159H728.442V114.68H739.642ZM775.268 114.04C780.548 114.04 784.814 115.72 788.068 119.08C791.321 122.387 792.948 127.027 792.948 133V159H781.748V134.52C781.748 131 780.868 128.307 779.108 126.44C777.348 124.52 774.948 123.56 771.908 123.56C768.814 123.56 766.361 124.52 764.548 126.44C762.788 128.307 761.908 131 761.908 134.52V159H750.708V114.68H761.908V120.2C763.401 118.28 765.294 116.787 767.588 115.72C769.934 114.6 772.494 114.04 775.268 114.04ZM820.958 113.96C824.265 113.96 827.171 114.627 829.678 115.96C832.185 117.24 834.158 118.92 835.598 121V114.68H846.878V159.32C846.878 163.427 846.051 167.08 844.398 170.28C842.745 173.533 840.265 176.093 836.958 177.96C833.651 179.88 829.651 180.84 824.958 180.84C818.665 180.84 813.491 179.373 809.438 176.44C805.438 173.507 803.171 169.507 802.638 164.44H813.758C814.345 166.467 815.598 168.067 817.518 169.24C819.491 170.467 821.865 171.08 824.638 171.08C827.891 171.08 830.531 170.093 832.558 168.12C834.585 166.2 835.598 163.267 835.598 159.32V152.44C834.158 154.52 832.158 156.253 829.598 157.64C827.091 159.027 824.211 159.72 820.958 159.72C817.225 159.72 813.811 158.76 810.718 156.84C807.625 154.92 805.171 152.227 803.358 148.76C801.598 145.24 800.718 141.213 800.718 136.68C800.718 132.2 801.598 128.227 803.358 124.76C805.171 121.293 807.598 118.627 810.638 116.76C813.731 114.893 817.171 113.96 820.958 113.96ZM835.598 136.84C835.598 134.12 835.065 131.8 833.998 129.88C832.931 127.907 831.491 126.413 829.678 125.4C827.865 124.333 825.918 123.8 823.838 123.8C821.758 123.8 819.838 124.307 818.078 125.32C816.318 126.333 814.878 127.827 813.758 129.8C812.691 131.72 812.158 134.013 812.158 136.68C812.158 139.347 812.691 141.693 813.758 143.72C814.878 145.693 816.318 147.213 818.078 148.28C819.891 149.347 821.811 149.88 823.838 149.88C825.918 149.88 827.865 149.373 829.678 148.36C831.491 147.293 832.931 145.8 833.998 143.88C835.065 141.907 835.598 139.56 835.598 136.84ZM862.777 159.56C860.75 159.56 859.07 158.947 857.737 157.72C856.457 156.44 855.817 154.867 855.817 153C855.817 151.133 856.457 149.587 857.737 148.36C859.07 147.08 860.75 146.44 862.777 146.44C864.75 146.44 866.377 147.08 867.657 148.36C868.937 149.587 869.577 151.133 869.577 153C869.577 154.867 868.937 156.44 867.657 157.72C866.377 158.947 864.75 159.56 862.777 159.56Z" fill="white"/>
<path d="M465.089 63.72C461.463 63.72 458.209 63.08 455.329 61.8C452.449 60.4667 450.156 58.68 448.449 56.44C446.796 54.2 445.889 51.72 445.729 49H457.009C457.223 50.7067 458.049 52.12 459.489 53.24C460.983 54.36 462.823 54.92 465.009 54.92C467.143 54.92 468.796 54.4933 469.969 53.64C471.196 52.7867 471.809 51.6933 471.809 50.36C471.809 48.92 471.063 47.8533 469.569 47.16C468.129 46.4133 465.809 45.6133 462.609 44.76C459.303 43.96 456.583 43.1333 454.449 42.28C452.369 41.4267 450.556 40.12 449.009 38.36C447.516 36.6 446.769 34.2267 446.769 31.24C446.769 28.7867 447.463 26.5467 448.849 24.52C450.289 22.4933 452.316 20.8933 454.929 19.72C457.596 18.5467 460.716 17.96 464.289 17.96C469.569 17.96 473.783 19.2933 476.929 21.96C480.076 24.5733 481.809 28.12 482.129 32.6H471.409C471.249 30.84 470.503 29.4533 469.169 28.44C467.889 27.3733 466.156 26.84 463.969 26.84C461.943 26.84 460.369 27.2133 459.249 27.96C458.183 28.7067 457.649 29.7467 457.649 31.08C457.649 32.5733 458.396 33.72 459.889 34.52C461.383 35.2667 463.703 36.04 466.849 36.84C470.049 37.64 472.689 38.4667 474.769 39.32C476.849 40.1733 478.636 41.5067 480.129 43.32C481.676 45.08 482.476 47.4267 482.529 50.36C482.529 52.92 481.809 55.2133 480.369 57.24C478.983 59.2667 476.956 60.8667 474.289 62.04C471.676 63.16 468.609 63.72 465.089 63.72ZM488.843 40.68C488.843 36.2 489.723 32.2267 491.483 28.76C493.296 25.2933 495.723 22.6267 498.763 20.76C501.856 18.8933 505.296 17.96 509.083 17.96C512.39 17.96 515.27 18.6267 517.723 19.96C520.23 21.2933 522.23 22.9733 523.723 25V18.68H535.003V63H523.723V56.52C522.283 58.6 520.283 60.3333 517.723 61.72C515.216 63.0533 512.31 63.72 509.003 63.72C505.27 63.72 501.856 62.76 498.763 60.84C495.723 58.92 493.296 56.2267 491.483 52.76C489.723 49.24 488.843 45.2133 488.843 40.68ZM523.723 40.84C523.723 38.12 523.19 35.8 522.123 33.88C521.056 31.9067 519.616 30.4133 517.803 29.4C515.99 28.3333 514.043 27.8 511.963 27.8C509.883 27.8 507.963 28.3067 506.203 29.32C504.443 30.3333 503.003 31.8267 501.883 33.8C500.816 35.72 500.283 38.0133 500.283 40.68C500.283 43.3467 500.816 45.6933 501.883 47.72C503.003 49.6933 504.443 51.2133 506.203 52.28C508.016 53.3467 509.936 53.88 511.963 53.88C514.043 53.88 515.99 53.3733 517.803 52.36C519.616 51.2933 521.056 49.8 522.123 47.88C523.19 45.9067 523.723 43.56 523.723 40.84ZM566.262 27.88H558.502V63H547.142V27.88H542.102V18.68H547.142V16.44C547.142 11 548.689 7 551.782 4.44C554.875 1.88 559.542 0.679998 565.782 0.839999V10.28C563.062 10.2267 561.169 10.68 560.102 11.64C559.035 12.6 558.502 14.3333 558.502 16.84V18.68H566.262V27.88ZM614.72 39.88C614.72 41.48 614.613 42.92 614.4 44.2H582C582.267 47.4 583.387 49.9067 585.36 51.72C587.333 53.5333 589.76 54.44 592.64 54.44C596.8 54.44 599.76 52.6533 601.52 49.08H613.6C612.32 53.3467 609.867 56.8667 606.24 59.64C602.613 62.36 598.16 63.72 592.88 63.72C588.613 63.72 584.773 62.7867 581.36 60.92C578 59 575.36 56.3067 573.44 52.84C571.573 49.3733 570.64 45.3733 570.64 40.84C570.64 36.2533 571.573 32.2267 573.44 28.76C575.307 25.2933 577.92 22.6267 581.28 20.76C584.64 18.8933 588.507 17.96 592.88 17.96C597.093 17.96 600.853 18.8667 604.16 20.68C607.52 22.4933 610.107 25.08 611.92 28.44C613.787 31.7467 614.72 35.56 614.72 39.88ZM603.12 36.68C603.067 33.8 602.027 31.5067 600 29.8C597.973 28.04 595.493 27.16 592.56 27.16C589.787 27.16 587.44 28.0133 585.52 29.72C583.653 31.3733 582.507 33.6933 582.08 36.68H603.12ZM640.255 17.96C643.562 17.96 646.468 18.6267 648.975 19.96C651.482 21.24 653.455 22.92 654.895 25V18.68H666.175V63.32C666.175 67.4267 665.348 71.08 663.695 74.28C662.042 77.5333 659.562 80.0933 656.255 81.96C652.948 83.88 648.948 84.84 644.255 84.84C637.962 84.84 632.788 83.3733 628.735 80.44C624.735 77.5067 622.468 73.5067 621.935 68.44H633.055C633.642 70.4667 634.895 72.0667 636.815 73.24C638.788 74.4667 641.162 75.08 643.935 75.08C647.188 75.08 649.828 74.0933 651.855 72.12C653.882 70.2 654.895 67.2667 654.895 63.32V56.44C653.455 58.52 651.455 60.2533 648.895 61.64C646.388 63.0267 643.508 63.72 640.255 63.72C636.522 63.72 633.108 62.76 630.015 60.84C626.922 58.92 624.468 56.2267 622.655 52.76C620.895 49.24 620.015 45.2133 620.015 40.68C620.015 36.2 620.895 32.2267 622.655 28.76C624.468 25.2933 626.895 22.6267 629.935 20.76C633.028 18.8933 636.468 17.96 640.255 17.96ZM654.895 40.84C654.895 38.12 654.362 35.8 653.295 33.88C652.228 31.9067 650.788 30.4133 648.975 29.4C647.162 28.3333 645.215 27.8 643.135 27.8C641.055 27.8 639.135 28.3067 637.375 29.32C635.615 30.3333 634.175 31.8267 633.055 33.8C631.988 35.72 631.455 38.0133 631.455 40.68C631.455 43.3467 631.988 45.6933 633.055 47.72C634.175 49.6933 635.615 51.2133 637.375 52.28C639.188 53.3467 641.108 53.88 643.135 53.88C645.215 53.88 647.162 53.3733 648.975 52.36C650.788 51.2933 652.228 49.8 653.295 47.88C654.362 45.9067 654.895 43.56 654.895 40.84ZM718.954 18.68V63H707.674V57.4C706.234 59.32 704.34 60.84 701.994 61.96C699.7 63.0267 697.194 63.56 694.474 63.56C691.007 63.56 687.94 62.84 685.274 61.4C682.607 59.9067 680.5 57.7467 678.954 54.92C677.46 52.04 676.714 48.6267 676.714 44.68V18.68H687.914V43.08C687.914 46.6 688.794 49.32 690.554 51.24C692.314 53.1067 694.714 54.04 697.754 54.04C700.847 54.04 703.274 53.1067 705.034 51.24C706.794 49.32 707.674 46.6 707.674 43.08V18.68H718.954ZM727.124 40.68C727.124 36.2 728.004 32.2267 729.764 28.76C731.578 25.2933 734.004 22.6267 737.044 20.76C740.138 18.8933 743.578 17.96 747.364 17.96C750.671 17.96 753.551 18.6267 756.004 19.96C758.511 21.2933 760.511 22.9733 762.004 25V18.68H773.284V63H762.004V56.52C760.564 58.6 758.564 60.3333 756.004 61.72C753.498 63.0533 750.591 63.72 747.284 63.72C743.551 63.72 740.138 62.76 737.044 60.84C734.004 58.92 731.578 56.2267 729.764 52.76C728.004 49.24 727.124 45.2133 727.124 40.68ZM762.004 40.84C762.004 38.12 761.471 35.8 760.404 33.88C759.338 31.9067 757.898 30.4133 756.084 29.4C754.271 28.3333 752.324 27.8 750.244 27.8C748.164 27.8 746.244 28.3067 744.484 29.32C742.724 30.3333 741.284 31.8267 740.164 33.8C739.098 35.72 738.564 38.0133 738.564 40.68C738.564 43.3467 739.098 45.6933 740.164 47.72C741.284 49.6933 742.724 51.2133 744.484 52.28C746.298 53.3467 748.218 53.88 750.244 53.88C752.324 53.88 754.271 53.3733 756.084 52.36C757.898 51.2933 759.338 49.8 760.404 47.88C761.471 45.9067 762.004 43.56 762.004 40.84ZM795.423 25.56C796.863 23.2133 798.73 21.3733 801.023 20.04C803.37 18.7067 806.036 18.04 809.023 18.04V29.8H806.063C802.543 29.8 799.876 30.6267 798.063 32.28C796.303 33.9333 795.423 36.8133 795.423 40.92V63H784.223V18.68H795.423V25.56ZM813.687 40.68C813.687 36.2 814.567 32.2267 816.327 28.76C818.14 25.2933 820.594 22.6267 823.687 20.76C826.78 18.8933 830.22 17.96 834.007 17.96C836.887 17.96 839.634 18.6 842.247 19.88C844.86 21.1067 846.94 22.76 848.487 24.84V3.8H859.847V63H848.487V56.44C847.1 58.6267 845.154 60.3867 842.647 61.72C840.14 63.0533 837.234 63.72 833.927 63.72C830.194 63.72 826.78 62.76 823.687 60.84C820.594 58.92 818.14 56.2267 816.327 52.76C814.567 49.24 813.687 45.2133 813.687 40.68ZM848.567 40.84C848.567 38.12 848.034 35.8 846.967 33.88C845.9 31.9067 844.46 30.4133 842.647 29.4C840.834 28.3333 838.887 27.8 836.807 27.8C834.727 27.8 832.807 28.3067 831.047 29.32C829.287 30.3333 827.847 31.8267 826.727 33.8C825.66 35.72 825.127 38.0133 825.127 40.68C825.127 43.3467 825.66 45.6933 826.727 47.72C827.847 49.6933 829.287 51.2133 831.047 52.28C832.86 53.3467 834.78 53.88 836.807 53.88C838.887 53.88 840.834 53.3733 842.647 52.36C844.46 51.2933 845.9 49.8 846.967 47.88C848.034 45.9067 848.567 43.56 848.567 40.84Z" fill="url(#paint0_linear_1676_54600)"/>
<defs>
<linearGradient id="paint0_linear_1676_54600" x1="964" y1="179" x2="0.0923418" y2="-22.985" gradientUnits="userSpaceOnUse">
<stop stop-color="#46AFF5"/>
<stop offset="1" stop-color="#4688F5"/>
</linearGradient>
</defs>
</svg>
