<svg width="32" height="33" viewBox="0 0 32 33" fill="none" xmlns="http://www.w3.org/2000/svg">
<g id="Social">
<path id="Vector" d="M0 24.75V22.65C0 21.6944 0.488889 20.9167 1.46667 20.3167C2.44444 19.7167 3.73333 19.4167 5.33333 19.4167C5.62222 19.4167 5.9 19.4222 6.16667 19.4333C6.43333 19.4444 6.68889 19.4722 6.93333 19.5167C6.62222 19.9833 6.38889 20.4722 6.23333 20.9833C6.07778 21.4944 6 22.0278 6 22.5833V24.75H0ZM8 24.75V22.5833C8 21.8722 8.19444 21.2222 8.58333 20.6333C8.97222 20.0444 9.52222 19.5278 10.2333 19.0833C10.9444 18.6389 11.7944 18.3056 12.7833 18.0833C13.7722 17.8611 14.8444 17.75 16 17.75C17.1778 17.75 18.2611 17.8611 19.25 18.0833C20.2389 18.3056 21.0889 18.6389 21.8 19.0833C22.5111 19.5278 23.0556 20.0444 23.4333 20.6333C23.8111 21.2222 24 21.8722 24 22.5833V24.75H8ZM26 24.75V22.5833C26 22.0056 25.9278 21.4611 25.7833 20.95C25.6389 20.4389 25.4222 19.9611 25.1333 19.5167C25.3778 19.4722 25.6278 19.4444 25.8833 19.4333C26.1389 19.4222 26.4 19.4167 26.6667 19.4167C28.2667 19.4167 29.5556 19.7111 30.5333 20.3C31.5111 20.8889 32 21.6722 32 22.65V24.75H26ZM5.33333 18.0833C4.6 18.0833 3.97222 17.8222 3.45 17.3C2.92778 16.7778 2.66667 16.15 2.66667 15.4167C2.66667 14.6611 2.92778 14.0278 3.45 13.5167C3.97222 13.0056 4.6 12.75 5.33333 12.75C6.08889 12.75 6.72222 13.0056 7.23333 13.5167C7.74444 14.0278 8 14.6611 8 15.4167C8 16.15 7.74444 16.7778 7.23333 17.3C6.72222 17.8222 6.08889 18.0833 5.33333 18.0833ZM26.6667 18.0833C25.9333 18.0833 25.3056 17.8222 24.7833 17.3C24.2611 16.7778 24 16.15 24 15.4167C24 14.6611 24.2611 14.0278 24.7833 13.5167C25.3056 13.0056 25.9333 12.75 26.6667 12.75C27.4222 12.75 28.0556 13.0056 28.5667 13.5167C29.0778 14.0278 29.3333 14.6611 29.3333 15.4167C29.3333 16.15 29.0778 16.7778 28.5667 17.3C28.0556 17.8222 27.4222 18.0833 26.6667 18.0833ZM16 16.75C14.8889 16.75 13.9444 16.3611 13.1667 15.5833C12.3889 14.8056 12 13.8611 12 12.75C12 11.6167 12.3889 10.6667 13.1667 9.9C13.9444 9.13333 14.8889 8.75 16 8.75C17.1333 8.75 18.0833 9.13333 18.85 9.9C19.6167 10.6667 20 11.6167 20 12.75C20 13.8611 19.6167 14.8056 18.85 15.5833C18.0833 16.3611 17.1333 16.75 16 16.75Z" fill="#0057FF"/>
</g>
</svg>
