<svg width="26" height="28" viewBox="0 0 26 28" fill="none" xmlns="http://www.w3.org/2000/svg">
<path d="M19.9198 4.61366C19.9198 4.62699 19.9198 4.62699 19.9198 4.64033C19.5865 4.62699 19.2531 4.61366 18.8931 4.61366H8.62645L10.0531 3.20033C11.3598 1.88033 12.7998 0.666992 14.4665 0.666992C16.1465 0.666992 17.5865 1.88033 18.8931 3.20033L19.6398 3.94699C19.8265 4.12033 19.9198 4.36033 19.9198 4.61366Z" fill="#0057FF"/>
<path d="M24.7865 15.5603C25.3065 15.5603 25.7198 15.1337 25.7198 14.6003V13.427C25.7198 8.18699 24.1198 6.60033 18.8931 6.60033H7.10645C1.87978 6.60033 0.279785 8.20032 0.279785 13.427V14.0003C0.279785 14.5337 0.693119 14.947 1.21312 14.947C2.33312 14.947 3.22645 15.8537 3.22645 16.9603C3.22645 18.067 2.33312 18.987 1.21312 18.987C0.693119 18.987 0.279785 19.4003 0.279785 19.9337V20.507C0.279785 25.747 1.87978 27.3337 7.10645 27.3337H18.8798C24.1065 27.3337 25.7065 25.7337 25.7065 20.507C25.7065 19.987 25.2931 19.5603 24.7731 19.5603C23.6531 19.5603 22.7598 18.667 22.7598 17.5603C22.7731 16.4537 23.6665 15.5603 24.7865 15.5603ZM11.4265 23.147C11.4265 23.667 10.9998 24.0937 10.4798 24.0937C9.95978 24.0937 9.53312 23.667 9.53312 23.147V19.5737C9.53312 19.0537 9.95978 18.627 10.4798 18.627C10.9998 18.627 11.4265 19.0537 11.4265 19.5737V23.147ZM11.4265 14.3603C11.4265 14.8803 10.9998 15.307 10.4798 15.307C9.95978 15.307 9.53312 14.8803 9.53312 14.3603V10.787C9.53312 10.267 9.95978 9.84033 10.4798 9.84033C10.9998 9.84033 11.4265 10.267 11.4265 10.787V14.3603Z" fill="#0057FF"/>
</svg>
