<svg width="68" height="68" viewBox="0 0 68 68" fill="none" xmlns="http://www.w3.org/2000/svg">
<path id="Vector" d="M34.0003 0.666656C15.6337 0.666656 0.666992 15.6333 0.666992 34C0.666992 52.3667 15.6337 67.3333 34.0003 67.3333C52.367 67.3333 67.3337 52.3667 67.3337 34C67.3337 15.6333 52.367 0.666656 34.0003 0.666656ZM49.9337 26.3333L31.0337 45.2333C30.567 45.7 29.9337 45.9667 29.267 45.9667C28.6003 45.9667 27.967 45.7 27.5003 45.2333L18.067 35.8C17.1003 34.8333 17.1003 33.2333 18.067 32.2667C19.0337 31.3 20.6337 31.3 21.6003 32.2667L29.267 39.9333L46.4003 22.8C47.367 21.8333 48.967 21.8333 49.9337 22.8C50.9003 23.7667 50.9003 25.3333 49.9337 26.3333Z" fill="#0D873C"/>
</svg>
