<svg width="266" height="40" viewBox="0 0 266 40" fill="none" xmlns="http://www.w3.org/2000/svg">
<path d="M253.719 1.82265V7.86437H252.048V1.82265H249.927V0.376953H255.84V1.82265H253.719Z" fill="white"/>
<path d="M263.768 3.15087L261.745 7.24342H260.748L258.734 3.15087V7.86437H257.063V0.376953H259.324L261.251 4.49108L263.19 0.376953H265.441V7.86677H263.77V3.15087H263.768Z" fill="white"/>
<path d="M152.673 13.3421C152.889 12.0139 152.992 10.8487 153.052 9.94487L141.54 6.43492L130.039 9.94487C130.331 14.6104 132.038 26.0465 141.54 32.7476C145.369 30.0408 147.939 26.5716 149.655 23.0808H139.352V16.9216H158.314C156.796 23.9152 152.915 33.2127 143.12 39.0602L141.543 40L139.973 39.0602C122.986 28.9259 123.796 8.40087 123.839 7.53058L123.942 5.37522L141.54 0L159.148 5.37282L159.251 7.52818C159.268 7.80389 159.354 10.0647 158.932 13.3397H152.673V13.3421Z" fill="#0057FF"/>
<path d="M9.08074 11.559H0V5.50293H24.7275V11.5566H15.6468V35.3471H9.08074V11.559Z" fill="white"/>
<path d="M27.4966 4.22461H34.3191V9.98103H27.4966V4.22461ZM27.6692 12.496H34.1489V35.3491H27.6692V12.496Z" fill="white"/>
<path d="M49.3255 35.8628C47.6211 35.8628 46.0365 35.5487 44.5718 34.9253C43.1071 34.2996 41.8509 33.4533 40.7985 32.3888C39.7462 31.3219 38.9215 30.0728 38.3246 28.6367C37.7277 27.2029 37.4304 25.6733 37.4304 24.0526V23.9687C37.4304 22.348 37.7301 20.8136 38.3246 19.3631C38.9215 17.9126 39.7462 16.6491 40.7985 15.5678C41.8485 14.4866 43.1071 13.6354 44.5718 13.0097C46.0365 12.3839 47.6474 12.0723 49.4094 12.0723C51.5693 12.0723 53.3601 12.4127 54.7816 13.096C56.2032 13.7793 57.4521 14.7167 58.5333 15.9107L54.5683 20.1735C53.8299 19.4062 53.0676 18.7949 52.2861 18.3394C51.5046 17.8862 50.5313 17.6561 49.3663 17.6561C48.5416 17.6561 47.7961 17.8191 47.1296 18.1476C46.4608 18.4736 45.8783 18.922 45.3821 19.4902C44.8834 20.0584 44.4999 20.7201 44.2314 21.4729C43.9605 22.2257 43.8263 23.0289 43.8263 23.8824V23.9663C43.8263 24.8462 43.9605 25.6709 44.2314 26.4381C44.4999 27.2053 44.893 27.8743 45.4036 28.4425C45.9166 29.0107 46.5255 29.459 47.2375 29.7851C47.9471 30.1135 48.743 30.2766 49.6252 30.2766C50.7039 30.2766 51.6508 30.056 52.4611 29.6148C53.2714 29.1737 54.0744 28.5839 54.8703 27.8455L58.6652 31.6815C57.5576 32.9042 56.2919 33.9064 54.8703 34.688C53.444 35.4696 51.5981 35.8628 49.3255 35.8628Z" fill="white"/>
<path d="M61.177 4.22461H67.6567V20.8106L75.244 12.496H83.0039L74.3067 21.4915L83.3011 35.3491H75.8841L69.9149 26.0108L67.6567 28.3987V35.3491H61.177V4.22461Z" fill="white"/>
<path d="M95.5372 35.8622C93.8327 35.8622 92.2482 35.5769 90.7834 35.0087C89.3187 34.4405 88.0554 33.6301 86.9886 32.5776C85.9218 31.5275 85.0924 30.2832 84.4955 28.8471C83.8986 27.411 83.6013 25.8119 83.6013 24.0497V23.9658C83.6013 22.3451 83.8794 20.8107 84.4332 19.3602C84.9869 17.9097 85.7612 16.6462 86.7585 15.5649C87.7533 14.4836 88.9376 13.6325 90.3184 13.0068C91.6968 12.381 93.2238 12.0693 94.9019 12.0693C96.8053 12.0693 98.4546 12.4098 99.8474 13.0931C101.24 13.7764 102.398 14.6922 103.321 15.843C104.244 16.9938 104.927 18.3148 105.368 19.8085C105.809 21.2997 106.027 22.8581 106.027 24.4764C106.027 24.733 106.02 25.0039 106.006 25.2868C105.992 25.5721 105.97 25.8694 105.941 26.1811H90.0403C90.3519 27.6603 90.9992 28.7752 91.9797 29.528C92.9601 30.2808 94.1755 30.6572 95.6259 30.6572C96.7046 30.6572 97.6731 30.4726 98.5241 30.1034C99.3775 29.7342 100.257 29.1372 101.168 28.3125L104.877 31.5947C103.796 32.9301 102.489 33.9754 100.955 34.7282C99.4159 35.4834 97.6132 35.8622 95.5372 35.8622ZM99.7156 22.1317C99.5166 20.6812 99.006 19.5088 98.1813 18.6145C97.3567 17.7203 96.2635 17.2719 94.8995 17.2719C93.5355 17.2719 92.4327 17.7131 91.5961 18.593C90.7571 19.4752 90.2105 20.6548 89.954 22.1317H99.7156Z" fill="white"/>
<path d="M116.853 35.7323C115.858 35.7323 114.957 35.6244 114.147 35.4134C113.336 35.2 112.641 34.8236 112.056 34.2842C111.474 33.7447 111.018 33.0423 110.692 32.1744C110.366 31.3089 110.203 30.206 110.203 28.8706V18.0386H107.475V12.4956H110.203V6.65527H116.683V12.4956H122.055V18.0386H116.683V27.8373C116.683 29.3213 117.38 30.0622 118.773 30.0622C119.91 30.0622 120.976 29.7793 121.971 29.211V34.4136C121.288 34.8116 120.535 35.1329 119.713 35.3726C118.884 35.6124 117.932 35.7323 116.853 35.7323Z" fill="white"/>
<path d="M168.413 35.7759C165.941 35.7759 164.028 35.0231 162.679 33.5175C161.329 32.0118 160.653 29.9356 160.653 27.2935V12.4961H167.133V25.2125C167.133 26.7445 167.473 27.9001 168.156 28.6793C168.84 29.4585 169.803 29.8493 171.055 29.8493C172.304 29.8493 173.294 29.4609 174.018 28.6793C174.742 27.9001 175.106 26.7445 175.106 25.2125V12.4961H181.586V35.3492H175.106V32.0813C174.737 32.568 174.332 33.0332 173.891 33.4767C173.45 33.9202 172.958 34.3134 172.421 34.6563C171.879 35.0015 171.282 35.2724 170.63 35.4738C169.976 35.6752 169.238 35.7759 168.413 35.7759Z" fill="#0057FF"/>
<path d="M192.16 35.7756C191.079 35.7756 190.063 35.627 189.111 35.3273C188.159 35.0276 187.327 34.5816 186.618 33.9847C185.908 33.3877 185.345 32.6564 184.935 31.7885C184.523 30.923 184.316 29.9209 184.316 28.7821V28.6958C184.316 27.4467 184.542 26.3654 185 25.4567C185.453 24.5481 186.086 23.7929 186.896 23.1983C187.706 22.6013 188.672 22.153 189.794 21.8557C190.916 21.5584 192.16 21.4073 193.524 21.4073C194.689 21.4073 195.706 21.4936 196.571 21.6639C197.439 21.8341 198.283 22.0619 199.107 22.3472V21.9636C199.107 20.5994 198.695 19.5613 197.87 18.8516C197.046 18.1419 195.823 17.7847 194.205 17.7847C192.954 17.7847 191.853 17.8926 190.902 18.1036C189.95 18.3169 188.948 18.6214 187.895 19.0194L186.275 14.0734C187.526 13.5339 188.833 13.0928 190.197 12.7499C191.561 12.4071 193.21 12.2393 195.142 12.2393C196.933 12.2393 198.46 12.4598 199.726 12.901C200.989 13.3421 202.034 13.9751 202.859 14.7974C203.71 15.6509 204.336 16.6938 204.734 17.9309C205.132 19.1681 205.331 20.5538 205.331 22.0882V35.3489H199.064V32.877C198.268 33.7569 197.317 34.4618 196.207 34.9868C195.102 35.5119 193.75 35.7756 192.16 35.7756ZM194.119 31.2995C195.653 31.2995 196.883 30.9302 197.808 30.1894C198.731 29.451 199.194 28.4848 199.194 27.2908V26.14C198.626 25.8835 197.993 25.6773 197.297 25.5215C196.6 25.3656 195.854 25.2865 195.058 25.2865C193.666 25.2865 192.572 25.5574 191.777 26.0969C190.981 26.6387 190.583 27.4203 190.583 28.4416V28.5255C190.583 29.4054 190.909 30.0887 191.563 30.573C192.215 31.0573 193.069 31.2995 194.119 31.2995Z" fill="#0057FF"/>
<path d="M209.212 12.4952H215.692V17.0984C216.346 15.5352 217.24 14.2837 218.377 13.3463C219.513 12.4088 221.047 11.9821 222.982 12.066V18.8462H222.641C220.481 18.8462 218.782 19.5007 217.547 20.8073C216.31 22.114 215.692 24.1471 215.692 26.9042V35.3458H209.212V12.4952Z" fill="#0057FF"/>
<path d="M234.704 35.7758C233.369 35.7758 232.074 35.5217 230.825 35.0086C229.574 34.4956 228.467 33.7379 227.5 32.7286C226.534 31.7192 225.76 30.4821 225.178 29.0197C224.595 27.5548 224.305 25.8717 224.305 23.9681V23.8794C224.305 21.9758 224.595 20.2903 225.178 18.8278C225.76 17.363 226.527 16.1258 227.479 15.1189C228.431 14.1095 229.531 13.3495 230.782 12.8389C232.031 12.3258 233.34 12.0717 234.704 12.0717C236.437 12.0717 237.866 12.4121 238.988 13.0954C240.11 13.7787 241.054 14.5747 241.824 15.4833V4.22461H248.304V35.3491H241.824V32.0669C241.028 33.1482 240.069 34.0352 238.945 34.7305C237.823 35.4282 236.411 35.7758 234.704 35.7758ZM236.368 30.2759C237.135 30.2759 237.852 30.1249 238.521 29.8276C239.189 29.5303 239.772 29.1036 240.268 28.5473C240.764 27.9935 241.162 27.3246 241.462 26.543C241.762 25.7614 241.91 24.9007 241.91 23.9633V23.8794C241.91 22.942 241.762 22.0813 241.462 21.2997C241.165 20.5181 240.764 19.8492 240.268 19.2954C239.77 18.7415 239.187 18.3148 238.521 18.0175C237.852 17.7178 237.135 17.5691 236.368 17.5691C235.601 17.5691 234.882 17.7178 234.215 18.0175C233.546 18.3148 232.959 18.7415 232.446 19.2954C231.935 19.8492 231.53 20.5109 231.231 21.2781C230.933 22.0453 230.782 22.9132 230.782 23.8794V23.9633C230.782 24.9007 230.931 25.7614 231.231 26.543C231.53 27.3246 231.935 27.9935 232.446 28.5473C232.959 29.1012 233.546 29.5279 234.215 29.8276C234.884 30.1273 235.601 30.2759 236.368 30.2759Z" fill="#0057FF"/>
</svg>
