<svg width="852" height="1018" viewBox="0 0 852 1018" fill="none" xmlns="http://www.w3.org/2000/svg">
<path d="M0.882334 179.32C33.0486 139.659 97.1016 132.099 137.966 163.136C180.639 195.605 192.643 257.036 232.868 292.524C271.47 326.565 328.021 329.481 378.245 320.978C428.468 312.475 477.099 294.29 527.991 292.37C578.883 290.449 635.561 309.816 658.769 356.051C678.819 396.108 668.858 443.745 664.517 488.271C660.268 532.79 666.599 586.018 704.777 608.778C749.672 635.628 800.835 604.689 846.641 598.068C924.412 586.971 1005.99 616.229 1054.91 678.55C1104.88 742.089 1116.31 834.343 1083.35 907.838M10.5923 171.644C43.4533 133.512 106.829 126.759 147.661 157.425C180.981 182.387 196.343 224.444 220.192 258.744C227.032 268.529 234.472 277.7 243.207 285.635C281.277 320.003 335.755 324.877 383.76 318.813C416.593 314.635 448.497 306.236 480.701 301.271C495.646 298.937 510.572 297.446 525.83 297.609C545.203 297.787 565.703 301.234 585.095 308.052C614.04 318.243 640.066 335.705 654.546 362.312C658.326 369.184 661.093 376.238 663.226 383.534C672.984 417.102 667.224 455.018 664.598 491.351C664.165 497.094 663.933 503.007 663.802 509.005C663.458 548.973 671.455 591.299 702.894 611.842C708.347 615.388 713.812 617.997 719.49 619.839C740.972 627.035 763.774 623.64 786.777 618.263C805.197 613.942 823.773 608.203 841.612 605.803C845.958 605.236 850.311 604.762 854.673 604.381C878.347 602.407 902.221 603.782 925.272 608.596C973.675 618.865 1018.4 644.795 1049.89 684.226C1059.55 696.29 1067.81 709.504 1074.54 723.414C1103.03 781.908 1105.35 853.445 1078.62 912.554M20.3951 163.96C53.866 127.458 116.556 121.42 157.448 151.706C190.829 176.288 206.877 217.631 230.811 251.83C237.642 261.522 244.989 270.701 253.64 278.738C291.092 313.533 343.674 320.257 389.461 316.631C420.754 314.084 450.955 307.611 481.238 304.217C495.313 302.614 509.367 301.853 523.838 302.647C542.163 303.665 561.707 307.944 580.76 315.165C609.112 326.063 635.452 342.842 650.586 368.364C654.527 374.941 657.556 381.785 659.851 388.786C670.718 421.135 666.656 458.154 664.858 494.321C664.61 500.048 664.378 505.961 664.432 511.942C664.645 551.862 671.489 593.822 701.39 614.967C706.48 618.637 711.767 621.356 717.183 623.408C737.701 631.343 759.757 629.042 782.292 624.735C800.405 621.188 819.022 615.914 836.869 613.606C841.215 613.04 845.569 612.566 849.931 612.185C873.512 610.218 897.26 611.23 920.295 615.858C968.548 625.486 1013.42 651.028 1045.07 690.072C1054.81 702.035 1063.06 715.064 1069.88 728.965C1098.63 787.157 1101.03 858.593 1074.09 917.44M30.1979 156.276C64.3716 121.396 126.291 116.173 167.236 145.987C200.685 170.283 217.503 210.81 241.328 244.832C248.159 254.524 255.507 263.703 263.972 271.755C300.799 306.886 351.4 315.56 394.968 314.373C424.72 313.457 453.219 308.91 481.591 307.179C494.794 306.307 507.977 306.277 521.576 307.802C538.86 309.752 557.533 314.762 576.155 322.395C603.998 333.899 630.467 350.012 646.263 374.541C650.365 380.823 653.555 387.372 656.104 394.071C668.08 425.2 665.624 461.331 664.746 497.324C664.591 503.043 664.536 508.847 664.684 514.82C665.538 554.59 671.227 596.183 699.414 618.039C704.233 621.827 709.25 624.662 714.311 626.932C733.764 635.521 755.09 634.5 777.327 631.061C795.142 628.382 813.791 623.479 831.554 621.273C835.899 620.706 840.261 620.325 844.531 619.952C868.112 617.985 891.743 618.727 914.652 622.992C962.849 631.97 1007.88 657.125 1039.58 695.696C1049.31 707.566 1057.73 720.486 1064.55 734.295C1093.45 792.099 1095.94 863.527 1068.99 922.188M40.0007 148.592C74.7843 115.342 136.018 110.834 177.116 140.261C210.634 164.27 228.129 203.989 252.039 237.91C258.87 247.602 266.117 256.696 274.497 264.85C310.791 300.308 359.32 310.94 400.669 312.191C428.973 312.899 455.778 310.37 482.128 310.126C494.46 309.984 506.671 310.6 519.585 312.839C535.912 315.622 553.629 321.463 571.912 329.5C599.248 341.609 625.947 357.141 642.302 380.592C646.574 386.673 649.925 392.927 652.728 399.323C665.814 429.233 665.064 464.56 665.005 500.294C664.935 505.912 665.066 511.7 665.306 517.665C666.81 557.378 671.244 598.52 697.902 621.07C702.443 624.883 707.206 628.021 711.996 630.408C730.477 639.643 751.065 639.809 772.835 637.439C790.25 635.544 809.033 631.097 826.811 629.076C831.165 628.602 835.519 628.128 839.788 627.755C863.285 625.89 886.782 626.175 909.76 630.154C957.9 638.482 1002.98 663.164 1034.84 701.441C1044.66 713.21 1053.08 726.037 1059.98 739.745C1089.13 797.246 1091.61 868.488 1064.54 926.972M49.8035 140.907C85.2817 109.187 145.753 105.588 186.903 134.542C220.481 158.172 238.756 197.168 262.649 230.904C269.472 240.503 276.719 249.597 284.922 257.859C320.599 293.746 367.239 306.32 406.362 309.917C433.133 312.348 458.228 311.652 482.759 313.063C494.219 313.652 505.559 315 517.601 317.97C532.888 321.685 549.641 328.265 567.585 336.706C594.319 349.429 621.248 364.38 638.35 386.736C642.783 392.522 646.389 398.474 649.446 404.567C663.64 433.257 664.589 467.688 665.357 503.257C665.472 508.859 665.697 514.638 665.929 520.51C668.074 560.074 671.354 600.848 696.381 624.009C700.652 627.939 705.052 631.202 709.673 633.791C727.182 643.673 746.939 645.033 768.418 643.624C785.527 642.504 804.35 638.521 822.137 636.593C826.491 636.119 830.76 635.746 835.122 635.365C858.526 633.507 881.999 633.515 904.852 637.13C952.842 644.816 998.075 669.111 1030.19 706.993C1040.09 718.661 1048.49 731.395 1055.48 745.002C1084.88 802.2 1087.35 873.349 1060.17 931.563M59.5135 133.231C95.6017 103.141 155.387 100.256 196.598 128.831C230.337 152.166 249.289 190.355 273.174 223.998C279.998 233.597 287.151 242.699 295.261 250.97C330.313 287.191 374.973 301.716 411.87 307.659C437.108 311.814 460.408 313.052 483.103 315.933C493.7 317.345 504.16 319.331 515.323 322.939C529.569 327.587 545.451 334.898 562.971 343.843C589.206 357.265 616.263 371.55 634.018 392.82C638.613 398.312 642.388 404.061 645.699 409.852C661.003 437.323 663.659 470.949 665.33 506.159C665.631 511.744 665.847 517.431 666.265 523.287C668.959 562.709 671.085 603.117 694.49 626.98C698.491 631.027 702.62 634.407 706.979 637.207C723.524 647.827 742.543 650.374 763.546 649.942C780.349 649.597 799.119 646.086 816.922 644.344C821.276 643.87 825.545 643.497 829.823 643.217C853.134 641.368 876.482 641.011 899.31 644.348C947.244 651.385 992.629 675.292 1024.8 712.794C1034.7 724.37 1043.28 736.995 1050.26 750.509C1079.81 807.32 1082.38 878.461 1055.08 936.404M69.3082 125.454C106.099 96.9861 165.207 94.9089 206.377 123.02C240.177 145.975 259.815 183.45 283.776 216.899C290.591 226.405 297.753 235.6 305.678 243.887C340.205 280.528 382.783 296.918 417.554 305.291C441.252 311.078 462.849 314.242 483.633 318.786C493.359 320.93 502.947 323.646 513.332 327.977C526.529 333.464 541.455 341.607 558.636 350.956C584.362 364.983 611.65 378.687 629.965 398.88C634.721 404.076 638.75 409.523 642.231 415.112C658.737 441.355 662.998 474.094 665.497 509.137C665.882 514.622 666.292 520.385 666.794 526.14C670.138 565.506 671.094 605.361 692.885 630.02C696.615 634.184 700.474 637.681 704.571 640.691C720.051 651.965 738.332 655.699 759.045 656.228C775.541 656.658 794.353 653.611 812.164 651.962C816.526 651.581 820.795 651.208 825.064 650.835C848.375 648.985 871.606 648.359 894.317 651.425C942.194 657.812 987.64 681.34 1019.96 718.455C1029.94 729.836 1038.52 742.461 1045.67 755.866C1075.48 812.374 1078.04 883.423 1050.63 941.095M79.111 117.77C116.504 90.8393 174.934 89.5696 216.257 117.293C250.126 139.962 270.534 176.621 294.479 209.884C301.294 219.39 308.364 228.594 316.11 236.989C350.012 273.966 390.61 292.306 423.162 303.118C445.319 310.535 465.122 315.633 484.171 321.732C492.924 324.522 501.742 328.054 511.247 333.022C523.404 339.443 537.458 348.317 554.301 358.069C579.519 372.702 606.943 385.832 626.005 404.931C630.93 409.926 635.112 414.985 638.847 420.271C656.47 445.388 662.422 477.137 665.748 512.015C666.319 517.483 666.813 523.145 667.316 528.9C671.209 568.125 671.102 607.605 691.179 632.975C694.546 637.264 698.236 640.963 702.063 644.09C716.57 656.011 734.113 660.932 754.358 662.53C770.548 663.735 789.4 661.152 807.219 659.596C811.581 659.215 815.85 658.842 820.035 658.57C843.253 656.728 866.359 655.739 889.139 658.519C936.874 664.356 982.465 687.404 1015.03 724.03C1025.08 735.311 1033.75 747.835 1040.9 761.147C1070.96 817.353 1073.5 888.215 1046.07 945.702M88.9138 110.085C127.009 84.7773 184.669 84.3231 226.045 111.574C259.973 133.864 281.16 169.8 305.098 202.97C311.913 212.477 318.974 221.587 326.543 230.092C359.82 267.404 398.437 287.694 428.863 300.936C449.572 309.977 467.487 317.017 484.708 324.678C492.591 328.199 500.529 332.369 509.171 338.161C520.287 345.514 533.377 355.127 549.881 365.283C574.498 380.53 602.245 393.071 621.859 410.999C626.945 415.699 631.39 420.548 635.286 425.539C654.111 449.429 661.584 480.39 665.822 515.001C666.486 520.462 667.065 526.023 667.761 531.855C672.303 571.022 670.942 610.05 689.49 636.116C692.586 640.522 695.913 644.347 699.57 647.675C713.105 660.242 729.91 666.35 749.688 669.018C765.58 671.09 784.464 668.879 802.299 667.508C806.568 667.135 810.938 666.847 815.115 666.482C838.248 664.742 861.321 663.381 883.976 665.797C931.655 670.985 977.391 693.553 1010.02 729.892C1020.07 741.08 1028.82 753.504 1036.05 766.715C1066.36 822.524 1068.9 893.387 1041.36 950.604M98.6238 102.409C137.329 78.7314 194.303 78.9919 235.739 105.863C269.737 127.867 291.601 162.995 315.615 195.972C322.515 205.377 329.398 214.597 336.875 223.11C369.627 260.841 406.162 282.997 434.371 298.678C453.538 309.35 469.65 318.231 485.061 327.641C491.979 331.9 499.139 336.793 506.994 343.215C517.061 351.408 529.288 361.844 545.36 372.412C569.477 388.357 597.345 400.14 617.62 417.075C622.868 421.48 627.566 426.027 631.716 430.715C651.744 453.377 660.822 483.45 665.98 517.887C666.729 523.246 667.502 528.884 668.283 534.615C673.374 573.641 670.943 612.202 687.776 638.978C690.602 643.501 693.658 647.443 697.053 650.981C709.523 664.202 725.598 671.59 745.078 675.126C760.663 677.973 779.588 676.227 797.339 674.956C801.616 674.676 805.885 674.303 810.07 674.031C833.11 672.299 856.058 670.575 878.689 672.713C926.311 677.251 972.107 699.439 1004.89 735.391C1015.02 746.478 1023.85 758.708 1031.09 771.919C1061.56 827.434 1064.18 898.196 1036.52 955.142M108.427 94.7251C147.827 72.5765 204.038 73.7454 245.527 100.145C279.584 121.768 302.227 156.174 326.233 189.058C333.133 198.463 340.008 207.59 347.307 216.212C379.434 254.279 414.074 278.284 439.979 296.504C457.614 308.9 472.007 319.521 485.598 330.587C491.637 335.484 497.841 341.209 504.918 348.354C514.037 357.471 525.299 368.647 540.94 379.626C564.549 396.177 592.646 407.378 613.575 423.227C618.984 427.338 623.852 431.683 628.256 436.068C649.486 457.503 660.178 486.78 666.155 520.958C667.089 526.301 667.947 531.838 668.728 537.569C674.468 576.538 670.875 614.639 686.086 642.118C688.634 646.666 691.428 650.818 694.561 654.566C706.059 668.433 721.396 677.008 740.408 681.614C755.686 685.236 774.559 683.961 792.419 682.869C796.696 682.589 800.973 682.309 805.15 681.944C828.19 680.211 851.021 678.217 873.619 679.984C921.091 683.88 967.041 705.681 999.978 741.245C1010.2 752.231 1019.02 764.368 1026.33 777.478C1057.06 832.691 1059.67 903.267 1031.89 960.035M118.229 87.0408C158.239 66.5226 213.765 68.406 255.407 94.4179C289.626 115.747 312.946 149.345 336.936 182.044C343.828 191.356 350.618 200.584 357.825 209.214C389.326 247.616 421.985 273.571 445.765 294.222C461.859 308.249 474.449 320.711 486.229 333.525C491.388 339.06 496.729 345.608 503.019 353.383C511.097 363.434 521.396 375.348 536.791 386.723C559.891 403.879 588.218 414.499 609.708 429.271C615.379 433.171 620.4 437.128 624.973 441.312C647.405 461.52 659.703 489.908 666.507 523.92C667.534 529.256 668.476 534.692 669.443 540.406C675.825 579.226 671.07 616.867 684.574 645.15C686.852 649.815 689.375 654.084 692.246 658.042C702.763 672.463 717.278 682.325 735.999 687.891C750.972 692.289 769.885 691.478 787.753 690.478C792.03 690.198 796.307 689.918 800.492 689.646C823.44 687.922 846.145 685.564 868.727 687.146C916.143 690.392 962.245 711.806 995.336 746.982C1005.54 757.876 1014.45 769.911 1021.85 782.921C1052.82 837.737 1055.43 908.313 1027.63 964.803M128.032 79.3566C168.745 60.4605 223.593 63.1514 265.194 88.6992C299.482 109.742 323.48 142.533 347.546 175.037C354.438 184.349 361.22 193.484 368.249 202.223C399.226 241.046 429.804 268.866 451.365 291.955C466.011 307.605 476.697 321.824 486.666 336.386C490.954 342.652 495.423 349.931 500.842 358.437C507.879 369.42 517.307 382.065 532.27 393.853C554.769 411.622 583.326 421.661 605.469 435.346C611.301 438.952 616.492 442.708 621.311 446.496C644.937 465.383 658.756 492.984 666.472 526.729C667.676 531.956 668.719 537.476 669.771 543.09C676.795 581.76 670.885 619.035 682.767 648.02C684.775 652.802 686.935 657.197 689.544 661.365C699.089 676.431 712.873 687.573 731.119 694.117C745.692 699.297 764.739 698.943 782.53 698.137C786.815 697.949 791.092 697.669 795.176 697.313C818.031 695.596 840.712 692.96 863.169 694.179C910.528 696.775 956.691 717.809 989.934 752.599C1000.23 763.391 1009.22 775.326 1016.62 788.335C1047.85 842.849 1050.54 913.324 1022.53 969.552M137.742 71.6804C179.065 54.4146 233.227 57.8202 274.889 82.9885C309.237 103.652 334.013 135.72 358.071 168.132C364.963 177.444 371.653 186.587 378.589 195.334C408.941 234.491 437.538 264.262 456.973 289.782C470.078 307.063 479.139 323.014 487.212 339.425C490.612 346.236 494.227 354.432 498.766 363.576C504.762 375.491 513.234 388.968 527.85 401.067C549.849 419.535 578.62 428.806 601.331 441.507C607.325 444.818 612.769 448.271 617.758 451.857C642.586 469.517 658.019 496.322 666.554 529.809C667.851 535.027 669.072 540.439 670.216 546.044C677.796 584.665 670.809 621.379 680.977 651.076C682.621 655.983 684.604 660.487 686.95 664.865C695.523 680.578 708.57 692.907 726.433 700.419C740.707 706.467 759.786 706.484 777.586 705.771C781.871 705.583 786.148 705.303 790.24 705.039C813.01 703.424 835.558 700.332 858.083 701.264C905.292 703.219 951.601 723.772 984.997 758.174C995.368 768.773 1004.36 780.708 1011.85 793.616C1043.23 847.835 1046.01 918.209 1017.89 974.167M147.545 63.9962C189.562 48.2597 242.963 52.5737 284.676 77.2698C319.093 97.6462 344.639 128.899 368.682 161.125C375.565 170.345 382.263 179.58 388.929 188.445C418.655 227.937 445.356 259.557 462.488 287.616C474.052 306.529 481.395 324.219 487.564 342.387C490.093 349.929 492.743 358.864 496.597 368.722C501.545 381.478 509.152 395.779 523.43 408.281C544.921 427.354 573.829 436.053 597.286 447.659C603.441 450.676 609.14 453.826 614.383 457.109C640.412 473.541 657.358 499.466 666.906 532.771C668.389 537.973 669.702 543.377 670.838 548.889C679.06 587.361 670.919 623.708 679.465 654.108C680.839 659.132 682.559 663.845 684.635 668.341C692.236 684.7 704.452 698.223 721.94 706.797C735.908 713.621 754.935 714.11 772.835 713.481C777.12 713.294 781.313 713.115 785.396 712.758C808.074 711.151 830.505 707.788 852.997 708.349C900.15 709.654 946.611 729.82 980.069 763.843C990.431 774.348 999.599 786.174 1007.08 798.989C1038.71 852.813 1041.48 923.094 1013.25 978.875M157.348 56.3119C199.975 42.2058 252.69 47.2344 294.556 71.543C329.033 91.54 355.266 122.078 379.3 154.211C386.183 163.431 392.78 172.582 399.361 181.547C428.563 221.46 453.183 254.945 468.189 285.435C478.305 305.97 484.023 325.393 488.11 345.426C489.759 353.606 491.546 363.364 494.52 373.861C498.428 387.549 505.071 402.589 519.018 415.587C540.001 435.267 569.138 443.384 593.156 453.913C599.48 456.727 605.341 459.582 610.838 462.563C638.061 477.675 656.621 502.804 666.996 535.943C668.563 541.044 669.97 546.44 671.299 552.029C680.171 590.444 670.859 626.239 677.791 657.434C678.887 662.483 680.345 667.406 682.159 672.111C688.787 689.116 700.265 703.827 717.37 713.37C731.032 720.968 750.099 721.921 767.923 721.486C772.216 721.392 776.401 721.12 780.493 720.856C803.17 719.249 825.476 715.523 847.851 715.813C894.947 716.469 941.469 736.255 975.172 769.882C985.619 780.287 994.779 792.02 1002.34 804.735C1034.23 858.255 1036.99 928.444 1008.64 983.954M167.151 48.6276C210.481 36.1437 262.425 41.9879 304.344 65.8242C338.982 85.5265 365.892 115.257 389.91 147.205C396.785 156.331 403.39 165.575 409.786 174.557C438.362 214.805 461.001 250.24 473.789 283.168C482.365 305.335 486.464 326.583 488.547 348.287C489.409 357.097 490.241 367.688 492.436 378.907C495.302 393.528 501.075 409.298 514.59 422.709C534.972 443.002 564.432 450.529 589.01 459.98C595.496 462.5 601.61 465.053 607.277 467.831C635.795 481.708 655.876 506.049 667.07 538.93C668.823 544.015 670.314 549.309 671.736 554.89C681.343 593.148 670.783 628.584 676.001 660.49C676.826 665.656 678.014 670.696 679.566 675.612C685.222 693.263 695.877 709.261 712.599 719.772C725.955 728.146 745.062 729.563 762.894 729.221C767.187 729.127 771.38 728.948 775.463 728.591C798.048 726.992 820.237 722.996 842.681 722.999C889.627 723.013 936.302 742.412 970.158 775.652C980.69 785.955 989.935 797.588 997.49 810.209C1029.62 863.334 1032.38 933.523 1004.01 988.754M176.953 40.9434C220.885 29.9969 272.244 36.6404 314.131 60.1055C348.83 79.4284 376.518 108.436 400.528 140.291C407.404 149.418 413.908 158.577 420.218 167.659C448.178 208.335 468.913 245.527 479.398 280.995C486.432 304.792 489.007 327.857 489.093 351.326C489.169 360.766 488.951 372.196 490.36 384.045C492.186 399.599 497.087 416.1 510.17 429.923C530.052 450.914 559.633 457.683 584.965 466.133C591.612 468.358 597.98 470.608 603.808 473.091C633.521 485.648 655.122 509.202 667.236 541.908C669.082 546.985 670.759 552.263 672.173 557.752C682.328 595.868 670.7 630.836 674.295 663.445C674.85 668.728 675.768 673.886 677.049 678.918C681.733 697.215 691.65 714.401 707.989 725.881C721.038 735.029 740.186 736.911 758.034 736.754C762.328 736.66 766.52 736.481 770.519 736.225C793.019 734.727 815.167 730.267 837.494 730C884.383 729.364 931.212 748.375 965.128 781.235C975.652 791.446 984.974 802.885 992.621 815.498C1024.92 868.329 1027.76 938.416 999.27 993.377M186.655 33.1744C231.29 23.8501 281.871 31.2164 323.818 54.302C358.585 73.3384 386.951 101.539 411.037 133.2C418.006 142.318 424.417 151.486 430.542 160.584C457.969 201.587 476.63 240.737 484.99 278.636C490.576 304.056 491.441 328.954 489.521 354.095C488.726 364.266 487.637 376.426 488.175 389.006C488.867 405.501 492.896 422.733 505.734 436.951C525.107 458.548 554.918 464.736 580.811 472.107C587.619 474.038 594.157 476.086 600.239 478.267C631.145 489.503 654.276 512.362 667.294 544.709C669.317 549.677 671.087 554.947 672.594 560.428C683.398 598.487 670.7 632.987 672.488 666.315C672.773 671.715 673.421 676.99 674.439 682.232C678.236 701.075 687.33 719.548 703.201 732.098C715.952 742.114 735.141 744.46 752.896 744.312C757.198 744.31 761.39 744.131 765.389 743.875C787.796 742.385 809.827 737.655 832.122 737.016C878.954 735.731 925.835 754.27 959.998 786.734C970.606 796.844 979.92 808.19 987.745 820.694C1020.29 873.222 1023.12 943.124 994.522 997.907M196.458 25.4901C241.703 17.7962 291.606 25.9699 333.698 48.5752C368.525 67.2321 397.67 94.7099 421.74 126.185C428.7 135.211 435.019 144.386 441.059 153.586C467.861 194.924 484.727 236.008 490.683 276.361C494.821 303.405 494.076 330.22 490.051 356.948C488.469 367.749 486.424 380.741 486.175 393.951C485.818 411.286 488.985 429.342 501.39 443.971C520.256 466.174 550.288 471.687 576.75 478.074C583.812 479.702 590.511 481.455 596.755 483.341C628.855 493.258 653.599 515.321 667.537 547.494C669.653 552.454 671.507 557.623 673.2 563.087C684.646 600.996 670.786 635.037 670.96 669.161C670.974 674.678 671.259 680.079 672.108 685.523C674.932 705.011 683.204 724.772 698.777 738.19C711.222 748.981 730.358 751.799 748.222 751.829C752.431 751.835 756.623 751.656 760.622 751.4C783.029 749.91 804.935 744.816 827.205 743.899C873.897 742.065 920.922 760.124 955.238 792.201C965.931 802.21 975.33 813.455 983.147 825.866C1015.94 877.998 1018.77 947.9 990.053 1002.41M206.261 17.8059C252.208 11.7341 301.341 20.7234 343.485 42.8565C378.381 61.2268 408.296 87.889 432.358 119.271C439.319 128.297 445.637 137.473 451.492 146.688C477.676 188.455 492.554 231.396 496.384 274.18C498.981 302.854 496.619 331.494 490.69 359.979C488.237 371.51 485.227 385.242 484.2 399.175C482.802 417.442 485.004 436.237 497.071 451.27C515.336 474.086 545.598 479.019 572.806 484.311C580.037 485.737 586.983 487.095 593.488 488.771C626.875 497.359 653.148 518.727 667.905 550.642C670.207 555.585 672.154 560.746 673.839 566.118C685.935 603.97 671.005 637.543 669.371 672.387C669.115 678.021 669.129 683.538 669.717 689.192C671.568 709.327 679.102 730.275 694.207 744.762C706.253 756.337 725.523 759.611 743.395 759.733C747.604 759.739 751.804 759.653 755.803 759.397C778.118 757.915 799.906 752.551 822.144 751.263C868.778 748.779 915.957 766.45 950.333 798.148C961.01 807.971 970.502 819.208 978.403 831.518C1011.36 883.356 1014.27 953.157 985.539 1007.48M216.064 10.1216C262.706 5.57922 311.068 15.384 353.273 37.1377C388.237 55.2215 418.83 81.0762 442.968 112.265C449.921 121.198 456.146 130.381 461.924 139.791C487.576 181.884 500.381 226.784 501.992 272.006C503.048 302.312 499.077 332.87 491.135 362.933C487.903 375.187 483.922 389.565 482.022 404.228C479.584 423.428 480.915 442.954 492.551 458.399C510.315 481.914 540.799 486.172 568.567 490.387C575.96 491.518 583.066 492.581 589.834 494.048C624.415 501.315 652.209 521.896 667.886 553.637C670.273 558.479 672.405 563.624 674.183 568.987C686.828 606.698 670.929 639.888 667.581 675.443C667.046 681.101 666.806 686.921 667.123 692.693C668.096 713.465 674.706 735.616 689.529 751.157C701.268 763.507 720.578 767.245 738.366 767.468C742.583 767.567 746.775 767.388 750.774 767.132C772.996 765.658 794.752 759.923 816.88 758.457C863.458 755.323 910.698 772.615 945.227 803.925C955.989 813.648 965.564 824.783 973.458 837.001C1006.67 888.536 1009.57 958.244 980.723 1012.3M225.774 2.44547C312.28 -2.86711 400.287 36.8653 453.486 105.267C512.906 181.729 519.664 276.261 491.479 365.802C482.12 395.708 468.105 437.619 488.03 465.528C509.868 496.076 553.153 493.791 586.172 499.231C627.358 506.109 660.239 531.389 674.519 571.764C689.926 615.407 664.449 652.427 664.421 696.015C664.421 717.434 670.293 740.772 684.64 757.29C698.778 773.545 724.992 776.025 745.551 774.79C767.688 773.417 789.319 767.319 811.508 765.474C872.423 760.526 935.041 791.159 968.404 842.306C1001.86 893.445 1004.76 963.061 975.797 1016.94M217.939 6.96476C262.088 3.85609 306.636 11.7493 347.16 29.2538C386.809 46.3671 422.68 72.696 449.677 106.628C470.258 132.422 484.691 160.624 493.265 190.273C501.415 218.275 504.323 247.297 502.744 276.336C501.562 298.139 497.757 319.891 491.978 341.534C489.585 350.535 486.812 359.476 483.76 368.441C479.951 379.436 475.537 392.075 472.556 405.055C467.383 427.207 466 450.991 478.597 468.878C492.251 488.169 514.883 494.609 537.797 497.845C551.336 499.749 564.963 500.523 577.364 502.245C588.542 503.888 599.168 506.701 608.972 510.802C631.104 520.092 649.386 535.611 661.379 557.292C663.701 561.391 665.768 565.794 667.566 570.314C677.389 594.99 673.705 618.133 668.856 641.847C665.371 658.706 661.339 675.707 661.434 693.938C661.398 694.596 661.455 695.245 661.419 695.903C661.85 716.91 667.573 739.607 681.601 755.684C691.161 766.634 706.081 771.504 721.089 773.092C728.829 773.913 736.673 773.789 743.819 773.164C751.902 772.552 759.919 771.197 767.921 769.656C782.176 766.914 796.19 763.538 810.442 761.826C827.284 759.793 844.26 760.368 860.782 763.227C891.262 768.514 920.491 781.955 943.992 802.63C954.216 811.558 963.255 821.898 970.882 833.204C973.793 837.627 976.527 842.158 978.99 846.806C1005.92 897.112 1005.91 961.276 978.289 1011.2M210.003 11.3993C254.676 7.87073 299.708 14.8799 340.911 31.5769C381.152 47.9837 418.105 73.844 445.751 107.719C466.797 133.473 481.617 161.828 490.062 192.143C498.058 220.533 500.442 249.974 497.935 279.095C496.01 300.963 491.446 322.593 484.901 344.023C482.221 352.955 479.162 361.828 475.824 370.724C471.643 381.752 466.943 394.322 463.683 407.327C458.131 429.418 456.231 453.715 468.945 471.872C482.523 491.357 505.543 497.951 528.44 501.001C542.064 502.804 555.768 503.384 568.237 504.82C579.484 506.176 590.086 508.71 600.034 512.331C622.364 520.668 640.928 535.134 653.675 555.814C656.166 559.711 658.403 563.912 660.378 568.323C671.064 592.175 668.672 615.112 664.573 638.854C661.654 655.757 658.008 672.912 658.197 691.134C658.161 691.792 658.217 692.442 658.274 693.091C658.807 714.183 664.368 737.174 678.497 753.337C688.267 764.549 703.482 769.58 718.844 770.95C726.762 771.661 734.699 771.529 742.023 770.796C750.275 769.981 758.47 768.517 766.548 766.783C780.965 763.746 795.123 759.89 809.512 757.604C826.483 754.906 843.479 754.637 860.122 756.737C890.852 760.6 920.971 772.466 945.477 792.867C956.065 801.669 965.483 812.07 973.404 823.537C976.408 827.951 979.243 832.567 981.807 837.301C1009.74 888.361 1009.61 954.313 980.825 1004.9M202.076 15.9267C247.18 11.9863 292.789 18.1033 334.677 34.0857C375.596 49.685 413.453 75.1858 441.841 108.996C463.343 134.616 478.474 163.318 486.883 194.291C494.726 223.069 496.493 252.938 493.15 282.132C490.576 304.056 485.153 325.481 477.849 346.79C474.789 355.662 471.544 364.551 467.92 373.379C463.368 384.439 458.381 396.94 454.851 410.063C448.92 432.093 446.605 456.988 459.242 475.339C472.828 494.916 496.15 501.764 519.124 504.621C532.833 506.323 546.613 506.709 559.151 507.858C570.466 508.928 581.128 511.083 591.052 514.425C613.588 521.903 632.51 535.121 646.02 554.892C648.596 558.689 651.002 562.688 653.154 566.989C664.704 590.018 663.603 612.749 660.254 636.518C657.9 653.466 654.642 670.774 655.024 689.073C655.081 689.723 655.045 690.381 655.102 691.03C655.828 712.199 661.034 735.408 675.365 751.74C685.438 763.206 700.939 768.306 716.58 769.652C724.683 770.347 732.697 770.021 740.198 769.178C748.628 768.255 756.899 766.597 765.046 764.576C779.616 761.152 793.919 756.815 808.352 753.964C825.36 750.608 842.477 749.58 859.325 750.821C890.389 753.158 921.315 763.551 946.825 783.676C957.776 792.353 967.574 802.815 975.79 814.443C978.988 818.934 981.83 823.643 984.487 828.368C1013.43 880.276 1013.16 947.923 983.216 999.082M194.148 20.4541C239.785 16.1866 285.777 21.3348 328.435 36.5016C369.948 51.3944 408.885 76.4266 438.016 110.172C459.982 135.752 475.508 164.7 483.688 196.254C491.378 225.419 492.62 255.708 488.341 284.89C485.117 306.871 478.741 328.099 470.864 349.271C467.519 358.075 463.894 366.903 460.084 375.747C455.254 386.832 449.795 399.281 446.079 412.419C439.768 434.389 436.937 459.797 449.692 478.418C463.193 498.096 486.911 505.19 509.868 507.861C523.662 509.462 537.426 509.663 550.125 510.518C561.416 511.308 572.147 513.177 582.216 516.039C604.856 522.572 624.153 534.729 638.417 553.499C641.162 557.094 643.746 560.984 646.068 565.083C658.38 587.204 658.578 609.821 656.073 633.61C654.283 650.602 651.32 668.071 651.896 686.447C651.953 687.096 651.917 687.754 651.973 688.404C652.809 709.75 657.845 733.161 672.177 749.493C682.459 761.222 698.255 766.482 714.166 767.711C722.362 768.398 730.646 767.955 738.224 766.919C746.73 765.802 755.171 763.942 763.402 761.82C778.126 758.008 792.574 753.192 807.059 749.868C824.196 745.846 841.333 743.975 858.394 744.448C889.801 745.352 921.525 754.179 947.94 773.945C959.346 782.489 969.43 793.019 977.941 804.809C981.24 809.384 984.268 814.077 986.941 818.987C1016.8 871.75 1016.48 940.992 985.388 992.906M186.212 24.8887C232.281 20.2093 278.85 24.4654 322.194 38.9175C364.299 53.1038 404.318 77.6674 434.099 111.356C456.528 136.895 472.442 165.997 480.492 198.217C488.029 227.769 488.747 258.479 483.54 287.741C479.574 309.788 472.439 330.894 463.796 351.853C460.163 360.588 456.252 369.347 452.063 378.131C446.862 389.248 441.116 401.629 437.122 414.792C430.525 436.694 427.084 462.622 439.863 481.521C453.279 501.301 477.385 508.548 500.342 511.219C514.127 512.727 528.061 512.726 540.829 513.294C552.188 513.798 562.987 515.38 573.117 517.862C595.963 523.536 615.618 534.446 630.551 552.315C633.466 555.708 636.22 559.396 638.626 563.395C651.801 584.692 653.198 607.111 651.536 630.92C650.312 647.956 647.736 665.578 648.413 684.039C648.469 684.688 648.433 685.346 648.49 685.996C649.519 707.419 654.294 731.039 668.734 747.549C679.218 759.447 695.317 764.962 711.591 766.065C719.965 766.643 728.342 766.192 736.097 765.047C744.78 763.821 753.298 761.767 761.691 759.35C776.66 755.143 791.169 749.947 805.783 745.958C823.056 741.362 840.213 738.648 857.488 738.354C889.229 737.733 921.861 745.17 949.179 764.577C960.949 772.995 971.412 783.586 980.21 795.444C983.601 800.012 986.738 804.882 989.597 809.776C1020.45 863.294 1020.02 934.323 987.755 986.807M178.285 29.4161C224.878 24.3168 271.838 27.6969 315.952 41.3335C358.735 54.7123 399.65 78.8235 430.189 112.633C453.083 138.132 469.299 167.487 477.305 200.272C484.596 230.22 484.789 261.35 478.748 290.686C474.131 312.788 466.137 333.69 456.735 354.527C452.816 363.194 448.619 371.885 444.151 380.693C438.57 391.75 432.554 404.248 428.282 417.435C421.297 439.183 417.441 465.709 430.236 484.794C443.568 504.675 468.069 512.168 491.103 514.645C504.973 516.052 518.983 515.857 531.827 516.232C543.171 516.55 554.022 517.66 564.304 519.755C587.255 524.484 607.378 534.324 623.066 551.192C626.065 554.484 628.988 557.97 631.665 561.852C645.61 582.333 648.391 604.538 647.48 628.375C646.82 645.455 644.632 663.231 645.41 681.776C645.466 682.425 645.43 683.083 645.487 683.733C646.617 705.24 651.137 729.164 665.67 745.665C676.457 757.817 692.842 763.401 709.395 764.48C717.954 765.042 726.408 764.397 734.341 763.143C743.194 761.715 751.796 759.56 760.265 756.95C775.388 752.355 790.042 746.679 804.708 742.217C822.017 736.964 839.388 733.482 856.683 732.345C888.665 730.206 922.196 736.162 950.426 755.302C962.652 763.587 973.402 774.246 982.494 786.265C985.986 790.918 989.216 795.78 992.184 800.852C1024.05 855.216 1023.48 927.941 990.061 981.087M170.442 33.8426C217.467 28.3314 265.003 30.8193 309.711 43.7494C353.086 56.4217 395.082 80.0643 426.271 113.817C449.629 139.275 466.148 168.885 474.118 202.328C481.256 232.663 480.925 264.213 474.048 293.622C468.782 315.781 459.936 336.57 449.767 357.194C445.469 365.8 440.993 374.515 436.323 383.154C430.371 394.243 424.069 406.672 419.611 419.876C412.247 441.564 407.874 468.603 420.694 487.966C434.034 507.939 458.837 515.687 481.855 517.978C495.818 519.377 509.804 518.904 522.81 518.984C534.221 519.015 545.141 519.839 555.391 521.562C578.547 525.432 598.936 534.032 615.386 549.992C618.555 553.083 621.655 556.46 624.409 560.148C639.209 579.712 643.289 601.804 643.129 625.668C643.034 642.793 641.233 660.722 642.112 679.351C642.169 680.001 642.132 680.659 642.189 681.309C643.42 702.901 647.779 727.119 662.413 743.705C673.41 756.119 690.09 761.864 707.006 762.818C715.65 763.279 724.382 762.61 732.399 761.255C741.337 759.726 750.1 757.276 758.739 754.464C774.015 749.482 788.814 743.325 803.617 738.291C821.055 732.371 838.446 728.046 855.954 726.142C888.279 722.57 922.609 726.96 951.843 745.825C964.432 753.985 975.561 764.704 984.948 776.885C988.541 781.622 991.872 786.569 994.933 791.633C1027.81 846.844 1027.1 921.171 992.528 975.073M162.514 38.37C210.064 32.4389 258.076 33.9499 303.469 46.1653C347.53 58.123 390.515 81.3051 422.353 115.001C446.26 140.318 463.09 170.274 470.83 204.299C477.815 235.022 476.959 266.991 469.154 296.481C463.146 318.705 453.533 339.28 442.605 359.783C438.021 368.321 433.258 376.968 428.31 385.631C421.987 396.753 415.398 409.114 410.67 422.434C402.926 444.062 398.13 471.605 410.881 491.255C424.136 511.329 449.243 519.331 472.43 521.421C486.478 522.719 500.54 522.051 513.614 521.845C525.002 521.598 535.982 522.042 546.385 523.378C569.646 526.303 590.495 533.741 607.614 548.801C610.952 551.689 614.222 554.864 617.153 558.443C632.724 577.192 638.103 599.17 638.786 623.055C639.256 640.224 637.835 658.212 638.814 676.927C638.871 677.577 638.928 678.226 638.9 678.977C640.324 700.646 644.328 725.082 659.164 741.838C670.371 754.514 687.43 760.32 704.532 761.257C713.361 761.702 722.178 760.932 730.365 759.375C739.472 757.644 748.413 755.085 757.035 752.087C772.557 746.71 787.416 740.174 802.264 734.574C819.831 727.989 837.249 722.913 854.963 720.149C887.623 715.051 922.759 717.968 952.998 736.558C965.95 744.592 977.459 755.372 987.14 767.714C990.826 772.443 994.258 777.475 997.419 782.623C1031.3 838.589 1030.46 914.704 994.725 969.175M154.587 42.8974C202.568 36.5544 251.064 37.1814 297.235 48.6741C341.882 59.8324 385.862 82.6469 418.444 116.278C442.814 141.554 460.04 171.757 467.643 206.354C474.474 237.465 473.002 269.862 464.353 299.332C457.695 321.613 447.231 342.076 435.629 362.357C430.758 370.826 425.709 379.405 420.475 387.999C413.78 399.153 406.905 411.446 401.898 424.79C393.868 446.35 388.471 474.507 401.331 494.335C414.51 514.602 440.003 522.757 463.183 524.754C477.315 525.951 491.462 525.183 504.504 524.605C515.968 524.164 527.008 524.229 537.464 525.092C560.922 527.065 582.146 533.442 600.027 547.593C603.45 550.381 606.889 553.354 609.99 556.731C626.331 574.664 633.094 596.428 634.528 620.34C635.563 637.553 634.436 655.703 635.609 674.494C635.666 675.144 635.723 675.794 635.787 676.537C637.313 698.29 641.156 723.021 655.992 739.777C667.4 752.623 684.762 758.682 702.227 759.495C711.242 759.923 720.135 758.959 728.593 757.285C737.877 755.445 746.895 752.693 755.686 749.493C771.361 743.727 786.366 736.711 801.258 730.546C818.861 723.303 836.392 717.376 854.319 713.845C887.321 707.314 923.348 708.656 954.398 726.895C967.807 734.796 979.602 745.645 989.577 758.148C993.364 762.962 996.897 768.078 1000.16 773.311C1035.05 830.124 1033.99 907.942 997.184 963.068M146.651 47.332C195.156 40.569 244.136 40.3119 290.986 50.9972C336.318 61.4409 381.287 83.7949 414.526 117.462C439.36 142.698 456.974 173.053 464.448 208.317C471.126 239.815 469.129 272.632 459.552 302.183C452.245 324.521 440.828 344.786 428.561 364.939C423.403 373.34 418.067 381.849 412.554 390.468C405.489 401.655 398.234 413.887 393.041 427.248C384.632 448.747 378.812 477.408 391.603 497.523C404.697 517.891 430.578 526.199 453.75 528.103C467.966 529.2 482.097 528.246 495.3 527.373C506.833 526.646 517.849 526.432 528.458 526.908C552.028 528.029 573.704 533.15 592.255 546.401C595.847 548.987 599.456 551.758 602.742 555.119C619.845 572.144 628.001 593.786 630.185 617.726C631.785 634.984 631.045 653.287 632.32 672.163C632.376 672.813 632.441 673.555 632.498 674.205C634.124 696.043 637.705 720.984 652.743 737.909C664.454 751.009 682.018 757.238 699.846 757.925C709.038 758.245 718.117 757.264 726.659 755.489C736.02 753.456 745.207 750.502 754.075 747.108C769.903 740.955 784.96 733.467 800.09 726.814C817.822 718.904 835.381 712.226 853.429 707.937C886.765 699.88 923.599 699.749 955.654 717.713C969.425 725.489 981.692 736.389 991.87 749.062C995.758 753.96 999.384 759.069 1002.75 764.387C1038.64 822.047 1037.44 901.467 999.482 957.255M138.723 51.8594C187.66 44.6846 237.124 43.5434 284.752 53.5059C330.677 63.2431 376.719 85.0357 410.709 118.731C436.007 143.926 453.923 174.536 461.354 210.364C467.879 242.25 465.357 275.487 454.852 305.119C446.802 327.522 434.627 347.666 421.593 367.605C416.055 375.946 410.434 384.387 404.735 393.022C397.29 404.148 389.765 416.497 384.294 429.883C375.505 451.321 369.169 480.496 382.077 500.88C395.179 521.342 421.363 529.904 444.611 531.614C458.912 532.61 473.104 531.276 486.392 530.302C497.916 529.483 509.069 528.695 519.646 528.8C543.421 529.061 565.455 532.936 584.676 545.286C588.438 547.67 592.131 550.34 595.679 553.491C613.553 569.701 623 591.136 626.027 615.097C628.193 632.398 627.841 650.855 629.216 669.815C629.272 670.465 629.337 671.208 629.394 671.857C631.214 693.772 634.54 719.016 649.578 735.941C661.499 749.303 679.442 755.592 697.541 756.163C706.826 756.474 716.082 755.385 724.794 753.408C734.332 751.265 743.596 748.117 752.634 744.522C768.623 738.074 783.825 730.105 798.991 722.794C816.852 714.219 834.531 706.782 852.692 701.641C886.278 692.16 924.011 690.547 957.063 708.143C971.29 715.786 983.844 726.754 994.316 739.589C998.305 744.572 1002.03 749.765 1005.49 755.075C1042.38 813.489 1041.06 894.698 1001.85 951.156M130.788 56.2939C180.257 48.7921 230.197 46.674 278.502 55.8291C325.02 64.8597 372.144 86.1837 406.783 119.822C432.546 144.977 450.857 175.833 458.066 212.335C464.437 244.608 461.391 278.265 449.958 307.979C441.259 330.438 428.224 350.377 414.431 370.195C408.607 378.467 402.707 386.933 396.714 395.406C388.898 406.565 381.086 418.845 375.337 432.255C366.168 453.633 359.316 483.32 372.24 503.891C385.258 524.453 411.837 533.261 435.069 534.786C449.455 535.681 463.646 534.347 477.087 532.986C488.672 531.787 499.809 530.814 510.539 530.531C534.419 529.848 556.921 532.652 576.896 544.002C580.827 546.184 584.697 548.745 588.322 551.702C606.967 567.096 617.797 588.317 621.575 612.306C624.306 629.651 624.341 648.261 625.817 667.306C625.874 667.956 625.939 668.698 625.995 669.348C627.924 691.44 631.073 716.793 646.22 733.896C658.351 747.521 676.589 753.971 694.958 754.424C704.428 754.719 713.77 753.529 722.659 751.443C732.375 749.191 741.715 745.85 750.821 741.968C767.056 735.124 782.311 726.683 797.529 718.9C815.426 709.667 833.218 701.378 851.592 695.47C885.513 684.463 924.052 681.377 958.016 698.706C972.606 706.224 985.539 717.253 996.298 730.156C1000.47 735.123 1004.3 740.4 1007.77 745.896C1045.68 805.158 1044.22 888.061 1003.85 945.182M122.953 60.8132C172.854 52.8995 223.37 49.8893 272.362 58.3297C319.557 66.5529 367.585 87.5173 402.966 121.091C429.185 146.112 447.9 177.307 454.971 214.383C461.19 247.043 457.527 281.129 445.258 310.915C435.909 333.431 422.023 353.257 407.556 372.853C401.446 381.057 395.166 389.462 388.987 397.952C380.8 409.143 372.702 421.355 366.682 434.882C357.227 456.192 349.858 486.392 362.807 507.24C375.74 527.904 402.715 536.958 425.938 538.39C440.409 539.183 454.677 537.656 468.187 536.008C479.747 534.531 491.045 533.263 501.827 532.508C525.913 530.965 548.774 532.522 569.418 542.972C573.434 545.053 577.474 547.412 581.369 550.252C600.784 564.83 612.999 585.837 617.62 609.845C621.008 627.227 621.245 646.006 623.008 665.12C623.064 665.769 623.129 666.512 623.186 667.162C625.216 689.339 628.111 714.994 643.443 732.081C655.784 745.968 674.401 752.479 693.048 752.907C702.697 753.093 712.215 751.794 721.189 749.607C730.982 747.162 740.584 743.61 749.775 739.627C766.164 732.396 781.563 723.475 796.918 715.119C814.944 705.219 832.764 696.18 851.251 689.421C885.506 676.888 924.945 672.32 959.82 689.383C974.858 696.674 988.086 707.864 999.139 720.929C1003.41 725.98 1007.34 731.342 1010.91 736.83C1049.82 796.939 1048.23 881.537 1006.7 939.228M115.025 65.3406C165.451 57.007 216.358 53.1208 266.12 60.7456C313.908 68.2623 363.017 88.7581 399.048 122.275C425.731 147.255 444.834 178.604 451.776 216.345C457.842 249.394 453.654 283.899 440.542 313.665C430.451 336.246 415.798 355.859 400.572 375.334C394.175 383.469 387.609 391.806 381.143 400.227C372.585 411.451 364.2 423.594 357.902 437.145C348.06 458.302 340.183 489.107 353.156 510.235C366.004 530.999 393.366 540.206 416.675 541.537C431.238 542.323 445.583 540.602 459.153 538.575C470.79 536.903 482.047 535.172 492.898 534.13C517.181 531.634 540.315 532.045 561.722 541.586C565.907 543.465 570.117 545.623 574.097 548.362C594.282 562.125 607.788 582.925 613.253 606.953C617.214 624.472 617.83 643.311 619.686 662.417C619.75 663.159 619.807 663.809 619.872 664.552C622.096 686.805 624.728 712.671 640.077 729.943C652.713 743.991 671.54 750.764 690.55 751.068C700.291 751.246 709.987 749.837 719.13 747.449C729.1 744.894 738.78 741.149 748.039 736.879C764.581 729.261 780.133 719.952 795.532 711.031C813.695 700.558 831.535 690.675 850.228 683.056C884.825 669.091 925.062 662.956 960.849 679.752C976.251 686.918 989.858 698.169 1001.21 711.395C1005.58 716.531 1009.6 721.885 1013.27 727.457C1053.18 788.321 1051.46 874.614 1008.78 933.06M107.09 69.7752C158.04 61.0216 209.431 56.2513 259.878 63.1616C308.352 69.9636 358.45 89.9989 395.139 123.552C422.285 148.492 441.783 180.086 448.589 218.401C454.594 251.828 449.789 286.762 435.749 316.609C425.016 339.34 409.496 358.654 393.511 378.009C386.735 386.083 379.975 394.343 373.231 402.789C364.293 413.952 355.63 426.12 349.147 439.687C339.018 460.775 330.632 492.187 343.622 513.499C356.486 534.449 384.143 543.818 407.435 544.964C422.083 545.648 436.412 543.741 450.143 541.419C461.849 539.462 473.175 537.443 484.077 535.93C508.473 532.582 532.067 531.831 554.228 540.37C558.583 542.047 562.97 544.096 567.119 546.633C588.075 559.58 602.965 580.166 609.18 604.222C613.706 621.785 614.702 640.685 616.666 659.968C616.731 660.711 616.788 661.361 616.853 662.103C619.177 684.441 621.556 710.61 637.098 727.958C649.944 742.269 669.15 749.103 688.439 749.382C698.365 749.543 708.146 748.034 717.467 745.536C727.615 742.873 737.37 738.934 746.799 734.462C763.587 726.448 779.192 716.667 794.635 707.181C812.834 696.05 830.787 685.316 849.701 677.023C884.632 661.531 925.676 653.924 962.46 670.352C978.224 677.393 992.211 688.704 1003.85 702.091C1008.32 707.219 1012.45 712.751 1016.22 718.408C1057.14 780.118 1055.29 868.107 1011.44 927.122M99.162 74.3026C150.544 65.1372 202.411 59.39 253.544 65.5856C302.603 71.5883 353.688 91.1631 391.128 124.744C418.739 149.643 438.632 181.484 445.216 220.473C451.068 254.288 445.646 289.649 430.771 319.569C419.388 342.357 402.923 361.566 386.265 380.699C379.21 388.798 372.063 396.905 365.133 405.367C355.824 416.563 346.883 428.755 340.121 442.347C329.613 463.374 320.711 495.298 333.725 516.89C346.504 537.94 374.557 547.555 397.925 548.507C412.565 549.098 427.063 546.99 440.863 544.381C452.544 542.145 463.939 539.84 474.995 537.939C499.596 533.732 523.549 531.733 546.379 539.372C550.903 540.848 555.375 542.795 559.694 545.13C581.42 557.262 597.694 577.634 604.66 601.718C609.751 619.325 611.134 638.378 613.199 657.746C613.264 658.488 613.321 659.138 613.478 659.873C615.904 682.295 618.121 708.759 633.663 726.107C646.719 740.68 666.22 747.675 685.779 747.837C695.883 747.889 705.757 746.372 715.247 743.672C725.471 740.815 735.396 736.674 744.902 732.009C761.843 723.608 777.592 713.346 793.181 703.379C811.509 691.583 829.489 680.098 848.609 670.945C883.79 654.029 925.826 644.931 963.514 661C979.734 667.908 994.007 679.288 1005.94 692.836C1010.51 698.048 1014.74 703.572 1018.6 709.314C1060.53 771.778 1058.55 861.555 1013.54 921.233M91.2264 78.7372C143.132 69.1518 195.483 62.5206 247.302 68.0015C296.954 73.2977 349.121 92.4039 387.21 125.928C415.277 150.694 435.566 182.78 442.021 222.435C447.728 256.731 441.773 292.419 425.97 322.421C413.845 345.273 396.613 364.269 379.196 383.281C371.855 391.312 364.421 399.35 357.205 407.744C347.525 418.971 338.297 431.095 331.256 444.711C320.369 465.678 311.043 498.107 324.073 519.884C336.768 541.036 365.216 550.897 388.577 551.755C403.302 552.246 417.876 549.944 431.744 547.049C443.502 544.619 454.957 541.934 466.065 539.561C490.771 534.409 515.184 531.248 538.683 537.987C543.292 539.361 548.018 541.006 552.522 543.325C575.019 554.641 592.677 574.798 600.393 598.91C606.049 616.561 607.82 635.768 609.986 655.22C610.051 655.963 610.108 656.613 610.265 657.347C612.885 679.847 614.747 706.528 630.491 724.046C643.849 738.873 663.552 746.037 683.474 746.074C693.671 746.119 703.807 744.391 713.382 741.591C723.784 738.624 733.785 734.29 743.367 729.431C760.461 720.642 776.364 709.993 791.989 699.368C810.446 686.906 828.539 674.569 847.687 664.665C883.202 646.223 926.045 635.653 964.644 651.455C981.227 658.237 995.88 669.677 1008.11 683.387C1012.78 688.684 1017.11 694.292 1021.08 700.119C1064.01 763.431 1061.8 854.818 1015.73 915.242M83.2988 83.2646C135.636 73.2674 188.564 65.744 241.061 70.4175C291.398 74.999 344.554 93.6447 383.385 127.104C412.009 151.821 432.508 184.17 438.919 224.39C444.472 259.073 437.993 295.181 421.262 325.264C408.487 348.173 390.404 367.056 372.313 385.847C364.685 393.809 356.965 401.779 349.47 410.196C339.419 421.457 329.904 433.512 322.593 447.245C311.419 468.144 301.485 501.093 314.539 523.149C327.149 544.401 355.9 554.516 379.337 555.181C394.147 555.571 408.713 553.176 422.743 549.986C434.476 547.278 445.992 544.214 457.16 541.461C482.072 535.45 506.843 531.041 531.012 536.88C535.79 538.053 540.601 539.596 545.274 541.714C568.542 552.214 587.499 572.258 596.058 596.389C602.279 614.085 604.345 633.453 606.705 652.982C606.769 653.724 606.919 654.366 606.984 655.109C609.704 677.693 611.405 704.669 627.242 722.179C640.802 737.175 660.892 744.493 681.093 744.505C691.475 744.533 701.696 742.705 711.448 739.795C722.019 736.627 732.199 732.184 741.849 727.038C759.189 717.853 775.145 706.732 790.906 695.534C809.399 682.414 827.613 669.319 846.966 658.555C882.816 638.587 926.465 626.543 966.069 642.07C983.108 648.719 998.047 660.228 1010.57 674.099C1015.34 679.388 1019.76 685.081 1023.83 690.992C1067.78 755.151 1065.43 848.234 1018.2 909.228M75.3712 87.792C128.233 77.3748 181.552 68.9755 234.827 72.9262C285.758 76.8012 339.994 94.9784 379.476 128.381C408.563 153.058 429.458 185.652 435.732 226.445C441.132 261.516 434.036 298.052 416.461 328.115C403.036 351.081 384.094 369.759 365.244 388.428C357.237 396.33 349.238 404.324 341.542 412.573C331.111 423.773 321.318 435.852 313.729 449.61C302.176 470.448 291.725 503.91 304.803 526.244C317.422 547.589 346.467 557.866 369.989 558.43C384.883 558.719 399.526 556.13 413.624 552.654C425.434 549.751 437.01 546.308 448.239 543.176C473.255 536.22 498.485 530.649 523.417 535.579C528.365 536.55 533.353 537.985 538.196 539.9C562.233 549.585 582.667 569.406 591.885 593.574C598.764 611.305 601.124 630.834 603.584 650.448C603.649 651.191 603.807 651.925 603.864 652.575C606.693 675.337 608.216 702.422 624.069 720.118C637.839 735.376 658.224 742.855 678.788 742.742C689.348 742.661 699.662 740.825 709.676 737.705C720.332 734.436 730.681 729.791 740.408 724.451C757.901 714.879 774.001 703.278 789.815 691.608C808.437 677.822 826.679 663.975 846.238 652.352C882.43 630.952 926.877 617.341 967.393 632.602C984.795 639.125 1000.11 650.694 1012.93 664.726C1017.8 670.1 1022.32 675.878 1026.49 681.781C1071.43 746.695 1068.96 841.565 1020.57 903.221M67.5283 92.2185C120.822 81.3895 174.717 72.0979 228.67 75.2412C280.278 78.3087 335.411 96.0336 375.651 129.557C405.202 154.193 426.492 187.034 432.629 228.4C437.876 263.858 430.256 300.814 411.846 330.95C397.772 353.973 377.977 372.538 358.361 390.994C350.067 398.827 341.782 406.753 333.807 415.026C323.005 426.258 312.934 438.362 305.058 452.051C293.218 472.82 282.251 506.795 295.354 529.408C307.887 550.854 337.329 561.377 360.834 561.755C375.821 562.036 390.44 559.169 404.699 555.397C416.578 552.209 428.129 548.487 439.503 544.874C464.725 537.059 490.314 530.24 515.915 534.27C521.032 535.039 526.105 536.373 531.125 538.18C555.934 547.049 577.659 566.664 587.72 590.851C595.163 608.627 597.911 628.309 600.464 647.915C600.529 648.658 600.687 649.392 600.743 650.042C603.766 672.88 604.943 700.276 620.99 718.048C634.97 733.569 655.734 741.108 676.475 740.887C687.221 740.79 697.712 738.844 707.811 735.624C718.636 732.152 729.061 727.313 738.958 721.772C756.613 711.905 772.858 699.824 788.708 687.496C807.458 673.044 825.72 658.354 845.493 645.963C881.926 623.045 927.366 607.945 968.785 622.846C986.551 629.244 1002.25 640.874 1015.36 654.975C1020.41 660.425 1025.03 666.195 1029.21 672.284C1075.17 738.044 1072.56 834.61 1023.01 896.835M59.6007 96.7458C113.427 85.5897 167.705 75.3294 222.437 77.75C274.638 80.111 330.851 97.3672 371.741 130.834C401.756 155.43 423.434 188.423 429.358 230.557C434.451 266.402 426.306 303.778 406.968 333.995C392.152 357.083 371.591 375.434 351.216 393.769C342.635 401.534 333.971 409.399 325.802 417.596C314.621 428.767 304.271 440.895 296.125 454.702C284.007 475.496 272.43 509.992 285.549 532.79C297.998 554.337 327.835 565.106 351.332 565.391C366.404 565.571 381.108 562.603 395.427 558.452C407.29 555.078 418.986 550.876 430.429 546.977C455.755 538.217 481.804 530.236 508.074 533.365C513.268 533.941 518.603 535.065 523.801 536.762C549.388 544.908 572.489 564.216 583.3 588.431C591.309 606.251 594.443 626.087 597.098 645.777C597.163 646.52 597.32 647.254 597.385 647.997C600.509 670.92 601.516 698.518 617.664 716.375C631.947 732.15 652.913 739.858 674.017 739.511C684.848 739.313 695.516 737.259 705.793 733.929C716.795 730.349 727.297 725.316 737.27 719.581C755.078 709.327 771.376 696.773 787.464 683.956C806.25 668.847 824.633 653.398 844.526 640.249C881.302 615.898 927.548 599.324 969.964 613.857C988.186 620.122 1004.17 631.82 1017.57 646.082C1022.72 651.525 1027.45 657.472 1031.72 663.553C1078.69 730.16 1075.94 828.329 1025.24 891.309M51.665 101.18C105.923 89.6125 160.778 78.46 216.187 80.0731C269.074 81.7194 326.276 98.5152 367.815 131.925C398.286 156.387 420.275 189.728 426.154 232.426C431.095 268.66 422.332 306.464 402.159 336.754C386.693 359.898 365.188 378.145 344.139 396.258C335.272 403.954 326.321 411.751 317.874 419.972C306.321 431.176 295.685 443.236 287.353 457.058C274.847 477.699 262.856 512.792 275.999 535.869C288.371 557.61 318.596 568.532 342.17 568.623C357.326 568.702 372.106 565.54 386.494 561.103C398.425 557.442 410.097 552.962 421.592 548.59C447.124 538.971 473.531 529.742 500.564 531.964C505.935 532.43 511.347 533.36 516.714 534.855C543.079 542.279 567.556 561.279 579.118 585.523C587.692 603.387 591.113 623.291 594.062 643.143C594.127 643.885 594.285 644.62 594.35 645.363C597.667 668.362 598.328 696.271 614.576 714.213C629.069 730.25 650.321 738.027 671.797 737.647C682.813 737.433 693.566 735.278 704.012 731.746C715.1 728.065 725.771 722.831 735.905 716.801C753.959 706.151 770.309 693.125 786.441 679.743C805.357 663.967 823.86 647.76 843.866 633.759C880.976 607.882 928.029 589.835 971.357 604.102C989.942 610.242 1006.3 622 1020 636.423C1025.25 641.951 1030.07 647.89 1034.45 654.055C1082.41 721.417 1079.54 821.373 1027.68 885.016M43.7374 105.708C98.5197 93.7199 153.859 81.6834 209.953 82.5819C302.575 84.124 409.447 132.123 422.967 234.482C427.755 271.103 418.468 309.327 397.359 339.605C381.242 362.806 358.878 380.847 337.163 398.832C315.355 416.825 293.519 435.568 278.497 459.515C265.612 480.096 253.104 515.702 266.263 538.964C278.644 560.798 309.17 571.974 332.728 571.88C360.503 571.885 386.849 560.885 412.578 550.313C438.307 539.741 464.988 529.366 492.784 530.679C525.462 532.221 559.866 553.533 574.767 582.817C584.241 601.35 588.03 622.251 591.052 642.938C594.471 666.023 594.969 694.226 611.311 712.159C626.005 728.366 647.653 736.389 669.399 735.893C692.453 735.375 714.566 726.241 734.286 714.324C773.895 690.286 805.507 654.975 842.96 627.665C880.413 600.356 928.264 580.742 972.596 594.734C998.849 603.01 1020.84 622.414 1037.03 645.038C1086 713.247 1083 814.898 1029.97 879.111" stroke="url(#paint0_linear_10269_61608)" stroke-width="2" stroke-miterlimit="10"/>
<defs>
<linearGradient id="paint0_linear_10269_61608" x1="232.014" y1="224.145" x2="985.809" y2="708.977" gradientUnits="userSpaceOnUse">
<stop stop-color="#3454FF"/>
<stop offset="1" stop-color="#7700C6"/>
</linearGradient>
</defs>
</svg>
