<svg width="390" height="500" viewBox="0 0 390 500" fill="none" xmlns="http://www.w3.org/2000/svg">
<path d="M-157.728 109.368C-142.872 86.5603 -109.334 79.005 -85.9517 93.1953C-61.5312 108.045 -51.7652 139.946 -28.4754 156.532C-6.12593 172.44 24.0151 170.854 50.1692 163.564C76.3234 156.275 101.097 143.941 127.97 140.104C154.843 136.268 185.962 143.395 200.826 166.621C213.674 186.746 211.032 212.551 211.196 236.396C211.41 260.232 217.714 288.099 239.214 298.051C264.501 309.798 289.91 290.563 313.827 284.516C354.441 274.326 399.307 285.318 428.697 315.646C458.705 346.563 469.87 394.836 456.472 435.624M-153.005 104.761C-137.697 82.7255 -104.473 75.6357 -81.1286 89.6309C-62.0819 101.018 -51.6088 122.463 -37.0659 139.326C-32.8982 144.134 -28.4458 148.584 -23.3755 152.307C-1.29028 168.418 27.8601 167.985 52.9732 162.111C70.1477 158.078 86.5956 151.858 103.393 147.443C111.187 145.377 119.017 143.76 127.114 143.002C137.394 142.023 148.453 142.715 159.111 145.255C175.02 149.055 189.784 156.87 198.934 170.174C201.319 173.608 203.176 177.194 204.711 180.944C211.743 198.198 210.79 218.618 211.41 238.024C211.498 241.093 211.703 244.24 211.966 247.427C213.997 268.635 220.581 290.63 238.385 299.779C241.472 301.357 244.514 302.437 247.626 303.099C259.413 305.724 271.313 302.662 283.21 298.537C292.735 295.226 302.265 291.155 311.589 288.895C313.862 288.354 316.143 287.861 318.435 287.418C330.876 285.06 343.608 284.466 356.095 285.742C382.323 288.505 407.467 299.774 426.349 318.933C432.136 324.794 437.248 331.342 441.587 338.343C459.928 367.775 465.12 405.57 454.224 438.386M-148.234 100.144C-132.512 78.9394 -99.6126 72.2664 -76.2567 86.0572C-57.1991 97.2402 -46.402 118.268 -31.8197 135.073C-27.6615 139.832 -23.2579 144.292 -18.2269 148.073C3.55485 164.445 31.8025 165.097 55.8746 160.639C72.3227 157.555 87.9748 152.451 103.841 148.975C111.213 147.345 118.622 146.164 126.337 145.783C136.108 145.308 146.706 146.493 157.207 149.266C172.841 153.473 187.734 160.91 197.17 173.601C199.624 176.87 201.608 180.33 203.213 183.915C210.765 200.462 210.662 220.312 211.712 239.585C211.898 242.634 212.102 245.782 212.463 248.95C214.786 270.101 220.738 291.965 237.761 301.519C240.662 303.183 243.616 304.331 246.601 305.119C257.918 308.189 269.483 305.748 281.191 302.216C290.597 299.333 300.174 295.506 309.507 293.294C311.78 292.753 314.061 292.261 316.353 291.817C328.745 289.469 341.391 288.69 353.858 289.868C379.972 292.299 405.176 303.354 424.117 322.3C429.944 328.102 435.037 334.552 439.425 341.544C457.884 370.801 463.115 408.538 452.094 441.227M-143.463 95.5275C-127.278 75.1438 -94.7423 68.9459 -71.3849 82.4834C-52.3068 93.5107 -41.1464 114.064 -26.6318 130.78C-22.4736 135.54 -18.07 139.999 -13.1365 143.799C8.33231 160.383 35.638 162.179 58.6691 159.137C74.3907 157.003 89.2471 153.014 104.192 150.526C111.143 149.332 118.13 148.586 125.424 148.641C134.694 148.718 144.871 150.339 155.166 153.354C170.564 157.911 185.488 164.987 195.22 177.115C197.743 180.219 199.797 183.514 201.519 186.924C209.592 202.763 210.291 222.053 211.819 241.183C212.054 244.223 212.346 247.303 212.755 250.461C215.411 271.497 220.73 293.232 236.883 303.257C239.648 304.998 242.465 306.223 245.274 307.147C256.062 310.623 267.311 308.9 278.909 305.845C288.205 303.438 297.82 299.806 307.114 297.653C309.386 297.112 311.678 296.668 313.92 296.234C326.312 293.885 338.881 292.97 351.262 293.962C377.31 296.052 402.573 306.893 421.516 325.585C427.334 331.339 432.514 337.722 436.893 344.664C455.412 373.708 460.691 411.436 449.651 444.026M-138.692 90.9109C-122.093 71.3577 -89.8814 65.5766 -66.4643 78.9003C-47.3657 89.7718 -35.8909 109.859 -21.337 126.518C-17.1787 131.277 -12.8333 135.697 -7.9391 139.555C13.2655 156.342 39.5805 159.291 61.5706 157.664C76.6143 156.472 90.6846 153.646 104.64 152.057C111.17 151.299 117.677 150.95 124.647 151.422C133.457 151.992 143.173 154.108 153.31 157.356C168.472 162.261 183.486 169.017 193.456 180.543C196.057 183.53 198.18 186.66 200.02 189.895C208.614 205.026 210.173 223.796 212.121 242.743C212.395 245.725 212.785 248.786 213.243 251.935C216.24 272.905 220.869 294.47 236.25 304.948C238.868 306.717 241.567 308.117 244.239 309.118C254.548 312.99 265.471 311.937 276.88 309.475C286.008 307.506 295.719 304.108 305.032 302.052C307.314 301.56 309.596 301.068 311.838 300.633C324.191 298.343 336.664 297.193 349.065 298.03C375.047 299.778 400.312 310.366 419.324 328.893C425.181 334.589 430.352 340.923 434.77 347.807C453.407 376.676 458.668 414.306 447.56 446.809M-133.921 86.2943C-116.869 67.5134 -85.0111 62.2561 -61.5924 75.3265C-42.4829 85.9936 -30.6353 105.655 -16.1003 122.216C-11.9515 126.926 -7.60607 131.346 -2.79992 135.272C18.1012 152.32 43.523 156.403 64.4626 156.143C78.7893 155.949 92.0544 154.191 105.137 153.58C111.245 153.257 117.331 153.344 123.88 154.251C132.19 155.374 141.435 157.935 151.415 161.415C166.293 166.68 181.397 173.114 191.701 184.019C194.371 186.841 196.613 189.796 198.571 192.857C207.685 207.28 210.095 225.48 212.472 244.294C212.843 247.257 213.282 250.309 213.73 253.409C217.059 274.264 221.056 295.698 235.607 306.59C238.088 308.437 240.601 309.923 243.195 311.04C253.024 315.308 263.573 314.935 274.882 312.999C283.89 311.457 293.648 308.303 302.97 306.296C305.252 305.804 307.495 305.37 309.786 304.926C322.09 302.645 334.534 301.349 346.85 302C372.717 303.416 398.041 313.791 417.162 332.094C423.058 337.731 428.22 344.017 432.677 350.843C451.432 379.537 456.683 417.119 445.498 449.485M-129.198 81.6872C-111.733 63.7368 -80.199 58.8963 -56.7693 71.7622C-37.5906 82.2641 -25.4285 101.46 -10.9029 117.972C-6.7541 122.683 -2.45745 127.112 2.29994 131.047C22.8881 148.308 47.3679 153.534 67.2571 154.641C80.8667 155.446 93.2873 154.812 105.478 155.082C111.174 155.244 116.83 155.717 122.947 157.012C130.757 158.687 139.581 161.683 149.365 165.455C164.016 171.117 179.151 177.191 189.742 187.484C192.481 190.141 194.801 192.98 196.877 195.866C206.512 209.581 209.782 227.261 212.618 245.834C213.087 248.778 213.516 251.781 214.062 254.862C217.674 275.612 221.039 296.915 234.768 308.27C237.113 310.194 239.49 311.757 241.956 313C251.315 317.713 261.538 318.01 272.649 316.618C281.537 315.504 291.294 312.604 300.635 310.694C302.917 310.202 305.16 309.767 307.412 309.382C319.667 307.111 332.025 305.629 344.312 306.133C370.112 307.209 395.497 317.369 414.629 335.468C420.515 341.057 425.765 347.274 430.213 354.052C449.027 382.532 454.327 420.104 443.066 452.333M-124.436 77.0218C-106.509 59.8925 -75.2894 55.5176 -51.9069 68.1397C-32.7171 78.4371 -20.2312 97.2159 -5.67568 113.621C-1.5363 118.283 2.76977 122.761 7.42967 126.715C27.763 144.228 51.2428 150.558 70.1396 153.071C83.0227 154.826 94.6477 155.307 105.917 156.565C111.192 157.163 116.426 158.072 122.171 159.793C129.471 161.971 137.834 165.461 147.461 169.466C161.876 175.477 177.1 181.23 187.929 190.921C190.737 193.412 193.175 196.077 195.33 198.847C205.534 211.845 209.606 228.964 212.871 247.404C213.38 250.29 213.916 253.322 214.501 256.345C218.454 277.029 221.168 298.104 234.086 309.97C236.294 311.971 238.534 313.611 240.872 314.98C249.703 320.099 259.601 321.067 270.611 320.2C279.38 319.514 289.184 316.857 298.534 314.996C300.826 314.552 303.068 314.118 305.311 313.684C317.566 311.412 329.847 309.794 342.057 310.161C367.791 310.896 393.187 320.852 412.378 338.737C418.295 344.218 423.545 350.436 428.08 357.146C447.013 385.451 452.304 422.975 440.965 455.067M-119.665 72.4052C-101.334 56.0576 -70.4285 52.1483 -46.9863 64.5565C-27.7761 74.6982 -14.9268 93.0019 -0.390251 109.31C3.74913 113.972 8.00644 118.459 12.5783 122.481C32.5987 140.206 55.1365 147.68 72.9923 151.608C85.1489 154.313 95.9294 155.919 106.365 158.097C111.16 159.091 116.031 160.475 121.345 162.583C128.145 165.314 136.087 169.239 145.556 173.477C159.735 179.837 175.001 185.279 186.164 194.348C189.052 196.723 191.549 199.174 193.822 201.769C204.555 214.108 209.469 230.61 213.164 248.915C213.77 251.782 214.345 254.757 214.93 257.78C219.167 278.358 221.297 299.294 233.345 311.631C235.368 313.718 237.529 315.475 239.73 316.921C248.081 322.437 257.654 324.074 268.475 323.8C277.125 323.542 286.976 321.129 296.336 319.317C298.627 318.873 300.87 318.439 303.073 318.063C315.28 315.801 327.474 313.997 339.704 314.209C365.334 314.66 390.779 324.353 410.07 341.966C416.026 347.389 421.315 353.549 425.841 360.21C444.892 388.341 450.163 425.767 438.806 457.761M-114.894 67.7886C-96.1002 52.2621 -65.5582 48.8278 -42.1144 60.9828C-22.8932 70.92 -9.67129 88.7974 4.85587 105.056C8.99525 109.718 13.2431 114.157 17.7269 118.246C37.4344 136.184 59.0302 144.801 75.8938 150.136C87.3726 153.782 97.2599 156.522 106.814 159.629C111.187 161.059 115.627 162.83 120.529 165.422C126.829 168.705 134.301 173.076 143.613 177.546C157.507 184.265 172.911 189.377 184.302 197.795C187.259 200.004 189.884 202.329 192.226 204.759C203.529 216.381 209.205 232.381 213.369 250.494C214.023 253.352 214.638 256.268 215.33 259.321C219.907 279.834 221.347 300.599 232.624 313.39C234.509 315.554 236.485 317.397 238.608 318.959C246.479 324.872 255.726 327.179 266.359 327.498C274.898 327.717 284.787 325.499 294.166 323.784C296.408 323.35 298.709 322.955 300.903 322.53C313.07 320.326 325.227 318.327 337.371 318.353C362.934 318.463 388.43 327.894 407.741 345.351C413.687 350.725 419.016 356.827 423.581 363.43C442.74 391.337 448.012 428.763 436.577 460.621M-110.172 63.1815C-90.9642 48.4854 -60.7461 45.468 -37.2913 57.4184C-18.0497 67.2 -4.51325 84.6118 10.0438 100.764C14.2225 105.368 18.3823 109.874 22.8173 113.973C42.27 132.161 62.8657 141.883 78.6883 148.634C89.4406 153.23 98.474 157.045 107.165 161.18C111.068 163.055 115.135 165.252 119.655 168.222C125.445 172.008 132.505 176.863 141.611 181.576C155.279 188.693 170.705 193.395 182.392 201.25C185.418 203.295 188.16 205.445 190.62 207.701C202.492 218.605 208.971 234.045 213.612 252.015C214.306 254.815 215.028 257.761 215.759 260.756C220.62 281.163 221.467 301.739 231.874 315.002C233.622 317.243 235.461 319.164 237.457 320.852C244.8 327.17 253.731 330.196 264.253 330.992C272.673 331.638 282.609 329.664 291.949 328.007C294.201 327.622 296.443 327.188 298.647 326.812C310.765 324.617 322.835 322.432 334.951 322.312C360.448 322.081 385.955 331.307 405.326 348.55C411.311 353.867 416.67 359.861 421.235 366.464C440.463 394.206 445.774 431.574 434.263 463.295M-105.4 58.5649C-85.74 44.6411 -55.8758 42.1474 -32.4195 53.8447C-13.1668 63.4217 0.7423 80.4073 15.2899 96.5105C19.4686 101.114 23.619 105.572 27.9659 109.738C47.1057 128.139 66.7987 138.947 81.541 147.171C91.5762 152.766 99.795 157.599 107.613 162.712C111.085 164.974 114.691 167.665 118.839 171.061C124.178 175.39 130.768 180.69 139.667 185.645C153.099 193.111 168.615 197.493 180.588 204.736C183.683 206.615 186.505 208.649 189.082 210.73C201.524 220.918 208.814 235.846 213.875 253.634C214.666 256.415 215.428 259.303 216.159 262.297C221.361 282.638 221.566 303.036 231.152 316.761C232.754 319.03 234.466 321.077 236.334 322.89C243.197 329.605 251.803 333.301 262.137 334.69C270.437 335.764 280.371 334.043 289.779 332.474C292.031 332.089 294.283 331.703 296.477 331.279C308.595 329.084 320.588 326.762 332.666 326.448C358.048 325.884 383.615 334.896 403.045 351.926C409.07 357.184 414.419 363.129 419.024 369.674C438.37 397.242 443.662 434.512 432.083 466.145M-100.629 53.9483C-80.5552 40.855 -51.015 38.7782 -27.4988 50.2615C-8.17704 59.6734 6.04661 76.1934 20.5753 92.199C24.7446 96.7541 28.8557 101.27 33.1539 105.446C51.9807 124.059 70.7317 136.01 84.4817 145.64C93.7904 152.185 101.155 158.094 108.11 164.235C111.151 166.884 114.346 170.059 118.111 173.833C122.95 178.713 129.069 184.459 137.86 189.637C151.057 197.452 166.662 201.513 178.872 208.154C182.095 209.908 184.976 211.727 187.632 213.692C200.643 223.162 208.735 237.53 214.226 255.185C215.066 257.956 215.866 260.786 216.695 263.762C222.229 283.988 221.792 304.206 230.518 318.451C231.984 320.798 233.558 322.922 235.299 324.861C241.673 331.923 249.914 336.348 260.147 338.262C268.328 339.764 278.31 338.286 287.727 336.767C289.979 336.381 292.231 335.996 294.434 335.62C306.504 333.435 318.41 330.928 330.469 330.515C355.785 329.61 381.412 338.409 400.902 355.224C406.918 360.434 412.306 366.321 416.95 372.807C436.405 400.152 441.697 437.422 430.089 468.909M-95.8582 49.3317C-75.3217 37.0595 -46.0959 35.4482 -22.627 46.6877C-3.28475 55.9439 11.2534 71.9983 25.812 87.897C29.9812 92.452 34.0829 96.919 38.293 101.163C56.8651 120.028 74.616 133.083 87.325 144.129C95.9559 151.614 102.409 158.56 108.5 165.728C111.12 168.812 113.893 172.423 117.236 176.632C121.576 182.065 127.273 188.247 135.859 193.667C148.77 201.841 164.465 205.581 176.962 211.61C180.253 213.198 183.213 214.901 185.978 216.643C199.549 225.347 208.403 239.213 214.363 256.676C215.291 259.38 216.149 262.249 217.018 265.166C222.883 285.277 221.814 305.365 229.719 320.073C231.048 322.497 232.437 324.707 234.051 326.772C239.945 334.231 247.87 339.374 257.905 341.832C265.918 343.771 275.995 342.529 285.382 341.116C287.643 340.779 289.895 340.394 292.04 339.979C304.062 337.803 315.94 335.149 327.912 334.551C353.162 333.305 378.8 341.899 398.35 358.501C404.405 363.652 409.832 369.481 414.476 375.967C434.049 403.137 439.38 440.349 427.647 471.709M-91.1357 44.7246C-70.1856 33.2828 -41.2838 32.0884 -17.8039 43.1234C1.54935 52.1751 16.4602 67.8033 31.0094 83.6532C35.1786 88.2082 39.2315 92.6846 43.3929 96.9377C61.652 116.015 78.461 130.213 90.1777 142.666C98.0821 151.101 103.769 159.055 108.958 167.308C111.137 170.731 113.508 174.876 116.42 179.472C120.259 185.456 125.497 192.132 133.915 197.736C146.6 206.308 162.366 209.63 175.109 215.105C178.47 216.528 181.548 218.057 184.391 219.682C198.531 227.668 208.197 241.024 214.577 258.304C215.553 260.998 216.5 263.799 217.417 266.708C223.575 286.762 221.904 306.612 228.939 321.792C230.083 324.303 231.383 326.58 232.87 328.771C238.285 336.626 245.884 342.44 255.77 345.433C263.672 347.848 273.787 346.801 283.184 345.437C285.445 345.1 287.697 344.715 289.852 344.348C301.833 342.231 313.615 339.343 325.608 338.589C350.744 337.011 376.431 345.342 396.041 361.73C402.126 366.774 407.554 372.603 412.237 379.031C431.879 406.036 437.25 443.19 425.439 474.412M-86.3646 40.108C-64.9615 29.4385 -36.4135 28.7679 -12.932 39.5497C6.44166 48.4457 21.7158 63.5988 36.246 79.3512C40.4059 83.8575 44.4682 88.3826 48.4927 92.7128C66.4389 112.003 82.3452 127.286 92.9816 141.213C100.16 150.598 105.032 159.57 109.308 168.859C111.067 172.718 112.967 177.307 115.556 182.32C118.885 188.808 123.71 195.968 131.972 201.805C144.421 210.726 160.228 213.736 173.306 218.59C176.736 219.848 179.931 221.203 182.893 222.653C197.602 229.922 208.021 242.727 214.927 259.855C216.002 262.53 216.997 265.322 217.905 268.182C224.394 288.121 222.091 307.841 228.306 323.483C229.312 326.071 230.485 328.474 231.835 330.742C236.77 338.994 243.995 345.486 253.741 349.063C261.524 351.907 271.638 351.112 281.092 349.788C283.354 349.451 285.566 349.124 287.711 348.708C299.644 346.6 311.349 343.575 323.305 342.627C348.374 340.707 374.121 348.825 393.742 365.008C399.818 370.003 405.333 375.765 410.007 382.144C429.758 408.926 435.119 446.031 423.241 477.165M-81.5934 35.4914C-59.7767 25.6524 -31.5527 25.3986 -8.01143 35.9665C11.3732 44.658 26.9713 59.3943 41.4922 75.0979C45.652 79.6042 49.6561 84.0901 53.6413 88.4784C71.3328 108.02 86.239 124.408 95.8831 139.74C102.383 150.066 106.49 160.046 109.766 170.44C111.094 174.685 112.582 179.759 114.739 185.159C117.569 192.199 121.924 199.804 130.037 205.923C142.251 215.193 158.147 217.883 171.463 222.134C174.971 223.276 178.236 224.465 181.316 225.74C196.585 232.244 207.815 244.538 215.151 261.531C216.264 264.149 217.309 266.931 218.323 269.821C225.154 289.694 222.2 309.186 227.603 325.339C228.463 327.955 229.509 330.484 230.731 332.878C235.187 341.526 242.086 348.689 251.683 352.8C259.346 356.072 269.507 355.521 278.932 354.303C281.203 354.015 283.406 353.64 285.56 353.273C297.493 351.165 309.112 347.955 320.99 346.869C345.993 344.608 371.752 352.521 391.481 368.481C397.596 373.418 403.102 379.131 407.815 385.452C427.683 412.059 433.035 449.115 421.08 480.113M-76.8223 30.8748C-54.5432 21.8569 -26.6824 22.0781 -3.13957 32.3927C16.3143 40.9191 32.2268 55.1898 46.7288 70.7959C50.8792 75.2534 54.8928 79.788 58.7805 84.1953C76.159 103.949 90.1232 121.48 98.7263 138.229C104.5 149.505 107.85 160.542 110.156 171.933C111.102 176.555 112.129 182.124 113.914 187.95C116.243 195.542 120.177 203.583 128.084 209.943C140.013 219.572 156.048 221.931 169.601 225.58C173.179 226.557 176.562 227.571 179.719 228.731C195.606 234.508 207.6 246.299 215.355 263.111C216.566 265.709 217.65 268.433 218.713 271.313C225.925 291.062 222.29 310.433 226.823 327.059C227.546 329.751 228.455 332.358 229.55 334.877C233.526 343.922 240.061 351.813 249.508 356.459C257.052 360.158 267.26 359.851 276.694 358.682C278.965 358.394 281.178 358.067 283.323 357.652C295.207 355.553 306.748 352.206 318.647 350.965C343.535 348.372 369.354 356.071 389.143 371.817C395.297 376.696 400.842 382.351 405.546 388.623C425.523 415.007 430.875 452.063 418.891 482.914M-72.0511 26.2582C-49.3678 18.022 -21.7728 18.6994 1.73229 28.819C21.1972 37.1409 37.4824 50.9853 51.9749 66.5426C56.1253 71.0002 60.0807 75.4955 63.9291 79.9609C81.0041 99.9758 94.0563 118.544 101.579 136.766C106.626 148.992 109.269 161.076 110.614 173.513C111.177 178.514 111.695 184.585 113.098 190.789C114.927 198.933 118.439 207.409 126.141 214.012C137.843 224.039 153.9 225.99 167.797 229.066C171.444 229.877 174.945 230.717 178.172 231.711C194.619 236.722 207.375 248.012 215.609 264.68C216.868 267.269 218.05 269.975 219.103 272.806C226.598 292.45 222.37 311.631 226.082 328.719C226.669 331.489 227.441 334.173 228.399 336.77C231.895 346.21 238.105 354.771 247.402 359.952C254.827 364.08 265.082 364.016 274.535 362.945C276.806 362.657 279.019 362.33 281.124 361.973C292.969 359.933 304.463 356.341 316.285 354.963C341.107 352.029 366.985 359.514 386.785 375.056C392.93 379.886 398.505 385.434 403.258 391.697C423.304 417.915 428.695 454.913 416.634 485.627M-67.3381 21.6023C-44.1924 14.1872 -16.9701 15.2908 6.54596 25.2059C26.0313 33.3721 42.631 46.7509 57.1534 62.2013C61.3526 66.6494 65.2592 71.1541 69.0101 75.6384C85.8209 95.8563 97.8823 115.577 104.413 135.205C108.782 148.372 110.62 161.523 110.995 174.957C111.136 180.393 111.233 186.9 112.214 193.54C113.495 202.246 116.585 211.158 124.178 217.984C135.645 228.36 151.791 229.989 165.926 232.463C169.642 233.11 173.222 233.833 176.567 234.653C193.573 238.898 207.102 249.735 215.794 266.162C217.142 268.683 218.372 271.379 219.475 274.201C227.31 293.779 222.49 312.772 225.283 330.341C225.733 333.188 226.369 335.949 227.199 338.671C230.255 348.45 236.1 357.739 245.209 363.513C252.523 368.117 262.825 368.298 272.23 367.236C274.51 366.997 276.723 366.67 278.828 366.313C290.625 364.282 302.042 360.554 313.825 358.981C338.582 355.705 364.461 362.937 384.37 378.255C390.554 383.027 396.12 388.526 400.96 394.722C421.124 420.765 426.497 457.666 414.368 488.292M-62.567 16.9857C-39.0076 10.4011 -12.0998 11.9703 11.4666 21.6227C30.9629 29.5844 47.9353 42.537 62.4388 57.8898C66.6285 62.2892 70.4864 66.8034 74.198 71.3459C90.6959 91.776 101.913 112.622 107.305 133.684C110.996 147.792 112.087 162.048 111.433 176.441C111.193 182.254 110.828 189.255 111.428 196.272C112.199 205.481 114.878 214.878 122.265 221.946C133.495 232.672 149.722 233.931 164.104 235.851C167.938 236.323 171.586 236.882 175 237.536C192.567 241.015 206.907 251.341 216.077 267.625C217.474 270.137 218.743 272.774 219.943 275.577C228.111 295.04 222.648 313.854 224.631 331.935C224.944 334.859 225.394 337.706 226.146 340.545C228.722 350.72 234.202 360.737 243.2 366.988C250.395 372.02 260.696 372.454 270.168 371.48C272.4 371.25 274.612 370.923 276.718 370.566C288.514 368.535 299.845 364.621 311.6 362.902C336.251 359.343 362.181 366.312 382.15 381.417C388.373 386.131 393.978 391.571 398.809 397.718C419.082 423.538 424.454 460.439 412.248 490.928M-57.7958 12.3692C-33.7741 6.60552 -7.22949 8.64976 16.3384 18.049C35.8552 25.8549 53.1909 38.3325 67.6849 53.6366C71.8746 58.0359 75.7325 62.5501 79.3467 67.1115C95.541 87.8028 105.807 109.743 110.206 132.212C113.171 147.269 113.505 162.583 111.94 178.012C111.278 184.261 110.443 191.707 110.67 199.15C110.941 208.912 113.149 218.753 120.379 226.055C131.325 237.139 147.641 238.077 162.358 239.376C166.271 239.732 170.028 240.067 173.569 240.595C191.745 243.299 206.856 253.171 216.447 269.273C217.941 271.766 219.259 274.395 220.45 277.149C228.959 296.546 222.903 315.17 223.967 333.732C224.143 336.733 224.457 339.658 225.081 342.622C227.178 353.194 232.332 363.882 241.142 370.725C248.169 376.194 258.566 376.862 268.047 375.937C270.278 375.708 272.501 375.429 274.606 375.072C286.354 373.051 297.607 369 309.325 367.086C333.91 363.186 359.899 369.941 379.879 384.841C386.083 389.457 391.737 394.888 396.608 400.977C416.949 426.632 422.361 463.475 410.137 493.867M-53.0246 7.75257C-28.55 2.76122 -2.36863 5.28049 21.2103 14.4752C40.7475 22.1255 58.3977 34.1374 72.9216 49.3346C77.1019 53.6852 80.911 58.2088 84.4953 62.8771C100.425 83.7713 109.7 106.865 113.059 130.749C115.298 146.757 114.885 163.176 112.339 179.553C111.305 186.229 109.99 194.071 109.796 201.95C109.567 212.264 111.354 222.541 118.377 230.085C129.097 241.567 145.493 242.136 160.447 242.832C164.429 243.022 168.256 243.192 171.925 243.595C190.66 245.532 206.534 254.903 216.603 270.862C218.136 273.297 219.552 275.906 220.791 278.651C229.583 297.942 222.993 316.418 223.187 335.452C223.217 338.481 223.412 341.58 223.9 344.622C225.566 355.58 230.297 366.957 239.016 374.375C245.923 380.271 256.367 381.183 265.809 380.316C268.05 380.135 270.263 379.808 272.369 379.451C284.067 377.439 295.283 373.194 306.933 371.191C331.452 366.95 357.453 373.501 377.492 388.187C383.735 392.745 389.428 398.118 394.29 404.158C414.749 429.638 420.151 466.432 407.85 496.687M-48.3022 3.14542C-2.73708 -4.46211 46.1191 11.7269 78.1096 45.042C113.845 82.2862 122.663 132.026 112.681 181.056C109.376 197.428 104.267 220.422 116.376 234.114C129.645 249.099 152.465 245.49 170.27 246.546C192.485 247.91 211.317 259.491 221.123 280.104C231.708 302.387 220.252 323.424 222.651 346.533C223.838 357.888 228.243 369.934 236.764 377.896C245.159 385.731 259.193 385.594 270.024 383.8C281.683 381.847 292.813 377.415 304.474 375.208C336.492 369.212 371.385 381.983 391.904 407.25C412.472 432.507 417.865 469.252 405.496 499.419M-52.2054 5.97516C-28.9731 1.88198 -4.91954 3.5991 17.5333 10.6343C39.5001 17.5106 59.9748 29.4816 76.1658 45.9748C88.5053 58.509 97.7184 72.6603 103.906 87.9033C109.777 102.297 112.926 117.521 113.698 133.003C114.278 144.627 113.466 156.369 111.601 168.162C110.831 173.067 109.856 177.96 108.735 182.882C107.325 188.922 105.685 195.866 104.823 202.913C103.308 214.942 103.892 227.628 111.56 236.413C119.867 245.883 132.222 248.044 144.548 248.49C151.831 248.75 159.098 248.405 165.768 248.631C171.785 248.883 177.574 249.786 182.998 251.417C195.246 255.116 205.797 262.331 213.355 273.16C214.813 275.205 216.153 277.424 217.357 279.72C223.931 292.258 223.26 304.731 222.002 317.571C221.089 326.702 219.893 335.938 220.953 345.597C220.97 345.948 221.036 346.289 221.054 346.64C222.446 357.752 226.737 369.467 235.064 377.214C240.738 382.489 248.918 384.244 256.962 384.255C261.11 384.261 265.262 383.761 269.016 383.034C273.267 382.262 277.442 381.099 281.598 379.84C289.004 377.596 296.246 375.031 303.706 373.334C312.522 371.323 321.554 370.688 330.471 371.288C346.922 372.403 363.161 377.909 376.765 387.568C382.68 391.735 388.045 396.716 392.714 402.287C394.502 404.471 396.202 406.721 397.765 409.049C414.828 434.226 418.378 468.242 406.499 496.24M-56.1667 8.76558C-32.6796 4.42073 -8.41855 5.64238 14.3488 12.212C36.5908 18.6809 57.6127 30.3436 74.145 46.7707C86.7282 59.2578 96.1552 73.4688 102.311 89.072C108.123 103.679 111.017 119.155 111.301 134.732C111.492 146.431 110.27 158.151 107.987 169.874C107.061 174.758 105.931 179.631 104.654 184.532C103.049 190.61 101.253 197.534 100.245 204.609C98.5254 216.627 98.8641 229.613 106.61 238.534C114.887 248.112 127.456 250.332 139.763 250.681C147.085 250.883 154.382 250.431 161.072 250.502C167.11 250.597 172.87 251.354 178.345 252.722C190.644 255.906 201.287 262.546 209.189 272.803C210.726 274.731 212.145 276.834 213.436 279.063C220.422 291.116 220.424 303.408 219.566 316.221C218.955 325.344 217.972 334.64 219.081 344.29C219.099 344.641 219.165 344.982 219.231 345.323C220.681 356.475 224.903 368.355 233.289 376.141C239.089 381.544 247.433 383.368 255.653 383.244C259.89 383.182 264.09 382.673 267.932 381.878C272.262 380.989 276.525 379.759 280.711 378.392C288.186 375.984 295.478 373.156 302.98 371.147C311.827 368.777 320.823 367.693 329.761 367.884C346.266 368.23 362.891 372.853 377.012 382.31C383.112 386.39 388.681 391.382 393.516 397.023C395.353 399.197 397.111 401.487 398.732 403.854C416.368 429.376 419.95 464.346 407.494 492.759M-60.1186 11.6048C-36.4255 7.01768 -11.9081 7.73442 11.1831 13.8872C33.7397 19.8905 55.2208 31.3125 72.1431 47.6642C84.9606 60.0553 94.5717 74.433 100.745 90.3869C106.497 105.208 109.088 120.945 108.933 136.607C108.782 148.372 107.094 160.031 104.402 171.731C103.271 176.604 102.043 181.496 100.611 186.377C98.8106 192.492 96.8592 199.396 95.7147 206.548C93.7903 218.556 93.9419 231.881 101.658 240.91C109.944 250.536 122.687 252.874 135.025 253.116C142.386 253.259 149.713 252.701 156.424 252.616C162.481 252.556 168.253 253.108 173.699 254.33C186.06 257.046 196.823 263.006 205.08 272.739C206.656 274.609 208.153 276.595 209.533 278.756C216.931 290.325 217.606 302.436 217.147 315.223C216.838 324.338 216.069 333.693 217.285 343.373C217.352 343.714 217.369 344.065 217.435 344.406C218.992 355.588 223.038 367.603 231.54 375.468C237.514 380.989 246.015 382.833 254.381 382.681C258.715 382.6 262.945 381.984 266.875 381.122C271.293 380.165 275.586 378.828 279.793 377.306C287.327 374.683 294.67 371.592 302.163 369.282C310.994 366.56 320.011 365.068 329.011 364.792C345.609 364.31 362.579 368.107 377.218 377.363C383.504 381.357 389.277 386.36 394.277 392.07C396.221 394.273 397.988 396.612 399.659 398.97C417.876 424.885 421.482 460.761 408.44 489.541M-64.0705 14.4439C-40.1132 9.65395 -15.4465 9.8359 8.00807 15.5136C30.8398 21.1096 52.8682 32.2233 70.1805 48.4994C83.2418 60.8433 93.0761 75.3296 99.1598 91.6044C104.852 106.64 107.188 122.628 106.536 138.335C106.044 150.167 103.84 161.773 100.837 173.433C99.5506 178.286 98.1182 183.167 96.5882 188.066C94.6416 194.21 92.4371 201.112 91.195 208.283C89.0662 220.28 88.9724 233.906 96.7653 243.071C105.013 252.755 117.979 255.202 130.298 255.347C137.698 255.432 145.006 254.776 151.786 254.525C157.815 254.319 163.607 254.715 169.104 255.675C181.468 257.884 192.371 263.26 200.972 272.421C202.627 274.175 204.212 276.094 205.67 278.138C213.422 289.183 214.78 301.162 214.77 313.912C214.762 323.02 214.159 332.444 215.482 342.154C215.548 342.495 215.565 342.846 215.631 343.187C217.256 354.457 221.223 366.589 229.725 374.453C235.825 380.102 244.491 382.016 252.994 381.786C257.377 381.696 261.744 381.002 265.704 380.033C270.151 378.97 274.523 377.516 278.769 375.936C286.363 373.099 293.756 369.746 301.251 367.182C310.113 364.1 319.094 362.159 328.165 361.465C344.865 360.205 362.172 363.127 377.269 372.143C383.79 376.04 389.719 381.064 394.883 386.843C396.886 389.086 398.751 391.406 400.44 393.861C419.19 420.179 422.859 456.903 409.249 486.147M-68.0318 17.2344C-43.8686 12.2021 -18.9455 11.8792 4.83298 17.1401C27.9399 22.3286 50.5156 33.1341 68.1691 49.3441C81.4742 61.6408 91.5224 76.1869 97.5747 92.8219C103.207 108.071 105.288 124.311 104.149 140.113C103.267 152.02 100.654 163.604 97.2324 175.194C95.7905 180.026 94.2024 184.886 92.468 189.775C90.3263 195.956 87.9661 202.838 86.5778 210.037C84.2933 222.013 83.9055 235.949 91.7266 245.261C99.9347 255.003 113.115 257.51 125.433 257.654C132.825 257.69 140.211 256.918 147.012 256.512C153.061 256.15 158.874 256.391 164.381 257.146C176.807 258.888 187.831 263.583 196.737 272.229C198.47 273.866 200.134 275.669 201.632 277.656C209.796 288.216 211.778 300.024 212.215 312.737C212.51 321.837 212.12 331.321 213.502 341.07C213.568 341.412 213.585 341.762 213.651 342.104C215.383 353.403 219.222 365.661 227.792 373.613C234.009 379.34 242.849 381.372 251.538 381.056C256.009 380.899 260.424 380.195 264.472 379.159C269.008 378.028 273.41 376.467 277.725 374.721C285.427 371.662 292.831 368.104 300.358 365.18C309.26 361.787 318.205 359.397 327.347 358.285C344.139 356.197 361.851 358.333 377.407 367.108C384.113 370.919 390.247 375.954 395.567 381.753C397.618 383.986 399.551 386.395 401.338 388.831C420.66 415.493 424.362 453.172 410.166 482.782M-71.9838 20.0736C-47.5657 14.7897 -22.4838 13.9807 1.65791 18.7665C25.0794 23.4895 48.1048 34.0055 66.1672 50.2376C79.716 62.4871 89.9388 77.1511 95.9989 94.0881C101.523 109.561 103.349 126.053 101.771 141.939C100.548 153.912 97.4679 165.435 93.6374 177.002C92.0399 181.814 90.296 186.654 88.4154 191.571C86.0693 197.741 83.5723 204.7 82.0377 211.928C79.5393 223.844 78.9644 238.12 86.8044 247.529C94.9731 257.329 108.377 259.945 120.725 259.982C128.156 259.96 135.572 259.081 142.402 258.568C148.433 258.108 154.247 258.096 159.814 258.637C172.243 259.873 183.456 263.975 192.707 272.048C194.479 273.627 196.222 275.314 197.856 277.223C206.383 287.308 209.087 298.926 209.924 311.613C210.521 320.704 210.345 330.249 211.784 340.037C211.85 340.378 211.868 340.729 211.934 341.07C213.724 352.409 217.445 364.842 226.064 372.785C232.455 378.629 241.451 380.682 250.286 380.337C254.854 380.161 259.3 379.351 263.436 378.247C268.05 376.999 272.491 375.38 276.836 373.528C284.599 370.254 292.053 366.433 299.581 363.256C308.466 359.512 317.482 356.704 326.587 355.144C343.424 352.238 361.529 353.539 377.555 362.122C384.495 365.837 390.784 370.892 396.27 376.761C398.379 379.033 400.361 381.432 402.215 383.956C422.119 411.012 425.845 449.597 411.072 479.622M-75.8963 22.8545C-51.2723 17.3284 -25.9341 16.0145 -1.51717 20.393C22.1795 24.7086 45.7521 34.9163 64.1558 51.0823C77.9484 63.2846 88.3458 78.0666 94.4232 95.3543C99.8872 111.041 101.459 127.784 99.4421 143.756C97.8779 155.795 94.34 167.305 90.0912 178.802C88.2892 183.603 86.3991 188.471 84.4021 193.309C81.861 199.517 79.2083 206.456 77.5762 213.702C74.8734 225.607 74.0532 240.184 81.9215 249.739C90.0996 259.588 103.678 262.322 116.007 262.262C123.487 262.23 130.875 261.204 137.774 260.526C143.826 259.911 149.66 259.743 155.189 260.089C167.679 260.858 178.965 264.288 188.569 271.838C190.42 273.3 192.251 274.919 193.915 276.721C202.845 286.273 206.231 297.759 207.468 310.419C208.366 319.503 208.404 329.107 209.902 338.934C209.968 339.276 209.985 339.626 210.051 339.968C211.9 351.346 215.552 363.943 224.228 371.926C230.746 377.898 239.906 380.02 248.927 379.588C253.535 379.354 258.127 378.516 262.302 377.353C266.955 376.048 271.466 374.264 275.889 372.294C283.712 368.807 291.216 364.724 298.785 361.235C307.702 357.131 316.681 353.875 325.857 351.896C342.796 348.212 361.238 348.638 377.781 357.019C384.907 360.648 391.401 365.714 397.051 371.652C399.219 373.964 401.258 376.402 403.161 378.917C423.648 406.365 427.388 445.808 412.047 476.297M-79.8482 25.6937C-54.9694 19.9159 -29.4331 18.0578 -4.69223 22.0194C19.3284 25.9182 43.3995 35.827 62.1445 51.9269C76.2201 64.0239 86.8015 78.9726 92.7893 96.5812C98.1936 112.482 99.5107 129.477 97.0062 145.543C95.0519 157.657 91.0957 169.097 86.4381 180.572C84.4804 185.352 82.4346 190.199 80.2913 195.066C77.5552 201.312 74.7468 208.23 72.9779 215.553C70.0707 227.448 69.0539 242.315 76.9017 252.026C85.0406 261.934 98.7934 264.785 111.201 264.609C118.72 264.519 126.138 263.386 133.058 262.552C139.081 261.791 144.926 261.418 150.516 261.55C163.009 261.812 174.473 264.601 184.383 271.636C186.312 272.983 188.222 274.485 189.974 276.22C199.267 285.297 203.336 296.65 205.021 309.274C206.221 318.35 206.463 327.965 208.019 337.832C208.085 338.173 208.151 338.514 208.178 338.914C210.133 350.322 213.61 363.055 222.403 371.116C229.046 377.215 238.411 379.348 247.529 378.898C252.234 378.645 256.866 377.748 261.119 376.469C265.851 375.047 270.45 373.196 274.855 371.129C282.785 367.418 290.301 363.13 297.862 359.339C306.81 354.875 315.763 351.22 325 348.774C342.032 344.262 360.82 343.862 377.88 352.043C385.191 355.585 391.89 360.662 397.705 366.669C399.921 368.971 402.019 371.449 403.981 374.003C425.039 401.796 428.812 442.193 412.885 473.049M-83.8001 28.5329C-58.7153 22.5129 -32.9714 20.1593 -7.85787 23.6947C16.4285 27.1373 41.0076 36.796 60.1426 52.8204C74.4619 64.8702 85.2666 79.9274 91.2136 97.8474C96.5581 113.962 97.5717 131.218 94.619 147.32C92.3235 159.501 87.9096 170.928 82.8825 182.322C80.769 187.082 78.5676 191.909 76.2686 196.755C73.3375 203.039 70.3734 209.937 68.4583 217.288C65.3953 229.162 64.0939 244.388 72.0094 254.187C80.1183 264.202 94.085 267.113 106.484 266.888C114.042 266.74 121.499 265.549 128.381 264.52C134.434 263.652 140.29 263.074 145.881 262.953C158.426 262.7 170.031 264.905 180.294 271.416C182.263 272.704 184.251 274.09 186.081 275.709C195.738 284.311 200.528 295.473 202.613 308.071C204.115 317.139 204.523 326.823 206.186 336.72C206.252 337.061 206.318 337.402 206.393 337.792C208.407 349.24 211.814 362.138 220.607 370.199C227.366 376.377 236.906 378.628 246.209 378.091C251.012 377.819 255.673 376.815 260.064 375.459C264.884 373.97 269.512 372.011 273.996 369.828C281.986 365.904 289.552 361.353 297.105 357.26C306.036 352.445 315.001 348.332 324.31 345.467C341.443 340.177 360.617 338.894 378.087 346.843C385.633 350.289 392.487 355.386 398.468 361.462C400.742 363.804 402.898 366.321 404.918 368.915C426.558 397.101 430.306 438.413 413.85 469.675M-87.7615 31.3233C-62.4219 25.0516 -36.4704 22.2026 -11.0424 25.2723C13.5679 28.2981 38.6456 37.658 58.1312 53.6651C72.6944 65.6677 83.7129 80.7847 89.6284 99.0649C94.9132 115.393 95.672 132.901 92.2318 149.098C89.5951 161.344 84.6654 172.72 79.2781 184.082C77.009 188.822 74.6518 193.629 72.2066 198.503C69.0805 204.825 65.9119 211.711 63.8993 219.082C60.6319 230.945 59.1339 246.461 67.029 256.416C75.0986 266.489 89.2792 269.46 101.668 269.186C109.266 268.98 116.704 267.691 123.655 266.497C129.729 265.473 135.557 264.75 141.207 264.414C153.765 263.703 165.539 265.218 176.108 271.215C178.155 272.387 180.222 273.656 182.15 275.256C192.16 283.334 197.682 294.355 200.166 306.926C201.97 315.986 202.592 325.73 204.312 335.666C204.379 336.007 204.454 336.397 204.52 336.739C206.592 348.226 209.871 361.249 218.781 369.389C225.715 375.685 235.371 378.014 244.86 377.391C249.751 377.051 254.51 376.029 258.94 374.615C263.79 373.018 268.496 370.943 273.01 368.653C281.06 364.515 288.627 359.711 296.279 355.346C305.242 350.171 314.18 345.658 323.511 342.385C340.737 336.267 360.256 334.157 378.245 341.905C385.976 345.265 393.083 350.364 399.18 356.519C401.512 358.9 403.717 361.407 405.795 364.04C428.018 392.62 431.78 434.789 414.746 466.466M-91.7134 34.1625C-66.1678 27.6486 -40.0088 24.304 -14.208 26.9476C10.6774 29.5659 36.2929 38.5688 56.178 54.5491C70.9849 66.5045 82.178 81.7395 88.1014 100.322C93.3265 116.864 93.8305 134.624 89.9028 150.914C86.8761 163.237 81.5375 174.59 75.7318 185.882C73.2583 190.61 70.7455 195.397 68.2027 200.29C64.8722 206.601 61.5668 213.564 59.4079 220.963C55.9361 232.815 54.1928 248.632 62.1649 258.724C70.244 268.845 84.5991 271.934 97.0182 271.553C104.655 271.289 112.104 269.796 119.095 268.544C125.159 267.471 131.028 266.436 136.64 265.906C149.259 264.727 161.155 265.561 172.028 271.044C174.154 272.099 176.26 273.31 178.316 274.784C188.689 282.387 194.884 293.227 197.816 305.762C199.922 314.814 200.758 324.618 202.537 334.593C202.603 334.935 202.679 335.325 202.745 335.666C204.923 347.183 208.085 360.381 216.994 368.521C224.054 374.944 233.915 377.285 243.541 376.584C248.48 376.235 253.327 375.145 257.836 373.614C262.774 371.95 267.51 369.768 272.102 367.362C280.222 363.058 287.839 357.992 295.474 353.276C304.468 347.741 313.428 342.819 322.771 339.088C340.051 332.201 359.965 329.256 378.461 336.754C386.427 340.018 393.689 345.137 399.952 351.361C402.342 353.782 404.606 356.328 406.732 358.952C429.527 387.876 433.322 431 415.663 463.102M-95.6747 36.9529C-69.865 30.2361 -43.5078 26.3473 -17.3925 28.5253C7.76814 30.7362 33.9309 39.4308 54.1572 55.345C69.2079 67.2532 80.6244 82.5967 86.4675 101.549C91.6328 118.305 91.8821 136.316 87.4669 152.701C84.0989 165.089 78.2932 176.382 72.0787 187.652C69.4495 192.359 66.7904 197.174 64.0825 201.998C60.5569 208.347 57.0959 215.289 54.7907 222.717C51.1145 234.558 49.1258 250.675 57.1168 260.865C65.1566 271.044 79.7351 274.242 92.1353 273.763C99.8113 273.441 107.261 271.948 114.311 270.482C120.386 269.204 126.236 268.072 131.908 267.328C144.53 265.643 156.614 265.883 167.832 270.794C170.037 271.733 172.231 272.876 174.316 274.243C185.053 281.371 191.97 292.021 195.301 304.529C197.71 313.573 198.759 323.437 200.596 333.451C200.662 333.793 200.738 334.183 200.804 334.524C203.05 346.129 206.124 359.395 215.101 367.623C222.286 374.174 232.312 376.583 242.075 375.806C247.112 375.438 251.998 374.289 256.595 372.691C261.621 370.959 266.387 368.671 271 366.108C279.228 361.581 286.847 356.261 294.483 351.293C303.46 345.406 312.433 340.027 321.846 335.877C339.219 328.164 359.479 324.393 378.444 331.699C386.595 334.876 394.062 340.006 400.48 346.251C402.968 348.653 405.29 351.238 407.435 353.959C430.812 383.276 434.63 427.307 416.394 459.824M-99.5779 39.7827C-73.5621 32.8236 -46.9486 28.4299 -20.5094 30.191C4.96578 31.9364 31.5877 40.3903 52.2041 56.2291C67.489 68.0413 79.1382 83.5421 84.9406 102.805C90.0461 119.775 89.9919 138.048 85.1379 154.518C81.4286 166.972 75.1654 178.252 68.5813 189.442C65.7963 194.129 62.9328 198.933 60.1274 203.776C56.4069 210.162 52.7901 217.084 50.3481 224.589C46.5162 236.409 44.2822 252.827 52.3015 263.163C60.302 273.401 75.1038 276.706 87.4945 276.179C95.2099 275.798 102.689 274.199 109.76 272.577C115.806 271.153 121.726 269.856 127.4 268.858C140.083 266.706 152.288 266.266 163.811 270.662C166.055 271.542 168.328 272.569 170.55 273.859C181.65 280.512 189.289 290.972 193.068 303.444C195.827 312.47 196.993 322.413 198.986 332.448C199.052 332.789 199.127 333.179 199.193 333.521C201.498 345.165 204.453 358.605 213.528 366.814C220.839 373.492 231.07 375.913 240.979 375.107C246.104 374.672 251.078 373.456 255.714 371.799C260.77 369.961 265.664 367.546 270.316 364.925C278.603 360.184 286.273 354.602 293.95 349.322C302.958 343.075 311.904 337.296 321.33 332.689C338.796 324.148 359.451 319.542 378.884 326.656C387.26 329.688 394.892 334.888 401.475 341.202C404.022 343.643 406.401 346.268 408.595 348.98C432.554 378.69 436.396 423.626 417.573 456.51M-103.53 42.6219C-77.2592 35.4111 -50.4869 30.5314 -23.6845 31.8175C2.06588 33.1555 29.2351 41.301 50.1927 57.0737C65.7214 68.8388 77.5845 84.3994 83.3554 104.023C88.4012 121.207 88.0922 139.731 82.7901 156.237C78.6908 168.767 72.0092 179.976 65.0162 191.144C62.0756 195.81 59.0563 200.594 56.0953 205.416C52.1797 211.84 48.4072 218.742 45.819 226.275C41.7732 238.036 39.3033 254.803 47.351 265.285C55.3121 275.581 70.3278 278.946 82.7578 278.361C90.5219 277.971 98.0312 276.264 105.113 274.438C111.189 272.907 117.061 271.366 122.756 270.213C135.491 267.545 147.778 266.481 159.655 270.353C161.977 271.118 164.329 272.028 166.59 273.26C178.053 279.438 186.365 289.717 190.593 302.152C193.663 311.22 195.033 321.173 197.075 331.199C197.151 331.589 197.217 331.93 197.292 332.32C199.703 343.995 202.532 357.561 211.625 365.867C219.102 372.615 229.458 375.163 239.552 374.271C244.726 373.825 249.788 372.542 254.503 370.769C259.647 368.863 264.571 366.341 269.243 363.565C277.59 358.61 285.32 352.814 292.989 347.231C302.038 340.674 310.948 334.446 320.435 329.372C338.003 320.052 358.994 314.572 378.896 321.494C387.458 324.439 395.294 329.65 402.043 336.033C404.647 338.514 407.076 341.129 409.328 343.88C433.859 373.935 437.725 419.777 418.334 453.125M-107.491 45.4123C-80.9658 37.9499 -53.986 32.5747 -26.8596 33.4439C-0.785249 34.3651 26.8824 42.2118 48.1908 57.9672C63.9633 69.6851 76.0497 85.3541 81.7797 105.289C86.8145 122.677 86.202 141.463 80.4123 158.063C75.9812 170.708 68.8231 181.807 61.4212 192.952C58.2761 197.608 55.15 202.362 52.0427 207.213C47.9226 213.625 44.004 220.556 41.3182 228.107C37.1167 239.848 34.411 256.964 42.4775 267.543C50.4575 277.937 65.6383 281.372 78.0495 280.689C85.8529 280.241 93.3433 278.436 100.494 276.445C106.591 274.759 112.484 273.061 118.18 271.655C130.927 268.529 143.393 266.824 155.614 270.124C158.016 270.772 160.455 271.615 162.795 272.73C174.622 278.433 183.655 288.522 188.283 300.93C191.655 309.99 193.229 319.954 195.339 330.068C195.414 330.458 195.48 330.8 195.556 331.19C198.025 342.903 200.736 356.644 209.936 364.98C217.538 371.855 228.099 374.414 238.34 373.494C243.611 373.03 248.713 371.688 253.515 369.847C258.747 367.873 263.701 365.245 268.452 362.352C276.908 357.174 284.639 351.124 292.3 345.24C301.332 338.332 310.254 331.647 319.822 326.203C337.482 316.055 358.819 309.749 379.229 316.421C387.976 319.28 396.018 324.502 402.931 330.954C405.584 333.425 408.08 336.129 410.391 338.919C435.504 369.367 439.393 416.115 419.416 449.83M-111.443 48.2515C-84.7117 40.5468 -57.5337 34.6274 -30.0834 35.0798C-3.74332 35.5449 24.4229 43.0927 46.1307 58.8213C62.1469 70.492 74.4566 86.2696 80.1065 106.574C85.0815 124.177 84.1655 143.223 77.9371 159.908C73.1647 172.619 65.5002 183.715 57.7287 194.78C54.4374 199.464 51.0974 204.158 47.8926 209.028C43.5775 215.478 39.5126 222.437 36.6806 230.017C32.2746 241.746 29.3236 259.163 37.4184 269.889C45.3591 280.341 60.7633 283.884 73.2043 283.094C80.9983 282.597 88.5673 280.676 95.7384 278.529C101.807 276.697 107.72 274.843 113.476 273.223C126.285 269.63 138.872 267.244 151.398 270.029C153.878 270.561 156.357 271.346 158.776 272.345C170.965 277.573 180.721 287.471 185.747 299.853C189.422 308.905 191.21 318.929 193.378 329.082C193.453 329.472 193.519 329.813 193.643 330.194C196.171 341.947 198.812 355.853 208.013 364.189C215.741 371.191 226.466 373.82 236.844 372.822C242.204 372.29 247.354 370.939 252.235 368.982C257.497 366.901 262.53 364.156 267.31 361.157C275.826 355.765 283.607 349.452 291.319 343.305C300.382 336.037 309.278 328.952 318.907 323.041C336.62 312.125 358.401 304.974 379.27 311.405C388.251 314.168 396.448 319.411 403.527 325.932C406.238 328.442 408.783 331.136 411.152 333.966C436.837 364.758 440.76 412.462 420.206 446.591M-115.404 51.0419C-88.4183 43.0856 -61.0328 36.6707 -33.2585 36.7063C-6.6432 36.7639 22.0703 44.0034 44.1193 59.666C60.3699 71.2407 72.9029 87.1269 78.5213 107.792C83.446 125.657 82.2659 144.906 75.5499 161.686C70.3875 174.472 62.3047 185.497 54.1243 196.54C50.6773 201.204 47.1816 205.877 43.8211 210.727C39.3111 217.215 35.0904 224.153 32.1122 231.761C27.5018 243.48 24.3542 261.188 32.4679 272.011C40.3693 282.521 55.9967 286.173 68.4283 285.334C76.2616 284.779 83.8605 282.751 91.052 280.448C97.1506 278.509 103.075 276.451 108.832 274.578C121.644 270.478 134.411 267.45 147.242 269.721C149.761 270.195 152.358 270.805 154.874 271.785C167.427 276.538 177.904 286.246 183.33 298.601C187.306 307.645 189.309 317.729 191.534 327.921C191.61 328.311 191.676 328.653 191.8 329.033C194.435 340.816 196.9 354.857 206.217 363.272C214.119 370.392 224.961 373.099 235.525 372.015C240.933 371.474 246.211 369.997 251.131 367.982C256.481 365.833 261.543 362.981 266.354 359.875C274.929 354.269 282.77 347.743 290.465 341.245C299.559 333.616 308.468 326.074 318.07 319.763C335.876 308.019 358.003 300.043 379.341 306.282C388.508 308.959 396.909 314.212 404.153 320.803C406.922 323.352 409.525 326.086 411.952 328.955C438.219 360.14 442.107 408.71 421.034 443.294M-119.356 53.8811C-92.1642 45.6825 -64.5223 38.7627 -36.4335 38.3327C-9.49432 37.9736 19.7177 44.9142 42.1567 60.5013C58.6998 72.0194 71.3586 88.0329 76.9849 109C81.8499 127.079 80.4149 146.58 73.2115 163.454C67.7078 176.306 59.1673 187.318 50.6174 198.282C47.0147 202.925 43.3633 207.578 39.8566 212.455C35.1515 218.982 30.7752 225.899 27.6602 233.585C22.894 245.282 19.4524 263.3 27.5944 274.269C35.4565 284.838 51.2585 288.608 63.72 287.662C71.5926 287.048 79.182 284.972 86.4427 282.504C92.513 280.418 98.448 278.156 104.216 276.078C117.09 271.512 129.977 267.803 143.114 269.559C145.712 269.916 148.347 270.468 150.942 271.332C163.858 275.61 175.018 285.186 180.893 297.504C185.171 306.541 187.338 316.694 189.671 326.916C189.746 327.306 189.861 327.638 189.937 328.028C192.63 339.85 195.025 354.057 204.391 362.462C212.41 369.661 223.466 372.428 234.175 371.315C239.681 370.755 244.998 369.22 250.007 367.137C255.435 364.872 260.586 361.953 265.417 358.69C274.1 352.861 281.943 346.082 289.678 339.272C298.755 331.293 307.686 323.342 317.349 316.564C335.249 303.993 357.721 295.19 379.576 301.228C388.978 303.809 397.535 309.083 404.943 315.742C407.762 318.283 410.423 321.056 412.908 323.964C439.757 355.543 443.669 405.018 422.009 439.969M-123.308 56.7203C-95.8613 48.27 -68.0607 40.8642 -39.5992 40.008C-12.3848 39.2414 17.3745 45.8737 40.1548 61.3947C56.9416 72.8656 69.8238 88.9877 75.4092 110.266C80.2144 128.559 78.476 148.321 70.8243 165.231C64.9794 178.15 55.9719 189.101 47.0131 200.042C43.2059 204.674 39.4082 209.355 35.7851 214.154C30.8756 220.669 26.353 227.615 23.0917 235.329C18.1212 247.016 14.4342 265.334 22.6045 276.45C30.476 287.067 46.4431 290.906 58.944 289.902C66.8559 289.23 74.4752 287.047 81.7564 284.423C87.8565 282.23 93.8025 279.764 99.5819 277.481C112.458 272.409 125.525 268.058 139.015 269.29C141.692 269.531 144.416 270.015 147.089 270.763C160.369 274.566 172.299 283.941 178.524 296.243C183.153 305.262 185.486 315.484 187.876 325.746C187.952 326.136 188.076 326.517 188.142 326.858C190.903 338.768 193.21 353.042 202.595 361.545C210.74 368.872 221.961 371.707 232.856 370.508C238.45 369.881 243.815 368.336 248.952 366.128C254.419 363.804 259.648 360.768 264.509 357.399C273.253 351.356 281.145 344.314 288.883 337.251C297.991 328.912 306.895 320.561 316.62 313.316C334.621 299.966 357.43 290.289 379.754 296.135C389.341 298.63 398.102 303.914 405.676 310.643C408.553 313.223 411.272 316.035 413.805 318.934C441.227 350.857 445.172 401.287 422.935 436.653M-127.221 59.5012C-99.5679 50.8088 -71.5109 42.898 -42.7349 41.5762C-15.206 40.344 15.003 46.687 38.1922 62.23C55.2227 73.6537 68.3282 89.8843 73.8728 111.474C78.6182 129.981 76.625 149.994 68.5346 166.99C62.3485 179.974 52.8833 190.913 43.5062 201.783C39.5433 206.395 35.5899 211.056 31.8206 215.883C26.7161 222.436 22.0473 229.41 18.6303 237.103C13.504 248.77 9.57168 267.388 17.7703 278.65C25.6025 289.325 41.793 293.273 54.2749 292.172C62.2356 291.491 69.8266 289.161 77.1769 286.372C83.2975 284.023 89.2152 281.411 95.0449 278.866C107.983 273.326 121.171 268.294 134.966 269.012C137.721 269.136 140.484 269.563 143.246 270.242C156.888 273.57 169.492 282.765 176.165 295.03C181.096 304.041 183.642 314.324 186.082 324.576C186.158 324.966 186.282 325.346 186.348 325.688C189.215 337.628 191.356 352.086 200.848 360.619C209.118 368.072 220.544 370.919 231.527 369.653C237.218 369.006 242.672 367.394 247.847 365.127C253.394 362.688 258.653 359.545 263.592 356.059C272.405 349.851 280.348 342.546 288.068 335.133C297.208 326.433 306.075 317.634 315.871 309.97C333.916 295.803 357.169 285.281 379.952 290.886C389.724 293.294 398.69 298.59 406.42 305.339C409.403 307.949 412.171 310.751 414.724 313.748C442.727 346.064 446.696 397.401 423.872 433.133M-131.173 62.3404C-103.256 53.445 -75.0493 44.9995 -45.9006 43.2514C-18.0965 41.6119 12.6598 47.6465 36.1903 63.1234C53.4646 74.5 66.784 90.7903 72.2577 112.798C76.9435 131.519 74.6955 151.784 66.1176 168.874C59.5414 181.934 49.6579 192.802 39.8719 203.65C35.7534 208.242 31.5955 212.891 27.7192 217.689C22.4103 224.231 17.5952 231.233 14.0414 239.004C8.76889 250.698 4.54251 269.627 12.76 280.986C20.5529 291.719 36.9667 295.776 49.4392 294.626C57.4392 293.886 65.0695 291.498 72.4308 288.505C78.5325 286.059 84.5006 283.184 90.3506 280.483C103.292 274.436 116.659 268.762 130.759 268.967C133.544 268.984 136.435 269.284 139.284 269.896C153.3 272.798 166.616 281.754 173.688 293.992C178.921 302.996 181.681 313.337 184.179 323.629C184.255 324.019 184.379 324.4 184.454 324.79C187.38 336.769 189.442 351.343 198.992 359.916C207.437 367.487 218.979 370.413 230.148 369.06C235.878 368.355 241.42 366.675 246.684 364.341C252.318 361.833 257.607 358.584 262.576 354.991C271.449 348.569 279.393 341.011 287.212 333.325C296.335 324.275 305.224 315.067 315.042 306.994C333.189 292.048 356.788 280.701 380.079 286.056C390.086 288.368 399.207 293.684 407.102 300.503C410.134 303.102 412.97 305.993 415.571 308.98C444.157 341.69 448.139 393.884 424.748 430.08M-135.134 65.1308C-107.011 55.9932 -78.5483 47.0428 -49.0851 44.8291C-20.957 42.7727 10.2978 48.5085 34.1695 63.9194C51.6781 75.1999 65.1815 91.657 70.6631 113.967C75.2891 132.902 72.7376 153.428 63.7209 170.603C56.8035 183.729 46.4136 194.593 36.2581 205.362C31.9838 209.933 27.6703 214.562 23.6477 219.388C18.1438 225.967 13.173 232.949 9.52173 240.739C4.03534 252.373 -0.378156 271.642 7.86769 283.147C15.6307 293.988 32.2583 298.104 44.7607 296.847C52.8 296.049 60.4602 293.554 67.842 290.405C73.9641 287.803 79.9038 284.782 85.7554 281.828C98.7577 275.314 112.246 268.959 126.7 268.64C129.573 268.589 132.494 268.783 135.422 269.278C149.81 271.753 163.838 280.47 171.31 292.682C176.845 301.677 179.761 312.04 182.424 322.4C182.499 322.791 182.624 323.171 182.699 323.561C185.732 335.57 187.627 350.329 197.235 358.94C205.806 366.64 217.504 369.585 228.867 368.195C234.696 367.471 240.277 365.733 245.619 363.282C251.293 360.717 256.66 357.351 261.699 353.593C270.68 346.947 278.626 339.136 286.437 331.148C295.591 321.738 304.502 312.121 314.332 303.59C332.573 287.817 356.517 275.644 380.277 280.807C390.469 283.033 399.795 288.36 407.855 295.247C410.945 297.887 413.83 300.768 416.489 303.794C445.647 336.848 449.663 389.997 425.695 426.609M-139.086 67.97C-110.708 58.5808 -82.0378 49.1348 -52.2507 46.5043C-3.06363 42.192 56.2507 61.7184 69.0874 115.233C73.6536 134.382 70.8474 155.16 61.3338 172.38C54.0751 185.573 43.2181 196.376 32.7024 207.112C22.1379 217.859 11.6002 229.005 4.96274 242.532C-0.728096 254.156 -5.38692 273.724 2.8778 285.328C10.6502 296.217 27.4525 300.451 39.936 299.096C54.6605 297.561 68.0181 290.27 81.0722 283.24C94.1263 276.211 107.696 269.233 122.504 268.39C139.913 267.397 159.332 276.79 168.854 291.488C174.903 300.789 178.069 311.659 180.817 322.459C183.908 334.507 185.734 349.431 195.39 358.033C204.078 365.811 215.999 368.865 227.499 367.397C239.692 365.846 250.909 359.779 260.703 352.369C280.37 337.432 295.172 316.962 313.515 300.41C331.857 283.858 356.138 270.81 380.415 275.772C394.79 278.705 407.521 287.775 417.357 298.871C447.097 332.319 451.137 386.373 426.582 423.351" stroke="url(#paint0_linear_10306_62354)" stroke-width="2" stroke-miterlimit="10"/>
<defs>
<linearGradient id="paint0_linear_10306_62354" x1="-32.7153" y1="120.329" x2="393.747" y2="335.604" gradientUnits="userSpaceOnUse">
<stop stop-color="#3454FF"/>
<stop offset="1" stop-color="#7700C6"/>
</linearGradient>
</defs>
</svg>
