<svg width="80" height="80" viewBox="0 0 80 80" fill="none" xmlns="http://www.w3.org/2000/svg">
<rect width="80" height="80" rx="40" fill="#0057FF"/>
<path d="M24 60C22.9 60 21.9583 59.6083 21.175 58.825C20.3917 58.0417 20 57.1 20 56V34C20 32.9 20.3917 31.9583 21.175 31.175C21.9583 30.3917 22.9 30 24 30H34V24C34 22.9 34.3917 21.9583 35.175 21.175C35.9583 20.3917 36.9 20 38 20H42C43.1 20 44.0417 20.3917 44.825 21.175C45.6083 21.9583 46 22.9 46 24V30H56C57.1 30 58.0417 30.3917 58.825 31.175C59.6083 31.9583 60 32.9 60 34V56C60 57.1 59.6083 58.0417 58.825 58.825C58.0417 59.6083 57.1 60 56 60H24ZM28 52H40V51.1C40 50.5333 39.8417 50.0083 39.525 49.525C39.2083 49.0417 38.7667 48.6667 38.2 48.4C37.5333 48.1 36.8583 47.875 36.175 47.725C35.4917 47.575 34.7667 47.5 34 47.5C33.2333 47.5 32.5083 47.575 31.825 47.725C31.1417 47.875 30.4667 48.1 29.8 48.4C29.2333 48.6667 28.7917 49.0417 28.475 49.525C28.1583 50.0083 28 50.5333 28 51.1V52ZM44 49H52V46H44V49ZM34 46C34.8333 46 35.5417 45.7083 36.125 45.125C36.7083 44.5417 37 43.8333 37 43C37 42.1667 36.7083 41.4583 36.125 40.875C35.5417 40.2917 34.8333 40 34 40C33.1667 40 32.4583 40.2917 31.875 40.875C31.2917 41.4583 31 42.1667 31 43C31 43.8333 31.2917 44.5417 31.875 45.125C32.4583 45.7083 33.1667 46 34 46ZM44 43H52V40H44V43ZM38 34H42V24H38V34Z" fill="white"/>
</svg>
