<svg width="24" height="24" viewBox="0 0 24 24" fill="none" xmlns="http://www.w3.org/2000/svg">
<path d="M18.4007 8.00527C18.5301 7.20834 18.592 6.50923 18.628 5.96691L11.721 3.86094L4.81988 5.96691C4.99535 8.76624 6.01945 15.6279 11.721 19.6485C14.0181 18.0245 15.56 15.9429 16.5898 13.8485H10.4078V10.153H21.7851C20.8746 14.3491 18.546 19.9276 12.6689 23.4361L11.7225 24L10.7804 23.4361C0.588277 17.3556 1.07444 5.04052 1.10033 4.51834L1.16218 3.22513L11.721 0L22.2857 3.22369L22.3475 4.5169C22.3576 4.68233 22.4093 6.03884 22.1562 8.00384H18.4007V8.00527Z" fill="#0057FF"/>
</svg>
