<svg width="80" height="80" viewBox="0 0 80 80" fill="none" xmlns="http://www.w3.org/2000/svg">
<rect width="80" height="80" rx="40" fill="#0057FF"/>
<path d="M38.4 32.75L45.4 20.75C48.4333 21.55 51.125 23.0167 53.475 25.15C55.825 27.2833 57.5333 29.8167 58.6 32.75H38.4ZM32.85 37.75L26 25.75C27.8 23.9833 29.8917 22.5833 32.275 21.55C34.6583 20.5167 37.2333 20 40 20C40.4333 20 40.9333 20.025 41.5 20.075C42.0667 20.125 42.5833 20.1833 43.05 20.25L32.85 37.75ZM20.65 45C20.45 44.2 20.2917 43.3833 20.175 42.55C20.0583 41.7167 20 40.8667 20 40C20 37.6333 20.3833 35.4 21.15 33.3C21.9167 31.2 23 29.2833 24.4 27.55L34.5 45H20.65ZM34.65 59.25C31.6167 58.45 28.9167 56.9833 26.55 54.85C24.1833 52.7167 22.4667 50.1833 21.4 47.25H41.55L34.65 59.25ZM40 60C39.5 60 38.9917 59.9667 38.475 59.9C37.9583 59.8333 37.4667 59.7667 37 59.7L47.15 42.25L54 54.25C52.2 56.0167 50.1083 57.4167 47.725 58.45C45.3417 59.4833 42.7667 60 40 60ZM55.6 52.45L45.5 35H59.35C59.55 35.8 59.7083 36.6167 59.825 37.45C59.9417 38.2833 60 39.1333 60 40C60 42.3333 59.5917 44.5667 58.775 46.7C57.9583 48.8333 56.9 50.75 55.6 52.45Z" fill="white"/>
</svg>
