<svg width="221" height="35" viewBox="0 0 221 35" fill="none" xmlns="http://www.w3.org/2000/svg">
<g clip-path="url(#clip0_12982_126359)">
<path d="M217.001 8.0258C218.956 8.0258 220.541 6.44089 220.541 4.4858C220.541 2.53071 218.956 0.945801 217.001 0.945801C215.046 0.945801 213.461 2.53071 213.461 4.4858C213.461 6.44089 215.046 8.0258 217.001 8.0258Z" stroke="#002366" stroke-width="0.8"/>
<path d="M216.785 4.16598C217.005 4.16598 217.165 4.12198 217.261 4.03798C217.357 3.95798 217.409 3.82198 217.409 3.62998C217.409 3.44198 217.357 3.30998 217.261 3.22598C217.165 3.14598 217.005 3.10598 216.785 3.10598H216.337V4.16598H216.785ZM216.337 4.89798V6.45798H215.273V2.33398H216.897C217.441 2.33398 217.837 2.42598 218.089 2.60998C218.345 2.78998 218.469 3.07798 218.469 3.47398C218.469 3.74598 218.405 3.96998 218.273 4.14598C218.141 4.31798 217.945 4.44998 217.677 4.52998C217.825 4.56598 217.953 4.64198 218.069 4.75798C218.185 4.87398 218.301 5.04998 218.417 5.28998L218.997 6.45798H217.865L217.361 5.43398C217.261 5.22998 217.157 5.08598 217.053 5.01398C216.949 4.93798 216.809 4.89798 216.637 4.89798H216.337Z" fill="#002366"/>
</g>
<path d="M129.986 11.8266C130.17 10.6977 130.258 9.70725 130.309 8.93897L120.508 5.95551L110.715 8.93897C110.964 12.9047 112.417 22.6254 120.508 28.3213C123.767 26.0205 125.955 23.0717 127.417 20.1045H118.644V14.8692H134.789C133.497 20.8137 130.192 28.7166 121.853 33.687L120.51 34.4858L119.173 33.687C104.71 25.0729 105.4 7.62657 105.437 6.88682L105.525 5.05477L120.508 0.48584L135.499 5.05273L135.587 6.88479C135.601 7.11914 135.675 9.04086 135.315 11.8246H129.986V11.8266Z" fill="#0057FF"/>
<path d="M7.73145 10.3108H0V5.16309H21.0533V10.3087H13.3219V30.5306H7.73145V10.3108Z" fill="#002366"/>
<path d="M23.4102 4.07666H29.219V8.96961H23.4102V4.07666ZM23.5571 11.1073H29.074V30.5324H23.5571V11.1073Z" fill="#002366"/>
<path d="M41.9948 30.9685C40.5436 30.9685 39.1945 30.7015 37.9474 30.1717C36.7004 29.6398 35.6309 28.9204 34.7348 28.0156C33.8388 27.1087 33.1367 26.047 32.6285 24.8263C32.1203 23.6076 31.8672 22.3075 31.8672 20.9299V20.8585C31.8672 19.4809 32.1223 18.1767 32.6285 16.9438C33.1367 15.7109 33.8388 14.6369 34.7348 13.7178C35.6288 12.7987 36.7004 12.0753 37.9474 11.5434C39.1945 11.0115 40.5661 10.7466 42.0663 10.7466C43.9052 10.7466 45.4299 11.036 46.6402 11.6168C47.8506 12.1976 48.9139 12.9944 49.8344 14.0092L46.4586 17.6326C45.8299 16.9805 45.1809 16.4608 44.5155 16.0736C43.8501 15.6884 43.0215 15.4928 42.0295 15.4928C41.3274 15.4928 40.6926 15.6314 40.1252 15.9106C39.5558 16.1877 39.0598 16.5688 38.6373 17.0518C38.2128 17.5348 37.8862 18.0972 37.6576 18.7371C37.427 19.377 37.3127 20.0597 37.3127 20.7852V20.8565C37.3127 21.6044 37.427 22.3054 37.6576 22.9576C37.8862 23.6097 38.2209 24.1783 38.6557 24.6612C39.0925 25.1442 39.6109 25.5253 40.2171 25.8024C40.8212 26.0816 41.4988 26.2202 42.2499 26.2202C43.1684 26.2202 43.9746 26.0327 44.6645 25.6578C45.3544 25.2828 46.0381 24.7815 46.7157 24.1538L49.9467 27.4144C49.0037 28.4537 47.9261 29.3056 46.7157 29.9699C45.5013 30.6343 43.9297 30.9685 41.9948 30.9685Z" fill="#002366"/>
<path d="M52.0859 4.07666H57.6029V18.1747L64.0627 11.1073H70.6696L63.2647 18.7535L70.9227 30.5324H64.6077L59.5255 22.5949L57.6029 24.6246V30.5324H52.0859V4.07666Z" fill="#002366"/>
<path d="M81.342 30.9686C79.8908 30.9686 78.5417 30.7261 77.2946 30.2431C76.0476 29.7601 74.9719 29.0713 74.0637 28.1767C73.1554 27.2841 72.4492 26.2264 71.941 25.0057C71.4328 23.785 71.1797 22.4258 71.1797 20.9279V20.8566C71.1797 19.479 71.4164 18.1747 71.8879 16.9418C72.3594 15.7089 73.0187 14.6349 73.8677 13.7159C74.7148 12.7968 75.723 12.0733 76.8987 11.5414C78.0723 11.0096 79.3724 10.7446 80.8011 10.7446C82.4217 10.7446 83.826 11.034 85.0118 11.6148C86.1976 12.1956 87.1835 12.9741 87.9693 13.9523C88.7551 14.9304 89.3368 16.0533 89.7123 17.3229C90.0879 18.5905 90.2736 19.9151 90.2736 21.2907C90.2736 21.5087 90.2675 21.739 90.2552 21.9795C90.243 22.222 90.2246 22.4747 90.2001 22.7396H76.6619C76.9273 23.997 77.4783 24.9446 78.3131 25.5845C79.1479 26.2244 80.1827 26.5443 81.4175 26.5443C82.336 26.5443 83.1606 26.3874 83.8851 26.0736C84.6118 25.7597 85.3608 25.2523 86.1364 24.5513L89.2939 27.3411C88.3734 28.4762 87.261 29.3647 85.9548 30.0046C84.6444 30.6466 83.1096 30.9686 81.342 30.9686ZM84.8995 19.2976C84.7301 18.0647 84.2954 17.0682 83.5933 16.308C82.8912 15.5479 81.9604 15.1668 80.7991 15.1668C79.6377 15.1668 78.6989 15.5418 77.9865 16.2897C77.2722 17.0396 76.8068 18.0423 76.5884 19.2976H84.8995Z" fill="#002366"/>
<path d="M99.4924 30.8585C98.6453 30.8585 97.8779 30.7668 97.188 30.5874C96.4982 30.4061 95.9063 30.0861 95.4082 29.6276C94.9123 29.1691 94.5245 28.572 94.2469 27.8343C93.9693 27.0986 93.8305 26.1612 93.8305 25.0261V15.8189H91.5078V11.1073H93.8305V6.14307H99.3474V11.1073H103.921V15.8189H99.3474V24.1477C99.3474 25.4092 99.9414 26.0389 101.127 26.0389C102.095 26.0389 103.003 25.7984 103.85 25.3154V29.7376C103.268 30.0759 102.627 30.349 101.927 30.5528C101.221 30.7566 100.411 30.8585 99.4924 30.8585Z" fill="#002366"/>
<path d="M143.388 30.8952C141.284 30.8952 139.655 30.2553 138.506 28.9756C137.357 27.6958 136.781 25.931 136.781 23.6852V11.1074H142.298V21.9163C142.298 23.2185 142.588 24.2008 143.17 24.8631C143.751 25.5254 144.572 25.8576 145.637 25.8576C146.701 25.8576 147.544 25.5275 148.16 24.8631C148.776 24.2008 149.087 23.2185 149.087 21.9163V11.1074H154.604V30.5325H149.087V27.7549C148.772 28.1686 148.427 28.5639 148.052 28.9409C147.676 29.3179 147.258 29.6521 146.801 29.9436C146.339 30.237 145.831 30.4673 145.276 30.6385C144.719 30.8097 144.09 30.8952 143.388 30.8952Z" fill="#0057FF"/>
<path d="M163.608 30.895C162.687 30.895 161.822 30.7687 161.012 30.514C160.201 30.2592 159.493 29.8802 158.889 29.3727C158.285 28.8653 157.805 28.2437 157.456 27.506C157.105 26.7704 156.93 25.9185 156.93 24.9505V24.8772C156.93 23.8154 157.122 22.8964 157.511 22.124C157.897 21.3516 158.436 20.7097 159.126 20.2043C159.816 19.6969 160.638 19.3158 161.593 19.0631C162.549 18.8104 163.608 18.682 164.769 18.682C165.761 18.682 166.627 18.7554 167.363 18.9001C168.102 19.0448 168.821 19.2384 169.523 19.4809V19.1548C169.523 17.9952 169.172 17.1128 168.47 16.5096C167.768 15.9064 166.727 15.6028 165.349 15.6028C164.284 15.6028 163.347 15.6945 162.536 15.8738C161.726 16.0552 160.873 16.314 159.977 16.6523L158.597 12.4481C159.663 11.9896 160.775 11.6146 161.936 11.3232C163.098 11.0318 164.502 10.8892 166.147 10.8892C167.672 10.8892 168.972 11.0766 170.049 11.4516C171.125 11.8266 172.015 12.3646 172.717 13.0636C173.442 13.7891 173.974 14.6755 174.313 15.7271C174.652 16.7786 174.821 17.9565 174.821 19.2608V30.5323H169.486V28.4312C168.809 29.1791 167.998 29.7783 167.053 30.2246C166.112 30.6709 164.961 30.895 163.608 30.895ZM165.275 27.0903C166.582 27.0903 167.629 26.7765 168.417 26.1468C169.202 25.5191 169.596 24.6978 169.596 23.683V22.7048C169.113 22.4867 168.574 22.3115 167.982 22.179C167.388 22.0466 166.753 21.9793 166.076 21.9793C164.89 21.9793 163.959 22.2096 163.281 22.6681C162.604 23.1287 162.265 23.793 162.265 24.6612V24.7325C162.265 25.4804 162.543 26.0612 163.1 26.4728C163.655 26.8845 164.382 27.0903 165.275 27.0903Z" fill="#0057FF"/>
<path d="M178.125 11.1075H183.642V15.0202C184.199 13.6915 184.96 12.6277 185.928 11.8309C186.895 11.0341 188.202 10.6714 189.849 10.7427V16.5058H189.559C187.72 16.5058 186.273 17.0621 185.222 18.1728C184.169 19.2834 183.642 21.0116 183.642 23.3551V30.5305H178.125V11.1075Z" fill="#0057FF"/>
<path d="M199.831 30.8952C198.694 30.8952 197.592 30.6792 196.528 30.2431C195.463 29.8069 194.52 29.163 193.697 28.305C192.875 27.4471 192.215 26.3955 191.72 25.1524C191.224 23.9073 190.977 22.4767 190.977 20.8586V20.7832C190.977 19.1651 191.224 17.7325 191.72 16.4894C192.215 15.2442 192.869 14.1927 193.679 13.3368C194.489 12.4788 195.426 11.8328 196.491 11.3988C197.555 10.9627 198.669 10.7466 199.831 10.7466C201.306 10.7466 202.523 11.036 203.478 11.6168C204.433 12.1976 205.237 12.8742 205.892 13.6465V4.07666H211.409V30.5324H205.892V27.7426C205.215 28.6617 204.398 29.4157 203.441 30.0067C202.486 30.5997 201.284 30.8952 199.831 30.8952ZM201.247 26.2203C201.9 26.2203 202.51 26.0919 203.08 25.8392C203.649 25.5865 204.145 25.2237 204.568 24.751C204.99 24.2802 205.329 23.7116 205.584 23.0473C205.839 22.3829 205.966 21.6513 205.966 20.8545V20.7832C205.966 19.9864 205.839 19.2548 205.584 18.5904C205.331 17.9261 204.99 17.3575 204.568 16.8868C204.143 16.416 203.647 16.0533 203.08 15.8006C202.51 15.5459 201.9 15.4195 201.247 15.4195C200.594 15.4195 199.982 15.5459 199.414 15.8006C198.845 16.0533 198.345 16.416 197.908 16.8868C197.473 17.3575 197.128 17.92 196.873 18.5721C196.62 19.2242 196.491 19.9619 196.491 20.7832V20.8545C196.491 21.6513 196.618 22.3829 196.873 23.0473C197.128 23.7116 197.473 24.2802 197.908 24.751C198.345 25.2217 198.845 25.5845 199.414 25.8392C199.984 26.0939 200.594 26.2203 201.247 26.2203Z" fill="#0057FF"/>
<defs>
<clipPath id="clip0_12982_126359">
<rect width="8" height="8" fill="white" transform="translate(213 0.48584)"/>
</clipPath>
</defs>
</svg>
