<svg width="226" height="34" viewBox="0 0 226 34" fill="none" xmlns="http://www.w3.org/2000/svg">
<path d="M216.018 1.54867V6.68413H214.595V1.54867H212.789V0.319824H217.824V1.54867H216.018Z" fill="#002366"/>
<path d="M224.576 2.67765L222.853 6.15631H222.004L220.29 2.67765V6.68412H218.867V0.319824H220.792L222.433 3.81683L224.084 0.319824H226.001V6.68616H224.578V2.67765H224.576Z" fill="#002366"/>
<path d="M129.986 11.3408C130.17 10.2118 130.258 9.22141 130.309 8.45313L120.508 5.46967L110.715 8.45313C110.964 12.4188 112.417 22.1395 120.508 27.8354C123.767 25.5346 125.955 22.5858 127.417 19.6187H118.644V14.3834H134.789C133.497 20.3279 130.192 28.2308 121.853 33.2012L120.51 34L119.173 33.2012C104.71 24.587 105.4 7.14073 105.437 6.40098L105.525 4.56893L120.508 0L135.499 4.56689L135.587 6.39895C135.601 6.6333 135.675 8.55502 135.315 11.3388H129.986V11.3408Z" fill="#0057FF"/>
<path d="M7.73145 9.82444H0V4.67676H21.0533V9.82241H13.3219V30.0443H7.73145V9.82444Z" fill="#002366"/>
<path d="M23.4102 3.59082H29.219V8.48377H23.4102V3.59082ZM23.5571 10.6215H29.074V30.0466H23.5571V10.6215Z" fill="#002366"/>
<path d="M41.9948 30.4826C40.5436 30.4826 39.1945 30.2157 37.9474 29.6858C36.7004 29.1539 35.6309 28.4346 34.7348 27.5297C33.8388 26.6229 33.1367 25.5612 32.6285 24.3405C32.1203 23.1218 31.8672 21.8216 31.8672 20.444V20.3727C31.8672 18.9951 32.1223 17.6909 32.6285 16.4579C33.1367 15.225 33.8388 14.1511 34.7348 13.232C35.6288 12.3129 36.7004 11.5894 37.9474 11.0576C39.1945 10.5257 40.5661 10.2607 42.0663 10.2607C43.9052 10.2607 45.4299 10.5501 46.6402 11.1309C47.8506 11.7117 48.9139 12.5085 49.8344 13.5234L46.4586 17.1467C45.8299 16.4946 45.1809 15.975 44.5155 15.5878C43.8501 15.2026 43.0215 15.007 42.0295 15.007C41.3274 15.007 40.6926 15.1455 40.1252 15.4247C39.5558 15.7019 39.0598 16.083 38.6373 16.5659C38.2128 17.0489 37.8862 17.6114 37.6576 18.2513C37.427 18.8912 37.3127 19.5739 37.3127 20.2993V20.3707C37.3127 21.1186 37.427 21.8196 37.6576 22.4717C37.8862 23.1238 38.2209 23.6924 38.6557 24.1754C39.0925 24.6584 39.6109 25.0395 40.2171 25.3166C40.8212 25.5958 41.4988 25.7344 42.2499 25.7344C43.1684 25.7344 43.9746 25.5469 44.6645 25.1719C45.3544 24.7969 46.0381 24.2956 46.7157 23.668L49.9467 26.9286C49.0037 27.9679 47.9261 28.8197 46.7157 29.4841C45.5013 30.1484 43.9297 30.4826 41.9948 30.4826Z" fill="#002366"/>
<path d="M52.0859 3.59082H57.6029V17.6889L64.0627 10.6215H70.6696L63.2647 18.2676L70.9227 30.0466H64.6077L59.5255 22.109L57.6029 24.1388V30.0466H52.0859V3.59082Z" fill="#002366"/>
<path d="M81.342 30.4827C79.8908 30.4827 78.5417 30.2402 77.2946 29.7572C76.0476 29.2743 74.9719 28.5855 74.0637 27.6908C73.1554 26.7982 72.4492 25.7406 71.941 24.5199C71.4328 23.2992 71.1797 21.9399 71.1797 20.4421V20.3708C71.1797 18.9931 71.4164 17.6889 71.8879 16.456C72.3594 15.2231 73.0187 14.1491 73.8677 13.23C74.7148 12.3109 75.723 11.5875 76.8987 11.0556C78.0723 10.5237 79.3724 10.2588 80.8011 10.2588C82.4217 10.2588 83.826 10.5482 85.0118 11.129C86.1976 11.7098 87.1835 12.4882 87.9693 13.4664C88.7551 14.4446 89.3368 15.5675 89.7123 16.8371C90.0879 18.1046 90.2736 19.4293 90.2736 20.8048C90.2736 21.0229 90.2675 21.2532 90.2552 21.4936C90.243 21.7361 90.2246 21.9888 90.2001 22.2538H76.6619C76.9273 23.5111 77.4783 24.4587 78.3131 25.0986C79.1479 25.7385 80.1827 26.0585 81.4175 26.0585C82.336 26.0585 83.1606 25.9016 83.8851 25.5877C84.6118 25.2739 85.3608 24.7665 86.1364 24.0654L89.2939 26.8553C88.3734 27.9904 87.261 28.8789 85.9548 29.5188C84.6444 30.1607 83.1096 30.4827 81.342 30.4827ZM84.8995 18.8118C84.7301 17.5789 84.2954 16.5823 83.5933 15.8222C82.8912 15.0621 81.9604 14.681 80.7991 14.681C79.6377 14.681 78.6989 15.056 77.9865 15.8039C77.2722 16.5538 76.8068 17.5564 76.5884 18.8118H84.8995Z" fill="#002366"/>
<path d="M99.4924 30.3726C98.6453 30.3726 97.8779 30.2809 97.188 30.1016C96.4982 29.9202 95.9063 29.6003 95.4082 29.1418C94.9123 28.6832 94.5245 28.0861 94.2469 27.3484C93.9693 26.6128 93.8305 25.6753 93.8305 24.5402V15.3331H91.5078V10.6215H93.8305V5.65723H99.3474V10.6215H103.921V15.3331H99.3474V23.6619C99.3474 24.9234 99.9414 25.5531 101.127 25.5531C102.095 25.5531 103.003 25.3126 103.85 24.8296V29.2518C103.268 29.5901 102.627 29.8632 101.927 30.067C101.221 30.2707 100.411 30.3726 99.4924 30.3726Z" fill="#002366"/>
<path d="M143.388 30.4094C141.284 30.4094 139.655 29.7695 138.506 28.4897C137.357 27.2099 136.781 25.4451 136.781 23.1994V10.6216H142.298V21.4305C142.298 22.7327 142.588 23.715 143.17 24.3773C143.751 25.0396 144.572 25.3718 145.637 25.3718C146.701 25.3718 147.544 25.0416 148.16 24.3773C148.776 23.715 149.087 22.7327 149.087 21.4305V10.6216H154.604V30.0467H149.087V27.269C148.772 27.6827 148.427 28.0781 148.052 28.4551C147.676 28.8321 147.258 29.1663 146.801 29.4577C146.339 29.7512 145.831 29.9814 145.276 30.1526C144.719 30.3238 144.09 30.4094 143.388 30.4094Z" fill="#0057FF"/>
<path d="M163.608 30.4092C162.687 30.4092 161.822 30.2828 161.012 30.0281C160.201 29.7734 159.493 29.3943 158.889 28.8869C158.285 28.3795 157.805 27.7579 157.456 27.0202C157.105 26.2845 156.93 25.4327 156.93 24.4647V24.3913C156.93 23.3296 157.122 22.4105 157.511 21.6382C157.897 20.8658 158.436 20.2239 159.126 19.7185C159.816 19.211 160.638 18.83 161.593 18.5773C162.549 18.3246 163.608 18.1962 164.769 18.1962C165.761 18.1962 166.627 18.2695 167.363 18.4142C168.102 18.5589 168.821 18.7525 169.523 18.995V18.669C169.523 17.5094 169.172 16.627 168.47 16.0238C167.768 15.4206 166.727 15.1169 165.349 15.1169C164.284 15.1169 163.347 15.2086 162.536 15.388C161.726 15.5693 160.873 15.8282 159.977 16.1664L158.597 11.9623C159.663 11.5038 160.775 11.1288 161.936 10.8374C163.098 10.546 164.502 10.4033 166.147 10.4033C167.672 10.4033 168.972 10.5908 170.049 10.9658C171.125 11.3407 172.015 11.8787 172.717 12.5777C173.442 13.3032 173.974 14.1897 174.313 15.2412C174.652 16.2928 174.821 17.4707 174.821 18.7749V30.0465H169.486V27.9454C168.809 28.6933 167.998 29.2924 167.053 29.7387C166.112 30.185 164.961 30.4092 163.608 30.4092ZM165.275 26.6045C166.582 26.6045 167.629 26.2906 168.417 25.6609C169.202 25.0333 169.596 24.212 169.596 23.1971V22.219C169.113 22.0009 168.574 21.8256 167.982 21.6932C167.388 21.5607 166.753 21.4935 166.076 21.4935C164.89 21.4935 163.959 21.7237 163.281 22.1823C162.604 22.6428 162.265 23.3072 162.265 24.1753V24.2466C162.265 24.9945 162.543 25.5753 163.1 25.987C163.655 26.3986 164.382 26.6045 165.275 26.6045Z" fill="#0057FF"/>
<path d="M178.125 10.6216H183.642V14.5343C184.199 13.2057 184.96 12.1419 185.928 11.3451C186.895 10.5483 188.202 10.1855 189.849 10.2568V16.02H189.559C187.72 16.02 186.273 16.5763 185.222 17.687C184.169 18.7976 183.642 20.5257 183.642 22.8693V30.0447H178.125V10.6216Z" fill="#0057FF"/>
<path d="M199.831 30.4093C198.694 30.4093 197.592 30.1933 196.528 29.7572C195.463 29.3211 194.52 28.6771 193.697 27.8192C192.875 26.9612 192.215 25.9097 191.72 24.6666C191.224 23.4214 190.977 21.9908 190.977 20.3728V20.2974C190.977 18.6793 191.224 17.2467 191.72 16.0036C192.215 14.7584 192.869 13.7069 193.679 12.851C194.489 11.993 195.426 11.347 196.491 10.9129C197.555 10.4768 198.669 10.2608 199.831 10.2608C201.306 10.2608 202.523 10.5502 203.478 11.131C204.433 11.7118 205.237 12.3884 205.892 13.1607V3.59082H211.409V30.0466H205.892V27.2567C205.215 28.1758 204.398 28.9298 203.441 29.5208C202.486 30.1138 201.284 30.4093 199.831 30.4093ZM201.247 25.7344C201.9 25.7344 202.51 25.606 203.08 25.3533C203.649 25.1007 204.145 24.7379 204.568 24.2651C204.99 23.7944 205.329 23.2258 205.584 22.5615C205.839 21.8971 205.966 21.1655 205.966 20.3687V20.2974C205.966 19.5006 205.839 18.769 205.584 18.1046C205.331 17.4403 204.99 16.8717 204.568 16.4009C204.143 15.9302 203.647 15.5674 203.08 15.3147C202.51 15.06 201.9 14.9337 201.247 14.9337C200.594 14.9337 199.982 15.06 199.414 15.3147C198.845 15.5674 198.345 15.9302 197.908 16.4009C197.473 16.8717 197.128 17.4341 196.873 18.0863C196.62 18.7384 196.491 19.4761 196.491 20.2974V20.3687C196.491 21.1655 196.618 21.8971 196.873 22.5615C197.128 23.2258 197.473 23.7944 197.908 24.2651C198.345 24.7359 198.845 25.0986 199.414 25.3533C199.984 25.6081 200.594 25.7344 201.247 25.7344Z" fill="#0057FF"/>
</svg>
