<svg width="390" height="396" viewBox="0 0 390 396" fill="none" xmlns="http://www.w3.org/2000/svg">
<g clip-path="url(#clip0_10392_129698)">
<rect width="390" height="396" fill="url(#paint0_radial_10392_129698)"/>
<g opacity="0.04" clip-path="url(#clip1_10392_129698)" filter="url(#filter0_dddddd_10392_129698)">
<path d="M-138.534 36.2458L-138.534 61.4635L-138.486 123.016C-138.534 131.342 -131.796 138.079 -123.471 138.031L-0.365907 138.031L-0.365896 36.1977L-138.486 36.1977L-138.534 36.2458Z" fill="#DEDEDE"/>
<path d="M-36.72 -101.873L-36.72 -0.0399241H101.4L101.4 -87.4357C101.111 -95.3282 94.8067 -101.633 86.9142 -101.921L42.9276 -101.921L-0.433446 -101.873L-36.7681 -101.921L-36.72 -101.873Z" fill="#DEDEDE"/>
<path d="M-138.582 -240.041L-138.63 -0.0391763L-138.582 36.2955L-138.582 61.5132L-138.534 123.066C-138.582 131.391 -131.845 138.129 -123.519 138.081L-36.7488 138.033L-36.7488 36.1992L-36.7007 -0.135436L-36.7006 -101.969L-36.7488 -240.137L-138.582 -240.137L-138.582 -240.041Z" fill="white"/>
<path d="M239.656 36.2567V138.142H101.495V36.2567H239.656Z" fill="url(#paint1_linear_10392_129698)"/>
<path d="M-0.421791 -101.88L-0.421796 -0.0470247L-0.373674 36.2876L-0.373653 138.121L-0.325521 276.289L101.508 276.289L101.46 138.121L101.46 36.2877L101.412 -0.0470301L101.412 -86.8653C101.412 -87.0578 101.363 -87.2021 101.363 -87.3947C101.075 -95.2872 94.7703 -101.592 86.8777 -101.88C86.6852 -101.88 86.5408 -101.929 86.3483 -101.929L42.9392 -101.929L-0.421791 -101.88Z" fill="white"/>
</g>
<g opacity="0.04" clip-path="url(#clip2_10392_129698)" filter="url(#filter1_dddddd_10392_129698)">
<path d="M288.449 335.03V436.915H150.288V335.03H288.449Z" fill="url(#paint2_linear_10392_129698)"/>
<path d="M390.28 335.127L390.28 436.96H528.4L528.4 349.564C528.111 341.672 521.807 335.367 513.914 335.079L469.928 335.079L426.567 335.127L390.232 335.079L390.28 335.127Z" fill="#DEDEDE"/>
<path d="M288.418 196.959L288.37 436.961L288.418 473.296L288.418 498.513L288.466 560.066C288.418 568.391 295.155 575.129 303.481 575.081L390.251 575.033L390.251 473.199L390.299 436.865L390.299 335.031L390.251 196.863L288.418 196.863L288.418 196.959Z" fill="white"/>
<path d="M426.578 335.12L426.578 436.953L426.626 473.288L426.626 575.121L426.674 713.289L528.508 713.289L528.46 575.121L528.46 473.288L528.412 436.953L528.412 350.135C528.412 349.942 528.363 349.798 528.363 349.605C528.075 341.713 521.77 335.408 513.878 335.12C513.685 335.12 513.541 335.071 513.348 335.071L469.939 335.071L426.578 335.12Z" fill="white"/>
</g>
<path d="M79.5495 59.496V64.92H70.6215V93H63.9015V64.92H54.9735V59.496H79.5495ZM99.4286 66.024C101.445 66.024 103.237 66.472 104.805 67.368C106.373 68.232 107.589 69.528 108.453 71.256C109.349 72.952 109.797 75 109.797 77.4V93H103.077V78.312C103.077 76.2 102.549 74.584 101.493 73.464C100.437 72.312 98.9966 71.736 97.1726 71.736C95.3166 71.736 93.8446 72.312 92.7566 73.464C91.7006 74.584 91.1726 76.2 91.1726 78.312V93H84.4526V57.48H91.1726V69.72C92.0366 68.568 93.1886 67.672 94.6286 67.032C96.0686 66.36 97.6686 66.024 99.4286 66.024ZM140.907 79.128C140.907 80.088 140.843 80.952 140.715 81.72H121.275C121.435 83.64 122.107 85.144 123.291 86.232C124.475 87.32 125.931 87.864 127.659 87.864C130.155 87.864 131.931 86.792 132.987 84.648H140.235C139.467 87.208 137.995 89.32 135.819 90.984C133.643 92.616 130.971 93.432 127.803 93.432C125.243 93.432 122.939 92.872 120.891 91.752C118.875 90.6 117.291 88.984 116.139 86.904C115.019 84.824 114.459 82.424 114.459 79.704C114.459 76.952 115.019 74.536 116.139 72.456C117.259 70.376 118.827 68.776 120.843 67.656C122.859 66.536 125.179 65.976 127.803 65.976C130.331 65.976 132.587 66.52 134.571 67.608C136.587 68.696 138.139 70.248 139.227 72.264C140.347 74.248 140.907 76.536 140.907 79.128ZM133.947 77.208C133.915 75.48 133.291 74.104 132.075 73.08C130.859 72.024 129.371 71.496 127.611 71.496C125.947 71.496 124.539 72.008 123.387 73.032C122.267 74.024 121.579 75.416 121.323 77.208H133.947ZM180.05 59.496V64.92H171.122V93H164.402V64.92H155.474V59.496H180.05ZM221.817 66.408L214.041 93H206.793L201.945 74.424L197.097 93H189.801L181.977 66.408H188.793L193.497 86.664L198.585 66.408H205.689L210.681 86.616L215.385 66.408H221.817ZM237.261 93.432C234.701 93.432 232.397 92.872 230.349 91.752C228.301 90.6 226.685 88.984 225.501 86.904C224.349 84.824 223.773 82.424 223.773 79.704C223.773 76.984 224.365 74.584 225.549 72.504C226.765 70.424 228.413 68.824 230.493 67.704C232.573 66.552 234.893 65.976 237.453 65.976C240.013 65.976 242.333 66.552 244.413 67.704C246.493 68.824 248.125 70.424 249.309 72.504C250.525 74.584 251.133 76.984 251.133 79.704C251.133 82.424 250.509 84.824 249.261 86.904C248.045 88.984 246.381 90.6 244.269 91.752C242.189 92.872 239.853 93.432 237.261 93.432ZM237.261 87.576C238.477 87.576 239.613 87.288 240.669 86.712C241.757 86.104 242.621 85.208 243.261 84.024C243.901 82.84 244.221 81.4 244.221 79.704C244.221 77.176 243.549 75.24 242.205 73.896C240.893 72.52 239.277 71.832 237.357 71.832C235.437 71.832 233.821 72.52 232.509 73.896C231.229 75.24 230.589 77.176 230.589 79.704C230.589 82.232 231.213 84.184 232.461 85.56C233.741 86.904 235.341 87.576 237.261 87.576ZM263.886 71.928V84.792C263.886 85.688 264.094 86.344 264.51 86.76C264.958 87.144 265.694 87.336 266.718 87.336H269.838V93H265.614C259.95 93 257.118 90.248 257.118 84.744V71.928H253.95V66.408H257.118V59.832H263.886V66.408H269.838V71.928H263.886ZM278.079 63.24C276.895 63.24 275.903 62.872 275.103 62.136C274.335 61.368 273.951 60.424 273.951 59.304C273.951 58.184 274.335 57.256 275.103 56.52C275.903 55.752 276.895 55.368 278.079 55.368C279.263 55.368 280.239 55.752 281.007 56.52C281.807 57.256 282.207 58.184 282.207 59.304C282.207 60.424 281.807 61.368 281.007 62.136C280.239 62.872 279.263 63.24 278.079 63.24ZM281.391 66.408V93H274.671V66.408H281.391ZM302.719 93L297.247 84.744L292.399 93H285.199L293.887 79.656L285.103 66.408H292.687L298.111 74.616L303.007 66.408H310.207L301.471 79.656L310.303 93H302.719ZM328.641 93L323.169 84.744L318.321 93H311.121L319.809 79.656L311.025 66.408H318.609L324.033 74.616L328.929 66.408H336.129L327.393 79.656L336.225 93H328.641ZM38.6726 120.92V129.32H49.9526V134.648H38.6726V143.528H51.3926V149H31.9526V115.448H51.3926V120.92H38.6726ZM68.5875 142.808L75.3075 122.408H82.4595L72.6195 149H64.4595L54.6675 122.408H61.8675L68.5875 142.808ZM110.954 135.128C110.954 136.088 110.89 136.952 110.762 137.72H91.3219C91.4819 139.64 92.1539 141.144 93.3379 142.232C94.5219 143.32 95.9779 143.864 97.7059 143.864C100.202 143.864 101.978 142.792 103.034 140.648H110.282C109.514 143.208 108.042 145.32 105.866 146.984C103.69 148.616 101.018 149.432 97.8499 149.432C95.2899 149.432 92.9859 148.872 90.9379 147.752C88.9219 146.6 87.3379 144.984 86.1859 142.904C85.0659 140.824 84.5059 138.424 84.5059 135.704C84.5059 132.952 85.0659 130.536 86.1859 128.456C87.3059 126.376 88.8739 124.776 90.8899 123.656C92.9059 122.536 95.2259 121.976 97.8499 121.976C100.378 121.976 102.634 122.52 104.618 123.608C106.634 124.696 108.186 126.248 109.274 128.264C110.394 130.248 110.954 132.536 110.954 135.128ZM103.994 133.208C103.962 131.48 103.338 130.104 102.122 129.08C100.906 128.024 99.4179 127.496 97.6579 127.496C95.9939 127.496 94.5859 128.008 93.4339 129.032C92.3139 130.024 91.6259 131.416 91.3699 133.208H103.994ZM130.595 122.024C133.763 122.024 136.323 123.032 138.275 125.048C140.227 127.032 141.203 129.816 141.203 133.4V149H134.483V134.312C134.483 132.2 133.955 130.584 132.899 129.464C131.843 128.312 130.403 127.736 128.579 127.736C126.723 127.736 125.251 128.312 124.163 129.464C123.107 130.584 122.579 132.2 122.579 134.312V149H115.859V122.408H122.579V125.72C123.475 124.568 124.611 123.672 125.987 123.032C127.395 122.36 128.931 122.024 130.595 122.024ZM155.417 127.928V140.792C155.417 141.688 155.625 142.344 156.041 142.76C156.489 143.144 157.225 143.336 158.249 143.336H161.369V149H157.145C151.481 149 148.649 146.248 148.649 140.744V127.928H145.481V122.408H148.649V115.832H155.417V122.408H161.369V127.928H155.417ZM176.008 132.2C176.008 128.904 176.744 125.96 178.216 123.368C179.72 120.744 181.752 118.712 184.312 117.272C186.904 115.8 189.8 115.064 193 115.064C196.744 115.064 200.024 116.024 202.84 117.944C205.656 119.864 207.624 122.52 208.744 125.912H201.016C200.248 124.312 199.16 123.112 197.752 122.312C196.376 121.512 194.776 121.112 192.952 121.112C191 121.112 189.256 121.576 187.72 122.504C186.216 123.4 185.032 124.68 184.168 126.344C183.336 128.008 182.92 129.96 182.92 132.2C182.92 134.408 183.336 136.36 184.168 138.056C185.032 139.72 186.216 141.016 187.72 141.944C189.256 142.84 191 143.288 192.952 143.288C194.776 143.288 196.376 142.888 197.752 142.088C199.16 141.256 200.248 140.04 201.016 138.44H208.744C207.624 141.864 205.656 144.536 202.84 146.456C200.056 148.344 196.776 149.288 193 149.288C189.8 149.288 186.904 148.568 184.312 147.128C181.752 145.656 179.72 143.624 178.216 141.032C176.744 138.44 176.008 135.496 176.008 132.2ZM221.204 126.536C222.068 125.128 223.188 124.024 224.564 123.224C225.972 122.424 227.572 122.024 229.364 122.024V129.08H227.588C225.476 129.08 223.876 129.576 222.788 130.568C221.732 131.56 221.204 133.288 221.204 135.752V149H214.484V122.408H221.204V126.536ZM258.61 135.128C258.61 136.088 258.546 136.952 258.418 137.72H238.978C239.138 139.64 239.81 141.144 240.994 142.232C242.178 143.32 243.634 143.864 245.362 143.864C247.858 143.864 249.634 142.792 250.69 140.648H257.938C257.17 143.208 255.698 145.32 253.522 146.984C251.346 148.616 248.674 149.432 245.506 149.432C242.946 149.432 240.642 148.872 238.594 147.752C236.578 146.6 234.994 144.984 233.842 142.904C232.722 140.824 232.162 138.424 232.162 135.704C232.162 132.952 232.722 130.536 233.842 128.456C234.962 126.376 236.53 124.776 238.546 123.656C240.562 122.536 242.882 121.976 245.506 121.976C248.034 121.976 250.29 122.52 252.274 123.608C254.29 124.696 255.842 126.248 256.93 128.264C258.05 130.248 258.61 132.536 258.61 135.128ZM251.65 133.208C251.618 131.48 250.994 130.104 249.778 129.08C248.562 128.024 247.074 127.496 245.314 127.496C243.65 127.496 242.242 128.008 241.09 129.032C239.97 130.024 239.282 131.416 239.026 133.208H251.65ZM261.787 135.608C261.787 132.92 262.315 130.536 263.371 128.456C264.459 126.376 265.915 124.776 267.739 123.656C269.595 122.536 271.659 121.976 273.931 121.976C275.915 121.976 277.643 122.376 279.115 123.176C280.619 123.976 281.819 124.984 282.715 126.2V122.408H289.483V149H282.715V145.112C281.851 146.36 280.651 147.4 279.115 148.232C277.611 149.032 275.867 149.432 273.883 149.432C271.643 149.432 269.595 148.856 267.739 147.704C265.915 146.552 264.459 144.936 263.371 142.856C262.315 140.744 261.787 138.328 261.787 135.608ZM282.715 135.704C282.715 134.072 282.395 132.68 281.755 131.528C281.115 130.344 280.251 129.448 279.163 128.84C278.075 128.2 276.907 127.88 275.659 127.88C274.411 127.88 273.259 128.184 272.203 128.792C271.147 129.4 270.283 130.296 269.611 131.48C268.971 132.632 268.651 134.008 268.651 135.608C268.651 137.208 268.971 138.616 269.611 139.832C270.283 141.016 271.147 141.928 272.203 142.568C273.291 143.208 274.443 143.528 275.659 143.528C276.907 143.528 278.075 143.224 279.163 142.616C280.251 141.976 281.115 141.08 281.755 139.928C282.395 138.744 282.715 137.336 282.715 135.704ZM303.87 127.928V140.792C303.87 141.688 304.078 142.344 304.494 142.76C304.942 143.144 305.678 143.336 306.702 143.336H309.822V149H305.598C299.934 149 297.102 146.248 297.102 140.744V127.928H293.934V122.408H297.102V115.832H303.87V122.408H309.822V127.928H303.87ZM326.464 149.432C323.904 149.432 321.6 148.872 319.552 147.752C317.504 146.6 315.888 144.984 314.704 142.904C313.552 140.824 312.976 138.424 312.976 135.704C312.976 132.984 313.568 130.584 314.752 128.504C315.968 126.424 317.616 124.824 319.696 123.704C321.776 122.552 324.096 121.976 326.656 121.976C329.216 121.976 331.536 122.552 333.616 123.704C335.696 124.824 337.328 126.424 338.512 128.504C339.728 130.584 340.336 132.984 340.336 135.704C340.336 138.424 339.712 140.824 338.464 142.904C337.248 144.984 335.584 146.6 333.472 147.752C331.392 148.872 329.056 149.432 326.464 149.432ZM326.464 143.576C327.68 143.576 328.816 143.288 329.872 142.712C330.96 142.104 331.824 141.208 332.464 140.024C333.104 138.84 333.424 137.4 333.424 135.704C333.424 133.176 332.752 131.24 331.408 129.896C330.096 128.52 328.48 127.832 326.56 127.832C324.64 127.832 323.024 128.52 321.712 129.896C320.432 131.24 319.792 133.176 319.792 135.704C319.792 138.232 320.416 140.184 321.664 141.56C322.944 142.904 324.544 143.576 326.464 143.576ZM351.985 126.536C352.849 125.128 353.969 124.024 355.345 123.224C356.753 122.424 358.353 122.024 360.145 122.024V129.08H358.369C356.257 129.08 354.657 129.576 353.569 130.568C352.513 131.56 351.985 133.288 351.985 135.752V149H345.265V122.408H351.985V126.536ZM158.273 171.496V176.92H144.305V185.512H155.009V190.84H144.305V205H137.585V171.496H158.273ZM188.143 178.408V205H181.375V201.64C180.511 202.792 179.375 203.704 177.967 204.376C176.591 205.016 175.087 205.336 173.455 205.336C171.375 205.336 169.535 204.904 167.935 204.04C166.335 203.144 165.071 201.848 164.143 200.152C163.247 198.424 162.799 196.376 162.799 194.008V178.408H169.519V193.048C169.519 195.16 170.047 196.792 171.103 197.944C172.159 199.064 173.599 199.624 175.423 199.624C177.279 199.624 178.735 199.064 179.791 197.944C180.847 196.792 181.375 195.16 181.375 193.048V178.408H188.143ZM209.509 178.024C212.677 178.024 215.237 179.032 217.189 181.048C219.141 183.032 220.117 185.816 220.117 189.4V205H213.397V190.312C213.397 188.2 212.869 186.584 211.813 185.464C210.757 184.312 209.317 183.736 207.493 183.736C205.637 183.736 204.165 184.312 203.077 185.464C202.021 186.584 201.493 188.2 201.493 190.312V205H194.773V178.408H201.493V181.72C202.389 180.568 203.525 179.672 204.901 179.032C206.309 178.36 207.845 178.024 209.509 178.024ZM224.779 191.608C224.779 188.92 225.307 186.536 226.363 184.456C227.451 182.376 228.923 180.776 230.779 179.656C232.635 178.536 234.699 177.976 236.971 177.976C238.699 177.976 240.347 178.36 241.915 179.128C243.483 179.864 244.731 180.856 245.659 182.104V169.48H252.475V205H245.659V201.064C244.827 202.376 243.659 203.432 242.155 204.232C240.651 205.032 238.907 205.432 236.923 205.432C234.683 205.432 232.635 204.856 230.779 203.704C228.923 202.552 227.451 200.936 226.363 198.856C225.307 196.744 224.779 194.328 224.779 191.608ZM245.707 191.704C245.707 190.072 245.387 188.68 244.747 187.528C244.107 186.344 243.243 185.448 242.155 184.84C241.067 184.2 239.899 183.88 238.651 183.88C237.403 183.88 236.251 184.184 235.195 184.792C234.139 185.4 233.275 186.296 232.603 187.48C231.963 188.632 231.643 190.008 231.643 191.608C231.643 193.208 231.963 194.616 232.603 195.832C233.275 197.016 234.139 197.928 235.195 198.568C236.283 199.208 237.435 199.528 238.651 199.528C239.899 199.528 241.067 199.224 242.155 198.616C243.243 197.976 244.107 197.08 244.747 195.928C245.387 194.744 245.707 193.336 245.707 191.704Z" fill="white"/>
<path d="M33.8046 261.14C32.8713 261.14 32.0313 260.98 31.2846 260.66C30.5379 260.327 29.9513 259.86 29.5246 259.26C29.0979 258.66 28.8846 257.96 28.8846 257.16H31.3246C31.3779 257.76 31.6113 258.253 32.0246 258.64C32.4513 259.027 33.0446 259.22 33.8046 259.22C34.5913 259.22 35.2046 259.033 35.6446 258.66C36.0846 258.273 36.3046 257.78 36.3046 257.18C36.3046 256.713 36.1646 256.333 35.8846 256.04C35.6179 255.747 35.2779 255.52 34.8646 255.36C34.4646 255.2 33.9046 255.027 33.1846 254.84C32.2779 254.6 31.5379 254.36 30.9646 254.12C30.4046 253.867 29.9246 253.48 29.5246 252.96C29.1246 252.44 28.9246 251.747 28.9246 250.88C28.9246 250.08 29.1246 249.38 29.5246 248.78C29.9246 248.18 30.4846 247.72 31.2046 247.4C31.9246 247.08 32.7579 246.92 33.7046 246.92C35.0513 246.92 36.1513 247.26 37.0046 247.94C37.8713 248.607 38.3513 249.527 38.4446 250.7H35.9246C35.8846 250.193 35.6446 249.76 35.2046 249.4C34.7646 249.04 34.1846 248.86 33.4646 248.86C32.8113 248.86 32.2779 249.027 31.8646 249.36C31.4513 249.693 31.2446 250.173 31.2446 250.8C31.2446 251.227 31.3713 251.58 31.6246 251.86C31.8913 252.127 32.2246 252.34 32.6246 252.5C33.0246 252.66 33.5713 252.833 34.2646 253.02C35.1846 253.273 35.9313 253.527 36.5046 253.78C37.0913 254.033 37.5846 254.427 37.9846 254.96C38.3979 255.48 38.6046 256.18 38.6046 257.06C38.6046 257.767 38.4113 258.433 38.0246 259.06C37.6513 259.687 37.0979 260.193 36.3646 260.58C35.6446 260.953 34.7913 261.14 33.8046 261.14ZM51.2749 249.98V261H48.9949V259.7C48.6349 260.153 48.1616 260.513 47.5749 260.78C47.0016 261.033 46.3883 261.16 45.7349 261.16C44.8683 261.16 44.0883 260.98 43.3949 260.62C42.7149 260.26 42.1749 259.727 41.7749 259.02C41.3883 258.313 41.1949 257.46 41.1949 256.46V249.98H43.4549V256.12C43.4549 257.107 43.7016 257.867 44.1949 258.4C44.6883 258.92 45.3616 259.18 46.2149 259.18C47.0683 259.18 47.7416 258.92 48.2349 258.4C48.7416 257.867 48.9949 257.107 48.9949 256.12V249.98H51.2749ZM56.5632 251.6C56.9499 251.093 57.4765 250.667 58.1432 250.32C58.8099 249.973 59.5632 249.8 60.4032 249.8C61.3632 249.8 62.2365 250.04 63.0232 250.52C63.8232 250.987 64.4499 251.647 64.9032 252.5C65.3565 253.353 65.5832 254.333 65.5832 255.44C65.5832 256.547 65.3565 257.54 64.9032 258.42C64.4499 259.287 63.8232 259.967 63.0232 260.46C62.2365 260.94 61.3632 261.18 60.4032 261.18C59.5632 261.18 58.8165 261.013 58.1632 260.68C57.5099 260.333 56.9765 259.907 56.5632 259.4V266.24H54.2832V249.98H56.5632V251.6ZM63.2632 255.44C63.2632 254.68 63.1032 254.027 62.7832 253.48C62.4765 252.92 62.0632 252.5 61.5432 252.22C61.0365 251.927 60.4899 251.78 59.9032 251.78C59.3299 251.78 58.7832 251.927 58.2632 252.22C57.7565 252.513 57.3432 252.94 57.0232 253.5C56.7165 254.06 56.5632 254.72 56.5632 255.48C56.5632 256.24 56.7165 256.907 57.0232 257.48C57.3432 258.04 57.7565 258.467 58.2632 258.76C58.7832 259.053 59.3299 259.2 59.9032 259.2C60.4899 259.2 61.0365 259.053 61.5432 258.76C62.0632 258.453 62.4765 258.013 62.7832 257.44C63.1032 256.867 63.2632 256.2 63.2632 255.44ZM70.1179 251.6C70.5046 251.093 71.0312 250.667 71.6979 250.32C72.3646 249.973 73.1179 249.8 73.9579 249.8C74.9179 249.8 75.7912 250.04 76.5779 250.52C77.3779 250.987 78.0046 251.647 78.4579 252.5C78.9112 253.353 79.1379 254.333 79.1379 255.44C79.1379 256.547 78.9112 257.54 78.4579 258.42C78.0046 259.287 77.3779 259.967 76.5779 260.46C75.7912 260.94 74.9179 261.18 73.9579 261.18C73.1179 261.18 72.3712 261.013 71.7179 260.68C71.0646 260.333 70.5312 259.907 70.1179 259.4V266.24H67.8379V249.98H70.1179V251.6ZM76.8179 255.44C76.8179 254.68 76.6579 254.027 76.3379 253.48C76.0312 252.92 75.6179 252.5 75.0979 252.22C74.5912 251.927 74.0446 251.78 73.4579 251.78C72.8846 251.78 72.3379 251.927 71.8179 252.22C71.3112 252.513 70.8979 252.94 70.5779 253.5C70.2712 254.06 70.1179 254.72 70.1179 255.48C70.1179 256.24 70.2712 256.907 70.5779 257.48C70.8979 258.04 71.3112 258.467 71.8179 258.76C72.3379 259.053 72.8846 259.2 73.4579 259.2C74.0446 259.2 74.5912 259.053 75.0979 258.76C75.6179 258.453 76.0312 258.013 76.3379 257.44C76.6579 256.867 76.8179 256.2 76.8179 255.44ZM86.1726 261.18C85.1326 261.18 84.1926 260.947 83.3526 260.48C82.5126 260 81.8526 259.333 81.3726 258.48C80.8926 257.613 80.6526 256.613 80.6526 255.48C80.6526 254.36 80.8992 253.367 81.3926 252.5C81.8859 251.633 82.5592 250.967 83.4126 250.5C84.2659 250.033 85.2192 249.8 86.2726 249.8C87.3259 249.8 88.2792 250.033 89.1326 250.5C89.9859 250.967 90.6592 251.633 91.1526 252.5C91.6459 253.367 91.8926 254.36 91.8926 255.48C91.8926 256.6 91.6392 257.593 91.1326 258.46C90.6259 259.327 89.9326 260 89.0526 260.48C88.1859 260.947 87.2259 261.18 86.1726 261.18ZM86.1726 259.2C86.7592 259.2 87.3059 259.06 87.8126 258.78C88.3326 258.5 88.7526 258.08 89.0726 257.52C89.3926 256.96 89.5526 256.28 89.5526 255.48C89.5526 254.68 89.3992 254.007 89.0926 253.46C88.7859 252.9 88.3792 252.48 87.8726 252.2C87.3659 251.92 86.8192 251.78 86.2326 251.78C85.6459 251.78 85.0992 251.92 84.5926 252.2C84.0992 252.48 83.7059 252.9 83.4126 253.46C83.1192 254.007 82.9726 254.68 82.9726 255.48C82.9726 256.667 83.2726 257.587 83.8726 258.24C84.4859 258.88 85.2526 259.2 86.1726 259.2ZM96.4265 251.58C96.7598 251.02 97.1998 250.587 97.7465 250.28C98.3065 249.96 98.9665 249.8 99.7265 249.8V252.16H99.1465C98.2532 252.16 97.5732 252.387 97.1065 252.84C96.6532 253.293 96.4265 254.08 96.4265 255.2V261H94.1465V249.98H96.4265V251.58ZM104.482 251.84V257.94C104.482 258.353 104.576 258.653 104.762 258.84C104.962 259.013 105.296 259.1 105.762 259.1H107.162V261H105.362C104.336 261 103.549 260.76 103.002 260.28C102.456 259.8 102.182 259.02 102.182 257.94V251.84H100.882V249.98H102.182V247.24H104.482V249.98H107.162V251.84H104.482ZM110.424 248.52C110.01 248.52 109.664 248.38 109.384 248.1C109.104 247.82 108.964 247.473 108.964 247.06C108.964 246.647 109.104 246.3 109.384 246.02C109.664 245.74 110.01 245.6 110.424 245.6C110.824 245.6 111.164 245.74 111.444 246.02C111.724 246.3 111.864 246.647 111.864 247.06C111.864 247.473 111.724 247.82 111.444 248.1C111.164 248.38 110.824 248.52 110.424 248.52ZM111.544 249.98V261H109.264V249.98H111.544ZM120.097 249.8C120.964 249.8 121.737 249.98 122.417 250.34C123.11 250.7 123.65 251.233 124.037 251.94C124.424 252.647 124.617 253.5 124.617 254.5V261H122.357V254.84C122.357 253.853 122.11 253.1 121.617 252.58C121.124 252.047 120.45 251.78 119.597 251.78C118.744 251.78 118.064 252.047 117.557 252.58C117.064 253.1 116.817 253.853 116.817 254.84V261H114.537V249.98H116.817V251.24C117.19 250.787 117.664 250.433 118.237 250.18C118.824 249.927 119.444 249.8 120.097 249.8ZM131.965 249.8C132.819 249.8 133.572 249.973 134.225 250.32C134.892 250.653 135.412 251.073 135.785 251.58V249.98H138.085V261.18C138.085 262.193 137.872 263.093 137.445 263.88C137.019 264.68 136.399 265.307 135.585 265.76C134.785 266.213 133.825 266.44 132.705 266.44C131.212 266.44 129.972 266.087 128.985 265.38C127.999 264.687 127.439 263.74 127.305 262.54H129.565C129.739 263.113 130.105 263.573 130.665 263.92C131.239 264.28 131.919 264.46 132.705 264.46C133.625 264.46 134.365 264.18 134.925 263.62C135.499 263.06 135.785 262.247 135.785 261.18V259.34C135.399 259.86 134.872 260.3 134.205 260.66C133.552 261.007 132.805 261.18 131.965 261.18C131.005 261.18 130.125 260.94 129.325 260.46C128.539 259.967 127.912 259.287 127.445 258.42C126.992 257.54 126.765 256.547 126.765 255.44C126.765 254.333 126.992 253.353 127.445 252.5C127.912 251.647 128.539 250.987 129.325 250.52C130.125 250.04 131.005 249.8 131.965 249.8ZM135.785 255.48C135.785 254.72 135.625 254.06 135.305 253.5C134.999 252.94 134.592 252.513 134.085 252.22C133.579 251.927 133.032 251.78 132.445 251.78C131.859 251.78 131.312 251.927 130.805 252.22C130.299 252.5 129.885 252.92 129.565 253.48C129.259 254.027 129.105 254.68 129.105 255.44C129.105 256.2 129.259 256.867 129.565 257.44C129.885 258.013 130.299 258.453 130.805 258.76C131.325 259.053 131.872 259.2 132.445 259.2C133.032 259.2 133.579 259.053 134.085 258.76C134.592 258.467 134.999 258.04 135.305 257.48C135.625 256.907 135.785 256.24 135.785 255.48ZM148.555 248.94V253.02H153.355V254.88H148.555V259.14H153.955V261H146.275V247.08H153.955V248.94H148.555ZM161.024 258.96L164.144 249.98H166.564L162.364 261H159.644L155.464 249.98H157.904L161.024 258.96ZM178.387 255.22C178.387 255.633 178.36 256.007 178.307 256.34H169.887C169.954 257.22 170.28 257.927 170.867 258.46C171.454 258.993 172.174 259.26 173.027 259.26C174.254 259.26 175.12 258.747 175.627 257.72H178.087C177.754 258.733 177.147 259.567 176.267 260.22C175.4 260.86 174.32 261.18 173.027 261.18C171.974 261.18 171.027 260.947 170.187 260.48C169.36 260 168.707 259.333 168.227 258.48C167.76 257.613 167.527 256.613 167.527 255.48C167.527 254.347 167.754 253.353 168.207 252.5C168.674 251.633 169.32 250.967 170.147 250.5C170.987 250.033 171.947 249.8 173.027 249.8C174.067 249.8 174.994 250.027 175.807 250.48C176.62 250.933 177.254 251.573 177.707 252.4C178.16 253.213 178.387 254.153 178.387 255.22ZM176.007 254.5C175.994 253.66 175.694 252.987 175.107 252.48C174.52 251.973 173.794 251.72 172.927 251.72C172.14 251.72 171.467 251.973 170.907 252.48C170.347 252.973 170.014 253.647 169.907 254.5H176.007ZM186.191 249.8C187.058 249.8 187.831 249.98 188.511 250.34C189.204 250.7 189.744 251.233 190.131 251.94C190.518 252.647 190.711 253.5 190.711 254.5V261H188.451V254.84C188.451 253.853 188.204 253.1 187.711 252.58C187.218 252.047 186.544 251.78 185.691 251.78C184.838 251.78 184.158 252.047 183.651 252.58C183.158 253.1 182.911 253.853 182.911 254.84V261H180.631V249.98H182.911V251.24C183.284 250.787 183.758 250.433 184.331 250.18C184.918 249.927 185.538 249.8 186.191 249.8ZM196.279 251.84V257.94C196.279 258.353 196.372 258.653 196.559 258.84C196.759 259.013 197.092 259.1 197.559 259.1H198.959V261H197.159C196.132 261 195.346 260.76 194.799 260.28C194.252 259.8 193.979 259.02 193.979 257.94V251.84H192.679V249.98H193.979V247.24H196.279V249.98H198.959V251.84H196.279ZM212.596 261.14C211.303 261.14 210.109 260.84 209.016 260.24C207.936 259.627 207.076 258.78 206.436 257.7C205.809 256.607 205.496 255.38 205.496 254.02C205.496 252.66 205.809 251.44 206.436 250.36C207.076 249.28 207.936 248.44 209.016 247.84C210.109 247.227 211.303 246.92 212.596 246.92C213.903 246.92 215.096 247.227 216.176 247.84C217.269 248.44 218.129 249.28 218.756 250.36C219.383 251.44 219.696 252.66 219.696 254.02C219.696 255.38 219.383 256.607 218.756 257.7C218.129 258.78 217.269 259.627 216.176 260.24C215.096 260.84 213.903 261.14 212.596 261.14ZM212.596 259.16C213.516 259.16 214.336 258.953 215.056 258.54C215.776 258.113 216.336 257.513 216.736 256.74C217.149 255.953 217.356 255.047 217.356 254.02C217.356 252.993 217.149 252.093 216.736 251.32C216.336 250.547 215.776 249.953 215.056 249.54C214.336 249.127 213.516 248.92 212.596 248.92C211.676 248.92 210.856 249.127 210.136 249.54C209.416 249.953 208.849 250.547 208.436 251.32C208.036 252.093 207.836 252.993 207.836 254.02C207.836 255.047 208.036 255.953 208.436 256.74C208.849 257.513 209.416 258.113 210.136 258.54C210.856 258.953 211.676 259.16 212.596 259.16ZM224.219 251.58C224.553 251.02 224.993 250.587 225.539 250.28C226.099 249.96 226.759 249.8 227.519 249.8V252.16H226.939C226.046 252.16 225.366 252.387 224.899 252.84C224.446 253.293 224.219 254.08 224.219 255.2V261H221.939V249.98H224.219V251.58ZM234.055 249.8C234.909 249.8 235.662 249.973 236.315 250.32C236.982 250.653 237.502 251.073 237.875 251.58V249.98H240.175V261.18C240.175 262.193 239.962 263.093 239.535 263.88C239.109 264.68 238.489 265.307 237.675 265.76C236.875 266.213 235.915 266.44 234.795 266.44C233.302 266.44 232.062 266.087 231.075 265.38C230.089 264.687 229.529 263.74 229.395 262.54H231.655C231.829 263.113 232.195 263.573 232.755 263.92C233.329 264.28 234.009 264.46 234.795 264.46C235.715 264.46 236.455 264.18 237.015 263.62C237.589 263.06 237.875 262.247 237.875 261.18V259.34C237.489 259.86 236.962 260.3 236.295 260.66C235.642 261.007 234.895 261.18 234.055 261.18C233.095 261.18 232.215 260.94 231.415 260.46C230.629 259.967 230.002 259.287 229.535 258.42C229.082 257.54 228.855 256.547 228.855 255.44C228.855 254.333 229.082 253.353 229.535 252.5C230.002 251.647 230.629 250.987 231.415 250.52C232.215 250.04 233.095 249.8 234.055 249.8ZM237.875 255.48C237.875 254.72 237.715 254.06 237.395 253.5C237.089 252.94 236.682 252.513 236.175 252.22C235.669 251.927 235.122 251.78 234.535 251.78C233.949 251.78 233.402 251.927 232.895 252.22C232.389 252.5 231.975 252.92 231.655 253.48C231.349 254.027 231.195 254.68 231.195 255.44C231.195 256.2 231.349 256.867 231.655 257.44C231.975 258.013 232.389 258.453 232.895 258.76C233.415 259.053 233.962 259.2 234.535 259.2C235.122 259.2 235.669 259.053 236.175 258.76C236.682 258.467 237.089 258.04 237.395 257.48C237.715 256.907 237.875 256.24 237.875 255.48ZM242.41 255.44C242.41 254.333 242.637 253.353 243.09 252.5C243.557 251.647 244.183 250.987 244.97 250.52C245.77 250.04 246.65 249.8 247.61 249.8C248.477 249.8 249.23 249.973 249.87 250.32C250.523 250.653 251.043 251.073 251.43 251.58V249.98H253.73V261H251.43V259.36C251.043 259.88 250.517 260.313 249.85 260.66C249.183 261.007 248.423 261.18 247.57 261.18C246.623 261.18 245.757 260.94 244.97 260.46C244.183 259.967 243.557 259.287 243.09 258.42C242.637 257.54 242.41 256.547 242.41 255.44ZM251.43 255.48C251.43 254.72 251.27 254.06 250.95 253.5C250.643 252.94 250.237 252.513 249.73 252.22C249.223 251.927 248.677 251.78 248.09 251.78C247.503 251.78 246.957 251.927 246.45 252.22C245.943 252.5 245.53 252.92 245.21 253.48C244.903 254.027 244.75 254.68 244.75 255.44C244.75 256.2 244.903 256.867 245.21 257.44C245.53 258.013 245.943 258.453 246.45 258.76C246.97 259.053 247.517 259.2 248.09 259.2C248.677 259.2 249.223 259.053 249.73 258.76C250.237 258.467 250.643 258.04 250.95 257.48C251.27 256.907 251.43 256.24 251.43 255.48ZM262.285 249.8C263.151 249.8 263.925 249.98 264.605 250.34C265.298 250.7 265.838 251.233 266.225 251.94C266.611 252.647 266.805 253.5 266.805 254.5V261H264.545V254.84C264.545 253.853 264.298 253.1 263.805 252.58C263.311 252.047 262.638 251.78 261.785 251.78C260.931 251.78 260.251 252.047 259.745 252.58C259.251 253.1 259.005 253.853 259.005 254.84V261H256.725V249.98H259.005V251.24C259.378 250.787 259.851 250.433 260.425 250.18C261.011 249.927 261.631 249.8 262.285 249.8ZM270.873 248.52C270.46 248.52 270.113 248.38 269.833 248.1C269.553 247.82 269.413 247.473 269.413 247.06C269.413 246.647 269.553 246.3 269.833 246.02C270.113 245.74 270.46 245.6 270.873 245.6C271.273 245.6 271.613 245.74 271.893 246.02C272.173 246.3 272.313 246.647 272.313 247.06C272.313 247.473 272.173 247.82 271.893 248.1C271.613 248.38 271.273 248.52 270.873 248.52ZM271.993 249.98V261H269.713V249.98H271.993ZM278.986 261.18C278.12 261.18 277.34 261.027 276.646 260.72C275.966 260.4 275.426 259.973 275.026 259.44C274.626 258.893 274.413 258.287 274.386 257.62H276.746C276.786 258.087 277.006 258.48 277.406 258.8C277.82 259.107 278.333 259.26 278.946 259.26C279.586 259.26 280.08 259.14 280.426 258.9C280.786 258.647 280.966 258.327 280.966 257.94C280.966 257.527 280.766 257.22 280.366 257.02C279.98 256.82 279.36 256.6 278.506 256.36C277.68 256.133 277.006 255.913 276.486 255.7C275.966 255.487 275.513 255.16 275.126 254.72C274.753 254.28 274.566 253.7 274.566 252.98C274.566 252.393 274.74 251.86 275.086 251.38C275.433 250.887 275.926 250.5 276.566 250.22C277.22 249.94 277.966 249.8 278.806 249.8C280.06 249.8 281.066 250.12 281.826 250.76C282.6 251.387 283.013 252.247 283.066 253.34H280.786C280.746 252.847 280.546 252.453 280.186 252.16C279.826 251.867 279.34 251.72 278.726 251.72C278.126 251.72 277.666 251.833 277.346 252.06C277.026 252.287 276.866 252.587 276.866 252.96C276.866 253.253 276.973 253.5 277.186 253.7C277.4 253.9 277.66 254.06 277.966 254.18C278.273 254.287 278.726 254.427 279.326 254.6C280.126 254.813 280.78 255.033 281.286 255.26C281.806 255.473 282.253 255.793 282.626 256.22C283 256.647 283.193 257.213 283.206 257.92C283.206 258.547 283.033 259.107 282.686 259.6C282.34 260.093 281.846 260.48 281.206 260.76C280.58 261.04 279.84 261.18 278.986 261.18ZM295.77 255.22C295.77 255.633 295.743 256.007 295.69 256.34H287.27C287.337 257.22 287.663 257.927 288.25 258.46C288.837 258.993 289.557 259.26 290.41 259.26C291.637 259.26 292.503 258.747 293.01 257.72H295.47C295.137 258.733 294.53 259.567 293.65 260.22C292.783 260.86 291.703 261.18 290.41 261.18C289.357 261.18 288.41 260.947 287.57 260.48C286.743 260 286.09 259.333 285.61 258.48C285.143 257.613 284.91 256.613 284.91 255.48C284.91 254.347 285.137 253.353 285.59 252.5C286.057 251.633 286.703 250.967 287.53 250.5C288.37 250.033 289.33 249.8 290.41 249.8C291.45 249.8 292.377 250.027 293.19 250.48C294.003 250.933 294.637 251.573 295.09 252.4C295.543 253.213 295.77 254.153 295.77 255.22ZM293.39 254.5C293.377 253.66 293.077 252.987 292.49 252.48C291.903 251.973 291.177 251.72 290.31 251.72C289.523 251.72 288.85 251.973 288.29 252.48C287.73 252.973 287.397 253.647 287.29 254.5H293.39ZM300.294 251.58C300.627 251.02 301.067 250.587 301.614 250.28C302.174 249.96 302.834 249.8 303.594 249.8V252.16H303.014C302.12 252.16 301.44 252.387 300.974 252.84C300.52 253.293 300.294 254.08 300.294 255.2V261H298.014V249.98H300.294V251.58ZM309.689 261.18C308.823 261.18 308.043 261.027 307.349 260.72C306.669 260.4 306.129 259.973 305.729 259.44C305.329 258.893 305.116 258.287 305.089 257.62H307.449C307.489 258.087 307.709 258.48 308.109 258.8C308.523 259.107 309.036 259.26 309.649 259.26C310.289 259.26 310.783 259.14 311.129 258.9C311.489 258.647 311.669 258.327 311.669 257.94C311.669 257.527 311.469 257.22 311.069 257.02C310.683 256.82 310.063 256.6 309.209 256.36C308.383 256.133 307.709 255.913 307.189 255.7C306.669 255.487 306.216 255.16 305.829 254.72C305.456 254.28 305.269 253.7 305.269 252.98C305.269 252.393 305.443 251.86 305.789 251.38C306.136 250.887 306.629 250.5 307.269 250.22C307.923 249.94 308.669 249.8 309.509 249.8C310.763 249.8 311.769 250.12 312.529 250.76C313.303 251.387 313.716 252.247 313.769 253.34H311.489C311.449 252.847 311.249 252.453 310.889 252.16C310.529 251.867 310.043 251.72 309.429 251.72C308.829 251.72 308.369 251.833 308.049 252.06C307.729 252.287 307.569 252.587 307.569 252.96C307.569 253.253 307.676 253.5 307.889 253.7C308.103 253.9 308.363 254.06 308.669 254.18C308.976 254.287 309.429 254.427 310.029 254.6C310.829 254.813 311.483 255.033 311.989 255.26C312.509 255.473 312.956 255.793 313.329 256.22C313.703 256.647 313.896 257.213 313.909 257.92C313.909 258.547 313.736 259.107 313.389 259.6C313.043 260.093 312.549 260.48 311.909 260.76C311.283 261.04 310.543 261.18 309.689 261.18ZM336.368 249.98L332.948 261H330.548L328.328 252.86L326.108 261H323.708L320.268 249.98H322.588L324.888 258.84L327.228 249.98H329.608L331.848 258.8L334.128 249.98H336.368ZM339.232 248.52C338.819 248.52 338.472 248.38 338.192 248.1C337.912 247.82 337.772 247.473 337.772 247.06C337.772 246.647 337.912 246.3 338.192 246.02C338.472 245.74 338.819 245.6 339.232 245.6C339.632 245.6 339.972 245.74 340.252 246.02C340.532 246.3 340.672 246.647 340.672 247.06C340.672 247.473 340.532 247.82 340.252 248.1C339.972 248.38 339.632 248.52 339.232 248.52ZM340.352 249.98V261H338.072V249.98H340.352ZM346.006 251.84V257.94C346.006 258.353 346.099 258.653 346.286 258.84C346.486 259.013 346.819 259.1 347.286 259.1H348.686V261H346.886C345.859 261 345.072 260.76 344.526 260.28C343.979 259.8 343.706 259.02 343.706 257.94V251.84H342.406V249.98H343.706V247.24H346.006V249.98H348.686V251.84H346.006ZM356.487 249.8C357.327 249.8 358.074 249.98 358.727 250.34C359.394 250.7 359.914 251.233 360.287 251.94C360.674 252.647 360.867 253.5 360.867 254.5V261H358.607V254.84C358.607 253.853 358.36 253.1 357.867 252.58C357.374 252.047 356.7 251.78 355.847 251.78C354.994 251.78 354.314 252.047 353.807 252.58C353.314 253.1 353.067 253.853 353.067 254.84V261H350.787V246.2H353.067V251.26C353.454 250.793 353.94 250.433 354.527 250.18C355.127 249.927 355.78 249.8 356.487 249.8ZM42.617 279.84V285.94C42.617 286.353 42.7104 286.653 42.897 286.84C43.097 287.013 43.4304 287.1 43.897 287.1H45.297V289H43.497C42.4704 289 41.6837 288.76 41.137 288.28C40.5904 287.8 40.317 287.02 40.317 285.94V279.84H39.017V277.98H40.317V275.24H42.617V277.98H45.297V279.84H42.617ZM53.0984 277.8C53.9384 277.8 54.6851 277.98 55.3384 278.34C56.0051 278.7 56.5251 279.233 56.8984 279.94C57.2851 280.647 57.4784 281.5 57.4784 282.5V289H55.2184V282.84C55.2184 281.853 54.9718 281.1 54.4784 280.58C53.9851 280.047 53.3118 279.78 52.4584 279.78C51.6051 279.78 50.9251 280.047 50.4184 280.58C49.9251 281.1 49.6784 281.853 49.6784 282.84V289H47.3984V274.2H49.6784V279.26C50.0651 278.793 50.5518 278.433 51.1384 278.18C51.7384 277.927 52.3918 277.8 53.0984 277.8ZM70.4867 283.22C70.4867 283.633 70.4601 284.007 70.4067 284.34H61.9867C62.0534 285.22 62.3801 285.927 62.9667 286.46C63.5534 286.993 64.2734 287.26 65.1267 287.26C66.3534 287.26 67.2201 286.747 67.7267 285.72H70.1867C69.8534 286.733 69.2467 287.567 68.3667 288.22C67.5001 288.86 66.4201 289.18 65.1267 289.18C64.0734 289.18 63.1267 288.947 62.2867 288.48C61.4601 288 60.8067 287.333 60.3267 286.48C59.8601 285.613 59.6267 284.613 59.6267 283.48C59.6267 282.347 59.8534 281.353 60.3067 280.5C60.7734 279.633 61.4201 278.967 62.2467 278.5C63.0867 278.033 64.0467 277.8 65.1267 277.8C66.1667 277.8 67.0934 278.027 67.9067 278.48C68.7201 278.933 69.3534 279.573 69.8067 280.4C70.2601 281.213 70.4867 282.153 70.4867 283.22ZM68.1067 282.5C68.0934 281.66 67.7934 280.987 67.2067 280.48C66.6201 279.973 65.8934 279.72 65.0267 279.72C64.2401 279.72 63.5667 279.973 63.0067 280.48C62.4467 280.973 62.1134 281.647 62.0067 282.5H68.1067ZM86.1058 275.1V276.96H80.2058V281.06H84.8058V282.92H80.2058V289H77.9258V275.1H86.1058ZM89.3788 276.52C88.9654 276.52 88.6188 276.38 88.3388 276.1C88.0588 275.82 87.9188 275.473 87.9188 275.06C87.9188 274.647 88.0588 274.3 88.3388 274.02C88.6188 273.74 88.9654 273.6 89.3788 273.6C89.7788 273.6 90.1188 273.74 90.3988 274.02C90.6788 274.3 90.8188 274.647 90.8188 275.06C90.8188 275.473 90.6788 275.82 90.3988 276.1C90.1188 276.38 89.7788 276.52 89.3788 276.52ZM90.4988 277.98V289H88.2188V277.98H90.4988ZM99.0522 277.8C99.9189 277.8 100.692 277.98 101.372 278.34C102.066 278.7 102.606 279.233 102.992 279.94C103.379 280.647 103.572 281.5 103.572 282.5V289H101.312V282.84C101.312 281.853 101.066 281.1 100.572 280.58C100.079 280.047 99.4055 279.78 98.5522 279.78C97.6989 279.78 97.0189 280.047 96.5122 280.58C96.0189 281.1 95.7722 281.853 95.7722 282.84V289H93.4922V277.98H95.7722V279.24C96.1455 278.787 96.6189 278.433 97.1922 278.18C97.7789 277.927 98.3989 277.8 99.0522 277.8ZM105.72 283.44C105.72 282.333 105.947 281.353 106.4 280.5C106.867 279.647 107.494 278.987 108.28 278.52C109.08 278.04 109.96 277.8 110.92 277.8C111.787 277.8 112.54 277.973 113.18 278.32C113.834 278.653 114.354 279.073 114.74 279.58V277.98H117.04V289H114.74V287.36C114.354 287.88 113.827 288.313 113.16 288.66C112.494 289.007 111.734 289.18 110.88 289.18C109.934 289.18 109.067 288.94 108.28 288.46C107.494 287.967 106.867 287.287 106.4 286.42C105.947 285.54 105.72 284.547 105.72 283.44ZM114.74 283.48C114.74 282.72 114.58 282.06 114.26 281.5C113.954 280.94 113.547 280.513 113.04 280.22C112.534 279.927 111.987 279.78 111.4 279.78C110.814 279.78 110.267 279.927 109.76 280.22C109.254 280.5 108.84 280.92 108.52 281.48C108.214 282.027 108.06 282.68 108.06 283.44C108.06 284.2 108.214 284.867 108.52 285.44C108.84 286.013 109.254 286.453 109.76 286.76C110.28 287.053 110.827 287.2 111.4 287.2C111.987 287.2 112.534 287.053 113.04 286.76C113.547 286.467 113.954 286.04 114.26 285.48C114.58 284.907 114.74 284.24 114.74 283.48ZM125.595 277.8C126.462 277.8 127.235 277.98 127.915 278.34C128.608 278.7 129.148 279.233 129.535 279.94C129.922 280.647 130.115 281.5 130.115 282.5V289H127.855V282.84C127.855 281.853 127.608 281.1 127.115 280.58C126.622 280.047 125.948 279.78 125.095 279.78C124.242 279.78 123.562 280.047 123.055 280.58C122.562 281.1 122.315 281.853 122.315 282.84V289H120.035V277.98H122.315V279.24C122.688 278.787 123.162 278.433 123.735 278.18C124.322 277.927 124.942 277.8 125.595 277.8ZM132.263 283.48C132.263 282.347 132.49 281.353 132.943 280.5C133.41 279.633 134.05 278.967 134.863 278.5C135.677 278.033 136.61 277.8 137.663 277.8C138.997 277.8 140.097 278.12 140.963 278.76C141.843 279.387 142.437 280.287 142.743 281.46H140.283C140.083 280.913 139.763 280.487 139.323 280.18C138.883 279.873 138.33 279.72 137.663 279.72C136.73 279.72 135.983 280.053 135.423 280.72C134.877 281.373 134.603 282.293 134.603 283.48C134.603 284.667 134.877 285.593 135.423 286.26C135.983 286.927 136.73 287.26 137.663 287.26C138.983 287.26 139.857 286.68 140.283 285.52H142.743C142.423 286.64 141.823 287.533 140.943 288.2C140.063 288.853 138.97 289.18 137.663 289.18C136.61 289.18 135.677 288.947 134.863 288.48C134.05 288 133.41 287.333 132.943 286.48C132.49 285.613 132.263 284.613 132.263 283.48ZM146.176 276.52C145.762 276.52 145.416 276.38 145.136 276.1C144.856 275.82 144.716 275.473 144.716 275.06C144.716 274.647 144.856 274.3 145.136 274.02C145.416 273.74 145.762 273.6 146.176 273.6C146.576 273.6 146.916 273.74 147.196 274.02C147.476 274.3 147.616 274.647 147.616 275.06C147.616 275.473 147.476 275.82 147.196 276.1C146.916 276.38 146.576 276.52 146.176 276.52ZM147.296 277.98V289H145.016V277.98H147.296ZM149.529 283.44C149.529 282.333 149.756 281.353 150.209 280.5C150.676 279.647 151.302 278.987 152.089 278.52C152.889 278.04 153.769 277.8 154.729 277.8C155.596 277.8 156.349 277.973 156.989 278.32C157.642 278.653 158.162 279.073 158.549 279.58V277.98H160.849V289H158.549V287.36C158.162 287.88 157.636 288.313 156.969 288.66C156.302 289.007 155.542 289.18 154.689 289.18C153.742 289.18 152.876 288.94 152.089 288.46C151.302 287.967 150.676 287.287 150.209 286.42C149.756 285.54 149.529 284.547 149.529 283.44ZM158.549 283.48C158.549 282.72 158.389 282.06 158.069 281.5C157.762 280.94 157.356 280.513 156.849 280.22C156.342 279.927 155.796 279.78 155.209 279.78C154.622 279.78 154.076 279.927 153.569 280.22C153.062 280.5 152.649 280.92 152.329 281.48C152.022 282.027 151.869 282.68 151.869 283.44C151.869 284.2 152.022 284.867 152.329 285.44C152.649 286.013 153.062 286.453 153.569 286.76C154.089 287.053 154.636 287.2 155.209 287.2C155.796 287.2 156.342 287.053 156.849 286.76C157.356 286.467 157.762 286.04 158.069 285.48C158.389 284.907 158.549 284.24 158.549 283.48ZM166.124 274.2V289H163.844V274.2H166.124ZM181.753 281.86C182.499 281.993 183.133 282.387 183.653 283.04C184.173 283.693 184.433 284.433 184.433 285.26C184.433 285.967 184.246 286.607 183.873 287.18C183.513 287.74 182.986 288.187 182.293 288.52C181.599 288.84 180.793 289 179.873 289H174.313V275.1H179.613C180.559 275.1 181.373 275.26 182.053 275.58C182.733 275.9 183.246 276.333 183.593 276.88C183.939 277.413 184.112 278.013 184.112 278.68C184.112 279.48 183.899 280.147 183.473 280.68C183.046 281.213 182.473 281.607 181.753 281.86ZM176.593 280.94H179.413C180.159 280.94 180.739 280.773 181.153 280.44C181.579 280.093 181.793 279.6 181.793 278.96C181.793 278.333 181.579 277.847 181.153 277.5C180.739 277.14 180.159 276.96 179.413 276.96H176.593V280.94ZM179.673 287.14C180.446 287.14 181.053 286.953 181.493 286.58C181.933 286.207 182.153 285.687 182.153 285.02C182.153 284.34 181.919 283.8 181.453 283.4C180.986 283 180.366 282.8 179.593 282.8H176.593V287.14H179.673ZM196.89 277.98V289H194.61V287.7C194.25 288.153 193.777 288.513 193.19 288.78C192.617 289.033 192.003 289.16 191.35 289.16C190.483 289.16 189.703 288.98 189.01 288.62C188.33 288.26 187.79 287.727 187.39 287.02C187.003 286.313 186.81 285.46 186.81 284.46V277.98H189.07V284.12C189.07 285.107 189.317 285.867 189.81 286.4C190.303 286.92 190.977 287.18 191.83 287.18C192.683 287.18 193.357 286.92 193.85 286.4C194.357 285.867 194.61 285.107 194.61 284.12V277.98H196.89ZM202.178 279.58C202.512 279.02 202.952 278.587 203.498 278.28C204.058 277.96 204.718 277.8 205.478 277.8V280.16H204.898C204.005 280.16 203.325 280.387 202.858 280.84C202.405 281.293 202.178 282.08 202.178 283.2V289H199.898V277.98H202.178V279.58ZM206.814 283.44C206.814 282.333 207.041 281.353 207.494 280.5C207.961 279.647 208.588 278.987 209.374 278.52C210.174 278.04 211.061 277.8 212.034 277.8C212.754 277.8 213.461 277.96 214.154 278.28C214.861 278.587 215.421 279 215.834 279.52V274.2H218.134V289H215.834V287.34C215.461 287.873 214.941 288.313 214.274 288.66C213.621 289.007 212.868 289.18 212.014 289.18C211.054 289.18 210.174 288.94 209.374 288.46C208.588 287.967 207.961 287.287 207.494 286.42C207.041 285.54 206.814 284.547 206.814 283.44ZM215.834 283.48C215.834 282.72 215.674 282.06 215.354 281.5C215.048 280.94 214.641 280.513 214.134 280.22C213.628 279.927 213.081 279.78 212.494 279.78C211.908 279.78 211.361 279.927 210.854 280.22C210.348 280.5 209.934 280.92 209.614 281.48C209.308 282.027 209.154 282.68 209.154 283.44C209.154 284.2 209.308 284.867 209.614 285.44C209.934 286.013 210.348 286.453 210.854 286.76C211.374 287.053 211.921 287.2 212.494 287.2C213.081 287.2 213.628 287.053 214.134 286.76C214.641 286.467 215.048 286.04 215.354 285.48C215.674 284.907 215.834 284.24 215.834 283.48ZM231.229 283.22C231.229 283.633 231.202 284.007 231.149 284.34H222.729C222.796 285.22 223.122 285.927 223.709 286.46C224.296 286.993 225.016 287.26 225.869 287.26C227.096 287.26 227.962 286.747 228.469 285.72H230.929C230.596 286.733 229.989 287.567 229.109 288.22C228.242 288.86 227.162 289.18 225.869 289.18C224.816 289.18 223.869 288.947 223.029 288.48C222.202 288 221.549 287.333 221.069 286.48C220.602 285.613 220.369 284.613 220.369 283.48C220.369 282.347 220.596 281.353 221.049 280.5C221.516 279.633 222.162 278.967 222.989 278.5C223.829 278.033 224.789 277.8 225.869 277.8C226.909 277.8 227.836 278.027 228.649 278.48C229.462 278.933 230.096 279.573 230.549 280.4C231.002 281.213 231.229 282.153 231.229 283.22ZM228.849 282.5C228.836 281.66 228.536 280.987 227.949 280.48C227.362 279.973 226.636 279.72 225.769 279.72C224.982 279.72 224.309 279.973 223.749 280.48C223.189 280.973 222.856 281.647 222.749 282.5H228.849ZM239.033 277.8C239.899 277.8 240.673 277.98 241.353 278.34C242.046 278.7 242.586 279.233 242.973 279.94C243.359 280.647 243.553 281.5 243.553 282.5V289H241.293V282.84C241.293 281.853 241.046 281.1 240.553 280.58C240.059 280.047 239.386 279.78 238.533 279.78C237.679 279.78 236.999 280.047 236.493 280.58C235.999 281.1 235.753 281.853 235.753 282.84V289H233.473V277.98H235.753V279.24C236.126 278.787 236.599 278.433 237.173 278.18C237.759 277.927 238.379 277.8 239.033 277.8ZM256.436 289.18C255.396 289.18 254.456 288.947 253.616 288.48C252.776 288 252.116 287.333 251.636 286.48C251.156 285.613 250.916 284.613 250.916 283.48C250.916 282.36 251.163 281.367 251.656 280.5C252.15 279.633 252.823 278.967 253.676 278.5C254.53 278.033 255.483 277.8 256.536 277.8C257.59 277.8 258.543 278.033 259.396 278.5C260.25 278.967 260.923 279.633 261.416 280.5C261.91 281.367 262.156 282.36 262.156 283.48C262.156 284.6 261.903 285.593 261.396 286.46C260.89 287.327 260.196 288 259.316 288.48C258.45 288.947 257.49 289.18 256.436 289.18ZM256.436 287.2C257.023 287.2 257.57 287.06 258.076 286.78C258.596 286.5 259.016 286.08 259.336 285.52C259.656 284.96 259.816 284.28 259.816 283.48C259.816 282.68 259.663 282.007 259.356 281.46C259.05 280.9 258.643 280.48 258.136 280.2C257.63 279.92 257.083 279.78 256.496 279.78C255.91 279.78 255.363 279.92 254.856 280.2C254.363 280.48 253.97 280.9 253.676 281.46C253.383 282.007 253.236 282.68 253.236 283.48C253.236 284.667 253.536 285.587 254.136 286.24C254.75 286.88 255.516 287.2 256.436 287.2ZM269.03 279.84H266.99V289H264.69V279.84H263.39V277.98H264.69V277.2C264.69 275.933 265.023 275.013 265.69 274.44C266.37 273.853 267.43 273.56 268.87 273.56V275.46C268.177 275.46 267.69 275.593 267.41 275.86C267.13 276.113 266.99 276.56 266.99 277.2V277.98H269.03V279.84ZM287.346 275.1V289H285.066V282.92H278.526V289H276.246V275.1H278.526V281.06H285.066V275.1H287.346ZM295.128 289.18C294.088 289.18 293.148 288.947 292.308 288.48C291.468 288 290.808 287.333 290.328 286.48C289.848 285.613 289.608 284.613 289.608 283.48C289.608 282.36 289.854 281.367 290.348 280.5C290.841 279.633 291.514 278.967 292.368 278.5C293.221 278.033 294.174 277.8 295.228 277.8C296.281 277.8 297.234 278.033 298.088 278.5C298.941 278.967 299.614 279.633 300.108 280.5C300.601 281.367 300.848 282.36 300.848 283.48C300.848 284.6 300.594 285.593 300.088 286.46C299.581 287.327 298.888 288 298.008 288.48C297.141 288.947 296.181 289.18 295.128 289.18ZM295.128 287.2C295.714 287.2 296.261 287.06 296.768 286.78C297.288 286.5 297.708 286.08 298.028 285.52C298.348 284.96 298.508 284.28 298.508 283.48C298.508 282.68 298.354 282.007 298.048 281.46C297.741 280.9 297.334 280.48 296.828 280.2C296.321 279.92 295.774 279.78 295.188 279.78C294.601 279.78 294.054 279.92 293.548 280.2C293.054 280.48 292.661 280.9 292.368 281.46C292.074 282.007 291.928 282.68 291.928 283.48C291.928 284.667 292.228 285.587 292.828 286.24C293.441 286.88 294.208 287.2 295.128 287.2ZM307.102 289.18C306.235 289.18 305.455 289.027 304.762 288.72C304.082 288.4 303.542 287.973 303.142 287.44C302.742 286.893 302.528 286.287 302.502 285.62H304.862C304.902 286.087 305.122 286.48 305.522 286.8C305.935 287.107 306.448 287.26 307.062 287.26C307.702 287.26 308.195 287.14 308.542 286.9C308.902 286.647 309.082 286.327 309.082 285.94C309.082 285.527 308.882 285.22 308.482 285.02C308.095 284.82 307.475 284.6 306.622 284.36C305.795 284.133 305.122 283.913 304.602 283.7C304.082 283.487 303.628 283.16 303.242 282.72C302.868 282.28 302.682 281.7 302.682 280.98C302.682 280.393 302.855 279.86 303.202 279.38C303.548 278.887 304.042 278.5 304.682 278.22C305.335 277.94 306.082 277.8 306.922 277.8C308.175 277.8 309.182 278.12 309.942 278.76C310.715 279.387 311.128 280.247 311.182 281.34H308.902C308.862 280.847 308.662 280.453 308.302 280.16C307.942 279.867 307.455 279.72 306.842 279.72C306.242 279.72 305.782 279.833 305.462 280.06C305.142 280.287 304.982 280.587 304.982 280.96C304.982 281.253 305.088 281.5 305.302 281.7C305.515 281.9 305.775 282.06 306.082 282.18C306.388 282.287 306.842 282.427 307.442 282.6C308.242 282.813 308.895 283.033 309.402 283.26C309.922 283.473 310.368 283.793 310.742 284.22C311.115 284.647 311.308 285.213 311.322 285.92C311.322 286.547 311.148 287.107 310.802 287.6C310.455 288.093 309.962 288.48 309.322 288.76C308.695 289.04 307.955 289.18 307.102 289.18ZM316.445 279.84V285.94C316.445 286.353 316.538 286.653 316.725 286.84C316.925 287.013 317.258 287.1 317.725 287.1H319.125V289H317.325C316.298 289 315.512 288.76 314.965 288.28C314.418 287.8 314.145 287.02 314.145 285.94V279.84H312.845V277.98H314.145V275.24H316.445V277.98H319.125V279.84H316.445ZM322.387 276.52C321.973 276.52 321.627 276.38 321.347 276.1C321.067 275.82 320.927 275.473 320.927 275.06C320.927 274.647 321.067 274.3 321.347 274.02C321.627 273.74 321.973 273.6 322.387 273.6C322.787 273.6 323.127 273.74 323.407 274.02C323.687 274.3 323.827 274.647 323.827 275.06C323.827 275.473 323.687 275.82 323.407 276.1C323.127 276.38 322.787 276.52 322.387 276.52ZM323.507 277.98V289H321.227V277.98H323.507ZM332.06 277.8C332.927 277.8 333.7 277.98 334.38 278.34C335.073 278.7 335.613 279.233 336 279.94C336.387 280.647 336.58 281.5 336.58 282.5V289H334.32V282.84C334.32 281.853 334.073 281.1 333.58 280.58C333.087 280.047 332.413 279.78 331.56 279.78C330.707 279.78 330.027 280.047 329.52 280.58C329.027 281.1 328.78 281.853 328.78 282.84V289H326.5V277.98H328.78V279.24C329.153 278.787 329.627 278.433 330.2 278.18C330.787 277.927 331.407 277.8 332.06 277.8ZM343.928 277.8C344.782 277.8 345.535 277.973 346.188 278.32C346.855 278.653 347.375 279.073 347.748 279.58V277.98H350.048V289.18C350.048 290.193 349.835 291.093 349.408 291.88C348.982 292.68 348.362 293.307 347.548 293.76C346.748 294.213 345.788 294.44 344.668 294.44C343.175 294.44 341.935 294.087 340.948 293.38C339.962 292.687 339.402 291.74 339.268 290.54H341.528C341.702 291.113 342.068 291.573 342.628 291.92C343.202 292.28 343.882 292.46 344.668 292.46C345.588 292.46 346.328 292.18 346.888 291.62C347.462 291.06 347.748 290.247 347.748 289.18V287.34C347.362 287.86 346.835 288.3 346.168 288.66C345.515 289.007 344.768 289.18 343.928 289.18C342.968 289.18 342.088 288.94 341.288 288.46C340.502 287.967 339.875 287.287 339.408 286.42C338.955 285.54 338.728 284.547 338.728 283.44C338.728 282.333 338.955 281.353 339.408 280.5C339.875 279.647 340.502 278.987 341.288 278.52C342.088 278.04 342.968 277.8 343.928 277.8ZM347.748 283.48C347.748 282.72 347.588 282.06 347.268 281.5C346.962 280.94 346.555 280.513 346.048 280.22C345.542 279.927 344.995 279.78 344.408 279.78C343.822 279.78 343.275 279.927 342.768 280.22C342.262 280.5 341.848 280.92 341.528 281.48C341.222 282.027 341.068 282.68 341.068 283.44C341.068 284.2 341.222 284.867 341.528 285.44C341.848 286.013 342.262 286.453 342.768 286.76C343.288 287.053 343.835 287.2 344.408 287.2C344.995 287.2 345.542 287.053 346.048 286.76C346.555 286.467 346.962 286.04 347.268 285.48C347.588 284.907 347.748 284.24 347.748 283.48ZM144.434 315.16H149.134V317H142.154V303.1H144.434V315.16ZM152.201 304.52C151.788 304.52 151.441 304.38 151.161 304.1C150.881 303.82 150.741 303.473 150.741 303.06C150.741 302.647 150.881 302.3 151.161 302.02C151.441 301.74 151.788 301.6 152.201 301.6C152.601 301.6 152.941 301.74 153.221 302.02C153.501 302.3 153.641 302.647 153.641 303.06C153.641 303.473 153.501 303.82 153.221 304.1C152.941 304.38 152.601 304.52 152.201 304.52ZM153.321 305.98V317H151.041V305.98H153.321ZM160.574 314.96L163.694 305.98H166.114L161.914 317H159.194L155.014 305.98H157.454L160.574 314.96ZM177.938 311.22C177.938 311.633 177.911 312.007 177.858 312.34H169.438C169.505 313.22 169.831 313.927 170.418 314.46C171.005 314.993 171.725 315.26 172.578 315.26C173.805 315.26 174.671 314.747 175.178 313.72H177.638C177.305 314.733 176.698 315.567 175.818 316.22C174.951 316.86 173.871 317.18 172.578 317.18C171.525 317.18 170.578 316.947 169.738 316.48C168.911 316 168.258 315.333 167.778 314.48C167.311 313.613 167.078 312.613 167.078 311.48C167.078 310.347 167.305 309.353 167.758 308.5C168.225 307.633 168.871 306.967 169.698 306.5C170.538 306.033 171.498 305.8 172.578 305.8C173.618 305.8 174.545 306.027 175.358 306.48C176.171 306.933 176.805 307.573 177.258 308.4C177.711 309.213 177.938 310.153 177.938 311.22ZM175.558 310.5C175.545 309.66 175.245 308.987 174.658 308.48C174.071 307.973 173.345 307.72 172.478 307.72C171.691 307.72 171.018 307.973 170.458 308.48C169.898 308.973 169.565 309.647 169.458 310.5H175.558ZM187.657 304.94V309.02H192.457V310.88H187.657V315.14H193.057V317H185.377V303.08H193.057V304.94H187.657ZM200.125 314.96L203.245 305.98H205.665L201.465 317H198.745L194.565 305.98H197.005L200.125 314.96ZM217.489 311.22C217.489 311.633 217.462 312.007 217.409 312.34H208.989C209.055 313.22 209.382 313.927 209.969 314.46C210.555 314.993 211.275 315.26 212.129 315.26C213.355 315.26 214.222 314.747 214.729 313.72H217.189C216.855 314.733 216.249 315.567 215.369 316.22C214.502 316.86 213.422 317.18 212.129 317.18C211.075 317.18 210.129 316.947 209.289 316.48C208.462 316 207.809 315.333 207.329 314.48C206.862 313.613 206.629 312.613 206.629 311.48C206.629 310.347 206.855 309.353 207.309 308.5C207.775 307.633 208.422 306.967 209.249 306.5C210.089 306.033 211.049 305.8 212.129 305.8C213.169 305.8 214.095 306.027 214.909 306.48C215.722 306.933 216.355 307.573 216.809 308.4C217.262 309.213 217.489 310.153 217.489 311.22ZM215.109 310.5C215.095 309.66 214.795 308.987 214.209 308.48C213.622 307.973 212.895 307.72 212.029 307.72C211.242 307.72 210.569 307.973 210.009 308.48C209.449 308.973 209.115 309.647 209.009 310.5H215.109ZM225.292 305.8C226.159 305.8 226.932 305.98 227.612 306.34C228.306 306.7 228.846 307.233 229.232 307.94C229.619 308.647 229.812 309.5 229.812 310.5V317H227.552V310.84C227.552 309.853 227.306 309.1 226.812 308.58C226.319 308.047 225.646 307.78 224.792 307.78C223.939 307.78 223.259 308.047 222.752 308.58C222.259 309.1 222.012 309.853 222.012 310.84V317H219.732V305.98H222.012V307.24C222.386 306.787 222.859 306.433 223.432 306.18C224.019 305.927 224.639 305.8 225.292 305.8ZM235.381 307.84V313.94C235.381 314.353 235.474 314.653 235.661 314.84C235.861 315.013 236.194 315.1 236.661 315.1H238.061V317H236.261C235.234 317 234.447 316.76 233.901 316.28C233.354 315.8 233.081 315.02 233.081 313.94V307.84H231.781V305.98H233.081V303.24H235.381V305.98H238.061V307.84H235.381ZM244.162 317.18C243.295 317.18 242.515 317.027 241.822 316.72C241.142 316.4 240.602 315.973 240.202 315.44C239.802 314.893 239.589 314.287 239.562 313.62H241.922C241.962 314.087 242.182 314.48 242.582 314.8C242.995 315.107 243.509 315.26 244.122 315.26C244.762 315.26 245.255 315.14 245.602 314.9C245.962 314.647 246.142 314.327 246.142 313.94C246.142 313.527 245.942 313.22 245.542 313.02C245.155 312.82 244.535 312.6 243.682 312.36C242.855 312.133 242.182 311.913 241.662 311.7C241.142 311.487 240.689 311.16 240.302 310.72C239.929 310.28 239.742 309.7 239.742 308.98C239.742 308.393 239.915 307.86 240.262 307.38C240.609 306.887 241.102 306.5 241.742 306.22C242.395 305.94 243.142 305.8 243.982 305.8C245.235 305.8 246.242 306.12 247.002 306.76C247.775 307.387 248.189 308.247 248.242 309.34H245.962C245.922 308.847 245.722 308.453 245.362 308.16C245.002 307.867 244.515 307.72 243.902 307.72C243.302 307.72 242.842 307.833 242.522 308.06C242.202 308.287 242.042 308.587 242.042 308.96C242.042 309.253 242.149 309.5 242.362 309.7C242.575 309.9 242.835 310.06 243.142 310.18C243.449 310.287 243.902 310.427 244.502 310.6C245.302 310.813 245.955 311.033 246.462 311.26C246.982 311.473 247.429 311.793 247.802 312.22C248.175 312.647 248.369 313.213 248.382 313.92C248.382 314.547 248.209 315.107 247.862 315.6C247.515 316.093 247.022 316.48 246.382 316.76C245.755 317.04 245.015 317.18 244.162 317.18Z" fill="white"/>
<path d="M3107 3283C3107 2510.95 2800.31 1770.53 2254.39 1224.61C1708.47 678.694 968.045 372 196 372C-576.045 372 -1316.47 678.694 -1862.39 1224.61C-2408.31 1770.53 -2715 2510.95 -2715 3283L196 3283H3107Z" fill="white"/>
</g>
<defs>
<filter id="filter0_dddddd_10392_129698" x="-412.265" y="-360.224" width="787.062" height="792.357" filterUnits="userSpaceOnUse" color-interpolation-filters="sRGB">
<feFlood flood-opacity="0" result="BackgroundImageFix"/>
<feColorMatrix in="SourceAlpha" type="matrix" values="0 0 0 0 0 0 0 0 0 0 0 0 0 0 0 0 0 0 127 0" result="hardAlpha"/>
<feOffset dy="0.376599"/>
<feGaussianBlur stdDeviation="0.300357"/>
<feColorMatrix type="matrix" values="0 0 0 0 0 0 0 0 0 0 0 0 0 0 0 0 0 0 0.195 0"/>
<feBlend mode="normal" in2="BackgroundImageFix" result="effect1_dropShadow_10392_129698"/>
<feColorMatrix in="SourceAlpha" type="matrix" values="0 0 0 0 0 0 0 0 0 0 0 0 0 0 0 0 0 0 127 0" result="hardAlpha"/>
<feOffset dy="1.65704"/>
<feGaussianBlur stdDeviation="0.621916"/>
<feColorMatrix type="matrix" values="0 0 0 0 0 0 0 0 0 0 0 0 0 0 0 0 0 0 0.318 0"/>
<feBlend mode="normal" in2="effect1_dropShadow_10392_129698" result="effect2_dropShadow_10392_129698"/>
<feColorMatrix in="SourceAlpha" type="matrix" values="0 0 0 0 0 0 0 0 0 0 0 0 0 0 0 0 0 0 127 0" result="hardAlpha"/>
<feOffset dy="4.06727"/>
<feGaussianBlur stdDeviation="1.2403"/>
<feColorMatrix type="matrix" values="0 0 0 0 0 0 0 0 0 0 0 0 0 0 0 0 0 0 0.405 0"/>
<feBlend mode="normal" in2="effect2_dropShadow_10392_129698" result="effect3_dropShadow_10392_129698"/>
<feColorMatrix in="SourceAlpha" type="matrix" values="0 0 0 0 0 0 0 0 0 0 0 0 0 0 0 0 0 0 127 0" result="hardAlpha"/>
<feOffset dy="7.83326"/>
<feGaussianBlur stdDeviation="2.43112"/>
<feColorMatrix type="matrix" values="0 0 0 0 0 0 0 0 0 0 0 0 0 0 0 0 0 0 0.492 0"/>
<feBlend mode="normal" in2="effect3_dropShadow_10392_129698" result="effect4_dropShadow_10392_129698"/>
<feColorMatrix in="SourceAlpha" type="matrix" values="0 0 0 0 0 0 0 0 0 0 0 0 0 0 0 0 0 0 127 0" result="hardAlpha"/>
<feOffset dy="13.181"/>
<feGaussianBlur stdDeviation="4.47002"/>
<feColorMatrix type="matrix" values="0 0 0 0 0 0 0 0 0 0 0 0 0 0 0 0 0 0 0.615 0"/>
<feBlend mode="normal" in2="effect4_dropShadow_10392_129698" result="effect5_dropShadow_10392_129698"/>
<feColorMatrix in="SourceAlpha" type="matrix" values="0 0 0 0 0 0 0 0 0 0 0 0 0 0 0 0 0 0 127 0" result="hardAlpha"/>
<feOffset dy="20.3364"/>
<feGaussianBlur stdDeviation="7.6326"/>
<feColorMatrix type="matrix" values="0 0 0 0 0 0 0 0 0 0 0 0 0 0 0 0 0 0 0.81 0"/>
<feBlend mode="normal" in2="effect5_dropShadow_10392_129698" result="effect6_dropShadow_10392_129698"/>
<feBlend mode="normal" in="SourceGraphic" in2="effect6_dropShadow_10392_129698" result="shape"/>
</filter>
<filter id="filter1_dddddd_10392_129698" x="14.7348" y="76.7758" width="787.062" height="792.357" filterUnits="userSpaceOnUse" color-interpolation-filters="sRGB">
<feFlood flood-opacity="0" result="BackgroundImageFix"/>
<feColorMatrix in="SourceAlpha" type="matrix" values="0 0 0 0 0 0 0 0 0 0 0 0 0 0 0 0 0 0 127 0" result="hardAlpha"/>
<feOffset dy="0.376599"/>
<feGaussianBlur stdDeviation="0.300357"/>
<feColorMatrix type="matrix" values="0 0 0 0 0 0 0 0 0 0 0 0 0 0 0 0 0 0 0.195 0"/>
<feBlend mode="normal" in2="BackgroundImageFix" result="effect1_dropShadow_10392_129698"/>
<feColorMatrix in="SourceAlpha" type="matrix" values="0 0 0 0 0 0 0 0 0 0 0 0 0 0 0 0 0 0 127 0" result="hardAlpha"/>
<feOffset dy="1.65704"/>
<feGaussianBlur stdDeviation="0.621916"/>
<feColorMatrix type="matrix" values="0 0 0 0 0 0 0 0 0 0 0 0 0 0 0 0 0 0 0.318 0"/>
<feBlend mode="normal" in2="effect1_dropShadow_10392_129698" result="effect2_dropShadow_10392_129698"/>
<feColorMatrix in="SourceAlpha" type="matrix" values="0 0 0 0 0 0 0 0 0 0 0 0 0 0 0 0 0 0 127 0" result="hardAlpha"/>
<feOffset dy="4.06727"/>
<feGaussianBlur stdDeviation="1.2403"/>
<feColorMatrix type="matrix" values="0 0 0 0 0 0 0 0 0 0 0 0 0 0 0 0 0 0 0.405 0"/>
<feBlend mode="normal" in2="effect2_dropShadow_10392_129698" result="effect3_dropShadow_10392_129698"/>
<feColorMatrix in="SourceAlpha" type="matrix" values="0 0 0 0 0 0 0 0 0 0 0 0 0 0 0 0 0 0 127 0" result="hardAlpha"/>
<feOffset dy="7.83326"/>
<feGaussianBlur stdDeviation="2.43112"/>
<feColorMatrix type="matrix" values="0 0 0 0 0 0 0 0 0 0 0 0 0 0 0 0 0 0 0.492 0"/>
<feBlend mode="normal" in2="effect3_dropShadow_10392_129698" result="effect4_dropShadow_10392_129698"/>
<feColorMatrix in="SourceAlpha" type="matrix" values="0 0 0 0 0 0 0 0 0 0 0 0 0 0 0 0 0 0 127 0" result="hardAlpha"/>
<feOffset dy="13.181"/>
<feGaussianBlur stdDeviation="4.47002"/>
<feColorMatrix type="matrix" values="0 0 0 0 0 0 0 0 0 0 0 0 0 0 0 0 0 0 0.615 0"/>
<feBlend mode="normal" in2="effect4_dropShadow_10392_129698" result="effect5_dropShadow_10392_129698"/>
<feColorMatrix in="SourceAlpha" type="matrix" values="0 0 0 0 0 0 0 0 0 0 0 0 0 0 0 0 0 0 127 0" result="hardAlpha"/>
<feOffset dy="20.3364"/>
<feGaussianBlur stdDeviation="7.6326"/>
<feColorMatrix type="matrix" values="0 0 0 0 0 0 0 0 0 0 0 0 0 0 0 0 0 0 0.81 0"/>
<feBlend mode="normal" in2="effect5_dropShadow_10392_129698" result="effect6_dropShadow_10392_129698"/>
<feBlend mode="normal" in="SourceGraphic" in2="effect6_dropShadow_10392_129698" result="shape"/>
</filter>
<radialGradient id="paint0_radial_10392_129698" cx="0" cy="0" r="1" gradientUnits="userSpaceOnUse" gradientTransform="translate(329.062 432.954) rotate(-107.205) scale(453.235 3224.66)">
<stop stop-color="#0046CC"/>
<stop offset="1" stop-color="#0057FF"/>
</radialGradient>
<linearGradient id="paint1_linear_10392_129698" x1="113.081" y1="86.8398" x2="282.867" y2="88.0911" gradientUnits="userSpaceOnUse">
<stop stop-color="#E9E9E9"/>
<stop offset="0.2" stop-color="#F5F5F5"/>
<stop offset="0.4" stop-color="#FDFDFD"/>
<stop offset="0.8" stop-color="white"/>
</linearGradient>
<linearGradient id="paint2_linear_10392_129698" x1="276.772" y1="386.397" x2="107.081" y2="385.146" gradientUnits="userSpaceOnUse">
<stop stop-color="#E9E9E9"/>
<stop offset="0.2" stop-color="#F5F5F5"/>
<stop offset="0.4" stop-color="#FDFDFD"/>
<stop offset="0.8" stop-color="white"/>
</linearGradient>
<clipPath id="clip0_10392_129698">
<rect width="390" height="396" fill="white"/>
</clipPath>
<clipPath id="clip1_10392_129698">
<rect width="534.949" height="534.949" fill="white" transform="matrix(-0.707107 -0.707107 -0.707107 0.707107 359.531 18.2656)"/>
</clipPath>
<clipPath id="clip2_10392_129698">
<rect width="534.949" height="534.949" fill="white" transform="matrix(-0.707107 -0.707107 -0.707107 0.707107 786.531 455.266)"/>
</clipPath>
</defs>
</svg>
