<svg width="1440" height="473" viewBox="0 0 1440 473" fill="none" xmlns="http://www.w3.org/2000/svg">
<g clip-path="url(#clip0_10392_130714)">
<rect width="1440" height="473" fill="url(#paint0_radial_10392_130714)"/>
<g opacity="0.04" clip-path="url(#clip1_10392_130714)" filter="url(#filter0_dddddd_10392_130714)">
<path d="M-138.534 36.2439L-138.534 61.4616L-138.486 123.014C-138.534 131.34 -131.796 138.077 -123.471 138.029L-0.365909 138.029L-0.365899 36.1957L-138.486 36.1957L-138.534 36.2439Z" fill="#DEDEDE"/>
<path d="M-36.72 -101.875L-36.72 -0.0417536L101.4 -0.0417536L101.4 -87.4375C101.111 -95.3301 94.8067 -101.634 86.9142 -101.923L42.9276 -101.923L-0.433443 -101.875L-36.7681 -101.923L-36.72 -101.875Z" fill="#DEDEDE"/>
<path d="M-138.582 -240.046L-138.63 -0.0447861L-138.582 36.2899L-138.582 61.5076L-138.534 123.06C-138.582 131.386 -131.845 138.123 -123.519 138.075L-36.7488 138.027L-36.7488 36.1936L-36.7007 -0.141044L-36.7006 -101.974L-36.7488 -240.142L-138.582 -240.142L-138.582 -240.046Z" fill="white"/>
<path d="M239.656 36.2548V138.14H101.495V36.2548H239.656Z" fill="url(#paint1_linear_10392_130714)"/>
<path d="M-0.4218 -101.876L-0.421795 -0.0422732L-0.37368 36.2924L-0.373653 138.126L-0.325526 276.294L101.508 276.294L101.46 138.126L101.46 36.2924L101.412 -0.0422687L101.412 -86.8605C101.412 -87.053 101.363 -87.1974 101.363 -87.3899C101.075 -95.2824 94.7703 -101.587 86.8777 -101.876C86.6852 -101.876 86.5408 -101.924 86.3483 -101.924L42.9392 -101.924L-0.4218 -101.876Z" fill="white"/>
</g>
<g opacity="0.04" clip-path="url(#clip2_10392_130714)" filter="url(#filter1_dddddd_10392_130714)">
<path d="M1338.47 403.246L1338.47 428.464L1338.51 490.016C1338.47 498.342 1345.2 505.079 1353.53 505.031L1476.63 505.031L1476.63 403.198L1338.51 403.198L1338.47 403.246Z" fill="#DEDEDE"/>
<path d="M1338.45 265.03V366.915H1200.29V265.03H1338.45Z" fill="url(#paint2_linear_10392_130714)"/>
<path d="M1440.28 265.127L1440.28 366.96H1578.4L1578.4 279.564C1578.11 271.672 1571.81 265.367 1563.91 265.079L1519.93 265.079L1476.57 265.127L1440.23 265.079L1440.28 265.127Z" fill="#DEDEDE"/>
<path d="M1338.42 126.959L1338.37 366.961L1338.42 403.296L1338.42 428.513L1338.47 490.066C1338.42 498.391 1345.16 505.129 1353.48 505.081L1440.25 505.033L1440.25 403.199L1440.3 366.865L1440.3 265.031L1440.25 126.863L1338.42 126.863L1338.42 126.959Z" fill="white"/>
<path d="M1476.58 265.12L1476.58 366.953L1476.63 403.288L1476.63 505.121L1476.67 643.289L1578.51 643.289L1578.46 505.121L1578.46 403.288L1578.41 366.953L1578.41 280.135C1578.41 279.942 1578.36 279.798 1578.36 279.605C1578.07 271.713 1571.77 265.408 1563.88 265.12C1563.69 265.12 1563.54 265.071 1563.35 265.071L1519.94 265.071L1476.58 265.12Z" fill="white"/>
</g>
<path d="M469.441 97.328V104.56H457.537V142H448.577V104.56H436.673V97.328H469.441ZM495.947 106.032C498.635 106.032 501.024 106.629 503.115 107.824C505.205 108.976 506.827 110.704 507.979 113.008C509.173 115.269 509.771 118 509.771 121.2V142H500.811V122.416C500.811 119.6 500.107 117.445 498.699 115.952C497.291 114.416 495.371 113.648 492.939 113.648C490.464 113.648 488.501 114.416 487.051 115.952C485.643 117.445 484.939 119.6 484.939 122.416V142H475.979V94.64H484.939V110.96C486.091 109.424 487.627 108.229 489.547 107.376C491.467 106.48 493.6 106.032 495.947 106.032ZM551.251 123.504C551.251 124.784 551.166 125.936 550.995 126.96H525.075C525.288 129.52 526.184 131.525 527.763 132.976C529.342 134.427 531.283 135.152 533.587 135.152C536.915 135.152 539.283 133.723 540.691 130.864H550.355C549.331 134.277 547.368 137.093 544.467 139.312C541.566 141.488 538.003 142.576 533.779 142.576C530.366 142.576 527.294 141.829 524.563 140.336C521.875 138.8 519.763 136.645 518.227 133.872C516.734 131.099 515.987 127.899 515.987 124.272C515.987 120.603 516.734 117.381 518.227 114.608C519.72 111.835 521.811 109.701 524.499 108.208C527.187 106.715 530.28 105.968 533.779 105.968C537.15 105.968 540.158 106.693 542.803 108.144C545.491 109.595 547.56 111.664 549.011 114.352C550.504 116.997 551.251 120.048 551.251 123.504ZM541.971 120.944C541.928 118.64 541.096 116.805 539.475 115.44C537.854 114.032 535.87 113.328 533.523 113.328C531.304 113.328 529.427 114.011 527.891 115.376C526.398 116.699 525.48 118.555 525.139 120.944H541.971ZM603.441 97.328V104.56H591.537V142H582.577V104.56H570.673V97.328H603.441ZM659.131 106.544L648.763 142H639.099L632.635 117.232L626.171 142H616.443L606.011 106.544H615.099L621.371 133.552L628.155 106.544H637.627L644.283 133.488L650.555 106.544H659.131ZM679.723 142.576C676.309 142.576 673.237 141.829 670.507 140.336C667.776 138.8 665.621 136.645 664.043 133.872C662.507 131.099 661.739 127.899 661.739 124.272C661.739 120.645 662.528 117.445 664.107 114.672C665.728 111.899 667.925 109.765 670.699 108.272C673.472 106.736 676.565 105.968 679.979 105.968C683.392 105.968 686.485 106.736 689.259 108.272C692.032 109.765 694.208 111.899 695.787 114.672C697.408 117.445 698.219 120.645 698.219 124.272C698.219 127.899 697.387 131.099 695.722 133.872C694.101 136.645 691.883 138.8 689.067 140.336C686.293 141.829 683.179 142.576 679.723 142.576ZM679.723 134.768C681.344 134.768 682.859 134.384 684.267 133.616C685.717 132.805 686.869 131.611 687.723 130.032C688.576 128.453 689.003 126.533 689.003 124.272C689.003 120.901 688.107 118.32 686.315 116.528C684.565 114.693 682.411 113.776 679.851 113.776C677.291 113.776 675.136 114.693 673.387 116.528C671.68 118.32 670.827 120.901 670.827 124.272C670.827 127.643 671.659 130.245 673.323 132.08C675.029 133.872 677.163 134.768 679.723 134.768ZM715.223 113.904V131.056C715.223 132.251 715.5 133.125 716.055 133.68C716.652 134.192 717.634 134.448 718.999 134.448H723.159V142H717.527C709.975 142 706.199 138.331 706.199 130.992V113.904H701.975V106.544H706.199V97.776H715.223V106.544H723.159V113.904H715.223ZM734.148 102.32C732.569 102.32 731.246 101.829 730.18 100.848C729.156 99.824 728.644 98.5653 728.644 97.072C728.644 95.5787 729.156 94.3413 730.18 93.36C731.246 92.336 732.569 91.824 734.148 91.824C735.726 91.824 737.028 92.336 738.052 93.36C739.118 94.3413 739.652 95.5787 739.652 97.072C739.652 98.5653 739.118 99.824 738.052 100.848C737.028 101.829 735.726 102.32 734.148 102.32ZM738.564 106.544V142H729.604V106.544H738.564ZM767 142L759.704 130.992L753.24 142H743.64L755.224 124.208L743.512 106.544H753.624L760.856 117.488L767.384 106.544H776.984L765.336 124.208L777.112 142H767ZM801.563 142L794.267 130.992L787.803 142H778.203L789.787 124.208L778.075 106.544H788.187L795.419 117.488L801.947 106.544H811.547L799.899 124.208L811.675 142H801.563ZM840.751 104.56V115.76H855.791V122.864H840.751V134.704H857.711V142H831.791V97.264H857.711V104.56H840.751ZM880.638 133.744L889.598 106.544H899.134L886.014 142H875.134L862.078 106.544H871.678L880.638 133.744ZM937.126 123.504C937.126 124.784 937.041 125.936 936.87 126.96H910.95C911.163 129.52 912.059 131.525 913.638 132.976C915.217 134.427 917.158 135.152 919.462 135.152C922.79 135.152 925.158 133.723 926.566 130.864H936.23C935.206 134.277 933.243 137.093 930.342 139.312C927.441 141.488 923.878 142.576 919.654 142.576C916.241 142.576 913.169 141.829 910.438 140.336C907.75 138.8 905.638 136.645 904.102 133.872C902.609 131.099 901.862 127.899 901.862 124.272C901.862 120.603 902.609 117.381 904.102 114.608C905.595 111.835 907.686 109.701 910.374 108.208C913.062 106.715 916.155 105.968 919.654 105.968C923.025 105.968 926.033 106.693 928.678 108.144C931.366 109.595 933.435 111.664 934.886 114.352C936.379 116.997 937.126 120.048 937.126 123.504ZM927.846 120.944C927.803 118.64 926.971 116.805 925.35 115.44C923.729 114.032 921.745 113.328 919.398 113.328C917.179 113.328 915.302 114.011 913.766 115.376C912.273 116.699 911.355 118.555 911.014 120.944H927.846ZM963.314 106.032C967.538 106.032 970.951 107.376 973.554 110.064C976.157 112.709 977.458 116.421 977.458 121.2V142H968.498V122.416C968.498 119.6 967.794 117.445 966.386 115.952C964.978 114.416 963.058 113.648 960.626 113.648C958.151 113.648 956.189 114.416 954.738 115.952C953.33 117.445 952.626 119.6 952.626 122.416V142H943.666V106.544H952.626V110.96C953.821 109.424 955.335 108.229 957.17 107.376C959.047 106.48 961.095 106.032 963.314 106.032ZM996.411 113.904V131.056C996.411 132.251 996.688 133.125 997.243 133.68C997.84 134.192 998.821 134.448 1000.19 134.448H1004.35V142H998.715C991.163 142 987.387 138.331 987.387 130.992V113.904H983.163V106.544H987.387V97.776H996.411V106.544H1004.35V113.904H996.411ZM509.459 199.6C509.459 195.205 510.44 191.28 512.403 187.824C514.408 184.325 517.117 181.616 520.531 179.696C523.987 177.733 527.848 176.752 532.115 176.752C537.107 176.752 541.48 178.032 545.235 180.592C548.989 183.152 551.613 186.693 553.107 191.216H542.803C541.779 189.083 540.328 187.483 538.451 186.416C536.616 185.349 534.483 184.816 532.051 184.816C529.448 184.816 527.123 185.435 525.075 186.672C523.069 187.867 521.491 189.573 520.339 191.792C519.229 194.011 518.675 196.613 518.675 199.6C518.675 202.544 519.229 205.147 520.339 207.408C521.491 209.627 523.069 211.355 525.075 212.592C527.123 213.787 529.448 214.384 532.051 214.384C534.483 214.384 536.616 213.851 538.451 212.784C540.328 211.675 541.779 210.053 542.803 207.92H553.107C551.613 212.485 548.989 216.048 545.235 218.608C541.523 221.125 537.149 222.384 532.115 222.384C527.848 222.384 523.987 221.424 520.531 219.504C517.117 217.541 514.408 214.832 512.403 211.376C510.44 207.92 509.459 203.995 509.459 199.6ZM569.72 192.048C570.872 190.171 572.365 188.699 574.2 187.632C576.077 186.565 578.21 186.032 580.6 186.032V195.44H578.232C575.416 195.44 573.282 196.101 571.832 197.424C570.424 198.747 569.72 201.051 569.72 204.336V222H560.76V186.544H569.72V192.048ZM619.595 203.504C619.595 204.784 619.509 205.936 619.339 206.96H593.419C593.632 209.52 594.528 211.525 596.107 212.976C597.685 214.427 599.627 215.152 601.931 215.152C605.259 215.152 607.627 213.723 609.035 210.864H618.699C617.675 214.277 615.712 217.093 612.811 219.312C609.909 221.488 606.347 222.576 602.123 222.576C598.709 222.576 595.637 221.829 592.907 220.336C590.219 218.8 588.107 216.645 586.571 213.872C585.077 211.099 584.331 207.899 584.331 204.272C584.331 200.603 585.077 197.381 586.571 194.608C588.064 191.835 590.155 189.701 592.843 188.208C595.531 186.715 598.624 185.968 602.123 185.968C605.493 185.968 608.501 186.693 611.147 188.144C613.835 189.595 615.904 191.664 617.355 194.352C618.848 196.997 619.595 200.048 619.595 203.504ZM610.315 200.944C610.272 198.64 609.44 196.805 607.819 195.44C606.197 194.032 604.213 193.328 601.867 193.328C599.648 193.328 597.771 194.011 596.235 195.376C594.741 196.699 593.824 198.555 593.483 200.944H610.315ZM623.831 204.144C623.831 200.56 624.535 197.381 625.943 194.608C627.393 191.835 629.335 189.701 631.767 188.208C634.241 186.715 636.993 185.968 640.023 185.968C642.668 185.968 644.972 186.501 646.935 187.568C648.94 188.635 650.54 189.979 651.735 191.6V186.544H660.759V222H651.735V216.816C650.583 218.48 648.983 219.867 646.935 220.976C644.929 222.043 642.604 222.576 639.959 222.576C636.972 222.576 634.241 221.808 631.767 220.272C629.335 218.736 627.393 216.581 625.943 213.808C624.535 210.992 623.831 207.771 623.831 204.144ZM651.735 204.272C651.735 202.096 651.308 200.24 650.455 198.704C649.601 197.125 648.449 195.931 646.999 195.12C645.548 194.267 643.991 193.84 642.327 193.84C640.663 193.84 639.127 194.245 637.719 195.056C636.311 195.867 635.159 197.061 634.263 198.64C633.409 200.176 632.983 202.011 632.983 204.144C632.983 206.277 633.409 208.155 634.263 209.776C635.159 211.355 636.311 212.571 637.719 213.424C639.169 214.277 640.705 214.704 642.327 214.704C643.991 214.704 645.548 214.299 646.999 213.488C648.449 212.635 649.601 211.44 650.455 209.904C651.308 208.325 651.735 206.448 651.735 204.272ZM679.942 193.904V211.056C679.942 212.251 680.219 213.125 680.774 213.68C681.371 214.192 682.352 214.448 683.718 214.448H687.878V222H682.246C674.694 222 670.918 218.331 670.918 210.992V193.904H666.694V186.544H670.918V177.776H679.942V186.544H687.878V193.904H679.942ZM710.066 222.576C706.653 222.576 703.581 221.829 700.85 220.336C698.12 218.8 695.965 216.645 694.386 213.872C692.85 211.099 692.082 207.899 692.082 204.272C692.082 200.645 692.872 197.445 694.45 194.672C696.072 191.899 698.269 189.765 701.042 188.272C703.816 186.736 706.909 185.968 710.322 185.968C713.736 185.968 716.829 186.736 719.602 188.272C722.376 189.765 724.552 191.899 726.13 194.672C727.752 197.445 728.562 200.645 728.562 204.272C728.562 207.899 727.73 211.099 726.066 213.872C724.445 216.645 722.226 218.8 719.41 220.336C716.637 221.829 713.522 222.576 710.066 222.576ZM710.066 214.768C711.688 214.768 713.202 214.384 714.61 213.616C716.061 212.805 717.213 211.611 718.066 210.032C718.92 208.453 719.346 206.533 719.346 204.272C719.346 200.901 718.45 198.32 716.658 196.528C714.909 194.693 712.754 193.776 710.194 193.776C707.634 193.776 705.48 194.693 703.73 196.528C702.024 198.32 701.17 200.901 701.17 204.272C701.17 207.643 702.002 210.245 703.666 212.08C705.373 213.872 707.506 214.768 710.066 214.768ZM744.095 192.048C745.247 190.171 746.74 188.699 748.575 187.632C750.452 186.565 752.585 186.032 754.975 186.032V195.44H752.607C749.791 195.44 747.657 196.101 746.207 197.424C744.799 198.747 744.095 201.051 744.095 204.336V222H735.135V186.544H744.095V192.048ZM803.844 177.328V184.56H785.22V196.016H799.492V203.12H785.22V222H776.26V177.328H803.844ZM843.669 186.544V222H834.645V217.52C833.493 219.056 831.979 220.272 830.101 221.168C828.267 222.021 826.261 222.448 824.085 222.448C821.312 222.448 818.859 221.872 816.725 220.72C814.592 219.525 812.907 217.797 811.669 215.536C810.475 213.232 809.877 210.501 809.877 207.344V186.544H818.837V206.064C818.837 208.88 819.541 211.056 820.949 212.592C822.357 214.085 824.277 214.832 826.709 214.832C829.184 214.832 831.125 214.085 832.533 212.592C833.941 211.056 834.645 208.88 834.645 206.064V186.544H843.669ZM872.158 186.032C876.382 186.032 879.795 187.376 882.398 190.064C885 192.709 886.302 196.421 886.302 201.2V222H877.342V202.416C877.342 199.6 876.638 197.445 875.23 195.952C873.822 194.416 871.902 193.648 869.47 193.648C866.995 193.648 865.032 194.416 863.582 195.952C862.174 197.445 861.47 199.6 861.47 202.416V222H852.51V186.544H861.47V190.96C862.664 189.424 864.179 188.229 866.014 187.376C867.891 186.48 869.939 186.032 872.158 186.032ZM892.518 204.144C892.518 200.56 893.222 197.381 894.63 194.608C896.081 191.835 898.044 189.701 900.518 188.208C902.993 186.715 905.745 185.968 908.774 185.968C911.078 185.968 913.276 186.48 915.366 187.504C917.457 188.485 919.121 189.808 920.358 191.472V174.64H929.446V222H920.358V216.752C919.249 218.501 917.692 219.909 915.686 220.976C913.681 222.043 911.356 222.576 908.71 222.576C905.724 222.576 902.993 221.808 900.518 220.272C898.044 218.736 896.081 216.581 894.63 213.808C893.222 210.992 892.518 207.771 892.518 204.144ZM920.422 204.272C920.422 202.096 919.996 200.24 919.142 198.704C918.289 197.125 917.137 195.931 915.686 195.12C914.236 194.267 912.678 193.84 911.014 193.84C909.35 193.84 907.814 194.245 906.406 195.056C904.998 195.867 903.846 197.061 902.95 198.64C902.097 200.176 901.67 202.011 901.67 204.144C901.67 206.277 902.097 208.155 902.95 209.776C903.846 211.355 904.998 212.571 906.406 213.424C907.857 214.277 909.393 214.704 911.014 214.704C912.678 214.704 914.236 214.299 915.686 213.488C917.137 212.635 918.289 211.44 919.142 209.904C919.996 208.325 920.422 206.448 920.422 204.272Z" fill="white"/>
<path d="M446.452 296.168C445.332 296.168 444.324 295.976 443.428 295.592C442.532 295.192 441.828 294.632 441.316 293.912C440.804 293.192 440.548 292.352 440.548 291.392H443.476C443.54 292.112 443.82 292.704 444.316 293.168C444.828 293.632 445.54 293.864 446.452 293.864C447.396 293.864 448.132 293.64 448.66 293.192C449.188 292.728 449.452 292.136 449.452 291.416C449.452 290.856 449.284 290.4 448.948 290.048C448.628 289.696 448.22 289.424 447.724 289.232C447.244 289.04 446.572 288.832 445.708 288.608C444.62 288.32 443.732 288.032 443.044 287.744C442.372 287.44 441.796 286.976 441.316 286.352C440.836 285.728 440.596 284.896 440.596 283.856C440.596 282.896 440.836 282.056 441.316 281.336C441.796 280.616 442.468 280.064 443.332 279.68C444.196 279.296 445.196 279.104 446.332 279.104C447.948 279.104 449.268 279.512 450.292 280.328C451.332 281.128 451.908 282.232 452.02 283.64H448.996C448.948 283.032 448.66 282.512 448.132 282.08C447.604 281.648 446.908 281.432 446.044 281.432C445.26 281.432 444.62 281.632 444.124 282.032C443.628 282.432 443.38 283.008 443.38 283.76C443.38 284.272 443.532 284.696 443.836 285.032C444.156 285.352 444.556 285.608 445.036 285.8C445.516 285.992 446.172 286.2 447.004 286.424C448.108 286.728 449.004 287.032 449.692 287.336C450.396 287.64 450.988 288.112 451.468 288.752C451.964 289.376 452.212 290.216 452.212 291.272C452.212 292.12 451.98 292.92 451.516 293.672C451.068 294.424 450.404 295.032 449.524 295.496C448.66 295.944 447.636 296.168 446.452 296.168ZM467.417 282.776V296H464.681V294.44C464.249 294.984 463.681 295.416 462.977 295.736C462.289 296.04 461.553 296.192 460.769 296.192C459.729 296.192 458.793 295.976 457.961 295.544C457.145 295.112 456.497 294.472 456.017 293.624C455.553 292.776 455.321 291.752 455.321 290.552V282.776H458.033V290.144C458.033 291.328 458.329 292.24 458.921 292.88C459.513 293.504 460.321 293.816 461.345 293.816C462.369 293.816 463.177 293.504 463.769 292.88C464.377 292.24 464.681 291.328 464.681 290.144V282.776H467.417ZM473.763 284.72C474.227 284.112 474.859 283.6 475.659 283.184C476.459 282.768 477.363 282.56 478.371 282.56C479.523 282.56 480.571 282.848 481.515 283.424C482.475 283.984 483.227 284.776 483.771 285.8C484.315 286.824 484.587 288 484.587 289.328C484.587 290.656 484.315 291.848 483.771 292.904C483.227 293.944 482.475 294.76 481.515 295.352C480.571 295.928 479.523 296.216 478.371 296.216C477.363 296.216 476.467 296.016 475.683 295.616C474.899 295.2 474.259 294.688 473.763 294.08V302.288H471.027V282.776H473.763V284.72ZM481.803 289.328C481.803 288.416 481.611 287.632 481.227 286.976C480.859 286.304 480.363 285.8 479.739 285.464C479.131 285.112 478.475 284.936 477.771 284.936C477.083 284.936 476.427 285.112 475.803 285.464C475.195 285.816 474.699 286.328 474.315 287C473.947 287.672 473.763 288.464 473.763 289.376C473.763 290.288 473.947 291.088 474.315 291.776C474.699 292.448 475.195 292.96 475.803 293.312C476.427 293.664 477.083 293.84 477.771 293.84C478.475 293.84 479.131 293.664 479.739 293.312C480.363 292.944 480.859 292.416 481.227 291.728C481.611 291.04 481.803 290.24 481.803 289.328ZM490.028 284.72C490.492 284.112 491.124 283.6 491.924 283.184C492.724 282.768 493.628 282.56 494.636 282.56C495.788 282.56 496.836 282.848 497.78 283.424C498.74 283.984 499.492 284.776 500.036 285.8C500.58 286.824 500.852 288 500.852 289.328C500.852 290.656 500.58 291.848 500.036 292.904C499.492 293.944 498.74 294.76 497.78 295.352C496.836 295.928 495.788 296.216 494.636 296.216C493.628 296.216 492.732 296.016 491.948 295.616C491.164 295.2 490.524 294.688 490.028 294.08V302.288H487.292V282.776H490.028V284.72ZM498.068 289.328C498.068 288.416 497.876 287.632 497.492 286.976C497.124 286.304 496.628 285.8 496.004 285.464C495.396 285.112 494.74 284.936 494.036 284.936C493.348 284.936 492.692 285.112 492.068 285.464C491.46 285.816 490.964 286.328 490.58 287C490.212 287.672 490.028 288.464 490.028 289.376C490.028 290.288 490.212 291.088 490.58 291.776C490.964 292.448 491.46 292.96 492.068 293.312C492.692 293.664 493.348 293.84 494.036 293.84C494.74 293.84 495.396 293.664 496.004 293.312C496.628 292.944 497.124 292.416 497.492 291.728C497.876 291.04 498.068 290.24 498.068 289.328ZM509.294 296.216C508.046 296.216 506.918 295.936 505.91 295.376C504.902 294.8 504.11 294 503.534 292.976C502.958 291.936 502.67 290.736 502.67 289.376C502.67 288.032 502.966 286.84 503.558 285.8C504.15 284.76 504.958 283.96 505.982 283.4C507.006 282.84 508.15 282.56 509.414 282.56C510.678 282.56 511.822 282.84 512.846 283.4C513.87 283.96 514.678 284.76 515.27 285.8C515.862 286.84 516.158 288.032 516.158 289.376C516.158 290.72 515.854 291.912 515.246 292.952C514.638 293.992 513.806 294.8 512.75 295.376C511.71 295.936 510.558 296.216 509.294 296.216ZM509.294 293.84C509.998 293.84 510.654 293.672 511.262 293.336C511.886 293 512.39 292.496 512.774 291.824C513.158 291.152 513.35 290.336 513.35 289.376C513.35 288.416 513.166 287.608 512.798 286.952C512.43 286.28 511.942 285.776 511.334 285.44C510.726 285.104 510.07 284.936 509.366 284.936C508.662 284.936 508.006 285.104 507.398 285.44C506.806 285.776 506.334 286.28 505.982 286.952C505.63 287.608 505.454 288.416 505.454 289.376C505.454 290.8 505.814 291.904 506.534 292.688C507.27 293.456 508.19 293.84 509.294 293.84ZM521.599 284.696C521.999 284.024 522.527 283.504 523.183 283.136C523.855 282.752 524.647 282.56 525.559 282.56V285.392H524.863C523.791 285.392 522.975 285.664 522.415 286.208C521.871 286.752 521.599 287.696 521.599 289.04V296H518.863V282.776H521.599V284.696ZM531.265 285.008V292.328C531.265 292.824 531.377 293.184 531.601 293.408C531.841 293.616 532.241 293.72 532.801 293.72H534.481V296H532.321C531.089 296 530.145 295.712 529.489 295.136C528.833 294.56 528.505 293.624 528.505 292.328V285.008H526.945V282.776H528.505V279.488H531.265V282.776H534.481V285.008H531.265ZM538.395 281.024C537.899 281.024 537.483 280.856 537.147 280.52C536.811 280.184 536.643 279.768 536.643 279.272C536.643 278.776 536.811 278.36 537.147 278.024C537.483 277.688 537.899 277.52 538.395 277.52C538.875 277.52 539.283 277.688 539.619 278.024C539.955 278.36 540.123 278.776 540.123 279.272C540.123 279.768 539.955 280.184 539.619 280.52C539.283 280.856 538.875 281.024 538.395 281.024ZM539.739 282.776V296H537.003V282.776H539.739ZM550.003 282.56C551.043 282.56 551.971 282.776 552.787 283.208C553.619 283.64 554.267 284.28 554.731 285.128C555.195 285.976 555.427 287 555.427 288.2V296H552.715V288.608C552.715 287.424 552.419 286.52 551.827 285.896C551.235 285.256 550.427 284.936 549.403 284.936C548.379 284.936 547.563 285.256 546.955 285.896C546.363 286.52 546.067 287.424 546.067 288.608V296H543.331V282.776H546.067V284.288C546.515 283.744 547.083 283.32 547.771 283.016C548.475 282.712 549.219 282.56 550.003 282.56ZM564.245 282.56C565.269 282.56 566.173 282.768 566.957 283.184C567.757 283.584 568.381 284.088 568.829 284.696V282.776H571.589V296.216C571.589 297.432 571.333 298.512 570.821 299.456C570.309 300.416 569.565 301.168 568.589 301.712C567.629 302.256 566.477 302.528 565.133 302.528C563.341 302.528 561.853 302.104 560.669 301.256C559.485 300.424 558.813 299.288 558.653 297.848H561.365C561.573 298.536 562.013 299.088 562.685 299.504C563.373 299.936 564.189 300.152 565.133 300.152C566.237 300.152 567.125 299.816 567.797 299.144C568.485 298.472 568.829 297.496 568.829 296.216V294.008C568.365 294.632 567.733 295.16 566.933 295.592C566.149 296.008 565.253 296.216 564.245 296.216C563.093 296.216 562.037 295.928 561.077 295.352C560.133 294.76 559.381 293.944 558.821 292.904C558.277 291.848 558.005 290.656 558.005 289.328C558.005 288 558.277 286.824 558.821 285.8C559.381 284.776 560.133 283.984 561.077 283.424C562.037 282.848 563.093 282.56 564.245 282.56ZM568.829 289.376C568.829 288.464 568.637 287.672 568.253 287C567.885 286.328 567.397 285.816 566.789 285.464C566.181 285.112 565.525 284.936 564.821 284.936C564.117 284.936 563.461 285.112 562.853 285.464C562.245 285.8 561.749 286.304 561.365 286.976C560.997 287.632 560.813 288.416 560.813 289.328C560.813 290.24 560.997 291.04 561.365 291.728C561.749 292.416 562.245 292.944 562.853 293.312C563.477 293.664 564.133 293.84 564.821 293.84C565.525 293.84 566.181 293.664 566.789 293.312C567.397 292.96 567.885 292.448 568.253 291.776C568.637 291.088 568.829 290.288 568.829 289.376ZM584.153 281.528V286.424H589.913V288.656H584.153V293.768H590.633V296H581.417V279.296H590.633V281.528H584.153ZM599.115 293.552L602.859 282.776H605.763L600.723 296H597.459L592.443 282.776H595.371L599.115 293.552ZM619.951 289.064C619.951 289.56 619.919 290.008 619.855 290.408H609.751C609.831 291.464 610.223 292.312 610.927 292.952C611.631 293.592 612.495 293.912 613.519 293.912C614.991 293.912 616.031 293.296 616.639 292.064H619.591C619.191 293.28 618.463 294.28 617.407 295.064C616.367 295.832 615.071 296.216 613.519 296.216C612.255 296.216 611.119 295.936 610.111 295.376C609.119 294.8 608.335 294 607.759 292.976C607.199 291.936 606.919 290.736 606.919 289.376C606.919 288.016 607.191 286.824 607.735 285.8C608.295 284.76 609.071 283.96 610.063 283.4C611.071 282.84 612.223 282.56 613.519 282.56C614.767 282.56 615.879 282.832 616.855 283.376C617.831 283.92 618.591 284.688 619.135 285.68C619.679 286.656 619.951 287.784 619.951 289.064ZM617.095 288.2C617.079 287.192 616.719 286.384 616.015 285.776C615.311 285.168 614.439 284.864 613.399 284.864C612.455 284.864 611.647 285.168 610.975 285.776C610.303 286.368 609.903 287.176 609.775 288.2H617.095ZM629.316 282.56C630.356 282.56 631.284 282.776 632.1 283.208C632.932 283.64 633.58 284.28 634.044 285.128C634.508 285.976 634.74 287 634.74 288.2V296H632.028V288.608C632.028 287.424 631.732 286.52 631.14 285.896C630.548 285.256 629.74 284.936 628.716 284.936C627.692 284.936 626.876 285.256 626.268 285.896C625.676 286.52 625.38 287.424 625.38 288.608V296H622.644V282.776H625.38V284.288C625.828 283.744 626.396 283.32 627.084 283.016C627.788 282.712 628.532 282.56 629.316 282.56ZM641.422 285.008V292.328C641.422 292.824 641.534 293.184 641.758 293.408C641.998 293.616 642.398 293.72 642.958 293.72H644.638V296H642.478C641.246 296 640.302 295.712 639.646 295.136C638.99 294.56 638.662 293.624 638.662 292.328V285.008H637.102V282.776H638.662V279.488H641.422V282.776H644.638V285.008H641.422ZM661.002 296.168C659.45 296.168 658.018 295.808 656.706 295.088C655.41 294.352 654.378 293.336 653.61 292.04C652.858 290.728 652.482 289.256 652.482 287.624C652.482 285.992 652.858 284.528 653.61 283.232C654.378 281.936 655.41 280.928 656.706 280.208C658.018 279.472 659.45 279.104 661.002 279.104C662.57 279.104 664.002 279.472 665.298 280.208C666.61 280.928 667.642 281.936 668.394 283.232C669.146 284.528 669.522 285.992 669.522 287.624C669.522 289.256 669.146 290.728 668.394 292.04C667.642 293.336 666.61 294.352 665.298 295.088C664.002 295.808 662.57 296.168 661.002 296.168ZM661.002 293.792C662.106 293.792 663.09 293.544 663.954 293.048C664.818 292.536 665.49 291.816 665.97 290.888C666.466 289.944 666.714 288.856 666.714 287.624C666.714 286.392 666.466 285.312 665.97 284.384C665.49 283.456 664.818 282.744 663.954 282.248C663.09 281.752 662.106 281.504 661.002 281.504C659.898 281.504 658.914 281.752 658.05 282.248C657.186 282.744 656.506 283.456 656.01 284.384C655.53 285.312 655.29 286.392 655.29 287.624C655.29 288.856 655.53 289.944 656.01 290.888C656.506 291.816 657.186 292.536 658.05 293.048C658.914 293.544 659.898 293.792 661.002 293.792ZM674.95 284.696C675.35 284.024 675.878 283.504 676.534 283.136C677.206 282.752 677.998 282.56 678.91 282.56V285.392H678.214C677.142 285.392 676.326 285.664 675.766 286.208C675.222 286.752 674.95 287.696 674.95 289.04V296H672.214V282.776H674.95V284.696ZM686.753 282.56C687.777 282.56 688.681 282.768 689.465 283.184C690.265 283.584 690.889 284.088 691.337 284.696V282.776H694.097V296.216C694.097 297.432 693.841 298.512 693.329 299.456C692.817 300.416 692.073 301.168 691.097 301.712C690.137 302.256 688.985 302.528 687.641 302.528C685.849 302.528 684.361 302.104 683.177 301.256C681.993 300.424 681.321 299.288 681.161 297.848H683.873C684.081 298.536 684.521 299.088 685.193 299.504C685.881 299.936 686.697 300.152 687.641 300.152C688.745 300.152 689.633 299.816 690.305 299.144C690.993 298.472 691.337 297.496 691.337 296.216V294.008C690.873 294.632 690.241 295.16 689.441 295.592C688.657 296.008 687.761 296.216 686.753 296.216C685.601 296.216 684.545 295.928 683.585 295.352C682.641 294.76 681.889 293.944 681.329 292.904C680.785 291.848 680.513 290.656 680.513 289.328C680.513 288 680.785 286.824 681.329 285.8C681.889 284.776 682.641 283.984 683.585 283.424C684.545 282.848 685.601 282.56 686.753 282.56ZM691.337 289.376C691.337 288.464 691.145 287.672 690.761 287C690.393 286.328 689.905 285.816 689.297 285.464C688.689 285.112 688.033 284.936 687.329 284.936C686.625 284.936 685.969 285.112 685.361 285.464C684.753 285.8 684.257 286.304 683.873 286.976C683.505 287.632 683.321 288.416 683.321 289.328C683.321 290.24 683.505 291.04 683.873 291.728C684.257 292.416 684.753 292.944 685.361 293.312C685.985 293.664 686.641 293.84 687.329 293.84C688.033 293.84 688.689 293.664 689.297 293.312C689.905 292.96 690.393 292.448 690.761 291.776C691.145 291.088 691.337 290.288 691.337 289.376ZM696.779 289.328C696.779 288 697.051 286.824 697.595 285.8C698.155 284.776 698.907 283.984 699.851 283.424C700.811 282.848 701.867 282.56 703.019 282.56C704.059 282.56 704.963 282.768 705.731 283.184C706.515 283.584 707.139 284.088 707.603 284.696V282.776H710.363V296H707.603V294.032C707.139 294.656 706.507 295.176 705.707 295.592C704.907 296.008 703.995 296.216 702.971 296.216C701.835 296.216 700.795 295.928 699.851 295.352C698.907 294.76 698.155 293.944 697.595 292.904C697.051 291.848 696.779 290.656 696.779 289.328ZM707.603 289.376C707.603 288.464 707.411 287.672 707.027 287C706.659 286.328 706.171 285.816 705.563 285.464C704.955 285.112 704.299 284.936 703.595 284.936C702.891 284.936 702.235 285.112 701.627 285.464C701.019 285.8 700.523 286.304 700.139 286.976C699.771 287.632 699.587 288.416 699.587 289.328C699.587 290.24 699.771 291.04 700.139 291.728C700.523 292.416 701.019 292.944 701.627 293.312C702.251 293.664 702.907 293.84 703.595 293.84C704.299 293.84 704.955 293.664 705.563 293.312C706.171 292.96 706.659 292.448 707.027 291.776C707.411 291.088 707.603 290.288 707.603 289.376ZM720.628 282.56C721.668 282.56 722.596 282.776 723.412 283.208C724.244 283.64 724.892 284.28 725.356 285.128C725.82 285.976 726.052 287 726.052 288.2V296H723.34V288.608C723.34 287.424 723.044 286.52 722.452 285.896C721.86 285.256 721.052 284.936 720.028 284.936C719.004 284.936 718.188 285.256 717.58 285.896C716.988 286.52 716.692 287.424 716.692 288.608V296H713.956V282.776H716.692V284.288C717.14 283.744 717.708 283.32 718.396 283.016C719.1 282.712 719.844 282.56 720.628 282.56ZM730.934 281.024C730.438 281.024 730.022 280.856 729.686 280.52C729.35 280.184 729.182 279.768 729.182 279.272C729.182 278.776 729.35 278.36 729.686 278.024C730.022 277.688 730.438 277.52 730.934 277.52C731.414 277.52 731.822 277.688 732.158 278.024C732.494 278.36 732.662 278.776 732.662 279.272C732.662 279.768 732.494 280.184 732.158 280.52C731.822 280.856 731.414 281.024 730.934 281.024ZM732.278 282.776V296H729.542V282.776H732.278ZM740.67 296.216C739.63 296.216 738.694 296.032 737.862 295.664C737.046 295.28 736.398 294.768 735.918 294.128C735.438 293.472 735.182 292.744 735.15 291.944H737.982C738.03 292.504 738.294 292.976 738.774 293.36C739.27 293.728 739.886 293.912 740.622 293.912C741.39 293.912 741.982 293.768 742.398 293.48C742.83 293.176 743.046 292.792 743.046 292.328C743.046 291.832 742.806 291.464 742.326 291.224C741.862 290.984 741.118 290.72 740.094 290.432C739.102 290.16 738.294 289.896 737.67 289.64C737.046 289.384 736.502 288.992 736.038 288.464C735.59 287.936 735.366 287.24 735.366 286.376C735.366 285.672 735.574 285.032 735.99 284.456C736.406 283.864 736.998 283.4 737.766 283.064C738.55 282.728 739.446 282.56 740.454 282.56C741.958 282.56 743.166 282.944 744.078 283.712C745.006 284.464 745.502 285.496 745.566 286.808H742.83C742.782 286.216 742.542 285.744 742.11 285.392C741.678 285.04 741.094 284.864 740.358 284.864C739.638 284.864 739.086 285 738.702 285.272C738.318 285.544 738.126 285.904 738.126 286.352C738.126 286.704 738.254 287 738.51 287.24C738.766 287.48 739.078 287.672 739.446 287.816C739.814 287.944 740.358 288.112 741.078 288.32C742.038 288.576 742.822 288.84 743.43 289.112C744.054 289.368 744.59 289.752 745.038 290.264C745.486 290.776 745.718 291.456 745.734 292.304C745.734 293.056 745.526 293.728 745.11 294.32C744.694 294.912 744.102 295.376 743.334 295.712C742.582 296.048 741.694 296.216 740.67 296.216ZM760.811 289.064C760.811 289.56 760.779 290.008 760.715 290.408H750.611C750.691 291.464 751.083 292.312 751.787 292.952C752.491 293.592 753.355 293.912 754.379 293.912C755.851 293.912 756.891 293.296 757.499 292.064H760.451C760.051 293.28 759.323 294.28 758.267 295.064C757.227 295.832 755.931 296.216 754.379 296.216C753.115 296.216 751.979 295.936 750.971 295.376C749.979 294.8 749.195 294 748.619 292.976C748.059 291.936 747.779 290.736 747.779 289.376C747.779 288.016 748.051 286.824 748.595 285.8C749.155 284.76 749.931 283.96 750.923 283.4C751.931 282.84 753.083 282.56 754.379 282.56C755.627 282.56 756.739 282.832 757.715 283.376C758.691 283.92 759.451 284.688 759.995 285.68C760.539 286.656 760.811 287.784 760.811 289.064ZM757.955 288.2C757.939 287.192 757.579 286.384 756.875 285.776C756.171 285.168 755.299 284.864 754.259 284.864C753.315 284.864 752.507 285.168 751.835 285.776C751.163 286.368 750.763 287.176 750.635 288.2H757.955ZM766.239 284.696C766.639 284.024 767.167 283.504 767.823 283.136C768.495 282.752 769.287 282.56 770.199 282.56V285.392H769.503C768.431 285.392 767.615 285.664 767.055 286.208C766.511 286.752 766.239 287.696 766.239 289.04V296H763.503V282.776H766.239V284.696ZM777.514 296.216C776.474 296.216 775.538 296.032 774.706 295.664C773.89 295.28 773.242 294.768 772.762 294.128C772.282 293.472 772.026 292.744 771.994 291.944H774.826C774.874 292.504 775.138 292.976 775.618 293.36C776.114 293.728 776.73 293.912 777.466 293.912C778.234 293.912 778.826 293.768 779.242 293.48C779.674 293.176 779.89 292.792 779.89 292.328C779.89 291.832 779.65 291.464 779.17 291.224C778.706 290.984 777.962 290.72 776.938 290.432C775.946 290.16 775.138 289.896 774.514 289.64C773.89 289.384 773.346 288.992 772.882 288.464C772.434 287.936 772.21 287.24 772.21 286.376C772.21 285.672 772.418 285.032 772.834 284.456C773.25 283.864 773.842 283.4 774.61 283.064C775.394 282.728 776.29 282.56 777.298 282.56C778.802 282.56 780.01 282.944 780.922 283.712C781.85 284.464 782.346 285.496 782.41 286.808H779.674C779.626 286.216 779.386 285.744 778.954 285.392C778.522 285.04 777.938 284.864 777.202 284.864C776.482 284.864 775.93 285 775.546 285.272C775.162 285.544 774.97 285.904 774.97 286.352C774.97 286.704 775.098 287 775.354 287.24C775.61 287.48 775.922 287.672 776.29 287.816C776.658 287.944 777.202 288.112 777.922 288.32C778.882 288.576 779.666 288.84 780.274 289.112C780.898 289.368 781.434 289.752 781.882 290.264C782.33 290.776 782.562 291.456 782.578 292.304C782.578 293.056 782.37 293.728 781.954 294.32C781.538 294.912 780.946 295.376 780.178 295.712C779.426 296.048 778.538 296.216 777.514 296.216ZM809.529 282.776L805.425 296H802.545L799.881 286.232L797.217 296H794.337L790.209 282.776H792.993L795.753 293.408L798.561 282.776H801.417L804.105 293.36L806.841 282.776H809.529ZM812.965 281.024C812.469 281.024 812.053 280.856 811.717 280.52C811.381 280.184 811.213 279.768 811.213 279.272C811.213 278.776 811.381 278.36 811.717 278.024C812.053 277.688 812.469 277.52 812.965 277.52C813.445 277.52 813.853 277.688 814.189 278.024C814.525 278.36 814.693 278.776 814.693 279.272C814.693 279.768 814.525 280.184 814.189 280.52C813.853 280.856 813.445 281.024 812.965 281.024ZM814.309 282.776V296H811.573V282.776H814.309ZM821.094 285.008V292.328C821.094 292.824 821.206 293.184 821.43 293.408C821.67 293.616 822.07 293.72 822.63 293.72H824.31V296H822.15C820.918 296 819.974 295.712 819.318 295.136C818.662 294.56 818.334 293.624 818.334 292.328V285.008H816.774V282.776H818.334V279.488H821.094V282.776H824.31V285.008H821.094ZM833.671 282.56C834.679 282.56 835.575 282.776 836.359 283.208C837.159 283.64 837.783 284.28 838.231 285.128C838.695 285.976 838.927 287 838.927 288.2V296H836.215V288.608C836.215 287.424 835.919 286.52 835.327 285.896C834.735 285.256 833.927 284.936 832.903 284.936C831.879 284.936 831.063 285.256 830.455 285.896C829.863 286.52 829.567 287.424 829.567 288.608V296H826.831V278.24H829.567V284.312C830.031 283.752 830.615 283.32 831.319 283.016C832.039 282.712 832.823 282.56 833.671 282.56ZM851.844 285.008V292.328C851.844 292.824 851.956 293.184 852.18 293.408C852.42 293.616 852.82 293.72 853.38 293.72H855.06V296H852.9C851.668 296 850.724 295.712 850.068 295.136C849.412 294.56 849.084 293.624 849.084 292.328V285.008H847.524V282.776H849.084V279.488H851.844V282.776H855.06V285.008H851.844ZM864.421 282.56C865.429 282.56 866.325 282.776 867.109 283.208C867.909 283.64 868.533 284.28 868.981 285.128C869.445 285.976 869.677 287 869.677 288.2V296H866.965V288.608C866.965 287.424 866.669 286.52 866.077 285.896C865.485 285.256 864.677 284.936 863.653 284.936C862.629 284.936 861.813 285.256 861.205 285.896C860.613 286.52 860.317 287.424 860.317 288.608V296H857.581V278.24H860.317V284.312C860.781 283.752 861.365 283.32 862.069 283.016C862.789 282.712 863.573 282.56 864.421 282.56ZM885.287 289.064C885.287 289.56 885.255 290.008 885.191 290.408H875.087C875.167 291.464 875.559 292.312 876.263 292.952C876.967 293.592 877.831 293.912 878.855 293.912C880.327 293.912 881.367 293.296 881.975 292.064H884.927C884.527 293.28 883.799 294.28 882.743 295.064C881.703 295.832 880.407 296.216 878.855 296.216C877.591 296.216 876.455 295.936 875.447 295.376C874.455 294.8 873.671 294 873.095 292.976C872.535 291.936 872.255 290.736 872.255 289.376C872.255 288.016 872.527 286.824 873.071 285.8C873.631 284.76 874.407 283.96 875.399 283.4C876.407 282.84 877.559 282.56 878.855 282.56C880.103 282.56 881.215 282.832 882.191 283.376C883.167 283.92 883.927 284.688 884.471 285.68C885.015 286.656 885.287 287.784 885.287 289.064ZM882.431 288.2C882.415 287.192 882.055 286.384 881.351 285.776C880.647 285.168 879.775 284.864 878.735 284.864C877.791 284.864 876.983 285.168 876.311 285.776C875.639 286.368 875.239 287.176 875.111 288.2H882.431ZM904.03 279.32V281.552H896.95V286.472H902.47V288.704H896.95V296H894.214V279.32H904.03ZM907.958 281.024C907.462 281.024 907.046 280.856 906.71 280.52C906.374 280.184 906.206 279.768 906.206 279.272C906.206 278.776 906.374 278.36 906.71 278.024C907.046 277.688 907.462 277.52 907.958 277.52C908.438 277.52 908.846 277.688 909.182 278.024C909.518 278.36 909.686 278.776 909.686 279.272C909.686 279.768 909.518 280.184 909.182 280.52C908.846 280.856 908.438 281.024 907.958 281.024ZM909.302 282.776V296H906.566V282.776H909.302ZM919.566 282.56C920.606 282.56 921.534 282.776 922.35 283.208C923.182 283.64 923.83 284.28 924.294 285.128C924.758 285.976 924.99 287 924.99 288.2V296H922.278V288.608C922.278 287.424 921.982 286.52 921.39 285.896C920.798 285.256 919.99 284.936 918.966 284.936C917.942 284.936 917.126 285.256 916.518 285.896C915.926 286.52 915.63 287.424 915.63 288.608V296H912.894V282.776H915.63V284.288C916.078 283.744 916.646 283.32 917.334 283.016C918.038 282.712 918.782 282.56 919.566 282.56ZM927.568 289.328C927.568 288 927.84 286.824 928.384 285.8C928.944 284.776 929.696 283.984 930.64 283.424C931.6 282.848 932.656 282.56 933.808 282.56C934.848 282.56 935.752 282.768 936.52 283.184C937.304 283.584 937.928 284.088 938.392 284.696V282.776H941.152V296H938.392V294.032C937.928 294.656 937.296 295.176 936.496 295.592C935.696 296.008 934.784 296.216 933.76 296.216C932.624 296.216 931.584 295.928 930.64 295.352C929.696 294.76 928.944 293.944 928.384 292.904C927.84 291.848 927.568 290.656 927.568 289.328ZM938.392 289.376C938.392 288.464 938.2 287.672 937.816 287C937.448 286.328 936.96 285.816 936.352 285.464C935.744 285.112 935.088 284.936 934.384 284.936C933.68 284.936 933.024 285.112 932.416 285.464C931.808 285.8 931.312 286.304 930.928 286.976C930.56 287.632 930.376 288.416 930.376 289.328C930.376 290.24 930.56 291.04 930.928 291.728C931.312 292.416 931.808 292.944 932.416 293.312C933.04 293.664 933.696 293.84 934.384 293.84C935.088 293.84 935.744 293.664 936.352 293.312C936.96 292.96 937.448 292.448 937.816 291.776C938.2 291.088 938.392 290.288 938.392 289.376ZM951.417 282.56C952.457 282.56 953.385 282.776 954.201 283.208C955.033 283.64 955.681 284.28 956.145 285.128C956.609 285.976 956.841 287 956.841 288.2V296H954.129V288.608C954.129 287.424 953.833 286.52 953.241 285.896C952.649 285.256 951.841 284.936 950.817 284.936C949.793 284.936 948.977 285.256 948.369 285.896C947.777 286.52 947.481 287.424 947.481 288.608V296H944.745V282.776H947.481V284.288C947.929 283.744 948.497 283.32 949.185 283.016C949.889 282.712 950.633 282.56 951.417 282.56ZM959.419 289.376C959.419 288.016 959.691 286.824 960.235 285.8C960.795 284.76 961.563 283.96 962.539 283.4C963.515 282.84 964.635 282.56 965.899 282.56C967.499 282.56 968.819 282.944 969.859 283.712C970.915 284.464 971.627 285.544 971.995 286.952H969.043C968.803 286.296 968.419 285.784 967.891 285.416C967.363 285.048 966.699 284.864 965.899 284.864C964.779 284.864 963.883 285.264 963.211 286.064C962.555 286.848 962.227 287.952 962.227 289.376C962.227 290.8 962.555 291.912 963.211 292.712C963.883 293.512 964.779 293.912 965.899 293.912C967.483 293.912 968.531 293.216 969.043 291.824H971.995C971.611 293.168 970.891 294.24 969.835 295.04C968.779 295.824 967.467 296.216 965.899 296.216C964.635 296.216 963.515 295.936 962.539 295.376C961.563 294.8 960.795 294 960.235 292.976C959.691 291.936 959.419 290.736 959.419 289.376ZM976.114 281.024C975.618 281.024 975.202 280.856 974.866 280.52C974.53 280.184 974.362 279.768 974.362 279.272C974.362 278.776 974.53 278.36 974.866 278.024C975.202 277.688 975.618 277.52 976.114 277.52C976.594 277.52 977.002 277.688 977.338 278.024C977.674 278.36 977.842 278.776 977.842 279.272C977.842 279.768 977.674 280.184 977.338 280.52C977.002 280.856 976.594 281.024 976.114 281.024ZM977.458 282.776V296H974.722V282.776H977.458ZM980.138 289.328C980.138 288 980.41 286.824 980.954 285.8C981.514 284.776 982.266 283.984 983.21 283.424C984.17 282.848 985.226 282.56 986.378 282.56C987.418 282.56 988.322 282.768 989.09 283.184C989.874 283.584 990.498 284.088 990.962 284.696V282.776H993.722V296H990.962V294.032C990.498 294.656 989.866 295.176 989.066 295.592C988.266 296.008 987.354 296.216 986.33 296.216C985.194 296.216 984.154 295.928 983.21 295.352C982.266 294.76 981.514 293.944 980.954 292.904C980.41 291.848 980.138 290.656 980.138 289.328ZM990.962 289.376C990.962 288.464 990.77 287.672 990.386 287C990.018 286.328 989.53 285.816 988.922 285.464C988.314 285.112 987.658 284.936 986.954 284.936C986.25 284.936 985.594 285.112 984.986 285.464C984.378 285.8 983.882 286.304 983.498 286.976C983.13 287.632 982.946 288.416 982.946 289.328C982.946 290.24 983.13 291.04 983.498 291.728C983.882 292.416 984.378 292.944 984.986 293.312C985.61 293.664 986.266 293.84 986.954 293.84C987.658 293.84 988.314 293.664 988.922 293.312C989.53 292.96 990.018 292.448 990.386 291.776C990.77 291.088 990.962 290.288 990.962 289.376ZM1000.05 278.24V296H997.316V278.24H1000.05ZM555.658 319.432C556.554 319.592 557.314 320.064 557.938 320.848C558.562 321.632 558.874 322.52 558.874 323.512C558.874 324.36 558.65 325.128 558.202 325.816C557.77 326.488 557.138 327.024 556.306 327.424C555.474 327.808 554.506 328 553.402 328H546.73V311.32H553.09C554.226 311.32 555.202 311.512 556.018 311.896C556.834 312.28 557.45 312.8 557.866 313.456C558.282 314.096 558.49 314.816 558.49 315.616C558.49 316.576 558.234 317.376 557.722 318.016C557.21 318.656 556.522 319.128 555.658 319.432ZM549.466 318.328H552.85C553.746 318.328 554.442 318.128 554.938 317.728C555.45 317.312 555.706 316.72 555.706 315.952C555.706 315.2 555.45 314.616 554.938 314.2C554.442 313.768 553.746 313.552 552.85 313.552H549.466V318.328ZM553.162 325.768C554.09 325.768 554.818 325.544 555.346 325.096C555.874 324.648 556.138 324.024 556.138 323.224C556.138 322.408 555.858 321.76 555.298 321.28C554.738 320.8 553.994 320.56 553.066 320.56H549.466V325.768H553.162ZM573.823 314.776V328H571.087V326.44C570.655 326.984 570.087 327.416 569.383 327.736C568.695 328.04 567.959 328.192 567.175 328.192C566.135 328.192 565.199 327.976 564.367 327.544C563.551 327.112 562.903 326.472 562.423 325.624C561.959 324.776 561.727 323.752 561.727 322.552V314.776H564.439V322.144C564.439 323.328 564.735 324.24 565.327 324.88C565.919 325.504 566.727 325.816 567.751 325.816C568.775 325.816 569.583 325.504 570.175 324.88C570.783 324.24 571.087 323.328 571.087 322.144V314.776H573.823ZM580.169 316.696C580.569 316.024 581.097 315.504 581.753 315.136C582.425 314.752 583.217 314.56 584.129 314.56V317.392H583.433C582.361 317.392 581.545 317.664 580.985 318.208C580.441 318.752 580.169 319.696 580.169 321.04V328H577.433V314.776H580.169V316.696ZM585.732 321.328C585.732 320 586.004 318.824 586.548 317.8C587.108 316.776 587.86 315.984 588.804 315.424C589.764 314.848 590.828 314.56 591.996 314.56C592.86 314.56 593.708 314.752 594.54 315.136C595.388 315.504 596.06 316 596.556 316.624V310.24H599.316V328H596.556V326.008C596.108 326.648 595.484 327.176 594.684 327.592C593.9 328.008 592.996 328.216 591.972 328.216C590.82 328.216 589.764 327.928 588.804 327.352C587.86 326.76 587.108 325.944 586.548 324.904C586.004 323.848 585.732 322.656 585.732 321.328ZM596.556 321.376C596.556 320.464 596.364 319.672 595.98 319C595.612 318.328 595.124 317.816 594.516 317.464C593.908 317.112 593.252 316.936 592.548 316.936C591.844 316.936 591.188 317.112 590.58 317.464C589.972 317.8 589.476 318.304 589.092 318.976C588.724 319.632 588.54 320.416 588.54 321.328C588.54 322.24 588.724 323.04 589.092 323.728C589.476 324.416 589.972 324.944 590.58 325.312C591.204 325.664 591.86 325.84 592.548 325.84C593.252 325.84 593.908 325.664 594.516 325.312C595.124 324.96 595.612 324.448 595.98 323.776C596.364 323.088 596.556 322.288 596.556 321.376ZM615.029 321.064C615.029 321.56 614.997 322.008 614.933 322.408H604.829C604.909 323.464 605.301 324.312 606.005 324.952C606.709 325.592 607.573 325.912 608.597 325.912C610.069 325.912 611.109 325.296 611.717 324.064H614.669C614.269 325.28 613.541 326.28 612.485 327.064C611.445 327.832 610.149 328.216 608.597 328.216C607.333 328.216 606.197 327.936 605.189 327.376C604.197 326.8 603.413 326 602.837 324.976C602.277 323.936 601.997 322.736 601.997 321.376C601.997 320.016 602.269 318.824 602.813 317.8C603.373 316.76 604.149 315.96 605.141 315.4C606.149 314.84 607.301 314.56 608.597 314.56C609.845 314.56 610.957 314.832 611.933 315.376C612.909 315.92 613.669 316.688 614.213 317.68C614.757 318.656 615.029 319.784 615.029 321.064ZM612.173 320.2C612.157 319.192 611.797 318.384 611.093 317.776C610.389 317.168 609.517 316.864 608.477 316.864C607.533 316.864 606.725 317.168 606.053 317.776C605.381 318.368 604.981 319.176 604.853 320.2H612.173ZM624.394 314.56C625.434 314.56 626.362 314.776 627.178 315.208C628.01 315.64 628.658 316.28 629.122 317.128C629.586 317.976 629.818 319 629.818 320.2V328H627.106V320.608C627.106 319.424 626.81 318.52 626.218 317.896C625.626 317.256 624.818 316.936 623.794 316.936C622.77 316.936 621.954 317.256 621.346 317.896C620.754 318.52 620.458 319.424 620.458 320.608V328H617.722V314.776H620.458V316.288C620.906 315.744 621.474 315.32 622.162 315.016C622.866 314.712 623.61 314.56 624.394 314.56ZM645.278 328.216C644.03 328.216 642.902 327.936 641.894 327.376C640.886 326.8 640.094 326 639.518 324.976C638.942 323.936 638.654 322.736 638.654 321.376C638.654 320.032 638.95 318.84 639.542 317.8C640.134 316.76 640.942 315.96 641.966 315.4C642.99 314.84 644.134 314.56 645.398 314.56C646.662 314.56 647.806 314.84 648.83 315.4C649.854 315.96 650.662 316.76 651.254 317.8C651.846 318.84 652.142 320.032 652.142 321.376C652.142 322.72 651.838 323.912 651.23 324.952C650.622 325.992 649.79 326.8 648.734 327.376C647.694 327.936 646.542 328.216 645.278 328.216ZM645.278 325.84C645.982 325.84 646.638 325.672 647.246 325.336C647.87 325 648.374 324.496 648.758 323.824C649.142 323.152 649.334 322.336 649.334 321.376C649.334 320.416 649.15 319.608 648.782 318.952C648.414 318.28 647.926 317.776 647.318 317.44C646.71 317.104 646.054 316.936 645.35 316.936C644.646 316.936 643.99 317.104 643.382 317.44C642.79 317.776 642.318 318.28 641.966 318.952C641.614 319.608 641.438 320.416 641.438 321.376C641.438 322.8 641.798 323.904 642.518 324.688C643.254 325.456 644.174 325.84 645.278 325.84ZM660.391 317.008H657.943V328H655.183V317.008H653.623V314.776H655.183V313.84C655.183 312.32 655.583 311.216 656.383 310.528C657.199 309.824 658.471 309.472 660.199 309.472V311.752C659.367 311.752 658.783 311.912 658.447 312.232C658.111 312.536 657.943 313.072 657.943 313.84V314.776H660.391V317.008ZM682.37 311.32V328H679.634V320.704H671.786V328H669.05V311.32H671.786V318.472H679.634V311.32H682.37ZM691.708 328.216C690.46 328.216 689.332 327.936 688.324 327.376C687.316 326.8 686.524 326 685.948 324.976C685.372 323.936 685.084 322.736 685.084 321.376C685.084 320.032 685.38 318.84 685.972 317.8C686.564 316.76 687.372 315.96 688.396 315.4C689.42 314.84 690.564 314.56 691.828 314.56C693.092 314.56 694.236 314.84 695.26 315.4C696.284 315.96 697.092 316.76 697.684 317.8C698.276 318.84 698.572 320.032 698.572 321.376C698.572 322.72 698.268 323.912 697.66 324.952C697.052 325.992 696.22 326.8 695.164 327.376C694.124 327.936 692.972 328.216 691.708 328.216ZM691.708 325.84C692.412 325.84 693.068 325.672 693.676 325.336C694.3 325 694.804 324.496 695.188 323.824C695.572 323.152 695.764 322.336 695.764 321.376C695.764 320.416 695.58 319.608 695.212 318.952C694.844 318.28 694.356 317.776 693.748 317.44C693.14 317.104 692.484 316.936 691.78 316.936C691.076 316.936 690.42 317.104 689.812 317.44C689.22 317.776 688.748 318.28 688.396 318.952C688.044 319.608 687.868 320.416 687.868 321.376C687.868 322.8 688.228 323.904 688.948 324.688C689.684 325.456 690.604 325.84 691.708 325.84ZM706.077 328.216C705.037 328.216 704.101 328.032 703.269 327.664C702.453 327.28 701.805 326.768 701.325 326.128C700.845 325.472 700.589 324.744 700.557 323.944H703.389C703.437 324.504 703.701 324.976 704.181 325.36C704.677 325.728 705.293 325.912 706.029 325.912C706.797 325.912 707.389 325.768 707.805 325.48C708.237 325.176 708.453 324.792 708.453 324.328C708.453 323.832 708.213 323.464 707.733 323.224C707.269 322.984 706.525 322.72 705.501 322.432C704.509 322.16 703.701 321.896 703.077 321.64C702.453 321.384 701.909 320.992 701.445 320.464C700.997 319.936 700.773 319.24 700.773 318.376C700.773 317.672 700.981 317.032 701.397 316.456C701.813 315.864 702.405 315.4 703.173 315.064C703.957 314.728 704.853 314.56 705.861 314.56C707.365 314.56 708.573 314.944 709.485 315.712C710.413 316.464 710.909 317.496 710.973 318.808H708.237C708.189 318.216 707.949 317.744 707.517 317.392C707.085 317.04 706.501 316.864 705.765 316.864C705.045 316.864 704.493 317 704.109 317.272C703.725 317.544 703.533 317.904 703.533 318.352C703.533 318.704 703.661 319 703.917 319.24C704.173 319.48 704.485 319.672 704.853 319.816C705.221 319.944 705.765 320.112 706.485 320.32C707.445 320.576 708.229 320.84 708.837 321.112C709.461 321.368 709.997 321.752 710.445 322.264C710.893 322.776 711.125 323.456 711.141 324.304C711.141 325.056 710.933 325.728 710.517 326.32C710.101 326.912 709.509 327.376 708.741 327.712C707.989 328.048 707.101 328.216 706.077 328.216ZM717.289 317.008V324.328C717.289 324.824 717.401 325.184 717.625 325.408C717.865 325.616 718.265 325.72 718.825 325.72H720.505V328H718.345C717.113 328 716.169 327.712 715.513 327.136C714.857 326.56 714.529 325.624 714.529 324.328V317.008H712.969V314.776H714.529V311.488H717.289V314.776H720.505V317.008H717.289ZM724.419 313.024C723.923 313.024 723.507 312.856 723.171 312.52C722.835 312.184 722.667 311.768 722.667 311.272C722.667 310.776 722.835 310.36 723.171 310.024C723.507 309.688 723.923 309.52 724.419 309.52C724.899 309.52 725.307 309.688 725.643 310.024C725.979 310.36 726.147 310.776 726.147 311.272C726.147 311.768 725.979 312.184 725.643 312.52C725.307 312.856 724.899 313.024 724.419 313.024ZM725.763 314.776V328H723.027V314.776H725.763ZM736.027 314.56C737.067 314.56 737.995 314.776 738.811 315.208C739.643 315.64 740.291 316.28 740.755 317.128C741.219 317.976 741.451 319 741.451 320.2V328H738.739V320.608C738.739 319.424 738.443 318.52 737.851 317.896C737.259 317.256 736.451 316.936 735.427 316.936C734.403 316.936 733.587 317.256 732.979 317.896C732.387 318.52 732.091 319.424 732.091 320.608V328H729.355V314.776H732.091V316.288C732.539 315.744 733.107 315.32 733.795 315.016C734.499 314.712 735.243 314.56 736.027 314.56ZM750.269 314.56C751.293 314.56 752.197 314.768 752.981 315.184C753.781 315.584 754.405 316.088 754.853 316.696V314.776H757.613V328.216C757.613 329.432 757.357 330.512 756.845 331.456C756.333 332.416 755.589 333.168 754.613 333.712C753.653 334.256 752.501 334.528 751.157 334.528C749.365 334.528 747.877 334.104 746.693 333.256C745.509 332.424 744.837 331.288 744.677 329.848H747.389C747.597 330.536 748.037 331.088 748.709 331.504C749.397 331.936 750.213 332.152 751.157 332.152C752.261 332.152 753.149 331.816 753.821 331.144C754.509 330.472 754.853 329.496 754.853 328.216V326.008C754.389 326.632 753.757 327.16 752.957 327.592C752.173 328.008 751.277 328.216 750.269 328.216C749.117 328.216 748.061 327.928 747.101 327.352C746.157 326.76 745.405 325.944 744.845 324.904C744.301 323.848 744.029 322.656 744.029 321.328C744.029 320 744.301 318.824 744.845 317.8C745.405 316.776 746.157 315.984 747.101 315.424C748.061 314.848 749.117 314.56 750.269 314.56ZM754.853 321.376C754.853 320.464 754.661 319.672 754.277 319C753.909 318.328 753.421 317.816 752.813 317.464C752.205 317.112 751.549 316.936 750.845 316.936C750.141 316.936 749.485 317.112 748.877 317.464C748.269 317.8 747.773 318.304 747.389 318.976C747.021 319.632 746.837 320.416 746.837 321.328C746.837 322.24 747.021 323.04 747.389 323.728C747.773 324.416 748.269 324.944 748.877 325.312C749.501 325.664 750.157 325.84 750.845 325.84C751.549 325.84 752.205 325.664 752.813 325.312C753.421 324.96 753.909 324.448 754.277 323.776C754.661 323.088 754.853 322.288 754.853 321.376ZM770.177 325.792H775.817V328H767.441V311.32H770.177V325.792ZM779.497 313.024C779.001 313.024 778.585 312.856 778.249 312.52C777.913 312.184 777.745 311.768 777.745 311.272C777.745 310.776 777.913 310.36 778.249 310.024C778.585 309.688 779.001 309.52 779.497 309.52C779.977 309.52 780.385 309.688 780.721 310.024C781.057 310.36 781.225 310.776 781.225 311.272C781.225 311.768 781.057 312.184 780.721 312.52C780.385 312.856 779.977 313.024 779.497 313.024ZM780.841 314.776V328H778.105V314.776H780.841ZM789.545 325.552L793.289 314.776H796.193L791.153 328H787.889L782.873 314.776H785.801L789.545 325.552ZM810.381 321.064C810.381 321.56 810.349 322.008 810.285 322.408H800.181C800.261 323.464 800.653 324.312 801.357 324.952C802.061 325.592 802.925 325.912 803.949 325.912C805.421 325.912 806.461 325.296 807.069 324.064H810.021C809.621 325.28 808.893 326.28 807.837 327.064C806.797 327.832 805.501 328.216 803.949 328.216C802.685 328.216 801.549 327.936 800.541 327.376C799.549 326.8 798.765 326 798.189 324.976C797.629 323.936 797.349 322.736 797.349 321.376C797.349 320.016 797.621 318.824 798.165 317.8C798.725 316.76 799.501 315.96 800.493 315.4C801.501 314.84 802.653 314.56 803.949 314.56C805.197 314.56 806.309 314.832 807.285 315.376C808.261 315.92 809.021 316.688 809.565 317.68C810.109 318.656 810.381 319.784 810.381 321.064ZM807.525 320.2C807.509 319.192 807.149 318.384 806.445 317.776C805.741 317.168 804.869 316.864 803.829 316.864C802.885 316.864 802.077 317.168 801.405 317.776C800.733 318.368 800.333 319.176 800.205 320.2H807.525ZM822.044 313.528V318.424H827.804V320.656H822.044V325.768H828.524V328H819.308V311.296H828.524V313.528H822.044ZM837.006 325.552L840.75 314.776H843.654L838.614 328H835.35L830.334 314.776H833.262L837.006 325.552ZM857.842 321.064C857.842 321.56 857.81 322.008 857.746 322.408H847.642C847.722 323.464 848.114 324.312 848.818 324.952C849.522 325.592 850.386 325.912 851.41 325.912C852.882 325.912 853.922 325.296 854.53 324.064H857.482C857.082 325.28 856.354 326.28 855.298 327.064C854.258 327.832 852.962 328.216 851.41 328.216C850.146 328.216 849.01 327.936 848.002 327.376C847.01 326.8 846.226 326 845.65 324.976C845.09 323.936 844.81 322.736 844.81 321.376C844.81 320.016 845.082 318.824 845.626 317.8C846.186 316.76 846.962 315.96 847.954 315.4C848.962 314.84 850.114 314.56 851.41 314.56C852.658 314.56 853.77 314.832 854.746 315.376C855.722 315.92 856.482 316.688 857.026 317.68C857.57 318.656 857.842 319.784 857.842 321.064ZM854.986 320.2C854.97 319.192 854.61 318.384 853.906 317.776C853.202 317.168 852.33 316.864 851.29 316.864C850.346 316.864 849.538 317.168 848.866 317.776C848.194 318.368 847.794 319.176 847.666 320.2H854.986ZM867.206 314.56C868.246 314.56 869.174 314.776 869.99 315.208C870.822 315.64 871.47 316.28 871.934 317.128C872.398 317.976 872.63 319 872.63 320.2V328H869.918V320.608C869.918 319.424 869.622 318.52 869.03 317.896C868.438 317.256 867.63 316.936 866.606 316.936C865.582 316.936 864.766 317.256 864.158 317.896C863.566 318.52 863.27 319.424 863.27 320.608V328H860.534V314.776H863.27V316.288C863.718 315.744 864.286 315.32 864.974 315.016C865.678 314.712 866.422 314.56 867.206 314.56ZM879.312 317.008V324.328C879.312 324.824 879.424 325.184 879.648 325.408C879.888 325.616 880.288 325.72 880.848 325.72H882.528V328H880.368C879.136 328 878.192 327.712 877.536 327.136C876.88 326.56 876.552 325.624 876.552 324.328V317.008H874.992V314.776H876.552V311.488H879.312V314.776H882.528V317.008H879.312ZM889.85 328.216C888.81 328.216 887.874 328.032 887.042 327.664C886.226 327.28 885.578 326.768 885.098 326.128C884.618 325.472 884.362 324.744 884.33 323.944H887.162C887.21 324.504 887.474 324.976 887.954 325.36C888.45 325.728 889.066 325.912 889.802 325.912C890.57 325.912 891.162 325.768 891.578 325.48C892.01 325.176 892.226 324.792 892.226 324.328C892.226 323.832 891.986 323.464 891.506 323.224C891.042 322.984 890.298 322.72 889.274 322.432C888.282 322.16 887.474 321.896 886.85 321.64C886.226 321.384 885.682 320.992 885.218 320.464C884.77 319.936 884.546 319.24 884.546 318.376C884.546 317.672 884.754 317.032 885.17 316.456C885.586 315.864 886.178 315.4 886.946 315.064C887.73 314.728 888.626 314.56 889.634 314.56C891.138 314.56 892.346 314.944 893.258 315.712C894.186 316.464 894.682 317.496 894.746 318.808H892.01C891.962 318.216 891.722 317.744 891.29 317.392C890.858 317.04 890.274 316.864 889.538 316.864C888.818 316.864 888.266 317 887.882 317.272C887.498 317.544 887.306 317.904 887.306 318.352C887.306 318.704 887.434 319 887.69 319.24C887.946 319.48 888.258 319.672 888.626 319.816C888.994 319.944 889.538 320.112 890.258 320.32C891.218 320.576 892.002 320.84 892.61 321.112C893.234 321.368 893.77 321.752 894.218 322.264C894.666 322.776 894.898 323.456 894.914 324.304C894.914 325.056 894.706 325.728 894.29 326.32C893.874 326.912 893.282 327.376 892.514 327.712C891.762 328.048 890.874 328.216 889.85 328.216Z" fill="white"/>
<path d="M5361 5056.5C5361 3825.76 4872.09 2645.43 4001.83 1775.17C3131.57 904.909 1951.24 416 720.5 416C-510.237 416 -1690.57 904.908 -2560.83 1775.17C-3431.09 2645.43 -3920 3825.76 -3920 5056.5L720.5 5056.5H5361Z" fill="white"/>
</g>
<defs>
<filter id="filter0_dddddd_10392_130714" x="-515.239" y="-361.736" width="993.01" height="1034.03" filterUnits="userSpaceOnUse" color-interpolation-filters="sRGB">
<feFlood flood-opacity="0" result="BackgroundImageFix"/>
<feColorMatrix in="SourceAlpha" type="matrix" values="0 0 0 0 0 0 0 0 0 0 0 0 0 0 0 0 0 0 127 0" result="hardAlpha"/>
<feOffset dy="2.91701"/>
<feGaussianBlur stdDeviation="2.32647"/>
<feColorMatrix type="matrix" values="0 0 0 0 0 0 0 0 0 0 0 0 0 0 0 0 0 0 0.195 0"/>
<feBlend mode="normal" in2="BackgroundImageFix" result="effect1_dropShadow_10392_130714"/>
<feColorMatrix in="SourceAlpha" type="matrix" values="0 0 0 0 0 0 0 0 0 0 0 0 0 0 0 0 0 0 127 0" result="hardAlpha"/>
<feOffset dy="12.8349"/>
<feGaussianBlur stdDeviation="4.81715"/>
<feColorMatrix type="matrix" values="0 0 0 0 0 0 0 0 0 0 0 0 0 0 0 0 0 0 0.318 0"/>
<feBlend mode="normal" in2="effect1_dropShadow_10392_130714" result="effect2_dropShadow_10392_130714"/>
<feColorMatrix in="SourceAlpha" type="matrix" values="0 0 0 0 0 0 0 0 0 0 0 0 0 0 0 0 0 0 127 0" result="hardAlpha"/>
<feOffset dy="31.5037"/>
<feGaussianBlur stdDeviation="9.60694"/>
<feColorMatrix type="matrix" values="0 0 0 0 0 0 0 0 0 0 0 0 0 0 0 0 0 0 0.405 0"/>
<feBlend mode="normal" in2="effect2_dropShadow_10392_130714" result="effect3_dropShadow_10392_130714"/>
<feColorMatrix in="SourceAlpha" type="matrix" values="0 0 0 0 0 0 0 0 0 0 0 0 0 0 0 0 0 0 127 0" result="hardAlpha"/>
<feOffset dy="60.6739"/>
<feGaussianBlur stdDeviation="18.8307"/>
<feColorMatrix type="matrix" values="0 0 0 0 0 0 0 0 0 0 0 0 0 0 0 0 0 0 0.492 0"/>
<feBlend mode="normal" in2="effect3_dropShadow_10392_130714" result="effect4_dropShadow_10392_130714"/>
<feColorMatrix in="SourceAlpha" type="matrix" values="0 0 0 0 0 0 0 0 0 0 0 0 0 0 0 0 0 0 127 0" result="hardAlpha"/>
<feOffset dy="102.095"/>
<feGaussianBlur stdDeviation="34.6233"/>
<feColorMatrix type="matrix" values="0 0 0 0 0 0 0 0 0 0 0 0 0 0 0 0 0 0 0.615 0"/>
<feBlend mode="normal" in2="effect4_dropShadow_10392_130714" result="effect5_dropShadow_10392_130714"/>
<feColorMatrix in="SourceAlpha" type="matrix" values="0 0 0 0 0 0 0 0 0 0 0 0 0 0 0 0 0 0 127 0" result="hardAlpha"/>
<feOffset dy="157.519"/>
<feGaussianBlur stdDeviation="59.1196"/>
<feColorMatrix type="matrix" values="0 0 0 0 0 0 0 0 0 0 0 0 0 0 0 0 0 0 0.81 0"/>
<feBlend mode="normal" in2="effect5_dropShadow_10392_130714" result="effect6_dropShadow_10392_130714"/>
<feBlend mode="normal" in="SourceGraphic" in2="effect6_dropShadow_10392_130714" result="shape"/>
</filter>
<filter id="filter1_dddddd_10392_130714" x="1064.73" y="6.77576" width="787.062" height="792.357" filterUnits="userSpaceOnUse" color-interpolation-filters="sRGB">
<feFlood flood-opacity="0" result="BackgroundImageFix"/>
<feColorMatrix in="SourceAlpha" type="matrix" values="0 0 0 0 0 0 0 0 0 0 0 0 0 0 0 0 0 0 127 0" result="hardAlpha"/>
<feOffset dy="0.376599"/>
<feGaussianBlur stdDeviation="0.300357"/>
<feColorMatrix type="matrix" values="0 0 0 0 0 0 0 0 0 0 0 0 0 0 0 0 0 0 0.195 0"/>
<feBlend mode="normal" in2="BackgroundImageFix" result="effect1_dropShadow_10392_130714"/>
<feColorMatrix in="SourceAlpha" type="matrix" values="0 0 0 0 0 0 0 0 0 0 0 0 0 0 0 0 0 0 127 0" result="hardAlpha"/>
<feOffset dy="1.65704"/>
<feGaussianBlur stdDeviation="0.621916"/>
<feColorMatrix type="matrix" values="0 0 0 0 0 0 0 0 0 0 0 0 0 0 0 0 0 0 0.318 0"/>
<feBlend mode="normal" in2="effect1_dropShadow_10392_130714" result="effect2_dropShadow_10392_130714"/>
<feColorMatrix in="SourceAlpha" type="matrix" values="0 0 0 0 0 0 0 0 0 0 0 0 0 0 0 0 0 0 127 0" result="hardAlpha"/>
<feOffset dy="4.06727"/>
<feGaussianBlur stdDeviation="1.2403"/>
<feColorMatrix type="matrix" values="0 0 0 0 0 0 0 0 0 0 0 0 0 0 0 0 0 0 0.405 0"/>
<feBlend mode="normal" in2="effect2_dropShadow_10392_130714" result="effect3_dropShadow_10392_130714"/>
<feColorMatrix in="SourceAlpha" type="matrix" values="0 0 0 0 0 0 0 0 0 0 0 0 0 0 0 0 0 0 127 0" result="hardAlpha"/>
<feOffset dy="7.83326"/>
<feGaussianBlur stdDeviation="2.43112"/>
<feColorMatrix type="matrix" values="0 0 0 0 0 0 0 0 0 0 0 0 0 0 0 0 0 0 0.492 0"/>
<feBlend mode="normal" in2="effect3_dropShadow_10392_130714" result="effect4_dropShadow_10392_130714"/>
<feColorMatrix in="SourceAlpha" type="matrix" values="0 0 0 0 0 0 0 0 0 0 0 0 0 0 0 0 0 0 127 0" result="hardAlpha"/>
<feOffset dy="13.181"/>
<feGaussianBlur stdDeviation="4.47002"/>
<feColorMatrix type="matrix" values="0 0 0 0 0 0 0 0 0 0 0 0 0 0 0 0 0 0 0.615 0"/>
<feBlend mode="normal" in2="effect4_dropShadow_10392_130714" result="effect5_dropShadow_10392_130714"/>
<feColorMatrix in="SourceAlpha" type="matrix" values="0 0 0 0 0 0 0 0 0 0 0 0 0 0 0 0 0 0 127 0" result="hardAlpha"/>
<feOffset dy="20.3364"/>
<feGaussianBlur stdDeviation="7.6326"/>
<feColorMatrix type="matrix" values="0 0 0 0 0 0 0 0 0 0 0 0 0 0 0 0 0 0 0.81 0"/>
<feBlend mode="normal" in2="effect5_dropShadow_10392_130714" result="effect6_dropShadow_10392_130714"/>
<feBlend mode="normal" in="SourceGraphic" in2="effect6_dropShadow_10392_130714" result="shape"/>
</filter>
<radialGradient id="paint0_radial_10392_130714" cx="0" cy="0" r="1" gradientUnits="userSpaceOnUse" gradientTransform="translate(1215 517.139) rotate(-133.747) scale(715.862 9004.15)">
<stop stop-color="#0046CC"/>
<stop offset="1" stop-color="#0057FF"/>
</radialGradient>
<linearGradient id="paint1_linear_10392_130714" x1="113.081" y1="86.8378" x2="282.867" y2="88.0891" gradientUnits="userSpaceOnUse">
<stop stop-color="#E9E9E9"/>
<stop offset="0.2" stop-color="#F5F5F5"/>
<stop offset="0.4" stop-color="#FDFDFD"/>
<stop offset="0.8" stop-color="white"/>
</linearGradient>
<linearGradient id="paint2_linear_10392_130714" x1="1326.77" y1="316.397" x2="1157.08" y2="315.146" gradientUnits="userSpaceOnUse">
<stop stop-color="#E9E9E9"/>
<stop offset="0.2" stop-color="#F5F5F5"/>
<stop offset="0.4" stop-color="#FDFDFD"/>
<stop offset="0.8" stop-color="white"/>
</linearGradient>
<clipPath id="clip0_10392_130714">
<rect width="1440" height="473" fill="white"/>
</clipPath>
<clipPath id="clip1_10392_130714">
<rect width="534.949" height="534.949" fill="white" transform="matrix(-0.707107 -0.707107 -0.707107 0.707107 359.531 18.2656)"/>
</clipPath>
<clipPath id="clip2_10392_130714">
<rect width="534.949" height="534.949" fill="white" transform="matrix(-0.707107 -0.707107 -0.707107 0.707107 1836.53 385.266)"/>
</clipPath>
</defs>
</svg>
