<svg width="48" height="48" viewBox="0 0 48 48" fill="none" xmlns="http://www.w3.org/2000/svg">
<circle cx="24" cy="24" r="24" fill="url(#paint0_radial_10158_226842)"/>
<path d="M14 19V14H19V16H16V19H14ZM14 34V29H16V32H19V34H14ZM29 34V32H32V29H34V34H29ZM32 19V16H29V14H34V19H32ZM29.5 29.5H31V31H29.5V29.5ZM29.5 26.5H31V28H29.5V26.5ZM28 28H29.5V29.5H28V28ZM26.5 29.5H28V31H26.5V29.5ZM25 28H26.5V29.5H25V28ZM28 25H29.5V26.5H28V25ZM26.5 26.5H28V28H26.5V26.5ZM25 25H26.5V26.5H25V25ZM31 17V23H25V17H31ZM23 25V31H17V25H23ZM23 17V23H17V17H23ZM21.5 29.5V26.5H18.5V29.5H21.5ZM21.5 21.5V18.5H18.5V21.5H21.5ZM29.5 21.5V18.5H26.5V21.5H29.5Z" fill="white"/>
<defs>
<radialGradient id="paint0_radial_10158_226842" cx="0" cy="0" r="1" gradientUnits="userSpaceOnUse" gradientTransform="translate(48 -2.4364e-05) rotate(135) scale(67.8822 1640.26)">
<stop stop-color="#EB00FF"/>
<stop offset="1" stop-color="#FFC700"/>
</radialGradient>
</defs>
</svg>

