<svg width="41" height="38" viewBox="0 0 41 38" fill="none" xmlns="http://www.w3.org/2000/svg">
<path d="M6.99933 38C4.99933 38 3.40767 37.225 2.22433 35.675C1.041 34.125 0.699335 32.4 1.19933 30.5L4.79933 16.9C3.69933 16.2 2.791 15.25 2.07433 14.05C1.35767 12.85 0.999335 11.5 0.999335 10C0.999335 7.8 1.78267 5.91667 3.34933 4.35C4.916 2.78333 6.79933 2 8.99933 2H24.9993C26.4993 2 27.6327 2.63333 28.3993 3.9C29.166 5.16667 29.216 6.46667 28.5493 7.8L24.5493 15.8C24.1827 16.4667 23.691 17 23.0743 17.4C22.4577 17.8 21.766 18 20.9993 18H16.9493L16.3993 20H16.9993C17.566 20 18.041 20.1917 18.4243 20.575C18.8077 20.9583 18.9993 21.4333 18.9993 22V26C18.9993 26.5667 18.8077 27.0417 18.4243 27.425C18.041 27.8083 17.566 28 16.9993 28H14.2993L12.7993 33.6C12.4327 34.9 11.716 35.9583 10.6493 36.775C9.58267 37.5917 8.366 38 6.99933 38ZM32.9993 6L31.7493 3.3L38.9993 0L40.1993 2.75L32.9993 6ZM38.9993 20L31.7493 16.75L32.9993 14L40.1993 17.3L38.9993 20ZM32.9993 11.5V8.5H40.9993V11.5H32.9993Z" fill="#0057FF"/>
</svg>
