<svg width="34" height="34" viewBox="0 0 34 34" fill="none" xmlns="http://www.w3.org/2000/svg">
<path d="M16.9999 0.333008C7.79992 0.333008 0.333252 7.79967 0.333252 16.9997C0.333252 26.1997 7.79992 33.6663 16.9999 33.6663C26.1999 33.6663 33.6666 26.1997 33.6666 16.9997C33.6666 7.79967 26.1999 0.333008 16.9999 0.333008ZM16.9999 11.583C16.3166 11.583 15.7499 11.0163 15.7499 10.333C15.7499 9.64967 16.3166 9.08301 16.9999 9.08301C21.3666 9.08301 24.9166 12.633 24.9166 16.9997C24.9166 21.3663 21.3666 24.9163 16.9999 24.9163C16.3166 24.9163 15.7499 24.3497 15.7499 23.6663C15.7499 22.983 16.3166 22.4163 16.9999 22.4163C19.9833 22.4163 22.4166 19.983 22.4166 16.9997C22.4166 14.0163 19.9833 11.583 16.9999 11.583ZM16.9999 29.9163C9.88325 29.9163 4.08325 24.1163 4.08325 16.9997C4.08325 16.3163 4.64992 15.7497 5.33325 15.7497C6.01659 15.7497 6.58325 16.3163 6.58325 16.9997C6.58325 22.7497 11.2499 27.4163 16.9999 27.4163C22.7499 27.4163 27.4166 22.7497 27.4166 16.9997C27.4166 11.2497 22.7499 6.58301 16.9999 6.58301C16.3166 6.58301 15.7499 6.01634 15.7499 5.33301C15.7499 4.64967 16.3166 4.08301 16.9999 4.08301C24.1166 4.08301 29.9166 9.88301 29.9166 16.9997C29.9166 24.1163 24.1166 29.9163 16.9999 29.9163Z" fill="#0057FF"/>
</svg>
