<svg width="40" height="40" viewBox="0 0 40 40" fill="none" xmlns="http://www.w3.org/2000/svg">
  <path d="M19.9999 3.33334C10.8166 3.33334 3.33325 10.8167 3.33325 20C3.33325 29.1833 10.8166 36.6667 19.9999 36.6667C29.1833 36.6667 36.6666 29.1833 36.6666 20C36.6666 10.8167 29.1833 3.33334 19.9999 3.33334ZM25.5999 23.8333C26.0833 24.3167 26.0833 25.1167 25.5999 25.6C25.3499 25.85 25.0333 25.9667 24.7166 25.9667C24.3999 25.9667 24.0833 25.85 23.8333 25.6L19.9999 21.7667L16.1666 25.6C15.9166 25.85 15.5999 25.9667 15.2833 25.9667C14.9666 25.9667 14.6499 25.85 14.3999 25.6C13.9166 25.1167 13.9166 24.3167 14.3999 23.8333L18.2333 20L14.3999 16.1667C13.9166 15.6833 13.9166 14.8833 14.3999 14.4C14.8833 13.9167 15.6833 13.9167 16.1666 14.4L19.9999 18.2333L23.8333 14.4C24.3166 13.9167 25.1166 13.9167 25.5999 14.4C26.0833 14.8833 26.0833 15.6833 25.5999 16.1667L21.7666 20L25.5999 23.8333Z" fill="#0057FF"/>
</svg>